<?xml version="1.0" encoding="utf-8" standalone="no"?>
<!DOCTYPE svg PUBLIC "-//W3C//DTD SVG 1.1//EN"
  "http://www.w3.org/Graphics/SVG/1.1/DTD/svg11.dtd">
<!-- Created with matplotlib (https://matplotlib.org/) -->
<svg height="351.091875pt" version="1.1" viewBox="0 0 421.664983 351.091875" width="421.664983pt" xmlns="http://www.w3.org/2000/svg" xmlns:xlink="http://www.w3.org/1999/xlink">
 <metadata>
  <rdf:RDF xmlns:cc="http://creativecommons.org/ns#" xmlns:dc="http://purl.org/dc/elements/1.1/" xmlns:rdf="http://www.w3.org/1999/02/22-rdf-syntax-ns#">
   <cc:Work>
    <dc:type rdf:resource="http://purl.org/dc/dcmitype/StillImage"/>
    <dc:date>2020-09-05T21:11:44.457540</dc:date>
    <dc:format>image/svg+xml</dc:format>
    <dc:creator>
     <cc:Agent>
      <dc:title>Matplotlib v3.3.1, https://matplotlib.org/</dc:title>
     </cc:Agent>
    </dc:creator>
   </cc:Work>
  </rdf:RDF>
 </metadata>
 <defs>
  <style type="text/css">*{stroke-linecap:butt;stroke-linejoin:round;}</style>
 </defs>
 <g id="figure_1">
  <g id="patch_1">
   <path d="M 0 351.091875 
L 421.664983 351.091875 
L 421.664983 0 
L 0 0 
z
" style="fill:#ffffff;"/>
  </g>
  <g id="axes_1">
   <g id="patch_2">
    <path d="M 52.079375 311.6 
L 338.347483 311.6 
L 338.347483 7.2 
L 52.079375 7.2 
z
" style="fill:#e5e5e5;"/>
   </g>
   <g id="matplotlib.axis_1">
    <g id="xtick_1">
     <g id="line2d_1">
      <path clip-path="url(#pb8e86d6d79)" d="M 58.895282 311.6 
L 58.895282 7.2 
" style="fill:none;stroke:#ffffff;stroke-linecap:square;stroke-width:0.8;"/>
     </g>
     <g id="line2d_2">
      <defs>
       <path d="M 0 0 
L 0 3.5 
" id="m2bd5097c1f" style="stroke:#555555;stroke-width:0.8;"/>
      </defs>
      <g>
       <use style="fill:#555555;stroke:#555555;stroke-width:0.8;" x="58.895282" xlink:href="#m2bd5097c1f" y="311.6"/>
      </g>
     </g>
     <g id="text_1">
      <!-- 0.1 -->
      <g style="fill:#555555;" transform="translate(50.94372 326.198437)scale(0.1 -0.1)">
       <defs>
        <path d="M 31.78125 66.40625 
Q 24.171875 66.40625 20.328125 58.90625 
Q 16.5 51.421875 16.5 36.375 
Q 16.5 21.390625 20.328125 13.890625 
Q 24.171875 6.390625 31.78125 6.390625 
Q 39.453125 6.390625 43.28125 13.890625 
Q 47.125 21.390625 47.125 36.375 
Q 47.125 51.421875 43.28125 58.90625 
Q 39.453125 66.40625 31.78125 66.40625 
z
M 31.78125 74.21875 
Q 44.046875 74.21875 50.515625 64.515625 
Q 56.984375 54.828125 56.984375 36.375 
Q 56.984375 17.96875 50.515625 8.265625 
Q 44.046875 -1.421875 31.78125 -1.421875 
Q 19.53125 -1.421875 13.0625 8.265625 
Q 6.59375 17.96875 6.59375 36.375 
Q 6.59375 54.828125 13.0625 64.515625 
Q 19.53125 74.21875 31.78125 74.21875 
z
" id="DejaVuSans-48"/>
        <path d="M 10.6875 12.40625 
L 21 12.40625 
L 21 0 
L 10.6875 0 
z
" id="DejaVuSans-46"/>
        <path d="M 12.40625 8.296875 
L 28.515625 8.296875 
L 28.515625 63.921875 
L 10.984375 60.40625 
L 10.984375 69.390625 
L 28.421875 72.90625 
L 38.28125 72.90625 
L 38.28125 8.296875 
L 54.390625 8.296875 
L 54.390625 0 
L 12.40625 0 
z
" id="DejaVuSans-49"/>
       </defs>
       <use xlink:href="#DejaVuSans-48"/>
       <use x="63.623047" xlink:href="#DejaVuSans-46"/>
       <use x="95.410156" xlink:href="#DejaVuSans-49"/>
      </g>
     </g>
    </g>
    <g id="xtick_2">
     <g id="line2d_3">
      <path clip-path="url(#pb8e86d6d79)" d="M 92.974819 311.6 
L 92.974819 7.2 
" style="fill:none;stroke:#ffffff;stroke-linecap:square;stroke-width:0.8;"/>
     </g>
     <g id="line2d_4">
      <g>
       <use style="fill:#555555;stroke:#555555;stroke-width:0.8;" x="92.974819" xlink:href="#m2bd5097c1f" y="311.6"/>
      </g>
     </g>
     <g id="text_2">
      <!-- 0.2 -->
      <g style="fill:#555555;" transform="translate(85.023256 326.198437)scale(0.1 -0.1)">
       <defs>
        <path d="M 19.1875 8.296875 
L 53.609375 8.296875 
L 53.609375 0 
L 7.328125 0 
L 7.328125 8.296875 
Q 12.9375 14.109375 22.625 23.890625 
Q 32.328125 33.6875 34.8125 36.53125 
Q 39.546875 41.84375 41.421875 45.53125 
Q 43.3125 49.21875 43.3125 52.78125 
Q 43.3125 58.59375 39.234375 62.25 
Q 35.15625 65.921875 28.609375 65.921875 
Q 23.96875 65.921875 18.8125 64.3125 
Q 13.671875 62.703125 7.8125 59.421875 
L 7.8125 69.390625 
Q 13.765625 71.78125 18.9375 73 
Q 24.125 74.21875 28.421875 74.21875 
Q 39.75 74.21875 46.484375 68.546875 
Q 53.21875 62.890625 53.21875 53.421875 
Q 53.21875 48.921875 51.53125 44.890625 
Q 49.859375 40.875 45.40625 35.40625 
Q 44.1875 33.984375 37.640625 27.21875 
Q 31.109375 20.453125 19.1875 8.296875 
z
" id="DejaVuSans-50"/>
       </defs>
       <use xlink:href="#DejaVuSans-48"/>
       <use x="63.623047" xlink:href="#DejaVuSans-46"/>
       <use x="95.410156" xlink:href="#DejaVuSans-50"/>
      </g>
     </g>
    </g>
    <g id="xtick_3">
     <g id="line2d_5">
      <path clip-path="url(#pb8e86d6d79)" d="M 127.054356 311.6 
L 127.054356 7.2 
" style="fill:none;stroke:#ffffff;stroke-linecap:square;stroke-width:0.8;"/>
     </g>
     <g id="line2d_6">
      <g>
       <use style="fill:#555555;stroke:#555555;stroke-width:0.8;" x="127.054356" xlink:href="#m2bd5097c1f" y="311.6"/>
      </g>
     </g>
     <g id="text_3">
      <!-- 0.3 -->
      <g style="fill:#555555;" transform="translate(119.102793 326.198437)scale(0.1 -0.1)">
       <defs>
        <path d="M 40.578125 39.3125 
Q 47.65625 37.796875 51.625 33 
Q 55.609375 28.21875 55.609375 21.1875 
Q 55.609375 10.40625 48.1875 4.484375 
Q 40.765625 -1.421875 27.09375 -1.421875 
Q 22.515625 -1.421875 17.65625 -0.515625 
Q 12.796875 0.390625 7.625 2.203125 
L 7.625 11.71875 
Q 11.71875 9.328125 16.59375 8.109375 
Q 21.484375 6.890625 26.8125 6.890625 
Q 36.078125 6.890625 40.9375 10.546875 
Q 45.796875 14.203125 45.796875 21.1875 
Q 45.796875 27.640625 41.28125 31.265625 
Q 36.765625 34.90625 28.71875 34.90625 
L 20.21875 34.90625 
L 20.21875 43.015625 
L 29.109375 43.015625 
Q 36.375 43.015625 40.234375 45.921875 
Q 44.09375 48.828125 44.09375 54.296875 
Q 44.09375 59.90625 40.109375 62.90625 
Q 36.140625 65.921875 28.71875 65.921875 
Q 24.65625 65.921875 20.015625 65.03125 
Q 15.375 64.15625 9.8125 62.3125 
L 9.8125 71.09375 
Q 15.4375 72.65625 20.34375 73.4375 
Q 25.25 74.21875 29.59375 74.21875 
Q 40.828125 74.21875 47.359375 69.109375 
Q 53.90625 64.015625 53.90625 55.328125 
Q 53.90625 49.265625 50.4375 45.09375 
Q 46.96875 40.921875 40.578125 39.3125 
z
" id="DejaVuSans-51"/>
       </defs>
       <use xlink:href="#DejaVuSans-48"/>
       <use x="63.623047" xlink:href="#DejaVuSans-46"/>
       <use x="95.410156" xlink:href="#DejaVuSans-51"/>
      </g>
     </g>
    </g>
    <g id="xtick_4">
     <g id="line2d_7">
      <path clip-path="url(#pb8e86d6d79)" d="M 161.133892 311.6 
L 161.133892 7.2 
" style="fill:none;stroke:#ffffff;stroke-linecap:square;stroke-width:0.8;"/>
     </g>
     <g id="line2d_8">
      <g>
       <use style="fill:#555555;stroke:#555555;stroke-width:0.8;" x="161.133892" xlink:href="#m2bd5097c1f" y="311.6"/>
      </g>
     </g>
     <g id="text_4">
      <!-- 0.4 -->
      <g style="fill:#555555;" transform="translate(153.18233 326.198437)scale(0.1 -0.1)">
       <defs>
        <path d="M 37.796875 64.3125 
L 12.890625 25.390625 
L 37.796875 25.390625 
z
M 35.203125 72.90625 
L 47.609375 72.90625 
L 47.609375 25.390625 
L 58.015625 25.390625 
L 58.015625 17.1875 
L 47.609375 17.1875 
L 47.609375 0 
L 37.796875 0 
L 37.796875 17.1875 
L 4.890625 17.1875 
L 4.890625 26.703125 
z
" id="DejaVuSans-52"/>
       </defs>
       <use xlink:href="#DejaVuSans-48"/>
       <use x="63.623047" xlink:href="#DejaVuSans-46"/>
       <use x="95.410156" xlink:href="#DejaVuSans-52"/>
      </g>
     </g>
    </g>
    <g id="xtick_5">
     <g id="line2d_9">
      <path clip-path="url(#pb8e86d6d79)" d="M 195.213429 311.6 
L 195.213429 7.2 
" style="fill:none;stroke:#ffffff;stroke-linecap:square;stroke-width:0.8;"/>
     </g>
     <g id="line2d_10">
      <g>
       <use style="fill:#555555;stroke:#555555;stroke-width:0.8;" x="195.213429" xlink:href="#m2bd5097c1f" y="311.6"/>
      </g>
     </g>
     <g id="text_5">
      <!-- 0.5 -->
      <g style="fill:#555555;" transform="translate(187.261866 326.198437)scale(0.1 -0.1)">
       <defs>
        <path d="M 10.796875 72.90625 
L 49.515625 72.90625 
L 49.515625 64.59375 
L 19.828125 64.59375 
L 19.828125 46.734375 
Q 21.96875 47.46875 24.109375 47.828125 
Q 26.265625 48.1875 28.421875 48.1875 
Q 40.625 48.1875 47.75 41.5 
Q 54.890625 34.8125 54.890625 23.390625 
Q 54.890625 11.625 47.5625 5.09375 
Q 40.234375 -1.421875 26.90625 -1.421875 
Q 22.3125 -1.421875 17.546875 -0.640625 
Q 12.796875 0.140625 7.71875 1.703125 
L 7.71875 11.625 
Q 12.109375 9.234375 16.796875 8.0625 
Q 21.484375 6.890625 26.703125 6.890625 
Q 35.15625 6.890625 40.078125 11.328125 
Q 45.015625 15.765625 45.015625 23.390625 
Q 45.015625 31 40.078125 35.4375 
Q 35.15625 39.890625 26.703125 39.890625 
Q 22.75 39.890625 18.8125 39.015625 
Q 14.890625 38.140625 10.796875 36.28125 
z
" id="DejaVuSans-53"/>
       </defs>
       <use xlink:href="#DejaVuSans-48"/>
       <use x="63.623047" xlink:href="#DejaVuSans-46"/>
       <use x="95.410156" xlink:href="#DejaVuSans-53"/>
      </g>
     </g>
    </g>
    <g id="xtick_6">
     <g id="line2d_11">
      <path clip-path="url(#pb8e86d6d79)" d="M 229.292965 311.6 
L 229.292965 7.2 
" style="fill:none;stroke:#ffffff;stroke-linecap:square;stroke-width:0.8;"/>
     </g>
     <g id="line2d_12">
      <g>
       <use style="fill:#555555;stroke:#555555;stroke-width:0.8;" x="229.292965" xlink:href="#m2bd5097c1f" y="311.6"/>
      </g>
     </g>
     <g id="text_6">
      <!-- 0.6 -->
      <g style="fill:#555555;" transform="translate(221.341403 326.198437)scale(0.1 -0.1)">
       <defs>
        <path d="M 33.015625 40.375 
Q 26.375 40.375 22.484375 35.828125 
Q 18.609375 31.296875 18.609375 23.390625 
Q 18.609375 15.53125 22.484375 10.953125 
Q 26.375 6.390625 33.015625 6.390625 
Q 39.65625 6.390625 43.53125 10.953125 
Q 47.40625 15.53125 47.40625 23.390625 
Q 47.40625 31.296875 43.53125 35.828125 
Q 39.65625 40.375 33.015625 40.375 
z
M 52.59375 71.296875 
L 52.59375 62.3125 
Q 48.875 64.0625 45.09375 64.984375 
Q 41.3125 65.921875 37.59375 65.921875 
Q 27.828125 65.921875 22.671875 59.328125 
Q 17.53125 52.734375 16.796875 39.40625 
Q 19.671875 43.65625 24.015625 45.921875 
Q 28.375 48.1875 33.59375 48.1875 
Q 44.578125 48.1875 50.953125 41.515625 
Q 57.328125 34.859375 57.328125 23.390625 
Q 57.328125 12.15625 50.6875 5.359375 
Q 44.046875 -1.421875 33.015625 -1.421875 
Q 20.359375 -1.421875 13.671875 8.265625 
Q 6.984375 17.96875 6.984375 36.375 
Q 6.984375 53.65625 15.1875 63.9375 
Q 23.390625 74.21875 37.203125 74.21875 
Q 40.921875 74.21875 44.703125 73.484375 
Q 48.484375 72.75 52.59375 71.296875 
z
" id="DejaVuSans-54"/>
       </defs>
       <use xlink:href="#DejaVuSans-48"/>
       <use x="63.623047" xlink:href="#DejaVuSans-46"/>
       <use x="95.410156" xlink:href="#DejaVuSans-54"/>
      </g>
     </g>
    </g>
    <g id="xtick_7">
     <g id="line2d_13">
      <path clip-path="url(#pb8e86d6d79)" d="M 263.372502 311.6 
L 263.372502 7.2 
" style="fill:none;stroke:#ffffff;stroke-linecap:square;stroke-width:0.8;"/>
     </g>
     <g id="line2d_14">
      <g>
       <use style="fill:#555555;stroke:#555555;stroke-width:0.8;" x="263.372502" xlink:href="#m2bd5097c1f" y="311.6"/>
      </g>
     </g>
     <g id="text_7">
      <!-- 0.7 -->
      <g style="fill:#555555;" transform="translate(255.42094 326.198437)scale(0.1 -0.1)">
       <defs>
        <path d="M 8.203125 72.90625 
L 55.078125 72.90625 
L 55.078125 68.703125 
L 28.609375 0 
L 18.3125 0 
L 43.21875 64.59375 
L 8.203125 64.59375 
z
" id="DejaVuSans-55"/>
       </defs>
       <use xlink:href="#DejaVuSans-48"/>
       <use x="63.623047" xlink:href="#DejaVuSans-46"/>
       <use x="95.410156" xlink:href="#DejaVuSans-55"/>
      </g>
     </g>
    </g>
    <g id="xtick_8">
     <g id="line2d_15">
      <path clip-path="url(#pb8e86d6d79)" d="M 297.452039 311.6 
L 297.452039 7.2 
" style="fill:none;stroke:#ffffff;stroke-linecap:square;stroke-width:0.8;"/>
     </g>
     <g id="line2d_16">
      <g>
       <use style="fill:#555555;stroke:#555555;stroke-width:0.8;" x="297.452039" xlink:href="#m2bd5097c1f" y="311.6"/>
      </g>
     </g>
     <g id="text_8">
      <!-- 0.8 -->
      <g style="fill:#555555;" transform="translate(289.500476 326.198437)scale(0.1 -0.1)">
       <defs>
        <path d="M 31.78125 34.625 
Q 24.75 34.625 20.71875 30.859375 
Q 16.703125 27.09375 16.703125 20.515625 
Q 16.703125 13.921875 20.71875 10.15625 
Q 24.75 6.390625 31.78125 6.390625 
Q 38.8125 6.390625 42.859375 10.171875 
Q 46.921875 13.96875 46.921875 20.515625 
Q 46.921875 27.09375 42.890625 30.859375 
Q 38.875 34.625 31.78125 34.625 
z
M 21.921875 38.8125 
Q 15.578125 40.375 12.03125 44.71875 
Q 8.5 49.078125 8.5 55.328125 
Q 8.5 64.0625 14.71875 69.140625 
Q 20.953125 74.21875 31.78125 74.21875 
Q 42.671875 74.21875 48.875 69.140625 
Q 55.078125 64.0625 55.078125 55.328125 
Q 55.078125 49.078125 51.53125 44.71875 
Q 48 40.375 41.703125 38.8125 
Q 48.828125 37.15625 52.796875 32.3125 
Q 56.78125 27.484375 56.78125 20.515625 
Q 56.78125 9.90625 50.3125 4.234375 
Q 43.84375 -1.421875 31.78125 -1.421875 
Q 19.734375 -1.421875 13.25 4.234375 
Q 6.78125 9.90625 6.78125 20.515625 
Q 6.78125 27.484375 10.78125 32.3125 
Q 14.796875 37.15625 21.921875 38.8125 
z
M 18.3125 54.390625 
Q 18.3125 48.734375 21.84375 45.5625 
Q 25.390625 42.390625 31.78125 42.390625 
Q 38.140625 42.390625 41.71875 45.5625 
Q 45.3125 48.734375 45.3125 54.390625 
Q 45.3125 60.0625 41.71875 63.234375 
Q 38.140625 66.40625 31.78125 66.40625 
Q 25.390625 66.40625 21.84375 63.234375 
Q 18.3125 60.0625 18.3125 54.390625 
z
" id="DejaVuSans-56"/>
       </defs>
       <use xlink:href="#DejaVuSans-48"/>
       <use x="63.623047" xlink:href="#DejaVuSans-46"/>
       <use x="95.410156" xlink:href="#DejaVuSans-56"/>
      </g>
     </g>
    </g>
    <g id="xtick_9">
     <g id="line2d_17">
      <path clip-path="url(#pb8e86d6d79)" d="M 331.531575 311.6 
L 331.531575 7.2 
" style="fill:none;stroke:#ffffff;stroke-linecap:square;stroke-width:0.8;"/>
     </g>
     <g id="line2d_18">
      <g>
       <use style="fill:#555555;stroke:#555555;stroke-width:0.8;" x="331.531575" xlink:href="#m2bd5097c1f" y="311.6"/>
      </g>
     </g>
     <g id="text_9">
      <!-- 0.9 -->
      <g style="fill:#555555;" transform="translate(323.580013 326.198437)scale(0.1 -0.1)">
       <defs>
        <path d="M 10.984375 1.515625 
L 10.984375 10.5 
Q 14.703125 8.734375 18.5 7.8125 
Q 22.3125 6.890625 25.984375 6.890625 
Q 35.75 6.890625 40.890625 13.453125 
Q 46.046875 20.015625 46.78125 33.40625 
Q 43.953125 29.203125 39.59375 26.953125 
Q 35.25 24.703125 29.984375 24.703125 
Q 19.046875 24.703125 12.671875 31.3125 
Q 6.296875 37.9375 6.296875 49.421875 
Q 6.296875 60.640625 12.9375 67.421875 
Q 19.578125 74.21875 30.609375 74.21875 
Q 43.265625 74.21875 49.921875 64.515625 
Q 56.59375 54.828125 56.59375 36.375 
Q 56.59375 19.140625 48.40625 8.859375 
Q 40.234375 -1.421875 26.421875 -1.421875 
Q 22.703125 -1.421875 18.890625 -0.6875 
Q 15.09375 0.046875 10.984375 1.515625 
z
M 30.609375 32.421875 
Q 37.25 32.421875 41.125 36.953125 
Q 45.015625 41.5 45.015625 49.421875 
Q 45.015625 57.28125 41.125 61.84375 
Q 37.25 66.40625 30.609375 66.40625 
Q 23.96875 66.40625 20.09375 61.84375 
Q 16.21875 57.28125 16.21875 49.421875 
Q 16.21875 41.5 20.09375 36.953125 
Q 23.96875 32.421875 30.609375 32.421875 
z
" id="DejaVuSans-57"/>
       </defs>
       <use xlink:href="#DejaVuSans-48"/>
       <use x="63.623047" xlink:href="#DejaVuSans-46"/>
       <use x="95.410156" xlink:href="#DejaVuSans-57"/>
      </g>
     </g>
    </g>
    <g id="text_10">
     <!-- ratio -->
     <g style="fill:#555555;" transform="translate(181.379679 341.39625)scale(0.12 -0.12)">
      <defs>
       <path d="M 41.109375 46.296875 
Q 39.59375 47.171875 37.8125 47.578125 
Q 36.03125 48 33.890625 48 
Q 26.265625 48 22.1875 43.046875 
Q 18.109375 38.09375 18.109375 28.8125 
L 18.109375 0 
L 9.078125 0 
L 9.078125 54.6875 
L 18.109375 54.6875 
L 18.109375 46.1875 
Q 20.953125 51.171875 25.484375 53.578125 
Q 30.03125 56 36.53125 56 
Q 37.453125 56 38.578125 55.875 
Q 39.703125 55.765625 41.0625 55.515625 
z
" id="DejaVuSans-114"/>
       <path d="M 34.28125 27.484375 
Q 23.390625 27.484375 19.1875 25 
Q 14.984375 22.515625 14.984375 16.5 
Q 14.984375 11.71875 18.140625 8.90625 
Q 21.296875 6.109375 26.703125 6.109375 
Q 34.1875 6.109375 38.703125 11.40625 
Q 43.21875 16.703125 43.21875 25.484375 
L 43.21875 27.484375 
z
M 52.203125 31.203125 
L 52.203125 0 
L 43.21875 0 
L 43.21875 8.296875 
Q 40.140625 3.328125 35.546875 0.953125 
Q 30.953125 -1.421875 24.3125 -1.421875 
Q 15.921875 -1.421875 10.953125 3.296875 
Q 6 8.015625 6 15.921875 
Q 6 25.140625 12.171875 29.828125 
Q 18.359375 34.515625 30.609375 34.515625 
L 43.21875 34.515625 
L 43.21875 35.40625 
Q 43.21875 41.609375 39.140625 45 
Q 35.0625 48.390625 27.6875 48.390625 
Q 23 48.390625 18.546875 47.265625 
Q 14.109375 46.140625 10.015625 43.890625 
L 10.015625 52.203125 
Q 14.9375 54.109375 19.578125 55.046875 
Q 24.21875 56 28.609375 56 
Q 40.484375 56 46.34375 49.84375 
Q 52.203125 43.703125 52.203125 31.203125 
z
" id="DejaVuSans-97"/>
       <path d="M 18.3125 70.21875 
L 18.3125 54.6875 
L 36.8125 54.6875 
L 36.8125 47.703125 
L 18.3125 47.703125 
L 18.3125 18.015625 
Q 18.3125 11.328125 20.140625 9.421875 
Q 21.96875 7.515625 27.59375 7.515625 
L 36.8125 7.515625 
L 36.8125 0 
L 27.59375 0 
Q 17.1875 0 13.234375 3.875 
Q 9.28125 7.765625 9.28125 18.015625 
L 9.28125 47.703125 
L 2.6875 47.703125 
L 2.6875 54.6875 
L 9.28125 54.6875 
L 9.28125 70.21875 
z
" id="DejaVuSans-116"/>
       <path d="M 9.421875 54.6875 
L 18.40625 54.6875 
L 18.40625 0 
L 9.421875 0 
z
M 9.421875 75.984375 
L 18.40625 75.984375 
L 18.40625 64.59375 
L 9.421875 64.59375 
z
" id="DejaVuSans-105"/>
       <path d="M 30.609375 48.390625 
Q 23.390625 48.390625 19.1875 42.75 
Q 14.984375 37.109375 14.984375 27.296875 
Q 14.984375 17.484375 19.15625 11.84375 
Q 23.34375 6.203125 30.609375 6.203125 
Q 37.796875 6.203125 41.984375 11.859375 
Q 46.1875 17.53125 46.1875 27.296875 
Q 46.1875 37.015625 41.984375 42.703125 
Q 37.796875 48.390625 30.609375 48.390625 
z
M 30.609375 56 
Q 42.328125 56 49.015625 48.375 
Q 55.71875 40.765625 55.71875 27.296875 
Q 55.71875 13.875 49.015625 6.21875 
Q 42.328125 -1.421875 30.609375 -1.421875 
Q 18.84375 -1.421875 12.171875 6.21875 
Q 5.515625 13.875 5.515625 27.296875 
Q 5.515625 40.765625 12.171875 48.375 
Q 18.84375 56 30.609375 56 
z
" id="DejaVuSans-111"/>
      </defs>
      <use xlink:href="#DejaVuSans-114"/>
      <use x="41.113281" xlink:href="#DejaVuSans-97"/>
      <use x="102.392578" xlink:href="#DejaVuSans-116"/>
      <use x="141.601562" xlink:href="#DejaVuSans-105"/>
      <use x="169.384766" xlink:href="#DejaVuSans-111"/>
     </g>
    </g>
   </g>
   <g id="matplotlib.axis_2">
    <g id="ytick_1">
     <g id="line2d_19">
      <path clip-path="url(#pb8e86d6d79)" d="M 52.079375 294.804193 
L 338.347483 294.804193 
" style="fill:none;stroke:#ffffff;stroke-linecap:square;stroke-width:0.8;"/>
     </g>
     <g id="line2d_20">
      <defs>
       <path d="M 0 0 
L -3.5 0 
" id="m7fe481374d" style="stroke:#555555;stroke-width:0.8;"/>
      </defs>
      <g>
       <use style="fill:#555555;stroke:#555555;stroke-width:0.8;" x="52.079375" xlink:href="#m7fe481374d" y="294.804193"/>
      </g>
     </g>
     <g id="text_11">
      <!-- 0.76 -->
      <g style="fill:#555555;" transform="translate(22.81375 298.603412)scale(0.1 -0.1)">
       <use xlink:href="#DejaVuSans-48"/>
       <use x="63.623047" xlink:href="#DejaVuSans-46"/>
       <use x="95.410156" xlink:href="#DejaVuSans-55"/>
       <use x="159.033203" xlink:href="#DejaVuSans-54"/>
      </g>
     </g>
    </g>
    <g id="ytick_2">
     <g id="line2d_21">
      <path clip-path="url(#pb8e86d6d79)" d="M 52.079375 256.331436 
L 338.347483 256.331436 
" style="fill:none;stroke:#ffffff;stroke-linecap:square;stroke-width:0.8;"/>
     </g>
     <g id="line2d_22">
      <g>
       <use style="fill:#555555;stroke:#555555;stroke-width:0.8;" x="52.079375" xlink:href="#m7fe481374d" y="256.331436"/>
      </g>
     </g>
     <g id="text_12">
      <!-- 0.78 -->
      <g style="fill:#555555;" transform="translate(22.81375 260.130655)scale(0.1 -0.1)">
       <use xlink:href="#DejaVuSans-48"/>
       <use x="63.623047" xlink:href="#DejaVuSans-46"/>
       <use x="95.410156" xlink:href="#DejaVuSans-55"/>
       <use x="159.033203" xlink:href="#DejaVuSans-56"/>
      </g>
     </g>
    </g>
    <g id="ytick_3">
     <g id="line2d_23">
      <path clip-path="url(#pb8e86d6d79)" d="M 52.079375 217.858679 
L 338.347483 217.858679 
" style="fill:none;stroke:#ffffff;stroke-linecap:square;stroke-width:0.8;"/>
     </g>
     <g id="line2d_24">
      <g>
       <use style="fill:#555555;stroke:#555555;stroke-width:0.8;" x="52.079375" xlink:href="#m7fe481374d" y="217.858679"/>
      </g>
     </g>
     <g id="text_13">
      <!-- 0.80 -->
      <g style="fill:#555555;" transform="translate(22.81375 221.657898)scale(0.1 -0.1)">
       <use xlink:href="#DejaVuSans-48"/>
       <use x="63.623047" xlink:href="#DejaVuSans-46"/>
       <use x="95.410156" xlink:href="#DejaVuSans-56"/>
       <use x="159.033203" xlink:href="#DejaVuSans-48"/>
      </g>
     </g>
    </g>
    <g id="ytick_4">
     <g id="line2d_25">
      <path clip-path="url(#pb8e86d6d79)" d="M 52.079375 179.385921 
L 338.347483 179.385921 
" style="fill:none;stroke:#ffffff;stroke-linecap:square;stroke-width:0.8;"/>
     </g>
     <g id="line2d_26">
      <g>
       <use style="fill:#555555;stroke:#555555;stroke-width:0.8;" x="52.079375" xlink:href="#m7fe481374d" y="179.385921"/>
      </g>
     </g>
     <g id="text_14">
      <!-- 0.82 -->
      <g style="fill:#555555;" transform="translate(22.81375 183.18514)scale(0.1 -0.1)">
       <use xlink:href="#DejaVuSans-48"/>
       <use x="63.623047" xlink:href="#DejaVuSans-46"/>
       <use x="95.410156" xlink:href="#DejaVuSans-56"/>
       <use x="159.033203" xlink:href="#DejaVuSans-50"/>
      </g>
     </g>
    </g>
    <g id="ytick_5">
     <g id="line2d_27">
      <path clip-path="url(#pb8e86d6d79)" d="M 52.079375 140.913164 
L 338.347483 140.913164 
" style="fill:none;stroke:#ffffff;stroke-linecap:square;stroke-width:0.8;"/>
     </g>
     <g id="line2d_28">
      <g>
       <use style="fill:#555555;stroke:#555555;stroke-width:0.8;" x="52.079375" xlink:href="#m7fe481374d" y="140.913164"/>
      </g>
     </g>
     <g id="text_15">
      <!-- 0.84 -->
      <g style="fill:#555555;" transform="translate(22.81375 144.712383)scale(0.1 -0.1)">
       <use xlink:href="#DejaVuSans-48"/>
       <use x="63.623047" xlink:href="#DejaVuSans-46"/>
       <use x="95.410156" xlink:href="#DejaVuSans-56"/>
       <use x="159.033203" xlink:href="#DejaVuSans-52"/>
      </g>
     </g>
    </g>
    <g id="ytick_6">
     <g id="line2d_29">
      <path clip-path="url(#pb8e86d6d79)" d="M 52.079375 102.440407 
L 338.347483 102.440407 
" style="fill:none;stroke:#ffffff;stroke-linecap:square;stroke-width:0.8;"/>
     </g>
     <g id="line2d_30">
      <g>
       <use style="fill:#555555;stroke:#555555;stroke-width:0.8;" x="52.079375" xlink:href="#m7fe481374d" y="102.440407"/>
      </g>
     </g>
     <g id="text_16">
      <!-- 0.86 -->
      <g style="fill:#555555;" transform="translate(22.81375 106.239625)scale(0.1 -0.1)">
       <use xlink:href="#DejaVuSans-48"/>
       <use x="63.623047" xlink:href="#DejaVuSans-46"/>
       <use x="95.410156" xlink:href="#DejaVuSans-56"/>
       <use x="159.033203" xlink:href="#DejaVuSans-54"/>
      </g>
     </g>
    </g>
    <g id="ytick_7">
     <g id="line2d_31">
      <path clip-path="url(#pb8e86d6d79)" d="M 52.079375 63.967649 
L 338.347483 63.967649 
" style="fill:none;stroke:#ffffff;stroke-linecap:square;stroke-width:0.8;"/>
     </g>
     <g id="line2d_32">
      <g>
       <use style="fill:#555555;stroke:#555555;stroke-width:0.8;" x="52.079375" xlink:href="#m7fe481374d" y="63.967649"/>
      </g>
     </g>
     <g id="text_17">
      <!-- 0.88 -->
      <g style="fill:#555555;" transform="translate(22.81375 67.766868)scale(0.1 -0.1)">
       <use xlink:href="#DejaVuSans-48"/>
       <use x="63.623047" xlink:href="#DejaVuSans-46"/>
       <use x="95.410156" xlink:href="#DejaVuSans-56"/>
       <use x="159.033203" xlink:href="#DejaVuSans-56"/>
      </g>
     </g>
    </g>
    <g id="ytick_8">
     <g id="line2d_33">
      <path clip-path="url(#pb8e86d6d79)" d="M 52.079375 25.494892 
L 338.347483 25.494892 
" style="fill:none;stroke:#ffffff;stroke-linecap:square;stroke-width:0.8;"/>
     </g>
     <g id="line2d_34">
      <g>
       <use style="fill:#555555;stroke:#555555;stroke-width:0.8;" x="52.079375" xlink:href="#m7fe481374d" y="25.494892"/>
      </g>
     </g>
     <g id="text_18">
      <!-- 0.90 -->
      <g style="fill:#555555;" transform="translate(22.81375 29.294111)scale(0.1 -0.1)">
       <use xlink:href="#DejaVuSans-48"/>
       <use x="63.623047" xlink:href="#DejaVuSans-46"/>
       <use x="95.410156" xlink:href="#DejaVuSans-57"/>
       <use x="159.033203" xlink:href="#DejaVuSans-48"/>
      </g>
     </g>
    </g>
    <g id="text_19">
     <!-- accuracy -->
     <g style="fill:#555555;" transform="translate(16.318125 186.47125)rotate(-90)scale(0.12 -0.12)">
      <defs>
       <path d="M 48.78125 52.59375 
L 48.78125 44.1875 
Q 44.96875 46.296875 41.140625 47.34375 
Q 37.3125 48.390625 33.40625 48.390625 
Q 24.65625 48.390625 19.8125 42.84375 
Q 14.984375 37.3125 14.984375 27.296875 
Q 14.984375 17.28125 19.8125 11.734375 
Q 24.65625 6.203125 33.40625 6.203125 
Q 37.3125 6.203125 41.140625 7.25 
Q 44.96875 8.296875 48.78125 10.40625 
L 48.78125 2.09375 
Q 45.015625 0.34375 40.984375 -0.53125 
Q 36.96875 -1.421875 32.421875 -1.421875 
Q 20.0625 -1.421875 12.78125 6.34375 
Q 5.515625 14.109375 5.515625 27.296875 
Q 5.515625 40.671875 12.859375 48.328125 
Q 20.21875 56 33.015625 56 
Q 37.15625 56 41.109375 55.140625 
Q 45.0625 54.296875 48.78125 52.59375 
z
" id="DejaVuSans-99"/>
       <path d="M 8.5 21.578125 
L 8.5 54.6875 
L 17.484375 54.6875 
L 17.484375 21.921875 
Q 17.484375 14.15625 20.5 10.265625 
Q 23.53125 6.390625 29.59375 6.390625 
Q 36.859375 6.390625 41.078125 11.03125 
Q 45.3125 15.671875 45.3125 23.6875 
L 45.3125 54.6875 
L 54.296875 54.6875 
L 54.296875 0 
L 45.3125 0 
L 45.3125 8.40625 
Q 42.046875 3.421875 37.71875 1 
Q 33.40625 -1.421875 27.6875 -1.421875 
Q 18.265625 -1.421875 13.375 4.4375 
Q 8.5 10.296875 8.5 21.578125 
z
M 31.109375 56 
z
" id="DejaVuSans-117"/>
       <path d="M 32.171875 -5.078125 
Q 28.375 -14.84375 24.75 -17.8125 
Q 21.140625 -20.796875 15.09375 -20.796875 
L 7.90625 -20.796875 
L 7.90625 -13.28125 
L 13.1875 -13.28125 
Q 16.890625 -13.28125 18.9375 -11.515625 
Q 21 -9.765625 23.484375 -3.21875 
L 25.09375 0.875 
L 2.984375 54.6875 
L 12.5 54.6875 
L 29.59375 11.921875 
L 46.6875 54.6875 
L 56.203125 54.6875 
z
" id="DejaVuSans-121"/>
      </defs>
      <use xlink:href="#DejaVuSans-97"/>
      <use x="61.279297" xlink:href="#DejaVuSans-99"/>
      <use x="116.259766" xlink:href="#DejaVuSans-99"/>
      <use x="171.240234" xlink:href="#DejaVuSans-117"/>
      <use x="234.619141" xlink:href="#DejaVuSans-114"/>
      <use x="275.732422" xlink:href="#DejaVuSans-97"/>
      <use x="337.011719" xlink:href="#DejaVuSans-99"/>
      <use x="391.992188" xlink:href="#DejaVuSans-121"/>
     </g>
    </g>
   </g>
   <g id="PathCollection_1">
    <defs>
     <path d="M 0 3 
C 0.795609 3 1.55874 2.683901 2.12132 2.12132 
C 2.683901 1.55874 3 0.795609 3 0 
C 3 -0.795609 2.683901 -1.55874 2.12132 -2.12132 
C 1.55874 -2.683901 0.795609 -3 0 -3 
C -0.795609 -3 -1.55874 -2.683901 -2.12132 -2.12132 
C -2.683901 -1.55874 -3 -0.795609 -3 0 
C -3 0.795609 -2.683901 1.55874 -2.12132 2.12132 
C -1.55874 2.683901 -0.795609 3 0 3 
z
" id="m896c4b2424" style="stroke:#e24a33;stroke-opacity:0.8;"/>
    </defs>
    <g clip-path="url(#pb8e86d6d79)">
     <use style="fill:#e24a33;fill-opacity:0.8;stroke:#e24a33;stroke-opacity:0.8;" x="33.33563" xlink:href="#m896c4b2424" y="297.763636"/>
     <use style="fill:#e24a33;fill-opacity:0.8;stroke:#e24a33;stroke-opacity:0.8;" x="41.855514" xlink:href="#m896c4b2424" y="254.509042"/>
     <use style="fill:#e24a33;fill-opacity:0.8;stroke:#e24a33;stroke-opacity:0.8;" x="50.375398" xlink:href="#m896c4b2424" y="209.540245"/>
     <use style="fill:#e24a33;fill-opacity:0.8;stroke:#e24a33;stroke-opacity:0.8;" x="58.895282" xlink:href="#m896c4b2424" y="195.416237"/>
     <use style="fill:#e24a33;fill-opacity:0.8;stroke:#e24a33;stroke-opacity:0.8;" x="67.415166" xlink:href="#m896c4b2424" y="180.485143"/>
     <use style="fill:#e24a33;fill-opacity:0.8;stroke:#e24a33;stroke-opacity:0.8;" x="75.935051" xlink:href="#m896c4b2424" y="182.327956"/>
     <use style="fill:#e24a33;fill-opacity:0.8;stroke:#e24a33;stroke-opacity:0.8;" x="84.454935" xlink:href="#m896c4b2424" y="169.592856"/>
     <use style="fill:#e24a33;fill-opacity:0.8;stroke:#e24a33;stroke-opacity:0.8;" x="92.974819" xlink:href="#m896c4b2424" y="171.21046"/>
     <use style="fill:#e24a33;fill-opacity:0.8;stroke:#e24a33;stroke-opacity:0.8;" x="101.494703" xlink:href="#m896c4b2424" y="163.748607"/>
     <use style="fill:#e24a33;fill-opacity:0.8;stroke:#e24a33;stroke-opacity:0.8;" x="110.014587" xlink:href="#m896c4b2424" y="156.558752"/>
     <use style="fill:#e24a33;fill-opacity:0.8;stroke:#e24a33;stroke-opacity:0.8;" x="118.534471" xlink:href="#m896c4b2424" y="150.73035"/>
     <use style="fill:#e24a33;fill-opacity:0.8;stroke:#e24a33;stroke-opacity:0.8;" x="127.054356" xlink:href="#m896c4b2424" y="142.836802"/>
     <use style="fill:#e24a33;fill-opacity:0.8;stroke:#e24a33;stroke-opacity:0.8;" x="135.57424" xlink:href="#m896c4b2424" y="136.35343"/>
     <use style="fill:#e24a33;fill-opacity:0.8;stroke:#e24a33;stroke-opacity:0.8;" x="144.094124" xlink:href="#m896c4b2424" y="135.290223"/>
     <use style="fill:#e24a33;fill-opacity:0.8;stroke:#e24a33;stroke-opacity:0.8;" x="152.614008" xlink:href="#m896c4b2424" y="135.680869"/>
     <use style="fill:#e24a33;fill-opacity:0.8;stroke:#e24a33;stroke-opacity:0.8;" x="161.133892" xlink:href="#m896c4b2424" y="131.615581"/>
     <use style="fill:#e24a33;fill-opacity:0.8;stroke:#e24a33;stroke-opacity:0.8;" x="169.653776" xlink:href="#m896c4b2424" y="120.840421"/>
     <use style="fill:#e24a33;fill-opacity:0.8;stroke:#e24a33;stroke-opacity:0.8;" x="178.173661" xlink:href="#m896c4b2424" y="116.080748"/>
     <use style="fill:#e24a33;fill-opacity:0.8;stroke:#e24a33;stroke-opacity:0.8;" x="186.693545" xlink:href="#m896c4b2424" y="115.264659"/>
     <use style="fill:#e24a33;fill-opacity:0.8;stroke:#e24a33;stroke-opacity:0.8;" x="195.213429" xlink:href="#m896c4b2424" y="113.212779"/>
     <use style="fill:#e24a33;fill-opacity:0.8;stroke:#e24a33;stroke-opacity:0.8;" x="203.733313" xlink:href="#m896c4b2424" y="115.399651"/>
     <use style="fill:#e24a33;fill-opacity:0.8;stroke:#e24a33;stroke-opacity:0.8;" x="212.253197" xlink:href="#m896c4b2424" y="110.989908"/>
     <use style="fill:#e24a33;fill-opacity:0.8;stroke:#e24a33;stroke-opacity:0.8;" x="220.773081" xlink:href="#m896c4b2424" y="110.587579"/>
     <use style="fill:#e24a33;fill-opacity:0.8;stroke:#e24a33;stroke-opacity:0.8;" x="229.292965" xlink:href="#m896c4b2424" y="109.654049"/>
     <use style="fill:#e24a33;fill-opacity:0.8;stroke:#e24a33;stroke-opacity:0.8;" x="237.81285" xlink:href="#m896c4b2424" y="105.005257"/>
     <use style="fill:#e24a33;fill-opacity:0.8;stroke:#e24a33;stroke-opacity:0.8;" x="246.332734" xlink:href="#m896c4b2424" y="102.990018"/>
     <use style="fill:#e24a33;fill-opacity:0.8;stroke:#e24a33;stroke-opacity:0.8;" x="254.852618" xlink:href="#m896c4b2424" y="108.951181"/>
     <use style="fill:#e24a33;fill-opacity:0.8;stroke:#e24a33;stroke-opacity:0.8;" x="263.372502" xlink:href="#m896c4b2424" y="108.852533"/>
     <use style="fill:#e24a33;fill-opacity:0.8;stroke:#e24a33;stroke-opacity:0.8;" x="271.892386" xlink:href="#m896c4b2424" y="103.839416"/>
     <use style="fill:#e24a33;fill-opacity:0.8;stroke:#e24a33;stroke-opacity:0.8;" x="280.41227" xlink:href="#m896c4b2424" y="105.518227"/>
     <use style="fill:#e24a33;fill-opacity:0.8;stroke:#e24a33;stroke-opacity:0.8;" x="288.932155" xlink:href="#m896c4b2424" y="97.310706"/>
     <use style="fill:#e24a33;fill-opacity:0.8;stroke:#e24a33;stroke-opacity:0.8;" x="297.452039" xlink:href="#m896c4b2424" y="92.822217"/>
     <use style="fill:#e24a33;fill-opacity:0.8;stroke:#e24a33;stroke-opacity:0.8;" x="305.971923" xlink:href="#m896c4b2424" y="90.348969"/>
     <use style="fill:#e24a33;fill-opacity:0.8;stroke:#e24a33;stroke-opacity:0.8;" x="314.491807" xlink:href="#m896c4b2424" y="75.509477"/>
     <use style="fill:#e24a33;fill-opacity:0.8;stroke:#e24a33;stroke-opacity:0.8;" x="323.011691" xlink:href="#m896c4b2424" y="71.662201"/>
     <use style="fill:#e24a33;fill-opacity:0.8;stroke:#e24a33;stroke-opacity:0.8;" x="331.531575" xlink:href="#m896c4b2424" y="90.898579"/>
     <use style="fill:#e24a33;fill-opacity:0.8;stroke:#e24a33;stroke-opacity:0.8;" x="340.051459" xlink:href="#m896c4b2424" y="97.310706"/>
     <use style="fill:#e24a33;fill-opacity:0.8;stroke:#e24a33;stroke-opacity:0.8;" x="348.571344" xlink:href="#m896c4b2424" y="83.204028"/>
     <use style="fill:#e24a33;fill-opacity:0.8;stroke:#e24a33;stroke-opacity:0.8;" x="357.091228" xlink:href="#m896c4b2424" y="110.134958"/>
    </g>
   </g>
   <g id="PolyCollection_1">
    <path clip-path="url(#pb8e86d6d79)" d="M 33.33563 178.31625 
L 33.33563 224.604857 
L 36.605888 222.864133 
L 39.876147 221.191795 
L 43.146406 219.525154 
L 46.416664 217.873401 
L 49.686923 216.206057 
L 52.957181 214.457419 
L 56.22744 212.707897 
L 59.497698 210.9998 
L 62.767957 209.239 
L 66.038216 207.475985 
L 69.308474 205.71297 
L 72.578733 203.963491 
L 75.848991 202.214192 
L 79.11925 200.464893 
L 82.389508 198.719067 
L 85.659767 197.068488 
L 88.930025 195.417909 
L 92.200284 193.76733 
L 95.470543 192.081803 
L 98.740801 190.320148 
L 102.01106 188.391353 
L 105.281318 186.685912 
L 108.551577 184.945206 
L 111.821835 183.110567 
L 115.092094 181.275929 
L 118.362353 179.519355 
L 121.632611 177.92093 
L 124.90287 176.340544 
L 128.173128 174.700496 
L 131.443387 172.995282 
L 134.713645 171.233658 
L 137.983904 169.586395 
L 141.254162 167.971539 
L 144.524421 166.377742 
L 147.79468 164.69942 
L 151.064938 162.977751 
L 154.335197 161.293549 
L 157.605455 159.681078 
L 160.875714 158.003955 
L 164.145972 156.444428 
L 167.416231 154.838339 
L 170.68649 153.224907 
L 173.956748 151.609057 
L 177.227007 149.969934 
L 180.497265 148.176882 
L 183.767524 146.480937 
L 187.037782 144.827268 
L 190.308041 143.265118 
L 193.5783 141.565972 
L 196.848558 139.866826 
L 200.118817 138.407062 
L 203.389075 136.979055 
L 206.659334 135.326288 
L 209.929592 133.856983 
L 213.199851 132.321031 
L 216.470109 130.721571 
L 219.740368 129.236423 
L 223.010627 127.721558 
L 226.280885 126.176976 
L 229.551144 124.633191 
L 232.821402 123.18336 
L 236.091661 121.826126 
L 239.361919 120.399652 
L 242.632178 118.920555 
L 245.902437 117.378775 
L 249.172695 116.041651 
L 252.442954 114.586998 
L 255.713212 113.163388 
L 258.983471 111.929327 
L 262.253729 110.505635 
L 265.523988 109.173337 
L 268.794247 107.982003 
L 272.064505 106.813358 
L 275.334764 105.582409 
L 278.605022 104.455944 
L 281.875281 103.289716 
L 285.145539 102.094043 
L 288.415798 100.849456 
L 291.686056 99.695655 
L 294.956315 98.403379 
L 298.226574 97.324523 
L 301.496832 96.19793 
L 304.767091 95.058137 
L 308.037349 93.972625 
L 311.307608 92.776171 
L 314.577866 91.608506 
L 317.848125 90.599718 
L 321.118384 89.458098 
L 324.388642 88.213453 
L 327.658901 87.109358 
L 330.929159 86.144418 
L 334.199418 85.132696 
L 337.469676 84.03743 
L 340.739935 83.108851 
L 344.010194 82.037203 
L 347.280452 80.95514 
L 350.550711 79.933175 
L 353.820969 78.907962 
L 357.091228 77.882187 
L 357.091228 45.516714 
L 357.091228 45.516714 
L 353.820969 47.219509 
L 350.550711 48.89629 
L 347.280452 50.642227 
L 344.010194 52.481921 
L 340.739935 54.321615 
L 337.469676 55.996756 
L 334.199418 57.77859 
L 330.929159 59.478266 
L 327.658901 61.220427 
L 324.388642 62.983632 
L 321.118384 64.779378 
L 317.848125 66.515412 
L 314.577866 68.286672 
L 311.307608 69.94815 
L 308.037349 71.654237 
L 304.767091 73.341411 
L 301.496832 75.030581 
L 298.226574 76.813591 
L 294.956315 78.529574 
L 291.686056 80.245558 
L 288.415798 81.945093 
L 285.145539 83.615062 
L 281.875281 85.287022 
L 278.605022 87.024899 
L 275.334764 88.757733 
L 272.064505 90.384331 
L 268.794247 91.965344 
L 265.523988 93.634875 
L 262.253729 95.487441 
L 258.983471 97.266857 
L 255.713212 98.947225 
L 252.442954 100.628526 
L 249.172695 102.307961 
L 245.902437 104.05045 
L 242.632178 105.672999 
L 239.361919 107.238535 
L 236.091661 108.689999 
L 232.821402 110.308304 
L 229.551144 111.749005 
L 226.280885 112.999936 
L 223.010627 114.274999 
L 219.740368 115.708507 
L 216.470109 117.12089 
L 213.199851 118.545909 
L 209.929592 119.80937 
L 206.659334 120.969607 
L 203.389075 122.28436 
L 200.118817 123.366015 
L 196.848558 124.628346 
L 193.5783 126.031576 
L 190.308041 127.155732 
L 187.037782 128.277121 
L 183.767524 129.376457 
L 180.497265 130.465033 
L 177.227007 131.528648 
L 173.956748 132.584147 
L 170.68649 133.656622 
L 167.416231 134.739146 
L 164.145972 135.784716 
L 160.875714 136.849421 
L 157.605455 137.957241 
L 154.335197 139.06596 
L 151.064938 140.041475 
L 147.79468 141.182963 
L 144.524421 142.275235 
L 141.254162 143.346491 
L 137.983904 144.386646 
L 134.713645 145.427668 
L 131.443387 146.46869 
L 128.173128 147.488569 
L 124.90287 148.550167 
L 121.632611 149.596432 
L 118.362353 150.680051 
L 115.092094 151.744018 
L 111.821835 152.835004 
L 108.551577 153.871952 
L 105.281318 154.935919 
L 102.01106 155.999886 
L 98.740801 157.063852 
L 95.470543 158.129183 
L 92.200284 159.23864 
L 88.930025 160.3762 
L 85.659767 161.421231 
L 82.389508 162.441872 
L 79.11925 163.462513 
L 75.848991 164.528269 
L 72.578733 165.594784 
L 69.308474 166.661298 
L 66.038216 167.727813 
L 62.767957 168.794327 
L 59.497698 169.860841 
L 56.22744 170.927356 
L 52.957181 171.99387 
L 49.686923 173.060384 
L 46.416664 174.126899 
L 43.146406 175.182973 
L 39.876147 176.21373 
L 36.605888 177.27644 
L 33.33563 178.31625 
z
" style="fill:#e24a33;fill-opacity:0.15;"/>
   </g>
   <g id="PathCollection_2">
    <defs>
     <path d="M 0 3 
C 0.795609 3 1.55874 2.683901 2.12132 2.12132 
C 2.683901 1.55874 3 0.795609 3 0 
C 3 -0.795609 2.683901 -1.55874 2.12132 -2.12132 
C 1.55874 -2.683901 0.795609 -3 0 -3 
C -0.795609 -3 -1.55874 -2.683901 -2.12132 -2.12132 
C -2.683901 -1.55874 -3 -0.795609 -3 0 
C -3 0.795609 -2.683901 1.55874 -2.12132 2.12132 
C -1.55874 2.683901 -0.795609 3 0 3 
z
" id="m90205155cc" style="stroke:#348abd;stroke-opacity:0.8;"/>
    </defs>
    <g clip-path="url(#pb8e86d6d79)">
     <use style="fill:#348abd;fill-opacity:0.8;stroke:#348abd;stroke-opacity:0.8;" x="58.895282" xlink:href="#m90205155cc" y="258.468826"/>
     <use style="fill:#348abd;fill-opacity:0.8;stroke:#348abd;stroke-opacity:0.8;" x="92.974819" xlink:href="#m90205155cc" y="157.504535"/>
     <use style="fill:#348abd;fill-opacity:0.8;stroke:#348abd;stroke-opacity:0.8;" x="127.054356" xlink:href="#m90205155cc" y="131.0202"/>
     <use style="fill:#348abd;fill-opacity:0.8;stroke:#348abd;stroke-opacity:0.8;" x="161.133892" xlink:href="#m90205155cc" y="153.416757"/>
     <use style="fill:#348abd;fill-opacity:0.8;stroke:#348abd;stroke-opacity:0.8;" x="195.213429" xlink:href="#m90205155cc" y="124.369935"/>
     <use style="fill:#348abd;fill-opacity:0.8;stroke:#348abd;stroke-opacity:0.8;" x="229.292965" xlink:href="#m90205155cc" y="100.997641"/>
     <use style="fill:#348abd;fill-opacity:0.8;stroke:#348abd;stroke-opacity:0.8;" x="263.372502" xlink:href="#m90205155cc" y="88.333692"/>
     <use style="fill:#348abd;fill-opacity:0.8;stroke:#348abd;stroke-opacity:0.8;" x="297.452039" xlink:href="#m90205155cc" y="92.822199"/>
     <use style="fill:#348abd;fill-opacity:0.8;stroke:#348abd;stroke-opacity:0.8;" x="331.531575" xlink:href="#m90205155cc" y="102.440379"/>
    </g>
   </g>
   <g id="PolyCollection_2">
    <path clip-path="url(#pb8e86d6d79)" d="M 58.895282 148.617116 
L 58.895282 241.125536 
L 61.649184 239.260797 
L 64.403086 237.484672 
L 67.156988 235.708547 
L 69.91089 233.932422 
L 72.664792 232.156297 
L 75.418694 230.380172 
L 78.172596 228.604047 
L 80.926498 226.827922 
L 83.6804 224.989388 
L 86.434302 223.067114 
L 89.188204 221.141712 
L 91.942106 219.06734 
L 94.696008 217.126443 
L 97.44991 215.418951 
L 100.203812 213.80649 
L 102.957714 212.205471 
L 105.711615 210.229462 
L 108.465517 208.115411 
L 111.219419 206.062381 
L 113.973321 204.026252 
L 116.727223 201.98142 
L 119.481125 199.956146 
L 122.235027 198.023931 
L 124.988929 196.345284 
L 127.742831 194.738139 
L 130.496733 192.743532 
L 133.250635 190.966616 
L 136.004537 189.069113 
L 138.758439 187.227888 
L 141.512341 185.358546 
L 144.266243 183.513284 
L 147.020145 181.640529 
L 149.774047 179.89143 
L 152.527949 178.356959 
L 155.281851 176.912891 
L 158.035753 175.462559 
L 160.789654 174.014151 
L 163.543556 172.360134 
L 166.297458 170.441013 
L 169.05136 168.735465 
L 171.805262 167.018515 
L 174.559164 165.092012 
L 177.313066 163.626536 
L 180.066968 161.934078 
L 182.82087 160.226272 
L 185.574772 158.506977 
L 188.328674 157.00775 
L 191.082576 155.531146 
L 193.836478 154.006801 
L 196.59038 152.246389 
L 199.344282 150.708033 
L 202.098184 149.217318 
L 204.852086 147.694122 
L 207.605988 146.244877 
L 210.35989 144.792625 
L 213.113791 143.40288 
L 215.867693 141.785863 
L 218.621595 140.298737 
L 221.375497 138.631516 
L 224.129399 136.930592 
L 226.883301 135.365755 
L 229.637203 133.786387 
L 232.391105 132.283116 
L 235.145007 130.824003 
L 237.898909 129.382892 
L 240.652811 127.930757 
L 243.406713 126.748323 
L 246.160615 125.437172 
L 248.914517 124.316115 
L 251.668419 123.048222 
L 254.422321 121.636688 
L 257.176223 120.636971 
L 259.930125 119.427267 
L 262.684027 118.22168 
L 265.437929 116.812201 
L 268.19183 115.702403 
L 270.945732 114.509452 
L 273.699634 113.470189 
L 276.453536 112.392141 
L 279.207438 111.458075 
L 281.96134 110.30008 
L 284.715242 109.203287 
L 287.469144 108.11035 
L 290.223046 107.205822 
L 292.976948 106.200966 
L 295.73085 105.131038 
L 298.484752 104.09201 
L 301.238654 103.389708 
L 303.992556 102.584472 
L 306.746458 101.876401 
L 309.50036 101.120472 
L 312.254262 100.431815 
L 315.008164 99.710831 
L 317.762066 99.081574 
L 320.515968 98.367807 
L 323.269869 97.804623 
L 326.023771 97.207278 
L 328.777673 96.423472 
L 331.531575 95.846207 
L 331.531575 21.036364 
L 331.531575 21.036364 
L 328.777673 23.202153 
L 326.023771 25.368648 
L 323.269869 27.361168 
L 320.515968 29.292626 
L 317.762066 31.538854 
L 315.008164 33.715044 
L 312.254262 35.79427 
L 309.50036 37.873497 
L 306.746458 39.952723 
L 303.992556 42.099339 
L 301.238654 44.270769 
L 298.484752 46.441043 
L 295.73085 48.259731 
L 292.976948 50.399567 
L 290.223046 52.705627 
L 287.469144 55.011686 
L 284.715242 56.914706 
L 281.96134 58.897567 
L 279.207438 61.032881 
L 276.453536 63.137432 
L 273.699634 65.295064 
L 270.945732 67.366779 
L 268.19183 69.332066 
L 265.437929 71.444349 
L 262.684027 73.2751 
L 259.930125 75.390906 
L 257.176223 77.331605 
L 254.422321 79.120017 
L 251.668419 81.079604 
L 248.914517 83.234168 
L 246.160615 85.088773 
L 243.406713 86.952514 
L 240.652811 88.907573 
L 237.898909 90.666201 
L 235.145007 92.512269 
L 232.391105 94.462484 
L 229.637203 96.289545 
L 226.883301 98.259498 
L 224.129399 99.943427 
L 221.375497 101.646959 
L 218.621595 103.344441 
L 215.867693 104.980271 
L 213.113791 106.665019 
L 210.35989 108.310435 
L 207.605988 110.025347 
L 204.852086 111.418718 
L 202.098184 112.481338 
L 199.344282 113.892602 
L 196.59038 115.31896 
L 193.836478 116.193314 
L 191.082576 116.757507 
L 188.328674 117.424908 
L 185.574772 118.382111 
L 182.82087 119.1993 
L 180.066968 119.983594 
L 177.313066 120.674792 
L 174.559164 121.239151 
L 171.805262 121.932056 
L 169.05136 122.55379 
L 166.297458 123.176993 
L 163.543556 123.852033 
L 160.789654 124.805791 
L 158.035753 125.520458 
L 155.281851 126.237782 
L 152.527949 126.949791 
L 149.774047 127.664457 
L 147.020145 128.379124 
L 144.266243 129.09379 
L 141.512341 129.808457 
L 138.758439 130.507085 
L 136.004537 131.235842 
L 133.250635 131.948559 
L 130.496733 132.661277 
L 127.742831 133.373994 
L 124.988929 134.086711 
L 122.235027 134.799428 
L 119.481125 135.484745 
L 116.727223 136.060879 
L 113.973321 136.637012 
L 111.219419 137.213146 
L 108.465517 137.78206 
L 105.711615 138.361094 
L 102.957714 138.933814 
L 100.203812 139.506535 
L 97.44991 140.079256 
L 94.696008 140.651976 
L 91.942106 141.228923 
L 89.188204 141.806986 
L 86.434302 142.54053 
L 83.6804 143.256881 
L 80.926498 143.852314 
L 78.172596 144.447747 
L 75.418694 145.04318 
L 72.664792 145.638613 
L 69.91089 146.234046 
L 67.156988 146.829789 
L 64.403086 147.425565 
L 61.649184 148.02134 
L 58.895282 148.617116 
z
" style="fill:#348abd;fill-opacity:0.15;"/>
   </g>
   <g id="line2d_35">
    <path clip-path="url(#pb8e86d6d79)" d="M 33.33563 201.526934 
L 36.605888 200.133771 
L 39.876147 198.740608 
L 43.146406 197.347444 
L 46.416664 195.954281 
L 49.686923 194.561117 
L 52.957181 193.167954 
L 56.22744 191.77479 
L 59.497698 190.381627 
L 62.767957 188.988464 
L 66.038216 187.5953 
L 69.308474 186.202137 
L 72.578733 184.808973 
L 75.848991 183.41581 
L 79.11925 182.022646 
L 82.389508 180.629483 
L 85.659767 179.23632 
L 88.930025 177.843156 
L 92.200284 176.449993 
L 95.470543 175.056829 
L 98.740801 173.663666 
L 102.01106 172.270503 
L 105.281318 170.877339 
L 108.551577 169.484176 
L 111.821835 168.091012 
L 115.092094 166.697849 
L 118.362353 165.304685 
L 121.632611 163.911522 
L 124.90287 162.518359 
L 128.173128 161.125195 
L 131.443387 159.732032 
L 134.713645 158.338868 
L 137.983904 156.945705 
L 141.254162 155.552541 
L 144.524421 154.159378 
L 147.79468 152.766215 
L 151.064938 151.373051 
L 154.335197 149.979888 
L 157.605455 148.586724 
L 160.875714 147.193561 
L 164.145972 145.800398 
L 167.416231 144.407234 
L 170.68649 143.014071 
L 173.956748 141.620907 
L 177.227007 140.227744 
L 180.497265 138.83458 
L 183.767524 137.441417 
L 187.037782 136.048254 
L 190.308041 134.65509 
L 193.5783 133.261927 
L 196.848558 131.868763 
L 200.118817 130.4756 
L 203.389075 129.082436 
L 206.659334 127.689273 
L 209.929592 126.29611 
L 213.199851 124.902946 
L 216.470109 123.509783 
L 219.740368 122.116619 
L 223.010627 120.723456 
L 226.280885 119.330293 
L 229.551144 117.937129 
L 232.821402 116.543966 
L 236.091661 115.150802 
L 239.361919 113.757639 
L 242.632178 112.364475 
L 245.902437 110.971312 
L 249.172695 109.578149 
L 252.442954 108.184985 
L 255.713212 106.791822 
L 258.983471 105.398658 
L 262.253729 104.005495 
L 265.523988 102.612331 
L 268.794247 101.219168 
L 272.064505 99.826005 
L 275.334764 98.432841 
L 278.605022 97.039678 
L 281.875281 95.646514 
L 285.145539 94.253351 
L 288.415798 92.860188 
L 291.686056 91.467024 
L 294.956315 90.073861 
L 298.226574 88.680697 
L 301.496832 87.287534 
L 304.767091 85.89437 
L 308.037349 84.501207 
L 311.307608 83.108044 
L 314.577866 81.71488 
L 317.848125 80.321717 
L 321.118384 78.928553 
L 324.388642 77.53539 
L 327.658901 76.142227 
L 330.929159 74.749063 
L 334.199418 73.3559 
L 337.469676 71.962736 
L 340.739935 70.569573 
L 344.010194 69.176409 
L 347.280452 67.783246 
L 350.550711 66.390083 
L 353.820969 64.996919 
L 357.091228 63.603756 
" style="fill:none;stroke:#e24a33;stroke-linecap:square;stroke-width:2.25;"/>
   </g>
   <g id="line2d_36">
    <path clip-path="url(#pb8e86d6d79)" d="M 58.895282 198.105102 
L 61.649184 196.817624 
L 64.403086 195.530145 
L 67.156988 194.242666 
L 69.91089 192.955188 
L 72.664792 191.667709 
L 75.418694 190.38023 
L 78.172596 189.092752 
L 80.926498 187.805273 
L 83.6804 186.517794 
L 86.434302 185.230315 
L 89.188204 183.942837 
L 91.942106 182.655358 
L 94.696008 181.367879 
L 97.44991 180.080401 
L 100.203812 178.792922 
L 102.957714 177.505443 
L 105.711615 176.217965 
L 108.465517 174.930486 
L 111.219419 173.643007 
L 113.973321 172.355529 
L 116.727223 171.06805 
L 119.481125 169.780571 
L 122.235027 168.493093 
L 124.988929 167.205614 
L 127.742831 165.918135 
L 130.496733 164.630656 
L 133.250635 163.343178 
L 136.004537 162.055699 
L 138.758439 160.76822 
L 141.512341 159.480742 
L 144.266243 158.193263 
L 147.020145 156.905784 
L 149.774047 155.618306 
L 152.527949 154.330827 
L 155.281851 153.043348 
L 158.035753 151.75587 
L 160.789654 150.468391 
L 163.543556 149.180912 
L 166.297458 147.893433 
L 169.05136 146.605955 
L 171.805262 145.318476 
L 174.559164 144.030997 
L 177.313066 142.743519 
L 180.066968 141.45604 
L 182.82087 140.168561 
L 185.574772 138.881083 
L 188.328674 137.593604 
L 191.082576 136.306125 
L 193.836478 135.018647 
L 196.59038 133.731168 
L 199.344282 132.443689 
L 202.098184 131.15621 
L 204.852086 129.868732 
L 207.605988 128.581253 
L 210.35989 127.293774 
L 213.113791 126.006296 
L 215.867693 124.718817 
L 218.621595 123.431338 
L 221.375497 122.14386 
L 224.129399 120.856381 
L 226.883301 119.568902 
L 229.637203 118.281424 
L 232.391105 116.993945 
L 235.145007 115.706466 
L 237.898909 114.418987 
L 240.652811 113.131509 
L 243.406713 111.84403 
L 246.160615 110.556551 
L 248.914517 109.269073 
L 251.668419 107.981594 
L 254.422321 106.694115 
L 257.176223 105.406637 
L 259.930125 104.119158 
L 262.684027 102.831679 
L 265.437929 101.544201 
L 268.19183 100.256722 
L 270.945732 98.969243 
L 273.699634 97.681764 
L 276.453536 96.394286 
L 279.207438 95.106807 
L 281.96134 93.819328 
L 284.715242 92.53185 
L 287.469144 91.244371 
L 290.223046 89.956892 
L 292.976948 88.669414 
L 295.73085 87.381935 
L 298.484752 86.094456 
L 301.238654 84.806978 
L 303.992556 83.519499 
L 306.746458 82.23202 
L 309.50036 80.944541 
L 312.254262 79.657063 
L 315.008164 78.369584 
L 317.762066 77.082105 
L 320.515968 75.794627 
L 323.269869 74.507148 
L 326.023771 73.219669 
L 328.777673 71.932191 
L 331.531575 70.644712 
" style="fill:none;stroke:#348abd;stroke-linecap:square;stroke-width:2.25;"/>
   </g>
   <g id="patch_3">
    <path d="M 52.079375 311.6 
L 52.079375 7.2 
" style="fill:none;stroke:#ffffff;stroke-linecap:square;stroke-linejoin:miter;"/>
   </g>
   <g id="patch_4">
    <path d="M 52.079375 311.6 
L 338.347483 311.6 
" style="fill:none;stroke:#ffffff;stroke-linecap:square;stroke-linejoin:miter;"/>
   </g>
  </g>
  <g id="legend_1">
   <g id="text_20">
    <!-- name -->
    <g transform="translate(363.979045 163.627187)scale(0.1 -0.1)">
     <defs>
      <path d="M 54.890625 33.015625 
L 54.890625 0 
L 45.90625 0 
L 45.90625 32.71875 
Q 45.90625 40.484375 42.875 44.328125 
Q 39.84375 48.1875 33.796875 48.1875 
Q 26.515625 48.1875 22.3125 43.546875 
Q 18.109375 38.921875 18.109375 30.90625 
L 18.109375 0 
L 9.078125 0 
L 9.078125 54.6875 
L 18.109375 54.6875 
L 18.109375 46.1875 
Q 21.34375 51.125 25.703125 53.5625 
Q 30.078125 56 35.796875 56 
Q 45.21875 56 50.046875 50.171875 
Q 54.890625 44.34375 54.890625 33.015625 
z
" id="DejaVuSans-110"/>
      <path d="M 52 44.1875 
Q 55.375 50.25 60.0625 53.125 
Q 64.75 56 71.09375 56 
Q 79.640625 56 84.28125 50.015625 
Q 88.921875 44.046875 88.921875 33.015625 
L 88.921875 0 
L 79.890625 0 
L 79.890625 32.71875 
Q 79.890625 40.578125 77.09375 44.375 
Q 74.3125 48.1875 68.609375 48.1875 
Q 61.625 48.1875 57.5625 43.546875 
Q 53.515625 38.921875 53.515625 30.90625 
L 53.515625 0 
L 44.484375 0 
L 44.484375 32.71875 
Q 44.484375 40.625 41.703125 44.40625 
Q 38.921875 48.1875 33.109375 48.1875 
Q 26.21875 48.1875 22.15625 43.53125 
Q 18.109375 38.875 18.109375 30.90625 
L 18.109375 0 
L 9.078125 0 
L 9.078125 54.6875 
L 18.109375 54.6875 
L 18.109375 46.1875 
Q 21.1875 51.21875 25.484375 53.609375 
Q 29.78125 56 35.6875 56 
Q 41.65625 56 45.828125 52.96875 
Q 50 49.953125 52 44.1875 
z
" id="DejaVuSans-109"/>
      <path d="M 56.203125 29.59375 
L 56.203125 25.203125 
L 14.890625 25.203125 
Q 15.484375 15.921875 20.484375 11.0625 
Q 25.484375 6.203125 34.421875 6.203125 
Q 39.59375 6.203125 44.453125 7.46875 
Q 49.3125 8.734375 54.109375 11.28125 
L 54.109375 2.78125 
Q 49.265625 0.734375 44.1875 -0.34375 
Q 39.109375 -1.421875 33.890625 -1.421875 
Q 20.796875 -1.421875 13.15625 6.1875 
Q 5.515625 13.8125 5.515625 26.8125 
Q 5.515625 40.234375 12.765625 48.109375 
Q 20.015625 56 32.328125 56 
Q 43.359375 56 49.78125 48.890625 
Q 56.203125 41.796875 56.203125 29.59375 
z
M 47.21875 32.234375 
Q 47.125 39.59375 43.09375 43.984375 
Q 39.0625 48.390625 32.421875 48.390625 
Q 24.90625 48.390625 20.390625 44.140625 
Q 15.875 39.890625 15.1875 32.171875 
z
" id="DejaVuSans-101"/>
     </defs>
     <use xlink:href="#DejaVuSans-110"/>
     <use x="63.378906" xlink:href="#DejaVuSans-97"/>
     <use x="124.658203" xlink:href="#DejaVuSans-109"/>
     <use x="222.070312" xlink:href="#DejaVuSans-101"/>
    </g>
   </g>
   <g id="PathCollection_3">
    <g>
     <use style="fill:#e24a33;fill-opacity:0.8;stroke:#e24a33;stroke-opacity:0.8;" x="353.652483" xlink:href="#m896c4b2424" y="175.680312"/>
    </g>
   </g>
   <g id="text_21">
    <!-- SVM -->
    <g transform="translate(371.652483 178.305312)scale(0.1 -0.1)">
     <defs>
      <path d="M 53.515625 70.515625 
L 53.515625 60.890625 
Q 47.90625 63.578125 42.921875 64.890625 
Q 37.9375 66.21875 33.296875 66.21875 
Q 25.25 66.21875 20.875 63.09375 
Q 16.5 59.96875 16.5 54.203125 
Q 16.5 49.359375 19.40625 46.890625 
Q 22.3125 44.4375 30.421875 42.921875 
L 36.375 41.703125 
Q 47.40625 39.59375 52.65625 34.296875 
Q 57.90625 29 57.90625 20.125 
Q 57.90625 9.515625 50.796875 4.046875 
Q 43.703125 -1.421875 29.984375 -1.421875 
Q 24.8125 -1.421875 18.96875 -0.25 
Q 13.140625 0.921875 6.890625 3.21875 
L 6.890625 13.375 
Q 12.890625 10.015625 18.65625 8.296875 
Q 24.421875 6.59375 29.984375 6.59375 
Q 38.421875 6.59375 43.015625 9.90625 
Q 47.609375 13.234375 47.609375 19.390625 
Q 47.609375 24.75 44.3125 27.78125 
Q 41.015625 30.8125 33.5 32.328125 
L 27.484375 33.5 
Q 16.453125 35.6875 11.515625 40.375 
Q 6.59375 45.0625 6.59375 53.421875 
Q 6.59375 63.09375 13.40625 68.65625 
Q 20.21875 74.21875 32.171875 74.21875 
Q 37.3125 74.21875 42.625 73.28125 
Q 47.953125 72.359375 53.515625 70.515625 
z
" id="DejaVuSans-83"/>
      <path d="M 28.609375 0 
L 0.78125 72.90625 
L 11.078125 72.90625 
L 34.1875 11.53125 
L 57.328125 72.90625 
L 67.578125 72.90625 
L 39.796875 0 
z
" id="DejaVuSans-86"/>
      <path d="M 9.8125 72.90625 
L 24.515625 72.90625 
L 43.109375 23.296875 
L 61.8125 72.90625 
L 76.515625 72.90625 
L 76.515625 0 
L 66.890625 0 
L 66.890625 64.015625 
L 48.09375 14.015625 
L 38.1875 14.015625 
L 19.390625 64.015625 
L 19.390625 0 
L 9.8125 0 
z
" id="DejaVuSans-77"/>
     </defs>
     <use xlink:href="#DejaVuSans-83"/>
     <use x="63.476562" xlink:href="#DejaVuSans-86"/>
     <use x="131.884766" xlink:href="#DejaVuSans-77"/>
    </g>
   </g>
   <g id="PathCollection_4">
    <g>
     <use style="fill:#348abd;fill-opacity:0.8;stroke:#348abd;stroke-opacity:0.8;" x="353.652483" xlink:href="#m90205155cc" y="190.358437"/>
    </g>
   </g>
   <g id="text_22">
    <!-- CNN 2 S -->
    <g transform="translate(371.652483 192.983437)scale(0.1 -0.1)">
     <defs>
      <path d="M 64.40625 67.28125 
L 64.40625 56.890625 
Q 59.421875 61.53125 53.78125 63.8125 
Q 48.140625 66.109375 41.796875 66.109375 
Q 29.296875 66.109375 22.65625 58.46875 
Q 16.015625 50.828125 16.015625 36.375 
Q 16.015625 21.96875 22.65625 14.328125 
Q 29.296875 6.6875 41.796875 6.6875 
Q 48.140625 6.6875 53.78125 8.984375 
Q 59.421875 11.28125 64.40625 15.921875 
L 64.40625 5.609375 
Q 59.234375 2.09375 53.4375 0.328125 
Q 47.65625 -1.421875 41.21875 -1.421875 
Q 24.65625 -1.421875 15.125 8.703125 
Q 5.609375 18.84375 5.609375 36.375 
Q 5.609375 53.953125 15.125 64.078125 
Q 24.65625 74.21875 41.21875 74.21875 
Q 47.75 74.21875 53.53125 72.484375 
Q 59.328125 70.75 64.40625 67.28125 
z
" id="DejaVuSans-67"/>
      <path d="M 9.8125 72.90625 
L 23.09375 72.90625 
L 55.421875 11.921875 
L 55.421875 72.90625 
L 64.984375 72.90625 
L 64.984375 0 
L 51.703125 0 
L 19.390625 60.984375 
L 19.390625 0 
L 9.8125 0 
z
" id="DejaVuSans-78"/>
      <path id="DejaVuSans-32"/>
     </defs>
     <use xlink:href="#DejaVuSans-67"/>
     <use x="69.824219" xlink:href="#DejaVuSans-78"/>
     <use x="144.628906" xlink:href="#DejaVuSans-78"/>
     <use x="219.433594" xlink:href="#DejaVuSans-32"/>
     <use x="251.220703" xlink:href="#DejaVuSans-50"/>
     <use x="314.84375" xlink:href="#DejaVuSans-32"/>
     <use x="346.630859" xlink:href="#DejaVuSans-83"/>
    </g>
   </g>
  </g>
 </g>
 <defs>
  <clipPath id="pb8e86d6d79">
   <rect height="304.4" width="286.268108" x="52.079375" y="7.2"/>
  </clipPath>
 </defs>
</svg>
