<?xml version="1.0" encoding="utf-8" standalone="no"?>
<!DOCTYPE svg PUBLIC "-//W3C//DTD SVG 1.1//EN"
  "http://www.w3.org/Graphics/SVG/1.1/DTD/svg11.dtd">
<!-- Created with matplotlib (https://matplotlib.org/) -->
<svg height="350.953761pt" version="1.1" viewBox="0 0 427.027509 350.953761" width="427.027509pt" xmlns="http://www.w3.org/2000/svg" xmlns:xlink="http://www.w3.org/1999/xlink">
 <metadata>
  <rdf:RDF xmlns:cc="http://creativecommons.org/ns#" xmlns:dc="http://purl.org/dc/elements/1.1/" xmlns:rdf="http://www.w3.org/1999/02/22-rdf-syntax-ns#">
   <cc:Work>
    <dc:type rdf:resource="http://purl.org/dc/dcmitype/StillImage"/>
    <dc:date>2020-09-05T21:11:45.288538</dc:date>
    <dc:format>image/svg+xml</dc:format>
    <dc:creator>
     <cc:Agent>
      <dc:title>Matplotlib v3.3.1, https://matplotlib.org/</dc:title>
     </cc:Agent>
    </dc:creator>
   </cc:Work>
  </rdf:RDF>
 </metadata>
 <defs>
  <style type="text/css">*{stroke-linecap:butt;stroke-linejoin:round;}</style>
 </defs>
 <g id="figure_1">
  <g id="patch_1">
   <path d="M 0 350.953761 
L 427.027509 350.953761 
L 427.027509 0 
L 0 0 
z
" style="fill:#ffffff;"/>
  </g>
  <g id="axes_1">
   <g id="patch_2">
    <path d="M 52.079375 311.461886 
L 337.271259 311.461886 
L 337.271259 9.797876 
L 52.079375 9.797876 
z
" style="fill:#e5e5e5;"/>
   </g>
   <g id="matplotlib.axis_1">
    <g id="xtick_1">
     <g id="line2d_1">
      <path clip-path="url(#pafaaa5b01d)" d="M 58.869658 311.461886 
L 58.869658 9.797876 
" style="fill:none;stroke:#ffffff;stroke-linecap:square;stroke-width:0.8;"/>
     </g>
     <g id="line2d_2">
      <defs>
       <path d="M 0 0 
L 0 3.5 
" id="m6467572697" style="stroke:#555555;stroke-width:0.8;"/>
      </defs>
      <g>
       <use style="fill:#555555;stroke:#555555;stroke-width:0.8;" x="58.869658" xlink:href="#m6467572697" y="311.461886"/>
      </g>
     </g>
     <g id="text_1">
      <!-- 0.1 -->
      <g style="fill:#555555;" transform="translate(50.918095 326.060323)scale(0.1 -0.1)">
       <defs>
        <path d="M 31.78125 66.40625 
Q 24.171875 66.40625 20.328125 58.90625 
Q 16.5 51.421875 16.5 36.375 
Q 16.5 21.390625 20.328125 13.890625 
Q 24.171875 6.390625 31.78125 6.390625 
Q 39.453125 6.390625 43.28125 13.890625 
Q 47.125 21.390625 47.125 36.375 
Q 47.125 51.421875 43.28125 58.90625 
Q 39.453125 66.40625 31.78125 66.40625 
z
M 31.78125 74.21875 
Q 44.046875 74.21875 50.515625 64.515625 
Q 56.984375 54.828125 56.984375 36.375 
Q 56.984375 17.96875 50.515625 8.265625 
Q 44.046875 -1.421875 31.78125 -1.421875 
Q 19.53125 -1.421875 13.0625 8.265625 
Q 6.59375 17.96875 6.59375 36.375 
Q 6.59375 54.828125 13.0625 64.515625 
Q 19.53125 74.21875 31.78125 74.21875 
z
" id="DejaVuSans-48"/>
        <path d="M 10.6875 12.40625 
L 21 12.40625 
L 21 0 
L 10.6875 0 
z
" id="DejaVuSans-46"/>
        <path d="M 12.40625 8.296875 
L 28.515625 8.296875 
L 28.515625 63.921875 
L 10.984375 60.40625 
L 10.984375 69.390625 
L 28.421875 72.90625 
L 38.28125 72.90625 
L 38.28125 8.296875 
L 54.390625 8.296875 
L 54.390625 0 
L 12.40625 0 
z
" id="DejaVuSans-49"/>
       </defs>
       <use xlink:href="#DejaVuSans-48"/>
       <use x="63.623047" xlink:href="#DejaVuSans-46"/>
       <use x="95.410156" xlink:href="#DejaVuSans-49"/>
      </g>
     </g>
    </g>
    <g id="xtick_2">
     <g id="line2d_3">
      <path clip-path="url(#pafaaa5b01d)" d="M 92.821073 311.461886 
L 92.821073 9.797876 
" style="fill:none;stroke:#ffffff;stroke-linecap:square;stroke-width:0.8;"/>
     </g>
     <g id="line2d_4">
      <g>
       <use style="fill:#555555;stroke:#555555;stroke-width:0.8;" x="92.821073" xlink:href="#m6467572697" y="311.461886"/>
      </g>
     </g>
     <g id="text_2">
      <!-- 0.2 -->
      <g style="fill:#555555;" transform="translate(84.86951 326.060323)scale(0.1 -0.1)">
       <defs>
        <path d="M 19.1875 8.296875 
L 53.609375 8.296875 
L 53.609375 0 
L 7.328125 0 
L 7.328125 8.296875 
Q 12.9375 14.109375 22.625 23.890625 
Q 32.328125 33.6875 34.8125 36.53125 
Q 39.546875 41.84375 41.421875 45.53125 
Q 43.3125 49.21875 43.3125 52.78125 
Q 43.3125 58.59375 39.234375 62.25 
Q 35.15625 65.921875 28.609375 65.921875 
Q 23.96875 65.921875 18.8125 64.3125 
Q 13.671875 62.703125 7.8125 59.421875 
L 7.8125 69.390625 
Q 13.765625 71.78125 18.9375 73 
Q 24.125 74.21875 28.421875 74.21875 
Q 39.75 74.21875 46.484375 68.546875 
Q 53.21875 62.890625 53.21875 53.421875 
Q 53.21875 48.921875 51.53125 44.890625 
Q 49.859375 40.875 45.40625 35.40625 
Q 44.1875 33.984375 37.640625 27.21875 
Q 31.109375 20.453125 19.1875 8.296875 
z
" id="DejaVuSans-50"/>
       </defs>
       <use xlink:href="#DejaVuSans-48"/>
       <use x="63.623047" xlink:href="#DejaVuSans-46"/>
       <use x="95.410156" xlink:href="#DejaVuSans-50"/>
      </g>
     </g>
    </g>
    <g id="xtick_3">
     <g id="line2d_5">
      <path clip-path="url(#pafaaa5b01d)" d="M 126.772487 311.461886 
L 126.772487 9.797876 
" style="fill:none;stroke:#ffffff;stroke-linecap:square;stroke-width:0.8;"/>
     </g>
     <g id="line2d_6">
      <g>
       <use style="fill:#555555;stroke:#555555;stroke-width:0.8;" x="126.772487" xlink:href="#m6467572697" y="311.461886"/>
      </g>
     </g>
     <g id="text_3">
      <!-- 0.3 -->
      <g style="fill:#555555;" transform="translate(118.820925 326.060323)scale(0.1 -0.1)">
       <defs>
        <path d="M 40.578125 39.3125 
Q 47.65625 37.796875 51.625 33 
Q 55.609375 28.21875 55.609375 21.1875 
Q 55.609375 10.40625 48.1875 4.484375 
Q 40.765625 -1.421875 27.09375 -1.421875 
Q 22.515625 -1.421875 17.65625 -0.515625 
Q 12.796875 0.390625 7.625 2.203125 
L 7.625 11.71875 
Q 11.71875 9.328125 16.59375 8.109375 
Q 21.484375 6.890625 26.8125 6.890625 
Q 36.078125 6.890625 40.9375 10.546875 
Q 45.796875 14.203125 45.796875 21.1875 
Q 45.796875 27.640625 41.28125 31.265625 
Q 36.765625 34.90625 28.71875 34.90625 
L 20.21875 34.90625 
L 20.21875 43.015625 
L 29.109375 43.015625 
Q 36.375 43.015625 40.234375 45.921875 
Q 44.09375 48.828125 44.09375 54.296875 
Q 44.09375 59.90625 40.109375 62.90625 
Q 36.140625 65.921875 28.71875 65.921875 
Q 24.65625 65.921875 20.015625 65.03125 
Q 15.375 64.15625 9.8125 62.3125 
L 9.8125 71.09375 
Q 15.4375 72.65625 20.34375 73.4375 
Q 25.25 74.21875 29.59375 74.21875 
Q 40.828125 74.21875 47.359375 69.109375 
Q 53.90625 64.015625 53.90625 55.328125 
Q 53.90625 49.265625 50.4375 45.09375 
Q 46.96875 40.921875 40.578125 39.3125 
z
" id="DejaVuSans-51"/>
       </defs>
       <use xlink:href="#DejaVuSans-48"/>
       <use x="63.623047" xlink:href="#DejaVuSans-46"/>
       <use x="95.410156" xlink:href="#DejaVuSans-51"/>
      </g>
     </g>
    </g>
    <g id="xtick_4">
     <g id="line2d_7">
      <path clip-path="url(#pafaaa5b01d)" d="M 160.723902 311.461886 
L 160.723902 9.797876 
" style="fill:none;stroke:#ffffff;stroke-linecap:square;stroke-width:0.8;"/>
     </g>
     <g id="line2d_8">
      <g>
       <use style="fill:#555555;stroke:#555555;stroke-width:0.8;" x="160.723902" xlink:href="#m6467572697" y="311.461886"/>
      </g>
     </g>
     <g id="text_4">
      <!-- 0.4 -->
      <g style="fill:#555555;" transform="translate(152.77234 326.060323)scale(0.1 -0.1)">
       <defs>
        <path d="M 37.796875 64.3125 
L 12.890625 25.390625 
L 37.796875 25.390625 
z
M 35.203125 72.90625 
L 47.609375 72.90625 
L 47.609375 25.390625 
L 58.015625 25.390625 
L 58.015625 17.1875 
L 47.609375 17.1875 
L 47.609375 0 
L 37.796875 0 
L 37.796875 17.1875 
L 4.890625 17.1875 
L 4.890625 26.703125 
z
" id="DejaVuSans-52"/>
       </defs>
       <use xlink:href="#DejaVuSans-48"/>
       <use x="63.623047" xlink:href="#DejaVuSans-46"/>
       <use x="95.410156" xlink:href="#DejaVuSans-52"/>
      </g>
     </g>
    </g>
    <g id="xtick_5">
     <g id="line2d_9">
      <path clip-path="url(#pafaaa5b01d)" d="M 194.675317 311.461886 
L 194.675317 9.797876 
" style="fill:none;stroke:#ffffff;stroke-linecap:square;stroke-width:0.8;"/>
     </g>
     <g id="line2d_10">
      <g>
       <use style="fill:#555555;stroke:#555555;stroke-width:0.8;" x="194.675317" xlink:href="#m6467572697" y="311.461886"/>
      </g>
     </g>
     <g id="text_5">
      <!-- 0.5 -->
      <g style="fill:#555555;" transform="translate(186.723754 326.060323)scale(0.1 -0.1)">
       <defs>
        <path d="M 10.796875 72.90625 
L 49.515625 72.90625 
L 49.515625 64.59375 
L 19.828125 64.59375 
L 19.828125 46.734375 
Q 21.96875 47.46875 24.109375 47.828125 
Q 26.265625 48.1875 28.421875 48.1875 
Q 40.625 48.1875 47.75 41.5 
Q 54.890625 34.8125 54.890625 23.390625 
Q 54.890625 11.625 47.5625 5.09375 
Q 40.234375 -1.421875 26.90625 -1.421875 
Q 22.3125 -1.421875 17.546875 -0.640625 
Q 12.796875 0.140625 7.71875 1.703125 
L 7.71875 11.625 
Q 12.109375 9.234375 16.796875 8.0625 
Q 21.484375 6.890625 26.703125 6.890625 
Q 35.15625 6.890625 40.078125 11.328125 
Q 45.015625 15.765625 45.015625 23.390625 
Q 45.015625 31 40.078125 35.4375 
Q 35.15625 39.890625 26.703125 39.890625 
Q 22.75 39.890625 18.8125 39.015625 
Q 14.890625 38.140625 10.796875 36.28125 
z
" id="DejaVuSans-53"/>
       </defs>
       <use xlink:href="#DejaVuSans-48"/>
       <use x="63.623047" xlink:href="#DejaVuSans-46"/>
       <use x="95.410156" xlink:href="#DejaVuSans-53"/>
      </g>
     </g>
    </g>
    <g id="xtick_6">
     <g id="line2d_11">
      <path clip-path="url(#pafaaa5b01d)" d="M 228.626732 311.461886 
L 228.626732 9.797876 
" style="fill:none;stroke:#ffffff;stroke-linecap:square;stroke-width:0.8;"/>
     </g>
     <g id="line2d_12">
      <g>
       <use style="fill:#555555;stroke:#555555;stroke-width:0.8;" x="228.626732" xlink:href="#m6467572697" y="311.461886"/>
      </g>
     </g>
     <g id="text_6">
      <!-- 0.6 -->
      <g style="fill:#555555;" transform="translate(220.675169 326.060323)scale(0.1 -0.1)">
       <defs>
        <path d="M 33.015625 40.375 
Q 26.375 40.375 22.484375 35.828125 
Q 18.609375 31.296875 18.609375 23.390625 
Q 18.609375 15.53125 22.484375 10.953125 
Q 26.375 6.390625 33.015625 6.390625 
Q 39.65625 6.390625 43.53125 10.953125 
Q 47.40625 15.53125 47.40625 23.390625 
Q 47.40625 31.296875 43.53125 35.828125 
Q 39.65625 40.375 33.015625 40.375 
z
M 52.59375 71.296875 
L 52.59375 62.3125 
Q 48.875 64.0625 45.09375 64.984375 
Q 41.3125 65.921875 37.59375 65.921875 
Q 27.828125 65.921875 22.671875 59.328125 
Q 17.53125 52.734375 16.796875 39.40625 
Q 19.671875 43.65625 24.015625 45.921875 
Q 28.375 48.1875 33.59375 48.1875 
Q 44.578125 48.1875 50.953125 41.515625 
Q 57.328125 34.859375 57.328125 23.390625 
Q 57.328125 12.15625 50.6875 5.359375 
Q 44.046875 -1.421875 33.015625 -1.421875 
Q 20.359375 -1.421875 13.671875 8.265625 
Q 6.984375 17.96875 6.984375 36.375 
Q 6.984375 53.65625 15.1875 63.9375 
Q 23.390625 74.21875 37.203125 74.21875 
Q 40.921875 74.21875 44.703125 73.484375 
Q 48.484375 72.75 52.59375 71.296875 
z
" id="DejaVuSans-54"/>
       </defs>
       <use xlink:href="#DejaVuSans-48"/>
       <use x="63.623047" xlink:href="#DejaVuSans-46"/>
       <use x="95.410156" xlink:href="#DejaVuSans-54"/>
      </g>
     </g>
    </g>
    <g id="xtick_7">
     <g id="line2d_13">
      <path clip-path="url(#pafaaa5b01d)" d="M 262.578146 311.461886 
L 262.578146 9.797876 
" style="fill:none;stroke:#ffffff;stroke-linecap:square;stroke-width:0.8;"/>
     </g>
     <g id="line2d_14">
      <g>
       <use style="fill:#555555;stroke:#555555;stroke-width:0.8;" x="262.578146" xlink:href="#m6467572697" y="311.461886"/>
      </g>
     </g>
     <g id="text_7">
      <!-- 0.7 -->
      <g style="fill:#555555;" transform="translate(254.626584 326.060323)scale(0.1 -0.1)">
       <defs>
        <path d="M 8.203125 72.90625 
L 55.078125 72.90625 
L 55.078125 68.703125 
L 28.609375 0 
L 18.3125 0 
L 43.21875 64.59375 
L 8.203125 64.59375 
z
" id="DejaVuSans-55"/>
       </defs>
       <use xlink:href="#DejaVuSans-48"/>
       <use x="63.623047" xlink:href="#DejaVuSans-46"/>
       <use x="95.410156" xlink:href="#DejaVuSans-55"/>
      </g>
     </g>
    </g>
    <g id="xtick_8">
     <g id="line2d_15">
      <path clip-path="url(#pafaaa5b01d)" d="M 296.529561 311.461886 
L 296.529561 9.797876 
" style="fill:none;stroke:#ffffff;stroke-linecap:square;stroke-width:0.8;"/>
     </g>
     <g id="line2d_16">
      <g>
       <use style="fill:#555555;stroke:#555555;stroke-width:0.8;" x="296.529561" xlink:href="#m6467572697" y="311.461886"/>
      </g>
     </g>
     <g id="text_8">
      <!-- 0.8 -->
      <g style="fill:#555555;" transform="translate(288.577999 326.060323)scale(0.1 -0.1)">
       <defs>
        <path d="M 31.78125 34.625 
Q 24.75 34.625 20.71875 30.859375 
Q 16.703125 27.09375 16.703125 20.515625 
Q 16.703125 13.921875 20.71875 10.15625 
Q 24.75 6.390625 31.78125 6.390625 
Q 38.8125 6.390625 42.859375 10.171875 
Q 46.921875 13.96875 46.921875 20.515625 
Q 46.921875 27.09375 42.890625 30.859375 
Q 38.875 34.625 31.78125 34.625 
z
M 21.921875 38.8125 
Q 15.578125 40.375 12.03125 44.71875 
Q 8.5 49.078125 8.5 55.328125 
Q 8.5 64.0625 14.71875 69.140625 
Q 20.953125 74.21875 31.78125 74.21875 
Q 42.671875 74.21875 48.875 69.140625 
Q 55.078125 64.0625 55.078125 55.328125 
Q 55.078125 49.078125 51.53125 44.71875 
Q 48 40.375 41.703125 38.8125 
Q 48.828125 37.15625 52.796875 32.3125 
Q 56.78125 27.484375 56.78125 20.515625 
Q 56.78125 9.90625 50.3125 4.234375 
Q 43.84375 -1.421875 31.78125 -1.421875 
Q 19.734375 -1.421875 13.25 4.234375 
Q 6.78125 9.90625 6.78125 20.515625 
Q 6.78125 27.484375 10.78125 32.3125 
Q 14.796875 37.15625 21.921875 38.8125 
z
M 18.3125 54.390625 
Q 18.3125 48.734375 21.84375 45.5625 
Q 25.390625 42.390625 31.78125 42.390625 
Q 38.140625 42.390625 41.71875 45.5625 
Q 45.3125 48.734375 45.3125 54.390625 
Q 45.3125 60.0625 41.71875 63.234375 
Q 38.140625 66.40625 31.78125 66.40625 
Q 25.390625 66.40625 21.84375 63.234375 
Q 18.3125 60.0625 18.3125 54.390625 
z
" id="DejaVuSans-56"/>
       </defs>
       <use xlink:href="#DejaVuSans-48"/>
       <use x="63.623047" xlink:href="#DejaVuSans-46"/>
       <use x="95.410156" xlink:href="#DejaVuSans-56"/>
      </g>
     </g>
    </g>
    <g id="xtick_9">
     <g id="line2d_17">
      <path clip-path="url(#pafaaa5b01d)" d="M 330.480976 311.461886 
L 330.480976 9.797876 
" style="fill:none;stroke:#ffffff;stroke-linecap:square;stroke-width:0.8;"/>
     </g>
     <g id="line2d_18">
      <g>
       <use style="fill:#555555;stroke:#555555;stroke-width:0.8;" x="330.480976" xlink:href="#m6467572697" y="311.461886"/>
      </g>
     </g>
     <g id="text_9">
      <!-- 0.9 -->
      <g style="fill:#555555;" transform="translate(322.529413 326.060323)scale(0.1 -0.1)">
       <defs>
        <path d="M 10.984375 1.515625 
L 10.984375 10.5 
Q 14.703125 8.734375 18.5 7.8125 
Q 22.3125 6.890625 25.984375 6.890625 
Q 35.75 6.890625 40.890625 13.453125 
Q 46.046875 20.015625 46.78125 33.40625 
Q 43.953125 29.203125 39.59375 26.953125 
Q 35.25 24.703125 29.984375 24.703125 
Q 19.046875 24.703125 12.671875 31.3125 
Q 6.296875 37.9375 6.296875 49.421875 
Q 6.296875 60.640625 12.9375 67.421875 
Q 19.578125 74.21875 30.609375 74.21875 
Q 43.265625 74.21875 49.921875 64.515625 
Q 56.59375 54.828125 56.59375 36.375 
Q 56.59375 19.140625 48.40625 8.859375 
Q 40.234375 -1.421875 26.421875 -1.421875 
Q 22.703125 -1.421875 18.890625 -0.6875 
Q 15.09375 0.046875 10.984375 1.515625 
z
M 30.609375 32.421875 
Q 37.25 32.421875 41.125 36.953125 
Q 45.015625 41.5 45.015625 49.421875 
Q 45.015625 57.28125 41.125 61.84375 
Q 37.25 66.40625 30.609375 66.40625 
Q 23.96875 66.40625 20.09375 61.84375 
Q 16.21875 57.28125 16.21875 49.421875 
Q 16.21875 41.5 20.09375 36.953125 
Q 23.96875 32.421875 30.609375 32.421875 
z
" id="DejaVuSans-57"/>
       </defs>
       <use xlink:href="#DejaVuSans-48"/>
       <use x="63.623047" xlink:href="#DejaVuSans-46"/>
       <use x="95.410156" xlink:href="#DejaVuSans-57"/>
      </g>
     </g>
    </g>
    <g id="text_10">
     <!-- ratio -->
     <g style="fill:#555555;" transform="translate(180.841567 341.258136)scale(0.12 -0.12)">
      <defs>
       <path d="M 41.109375 46.296875 
Q 39.59375 47.171875 37.8125 47.578125 
Q 36.03125 48 33.890625 48 
Q 26.265625 48 22.1875 43.046875 
Q 18.109375 38.09375 18.109375 28.8125 
L 18.109375 0 
L 9.078125 0 
L 9.078125 54.6875 
L 18.109375 54.6875 
L 18.109375 46.1875 
Q 20.953125 51.171875 25.484375 53.578125 
Q 30.03125 56 36.53125 56 
Q 37.453125 56 38.578125 55.875 
Q 39.703125 55.765625 41.0625 55.515625 
z
" id="DejaVuSans-114"/>
       <path d="M 34.28125 27.484375 
Q 23.390625 27.484375 19.1875 25 
Q 14.984375 22.515625 14.984375 16.5 
Q 14.984375 11.71875 18.140625 8.90625 
Q 21.296875 6.109375 26.703125 6.109375 
Q 34.1875 6.109375 38.703125 11.40625 
Q 43.21875 16.703125 43.21875 25.484375 
L 43.21875 27.484375 
z
M 52.203125 31.203125 
L 52.203125 0 
L 43.21875 0 
L 43.21875 8.296875 
Q 40.140625 3.328125 35.546875 0.953125 
Q 30.953125 -1.421875 24.3125 -1.421875 
Q 15.921875 -1.421875 10.953125 3.296875 
Q 6 8.015625 6 15.921875 
Q 6 25.140625 12.171875 29.828125 
Q 18.359375 34.515625 30.609375 34.515625 
L 43.21875 34.515625 
L 43.21875 35.40625 
Q 43.21875 41.609375 39.140625 45 
Q 35.0625 48.390625 27.6875 48.390625 
Q 23 48.390625 18.546875 47.265625 
Q 14.109375 46.140625 10.015625 43.890625 
L 10.015625 52.203125 
Q 14.9375 54.109375 19.578125 55.046875 
Q 24.21875 56 28.609375 56 
Q 40.484375 56 46.34375 49.84375 
Q 52.203125 43.703125 52.203125 31.203125 
z
" id="DejaVuSans-97"/>
       <path d="M 18.3125 70.21875 
L 18.3125 54.6875 
L 36.8125 54.6875 
L 36.8125 47.703125 
L 18.3125 47.703125 
L 18.3125 18.015625 
Q 18.3125 11.328125 20.140625 9.421875 
Q 21.96875 7.515625 27.59375 7.515625 
L 36.8125 7.515625 
L 36.8125 0 
L 27.59375 0 
Q 17.1875 0 13.234375 3.875 
Q 9.28125 7.765625 9.28125 18.015625 
L 9.28125 47.703125 
L 2.6875 47.703125 
L 2.6875 54.6875 
L 9.28125 54.6875 
L 9.28125 70.21875 
z
" id="DejaVuSans-116"/>
       <path d="M 9.421875 54.6875 
L 18.40625 54.6875 
L 18.40625 0 
L 9.421875 0 
z
M 9.421875 75.984375 
L 18.40625 75.984375 
L 18.40625 64.59375 
L 9.421875 64.59375 
z
" id="DejaVuSans-105"/>
       <path d="M 30.609375 48.390625 
Q 23.390625 48.390625 19.1875 42.75 
Q 14.984375 37.109375 14.984375 27.296875 
Q 14.984375 17.484375 19.15625 11.84375 
Q 23.34375 6.203125 30.609375 6.203125 
Q 37.796875 6.203125 41.984375 11.859375 
Q 46.1875 17.53125 46.1875 27.296875 
Q 46.1875 37.015625 41.984375 42.703125 
Q 37.796875 48.390625 30.609375 48.390625 
z
M 30.609375 56 
Q 42.328125 56 49.015625 48.375 
Q 55.71875 40.765625 55.71875 27.296875 
Q 55.71875 13.875 49.015625 6.21875 
Q 42.328125 -1.421875 30.609375 -1.421875 
Q 18.84375 -1.421875 12.171875 6.21875 
Q 5.515625 13.875 5.515625 27.296875 
Q 5.515625 40.765625 12.171875 48.375 
Q 18.84375 56 30.609375 56 
z
" id="DejaVuSans-111"/>
      </defs>
      <use xlink:href="#DejaVuSans-114"/>
      <use x="41.113281" xlink:href="#DejaVuSans-97"/>
      <use x="102.392578" xlink:href="#DejaVuSans-116"/>
      <use x="141.601562" xlink:href="#DejaVuSans-105"/>
      <use x="169.384766" xlink:href="#DejaVuSans-111"/>
     </g>
    </g>
   </g>
   <g id="matplotlib.axis_2">
    <g id="ytick_1">
     <g id="line2d_19">
      <path clip-path="url(#pafaaa5b01d)" d="M 52.079375 285.965626 
L 337.271259 285.965626 
" style="fill:none;stroke:#ffffff;stroke-linecap:square;stroke-width:0.8;"/>
     </g>
     <g id="line2d_20">
      <defs>
       <path d="M 0 0 
L -3.5 0 
" id="m55a49c3f90" style="stroke:#555555;stroke-width:0.8;"/>
      </defs>
      <g>
       <use style="fill:#555555;stroke:#555555;stroke-width:0.8;" x="52.079375" xlink:href="#m55a49c3f90" y="285.965626"/>
      </g>
     </g>
     <g id="text_11">
      <!-- 0.76 -->
      <g style="fill:#555555;" transform="translate(22.81375 289.764845)scale(0.1 -0.1)">
       <use xlink:href="#DejaVuSans-48"/>
       <use x="63.623047" xlink:href="#DejaVuSans-46"/>
       <use x="95.410156" xlink:href="#DejaVuSans-55"/>
       <use x="159.033203" xlink:href="#DejaVuSans-54"/>
      </g>
     </g>
    </g>
    <g id="ytick_2">
     <g id="line2d_21">
      <path clip-path="url(#pafaaa5b01d)" d="M 52.079375 246.684711 
L 337.271259 246.684711 
" style="fill:none;stroke:#ffffff;stroke-linecap:square;stroke-width:0.8;"/>
     </g>
     <g id="line2d_22">
      <g>
       <use style="fill:#555555;stroke:#555555;stroke-width:0.8;" x="52.079375" xlink:href="#m55a49c3f90" y="246.684711"/>
      </g>
     </g>
     <g id="text_12">
      <!-- 0.78 -->
      <g style="fill:#555555;" transform="translate(22.81375 250.48393)scale(0.1 -0.1)">
       <use xlink:href="#DejaVuSans-48"/>
       <use x="63.623047" xlink:href="#DejaVuSans-46"/>
       <use x="95.410156" xlink:href="#DejaVuSans-55"/>
       <use x="159.033203" xlink:href="#DejaVuSans-56"/>
      </g>
     </g>
    </g>
    <g id="ytick_3">
     <g id="line2d_23">
      <path clip-path="url(#pafaaa5b01d)" d="M 52.079375 207.403796 
L 337.271259 207.403796 
" style="fill:none;stroke:#ffffff;stroke-linecap:square;stroke-width:0.8;"/>
     </g>
     <g id="line2d_24">
      <g>
       <use style="fill:#555555;stroke:#555555;stroke-width:0.8;" x="52.079375" xlink:href="#m55a49c3f90" y="207.403796"/>
      </g>
     </g>
     <g id="text_13">
      <!-- 0.80 -->
      <g style="fill:#555555;" transform="translate(22.81375 211.203014)scale(0.1 -0.1)">
       <use xlink:href="#DejaVuSans-48"/>
       <use x="63.623047" xlink:href="#DejaVuSans-46"/>
       <use x="95.410156" xlink:href="#DejaVuSans-56"/>
       <use x="159.033203" xlink:href="#DejaVuSans-48"/>
      </g>
     </g>
    </g>
    <g id="ytick_4">
     <g id="line2d_25">
      <path clip-path="url(#pafaaa5b01d)" d="M 52.079375 168.12288 
L 337.271259 168.12288 
" style="fill:none;stroke:#ffffff;stroke-linecap:square;stroke-width:0.8;"/>
     </g>
     <g id="line2d_26">
      <g>
       <use style="fill:#555555;stroke:#555555;stroke-width:0.8;" x="52.079375" xlink:href="#m55a49c3f90" y="168.12288"/>
      </g>
     </g>
     <g id="text_14">
      <!-- 0.82 -->
      <g style="fill:#555555;" transform="translate(22.81375 171.922099)scale(0.1 -0.1)">
       <use xlink:href="#DejaVuSans-48"/>
       <use x="63.623047" xlink:href="#DejaVuSans-46"/>
       <use x="95.410156" xlink:href="#DejaVuSans-56"/>
       <use x="159.033203" xlink:href="#DejaVuSans-50"/>
      </g>
     </g>
    </g>
    <g id="ytick_5">
     <g id="line2d_27">
      <path clip-path="url(#pafaaa5b01d)" d="M 52.079375 128.841965 
L 337.271259 128.841965 
" style="fill:none;stroke:#ffffff;stroke-linecap:square;stroke-width:0.8;"/>
     </g>
     <g id="line2d_28">
      <g>
       <use style="fill:#555555;stroke:#555555;stroke-width:0.8;" x="52.079375" xlink:href="#m55a49c3f90" y="128.841965"/>
      </g>
     </g>
     <g id="text_15">
      <!-- 0.84 -->
      <g style="fill:#555555;" transform="translate(22.81375 132.641184)scale(0.1 -0.1)">
       <use xlink:href="#DejaVuSans-48"/>
       <use x="63.623047" xlink:href="#DejaVuSans-46"/>
       <use x="95.410156" xlink:href="#DejaVuSans-56"/>
       <use x="159.033203" xlink:href="#DejaVuSans-52"/>
      </g>
     </g>
    </g>
    <g id="ytick_6">
     <g id="line2d_29">
      <path clip-path="url(#pafaaa5b01d)" d="M 52.079375 89.56105 
L 337.271259 89.56105 
" style="fill:none;stroke:#ffffff;stroke-linecap:square;stroke-width:0.8;"/>
     </g>
     <g id="line2d_30">
      <g>
       <use style="fill:#555555;stroke:#555555;stroke-width:0.8;" x="52.079375" xlink:href="#m55a49c3f90" y="89.56105"/>
      </g>
     </g>
     <g id="text_16">
      <!-- 0.86 -->
      <g style="fill:#555555;" transform="translate(22.81375 93.360268)scale(0.1 -0.1)">
       <use xlink:href="#DejaVuSans-48"/>
       <use x="63.623047" xlink:href="#DejaVuSans-46"/>
       <use x="95.410156" xlink:href="#DejaVuSans-56"/>
       <use x="159.033203" xlink:href="#DejaVuSans-54"/>
      </g>
     </g>
    </g>
    <g id="ytick_7">
     <g id="line2d_31">
      <path clip-path="url(#pafaaa5b01d)" d="M 52.079375 50.280134 
L 337.271259 50.280134 
" style="fill:none;stroke:#ffffff;stroke-linecap:square;stroke-width:0.8;"/>
     </g>
     <g id="line2d_32">
      <g>
       <use style="fill:#555555;stroke:#555555;stroke-width:0.8;" x="52.079375" xlink:href="#m55a49c3f90" y="50.280134"/>
      </g>
     </g>
     <g id="text_17">
      <!-- 0.88 -->
      <g style="fill:#555555;" transform="translate(22.81375 54.079353)scale(0.1 -0.1)">
       <use xlink:href="#DejaVuSans-48"/>
       <use x="63.623047" xlink:href="#DejaVuSans-46"/>
       <use x="95.410156" xlink:href="#DejaVuSans-56"/>
       <use x="159.033203" xlink:href="#DejaVuSans-56"/>
      </g>
     </g>
    </g>
    <g id="ytick_8">
     <g id="line2d_33">
      <path clip-path="url(#pafaaa5b01d)" d="M 52.079375 10.999219 
L 337.271259 10.999219 
" style="fill:none;stroke:#ffffff;stroke-linecap:square;stroke-width:0.8;"/>
     </g>
     <g id="line2d_34">
      <g>
       <use style="fill:#555555;stroke:#555555;stroke-width:0.8;" x="52.079375" xlink:href="#m55a49c3f90" y="10.999219"/>
      </g>
     </g>
     <g id="text_18">
      <!-- 0.90 -->
      <g style="fill:#555555;" transform="translate(22.81375 14.798437)scale(0.1 -0.1)">
       <use xlink:href="#DejaVuSans-48"/>
       <use x="63.623047" xlink:href="#DejaVuSans-46"/>
       <use x="95.410156" xlink:href="#DejaVuSans-57"/>
       <use x="159.033203" xlink:href="#DejaVuSans-48"/>
      </g>
     </g>
    </g>
    <g id="text_19">
     <!-- accuracy -->
     <g style="fill:#555555;" transform="translate(16.318125 187.701131)rotate(-90)scale(0.12 -0.12)">
      <defs>
       <path d="M 48.78125 52.59375 
L 48.78125 44.1875 
Q 44.96875 46.296875 41.140625 47.34375 
Q 37.3125 48.390625 33.40625 48.390625 
Q 24.65625 48.390625 19.8125 42.84375 
Q 14.984375 37.3125 14.984375 27.296875 
Q 14.984375 17.28125 19.8125 11.734375 
Q 24.65625 6.203125 33.40625 6.203125 
Q 37.3125 6.203125 41.140625 7.25 
Q 44.96875 8.296875 48.78125 10.40625 
L 48.78125 2.09375 
Q 45.015625 0.34375 40.984375 -0.53125 
Q 36.96875 -1.421875 32.421875 -1.421875 
Q 20.0625 -1.421875 12.78125 6.34375 
Q 5.515625 14.109375 5.515625 27.296875 
Q 5.515625 40.671875 12.859375 48.328125 
Q 20.21875 56 33.015625 56 
Q 37.15625 56 41.109375 55.140625 
Q 45.0625 54.296875 48.78125 52.59375 
z
" id="DejaVuSans-99"/>
       <path d="M 8.5 21.578125 
L 8.5 54.6875 
L 17.484375 54.6875 
L 17.484375 21.921875 
Q 17.484375 14.15625 20.5 10.265625 
Q 23.53125 6.390625 29.59375 6.390625 
Q 36.859375 6.390625 41.078125 11.03125 
Q 45.3125 15.671875 45.3125 23.6875 
L 45.3125 54.6875 
L 54.296875 54.6875 
L 54.296875 0 
L 45.3125 0 
L 45.3125 8.40625 
Q 42.046875 3.421875 37.71875 1 
Q 33.40625 -1.421875 27.6875 -1.421875 
Q 18.265625 -1.421875 13.375 4.4375 
Q 8.5 10.296875 8.5 21.578125 
z
M 31.109375 56 
z
" id="DejaVuSans-117"/>
       <path d="M 32.171875 -5.078125 
Q 28.375 -14.84375 24.75 -17.8125 
Q 21.140625 -20.796875 15.09375 -20.796875 
L 7.90625 -20.796875 
L 7.90625 -13.28125 
L 13.1875 -13.28125 
Q 16.890625 -13.28125 18.9375 -11.515625 
Q 21 -9.765625 23.484375 -3.21875 
L 25.09375 0.875 
L 2.984375 54.6875 
L 12.5 54.6875 
L 29.59375 11.921875 
L 46.6875 54.6875 
L 56.203125 54.6875 
z
" id="DejaVuSans-121"/>
      </defs>
      <use xlink:href="#DejaVuSans-97"/>
      <use x="61.279297" xlink:href="#DejaVuSans-99"/>
      <use x="116.259766" xlink:href="#DejaVuSans-99"/>
      <use x="171.240234" xlink:href="#DejaVuSans-117"/>
      <use x="234.619141" xlink:href="#DejaVuSans-114"/>
      <use x="275.732422" xlink:href="#DejaVuSans-97"/>
      <use x="337.011719" xlink:href="#DejaVuSans-99"/>
      <use x="391.992188" xlink:href="#DejaVuSans-121"/>
     </g>
    </g>
   </g>
   <g id="PathCollection_1">
    <defs>
     <path d="M 0 3 
C 0.795609 3 1.55874 2.683901 2.12132 2.12132 
C 2.683901 1.55874 3 0.795609 3 0 
C 3 -0.795609 2.683901 -1.55874 2.12132 -2.12132 
C 1.55874 -2.683901 0.795609 -3 0 -3 
C -0.795609 -3 -1.55874 -2.683901 -2.12132 -2.12132 
C -2.683901 -1.55874 -3 -0.795609 -3 0 
C -3 0.795609 -2.683901 1.55874 -2.12132 2.12132 
C -1.55874 2.683901 -0.795609 3 0 3 
z
" id="m25cd727245" style="stroke:#e24a33;stroke-opacity:0.8;"/>
    </defs>
    <g clip-path="url(#pafaaa5b01d)">
     <use style="fill:#e24a33;fill-opacity:0.8;stroke:#e24a33;stroke-opacity:0.8;" x="33.406097" xlink:href="#m25cd727245" y="288.987235"/>
     <use style="fill:#e24a33;fill-opacity:0.8;stroke:#e24a33;stroke-opacity:0.8;" x="41.893951" xlink:href="#m25cd727245" y="244.824036"/>
     <use style="fill:#e24a33;fill-opacity:0.8;stroke:#e24a33;stroke-opacity:0.8;" x="50.381804" xlink:href="#m25cd727245" y="198.910625"/>
     <use style="fill:#e24a33;fill-opacity:0.8;stroke:#e24a33;stroke-opacity:0.8;" x="58.869658" xlink:href="#m25cd727245" y="184.489928"/>
     <use style="fill:#e24a33;fill-opacity:0.8;stroke:#e24a33;stroke-opacity:0.8;" x="67.357512" xlink:href="#m25cd727245" y="169.245192"/>
     <use style="fill:#e24a33;fill-opacity:0.8;stroke:#e24a33;stroke-opacity:0.8;" x="75.845365" xlink:href="#m25cd727245" y="171.126715"/>
     <use style="fill:#e24a33;fill-opacity:0.8;stroke:#e24a33;stroke-opacity:0.8;" x="84.333219" xlink:href="#m25cd727245" y="158.124102"/>
     <use style="fill:#e24a33;fill-opacity:0.8;stroke:#e24a33;stroke-opacity:0.8;" x="92.821073" xlink:href="#m25cd727245" y="159.775686"/>
     <use style="fill:#e24a33;fill-opacity:0.8;stroke:#e24a33;stroke-opacity:0.8;" x="101.308926" xlink:href="#m25cd727245" y="152.157089"/>
     <use style="fill:#e24a33;fill-opacity:0.8;stroke:#e24a33;stroke-opacity:0.8;" x="109.79678" xlink:href="#m25cd727245" y="144.816204"/>
     <use style="fill:#e24a33;fill-opacity:0.8;stroke:#e24a33;stroke-opacity:0.8;" x="118.284634" xlink:href="#m25cd727245" y="138.865371"/>
     <use style="fill:#e24a33;fill-opacity:0.8;stroke:#e24a33;stroke-opacity:0.8;" x="126.772487" xlink:href="#m25cd727245" y="130.806011"/>
     <use style="fill:#e24a33;fill-opacity:0.8;stroke:#e24a33;stroke-opacity:0.8;" x="135.260341" xlink:href="#m25cd727245" y="124.186449"/>
     <use style="fill:#e24a33;fill-opacity:0.8;stroke:#e24a33;stroke-opacity:0.8;" x="143.748195" xlink:href="#m25cd727245" y="123.100908"/>
     <use style="fill:#e24a33;fill-opacity:0.8;stroke:#e24a33;stroke-opacity:0.8;" x="152.236048" xlink:href="#m25cd727245" y="123.49976"/>
     <use style="fill:#e24a33;fill-opacity:0.8;stroke:#e24a33;stroke-opacity:0.8;" x="160.723902" xlink:href="#m25cd727245" y="119.349077"/>
     <use style="fill:#e24a33;fill-opacity:0.8;stroke:#e24a33;stroke-opacity:0.8;" x="169.211756" xlink:href="#m25cd727245" y="108.347574"/>
     <use style="fill:#e24a33;fill-opacity:0.8;stroke:#e24a33;stroke-opacity:0.8;" x="177.699609" xlink:href="#m25cd727245" y="103.48792"/>
     <use style="fill:#e24a33;fill-opacity:0.8;stroke:#e24a33;stroke-opacity:0.8;" x="186.187463" xlink:href="#m25cd727245" y="102.654688"/>
     <use style="fill:#e24a33;fill-opacity:0.8;stroke:#e24a33;stroke-opacity:0.8;" x="194.675317" xlink:href="#m25cd727245" y="100.559706"/>
     <use style="fill:#e24a33;fill-opacity:0.8;stroke:#e24a33;stroke-opacity:0.8;" x="203.163171" xlink:href="#m25cd727245" y="102.792516"/>
     <use style="fill:#e24a33;fill-opacity:0.8;stroke:#e24a33;stroke-opacity:0.8;" x="211.651024" xlink:href="#m25cd727245" y="98.290142"/>
     <use style="fill:#e24a33;fill-opacity:0.8;stroke:#e24a33;stroke-opacity:0.8;" x="220.138878" xlink:href="#m25cd727245" y="97.879361"/>
     <use style="fill:#e24a33;fill-opacity:0.8;stroke:#e24a33;stroke-opacity:0.8;" x="228.626732" xlink:href="#m25cd727245" y="96.926221"/>
     <use style="fill:#e24a33;fill-opacity:0.8;stroke:#e24a33;stroke-opacity:0.8;" x="237.114585" xlink:href="#m25cd727245" y="92.179777"/>
     <use style="fill:#e24a33;fill-opacity:0.8;stroke:#e24a33;stroke-opacity:0.8;" x="245.602439" xlink:href="#m25cd727245" y="90.122205"/>
     <use style="fill:#e24a33;fill-opacity:0.8;stroke:#e24a33;stroke-opacity:0.8;" x="254.090293" xlink:href="#m25cd727245" y="96.208589"/>
     <use style="fill:#e24a33;fill-opacity:0.8;stroke:#e24a33;stroke-opacity:0.8;" x="262.578146" xlink:href="#m25cd727245" y="96.107869"/>
     <use style="fill:#e24a33;fill-opacity:0.8;stroke:#e24a33;stroke-opacity:0.8;" x="271.066" xlink:href="#m25cd727245" y="90.989446"/>
     <use style="fill:#e24a33;fill-opacity:0.8;stroke:#e24a33;stroke-opacity:0.8;" x="279.553854" xlink:href="#m25cd727245" y="92.703523"/>
     <use style="fill:#e24a33;fill-opacity:0.8;stroke:#e24a33;stroke-opacity:0.8;" x="288.041707" xlink:href="#m25cd727245" y="84.323594"/>
     <use style="fill:#e24a33;fill-opacity:0.8;stroke:#e24a33;stroke-opacity:0.8;" x="296.529561" xlink:href="#m25cd727245" y="79.740821"/>
     <use style="fill:#e24a33;fill-opacity:0.8;stroke:#e24a33;stroke-opacity:0.8;" x="305.017415" xlink:href="#m25cd727245" y="77.215619"/>
     <use style="fill:#e24a33;fill-opacity:0.8;stroke:#e24a33;stroke-opacity:0.8;" x="313.505268" xlink:href="#m25cd727245" y="62.064409"/>
     <use style="fill:#e24a33;fill-opacity:0.8;stroke:#e24a33;stroke-opacity:0.8;" x="321.993122" xlink:href="#m25cd727245" y="58.136317"/>
     <use style="fill:#e24a33;fill-opacity:0.8;stroke:#e24a33;stroke-opacity:0.8;" x="330.480976" xlink:href="#m25cd727245" y="77.776775"/>
     <use style="fill:#e24a33;fill-opacity:0.8;stroke:#e24a33;stroke-opacity:0.8;" x="338.968829" xlink:href="#m25cd727245" y="84.323594"/>
     <use style="fill:#e24a33;fill-opacity:0.8;stroke:#e24a33;stroke-opacity:0.8;" x="347.456683" xlink:href="#m25cd727245" y="69.920592"/>
     <use style="fill:#e24a33;fill-opacity:0.8;stroke:#e24a33;stroke-opacity:0.8;" x="355.944537" xlink:href="#m25cd727245" y="97.417233"/>
    </g>
   </g>
   <g id="PolyCollection_1">
    <path clip-path="url(#pafaaa5b01d)" d="M 33.406097 167.84706 
L 33.406097 214.640911 
L 36.664061 212.969646 
L 39.922025 211.075499 
L 43.179989 209.104906 
L 46.437953 207.032297 
L 49.695917 204.959687 
L 52.953881 203.201849 
L 56.211845 201.515741 
L 59.469809 199.615692 
L 62.727773 197.710151 
L 65.985737 195.805537 
L 69.243701 194.067021 
L 72.501665 192.328504 
L 75.759629 190.569085 
L 79.017593 188.68468 
L 82.275557 186.800274 
L 85.533522 185.081087 
L 88.791486 183.415108 
L 92.04945 181.828136 
L 95.307414 180.184144 
L 98.565378 178.476807 
L 101.823342 176.858656 
L 105.081306 175.088805 
L 108.33927 173.274176 
L 111.597234 171.515347 
L 114.855198 169.815184 
L 118.113162 168.238488 
L 121.371126 166.661791 
L 124.62909 165.085094 
L 127.887054 163.440228 
L 131.145018 161.777736 
L 134.402982 160.061002 
L 137.660946 158.208885 
L 140.91891 156.509808 
L 144.176874 154.791786 
L 147.434838 153.239981 
L 150.692802 151.685057 
L 153.950766 150.12483 
L 157.20873 148.387503 
L 160.466694 146.549179 
L 163.724658 144.895249 
L 166.982623 143.149352 
L 170.240587 141.324556 
L 173.498551 139.556088 
L 176.756515 137.965145 
L 180.014479 136.345241 
L 183.272443 134.732041 
L 186.530407 133.276868 
L 189.788371 131.556129 
L 193.046335 129.890003 
L 196.304299 128.348502 
L 199.562263 126.628821 
L 202.820227 125.028052 
L 206.078191 123.498352 
L 209.336155 121.897945 
L 212.594119 120.353008 
L 215.852083 118.707104 
L 219.110047 117.104906 
L 222.368011 115.513249 
L 225.625975 113.964364 
L 228.883939 112.457457 
L 232.141903 111.034644 
L 235.399867 109.530829 
L 238.657831 108.011607 
L 241.915795 106.57721 
L 245.173759 105.128796 
L 248.431723 103.71347 
L 251.689688 102.283189 
L 254.947652 100.901724 
L 258.205616 99.485915 
L 261.46358 98.086887 
L 264.721544 96.765841 
L 267.979508 95.564798 
L 271.237472 94.234485 
L 274.495436 92.881887 
L 277.7534 91.777935 
L 281.011364 90.540667 
L 284.269328 89.258913 
L 287.527292 88.096452 
L 290.785256 87.036081 
L 294.04322 85.943646 
L 297.301184 84.768479 
L 300.559148 83.729624 
L 303.817112 82.763516 
L 307.075076 81.542079 
L 310.33304 80.426836 
L 313.591004 79.382638 
L 316.848968 78.378232 
L 320.106932 77.34442 
L 323.364896 76.292359 
L 326.62286 75.112361 
L 329.880824 73.973791 
L 333.138789 72.796803 
L 336.396753 71.790284 
L 339.654717 70.595102 
L 342.912681 69.364909 
L 346.170645 68.216083 
L 349.428609 67.003656 
L 352.686573 65.713447 
L 355.944537 64.439688 
L 355.944537 31.759947 
L 355.944537 31.759947 
L 352.686573 33.631352 
L 349.428609 35.467317 
L 346.170645 37.303282 
L 342.912681 39.139247 
L 339.654717 40.975212 
L 336.396753 42.800637 
L 333.138789 44.606774 
L 329.880824 46.298274 
L 326.62286 48.059864 
L 323.364896 49.871232 
L 320.106932 51.684655 
L 316.848968 53.492549 
L 313.591004 55.195143 
L 310.33304 56.887192 
L 307.075076 58.582687 
L 303.817112 60.275868 
L 300.559148 61.950574 
L 297.301184 63.722237 
L 294.04322 65.537324 
L 290.785256 67.353433 
L 287.527292 69.171746 
L 284.269328 70.920808 
L 281.011364 72.595608 
L 277.7534 74.371473 
L 274.495436 76.146732 
L 271.237472 77.805105 
L 267.979508 79.464373 
L 264.721544 81.110127 
L 261.46358 82.907672 
L 258.205616 84.550545 
L 254.947652 86.193376 
L 251.689688 87.832504 
L 248.431723 89.517838 
L 245.173759 91.116051 
L 241.915795 92.756502 
L 238.657831 94.337019 
L 235.399867 96.040233 
L 232.141903 97.681382 
L 228.883939 99.322633 
L 225.625975 100.897 
L 222.368011 102.265679 
L 219.110047 103.635635 
L 215.852083 105.088273 
L 212.594119 106.454586 
L 209.336155 107.748173 
L 206.078191 109.089726 
L 202.820227 110.317752 
L 199.562263 111.50872 
L 196.304299 112.675245 
L 193.046335 113.909272 
L 189.788371 115.19285 
L 186.530407 116.380614 
L 183.272443 117.516685 
L 180.014479 118.568643 
L 176.756515 119.821485 
L 173.498551 120.980516 
L 170.240587 122.156758 
L 166.982623 123.295815 
L 163.724658 124.404939 
L 160.466694 125.514048 
L 157.20873 126.659486 
L 153.950766 127.789859 
L 150.692802 128.893549 
L 147.434838 129.915326 
L 144.176874 130.917407 
L 140.91891 131.920521 
L 137.660946 132.944613 
L 134.402982 134.049857 
L 131.145018 135.027367 
L 127.887054 136.004929 
L 124.62909 137.130073 
L 121.371126 138.255855 
L 118.113162 139.383192 
L 114.855198 140.419773 
L 111.597234 141.478297 
L 108.33927 142.602764 
L 105.081306 143.724467 
L 101.823342 144.72156 
L 98.565378 145.787813 
L 95.307414 146.816701 
L 92.04945 147.845589 
L 88.791486 148.87636 
L 85.533522 149.907805 
L 82.275557 150.994441 
L 79.017593 152.117449 
L 75.759629 153.240456 
L 72.501665 154.364123 
L 69.243701 155.487903 
L 65.985737 156.611682 
L 62.727773 157.735462 
L 59.469809 158.859241 
L 56.211845 159.983021 
L 52.953881 161.106801 
L 49.695917 162.23058 
L 46.437953 163.35436 
L 43.179989 164.47814 
L 39.922025 165.601919 
L 36.664061 166.725699 
L 33.406097 167.84706 
z
" style="fill:#e24a33;fill-opacity:0.15;"/>
   </g>
   <g id="PathCollection_2">
    <defs>
     <path d="M 0 3 
C 0.795609 3 1.55874 2.683901 2.12132 2.12132 
C 2.683901 1.55874 3 0.795609 3 0 
C 3 -0.795609 2.683901 -1.55874 2.12132 -2.12132 
C 1.55874 -2.683901 0.795609 -3 0 -3 
C -0.795609 -3 -1.55874 -2.683901 -2.12132 -2.12132 
C -2.683901 -1.55874 -3 -0.795609 -3 0 
C -3 0.795609 -2.683901 1.55874 -2.12132 2.12132 
C -1.55874 2.683901 -0.795609 3 0 3 
z
" id="mfe01259b1e" style="stroke:#348abd;stroke-opacity:0.8;"/>
    </defs>
    <g clip-path="url(#pafaaa5b01d)">
     <use style="fill:#348abd;fill-opacity:0.8;stroke:#348abd;stroke-opacity:0.8;" x="58.869658" xlink:href="#mfe01259b1e" y="297.749885"/>
     <use style="fill:#348abd;fill-opacity:0.8;stroke:#348abd;stroke-opacity:0.8;" x="92.821073" xlink:href="#mfe01259b1e" y="174.751537"/>
     <use style="fill:#348abd;fill-opacity:0.8;stroke:#348abd;stroke-opacity:0.8;" x="126.772487" xlink:href="#mfe01259b1e" y="171.770445"/>
     <use style="fill:#348abd;fill-opacity:0.8;stroke:#348abd;stroke-opacity:0.8;" x="160.723902" xlink:href="#mfe01259b1e" y="150.119159"/>
     <use style="fill:#348abd;fill-opacity:0.8;stroke:#348abd;stroke-opacity:0.8;" x="194.675317" xlink:href="#mfe01259b1e" y="128.842016"/>
     <use style="fill:#348abd;fill-opacity:0.8;stroke:#348abd;stroke-opacity:0.8;" x="228.626732" xlink:href="#mfe01259b1e" y="113.620594"/>
     <use style="fill:#348abd;fill-opacity:0.8;stroke:#348abd;stroke-opacity:0.8;" x="262.578146" xlink:href="#mfe01259b1e" y="122.949838"/>
     <use style="fill:#348abd;fill-opacity:0.8;stroke:#348abd;stroke-opacity:0.8;" x="296.529561" xlink:href="#mfe01259b1e" y="94.471131"/>
     <use style="fill:#348abd;fill-opacity:0.8;stroke:#348abd;stroke-opacity:0.8;" x="330.480976" xlink:href="#mfe01259b1e" y="75.812761"/>
    </g>
   </g>
   <g id="PolyCollection_2">
    <path clip-path="url(#pafaaa5b01d)" d="M 58.869658 185.910796 
L 58.869658 278.346755 
L 61.613207 275.815212 
L 64.356755 273.218425 
L 67.100304 270.896816 
L 69.843853 268.200336 
L 72.587401 265.946853 
L 75.33095 263.722679 
L 78.074499 261.530809 
L 80.818047 259.311864 
L 83.561596 257.146448 
L 86.305145 254.955197 
L 89.048693 252.762502 
L 91.792242 250.568509 
L 94.535791 248.369451 
L 97.279339 246.077767 
L 100.022888 243.595337 
L 102.766437 241.106748 
L 105.509985 238.857406 
L 108.253534 236.643314 
L 110.997083 234.286708 
L 113.740631 231.924485 
L 116.48418 229.572147 
L 119.227729 227.219808 
L 121.971277 224.867469 
L 124.714826 222.513646 
L 127.458375 220.379651 
L 130.201923 218.258806 
L 132.945472 216.137264 
L 135.689021 214.013778 
L 138.432569 211.890291 
L 141.176118 209.669532 
L 143.919667 207.313679 
L 146.663215 205.187024 
L 149.406764 203.10514 
L 152.150313 200.987345 
L 154.893861 198.907049 
L 157.63741 196.807128 
L 160.380959 194.396808 
L 163.124507 192.185778 
L 165.868056 189.995265 
L 168.611605 187.725333 
L 171.355153 185.636237 
L 174.098702 183.522031 
L 176.842251 181.433758 
L 179.585799 179.289508 
L 182.329348 177.173699 
L 185.072897 174.93838 
L 187.816445 172.735169 
L 190.559994 170.537605 
L 193.303543 168.267491 
L 196.047091 166.218335 
L 198.79064 164.223348 
L 201.534189 162.014345 
L 204.277737 159.726499 
L 207.021286 157.435513 
L 209.764834 155.304733 
L 212.508383 153.228481 
L 215.251932 151.152228 
L 217.99548 149.075976 
L 220.739029 146.996321 
L 223.482578 144.914508 
L 226.226126 142.837966 
L 228.969675 140.947053 
L 231.713224 139.003661 
L 234.456772 137.060515 
L 237.200321 135.162619 
L 239.94387 133.165175 
L 242.687418 131.226965 
L 245.430967 129.309473 
L 248.174516 127.194898 
L 250.918064 125.080034 
L 253.661613 123.037467 
L 256.405162 121.175041 
L 259.14871 119.318987 
L 261.892259 117.323731 
L 264.635808 115.604448 
L 267.379356 114.066447 
L 270.122905 112.315524 
L 272.866454 110.721943 
L 275.610002 109.483986 
L 278.353551 108.287326 
L 281.0971 107.175798 
L 283.840648 106.081614 
L 286.584197 104.923826 
L 289.327746 103.90209 
L 292.071294 102.869337 
L 294.814843 101.860652 
L 297.558392 100.841091 
L 300.30194 99.82153 
L 303.045489 98.801727 
L 305.789038 97.781377 
L 308.532586 96.761027 
L 311.276135 95.740676 
L 314.019684 94.720326 
L 316.763232 93.699975 
L 319.506781 92.679625 
L 322.25033 91.659275 
L 324.993878 90.638924 
L 327.737427 89.618574 
L 330.480976 88.598223 
L 330.480976 23.509877 
L 330.480976 23.509877 
L 327.737427 25.863039 
L 324.993878 28.2162 
L 322.25033 30.569362 
L 319.506781 32.922524 
L 316.763232 35.275686 
L 314.019684 37.698642 
L 311.276135 40.169882 
L 308.532586 42.641121 
L 305.789038 45.112361 
L 303.045489 47.584279 
L 300.30194 50.05866 
L 297.558392 52.533041 
L 294.814843 55.007422 
L 292.071294 57.481803 
L 289.327746 59.88499 
L 286.584197 61.977194 
L 283.840648 64.376258 
L 281.0971 66.842135 
L 278.353551 69.311436 
L 275.610002 71.785577 
L 272.866454 74.085132 
L 270.122905 75.993833 
L 267.379356 78.011824 
L 264.635808 80.420426 
L 261.892259 82.834233 
L 259.14871 85.248039 
L 256.405162 87.661845 
L 253.661613 90.075652 
L 250.918064 92.489458 
L 248.174516 94.873038 
L 245.430967 97.272467 
L 242.687418 99.713821 
L 239.94387 102.124762 
L 237.200321 104.53156 
L 234.456772 106.655266 
L 231.713224 108.763173 
L 228.969675 110.87108 
L 226.226126 112.978986 
L 223.482578 115.080326 
L 220.739029 117.176669 
L 217.99548 119.229048 
L 215.251932 120.889812 
L 212.508383 122.505283 
L 209.764834 123.703247 
L 207.021286 124.811341 
L 204.277737 126.065438 
L 201.534189 127.36983 
L 198.79064 128.953229 
L 196.047091 130.557192 
L 193.303543 131.695432 
L 190.559994 132.860747 
L 187.816445 134.304657 
L 185.072897 135.672955 
L 182.329348 136.903966 
L 179.585799 138.142619 
L 176.842251 139.332555 
L 174.098702 140.580004 
L 171.355153 141.713509 
L 168.611605 142.87777 
L 165.868056 144.010499 
L 163.124507 145.183809 
L 160.380959 146.293269 
L 157.63741 147.473199 
L 154.893861 148.70115 
L 152.150313 149.83482 
L 149.406764 150.89056 
L 146.663215 151.966486 
L 143.919667 153.053614 
L 141.176118 154.126283 
L 138.432569 155.198439 
L 135.689021 156.276484 
L 132.945472 157.384696 
L 130.201923 158.494237 
L 127.458375 159.603904 
L 124.714826 160.709857 
L 121.971277 161.817546 
L 119.227729 162.925759 
L 116.48418 164.033971 
L 113.740631 165.142184 
L 110.997083 166.218342 
L 108.253534 167.166632 
L 105.509985 168.282457 
L 102.766437 169.284991 
L 100.022888 170.304364 
L 97.279339 171.314215 
L 94.535791 172.343916 
L 91.792242 173.415508 
L 89.048693 174.489742 
L 86.305145 175.5877 
L 83.561596 176.630285 
L 80.818047 177.701878 
L 78.074499 178.77347 
L 75.33095 179.805587 
L 72.587401 180.823122 
L 69.843853 181.84068 
L 67.100304 182.858191 
L 64.356755 183.899857 
L 61.613207 184.893261 
L 58.869658 185.910796 
z
" style="fill:#348abd;fill-opacity:0.15;"/>
   </g>
   <g id="line2d_35">
    <path clip-path="url(#pafaaa5b01d)" d="M 33.406097 190.728987 
L 36.664061 189.306559 
L 39.922025 187.884131 
L 43.179989 186.461702 
L 46.437953 185.039274 
L 49.695917 183.616846 
L 52.953881 182.194418 
L 56.211845 180.77199 
L 59.469809 179.349561 
L 62.727773 177.927133 
L 65.985737 176.504705 
L 69.243701 175.082277 
L 72.501665 173.659849 
L 75.759629 172.237421 
L 79.017593 170.814992 
L 82.275557 169.392564 
L 85.533522 167.970136 
L 88.791486 166.547708 
L 92.04945 165.12528 
L 95.307414 163.702851 
L 98.565378 162.280423 
L 101.823342 160.857995 
L 105.081306 159.435567 
L 108.33927 158.013139 
L 111.597234 156.59071 
L 114.855198 155.168282 
L 118.113162 153.745854 
L 121.371126 152.323426 
L 124.62909 150.900998 
L 127.887054 149.47857 
L 131.145018 148.056141 
L 134.402982 146.633713 
L 137.660946 145.211285 
L 140.91891 143.788857 
L 144.176874 142.366429 
L 147.434838 140.944 
L 150.692802 139.521572 
L 153.950766 138.099144 
L 157.20873 136.676716 
L 160.466694 135.254288 
L 163.724658 133.83186 
L 166.982623 132.409431 
L 170.240587 130.987003 
L 173.498551 129.564575 
L 176.756515 128.142147 
L 180.014479 126.719719 
L 183.272443 125.29729 
L 186.530407 123.874862 
L 189.788371 122.452434 
L 193.046335 121.030006 
L 196.304299 119.607578 
L 199.562263 118.185149 
L 202.820227 116.762721 
L 206.078191 115.340293 
L 209.336155 113.917865 
L 212.594119 112.495437 
L 215.852083 111.073009 
L 219.110047 109.65058 
L 222.368011 108.228152 
L 225.625975 106.805724 
L 228.883939 105.383296 
L 232.141903 103.960868 
L 235.399867 102.538439 
L 238.657831 101.116011 
L 241.915795 99.693583 
L 245.173759 98.271155 
L 248.431723 96.848727 
L 251.689688 95.426299 
L 254.947652 94.00387 
L 258.205616 92.581442 
L 261.46358 91.159014 
L 264.721544 89.736586 
L 267.979508 88.314158 
L 271.237472 86.891729 
L 274.495436 85.469301 
L 277.7534 84.046873 
L 281.011364 82.624445 
L 284.269328 81.202017 
L 287.527292 79.779588 
L 290.785256 78.35716 
L 294.04322 76.934732 
L 297.301184 75.512304 
L 300.559148 74.089876 
L 303.817112 72.667448 
L 307.075076 71.245019 
L 310.33304 69.822591 
L 313.591004 68.400163 
L 316.848968 66.977735 
L 320.106932 65.555307 
L 323.364896 64.132878 
L 326.62286 62.71045 
L 329.880824 61.288022 
L 333.138789 59.865594 
L 336.396753 58.443166 
L 339.654717 57.020737 
L 342.912681 55.598309 
L 346.170645 54.175881 
L 349.428609 52.753453 
L 352.686573 51.331025 
L 355.944537 49.908597 
" style="fill:none;stroke:#e24a33;stroke-linecap:square;stroke-width:2.25;"/>
   </g>
   <g id="line2d_36">
    <path clip-path="url(#pafaaa5b01d)" d="M 58.869658 231.969451 
L 61.613207 230.268805 
L 64.356755 228.56816 
L 67.100304 226.867514 
L 69.843853 225.166868 
L 72.587401 223.466222 
L 75.33095 221.765576 
L 78.074499 220.064931 
L 80.818047 218.364285 
L 83.561596 216.663639 
L 86.305145 214.962993 
L 89.048693 213.262348 
L 91.792242 211.561702 
L 94.535791 209.861056 
L 97.279339 208.16041 
L 100.022888 206.459764 
L 102.766437 204.759119 
L 105.509985 203.058473 
L 108.253534 201.357827 
L 110.997083 199.657181 
L 113.740631 197.956536 
L 116.48418 196.25589 
L 119.227729 194.555244 
L 121.971277 192.854598 
L 124.714826 191.153952 
L 127.458375 189.453307 
L 130.201923 187.752661 
L 132.945472 186.052015 
L 135.689021 184.351369 
L 138.432569 182.650724 
L 141.176118 180.950078 
L 143.919667 179.249432 
L 146.663215 177.548786 
L 149.406764 175.84814 
L 152.150313 174.147495 
L 154.893861 172.446849 
L 157.63741 170.746203 
L 160.380959 169.045557 
L 163.124507 167.344912 
L 165.868056 165.644266 
L 168.611605 163.94362 
L 171.355153 162.242974 
L 174.098702 160.542328 
L 176.842251 158.841683 
L 179.585799 157.141037 
L 182.329348 155.440391 
L 185.072897 153.739745 
L 187.816445 152.0391 
L 190.559994 150.338454 
L 193.303543 148.637808 
L 196.047091 146.937162 
L 198.79064 145.236516 
L 201.534189 143.535871 
L 204.277737 141.835225 
L 207.021286 140.134579 
L 209.764834 138.433933 
L 212.508383 136.733288 
L 215.251932 135.032642 
L 217.99548 133.331996 
L 220.739029 131.63135 
L 223.482578 129.930704 
L 226.226126 128.230059 
L 228.969675 126.529413 
L 231.713224 124.828767 
L 234.456772 123.128121 
L 237.200321 121.427475 
L 239.94387 119.72683 
L 242.687418 118.026184 
L 245.430967 116.325538 
L 248.174516 114.624892 
L 250.918064 112.924247 
L 253.661613 111.223601 
L 256.405162 109.522955 
L 259.14871 107.822309 
L 261.892259 106.121663 
L 264.635808 104.421018 
L 267.379356 102.720372 
L 270.122905 101.019726 
L 272.866454 99.31908 
L 275.610002 97.618435 
L 278.353551 95.917789 
L 281.0971 94.217143 
L 283.840648 92.516497 
L 286.584197 90.815851 
L 289.327746 89.115206 
L 292.071294 87.41456 
L 294.814843 85.713914 
L 297.558392 84.013268 
L 300.30194 82.312623 
L 303.045489 80.611977 
L 305.789038 78.911331 
L 308.532586 77.210685 
L 311.276135 75.510039 
L 314.019684 73.809394 
L 316.763232 72.108748 
L 319.506781 70.408102 
L 322.25033 68.707456 
L 324.993878 67.006811 
L 327.737427 65.306165 
L 330.480976 63.605519 
" style="fill:none;stroke:#348abd;stroke-linecap:square;stroke-width:2.25;"/>
   </g>
   <g id="patch_3">
    <path d="M 52.079375 311.461886 
L 52.079375 9.797876 
" style="fill:none;stroke:#ffffff;stroke-linecap:square;stroke-linejoin:miter;"/>
   </g>
   <g id="patch_4">
    <path d="M 52.079375 311.461886 
L 337.271259 311.461886 
" style="fill:none;stroke:#ffffff;stroke-linecap:square;stroke-linejoin:miter;"/>
   </g>
  </g>
  <g id="legend_1">
   <g id="text_20">
    <!-- name -->
    <g transform="translate(366.160321 163.55813)scale(0.1 -0.1)">
     <defs>
      <path d="M 54.890625 33.015625 
L 54.890625 0 
L 45.90625 0 
L 45.90625 32.71875 
Q 45.90625 40.484375 42.875 44.328125 
Q 39.84375 48.1875 33.796875 48.1875 
Q 26.515625 48.1875 22.3125 43.546875 
Q 18.109375 38.921875 18.109375 30.90625 
L 18.109375 0 
L 9.078125 0 
L 9.078125 54.6875 
L 18.109375 54.6875 
L 18.109375 46.1875 
Q 21.34375 51.125 25.703125 53.5625 
Q 30.078125 56 35.796875 56 
Q 45.21875 56 50.046875 50.171875 
Q 54.890625 44.34375 54.890625 33.015625 
z
" id="DejaVuSans-110"/>
      <path d="M 52 44.1875 
Q 55.375 50.25 60.0625 53.125 
Q 64.75 56 71.09375 56 
Q 79.640625 56 84.28125 50.015625 
Q 88.921875 44.046875 88.921875 33.015625 
L 88.921875 0 
L 79.890625 0 
L 79.890625 32.71875 
Q 79.890625 40.578125 77.09375 44.375 
Q 74.3125 48.1875 68.609375 48.1875 
Q 61.625 48.1875 57.5625 43.546875 
Q 53.515625 38.921875 53.515625 30.90625 
L 53.515625 0 
L 44.484375 0 
L 44.484375 32.71875 
Q 44.484375 40.625 41.703125 44.40625 
Q 38.921875 48.1875 33.109375 48.1875 
Q 26.21875 48.1875 22.15625 43.53125 
Q 18.109375 38.875 18.109375 30.90625 
L 18.109375 0 
L 9.078125 0 
L 9.078125 54.6875 
L 18.109375 54.6875 
L 18.109375 46.1875 
Q 21.1875 51.21875 25.484375 53.609375 
Q 29.78125 56 35.6875 56 
Q 41.65625 56 45.828125 52.96875 
Q 50 49.953125 52 44.1875 
z
" id="DejaVuSans-109"/>
      <path d="M 56.203125 29.59375 
L 56.203125 25.203125 
L 14.890625 25.203125 
Q 15.484375 15.921875 20.484375 11.0625 
Q 25.484375 6.203125 34.421875 6.203125 
Q 39.59375 6.203125 44.453125 7.46875 
Q 49.3125 8.734375 54.109375 11.28125 
L 54.109375 2.78125 
Q 49.265625 0.734375 44.1875 -0.34375 
Q 39.109375 -1.421875 33.890625 -1.421875 
Q 20.796875 -1.421875 13.15625 6.1875 
Q 5.515625 13.8125 5.515625 26.8125 
Q 5.515625 40.234375 12.765625 48.109375 
Q 20.015625 56 32.328125 56 
Q 43.359375 56 49.78125 48.890625 
Q 56.203125 41.796875 56.203125 29.59375 
z
M 47.21875 32.234375 
Q 47.125 39.59375 43.09375 43.984375 
Q 39.0625 48.390625 32.421875 48.390625 
Q 24.90625 48.390625 20.390625 44.140625 
Q 15.875 39.890625 15.1875 32.171875 
z
" id="DejaVuSans-101"/>
     </defs>
     <use xlink:href="#DejaVuSans-110"/>
     <use x="63.378906" xlink:href="#DejaVuSans-97"/>
     <use x="124.658203" xlink:href="#DejaVuSans-109"/>
     <use x="222.070312" xlink:href="#DejaVuSans-101"/>
    </g>
   </g>
   <g id="PathCollection_3">
    <g>
     <use style="fill:#e24a33;fill-opacity:0.8;stroke:#e24a33;stroke-opacity:0.8;" x="352.652509" xlink:href="#m25cd727245" y="175.611255"/>
    </g>
   </g>
   <g id="text_21">
    <!-- SVM -->
    <g transform="translate(370.652509 178.236255)scale(0.1 -0.1)">
     <defs>
      <path d="M 53.515625 70.515625 
L 53.515625 60.890625 
Q 47.90625 63.578125 42.921875 64.890625 
Q 37.9375 66.21875 33.296875 66.21875 
Q 25.25 66.21875 20.875 63.09375 
Q 16.5 59.96875 16.5 54.203125 
Q 16.5 49.359375 19.40625 46.890625 
Q 22.3125 44.4375 30.421875 42.921875 
L 36.375 41.703125 
Q 47.40625 39.59375 52.65625 34.296875 
Q 57.90625 29 57.90625 20.125 
Q 57.90625 9.515625 50.796875 4.046875 
Q 43.703125 -1.421875 29.984375 -1.421875 
Q 24.8125 -1.421875 18.96875 -0.25 
Q 13.140625 0.921875 6.890625 3.21875 
L 6.890625 13.375 
Q 12.890625 10.015625 18.65625 8.296875 
Q 24.421875 6.59375 29.984375 6.59375 
Q 38.421875 6.59375 43.015625 9.90625 
Q 47.609375 13.234375 47.609375 19.390625 
Q 47.609375 24.75 44.3125 27.78125 
Q 41.015625 30.8125 33.5 32.328125 
L 27.484375 33.5 
Q 16.453125 35.6875 11.515625 40.375 
Q 6.59375 45.0625 6.59375 53.421875 
Q 6.59375 63.09375 13.40625 68.65625 
Q 20.21875 74.21875 32.171875 74.21875 
Q 37.3125 74.21875 42.625 73.28125 
Q 47.953125 72.359375 53.515625 70.515625 
z
" id="DejaVuSans-83"/>
      <path d="M 28.609375 0 
L 0.78125 72.90625 
L 11.078125 72.90625 
L 34.1875 11.53125 
L 57.328125 72.90625 
L 67.578125 72.90625 
L 39.796875 0 
z
" id="DejaVuSans-86"/>
      <path d="M 9.8125 72.90625 
L 24.515625 72.90625 
L 43.109375 23.296875 
L 61.8125 72.90625 
L 76.515625 72.90625 
L 76.515625 0 
L 66.890625 0 
L 66.890625 64.015625 
L 48.09375 14.015625 
L 38.1875 14.015625 
L 19.390625 64.015625 
L 19.390625 0 
L 9.8125 0 
z
" id="DejaVuSans-77"/>
     </defs>
     <use xlink:href="#DejaVuSans-83"/>
     <use x="63.476562" xlink:href="#DejaVuSans-86"/>
     <use x="131.884766" xlink:href="#DejaVuSans-77"/>
    </g>
   </g>
   <g id="PathCollection_4">
    <g>
     <use style="fill:#348abd;fill-opacity:0.8;stroke:#348abd;stroke-opacity:0.8;" x="352.652509" xlink:href="#mfe01259b1e" y="190.28938"/>
    </g>
   </g>
   <g id="text_22">
    <!-- CNN 10 S -->
    <g transform="translate(370.652509 192.91438)scale(0.1 -0.1)">
     <defs>
      <path d="M 64.40625 67.28125 
L 64.40625 56.890625 
Q 59.421875 61.53125 53.78125 63.8125 
Q 48.140625 66.109375 41.796875 66.109375 
Q 29.296875 66.109375 22.65625 58.46875 
Q 16.015625 50.828125 16.015625 36.375 
Q 16.015625 21.96875 22.65625 14.328125 
Q 29.296875 6.6875 41.796875 6.6875 
Q 48.140625 6.6875 53.78125 8.984375 
Q 59.421875 11.28125 64.40625 15.921875 
L 64.40625 5.609375 
Q 59.234375 2.09375 53.4375 0.328125 
Q 47.65625 -1.421875 41.21875 -1.421875 
Q 24.65625 -1.421875 15.125 8.703125 
Q 5.609375 18.84375 5.609375 36.375 
Q 5.609375 53.953125 15.125 64.078125 
Q 24.65625 74.21875 41.21875 74.21875 
Q 47.75 74.21875 53.53125 72.484375 
Q 59.328125 70.75 64.40625 67.28125 
z
" id="DejaVuSans-67"/>
      <path d="M 9.8125 72.90625 
L 23.09375 72.90625 
L 55.421875 11.921875 
L 55.421875 72.90625 
L 64.984375 72.90625 
L 64.984375 0 
L 51.703125 0 
L 19.390625 60.984375 
L 19.390625 0 
L 9.8125 0 
z
" id="DejaVuSans-78"/>
      <path id="DejaVuSans-32"/>
     </defs>
     <use xlink:href="#DejaVuSans-67"/>
     <use x="69.824219" xlink:href="#DejaVuSans-78"/>
     <use x="144.628906" xlink:href="#DejaVuSans-78"/>
     <use x="219.433594" xlink:href="#DejaVuSans-32"/>
     <use x="251.220703" xlink:href="#DejaVuSans-49"/>
     <use x="314.84375" xlink:href="#DejaVuSans-48"/>
     <use x="378.466797" xlink:href="#DejaVuSans-32"/>
     <use x="410.253906" xlink:href="#DejaVuSans-83"/>
    </g>
   </g>
  </g>
 </g>
 <defs>
  <clipPath id="pafaaa5b01d">
   <rect height="301.664009" width="285.191884" x="52.079375" y="9.797876"/>
  </clipPath>
 </defs>
</svg>
