<?xml version="1.0" encoding="utf-8" standalone="no"?>
<!DOCTYPE svg PUBLIC "-//W3C//DTD SVG 1.1//EN"
  "http://www.w3.org/Graphics/SVG/1.1/DTD/svg11.dtd">
<!-- Created with matplotlib (https://matplotlib.org/) -->
<svg height="351.091875pt" version="1.1" viewBox="0 0 413.778915 351.091875" width="413.778915pt" xmlns="http://www.w3.org/2000/svg" xmlns:xlink="http://www.w3.org/1999/xlink">
 <metadata>
  <rdf:RDF xmlns:cc="http://creativecommons.org/ns#" xmlns:dc="http://purl.org/dc/elements/1.1/" xmlns:rdf="http://www.w3.org/1999/02/22-rdf-syntax-ns#">
   <cc:Work>
    <dc:type rdf:resource="http://purl.org/dc/dcmitype/StillImage"/>
    <dc:date>2020-09-05T00:27:14.527488</dc:date>
    <dc:format>image/svg+xml</dc:format>
    <dc:creator>
     <cc:Agent>
      <dc:title>Matplotlib v3.3.1, https://matplotlib.org/</dc:title>
     </cc:Agent>
    </dc:creator>
   </cc:Work>
  </rdf:RDF>
 </metadata>
 <defs>
  <style type="text/css">*{stroke-linecap:butt;stroke-linejoin:round;}</style>
 </defs>
 <g id="figure_1">
  <g id="patch_1">
   <path d="M 0 351.091875 
L 413.778915 351.091875 
L 413.778915 0 
L 0 0 
z
" style="fill:#ffffff;"/>
  </g>
  <g id="axes_1">
   <g id="patch_2">
    <path d="M 52.079375 311.6 
L 339.930165 311.6 
L 339.930165 7.2 
L 52.079375 7.2 
z
" style="fill:#e5e5e5;"/>
   </g>
   <g id="matplotlib.axis_1">
    <g id="xtick_1">
     <g id="line2d_1">
      <path clip-path="url(#p9fb8568027)" d="M 58.932965 311.6 
L 58.932965 7.2 
" style="fill:none;stroke:#ffffff;stroke-linecap:square;stroke-width:0.8;"/>
     </g>
     <g id="line2d_2">
      <defs>
       <path d="M 0 0 
L 0 3.5 
" id="m8142b37fcd" style="stroke:#555555;stroke-width:0.8;"/>
      </defs>
      <g>
       <use style="fill:#555555;stroke:#555555;stroke-width:0.8;" x="58.932965" xlink:href="#m8142b37fcd" y="311.6"/>
      </g>
     </g>
     <g id="text_1">
      <!-- 0.1 -->
      <g style="fill:#555555;" transform="translate(50.981403 326.198437)scale(0.1 -0.1)">
       <defs>
        <path d="M 31.78125 66.40625 
Q 24.171875 66.40625 20.328125 58.90625 
Q 16.5 51.421875 16.5 36.375 
Q 16.5 21.390625 20.328125 13.890625 
Q 24.171875 6.390625 31.78125 6.390625 
Q 39.453125 6.390625 43.28125 13.890625 
Q 47.125 21.390625 47.125 36.375 
Q 47.125 51.421875 43.28125 58.90625 
Q 39.453125 66.40625 31.78125 66.40625 
z
M 31.78125 74.21875 
Q 44.046875 74.21875 50.515625 64.515625 
Q 56.984375 54.828125 56.984375 36.375 
Q 56.984375 17.96875 50.515625 8.265625 
Q 44.046875 -1.421875 31.78125 -1.421875 
Q 19.53125 -1.421875 13.0625 8.265625 
Q 6.59375 17.96875 6.59375 36.375 
Q 6.59375 54.828125 13.0625 64.515625 
Q 19.53125 74.21875 31.78125 74.21875 
z
" id="DejaVuSans-48"/>
        <path d="M 10.6875 12.40625 
L 21 12.40625 
L 21 0 
L 10.6875 0 
z
" id="DejaVuSans-46"/>
        <path d="M 12.40625 8.296875 
L 28.515625 8.296875 
L 28.515625 63.921875 
L 10.984375 60.40625 
L 10.984375 69.390625 
L 28.421875 72.90625 
L 38.28125 72.90625 
L 38.28125 8.296875 
L 54.390625 8.296875 
L 54.390625 0 
L 12.40625 0 
z
" id="DejaVuSans-49"/>
       </defs>
       <use xlink:href="#DejaVuSans-48"/>
       <use x="63.623047" xlink:href="#DejaVuSans-46"/>
       <use x="95.410156" xlink:href="#DejaVuSans-49"/>
      </g>
     </g>
    </g>
    <g id="xtick_2">
     <g id="line2d_3">
      <path clip-path="url(#p9fb8568027)" d="M 93.200916 311.6 
L 93.200916 7.2 
" style="fill:none;stroke:#ffffff;stroke-linecap:square;stroke-width:0.8;"/>
     </g>
     <g id="line2d_4">
      <g>
       <use style="fill:#555555;stroke:#555555;stroke-width:0.8;" x="93.200916" xlink:href="#m8142b37fcd" y="311.6"/>
      </g>
     </g>
     <g id="text_2">
      <!-- 0.2 -->
      <g style="fill:#555555;" transform="translate(85.249354 326.198437)scale(0.1 -0.1)">
       <defs>
        <path d="M 19.1875 8.296875 
L 53.609375 8.296875 
L 53.609375 0 
L 7.328125 0 
L 7.328125 8.296875 
Q 12.9375 14.109375 22.625 23.890625 
Q 32.328125 33.6875 34.8125 36.53125 
Q 39.546875 41.84375 41.421875 45.53125 
Q 43.3125 49.21875 43.3125 52.78125 
Q 43.3125 58.59375 39.234375 62.25 
Q 35.15625 65.921875 28.609375 65.921875 
Q 23.96875 65.921875 18.8125 64.3125 
Q 13.671875 62.703125 7.8125 59.421875 
L 7.8125 69.390625 
Q 13.765625 71.78125 18.9375 73 
Q 24.125 74.21875 28.421875 74.21875 
Q 39.75 74.21875 46.484375 68.546875 
Q 53.21875 62.890625 53.21875 53.421875 
Q 53.21875 48.921875 51.53125 44.890625 
Q 49.859375 40.875 45.40625 35.40625 
Q 44.1875 33.984375 37.640625 27.21875 
Q 31.109375 20.453125 19.1875 8.296875 
z
" id="DejaVuSans-50"/>
       </defs>
       <use xlink:href="#DejaVuSans-48"/>
       <use x="63.623047" xlink:href="#DejaVuSans-46"/>
       <use x="95.410156" xlink:href="#DejaVuSans-50"/>
      </g>
     </g>
    </g>
    <g id="xtick_3">
     <g id="line2d_5">
      <path clip-path="url(#p9fb8568027)" d="M 127.468868 311.6 
L 127.468868 7.2 
" style="fill:none;stroke:#ffffff;stroke-linecap:square;stroke-width:0.8;"/>
     </g>
     <g id="line2d_6">
      <g>
       <use style="fill:#555555;stroke:#555555;stroke-width:0.8;" x="127.468868" xlink:href="#m8142b37fcd" y="311.6"/>
      </g>
     </g>
     <g id="text_3">
      <!-- 0.3 -->
      <g style="fill:#555555;" transform="translate(119.517305 326.198437)scale(0.1 -0.1)">
       <defs>
        <path d="M 40.578125 39.3125 
Q 47.65625 37.796875 51.625 33 
Q 55.609375 28.21875 55.609375 21.1875 
Q 55.609375 10.40625 48.1875 4.484375 
Q 40.765625 -1.421875 27.09375 -1.421875 
Q 22.515625 -1.421875 17.65625 -0.515625 
Q 12.796875 0.390625 7.625 2.203125 
L 7.625 11.71875 
Q 11.71875 9.328125 16.59375 8.109375 
Q 21.484375 6.890625 26.8125 6.890625 
Q 36.078125 6.890625 40.9375 10.546875 
Q 45.796875 14.203125 45.796875 21.1875 
Q 45.796875 27.640625 41.28125 31.265625 
Q 36.765625 34.90625 28.71875 34.90625 
L 20.21875 34.90625 
L 20.21875 43.015625 
L 29.109375 43.015625 
Q 36.375 43.015625 40.234375 45.921875 
Q 44.09375 48.828125 44.09375 54.296875 
Q 44.09375 59.90625 40.109375 62.90625 
Q 36.140625 65.921875 28.71875 65.921875 
Q 24.65625 65.921875 20.015625 65.03125 
Q 15.375 64.15625 9.8125 62.3125 
L 9.8125 71.09375 
Q 15.4375 72.65625 20.34375 73.4375 
Q 25.25 74.21875 29.59375 74.21875 
Q 40.828125 74.21875 47.359375 69.109375 
Q 53.90625 64.015625 53.90625 55.328125 
Q 53.90625 49.265625 50.4375 45.09375 
Q 46.96875 40.921875 40.578125 39.3125 
z
" id="DejaVuSans-51"/>
       </defs>
       <use xlink:href="#DejaVuSans-48"/>
       <use x="63.623047" xlink:href="#DejaVuSans-46"/>
       <use x="95.410156" xlink:href="#DejaVuSans-51"/>
      </g>
     </g>
    </g>
    <g id="xtick_4">
     <g id="line2d_7">
      <path clip-path="url(#p9fb8568027)" d="M 161.736819 311.6 
L 161.736819 7.2 
" style="fill:none;stroke:#ffffff;stroke-linecap:square;stroke-width:0.8;"/>
     </g>
     <g id="line2d_8">
      <g>
       <use style="fill:#555555;stroke:#555555;stroke-width:0.8;" x="161.736819" xlink:href="#m8142b37fcd" y="311.6"/>
      </g>
     </g>
     <g id="text_4">
      <!-- 0.4 -->
      <g style="fill:#555555;" transform="translate(153.785256 326.198437)scale(0.1 -0.1)">
       <defs>
        <path d="M 37.796875 64.3125 
L 12.890625 25.390625 
L 37.796875 25.390625 
z
M 35.203125 72.90625 
L 47.609375 72.90625 
L 47.609375 25.390625 
L 58.015625 25.390625 
L 58.015625 17.1875 
L 47.609375 17.1875 
L 47.609375 0 
L 37.796875 0 
L 37.796875 17.1875 
L 4.890625 17.1875 
L 4.890625 26.703125 
z
" id="DejaVuSans-52"/>
       </defs>
       <use xlink:href="#DejaVuSans-48"/>
       <use x="63.623047" xlink:href="#DejaVuSans-46"/>
       <use x="95.410156" xlink:href="#DejaVuSans-52"/>
      </g>
     </g>
    </g>
    <g id="xtick_5">
     <g id="line2d_9">
      <path clip-path="url(#p9fb8568027)" d="M 196.00477 311.6 
L 196.00477 7.2 
" style="fill:none;stroke:#ffffff;stroke-linecap:square;stroke-width:0.8;"/>
     </g>
     <g id="line2d_10">
      <g>
       <use style="fill:#555555;stroke:#555555;stroke-width:0.8;" x="196.00477" xlink:href="#m8142b37fcd" y="311.6"/>
      </g>
     </g>
     <g id="text_5">
      <!-- 0.5 -->
      <g style="fill:#555555;" transform="translate(188.053207 326.198437)scale(0.1 -0.1)">
       <defs>
        <path d="M 10.796875 72.90625 
L 49.515625 72.90625 
L 49.515625 64.59375 
L 19.828125 64.59375 
L 19.828125 46.734375 
Q 21.96875 47.46875 24.109375 47.828125 
Q 26.265625 48.1875 28.421875 48.1875 
Q 40.625 48.1875 47.75 41.5 
Q 54.890625 34.8125 54.890625 23.390625 
Q 54.890625 11.625 47.5625 5.09375 
Q 40.234375 -1.421875 26.90625 -1.421875 
Q 22.3125 -1.421875 17.546875 -0.640625 
Q 12.796875 0.140625 7.71875 1.703125 
L 7.71875 11.625 
Q 12.109375 9.234375 16.796875 8.0625 
Q 21.484375 6.890625 26.703125 6.890625 
Q 35.15625 6.890625 40.078125 11.328125 
Q 45.015625 15.765625 45.015625 23.390625 
Q 45.015625 31 40.078125 35.4375 
Q 35.15625 39.890625 26.703125 39.890625 
Q 22.75 39.890625 18.8125 39.015625 
Q 14.890625 38.140625 10.796875 36.28125 
z
" id="DejaVuSans-53"/>
       </defs>
       <use xlink:href="#DejaVuSans-48"/>
       <use x="63.623047" xlink:href="#DejaVuSans-46"/>
       <use x="95.410156" xlink:href="#DejaVuSans-53"/>
      </g>
     </g>
    </g>
    <g id="xtick_6">
     <g id="line2d_11">
      <path clip-path="url(#p9fb8568027)" d="M 230.272721 311.6 
L 230.272721 7.2 
" style="fill:none;stroke:#ffffff;stroke-linecap:square;stroke-width:0.8;"/>
     </g>
     <g id="line2d_12">
      <g>
       <use style="fill:#555555;stroke:#555555;stroke-width:0.8;" x="230.272721" xlink:href="#m8142b37fcd" y="311.6"/>
      </g>
     </g>
     <g id="text_6">
      <!-- 0.6 -->
      <g style="fill:#555555;" transform="translate(222.321159 326.198437)scale(0.1 -0.1)">
       <defs>
        <path d="M 33.015625 40.375 
Q 26.375 40.375 22.484375 35.828125 
Q 18.609375 31.296875 18.609375 23.390625 
Q 18.609375 15.53125 22.484375 10.953125 
Q 26.375 6.390625 33.015625 6.390625 
Q 39.65625 6.390625 43.53125 10.953125 
Q 47.40625 15.53125 47.40625 23.390625 
Q 47.40625 31.296875 43.53125 35.828125 
Q 39.65625 40.375 33.015625 40.375 
z
M 52.59375 71.296875 
L 52.59375 62.3125 
Q 48.875 64.0625 45.09375 64.984375 
Q 41.3125 65.921875 37.59375 65.921875 
Q 27.828125 65.921875 22.671875 59.328125 
Q 17.53125 52.734375 16.796875 39.40625 
Q 19.671875 43.65625 24.015625 45.921875 
Q 28.375 48.1875 33.59375 48.1875 
Q 44.578125 48.1875 50.953125 41.515625 
Q 57.328125 34.859375 57.328125 23.390625 
Q 57.328125 12.15625 50.6875 5.359375 
Q 44.046875 -1.421875 33.015625 -1.421875 
Q 20.359375 -1.421875 13.671875 8.265625 
Q 6.984375 17.96875 6.984375 36.375 
Q 6.984375 53.65625 15.1875 63.9375 
Q 23.390625 74.21875 37.203125 74.21875 
Q 40.921875 74.21875 44.703125 73.484375 
Q 48.484375 72.75 52.59375 71.296875 
z
" id="DejaVuSans-54"/>
       </defs>
       <use xlink:href="#DejaVuSans-48"/>
       <use x="63.623047" xlink:href="#DejaVuSans-46"/>
       <use x="95.410156" xlink:href="#DejaVuSans-54"/>
      </g>
     </g>
    </g>
    <g id="xtick_7">
     <g id="line2d_13">
      <path clip-path="url(#p9fb8568027)" d="M 264.540672 311.6 
L 264.540672 7.2 
" style="fill:none;stroke:#ffffff;stroke-linecap:square;stroke-width:0.8;"/>
     </g>
     <g id="line2d_14">
      <g>
       <use style="fill:#555555;stroke:#555555;stroke-width:0.8;" x="264.540672" xlink:href="#m8142b37fcd" y="311.6"/>
      </g>
     </g>
     <g id="text_7">
      <!-- 0.7 -->
      <g style="fill:#555555;" transform="translate(256.58911 326.198437)scale(0.1 -0.1)">
       <defs>
        <path d="M 8.203125 72.90625 
L 55.078125 72.90625 
L 55.078125 68.703125 
L 28.609375 0 
L 18.3125 0 
L 43.21875 64.59375 
L 8.203125 64.59375 
z
" id="DejaVuSans-55"/>
       </defs>
       <use xlink:href="#DejaVuSans-48"/>
       <use x="63.623047" xlink:href="#DejaVuSans-46"/>
       <use x="95.410156" xlink:href="#DejaVuSans-55"/>
      </g>
     </g>
    </g>
    <g id="xtick_8">
     <g id="line2d_15">
      <path clip-path="url(#p9fb8568027)" d="M 298.808624 311.6 
L 298.808624 7.2 
" style="fill:none;stroke:#ffffff;stroke-linecap:square;stroke-width:0.8;"/>
     </g>
     <g id="line2d_16">
      <g>
       <use style="fill:#555555;stroke:#555555;stroke-width:0.8;" x="298.808624" xlink:href="#m8142b37fcd" y="311.6"/>
      </g>
     </g>
     <g id="text_8">
      <!-- 0.8 -->
      <g style="fill:#555555;" transform="translate(290.857061 326.198437)scale(0.1 -0.1)">
       <defs>
        <path d="M 31.78125 34.625 
Q 24.75 34.625 20.71875 30.859375 
Q 16.703125 27.09375 16.703125 20.515625 
Q 16.703125 13.921875 20.71875 10.15625 
Q 24.75 6.390625 31.78125 6.390625 
Q 38.8125 6.390625 42.859375 10.171875 
Q 46.921875 13.96875 46.921875 20.515625 
Q 46.921875 27.09375 42.890625 30.859375 
Q 38.875 34.625 31.78125 34.625 
z
M 21.921875 38.8125 
Q 15.578125 40.375 12.03125 44.71875 
Q 8.5 49.078125 8.5 55.328125 
Q 8.5 64.0625 14.71875 69.140625 
Q 20.953125 74.21875 31.78125 74.21875 
Q 42.671875 74.21875 48.875 69.140625 
Q 55.078125 64.0625 55.078125 55.328125 
Q 55.078125 49.078125 51.53125 44.71875 
Q 48 40.375 41.703125 38.8125 
Q 48.828125 37.15625 52.796875 32.3125 
Q 56.78125 27.484375 56.78125 20.515625 
Q 56.78125 9.90625 50.3125 4.234375 
Q 43.84375 -1.421875 31.78125 -1.421875 
Q 19.734375 -1.421875 13.25 4.234375 
Q 6.78125 9.90625 6.78125 20.515625 
Q 6.78125 27.484375 10.78125 32.3125 
Q 14.796875 37.15625 21.921875 38.8125 
z
M 18.3125 54.390625 
Q 18.3125 48.734375 21.84375 45.5625 
Q 25.390625 42.390625 31.78125 42.390625 
Q 38.140625 42.390625 41.71875 45.5625 
Q 45.3125 48.734375 45.3125 54.390625 
Q 45.3125 60.0625 41.71875 63.234375 
Q 38.140625 66.40625 31.78125 66.40625 
Q 25.390625 66.40625 21.84375 63.234375 
Q 18.3125 60.0625 18.3125 54.390625 
z
" id="DejaVuSans-56"/>
       </defs>
       <use xlink:href="#DejaVuSans-48"/>
       <use x="63.623047" xlink:href="#DejaVuSans-46"/>
       <use x="95.410156" xlink:href="#DejaVuSans-56"/>
      </g>
     </g>
    </g>
    <g id="xtick_9">
     <g id="line2d_17">
      <path clip-path="url(#p9fb8568027)" d="M 333.076575 311.6 
L 333.076575 7.2 
" style="fill:none;stroke:#ffffff;stroke-linecap:square;stroke-width:0.8;"/>
     </g>
     <g id="line2d_18">
      <g>
       <use style="fill:#555555;stroke:#555555;stroke-width:0.8;" x="333.076575" xlink:href="#m8142b37fcd" y="311.6"/>
      </g>
     </g>
     <g id="text_9">
      <!-- 0.9 -->
      <g style="fill:#555555;" transform="translate(325.125012 326.198437)scale(0.1 -0.1)">
       <defs>
        <path d="M 10.984375 1.515625 
L 10.984375 10.5 
Q 14.703125 8.734375 18.5 7.8125 
Q 22.3125 6.890625 25.984375 6.890625 
Q 35.75 6.890625 40.890625 13.453125 
Q 46.046875 20.015625 46.78125 33.40625 
Q 43.953125 29.203125 39.59375 26.953125 
Q 35.25 24.703125 29.984375 24.703125 
Q 19.046875 24.703125 12.671875 31.3125 
Q 6.296875 37.9375 6.296875 49.421875 
Q 6.296875 60.640625 12.9375 67.421875 
Q 19.578125 74.21875 30.609375 74.21875 
Q 43.265625 74.21875 49.921875 64.515625 
Q 56.59375 54.828125 56.59375 36.375 
Q 56.59375 19.140625 48.40625 8.859375 
Q 40.234375 -1.421875 26.421875 -1.421875 
Q 22.703125 -1.421875 18.890625 -0.6875 
Q 15.09375 0.046875 10.984375 1.515625 
z
M 30.609375 32.421875 
Q 37.25 32.421875 41.125 36.953125 
Q 45.015625 41.5 45.015625 49.421875 
Q 45.015625 57.28125 41.125 61.84375 
Q 37.25 66.40625 30.609375 66.40625 
Q 23.96875 66.40625 20.09375 61.84375 
Q 16.21875 57.28125 16.21875 49.421875 
Q 16.21875 41.5 20.09375 36.953125 
Q 23.96875 32.421875 30.609375 32.421875 
z
" id="DejaVuSans-57"/>
       </defs>
       <use xlink:href="#DejaVuSans-48"/>
       <use x="63.623047" xlink:href="#DejaVuSans-46"/>
       <use x="95.410156" xlink:href="#DejaVuSans-57"/>
      </g>
     </g>
    </g>
    <g id="text_10">
     <!-- ratio -->
     <g style="fill:#555555;" transform="translate(182.17102 341.39625)scale(0.12 -0.12)">
      <defs>
       <path d="M 41.109375 46.296875 
Q 39.59375 47.171875 37.8125 47.578125 
Q 36.03125 48 33.890625 48 
Q 26.265625 48 22.1875 43.046875 
Q 18.109375 38.09375 18.109375 28.8125 
L 18.109375 0 
L 9.078125 0 
L 9.078125 54.6875 
L 18.109375 54.6875 
L 18.109375 46.1875 
Q 20.953125 51.171875 25.484375 53.578125 
Q 30.03125 56 36.53125 56 
Q 37.453125 56 38.578125 55.875 
Q 39.703125 55.765625 41.0625 55.515625 
z
" id="DejaVuSans-114"/>
       <path d="M 34.28125 27.484375 
Q 23.390625 27.484375 19.1875 25 
Q 14.984375 22.515625 14.984375 16.5 
Q 14.984375 11.71875 18.140625 8.90625 
Q 21.296875 6.109375 26.703125 6.109375 
Q 34.1875 6.109375 38.703125 11.40625 
Q 43.21875 16.703125 43.21875 25.484375 
L 43.21875 27.484375 
z
M 52.203125 31.203125 
L 52.203125 0 
L 43.21875 0 
L 43.21875 8.296875 
Q 40.140625 3.328125 35.546875 0.953125 
Q 30.953125 -1.421875 24.3125 -1.421875 
Q 15.921875 -1.421875 10.953125 3.296875 
Q 6 8.015625 6 15.921875 
Q 6 25.140625 12.171875 29.828125 
Q 18.359375 34.515625 30.609375 34.515625 
L 43.21875 34.515625 
L 43.21875 35.40625 
Q 43.21875 41.609375 39.140625 45 
Q 35.0625 48.390625 27.6875 48.390625 
Q 23 48.390625 18.546875 47.265625 
Q 14.109375 46.140625 10.015625 43.890625 
L 10.015625 52.203125 
Q 14.9375 54.109375 19.578125 55.046875 
Q 24.21875 56 28.609375 56 
Q 40.484375 56 46.34375 49.84375 
Q 52.203125 43.703125 52.203125 31.203125 
z
" id="DejaVuSans-97"/>
       <path d="M 18.3125 70.21875 
L 18.3125 54.6875 
L 36.8125 54.6875 
L 36.8125 47.703125 
L 18.3125 47.703125 
L 18.3125 18.015625 
Q 18.3125 11.328125 20.140625 9.421875 
Q 21.96875 7.515625 27.59375 7.515625 
L 36.8125 7.515625 
L 36.8125 0 
L 27.59375 0 
Q 17.1875 0 13.234375 3.875 
Q 9.28125 7.765625 9.28125 18.015625 
L 9.28125 47.703125 
L 2.6875 47.703125 
L 2.6875 54.6875 
L 9.28125 54.6875 
L 9.28125 70.21875 
z
" id="DejaVuSans-116"/>
       <path d="M 9.421875 54.6875 
L 18.40625 54.6875 
L 18.40625 0 
L 9.421875 0 
z
M 9.421875 75.984375 
L 18.40625 75.984375 
L 18.40625 64.59375 
L 9.421875 64.59375 
z
" id="DejaVuSans-105"/>
       <path d="M 30.609375 48.390625 
Q 23.390625 48.390625 19.1875 42.75 
Q 14.984375 37.109375 14.984375 27.296875 
Q 14.984375 17.484375 19.15625 11.84375 
Q 23.34375 6.203125 30.609375 6.203125 
Q 37.796875 6.203125 41.984375 11.859375 
Q 46.1875 17.53125 46.1875 27.296875 
Q 46.1875 37.015625 41.984375 42.703125 
Q 37.796875 48.390625 30.609375 48.390625 
z
M 30.609375 56 
Q 42.328125 56 49.015625 48.375 
Q 55.71875 40.765625 55.71875 27.296875 
Q 55.71875 13.875 49.015625 6.21875 
Q 42.328125 -1.421875 30.609375 -1.421875 
Q 18.84375 -1.421875 12.171875 6.21875 
Q 5.515625 13.875 5.515625 27.296875 
Q 5.515625 40.765625 12.171875 48.375 
Q 18.84375 56 30.609375 56 
z
" id="DejaVuSans-111"/>
      </defs>
      <use xlink:href="#DejaVuSans-114"/>
      <use x="41.113281" xlink:href="#DejaVuSans-97"/>
      <use x="102.392578" xlink:href="#DejaVuSans-116"/>
      <use x="141.601562" xlink:href="#DejaVuSans-105"/>
      <use x="169.384766" xlink:href="#DejaVuSans-111"/>
     </g>
    </g>
   </g>
   <g id="matplotlib.axis_2">
    <g id="ytick_1">
     <g id="line2d_19">
      <path clip-path="url(#p9fb8568027)" d="M 52.079375 294.754849 
L 339.930165 294.754849 
" style="fill:none;stroke:#ffffff;stroke-linecap:square;stroke-width:0.8;"/>
     </g>
     <g id="line2d_20">
      <defs>
       <path d="M 0 0 
L -3.5 0 
" id="m4410f1b6ac" style="stroke:#555555;stroke-width:0.8;"/>
      </defs>
      <g>
       <use style="fill:#555555;stroke:#555555;stroke-width:0.8;" x="52.079375" xlink:href="#m4410f1b6ac" y="294.754849"/>
      </g>
     </g>
     <g id="text_11">
      <!-- 0.76 -->
      <g style="fill:#555555;" transform="translate(22.81375 298.554068)scale(0.1 -0.1)">
       <use xlink:href="#DejaVuSans-48"/>
       <use x="63.623047" xlink:href="#DejaVuSans-46"/>
       <use x="95.410156" xlink:href="#DejaVuSans-55"/>
       <use x="159.033203" xlink:href="#DejaVuSans-54"/>
      </g>
     </g>
    </g>
    <g id="ytick_2">
     <g id="line2d_21">
      <path clip-path="url(#p9fb8568027)" d="M 52.079375 255.640617 
L 339.930165 255.640617 
" style="fill:none;stroke:#ffffff;stroke-linecap:square;stroke-width:0.8;"/>
     </g>
     <g id="line2d_22">
      <g>
       <use style="fill:#555555;stroke:#555555;stroke-width:0.8;" x="52.079375" xlink:href="#m4410f1b6ac" y="255.640617"/>
      </g>
     </g>
     <g id="text_12">
      <!-- 0.78 -->
      <g style="fill:#555555;" transform="translate(22.81375 259.439836)scale(0.1 -0.1)">
       <use xlink:href="#DejaVuSans-48"/>
       <use x="63.623047" xlink:href="#DejaVuSans-46"/>
       <use x="95.410156" xlink:href="#DejaVuSans-55"/>
       <use x="159.033203" xlink:href="#DejaVuSans-56"/>
      </g>
     </g>
    </g>
    <g id="ytick_3">
     <g id="line2d_23">
      <path clip-path="url(#p9fb8568027)" d="M 52.079375 216.526384 
L 339.930165 216.526384 
" style="fill:none;stroke:#ffffff;stroke-linecap:square;stroke-width:0.8;"/>
     </g>
     <g id="line2d_24">
      <g>
       <use style="fill:#555555;stroke:#555555;stroke-width:0.8;" x="52.079375" xlink:href="#m4410f1b6ac" y="216.526384"/>
      </g>
     </g>
     <g id="text_13">
      <!-- 0.80 -->
      <g style="fill:#555555;" transform="translate(22.81375 220.325603)scale(0.1 -0.1)">
       <use xlink:href="#DejaVuSans-48"/>
       <use x="63.623047" xlink:href="#DejaVuSans-46"/>
       <use x="95.410156" xlink:href="#DejaVuSans-56"/>
       <use x="159.033203" xlink:href="#DejaVuSans-48"/>
      </g>
     </g>
    </g>
    <g id="ytick_4">
     <g id="line2d_25">
      <path clip-path="url(#p9fb8568027)" d="M 52.079375 177.412152 
L 339.930165 177.412152 
" style="fill:none;stroke:#ffffff;stroke-linecap:square;stroke-width:0.8;"/>
     </g>
     <g id="line2d_26">
      <g>
       <use style="fill:#555555;stroke:#555555;stroke-width:0.8;" x="52.079375" xlink:href="#m4410f1b6ac" y="177.412152"/>
      </g>
     </g>
     <g id="text_14">
      <!-- 0.82 -->
      <g style="fill:#555555;" transform="translate(22.81375 181.211371)scale(0.1 -0.1)">
       <use xlink:href="#DejaVuSans-48"/>
       <use x="63.623047" xlink:href="#DejaVuSans-46"/>
       <use x="95.410156" xlink:href="#DejaVuSans-56"/>
       <use x="159.033203" xlink:href="#DejaVuSans-50"/>
      </g>
     </g>
    </g>
    <g id="ytick_5">
     <g id="line2d_27">
      <path clip-path="url(#p9fb8568027)" d="M 52.079375 138.29792 
L 339.930165 138.29792 
" style="fill:none;stroke:#ffffff;stroke-linecap:square;stroke-width:0.8;"/>
     </g>
     <g id="line2d_28">
      <g>
       <use style="fill:#555555;stroke:#555555;stroke-width:0.8;" x="52.079375" xlink:href="#m4410f1b6ac" y="138.29792"/>
      </g>
     </g>
     <g id="text_15">
      <!-- 0.84 -->
      <g style="fill:#555555;" transform="translate(22.81375 142.097138)scale(0.1 -0.1)">
       <use xlink:href="#DejaVuSans-48"/>
       <use x="63.623047" xlink:href="#DejaVuSans-46"/>
       <use x="95.410156" xlink:href="#DejaVuSans-56"/>
       <use x="159.033203" xlink:href="#DejaVuSans-52"/>
      </g>
     </g>
    </g>
    <g id="ytick_6">
     <g id="line2d_29">
      <path clip-path="url(#p9fb8568027)" d="M 52.079375 99.183687 
L 339.930165 99.183687 
" style="fill:none;stroke:#ffffff;stroke-linecap:square;stroke-width:0.8;"/>
     </g>
     <g id="line2d_30">
      <g>
       <use style="fill:#555555;stroke:#555555;stroke-width:0.8;" x="52.079375" xlink:href="#m4410f1b6ac" y="99.183687"/>
      </g>
     </g>
     <g id="text_16">
      <!-- 0.86 -->
      <g style="fill:#555555;" transform="translate(22.81375 102.982906)scale(0.1 -0.1)">
       <use xlink:href="#DejaVuSans-48"/>
       <use x="63.623047" xlink:href="#DejaVuSans-46"/>
       <use x="95.410156" xlink:href="#DejaVuSans-56"/>
       <use x="159.033203" xlink:href="#DejaVuSans-54"/>
      </g>
     </g>
    </g>
    <g id="ytick_7">
     <g id="line2d_31">
      <path clip-path="url(#p9fb8568027)" d="M 52.079375 60.069455 
L 339.930165 60.069455 
" style="fill:none;stroke:#ffffff;stroke-linecap:square;stroke-width:0.8;"/>
     </g>
     <g id="line2d_32">
      <g>
       <use style="fill:#555555;stroke:#555555;stroke-width:0.8;" x="52.079375" xlink:href="#m4410f1b6ac" y="60.069455"/>
      </g>
     </g>
     <g id="text_17">
      <!-- 0.88 -->
      <g style="fill:#555555;" transform="translate(22.81375 63.868674)scale(0.1 -0.1)">
       <use xlink:href="#DejaVuSans-48"/>
       <use x="63.623047" xlink:href="#DejaVuSans-46"/>
       <use x="95.410156" xlink:href="#DejaVuSans-56"/>
       <use x="159.033203" xlink:href="#DejaVuSans-56"/>
      </g>
     </g>
    </g>
    <g id="ytick_8">
     <g id="line2d_33">
      <path clip-path="url(#p9fb8568027)" d="M 52.079375 20.955222 
L 339.930165 20.955222 
" style="fill:none;stroke:#ffffff;stroke-linecap:square;stroke-width:0.8;"/>
     </g>
     <g id="line2d_34">
      <g>
       <use style="fill:#555555;stroke:#555555;stroke-width:0.8;" x="52.079375" xlink:href="#m4410f1b6ac" y="20.955222"/>
      </g>
     </g>
     <g id="text_18">
      <!-- 0.90 -->
      <g style="fill:#555555;" transform="translate(22.81375 24.754441)scale(0.1 -0.1)">
       <use xlink:href="#DejaVuSans-48"/>
       <use x="63.623047" xlink:href="#DejaVuSans-46"/>
       <use x="95.410156" xlink:href="#DejaVuSans-57"/>
       <use x="159.033203" xlink:href="#DejaVuSans-48"/>
      </g>
     </g>
    </g>
    <g id="text_19">
     <!-- accuracy -->
     <g style="fill:#555555;" transform="translate(16.318125 186.47125)rotate(-90)scale(0.12 -0.12)">
      <defs>
       <path d="M 48.78125 52.59375 
L 48.78125 44.1875 
Q 44.96875 46.296875 41.140625 47.34375 
Q 37.3125 48.390625 33.40625 48.390625 
Q 24.65625 48.390625 19.8125 42.84375 
Q 14.984375 37.3125 14.984375 27.296875 
Q 14.984375 17.28125 19.8125 11.734375 
Q 24.65625 6.203125 33.40625 6.203125 
Q 37.3125 6.203125 41.140625 7.25 
Q 44.96875 8.296875 48.78125 10.40625 
L 48.78125 2.09375 
Q 45.015625 0.34375 40.984375 -0.53125 
Q 36.96875 -1.421875 32.421875 -1.421875 
Q 20.0625 -1.421875 12.78125 6.34375 
Q 5.515625 14.109375 5.515625 27.296875 
Q 5.515625 40.671875 12.859375 48.328125 
Q 20.21875 56 33.015625 56 
Q 37.15625 56 41.109375 55.140625 
Q 45.0625 54.296875 48.78125 52.59375 
z
" id="DejaVuSans-99"/>
       <path d="M 8.5 21.578125 
L 8.5 54.6875 
L 17.484375 54.6875 
L 17.484375 21.921875 
Q 17.484375 14.15625 20.5 10.265625 
Q 23.53125 6.390625 29.59375 6.390625 
Q 36.859375 6.390625 41.078125 11.03125 
Q 45.3125 15.671875 45.3125 23.6875 
L 45.3125 54.6875 
L 54.296875 54.6875 
L 54.296875 0 
L 45.3125 0 
L 45.3125 8.40625 
Q 42.046875 3.421875 37.71875 1 
Q 33.40625 -1.421875 27.6875 -1.421875 
Q 18.265625 -1.421875 13.375 4.4375 
Q 8.5 10.296875 8.5 21.578125 
z
M 31.109375 56 
z
" id="DejaVuSans-117"/>
       <path d="M 32.171875 -5.078125 
Q 28.375 -14.84375 24.75 -17.8125 
Q 21.140625 -20.796875 15.09375 -20.796875 
L 7.90625 -20.796875 
L 7.90625 -13.28125 
L 13.1875 -13.28125 
Q 16.890625 -13.28125 18.9375 -11.515625 
Q 21 -9.765625 23.484375 -3.21875 
L 25.09375 0.875 
L 2.984375 54.6875 
L 12.5 54.6875 
L 29.59375 11.921875 
L 46.6875 54.6875 
L 56.203125 54.6875 
z
" id="DejaVuSans-121"/>
      </defs>
      <use xlink:href="#DejaVuSans-97"/>
      <use x="61.279297" xlink:href="#DejaVuSans-99"/>
      <use x="116.259766" xlink:href="#DejaVuSans-99"/>
      <use x="171.240234" xlink:href="#DejaVuSans-117"/>
      <use x="234.619141" xlink:href="#DejaVuSans-114"/>
      <use x="275.732422" xlink:href="#DejaVuSans-97"/>
      <use x="337.011719" xlink:href="#DejaVuSans-99"/>
      <use x="391.992188" xlink:href="#DejaVuSans-121"/>
     </g>
    </g>
   </g>
   <g id="PathCollection_1">
    <defs>
     <path d="M 0 3 
C 0.795609 3 1.55874 2.683901 2.12132 2.12132 
C 2.683901 1.55874 3 0.795609 3 0 
C 3 -0.795609 2.683901 -1.55874 2.12132 -2.12132 
C 1.55874 -2.683901 0.795609 -3 0 -3 
C -0.795609 -3 -1.55874 -2.683901 -2.12132 -2.12132 
C -2.683901 -1.55874 -3 -0.795609 -3 0 
C -3 0.795609 -2.683901 1.55874 -2.12132 2.12132 
C -1.55874 2.683901 -0.795609 3 0 3 
z
" id="mddc91fd918" style="stroke:#e24a33;stroke-opacity:0.8;"/>
    </defs>
    <g clip-path="url(#p9fb8568027)">
     <use style="fill:#e24a33;fill-opacity:0.8;stroke:#e24a33;stroke-opacity:0.8;" x="33.232002" xlink:href="#mddc91fd918" y="297.763636"/>
     <use style="fill:#e24a33;fill-opacity:0.8;stroke:#e24a33;stroke-opacity:0.8;" x="41.79899" xlink:href="#mddc91fd918" y="253.787837"/>
     <use style="fill:#e24a33;fill-opacity:0.8;stroke:#e24a33;stroke-opacity:0.8;" x="50.365977" xlink:href="#mddc91fd918" y="208.069253"/>
     <use style="fill:#e24a33;fill-opacity:0.8;stroke:#e24a33;stroke-opacity:0.8;" x="58.932965" xlink:href="#mddc91fd918" y="193.709749"/>
     <use style="fill:#e24a33;fill-opacity:0.8;stroke:#e24a33;stroke-opacity:0.8;" x="67.499953" xlink:href="#mddc91fd918" y="178.529702"/>
     <use style="fill:#e24a33;fill-opacity:0.8;stroke:#e24a33;stroke-opacity:0.8;" x="76.066941" xlink:href="#mddc91fd918" y="180.40324"/>
     <use style="fill:#e24a33;fill-opacity:0.8;stroke:#e24a33;stroke-opacity:0.8;" x="84.633929" xlink:href="#mddc91fd918" y="167.455802"/>
     <use style="fill:#e24a33;fill-opacity:0.8;stroke:#e24a33;stroke-opacity:0.8;" x="93.200916" xlink:href="#mddc91fd918" y="169.100378"/>
     <use style="fill:#e24a33;fill-opacity:0.8;stroke:#e24a33;stroke-opacity:0.8;" x="101.767904" xlink:href="#mddc91fd918" y="161.514109"/>
     <use style="fill:#e24a33;fill-opacity:0.8;stroke:#e24a33;stroke-opacity:0.8;" x="110.334892" xlink:href="#mddc91fd918" y="154.204374"/>
     <use style="fill:#e24a33;fill-opacity:0.8;stroke:#e24a33;stroke-opacity:0.8;" x="118.90188" xlink:href="#mddc91fd918" y="148.278793"/>
     <use style="fill:#e24a33;fill-opacity:0.8;stroke:#e24a33;stroke-opacity:0.8;" x="127.468868" xlink:href="#mddc91fd918" y="140.253631"/>
     <use style="fill:#e24a33;fill-opacity:0.8;stroke:#e24a33;stroke-opacity:0.8;" x="136.035855" xlink:href="#mddc91fd918" y="133.662159"/>
     <use style="fill:#e24a33;fill-opacity:0.8;stroke:#e24a33;stroke-opacity:0.8;" x="144.602843" xlink:href="#mddc91fd918" y="132.581224"/>
     <use style="fill:#e24a33;fill-opacity:0.8;stroke:#e24a33;stroke-opacity:0.8;" x="153.169831" xlink:href="#mddc91fd918" y="132.978384"/>
     <use style="fill:#e24a33;fill-opacity:0.8;stroke:#e24a33;stroke-opacity:0.8;" x="161.736819" xlink:href="#mddc91fd918" y="128.845313"/>
     <use style="fill:#e24a33;fill-opacity:0.8;stroke:#e24a33;stroke-opacity:0.8;" x="170.303807" xlink:href="#mddc91fd918" y="117.890494"/>
     <use style="fill:#e24a33;fill-opacity:0.8;stroke:#e24a33;stroke-opacity:0.8;" x="178.870794" xlink:href="#mddc91fd918" y="113.05146"/>
     <use style="fill:#e24a33;fill-opacity:0.8;stroke:#e24a33;stroke-opacity:0.8;" x="187.437782" xlink:href="#mddc91fd918" y="112.221765"/>
     <use style="fill:#e24a33;fill-opacity:0.8;stroke:#e24a33;stroke-opacity:0.8;" x="196.00477" xlink:href="#mddc91fd918" y="110.135672"/>
     <use style="fill:#e24a33;fill-opacity:0.8;stroke:#e24a33;stroke-opacity:0.8;" x="204.571758" xlink:href="#mddc91fd918" y="112.359008"/>
     <use style="fill:#e24a33;fill-opacity:0.8;stroke:#e24a33;stroke-opacity:0.8;" x="213.138746" xlink:href="#mddc91fd918" y="107.875739"/>
     <use style="fill:#e24a33;fill-opacity:0.8;stroke:#e24a33;stroke-opacity:0.8;" x="221.705733" xlink:href="#mddc91fd918" y="107.466701"/>
     <use style="fill:#e24a33;fill-opacity:0.8;stroke:#e24a33;stroke-opacity:0.8;" x="230.272721" xlink:href="#mddc91fd918" y="106.517606"/>
     <use style="fill:#e24a33;fill-opacity:0.8;stroke:#e24a33;stroke-opacity:0.8;" x="238.839709" xlink:href="#mddc91fd918" y="101.791303"/>
     <use style="fill:#e24a33;fill-opacity:0.8;stroke:#e24a33;stroke-opacity:0.8;" x="247.406697" xlink:href="#mddc91fd918" y="99.742462"/>
     <use style="fill:#e24a33;fill-opacity:0.8;stroke:#e24a33;stroke-opacity:0.8;" x="255.973685" xlink:href="#mddc91fd918" y="105.803019"/>
     <use style="fill:#e24a33;fill-opacity:0.8;stroke:#e24a33;stroke-opacity:0.8;" x="264.540672" xlink:href="#mddc91fd918" y="105.702726"/>
     <use style="fill:#e24a33;fill-opacity:0.8;stroke:#e24a33;stroke-opacity:0.8;" x="273.10766" xlink:href="#mddc91fd918" y="100.606023"/>
     <use style="fill:#e24a33;fill-opacity:0.8;stroke:#e24a33;stroke-opacity:0.8;" x="281.674648" xlink:href="#mddc91fd918" y="102.312826"/>
     <use style="fill:#e24a33;fill-opacity:0.8;stroke:#e24a33;stroke-opacity:0.8;" x="290.241636" xlink:href="#mddc91fd918" y="93.968456"/>
     <use style="fill:#e24a33;fill-opacity:0.8;stroke:#e24a33;stroke-opacity:0.8;" x="298.808624" xlink:href="#mddc91fd918" y="89.405129"/>
     <use style="fill:#e24a33;fill-opacity:0.8;stroke:#e24a33;stroke-opacity:0.8;" x="307.375611" xlink:href="#mddc91fd918" y="86.890643"/>
     <use style="fill:#e24a33;fill-opacity:0.8;stroke:#e24a33;stroke-opacity:0.8;" x="315.942599" xlink:href="#mddc91fd918" y="71.803724"/>
     <use style="fill:#e24a33;fill-opacity:0.8;stroke:#e24a33;stroke-opacity:0.8;" x="324.509587" xlink:href="#mddc91fd918" y="67.892301"/>
     <use style="fill:#e24a33;fill-opacity:0.8;stroke:#e24a33;stroke-opacity:0.8;" x="333.076575" xlink:href="#mddc91fd918" y="87.449417"/>
     <use style="fill:#e24a33;fill-opacity:0.8;stroke:#e24a33;stroke-opacity:0.8;" x="341.643562" xlink:href="#mddc91fd918" y="93.968456"/>
     <use style="fill:#e24a33;fill-opacity:0.8;stroke:#e24a33;stroke-opacity:0.8;" x="350.21055" xlink:href="#mddc91fd918" y="79.626571"/>
     <use style="fill:#e24a33;fill-opacity:0.8;stroke:#e24a33;stroke-opacity:0.8;" x="358.777538" xlink:href="#mddc91fd918" y="107.006534"/>
    </g>
   </g>
   <g id="PolyCollection_1">
    <path clip-path="url(#p9fb8568027)" d="M 33.232002 176.564834 
L 33.232002 220.978725 
L 36.520341 219.28981 
L 39.808679 217.584308 
L 43.097018 215.870426 
L 46.385357 214.078618 
L 49.673696 212.3919 
L 52.962034 210.643623 
L 56.250373 208.891931 
L 59.538712 207.131758 
L 62.827051 205.395936 
L 66.115389 203.646708 
L 69.403728 201.897479 
L 72.692067 200.14825 
L 75.980406 198.394101 
L 79.268744 196.650548 
L 82.557083 194.951377 
L 85.845422 193.235695 
L 89.133761 191.520013 
L 92.422099 189.798857 
L 95.710438 187.961424 
L 98.998777 186.238886 
L 102.287116 184.632775 
L 105.575454 182.930007 
L 108.863793 181.217075 
L 112.152132 179.504143 
L 115.440471 177.789688 
L 118.728809 176.070157 
L 122.017148 174.349004 
L 125.305487 172.627851 
L 128.593826 171.053898 
L 131.882164 169.287953 
L 135.170503 167.473485 
L 138.458842 165.791489 
L 141.747181 164.031035 
L 145.035519 162.273703 
L 148.323858 160.462595 
L 151.612197 158.783088 
L 154.900536 157.10972 
L 158.188874 155.442219 
L 161.477213 153.770135 
L 164.765552 152.224726 
L 168.053891 150.635511 
L 171.342229 149.210234 
L 174.630568 147.664052 
L 177.918907 146.045185 
L 181.207246 144.41828 
L 184.495584 142.791376 
L 187.783923 141.169378 
L 191.072262 139.543423 
L 194.360601 137.877676 
L 197.648939 136.268945 
L 200.937278 134.695762 
L 204.225617 133.354162 
L 207.513956 131.954908 
L 210.802294 130.571415 
L 214.090633 128.935289 
L 217.378972 127.4836 
L 220.667311 125.782144 
L 223.955649 124.226683 
L 227.243988 122.820745 
L 230.532327 121.357201 
L 233.820666 119.87694 
L 237.109004 118.251969 
L 240.397343 116.890385 
L 243.685682 115.502894 
L 246.974021 114.095066 
L 250.262359 112.908844 
L 253.550698 111.541595 
L 256.839037 110.139548 
L 260.127376 108.667647 
L 263.415714 107.373665 
L 266.704053 106.178634 
L 269.992392 104.938917 
L 273.280731 103.648969 
L 276.569069 102.510459 
L 279.857408 101.232564 
L 283.145747 99.955624 
L 286.434086 98.718015 
L 289.722424 97.402496 
L 293.010763 96.150568 
L 296.299102 94.909348 
L 299.587441 93.67777 
L 302.875779 92.430215 
L 306.164118 91.380887 
L 309.452457 90.352463 
L 312.740796 89.318509 
L 316.029134 88.281187 
L 319.317473 87.208948 
L 322.605812 85.900072 
L 325.894151 84.773371 
L 329.182489 83.737797 
L 332.470828 82.490786 
L 335.759167 81.345936 
L 339.047506 80.311976 
L 342.335844 79.273503 
L 345.624183 78.051412 
L 348.912522 76.820105 
L 352.200861 75.670655 
L 355.489199 74.59704 
L 358.777538 73.495555 
L 358.777538 40.573892 
L 358.777538 40.573892 
L 355.489199 42.38304 
L 352.200861 44.192189 
L 348.912522 46.001337 
L 345.624183 47.810485 
L 342.335844 49.619633 
L 339.047506 51.428781 
L 335.759167 53.23793 
L 332.470828 55.047078 
L 329.182489 56.856226 
L 325.894151 58.557905 
L 322.605812 60.190955 
L 319.317473 61.824006 
L 316.029134 63.457056 
L 312.740796 65.090107 
L 309.452457 66.723158 
L 306.164118 68.356435 
L 302.875779 70.055206 
L 299.587441 71.87672 
L 296.299102 73.700142 
L 293.010763 75.524546 
L 289.722424 77.34895 
L 286.434086 79.173355 
L 283.145747 80.997759 
L 279.857408 82.772267 
L 276.569069 84.336791 
L 273.280731 85.948261 
L 269.992392 87.608197 
L 266.704053 89.379459 
L 263.415714 90.96477 
L 260.127376 92.708821 
L 256.839037 94.431829 
L 253.550698 96.001226 
L 250.262359 97.558986 
L 246.974021 99.485578 
L 243.685682 101.318657 
L 240.397343 103.088312 
L 237.109004 104.646064 
L 233.820666 106.275564 
L 230.532327 107.970489 
L 227.243988 109.469534 
L 223.955649 110.995419 
L 220.667311 112.507222 
L 217.378972 113.955845 
L 214.090633 115.503352 
L 210.802294 117.048435 
L 207.513956 118.381527 
L 204.225617 119.718811 
L 200.937278 121.053574 
L 197.648939 122.415517 
L 194.360601 123.641831 
L 191.072262 124.866342 
L 187.783923 126.056987 
L 184.495584 127.225365 
L 181.207246 128.527693 
L 177.918907 129.631568 
L 174.630568 130.72101 
L 171.342229 131.711521 
L 168.053891 132.773087 
L 164.765552 133.835219 
L 161.477213 134.899958 
L 158.188874 136.037075 
L 154.900536 137.117281 
L 151.612197 138.257209 
L 148.323858 139.298639 
L 145.035519 140.34007 
L 141.747181 141.381501 
L 138.458842 142.422932 
L 135.170503 143.4725 
L 131.882164 144.531146 
L 128.593826 145.636163 
L 125.305487 146.64975 
L 122.017148 147.707758 
L 118.728809 148.766952 
L 115.440471 149.831286 
L 112.152132 150.981583 
L 108.863793 152.132675 
L 105.575454 153.213644 
L 102.287116 154.279911 
L 98.998777 155.347449 
L 95.710438 156.477954 
L 92.422099 157.555697 
L 89.133761 158.575554 
L 85.845422 159.657281 
L 82.557083 160.753798 
L 79.268744 161.850315 
L 75.980406 162.946832 
L 72.692067 164.043349 
L 69.403728 165.088625 
L 66.115389 166.119327 
L 62.827051 167.150028 
L 59.538712 168.18073 
L 56.250373 169.211431 
L 52.962034 170.264223 
L 49.673696 171.336034 
L 46.385357 172.395517 
L 43.097018 173.454996 
L 39.808679 174.491609 
L 36.520341 175.528221 
L 33.232002 176.564834 
z
" style="fill:#e24a33;fill-opacity:0.15;"/>
   </g>
   <g id="PathCollection_2">
    <defs>
     <path d="M 0 3 
C 0.795609 3 1.55874 2.683901 2.12132 2.12132 
C 2.683901 1.55874 3 0.795609 3 0 
C 3 -0.795609 2.683901 -1.55874 2.12132 -2.12132 
C 1.55874 -2.683901 0.795609 -3 0 -3 
C -0.795609 -3 -1.55874 -2.683901 -2.12132 -2.12132 
C -2.683901 -1.55874 -3 -0.795609 -3 0 
C -3 0.795609 -2.683901 1.55874 -2.12132 2.12132 
C -1.55874 2.683901 -0.795609 3 0 3 
z
" id="mc14f545fa0" style="stroke:#348abd;stroke-opacity:0.8;"/>
    </defs>
    <g clip-path="url(#p9fb8568027)">
     <use style="fill:#348abd;fill-opacity:0.8;stroke:#348abd;stroke-opacity:0.8;" x="33.232002" xlink:href="#mc14f545fa0" y="295.3566"/>
     <use style="fill:#348abd;fill-opacity:0.8;stroke:#348abd;stroke-opacity:0.8;" x="41.79899" xlink:href="#mc14f545fa0" y="257.905152"/>
     <use style="fill:#348abd;fill-opacity:0.8;stroke:#348abd;stroke-opacity:0.8;" x="50.365977" xlink:href="#mc14f545fa0" y="175.9322"/>
     <use style="fill:#348abd;fill-opacity:0.8;stroke:#348abd;stroke-opacity:0.8;" x="58.932965" xlink:href="#mc14f545fa0" y="168.285474"/>
     <use style="fill:#348abd;fill-opacity:0.8;stroke:#348abd;stroke-opacity:0.8;" x="67.499953" xlink:href="#mc14f545fa0" y="165.119097"/>
     <use style="fill:#348abd;fill-opacity:0.8;stroke:#348abd;stroke-opacity:0.8;" x="76.066941" xlink:href="#mc14f545fa0" y="153.023263"/>
     <use style="fill:#348abd;fill-opacity:0.8;stroke:#348abd;stroke-opacity:0.8;" x="84.633929" xlink:href="#mc14f545fa0" y="134.742135"/>
     <use style="fill:#348abd;fill-opacity:0.8;stroke:#348abd;stroke-opacity:0.8;" x="93.200916" xlink:href="#mc14f545fa0" y="141.964898"/>
     <use style="fill:#348abd;fill-opacity:0.8;stroke:#348abd;stroke-opacity:0.8;" x="101.767904" xlink:href="#mc14f545fa0" y="118.867002"/>
     <use style="fill:#348abd;fill-opacity:0.8;stroke:#348abd;stroke-opacity:0.8;" x="110.334892" xlink:href="#mc14f545fa0" y="115.611682"/>
     <use style="fill:#348abd;fill-opacity:0.8;stroke:#348abd;stroke-opacity:0.8;" x="118.90188" xlink:href="#mc14f545fa0" y="113.210816"/>
     <use style="fill:#348abd;fill-opacity:0.8;stroke:#348abd;stroke-opacity:0.8;" x="127.468868" xlink:href="#mc14f545fa0" y="134.945316"/>
     <use style="fill:#348abd;fill-opacity:0.8;stroke:#348abd;stroke-opacity:0.8;" x="136.035855" xlink:href="#mc14f545fa0" y="108.455247"/>
     <use style="fill:#348abd;fill-opacity:0.8;stroke:#348abd;stroke-opacity:0.8;" x="144.602843" xlink:href="#mc14f545fa0" y="104.900344"/>
     <use style="fill:#348abd;fill-opacity:0.8;stroke:#348abd;stroke-opacity:0.8;" x="153.169831" xlink:href="#mc14f545fa0" y="100.748255"/>
     <use style="fill:#348abd;fill-opacity:0.8;stroke:#348abd;stroke-opacity:0.8;" x="161.736819" xlink:href="#mc14f545fa0" y="115.807285"/>
     <use style="fill:#348abd;fill-opacity:0.8;stroke:#348abd;stroke-opacity:0.8;" x="170.303807" xlink:href="#mc14f545fa0" y="111.768269"/>
     <use style="fill:#348abd;fill-opacity:0.8;stroke:#348abd;stroke-opacity:0.8;" x="178.870794" xlink:href="#mc14f545fa0" y="97.761395"/>
     <use style="fill:#348abd;fill-opacity:0.8;stroke:#348abd;stroke-opacity:0.8;" x="187.437782" xlink:href="#mc14f545fa0" y="93.5959"/>
     <use style="fill:#348abd;fill-opacity:0.8;stroke:#348abd;stroke-opacity:0.8;" x="196.00477" xlink:href="#mc14f545fa0" y="100.748255"/>
     <use style="fill:#348abd;fill-opacity:0.8;stroke:#348abd;stroke-opacity:0.8;" x="204.571758" xlink:href="#mc14f545fa0" y="94.242978"/>
     <use style="fill:#348abd;fill-opacity:0.8;stroke:#348abd;stroke-opacity:0.8;" x="213.138746" xlink:href="#mc14f545fa0" y="95.272286"/>
     <use style="fill:#348abd;fill-opacity:0.8;stroke:#348abd;stroke-opacity:0.8;" x="221.705733" xlink:href="#mc14f545fa0" y="85.378683"/>
     <use style="fill:#348abd;fill-opacity:0.8;stroke:#348abd;stroke-opacity:0.8;" x="230.272721" xlink:href="#mc14f545fa0" y="82.56015"/>
     <use style="fill:#348abd;fill-opacity:0.8;stroke:#348abd;stroke-opacity:0.8;" x="238.839709" xlink:href="#mc14f545fa0" y="73.107529"/>
     <use style="fill:#348abd;fill-opacity:0.8;stroke:#348abd;stroke-opacity:0.8;" x="247.406697" xlink:href="#mc14f545fa0" y="66.21594"/>
     <use style="fill:#348abd;fill-opacity:0.8;stroke:#348abd;stroke-opacity:0.8;" x="255.973685" xlink:href="#mc14f545fa0" y="61.272928"/>
     <use style="fill:#348abd;fill-opacity:0.8;stroke:#348abd;stroke-opacity:0.8;" x="264.540672" xlink:href="#mc14f545fa0" y="120.044587"/>
     <use style="fill:#348abd;fill-opacity:0.8;stroke:#348abd;stroke-opacity:0.8;" x="273.10766" xlink:href="#mc14f545fa0" y="78.559834"/>
     <use style="fill:#348abd;fill-opacity:0.8;stroke:#348abd;stroke-opacity:0.8;" x="281.674648" xlink:href="#mc14f545fa0" y="67.110029"/>
     <use style="fill:#348abd;fill-opacity:0.8;stroke:#348abd;stroke-opacity:0.8;" x="290.241636" xlink:href="#mc14f545fa0" y="87.014853"/>
     <use style="fill:#348abd;fill-opacity:0.8;stroke:#348abd;stroke-opacity:0.8;" x="298.808624" xlink:href="#mc14f545fa0" y="56.157975"/>
     <use style="fill:#348abd;fill-opacity:0.8;stroke:#348abd;stroke-opacity:0.8;" x="307.375611" xlink:href="#mc14f545fa0" y="113.711832"/>
     <use style="fill:#348abd;fill-opacity:0.8;stroke:#348abd;stroke-opacity:0.8;" x="315.942599" xlink:href="#mc14f545fa0" y="63.980837"/>
     <use style="fill:#348abd;fill-opacity:0.8;stroke:#348abd;stroke-opacity:0.8;" x="324.509587" xlink:href="#mc14f545fa0" y="56.940273"/>
     <use style="fill:#348abd;fill-opacity:0.8;stroke:#348abd;stroke-opacity:0.8;" x="333.076575" xlink:href="#mc14f545fa0" y="65.93664"/>
     <use style="fill:#348abd;fill-opacity:0.8;stroke:#348abd;stroke-opacity:0.8;" x="341.643562" xlink:href="#mc14f545fa0" y="70.499869"/>
     <use style="fill:#348abd;fill-opacity:0.8;stroke:#348abd;stroke-opacity:0.8;" x="350.21055" xlink:href="#mc14f545fa0" y="75.715189"/>
     <use style="fill:#348abd;fill-opacity:0.8;stroke:#348abd;stroke-opacity:0.8;" x="358.777538" xlink:href="#mc14f545fa0" y="36.600877"/>
    </g>
   </g>
   <g id="PolyCollection_2">
    <path clip-path="url(#p9fb8568027)" d="M 33.232002 147.020671 
L 33.232002 206.114295 
L 36.520341 204.276551 
L 39.808679 202.354746 
L 43.097018 200.432941 
L 46.385357 198.591073 
L 49.673696 196.815142 
L 52.962034 195.060876 
L 56.250373 193.30661 
L 59.538712 191.552344 
L 62.827051 189.799787 
L 66.115389 188.049273 
L 69.403728 186.274876 
L 72.692067 184.395995 
L 75.980406 182.517114 
L 79.268744 180.644053 
L 82.557083 178.823652 
L 85.845422 177.002413 
L 89.133761 175.179999 
L 92.422099 173.415412 
L 95.710438 171.65663 
L 98.998777 169.823106 
L 102.287116 167.978404 
L 105.575454 166.220967 
L 108.863793 164.46353 
L 112.152132 162.706093 
L 115.440471 160.948656 
L 118.728809 159.19122 
L 122.017148 157.433783 
L 125.305487 155.676346 
L 128.593826 153.918909 
L 131.882164 152.125497 
L 135.170503 150.179581 
L 138.458842 148.382902 
L 141.747181 146.713953 
L 145.035519 144.992166 
L 148.323858 143.18963 
L 151.612197 141.580875 
L 154.900536 139.856738 
L 158.188874 138.010647 
L 161.477213 136.305238 
L 164.765552 134.636899 
L 168.053891 132.829668 
L 171.342229 131.072231 
L 174.630568 129.314794 
L 177.918907 127.557357 
L 181.207246 125.672767 
L 184.495584 124.042061 
L 187.783923 122.285047 
L 191.072262 120.52761 
L 194.360601 118.848915 
L 197.648939 117.293615 
L 200.937278 115.798256 
L 204.225617 114.375748 
L 207.513956 112.870647 
L 210.802294 111.416533 
L 214.090633 109.667609 
L 217.378972 108.138768 
L 220.667311 106.48631 
L 223.955649 105.077661 
L 227.243988 103.487965 
L 230.532327 102.116501 
L 233.820666 100.804773 
L 237.109004 99.279472 
L 240.397343 97.684199 
L 243.685682 96.1186 
L 246.974021 94.835978 
L 250.262359 93.559878 
L 253.550698 92.254255 
L 256.839037 90.921336 
L 260.127376 89.643209 
L 263.415714 88.419653 
L 266.704053 87.249165 
L 269.992392 85.914412 
L 273.280731 84.596048 
L 276.569069 83.381058 
L 279.857408 82.252258 
L 283.145747 81.18179 
L 286.434086 80.168239 
L 289.722424 79.198255 
L 293.010763 78.242332 
L 296.299102 77.214713 
L 299.587441 76.145763 
L 302.875779 74.840206 
L 306.164118 73.554655 
L 309.452457 72.496919 
L 312.740796 71.577483 
L 316.029134 70.687644 
L 319.317473 69.797805 
L 322.605812 68.912279 
L 325.894151 68.028359 
L 329.182489 67.144072 
L 332.470828 66.243877 
L 335.759167 65.263898 
L 339.047506 64.206351 
L 342.335844 63.203952 
L 345.624183 62.201554 
L 348.912522 61.195782 
L 352.200861 60.15531 
L 355.489199 59.190327 
L 358.777538 58.160154 
L 358.777538 21.036364 
L 358.777538 21.036364 
L 355.489199 22.823709 
L 352.200861 24.464022 
L 348.912522 26.293468 
L 345.624183 28.185744 
L 342.335844 30.056503 
L 339.047506 31.935939 
L 335.759167 33.809415 
L 332.470828 35.427919 
L 329.182489 37.184563 
L 325.894151 39.018144 
L 322.605812 40.728388 
L 319.317473 42.464622 
L 316.029134 44.143844 
L 312.740796 45.870937 
L 309.452457 47.693033 
L 306.164118 49.529691 
L 302.875779 51.335664 
L 299.587441 53.143363 
L 296.299102 54.927478 
L 293.010763 56.73946 
L 289.722424 58.528521 
L 286.434086 60.307598 
L 283.145747 62.065221 
L 279.857408 63.791662 
L 276.569069 65.450535 
L 273.280731 67.076568 
L 269.992392 68.670707 
L 266.704053 70.349282 
L 263.415714 72.225839 
L 260.127376 73.732614 
L 256.839037 75.438889 
L 253.550698 76.899277 
L 250.262359 78.43065 
L 246.974021 79.963056 
L 243.685682 81.305438 
L 240.397343 82.769468 
L 237.109004 84.192221 
L 233.820666 85.734513 
L 230.532327 87.0139 
L 227.243988 88.328585 
L 223.955649 89.421649 
L 220.667311 90.530319 
L 217.378972 91.816251 
L 214.090633 92.856991 
L 210.802294 93.999978 
L 207.513956 95.096782 
L 204.225617 96.370403 
L 200.937278 97.42695 
L 197.648939 98.584307 
L 194.360601 99.774464 
L 191.072262 100.865174 
L 187.783923 101.982634 
L 184.495584 103.050273 
L 181.207246 104.120655 
L 177.918907 105.12369 
L 174.630568 106.184722 
L 171.342229 107.160019 
L 168.053891 108.107609 
L 164.765552 109.059203 
L 161.477213 110.070712 
L 158.188874 111.118702 
L 154.900536 112.14431 
L 151.612197 113.072449 
L 148.323858 114.127754 
L 145.035519 115.197709 
L 141.747181 116.219098 
L 138.458842 117.166573 
L 135.170503 118.192462 
L 131.882164 119.169041 
L 128.593826 120.11406 
L 125.305487 121.251843 
L 122.017148 122.077059 
L 118.728809 122.945006 
L 115.440471 123.858845 
L 112.152132 124.870729 
L 108.863793 125.916325 
L 105.575454 126.911724 
L 102.287116 127.792267 
L 98.998777 128.672809 
L 95.710438 129.553352 
L 92.422099 130.433895 
L 89.133761 131.338814 
L 85.845422 132.28389 
L 82.557083 133.28755 
L 79.268744 134.305816 
L 75.980406 135.24145 
L 72.692067 136.127386 
L 69.403728 137.013321 
L 66.115389 137.951807 
L 62.827051 138.895117 
L 59.538712 139.838426 
L 56.250373 140.781736 
L 52.962034 141.725045 
L 49.673696 142.633033 
L 46.385357 143.472205 
L 43.097018 144.312461 
L 39.808679 145.152717 
L 36.520341 146.070758 
L 33.232002 147.020671 
z
" style="fill:#348abd;fill-opacity:0.15;"/>
   </g>
   <g id="line2d_35">
    <path clip-path="url(#p9fb8568027)" d="M 33.232002 199.922333 
L 36.520341 198.505941 
L 39.808679 197.089548 
L 43.097018 195.673156 
L 46.385357 194.256764 
L 49.673696 192.840371 
L 52.962034 191.423979 
L 56.250373 190.007587 
L 59.538712 188.591194 
L 62.827051 187.174802 
L 66.115389 185.75841 
L 69.403728 184.342017 
L 72.692067 182.925625 
L 75.980406 181.509233 
L 79.268744 180.09284 
L 82.557083 178.676448 
L 85.845422 177.260056 
L 89.133761 175.843664 
L 92.422099 174.427271 
L 95.710438 173.010879 
L 98.998777 171.594487 
L 102.287116 170.178094 
L 105.575454 168.761702 
L 108.863793 167.34531 
L 112.152132 165.928917 
L 115.440471 164.512525 
L 118.728809 163.096133 
L 122.017148 161.67974 
L 125.305487 160.263348 
L 128.593826 158.846956 
L 131.882164 157.430563 
L 135.170503 156.014171 
L 138.458842 154.597779 
L 141.747181 153.181386 
L 145.035519 151.764994 
L 148.323858 150.348602 
L 151.612197 148.93221 
L 154.900536 147.515817 
L 158.188874 146.099425 
L 161.477213 144.683033 
L 164.765552 143.26664 
L 168.053891 141.850248 
L 171.342229 140.433856 
L 174.630568 139.017463 
L 177.918907 137.601071 
L 181.207246 136.184679 
L 184.495584 134.768286 
L 187.783923 133.351894 
L 191.072262 131.935502 
L 194.360601 130.519109 
L 197.648939 129.102717 
L 200.937278 127.686325 
L 204.225617 126.269933 
L 207.513956 124.85354 
L 210.802294 123.437148 
L 214.090633 122.020756 
L 217.378972 120.604363 
L 220.667311 119.187971 
L 223.955649 117.771579 
L 227.243988 116.355186 
L 230.532327 114.938794 
L 233.820666 113.522402 
L 237.109004 112.106009 
L 240.397343 110.689617 
L 243.685682 109.273225 
L 246.974021 107.856832 
L 250.262359 106.44044 
L 253.550698 105.024048 
L 256.839037 103.607656 
L 260.127376 102.191263 
L 263.415714 100.774871 
L 266.704053 99.358479 
L 269.992392 97.942086 
L 273.280731 96.525694 
L 276.569069 95.109302 
L 279.857408 93.692909 
L 283.145747 92.276517 
L 286.434086 90.860125 
L 289.722424 89.443732 
L 293.010763 88.02734 
L 296.299102 86.610948 
L 299.587441 85.194555 
L 302.875779 83.778163 
L 306.164118 82.361771 
L 309.452457 80.945378 
L 312.740796 79.528986 
L 316.029134 78.112594 
L 319.317473 76.696202 
L 322.605812 75.279809 
L 325.894151 73.863417 
L 329.182489 72.447025 
L 332.470828 71.030632 
L 335.759167 69.61424 
L 339.047506 68.197848 
L 342.335844 66.781455 
L 345.624183 65.365063 
L 348.912522 63.948671 
L 352.200861 62.532278 
L 355.489199 61.115886 
L 358.777538 59.699494 
" style="fill:none;stroke:#e24a33;stroke-linecap:square;stroke-width:2.25;"/>
   </g>
   <g id="line2d_36">
    <path clip-path="url(#p9fb8568027)" d="M 33.232002 178.36694 
L 36.520341 176.969769 
L 39.808679 175.572598 
L 43.097018 174.175427 
L 46.385357 172.778256 
L 49.673696 171.381085 
L 52.962034 169.983913 
L 56.250373 168.586742 
L 59.538712 167.189571 
L 62.827051 165.7924 
L 66.115389 164.395229 
L 69.403728 162.998058 
L 72.692067 161.600887 
L 75.980406 160.203716 
L 79.268744 158.806545 
L 82.557083 157.409374 
L 85.845422 156.012203 
L 89.133761 154.615031 
L 92.422099 153.21786 
L 95.710438 151.820689 
L 98.998777 150.423518 
L 102.287116 149.026347 
L 105.575454 147.629176 
L 108.863793 146.232005 
L 112.152132 144.834834 
L 115.440471 143.437663 
L 118.728809 142.040492 
L 122.017148 140.643321 
L 125.305487 139.246149 
L 128.593826 137.848978 
L 131.882164 136.451807 
L 135.170503 135.054636 
L 138.458842 133.657465 
L 141.747181 132.260294 
L 145.035519 130.863123 
L 148.323858 129.465952 
L 151.612197 128.068781 
L 154.900536 126.67161 
L 158.188874 125.274439 
L 161.477213 123.877267 
L 164.765552 122.480096 
L 168.053891 121.082925 
L 171.342229 119.685754 
L 174.630568 118.288583 
L 177.918907 116.891412 
L 181.207246 115.494241 
L 184.495584 114.09707 
L 187.783923 112.699899 
L 191.072262 111.302728 
L 194.360601 109.905557 
L 197.648939 108.508385 
L 200.937278 107.111214 
L 204.225617 105.714043 
L 207.513956 104.316872 
L 210.802294 102.919701 
L 214.090633 101.52253 
L 217.378972 100.125359 
L 220.667311 98.728188 
L 223.955649 97.331017 
L 227.243988 95.933846 
L 230.532327 94.536675 
L 233.820666 93.139504 
L 237.109004 91.742332 
L 240.397343 90.345161 
L 243.685682 88.94799 
L 246.974021 87.550819 
L 250.262359 86.153648 
L 253.550698 84.756477 
L 256.839037 83.359306 
L 260.127376 81.962135 
L 263.415714 80.564964 
L 266.704053 79.167793 
L 269.992392 77.770622 
L 273.280731 76.37345 
L 276.569069 74.976279 
L 279.857408 73.579108 
L 283.145747 72.181937 
L 286.434086 70.784766 
L 289.722424 69.387595 
L 293.010763 67.990424 
L 296.299102 66.593253 
L 299.587441 65.196082 
L 302.875779 63.798911 
L 306.164118 62.40174 
L 309.452457 61.004568 
L 312.740796 59.607397 
L 316.029134 58.210226 
L 319.317473 56.813055 
L 322.605812 55.415884 
L 325.894151 54.018713 
L 329.182489 52.621542 
L 332.470828 51.224371 
L 335.759167 49.8272 
L 339.047506 48.430029 
L 342.335844 47.032858 
L 345.624183 45.635686 
L 348.912522 44.238515 
L 352.200861 42.841344 
L 355.489199 41.444173 
L 358.777538 40.047002 
" style="fill:none;stroke:#348abd;stroke-linecap:square;stroke-width:2.25;"/>
   </g>
   <g id="patch_3">
    <path d="M 52.079375 311.6 
L 52.079375 7.2 
" style="fill:none;stroke:#ffffff;stroke-linecap:square;stroke-linejoin:miter;"/>
   </g>
   <g id="patch_4">
    <path d="M 52.079375 311.6 
L 339.930165 311.6 
" style="fill:none;stroke:#ffffff;stroke-linecap:square;stroke-linejoin:miter;"/>
   </g>
  </g>
  <g id="legend_1">
   <g id="text_20">
    <!-- name -->
    <g transform="translate(360.856259 163.627187)scale(0.1 -0.1)">
     <defs>
      <path d="M 54.890625 33.015625 
L 54.890625 0 
L 45.90625 0 
L 45.90625 32.71875 
Q 45.90625 40.484375 42.875 44.328125 
Q 39.84375 48.1875 33.796875 48.1875 
Q 26.515625 48.1875 22.3125 43.546875 
Q 18.109375 38.921875 18.109375 30.90625 
L 18.109375 0 
L 9.078125 0 
L 9.078125 54.6875 
L 18.109375 54.6875 
L 18.109375 46.1875 
Q 21.34375 51.125 25.703125 53.5625 
Q 30.078125 56 35.796875 56 
Q 45.21875 56 50.046875 50.171875 
Q 54.890625 44.34375 54.890625 33.015625 
z
" id="DejaVuSans-110"/>
      <path d="M 52 44.1875 
Q 55.375 50.25 60.0625 53.125 
Q 64.75 56 71.09375 56 
Q 79.640625 56 84.28125 50.015625 
Q 88.921875 44.046875 88.921875 33.015625 
L 88.921875 0 
L 79.890625 0 
L 79.890625 32.71875 
Q 79.890625 40.578125 77.09375 44.375 
Q 74.3125 48.1875 68.609375 48.1875 
Q 61.625 48.1875 57.5625 43.546875 
Q 53.515625 38.921875 53.515625 30.90625 
L 53.515625 0 
L 44.484375 0 
L 44.484375 32.71875 
Q 44.484375 40.625 41.703125 44.40625 
Q 38.921875 48.1875 33.109375 48.1875 
Q 26.21875 48.1875 22.15625 43.53125 
Q 18.109375 38.875 18.109375 30.90625 
L 18.109375 0 
L 9.078125 0 
L 9.078125 54.6875 
L 18.109375 54.6875 
L 18.109375 46.1875 
Q 21.1875 51.21875 25.484375 53.609375 
Q 29.78125 56 35.6875 56 
Q 41.65625 56 45.828125 52.96875 
Q 50 49.953125 52 44.1875 
z
" id="DejaVuSans-109"/>
      <path d="M 56.203125 29.59375 
L 56.203125 25.203125 
L 14.890625 25.203125 
Q 15.484375 15.921875 20.484375 11.0625 
Q 25.484375 6.203125 34.421875 6.203125 
Q 39.59375 6.203125 44.453125 7.46875 
Q 49.3125 8.734375 54.109375 11.28125 
L 54.109375 2.78125 
Q 49.265625 0.734375 44.1875 -0.34375 
Q 39.109375 -1.421875 33.890625 -1.421875 
Q 20.796875 -1.421875 13.15625 6.1875 
Q 5.515625 13.8125 5.515625 26.8125 
Q 5.515625 40.234375 12.765625 48.109375 
Q 20.015625 56 32.328125 56 
Q 43.359375 56 49.78125 48.890625 
Q 56.203125 41.796875 56.203125 29.59375 
z
M 47.21875 32.234375 
Q 47.125 39.59375 43.09375 43.984375 
Q 39.0625 48.390625 32.421875 48.390625 
Q 24.90625 48.390625 20.390625 44.140625 
Q 15.875 39.890625 15.1875 32.171875 
z
" id="DejaVuSans-101"/>
     </defs>
     <use xlink:href="#DejaVuSans-110"/>
     <use x="63.378906" xlink:href="#DejaVuSans-97"/>
     <use x="124.658203" xlink:href="#DejaVuSans-109"/>
     <use x="222.070312" xlink:href="#DejaVuSans-101"/>
    </g>
   </g>
   <g id="PathCollection_3">
    <g>
     <use style="fill:#e24a33;fill-opacity:0.8;stroke:#e24a33;stroke-opacity:0.8;" x="355.292977" xlink:href="#mddc91fd918" y="175.680312"/>
    </g>
   </g>
   <g id="text_21">
    <!-- SVM -->
    <g transform="translate(373.292977 178.305312)scale(0.1 -0.1)">
     <defs>
      <path d="M 53.515625 70.515625 
L 53.515625 60.890625 
Q 47.90625 63.578125 42.921875 64.890625 
Q 37.9375 66.21875 33.296875 66.21875 
Q 25.25 66.21875 20.875 63.09375 
Q 16.5 59.96875 16.5 54.203125 
Q 16.5 49.359375 19.40625 46.890625 
Q 22.3125 44.4375 30.421875 42.921875 
L 36.375 41.703125 
Q 47.40625 39.59375 52.65625 34.296875 
Q 57.90625 29 57.90625 20.125 
Q 57.90625 9.515625 50.796875 4.046875 
Q 43.703125 -1.421875 29.984375 -1.421875 
Q 24.8125 -1.421875 18.96875 -0.25 
Q 13.140625 0.921875 6.890625 3.21875 
L 6.890625 13.375 
Q 12.890625 10.015625 18.65625 8.296875 
Q 24.421875 6.59375 29.984375 6.59375 
Q 38.421875 6.59375 43.015625 9.90625 
Q 47.609375 13.234375 47.609375 19.390625 
Q 47.609375 24.75 44.3125 27.78125 
Q 41.015625 30.8125 33.5 32.328125 
L 27.484375 33.5 
Q 16.453125 35.6875 11.515625 40.375 
Q 6.59375 45.0625 6.59375 53.421875 
Q 6.59375 63.09375 13.40625 68.65625 
Q 20.21875 74.21875 32.171875 74.21875 
Q 37.3125 74.21875 42.625 73.28125 
Q 47.953125 72.359375 53.515625 70.515625 
z
" id="DejaVuSans-83"/>
      <path d="M 28.609375 0 
L 0.78125 72.90625 
L 11.078125 72.90625 
L 34.1875 11.53125 
L 57.328125 72.90625 
L 67.578125 72.90625 
L 39.796875 0 
z
" id="DejaVuSans-86"/>
      <path d="M 9.8125 72.90625 
L 24.515625 72.90625 
L 43.109375 23.296875 
L 61.8125 72.90625 
L 76.515625 72.90625 
L 76.515625 0 
L 66.890625 0 
L 66.890625 64.015625 
L 48.09375 14.015625 
L 38.1875 14.015625 
L 19.390625 64.015625 
L 19.390625 0 
L 9.8125 0 
z
" id="DejaVuSans-77"/>
     </defs>
     <use xlink:href="#DejaVuSans-83"/>
     <use x="63.476562" xlink:href="#DejaVuSans-86"/>
     <use x="131.884766" xlink:href="#DejaVuSans-77"/>
    </g>
   </g>
   <g id="PathCollection_4">
    <g>
     <use style="fill:#348abd;fill-opacity:0.8;stroke:#348abd;stroke-opacity:0.8;" x="355.292977" xlink:href="#mc14f545fa0" y="190.358437"/>
    </g>
   </g>
   <g id="text_22">
    <!-- CNN 2 -->
    <g transform="translate(373.292977 192.983437)scale(0.1 -0.1)">
     <defs>
      <path d="M 64.40625 67.28125 
L 64.40625 56.890625 
Q 59.421875 61.53125 53.78125 63.8125 
Q 48.140625 66.109375 41.796875 66.109375 
Q 29.296875 66.109375 22.65625 58.46875 
Q 16.015625 50.828125 16.015625 36.375 
Q 16.015625 21.96875 22.65625 14.328125 
Q 29.296875 6.6875 41.796875 6.6875 
Q 48.140625 6.6875 53.78125 8.984375 
Q 59.421875 11.28125 64.40625 15.921875 
L 64.40625 5.609375 
Q 59.234375 2.09375 53.4375 0.328125 
Q 47.65625 -1.421875 41.21875 -1.421875 
Q 24.65625 -1.421875 15.125 8.703125 
Q 5.609375 18.84375 5.609375 36.375 
Q 5.609375 53.953125 15.125 64.078125 
Q 24.65625 74.21875 41.21875 74.21875 
Q 47.75 74.21875 53.53125 72.484375 
Q 59.328125 70.75 64.40625 67.28125 
z
" id="DejaVuSans-67"/>
      <path d="M 9.8125 72.90625 
L 23.09375 72.90625 
L 55.421875 11.921875 
L 55.421875 72.90625 
L 64.984375 72.90625 
L 64.984375 0 
L 51.703125 0 
L 19.390625 60.984375 
L 19.390625 0 
L 9.8125 0 
z
" id="DejaVuSans-78"/>
      <path id="DejaVuSans-32"/>
     </defs>
     <use xlink:href="#DejaVuSans-67"/>
     <use x="69.824219" xlink:href="#DejaVuSans-78"/>
     <use x="144.628906" xlink:href="#DejaVuSans-78"/>
     <use x="219.433594" xlink:href="#DejaVuSans-32"/>
     <use x="251.220703" xlink:href="#DejaVuSans-50"/>
    </g>
   </g>
  </g>
 </g>
 <defs>
  <clipPath id="p9fb8568027">
   <rect height="304.4" width="287.85079" x="52.079375" y="7.2"/>
  </clipPath>
 </defs>
</svg>
