<?xml version="1.0" encoding="utf-8" standalone="no"?>
<!DOCTYPE svg PUBLIC "-//W3C//DTD SVG 1.1//EN"
  "http://www.w3.org/Graphics/SVG/1.1/DTD/svg11.dtd">
<!-- Created with matplotlib (https://matplotlib.org/) -->
<svg height="351.091875pt" version="1.1" viewBox="0 0 421.664983 351.091875" width="421.664983pt" xmlns="http://www.w3.org/2000/svg" xmlns:xlink="http://www.w3.org/1999/xlink">
 <metadata>
  <rdf:RDF xmlns:cc="http://creativecommons.org/ns#" xmlns:dc="http://purl.org/dc/elements/1.1/" xmlns:rdf="http://www.w3.org/1999/02/22-rdf-syntax-ns#">
   <cc:Work>
    <dc:type rdf:resource="http://purl.org/dc/dcmitype/StillImage"/>
    <dc:date>2020-09-05T21:11:44.885539</dc:date>
    <dc:format>image/svg+xml</dc:format>
    <dc:creator>
     <cc:Agent>
      <dc:title>Matplotlib v3.3.1, https://matplotlib.org/</dc:title>
     </cc:Agent>
    </dc:creator>
   </cc:Work>
  </rdf:RDF>
 </metadata>
 <defs>
  <style type="text/css">*{stroke-linecap:butt;stroke-linejoin:round;}</style>
 </defs>
 <g id="figure_1">
  <g id="patch_1">
   <path d="M 0 351.091875 
L 421.664983 351.091875 
L 421.664983 0 
L 0 0 
z
" style="fill:#ffffff;"/>
  </g>
  <g id="axes_1">
   <g id="patch_2">
    <path d="M 52.079375 311.6 
L 338.347483 311.6 
L 338.347483 7.2 
L 52.079375 7.2 
z
" style="fill:#e5e5e5;"/>
   </g>
   <g id="matplotlib.axis_1">
    <g id="xtick_1">
     <g id="line2d_1">
      <path clip-path="url(#p8d9f8258ee)" d="M 58.895282 311.6 
L 58.895282 7.2 
" style="fill:none;stroke:#ffffff;stroke-linecap:square;stroke-width:0.8;"/>
     </g>
     <g id="line2d_2">
      <defs>
       <path d="M 0 0 
L 0 3.5 
" id="m122c89b0cc" style="stroke:#555555;stroke-width:0.8;"/>
      </defs>
      <g>
       <use style="fill:#555555;stroke:#555555;stroke-width:0.8;" x="58.895282" xlink:href="#m122c89b0cc" y="311.6"/>
      </g>
     </g>
     <g id="text_1">
      <!-- 0.1 -->
      <g style="fill:#555555;" transform="translate(50.94372 326.198437)scale(0.1 -0.1)">
       <defs>
        <path d="M 31.78125 66.40625 
Q 24.171875 66.40625 20.328125 58.90625 
Q 16.5 51.421875 16.5 36.375 
Q 16.5 21.390625 20.328125 13.890625 
Q 24.171875 6.390625 31.78125 6.390625 
Q 39.453125 6.390625 43.28125 13.890625 
Q 47.125 21.390625 47.125 36.375 
Q 47.125 51.421875 43.28125 58.90625 
Q 39.453125 66.40625 31.78125 66.40625 
z
M 31.78125 74.21875 
Q 44.046875 74.21875 50.515625 64.515625 
Q 56.984375 54.828125 56.984375 36.375 
Q 56.984375 17.96875 50.515625 8.265625 
Q 44.046875 -1.421875 31.78125 -1.421875 
Q 19.53125 -1.421875 13.0625 8.265625 
Q 6.59375 17.96875 6.59375 36.375 
Q 6.59375 54.828125 13.0625 64.515625 
Q 19.53125 74.21875 31.78125 74.21875 
z
" id="DejaVuSans-48"/>
        <path d="M 10.6875 12.40625 
L 21 12.40625 
L 21 0 
L 10.6875 0 
z
" id="DejaVuSans-46"/>
        <path d="M 12.40625 8.296875 
L 28.515625 8.296875 
L 28.515625 63.921875 
L 10.984375 60.40625 
L 10.984375 69.390625 
L 28.421875 72.90625 
L 38.28125 72.90625 
L 38.28125 8.296875 
L 54.390625 8.296875 
L 54.390625 0 
L 12.40625 0 
z
" id="DejaVuSans-49"/>
       </defs>
       <use xlink:href="#DejaVuSans-48"/>
       <use x="63.623047" xlink:href="#DejaVuSans-46"/>
       <use x="95.410156" xlink:href="#DejaVuSans-49"/>
      </g>
     </g>
    </g>
    <g id="xtick_2">
     <g id="line2d_3">
      <path clip-path="url(#p8d9f8258ee)" d="M 92.974819 311.6 
L 92.974819 7.2 
" style="fill:none;stroke:#ffffff;stroke-linecap:square;stroke-width:0.8;"/>
     </g>
     <g id="line2d_4">
      <g>
       <use style="fill:#555555;stroke:#555555;stroke-width:0.8;" x="92.974819" xlink:href="#m122c89b0cc" y="311.6"/>
      </g>
     </g>
     <g id="text_2">
      <!-- 0.2 -->
      <g style="fill:#555555;" transform="translate(85.023256 326.198437)scale(0.1 -0.1)">
       <defs>
        <path d="M 19.1875 8.296875 
L 53.609375 8.296875 
L 53.609375 0 
L 7.328125 0 
L 7.328125 8.296875 
Q 12.9375 14.109375 22.625 23.890625 
Q 32.328125 33.6875 34.8125 36.53125 
Q 39.546875 41.84375 41.421875 45.53125 
Q 43.3125 49.21875 43.3125 52.78125 
Q 43.3125 58.59375 39.234375 62.25 
Q 35.15625 65.921875 28.609375 65.921875 
Q 23.96875 65.921875 18.8125 64.3125 
Q 13.671875 62.703125 7.8125 59.421875 
L 7.8125 69.390625 
Q 13.765625 71.78125 18.9375 73 
Q 24.125 74.21875 28.421875 74.21875 
Q 39.75 74.21875 46.484375 68.546875 
Q 53.21875 62.890625 53.21875 53.421875 
Q 53.21875 48.921875 51.53125 44.890625 
Q 49.859375 40.875 45.40625 35.40625 
Q 44.1875 33.984375 37.640625 27.21875 
Q 31.109375 20.453125 19.1875 8.296875 
z
" id="DejaVuSans-50"/>
       </defs>
       <use xlink:href="#DejaVuSans-48"/>
       <use x="63.623047" xlink:href="#DejaVuSans-46"/>
       <use x="95.410156" xlink:href="#DejaVuSans-50"/>
      </g>
     </g>
    </g>
    <g id="xtick_3">
     <g id="line2d_5">
      <path clip-path="url(#p8d9f8258ee)" d="M 127.054356 311.6 
L 127.054356 7.2 
" style="fill:none;stroke:#ffffff;stroke-linecap:square;stroke-width:0.8;"/>
     </g>
     <g id="line2d_6">
      <g>
       <use style="fill:#555555;stroke:#555555;stroke-width:0.8;" x="127.054356" xlink:href="#m122c89b0cc" y="311.6"/>
      </g>
     </g>
     <g id="text_3">
      <!-- 0.3 -->
      <g style="fill:#555555;" transform="translate(119.102793 326.198437)scale(0.1 -0.1)">
       <defs>
        <path d="M 40.578125 39.3125 
Q 47.65625 37.796875 51.625 33 
Q 55.609375 28.21875 55.609375 21.1875 
Q 55.609375 10.40625 48.1875 4.484375 
Q 40.765625 -1.421875 27.09375 -1.421875 
Q 22.515625 -1.421875 17.65625 -0.515625 
Q 12.796875 0.390625 7.625 2.203125 
L 7.625 11.71875 
Q 11.71875 9.328125 16.59375 8.109375 
Q 21.484375 6.890625 26.8125 6.890625 
Q 36.078125 6.890625 40.9375 10.546875 
Q 45.796875 14.203125 45.796875 21.1875 
Q 45.796875 27.640625 41.28125 31.265625 
Q 36.765625 34.90625 28.71875 34.90625 
L 20.21875 34.90625 
L 20.21875 43.015625 
L 29.109375 43.015625 
Q 36.375 43.015625 40.234375 45.921875 
Q 44.09375 48.828125 44.09375 54.296875 
Q 44.09375 59.90625 40.109375 62.90625 
Q 36.140625 65.921875 28.71875 65.921875 
Q 24.65625 65.921875 20.015625 65.03125 
Q 15.375 64.15625 9.8125 62.3125 
L 9.8125 71.09375 
Q 15.4375 72.65625 20.34375 73.4375 
Q 25.25 74.21875 29.59375 74.21875 
Q 40.828125 74.21875 47.359375 69.109375 
Q 53.90625 64.015625 53.90625 55.328125 
Q 53.90625 49.265625 50.4375 45.09375 
Q 46.96875 40.921875 40.578125 39.3125 
z
" id="DejaVuSans-51"/>
       </defs>
       <use xlink:href="#DejaVuSans-48"/>
       <use x="63.623047" xlink:href="#DejaVuSans-46"/>
       <use x="95.410156" xlink:href="#DejaVuSans-51"/>
      </g>
     </g>
    </g>
    <g id="xtick_4">
     <g id="line2d_7">
      <path clip-path="url(#p8d9f8258ee)" d="M 161.133892 311.6 
L 161.133892 7.2 
" style="fill:none;stroke:#ffffff;stroke-linecap:square;stroke-width:0.8;"/>
     </g>
     <g id="line2d_8">
      <g>
       <use style="fill:#555555;stroke:#555555;stroke-width:0.8;" x="161.133892" xlink:href="#m122c89b0cc" y="311.6"/>
      </g>
     </g>
     <g id="text_4">
      <!-- 0.4 -->
      <g style="fill:#555555;" transform="translate(153.18233 326.198437)scale(0.1 -0.1)">
       <defs>
        <path d="M 37.796875 64.3125 
L 12.890625 25.390625 
L 37.796875 25.390625 
z
M 35.203125 72.90625 
L 47.609375 72.90625 
L 47.609375 25.390625 
L 58.015625 25.390625 
L 58.015625 17.1875 
L 47.609375 17.1875 
L 47.609375 0 
L 37.796875 0 
L 37.796875 17.1875 
L 4.890625 17.1875 
L 4.890625 26.703125 
z
" id="DejaVuSans-52"/>
       </defs>
       <use xlink:href="#DejaVuSans-48"/>
       <use x="63.623047" xlink:href="#DejaVuSans-46"/>
       <use x="95.410156" xlink:href="#DejaVuSans-52"/>
      </g>
     </g>
    </g>
    <g id="xtick_5">
     <g id="line2d_9">
      <path clip-path="url(#p8d9f8258ee)" d="M 195.213429 311.6 
L 195.213429 7.2 
" style="fill:none;stroke:#ffffff;stroke-linecap:square;stroke-width:0.8;"/>
     </g>
     <g id="line2d_10">
      <g>
       <use style="fill:#555555;stroke:#555555;stroke-width:0.8;" x="195.213429" xlink:href="#m122c89b0cc" y="311.6"/>
      </g>
     </g>
     <g id="text_5">
      <!-- 0.5 -->
      <g style="fill:#555555;" transform="translate(187.261866 326.198437)scale(0.1 -0.1)">
       <defs>
        <path d="M 10.796875 72.90625 
L 49.515625 72.90625 
L 49.515625 64.59375 
L 19.828125 64.59375 
L 19.828125 46.734375 
Q 21.96875 47.46875 24.109375 47.828125 
Q 26.265625 48.1875 28.421875 48.1875 
Q 40.625 48.1875 47.75 41.5 
Q 54.890625 34.8125 54.890625 23.390625 
Q 54.890625 11.625 47.5625 5.09375 
Q 40.234375 -1.421875 26.90625 -1.421875 
Q 22.3125 -1.421875 17.546875 -0.640625 
Q 12.796875 0.140625 7.71875 1.703125 
L 7.71875 11.625 
Q 12.109375 9.234375 16.796875 8.0625 
Q 21.484375 6.890625 26.703125 6.890625 
Q 35.15625 6.890625 40.078125 11.328125 
Q 45.015625 15.765625 45.015625 23.390625 
Q 45.015625 31 40.078125 35.4375 
Q 35.15625 39.890625 26.703125 39.890625 
Q 22.75 39.890625 18.8125 39.015625 
Q 14.890625 38.140625 10.796875 36.28125 
z
" id="DejaVuSans-53"/>
       </defs>
       <use xlink:href="#DejaVuSans-48"/>
       <use x="63.623047" xlink:href="#DejaVuSans-46"/>
       <use x="95.410156" xlink:href="#DejaVuSans-53"/>
      </g>
     </g>
    </g>
    <g id="xtick_6">
     <g id="line2d_11">
      <path clip-path="url(#p8d9f8258ee)" d="M 229.292965 311.6 
L 229.292965 7.2 
" style="fill:none;stroke:#ffffff;stroke-linecap:square;stroke-width:0.8;"/>
     </g>
     <g id="line2d_12">
      <g>
       <use style="fill:#555555;stroke:#555555;stroke-width:0.8;" x="229.292965" xlink:href="#m122c89b0cc" y="311.6"/>
      </g>
     </g>
     <g id="text_6">
      <!-- 0.6 -->
      <g style="fill:#555555;" transform="translate(221.341403 326.198437)scale(0.1 -0.1)">
       <defs>
        <path d="M 33.015625 40.375 
Q 26.375 40.375 22.484375 35.828125 
Q 18.609375 31.296875 18.609375 23.390625 
Q 18.609375 15.53125 22.484375 10.953125 
Q 26.375 6.390625 33.015625 6.390625 
Q 39.65625 6.390625 43.53125 10.953125 
Q 47.40625 15.53125 47.40625 23.390625 
Q 47.40625 31.296875 43.53125 35.828125 
Q 39.65625 40.375 33.015625 40.375 
z
M 52.59375 71.296875 
L 52.59375 62.3125 
Q 48.875 64.0625 45.09375 64.984375 
Q 41.3125 65.921875 37.59375 65.921875 
Q 27.828125 65.921875 22.671875 59.328125 
Q 17.53125 52.734375 16.796875 39.40625 
Q 19.671875 43.65625 24.015625 45.921875 
Q 28.375 48.1875 33.59375 48.1875 
Q 44.578125 48.1875 50.953125 41.515625 
Q 57.328125 34.859375 57.328125 23.390625 
Q 57.328125 12.15625 50.6875 5.359375 
Q 44.046875 -1.421875 33.015625 -1.421875 
Q 20.359375 -1.421875 13.671875 8.265625 
Q 6.984375 17.96875 6.984375 36.375 
Q 6.984375 53.65625 15.1875 63.9375 
Q 23.390625 74.21875 37.203125 74.21875 
Q 40.921875 74.21875 44.703125 73.484375 
Q 48.484375 72.75 52.59375 71.296875 
z
" id="DejaVuSans-54"/>
       </defs>
       <use xlink:href="#DejaVuSans-48"/>
       <use x="63.623047" xlink:href="#DejaVuSans-46"/>
       <use x="95.410156" xlink:href="#DejaVuSans-54"/>
      </g>
     </g>
    </g>
    <g id="xtick_7">
     <g id="line2d_13">
      <path clip-path="url(#p8d9f8258ee)" d="M 263.372502 311.6 
L 263.372502 7.2 
" style="fill:none;stroke:#ffffff;stroke-linecap:square;stroke-width:0.8;"/>
     </g>
     <g id="line2d_14">
      <g>
       <use style="fill:#555555;stroke:#555555;stroke-width:0.8;" x="263.372502" xlink:href="#m122c89b0cc" y="311.6"/>
      </g>
     </g>
     <g id="text_7">
      <!-- 0.7 -->
      <g style="fill:#555555;" transform="translate(255.42094 326.198437)scale(0.1 -0.1)">
       <defs>
        <path d="M 8.203125 72.90625 
L 55.078125 72.90625 
L 55.078125 68.703125 
L 28.609375 0 
L 18.3125 0 
L 43.21875 64.59375 
L 8.203125 64.59375 
z
" id="DejaVuSans-55"/>
       </defs>
       <use xlink:href="#DejaVuSans-48"/>
       <use x="63.623047" xlink:href="#DejaVuSans-46"/>
       <use x="95.410156" xlink:href="#DejaVuSans-55"/>
      </g>
     </g>
    </g>
    <g id="xtick_8">
     <g id="line2d_15">
      <path clip-path="url(#p8d9f8258ee)" d="M 297.452039 311.6 
L 297.452039 7.2 
" style="fill:none;stroke:#ffffff;stroke-linecap:square;stroke-width:0.8;"/>
     </g>
     <g id="line2d_16">
      <g>
       <use style="fill:#555555;stroke:#555555;stroke-width:0.8;" x="297.452039" xlink:href="#m122c89b0cc" y="311.6"/>
      </g>
     </g>
     <g id="text_8">
      <!-- 0.8 -->
      <g style="fill:#555555;" transform="translate(289.500476 326.198437)scale(0.1 -0.1)">
       <defs>
        <path d="M 31.78125 34.625 
Q 24.75 34.625 20.71875 30.859375 
Q 16.703125 27.09375 16.703125 20.515625 
Q 16.703125 13.921875 20.71875 10.15625 
Q 24.75 6.390625 31.78125 6.390625 
Q 38.8125 6.390625 42.859375 10.171875 
Q 46.921875 13.96875 46.921875 20.515625 
Q 46.921875 27.09375 42.890625 30.859375 
Q 38.875 34.625 31.78125 34.625 
z
M 21.921875 38.8125 
Q 15.578125 40.375 12.03125 44.71875 
Q 8.5 49.078125 8.5 55.328125 
Q 8.5 64.0625 14.71875 69.140625 
Q 20.953125 74.21875 31.78125 74.21875 
Q 42.671875 74.21875 48.875 69.140625 
Q 55.078125 64.0625 55.078125 55.328125 
Q 55.078125 49.078125 51.53125 44.71875 
Q 48 40.375 41.703125 38.8125 
Q 48.828125 37.15625 52.796875 32.3125 
Q 56.78125 27.484375 56.78125 20.515625 
Q 56.78125 9.90625 50.3125 4.234375 
Q 43.84375 -1.421875 31.78125 -1.421875 
Q 19.734375 -1.421875 13.25 4.234375 
Q 6.78125 9.90625 6.78125 20.515625 
Q 6.78125 27.484375 10.78125 32.3125 
Q 14.796875 37.15625 21.921875 38.8125 
z
M 18.3125 54.390625 
Q 18.3125 48.734375 21.84375 45.5625 
Q 25.390625 42.390625 31.78125 42.390625 
Q 38.140625 42.390625 41.71875 45.5625 
Q 45.3125 48.734375 45.3125 54.390625 
Q 45.3125 60.0625 41.71875 63.234375 
Q 38.140625 66.40625 31.78125 66.40625 
Q 25.390625 66.40625 21.84375 63.234375 
Q 18.3125 60.0625 18.3125 54.390625 
z
" id="DejaVuSans-56"/>
       </defs>
       <use xlink:href="#DejaVuSans-48"/>
       <use x="63.623047" xlink:href="#DejaVuSans-46"/>
       <use x="95.410156" xlink:href="#DejaVuSans-56"/>
      </g>
     </g>
    </g>
    <g id="xtick_9">
     <g id="line2d_17">
      <path clip-path="url(#p8d9f8258ee)" d="M 331.531575 311.6 
L 331.531575 7.2 
" style="fill:none;stroke:#ffffff;stroke-linecap:square;stroke-width:0.8;"/>
     </g>
     <g id="line2d_18">
      <g>
       <use style="fill:#555555;stroke:#555555;stroke-width:0.8;" x="331.531575" xlink:href="#m122c89b0cc" y="311.6"/>
      </g>
     </g>
     <g id="text_9">
      <!-- 0.9 -->
      <g style="fill:#555555;" transform="translate(323.580013 326.198437)scale(0.1 -0.1)">
       <defs>
        <path d="M 10.984375 1.515625 
L 10.984375 10.5 
Q 14.703125 8.734375 18.5 7.8125 
Q 22.3125 6.890625 25.984375 6.890625 
Q 35.75 6.890625 40.890625 13.453125 
Q 46.046875 20.015625 46.78125 33.40625 
Q 43.953125 29.203125 39.59375 26.953125 
Q 35.25 24.703125 29.984375 24.703125 
Q 19.046875 24.703125 12.671875 31.3125 
Q 6.296875 37.9375 6.296875 49.421875 
Q 6.296875 60.640625 12.9375 67.421875 
Q 19.578125 74.21875 30.609375 74.21875 
Q 43.265625 74.21875 49.921875 64.515625 
Q 56.59375 54.828125 56.59375 36.375 
Q 56.59375 19.140625 48.40625 8.859375 
Q 40.234375 -1.421875 26.421875 -1.421875 
Q 22.703125 -1.421875 18.890625 -0.6875 
Q 15.09375 0.046875 10.984375 1.515625 
z
M 30.609375 32.421875 
Q 37.25 32.421875 41.125 36.953125 
Q 45.015625 41.5 45.015625 49.421875 
Q 45.015625 57.28125 41.125 61.84375 
Q 37.25 66.40625 30.609375 66.40625 
Q 23.96875 66.40625 20.09375 61.84375 
Q 16.21875 57.28125 16.21875 49.421875 
Q 16.21875 41.5 20.09375 36.953125 
Q 23.96875 32.421875 30.609375 32.421875 
z
" id="DejaVuSans-57"/>
       </defs>
       <use xlink:href="#DejaVuSans-48"/>
       <use x="63.623047" xlink:href="#DejaVuSans-46"/>
       <use x="95.410156" xlink:href="#DejaVuSans-57"/>
      </g>
     </g>
    </g>
    <g id="text_10">
     <!-- ratio -->
     <g style="fill:#555555;" transform="translate(181.379679 341.39625)scale(0.12 -0.12)">
      <defs>
       <path d="M 41.109375 46.296875 
Q 39.59375 47.171875 37.8125 47.578125 
Q 36.03125 48 33.890625 48 
Q 26.265625 48 22.1875 43.046875 
Q 18.109375 38.09375 18.109375 28.8125 
L 18.109375 0 
L 9.078125 0 
L 9.078125 54.6875 
L 18.109375 54.6875 
L 18.109375 46.1875 
Q 20.953125 51.171875 25.484375 53.578125 
Q 30.03125 56 36.53125 56 
Q 37.453125 56 38.578125 55.875 
Q 39.703125 55.765625 41.0625 55.515625 
z
" id="DejaVuSans-114"/>
       <path d="M 34.28125 27.484375 
Q 23.390625 27.484375 19.1875 25 
Q 14.984375 22.515625 14.984375 16.5 
Q 14.984375 11.71875 18.140625 8.90625 
Q 21.296875 6.109375 26.703125 6.109375 
Q 34.1875 6.109375 38.703125 11.40625 
Q 43.21875 16.703125 43.21875 25.484375 
L 43.21875 27.484375 
z
M 52.203125 31.203125 
L 52.203125 0 
L 43.21875 0 
L 43.21875 8.296875 
Q 40.140625 3.328125 35.546875 0.953125 
Q 30.953125 -1.421875 24.3125 -1.421875 
Q 15.921875 -1.421875 10.953125 3.296875 
Q 6 8.015625 6 15.921875 
Q 6 25.140625 12.171875 29.828125 
Q 18.359375 34.515625 30.609375 34.515625 
L 43.21875 34.515625 
L 43.21875 35.40625 
Q 43.21875 41.609375 39.140625 45 
Q 35.0625 48.390625 27.6875 48.390625 
Q 23 48.390625 18.546875 47.265625 
Q 14.109375 46.140625 10.015625 43.890625 
L 10.015625 52.203125 
Q 14.9375 54.109375 19.578125 55.046875 
Q 24.21875 56 28.609375 56 
Q 40.484375 56 46.34375 49.84375 
Q 52.203125 43.703125 52.203125 31.203125 
z
" id="DejaVuSans-97"/>
       <path d="M 18.3125 70.21875 
L 18.3125 54.6875 
L 36.8125 54.6875 
L 36.8125 47.703125 
L 18.3125 47.703125 
L 18.3125 18.015625 
Q 18.3125 11.328125 20.140625 9.421875 
Q 21.96875 7.515625 27.59375 7.515625 
L 36.8125 7.515625 
L 36.8125 0 
L 27.59375 0 
Q 17.1875 0 13.234375 3.875 
Q 9.28125 7.765625 9.28125 18.015625 
L 9.28125 47.703125 
L 2.6875 47.703125 
L 2.6875 54.6875 
L 9.28125 54.6875 
L 9.28125 70.21875 
z
" id="DejaVuSans-116"/>
       <path d="M 9.421875 54.6875 
L 18.40625 54.6875 
L 18.40625 0 
L 9.421875 0 
z
M 9.421875 75.984375 
L 18.40625 75.984375 
L 18.40625 64.59375 
L 9.421875 64.59375 
z
" id="DejaVuSans-105"/>
       <path d="M 30.609375 48.390625 
Q 23.390625 48.390625 19.1875 42.75 
Q 14.984375 37.109375 14.984375 27.296875 
Q 14.984375 17.484375 19.15625 11.84375 
Q 23.34375 6.203125 30.609375 6.203125 
Q 37.796875 6.203125 41.984375 11.859375 
Q 46.1875 17.53125 46.1875 27.296875 
Q 46.1875 37.015625 41.984375 42.703125 
Q 37.796875 48.390625 30.609375 48.390625 
z
M 30.609375 56 
Q 42.328125 56 49.015625 48.375 
Q 55.71875 40.765625 55.71875 27.296875 
Q 55.71875 13.875 49.015625 6.21875 
Q 42.328125 -1.421875 30.609375 -1.421875 
Q 18.84375 -1.421875 12.171875 6.21875 
Q 5.515625 13.875 5.515625 27.296875 
Q 5.515625 40.765625 12.171875 48.375 
Q 18.84375 56 30.609375 56 
z
" id="DejaVuSans-111"/>
      </defs>
      <use xlink:href="#DejaVuSans-114"/>
      <use x="41.113281" xlink:href="#DejaVuSans-97"/>
      <use x="102.392578" xlink:href="#DejaVuSans-116"/>
      <use x="141.601562" xlink:href="#DejaVuSans-105"/>
      <use x="169.384766" xlink:href="#DejaVuSans-111"/>
     </g>
    </g>
   </g>
   <g id="matplotlib.axis_2">
    <g id="ytick_1">
     <g id="line2d_19">
      <path clip-path="url(#p8d9f8258ee)" d="M 52.079375 294.685943 
L 338.347483 294.685943 
" style="fill:none;stroke:#ffffff;stroke-linecap:square;stroke-width:0.8;"/>
     </g>
     <g id="line2d_20">
      <defs>
       <path d="M 0 0 
L -3.5 0 
" id="mef4edb508f" style="stroke:#555555;stroke-width:0.8;"/>
      </defs>
      <g>
       <use style="fill:#555555;stroke:#555555;stroke-width:0.8;" x="52.079375" xlink:href="#mef4edb508f" y="294.685943"/>
      </g>
     </g>
     <g id="text_11">
      <!-- 0.76 -->
      <g style="fill:#555555;" transform="translate(22.81375 298.485161)scale(0.1 -0.1)">
       <use xlink:href="#DejaVuSans-48"/>
       <use x="63.623047" xlink:href="#DejaVuSans-46"/>
       <use x="95.410156" xlink:href="#DejaVuSans-55"/>
       <use x="159.033203" xlink:href="#DejaVuSans-54"/>
      </g>
     </g>
    </g>
    <g id="ytick_2">
     <g id="line2d_21">
      <path clip-path="url(#p8d9f8258ee)" d="M 52.079375 254.675923 
L 338.347483 254.675923 
" style="fill:none;stroke:#ffffff;stroke-linecap:square;stroke-width:0.8;"/>
     </g>
     <g id="line2d_22">
      <g>
       <use style="fill:#555555;stroke:#555555;stroke-width:0.8;" x="52.079375" xlink:href="#mef4edb508f" y="254.675923"/>
      </g>
     </g>
     <g id="text_12">
      <!-- 0.78 -->
      <g style="fill:#555555;" transform="translate(22.81375 258.475141)scale(0.1 -0.1)">
       <use xlink:href="#DejaVuSans-48"/>
       <use x="63.623047" xlink:href="#DejaVuSans-46"/>
       <use x="95.410156" xlink:href="#DejaVuSans-55"/>
       <use x="159.033203" xlink:href="#DejaVuSans-56"/>
      </g>
     </g>
    </g>
    <g id="ytick_3">
     <g id="line2d_23">
      <path clip-path="url(#p8d9f8258ee)" d="M 52.079375 214.665903 
L 338.347483 214.665903 
" style="fill:none;stroke:#ffffff;stroke-linecap:square;stroke-width:0.8;"/>
     </g>
     <g id="line2d_24">
      <g>
       <use style="fill:#555555;stroke:#555555;stroke-width:0.8;" x="52.079375" xlink:href="#mef4edb508f" y="214.665903"/>
      </g>
     </g>
     <g id="text_13">
      <!-- 0.80 -->
      <g style="fill:#555555;" transform="translate(22.81375 218.465122)scale(0.1 -0.1)">
       <use xlink:href="#DejaVuSans-48"/>
       <use x="63.623047" xlink:href="#DejaVuSans-46"/>
       <use x="95.410156" xlink:href="#DejaVuSans-56"/>
       <use x="159.033203" xlink:href="#DejaVuSans-48"/>
      </g>
     </g>
    </g>
    <g id="ytick_4">
     <g id="line2d_25">
      <path clip-path="url(#p8d9f8258ee)" d="M 52.079375 174.655883 
L 338.347483 174.655883 
" style="fill:none;stroke:#ffffff;stroke-linecap:square;stroke-width:0.8;"/>
     </g>
     <g id="line2d_26">
      <g>
       <use style="fill:#555555;stroke:#555555;stroke-width:0.8;" x="52.079375" xlink:href="#mef4edb508f" y="174.655883"/>
      </g>
     </g>
     <g id="text_14">
      <!-- 0.82 -->
      <g style="fill:#555555;" transform="translate(22.81375 178.455102)scale(0.1 -0.1)">
       <use xlink:href="#DejaVuSans-48"/>
       <use x="63.623047" xlink:href="#DejaVuSans-46"/>
       <use x="95.410156" xlink:href="#DejaVuSans-56"/>
       <use x="159.033203" xlink:href="#DejaVuSans-50"/>
      </g>
     </g>
    </g>
    <g id="ytick_5">
     <g id="line2d_27">
      <path clip-path="url(#p8d9f8258ee)" d="M 52.079375 134.645863 
L 338.347483 134.645863 
" style="fill:none;stroke:#ffffff;stroke-linecap:square;stroke-width:0.8;"/>
     </g>
     <g id="line2d_28">
      <g>
       <use style="fill:#555555;stroke:#555555;stroke-width:0.8;" x="52.079375" xlink:href="#mef4edb508f" y="134.645863"/>
      </g>
     </g>
     <g id="text_15">
      <!-- 0.84 -->
      <g style="fill:#555555;" transform="translate(22.81375 138.445082)scale(0.1 -0.1)">
       <use xlink:href="#DejaVuSans-48"/>
       <use x="63.623047" xlink:href="#DejaVuSans-46"/>
       <use x="95.410156" xlink:href="#DejaVuSans-56"/>
       <use x="159.033203" xlink:href="#DejaVuSans-52"/>
      </g>
     </g>
    </g>
    <g id="ytick_6">
     <g id="line2d_29">
      <path clip-path="url(#p8d9f8258ee)" d="M 52.079375 94.635843 
L 338.347483 94.635843 
" style="fill:none;stroke:#ffffff;stroke-linecap:square;stroke-width:0.8;"/>
     </g>
     <g id="line2d_30">
      <g>
       <use style="fill:#555555;stroke:#555555;stroke-width:0.8;" x="52.079375" xlink:href="#mef4edb508f" y="94.635843"/>
      </g>
     </g>
     <g id="text_16">
      <!-- 0.86 -->
      <g style="fill:#555555;" transform="translate(22.81375 98.435062)scale(0.1 -0.1)">
       <use xlink:href="#DejaVuSans-48"/>
       <use x="63.623047" xlink:href="#DejaVuSans-46"/>
       <use x="95.410156" xlink:href="#DejaVuSans-56"/>
       <use x="159.033203" xlink:href="#DejaVuSans-54"/>
      </g>
     </g>
    </g>
    <g id="ytick_7">
     <g id="line2d_31">
      <path clip-path="url(#p8d9f8258ee)" d="M 52.079375 54.625824 
L 338.347483 54.625824 
" style="fill:none;stroke:#ffffff;stroke-linecap:square;stroke-width:0.8;"/>
     </g>
     <g id="line2d_32">
      <g>
       <use style="fill:#555555;stroke:#555555;stroke-width:0.8;" x="52.079375" xlink:href="#mef4edb508f" y="54.625824"/>
      </g>
     </g>
     <g id="text_17">
      <!-- 0.88 -->
      <g style="fill:#555555;" transform="translate(22.81375 58.425042)scale(0.1 -0.1)">
       <use xlink:href="#DejaVuSans-48"/>
       <use x="63.623047" xlink:href="#DejaVuSans-46"/>
       <use x="95.410156" xlink:href="#DejaVuSans-56"/>
       <use x="159.033203" xlink:href="#DejaVuSans-56"/>
      </g>
     </g>
    </g>
    <g id="ytick_8">
     <g id="line2d_33">
      <path clip-path="url(#p8d9f8258ee)" d="M 52.079375 14.615804 
L 338.347483 14.615804 
" style="fill:none;stroke:#ffffff;stroke-linecap:square;stroke-width:0.8;"/>
     </g>
     <g id="line2d_34">
      <g>
       <use style="fill:#555555;stroke:#555555;stroke-width:0.8;" x="52.079375" xlink:href="#mef4edb508f" y="14.615804"/>
      </g>
     </g>
     <g id="text_18">
      <!-- 0.90 -->
      <g style="fill:#555555;" transform="translate(22.81375 18.415023)scale(0.1 -0.1)">
       <use xlink:href="#DejaVuSans-48"/>
       <use x="63.623047" xlink:href="#DejaVuSans-46"/>
       <use x="95.410156" xlink:href="#DejaVuSans-57"/>
       <use x="159.033203" xlink:href="#DejaVuSans-48"/>
      </g>
     </g>
    </g>
    <g id="text_19">
     <!-- accuracy -->
     <g style="fill:#555555;" transform="translate(16.318125 186.47125)rotate(-90)scale(0.12 -0.12)">
      <defs>
       <path d="M 48.78125 52.59375 
L 48.78125 44.1875 
Q 44.96875 46.296875 41.140625 47.34375 
Q 37.3125 48.390625 33.40625 48.390625 
Q 24.65625 48.390625 19.8125 42.84375 
Q 14.984375 37.3125 14.984375 27.296875 
Q 14.984375 17.28125 19.8125 11.734375 
Q 24.65625 6.203125 33.40625 6.203125 
Q 37.3125 6.203125 41.140625 7.25 
Q 44.96875 8.296875 48.78125 10.40625 
L 48.78125 2.09375 
Q 45.015625 0.34375 40.984375 -0.53125 
Q 36.96875 -1.421875 32.421875 -1.421875 
Q 20.0625 -1.421875 12.78125 6.34375 
Q 5.515625 14.109375 5.515625 27.296875 
Q 5.515625 40.671875 12.859375 48.328125 
Q 20.21875 56 33.015625 56 
Q 37.15625 56 41.109375 55.140625 
Q 45.0625 54.296875 48.78125 52.59375 
z
" id="DejaVuSans-99"/>
       <path d="M 8.5 21.578125 
L 8.5 54.6875 
L 17.484375 54.6875 
L 17.484375 21.921875 
Q 17.484375 14.15625 20.5 10.265625 
Q 23.53125 6.390625 29.59375 6.390625 
Q 36.859375 6.390625 41.078125 11.03125 
Q 45.3125 15.671875 45.3125 23.6875 
L 45.3125 54.6875 
L 54.296875 54.6875 
L 54.296875 0 
L 45.3125 0 
L 45.3125 8.40625 
Q 42.046875 3.421875 37.71875 1 
Q 33.40625 -1.421875 27.6875 -1.421875 
Q 18.265625 -1.421875 13.375 4.4375 
Q 8.5 10.296875 8.5 21.578125 
z
M 31.109375 56 
z
" id="DejaVuSans-117"/>
       <path d="M 32.171875 -5.078125 
Q 28.375 -14.84375 24.75 -17.8125 
Q 21.140625 -20.796875 15.09375 -20.796875 
L 7.90625 -20.796875 
L 7.90625 -13.28125 
L 13.1875 -13.28125 
Q 16.890625 -13.28125 18.9375 -11.515625 
Q 21 -9.765625 23.484375 -3.21875 
L 25.09375 0.875 
L 2.984375 54.6875 
L 12.5 54.6875 
L 29.59375 11.921875 
L 46.6875 54.6875 
L 56.203125 54.6875 
z
" id="DejaVuSans-121"/>
      </defs>
      <use xlink:href="#DejaVuSans-97"/>
      <use x="61.279297" xlink:href="#DejaVuSans-99"/>
      <use x="116.259766" xlink:href="#DejaVuSans-99"/>
      <use x="171.240234" xlink:href="#DejaVuSans-117"/>
      <use x="234.619141" xlink:href="#DejaVuSans-114"/>
      <use x="275.732422" xlink:href="#DejaVuSans-97"/>
      <use x="337.011719" xlink:href="#DejaVuSans-99"/>
      <use x="391.992188" xlink:href="#DejaVuSans-121"/>
     </g>
    </g>
   </g>
   <g id="PathCollection_1">
    <defs>
     <path d="M 0 3 
C 0.795609 3 1.55874 2.683901 2.12132 2.12132 
C 2.683901 1.55874 3 0.795609 3 0 
C 3 -0.795609 2.683901 -1.55874 2.12132 -2.12132 
C 1.55874 -2.683901 0.795609 -3 0 -3 
C -0.795609 -3 -1.55874 -2.683901 -2.12132 -2.12132 
C -2.683901 -1.55874 -3 -0.795609 -3 0 
C -3 0.795609 -2.683901 1.55874 -2.12132 2.12132 
C -1.55874 2.683901 -0.795609 3 0 3 
z
" id="m7ff10210a6" style="stroke:#e24a33;stroke-opacity:0.8;"/>
    </defs>
    <g clip-path="url(#p8d9f8258ee)">
     <use style="fill:#e24a33;fill-opacity:0.8;stroke:#e24a33;stroke-opacity:0.8;" x="33.33563" xlink:href="#m7ff10210a6" y="297.763636"/>
     <use style="fill:#e24a33;fill-opacity:0.8;stroke:#e24a33;stroke-opacity:0.8;" x="41.855514" xlink:href="#m7ff10210a6" y="252.780711"/>
     <use style="fill:#e24a33;fill-opacity:0.8;stroke:#e24a33;stroke-opacity:0.8;" x="50.375398" xlink:href="#m7ff10210a6" y="206.015088"/>
     <use style="fill:#e24a33;fill-opacity:0.8;stroke:#e24a33;stroke-opacity:0.8;" x="58.895282" xlink:href="#m7ff10210a6" y="191.326725"/>
     <use style="fill:#e24a33;fill-opacity:0.8;stroke:#e24a33;stroke-opacity:0.8;" x="67.415166" xlink:href="#m7ff10210a6" y="175.799027"/>
     <use style="fill:#e24a33;fill-opacity:0.8;stroke:#e24a33;stroke-opacity:0.8;" x="75.935051" xlink:href="#m7ff10210a6" y="177.715473"/>
     <use style="fill:#e24a33;fill-opacity:0.8;stroke:#e24a33;stroke-opacity:0.8;" x="84.454935" xlink:href="#m7ff10210a6" y="164.471514"/>
     <use style="fill:#e24a33;fill-opacity:0.8;stroke:#e24a33;stroke-opacity:0.8;" x="92.974819" xlink:href="#m7ff10210a6" y="166.153754"/>
     <use style="fill:#e24a33;fill-opacity:0.8;stroke:#e24a33;stroke-opacity:0.8;" x="101.494703" xlink:href="#m7ff10210a6" y="158.393746"/>
     <use style="fill:#e24a33;fill-opacity:0.8;stroke:#e24a33;stroke-opacity:0.8;" x="110.014587" xlink:href="#m7ff10210a6" y="150.916605"/>
     <use style="fill:#e24a33;fill-opacity:0.8;stroke:#e24a33;stroke-opacity:0.8;" x="118.534471" xlink:href="#m7ff10210a6" y="144.855317"/>
     <use style="fill:#e24a33;fill-opacity:0.8;stroke:#e24a33;stroke-opacity:0.8;" x="127.054356" xlink:href="#m7ff10210a6" y="136.646364"/>
     <use style="fill:#e24a33;fill-opacity:0.8;stroke:#e24a33;stroke-opacity:0.8;" x="135.57424" xlink:href="#m7ff10210a6" y="129.903935"/>
     <use style="fill:#e24a33;fill-opacity:0.8;stroke:#e24a33;stroke-opacity:0.8;" x="144.094124" xlink:href="#m7ff10210a6" y="128.798245"/>
     <use style="fill:#e24a33;fill-opacity:0.8;stroke:#e24a33;stroke-opacity:0.8;" x="152.614008" xlink:href="#m7ff10210a6" y="129.204501"/>
     <use style="fill:#e24a33;fill-opacity:0.8;stroke:#e24a33;stroke-opacity:0.8;" x="161.133892" xlink:href="#m7ff10210a6" y="124.976775"/>
     <use style="fill:#e24a33;fill-opacity:0.8;stroke:#e24a33;stroke-opacity:0.8;" x="169.653776" xlink:href="#m7ff10210a6" y="113.77107"/>
     <use style="fill:#e24a33;fill-opacity:0.8;stroke:#e24a33;stroke-opacity:0.8;" x="178.173661" xlink:href="#m7ff10210a6" y="108.821214"/>
     <use style="fill:#e24a33;fill-opacity:0.8;stroke:#e24a33;stroke-opacity:0.8;" x="186.693545" xlink:href="#m7ff10210a6" y="107.972517"/>
     <use style="fill:#e24a33;fill-opacity:0.8;stroke:#e24a33;stroke-opacity:0.8;" x="195.213429" xlink:href="#m7ff10210a6" y="105.838649"/>
     <use style="fill:#e24a33;fill-opacity:0.8;stroke:#e24a33;stroke-opacity:0.8;" x="203.733313" xlink:href="#m7ff10210a6" y="108.112903"/>
     <use style="fill:#e24a33;fill-opacity:0.8;stroke:#e24a33;stroke-opacity:0.8;" x="212.253197" xlink:href="#m7ff10210a6" y="103.526959"/>
     <use style="fill:#e24a33;fill-opacity:0.8;stroke:#e24a33;stroke-opacity:0.8;" x="220.773081" xlink:href="#m7ff10210a6" y="103.108554"/>
     <use style="fill:#e24a33;fill-opacity:0.8;stroke:#e24a33;stroke-opacity:0.8;" x="229.292965" xlink:href="#m7ff10210a6" y="102.137722"/>
     <use style="fill:#e24a33;fill-opacity:0.8;stroke:#e24a33;stroke-opacity:0.8;" x="237.81285" xlink:href="#m7ff10210a6" y="97.303178"/>
     <use style="fill:#e24a33;fill-opacity:0.8;stroke:#e24a33;stroke-opacity:0.8;" x="246.332734" xlink:href="#m7ff10210a6" y="95.207415"/>
     <use style="fill:#e24a33;fill-opacity:0.8;stroke:#e24a33;stroke-opacity:0.8;" x="254.852618" xlink:href="#m7ff10210a6" y="101.40677"/>
     <use style="fill:#e24a33;fill-opacity:0.8;stroke:#e24a33;stroke-opacity:0.8;" x="263.372502" xlink:href="#m7ff10210a6" y="101.30418"/>
     <use style="fill:#e24a33;fill-opacity:0.8;stroke:#e24a33;stroke-opacity:0.8;" x="271.892386" xlink:href="#m7ff10210a6" y="96.090753"/>
     <use style="fill:#e24a33;fill-opacity:0.8;stroke:#e24a33;stroke-opacity:0.8;" x="280.41227" xlink:href="#m7ff10210a6" y="97.836645"/>
     <use style="fill:#e24a33;fill-opacity:0.8;stroke:#e24a33;stroke-opacity:0.8;" x="288.932155" xlink:href="#m7ff10210a6" y="89.301174"/>
     <use style="fill:#e24a33;fill-opacity:0.8;stroke:#e24a33;stroke-opacity:0.8;" x="297.452039" xlink:href="#m7ff10210a6" y="84.633339"/>
     <use style="fill:#e24a33;fill-opacity:0.8;stroke:#e24a33;stroke-opacity:0.8;" x="305.971923" xlink:href="#m7ff10210a6" y="82.061266"/>
     <use style="fill:#e24a33;fill-opacity:0.8;stroke:#e24a33;stroke-opacity:0.8;" x="314.491807" xlink:href="#m7ff10210a6" y="66.62883"/>
     <use style="fill:#e24a33;fill-opacity:0.8;stroke:#e24a33;stroke-opacity:0.8;" x="323.011691" xlink:href="#m7ff10210a6" y="62.627828"/>
     <use style="fill:#e24a33;fill-opacity:0.8;stroke:#e24a33;stroke-opacity:0.8;" x="331.531575" xlink:href="#m7ff10210a6" y="82.632838"/>
     <use style="fill:#e24a33;fill-opacity:0.8;stroke:#e24a33;stroke-opacity:0.8;" x="340.051459" xlink:href="#m7ff10210a6" y="89.301174"/>
     <use style="fill:#e24a33;fill-opacity:0.8;stroke:#e24a33;stroke-opacity:0.8;" x="348.571344" xlink:href="#m7ff10210a6" y="74.630834"/>
     <use style="fill:#e24a33;fill-opacity:0.8;stroke:#e24a33;stroke-opacity:0.8;" x="357.091228" xlink:href="#m7ff10210a6" y="102.637847"/>
    </g>
   </g>
   <g id="PolyCollection_1">
    <path clip-path="url(#p8d9f8258ee)" d="M 33.33563 174.23698 
L 33.33563 219.831205 
L 36.605888 218.073016 
L 39.876147 216.358922 
L 43.146406 214.644828 
L 46.416664 212.930734 
L 49.686923 211.202244 
L 52.957181 209.417869 
L 56.22744 207.633494 
L 59.497698 205.849118 
L 62.767957 204.063908 
L 66.038216 202.28606 
L 69.308474 200.573519 
L 72.578733 198.748047 
L 75.848991 196.913476 
L 79.11925 195.125868 
L 82.389508 193.286691 
L 85.659767 191.446526 
L 88.930025 189.606361 
L 92.200284 187.770907 
L 95.470543 186.119585 
L 98.740801 184.477011 
L 102.01106 182.935521 
L 105.281318 181.205714 
L 108.551577 179.236205 
L 111.821835 177.525847 
L 115.092094 175.712097 
L 118.362353 173.858711 
L 121.632611 172.010447 
L 124.90287 170.229755 
L 128.173128 168.395103 
L 131.443387 166.588292 
L 134.713645 164.954981 
L 137.983904 163.324238 
L 141.254162 161.693494 
L 144.524421 160.062751 
L 147.79468 158.427715 
L 151.064938 156.788248 
L 154.335197 154.946347 
L 157.605455 153.177323 
L 160.875714 151.609235 
L 164.145972 150.025523 
L 167.416231 148.389496 
L 170.68649 146.619578 
L 173.956748 144.8094 
L 177.227007 143.197968 
L 180.497265 141.498017 
L 183.767524 139.838358 
L 187.037782 138.23515 
L 190.308041 136.687873 
L 193.5783 135.100143 
L 196.848558 133.580154 
L 200.118817 131.899031 
L 203.389075 130.189012 
L 206.659334 128.678106 
L 209.929592 127.153775 
L 213.199851 125.592218 
L 216.470109 123.965257 
L 219.740368 122.382769 
L 223.010627 120.850353 
L 226.280885 119.231067 
L 229.551144 117.68454 
L 232.821402 116.190031 
L 236.091661 114.703686 
L 239.361919 113.187916 
L 242.632178 111.771206 
L 245.902437 110.463234 
L 249.172695 109.074227 
L 252.442954 107.589919 
L 255.713212 106.09851 
L 258.983471 104.757369 
L 262.253729 103.281008 
L 265.523988 101.855501 
L 268.794247 100.536998 
L 272.064505 99.281928 
L 275.334764 97.880799 
L 278.605022 96.506771 
L 281.875281 95.35839 
L 285.145539 94.217513 
L 288.415798 93.012593 
L 291.686056 91.900706 
L 294.956315 90.802215 
L 298.226574 89.624052 
L 301.496832 88.504021 
L 304.767091 87.349743 
L 308.037349 86.087069 
L 311.307608 84.963752 
L 314.577866 83.831061 
L 317.848125 82.677096 
L 321.118384 81.621902 
L 324.388642 80.566324 
L 327.658901 79.403286 
L 330.929159 78.292765 
L 334.199418 77.155186 
L 337.469676 76.085982 
L 340.739935 75.031509 
L 344.010194 73.989181 
L 347.280452 72.925867 
L 350.550711 71.799615 
L 353.820969 70.670794 
L 357.091228 69.581587 
L 357.091228 35.596548 
L 357.091228 35.596548 
L 353.820969 37.40122 
L 350.550711 39.257683 
L 347.280452 41.117139 
L 344.010194 42.978187 
L 340.739935 44.763243 
L 337.469676 46.482831 
L 334.199418 48.202419 
L 330.929159 49.934964 
L 327.658901 51.778495 
L 324.388642 53.628753 
L 321.118384 55.624351 
L 317.848125 57.598025 
L 314.577866 59.339165 
L 311.307608 61.080304 
L 308.037349 62.861793 
L 304.767091 64.562383 
L 301.496832 66.296047 
L 298.226574 68.033189 
L 294.956315 69.77039 
L 291.686056 71.51112 
L 288.415798 73.285432 
L 285.145539 75.11367 
L 281.875281 76.923947 
L 278.605022 78.573705 
L 275.334764 80.372988 
L 272.064505 82.179284 
L 268.794247 83.927429 
L 265.523988 85.802612 
L 262.253729 87.677795 
L 258.983471 89.291197 
L 255.713212 90.830959 
L 252.442954 92.606448 
L 249.172695 94.49223 
L 245.902437 96.2 
L 242.632178 97.831388 
L 239.361919 99.500933 
L 236.091661 101.184345 
L 232.821402 102.800348 
L 229.551144 104.309682 
L 226.280885 105.840009 
L 223.010627 107.257447 
L 219.740368 108.541244 
L 216.470109 110.085845 
L 213.199851 111.47429 
L 209.929592 112.916326 
L 206.659334 114.259249 
L 203.389075 115.482413 
L 200.118817 116.883104 
L 196.848558 118.299486 
L 193.5783 119.53966 
L 190.308041 120.742768 
L 187.037782 121.795411 
L 183.767524 123.005666 
L 180.497265 124.182015 
L 177.227007 125.290836 
L 173.956748 126.674492 
L 170.68649 127.970345 
L 167.416231 129.015994 
L 164.145972 130.061067 
L 160.875714 131.247774 
L 157.605455 132.372664 
L 154.335197 133.532411 
L 151.064938 134.677017 
L 147.79468 135.717817 
L 144.524421 136.75978 
L 141.254162 137.877151 
L 137.983904 139.069195 
L 134.713645 140.357666 
L 131.443387 141.593392 
L 128.173128 142.682849 
L 124.90287 143.772305 
L 121.632611 144.862104 
L 118.362353 146.006443 
L 115.092094 147.218198 
L 111.821835 148.407456 
L 108.551577 149.443295 
L 105.281318 150.52595 
L 102.01106 151.589684 
L 98.740801 152.762638 
L 95.470543 153.935593 
L 92.200284 155.108547 
L 88.930025 156.16805 
L 85.659767 157.222339 
L 82.389508 158.277772 
L 79.11925 159.335359 
L 75.848991 160.392945 
L 72.578733 161.550678 
L 69.308474 162.749148 
L 66.038216 163.947618 
L 62.767957 165.038621 
L 59.497698 166.063764 
L 56.22744 167.084253 
L 52.957181 168.104741 
L 49.686923 169.125229 
L 46.416664 170.145883 
L 43.146406 171.167222 
L 39.876147 172.188561 
L 36.605888 173.2099 
L 33.33563 174.23698 
z
" style="fill:#e24a33;fill-opacity:0.15;"/>
   </g>
   <g id="PathCollection_2">
    <defs>
     <path d="M 0 3 
C 0.795609 3 1.55874 2.683901 2.12132 2.12132 
C 2.683901 1.55874 3 0.795609 3 0 
C 3 -0.795609 2.683901 -1.55874 2.12132 -2.12132 
C 1.55874 -2.683901 0.795609 -3 0 -3 
C -0.795609 -3 -1.55874 -2.683901 -2.12132 -2.12132 
C -2.683901 -1.55874 -3 -0.795609 -3 0 
C -3 0.795609 -2.683901 1.55874 -2.12132 2.12132 
C -1.55874 2.683901 -0.795609 3 0 3 
z
" id="mc994a4d28f" style="stroke:#348abd;stroke-opacity:0.8;"/>
    </defs>
    <g clip-path="url(#p8d9f8258ee)">
     <use style="fill:#348abd;fill-opacity:0.8;stroke:#348abd;stroke-opacity:0.8;" x="58.895282" xlink:href="#mc994a4d28f" y="223.557066"/>
     <use style="fill:#348abd;fill-opacity:0.8;stroke:#348abd;stroke-opacity:0.8;" x="92.974819" xlink:href="#mc994a4d28f" y="151.150045"/>
     <use style="fill:#348abd;fill-opacity:0.8;stroke:#348abd;stroke-opacity:0.8;" x="127.054356" xlink:href="#mc994a4d28f" y="152.650431"/>
     <use style="fill:#348abd;fill-opacity:0.8;stroke:#348abd;stroke-opacity:0.8;" x="161.133892" xlink:href="#mc994a4d28f" y="127.644074"/>
     <use style="fill:#348abd;fill-opacity:0.8;stroke:#348abd;stroke-opacity:0.8;" x="195.213429" xlink:href="#mc994a4d28f" y="96.63629"/>
     <use style="fill:#348abd;fill-opacity:0.8;stroke:#348abd;stroke-opacity:0.8;" x="229.292965" xlink:href="#mc994a4d28f" y="105.638608"/>
     <use style="fill:#348abd;fill-opacity:0.8;stroke:#348abd;stroke-opacity:0.8;" x="263.372502" xlink:href="#mc994a4d28f" y="79.298679"/>
     <use style="fill:#348abd;fill-opacity:0.8;stroke:#348abd;stroke-opacity:0.8;" x="297.452039" xlink:href="#mc994a4d28f" y="88.634389"/>
     <use style="fill:#348abd;fill-opacity:0.8;stroke:#348abd;stroke-opacity:0.8;" x="331.531575" xlink:href="#mc994a4d28f" y="92.63534"/>
    </g>
   </g>
   <g id="PolyCollection_2">
    <path clip-path="url(#p8d9f8258ee)" d="M 58.895282 139.532262 
L 58.895282 213.39229 
L 61.649184 211.84531 
L 64.403086 210.252967 
L 67.156988 208.656041 
L 69.91089 206.679229 
L 72.664792 205.049257 
L 75.418694 203.436827 
L 78.172596 201.717656 
L 80.926498 199.89037 
L 83.6804 198.179401 
L 86.434302 196.51933 
L 89.188204 194.816334 
L 91.942106 192.873778 
L 94.696008 191.015709 
L 97.44991 189.149608 
L 100.203812 187.535044 
L 102.957714 185.658461 
L 105.711615 183.860231 
L 108.465517 182.292529 
L 111.219419 180.559898 
L 113.973321 179.195594 
L 116.727223 177.733907 
L 119.481125 176.003805 
L 122.235027 174.655461 
L 124.988929 172.973055 
L 127.742831 171.222725 
L 130.496733 169.617286 
L 133.250635 167.904296 
L 136.004537 166.35698 
L 138.758439 164.810945 
L 141.512341 163.271052 
L 144.266243 161.813281 
L 147.020145 160.434485 
L 149.774047 158.94844 
L 152.527949 157.614355 
L 155.281851 156.151218 
L 158.035753 154.775383 
L 160.789654 153.399549 
L 163.543556 152.031169 
L 166.297458 150.64323 
L 169.05136 149.397995 
L 171.805262 148.002239 
L 174.559164 146.616377 
L 177.313066 145.278497 
L 180.066968 143.940616 
L 182.82087 142.602736 
L 185.574772 141.260677 
L 188.328674 139.916898 
L 191.082576 138.582288 
L 193.836478 137.250756 
L 196.59038 135.950014 
L 199.344282 134.682924 
L 202.098184 133.402607 
L 204.852086 132.066797 
L 207.605988 130.85611 
L 210.35989 129.603855 
L 213.113791 128.334628 
L 215.867693 127.025986 
L 218.621595 125.727064 
L 221.375497 124.514767 
L 224.129399 123.304787 
L 226.883301 122.096938 
L 229.637203 121.045596 
L 232.391105 119.839317 
L 235.145007 118.53714 
L 237.898909 117.421621 
L 240.652811 116.241214 
L 243.406713 115.137495 
L 246.160615 113.920219 
L 248.914517 112.640236 
L 251.668419 111.510792 
L 254.422321 110.305876 
L 257.176223 109.162713 
L 259.930125 108.052098 
L 262.684027 107.107575 
L 265.437929 106.287788 
L 268.19183 105.208796 
L 270.945732 104.261171 
L 273.699634 103.519302 
L 276.453536 102.817059 
L 279.207438 101.725013 
L 281.96134 100.916296 
L 284.715242 100.040631 
L 287.469144 99.22864 
L 290.223046 98.18463 
L 292.976948 97.140619 
L 295.73085 96.226388 
L 298.484752 95.671879 
L 301.238654 94.639829 
L 303.992556 93.908439 
L 306.746458 92.951546 
L 309.50036 92.279932 
L 312.254262 91.33983 
L 315.008164 90.641545 
L 317.762066 89.901879 
L 320.515968 89.329526 
L 323.269869 88.594061 
L 326.023771 87.832348 
L 328.777673 87.070468 
L 331.531575 86.387914 
L 331.531575 21.036364 
L 331.531575 21.036364 
L 328.777673 22.745992 
L 326.023771 24.484332 
L 323.269869 26.350531 
L 320.515968 28.21673 
L 317.762066 30.08484 
L 315.008164 31.953426 
L 312.254262 33.822771 
L 309.50036 35.692765 
L 306.746458 37.562759 
L 303.992556 39.432753 
L 301.238654 41.302747 
L 298.484752 43.172741 
L 295.73085 45.042735 
L 292.976948 46.912729 
L 290.223046 48.782723 
L 287.469144 50.595311 
L 284.715242 52.24441 
L 281.96134 53.894391 
L 279.207438 55.759538 
L 276.453536 57.572976 
L 273.699634 59.313032 
L 270.945732 61.137616 
L 268.19183 62.991921 
L 265.437929 64.846227 
L 262.684027 66.700533 
L 259.930125 68.555544 
L 257.176223 70.398379 
L 254.422321 72.042222 
L 251.668419 73.843333 
L 248.914517 75.681836 
L 246.160615 77.637835 
L 243.406713 79.647855 
L 240.652811 81.561263 
L 237.898909 83.40901 
L 235.145007 85.275745 
L 232.391105 86.903329 
L 229.637203 88.035867 
L 226.883301 89.591089 
L 224.129399 91.449224 
L 221.375497 93.311289 
L 218.621595 94.531811 
L 215.867693 96.283772 
L 213.113791 97.950214 
L 210.35989 99.265205 
L 207.605988 100.733317 
L 204.852086 102.134373 
L 202.098184 103.444847 
L 199.344282 104.76389 
L 196.59038 106.199174 
L 193.836478 107.221866 
L 191.082576 108.100446 
L 188.328674 109.675292 
L 185.574772 110.856052 
L 182.82087 111.367064 
L 180.066968 111.953404 
L 177.313066 112.722547 
L 174.559164 113.75474 
L 171.805262 114.873854 
L 169.05136 115.568823 
L 166.297458 116.71078 
L 163.543556 117.295061 
L 160.789654 117.879342 
L 158.035753 118.463623 
L 155.281851 119.047903 
L 152.527949 119.632184 
L 149.774047 120.216465 
L 147.020145 120.800746 
L 144.266243 121.385027 
L 141.512341 121.966264 
L 138.758439 122.549948 
L 136.004537 123.179358 
L 133.250635 123.849805 
L 130.496733 124.520252 
L 127.742831 125.1907 
L 124.988929 125.861147 
L 122.235027 126.505635 
L 119.481125 127.148096 
L 116.727223 127.711275 
L 113.973321 128.273349 
L 111.219419 128.835423 
L 108.465517 129.397497 
L 105.711615 129.959571 
L 102.957714 130.521646 
L 100.203812 131.08372 
L 97.44991 131.645794 
L 94.696008 132.207868 
L 91.942106 132.769942 
L 89.188204 133.332016 
L 86.434302 133.89409 
L 83.6804 134.456165 
L 80.926498 135.018239 
L 78.172596 135.580313 
L 75.418694 136.142387 
L 72.664792 136.704461 
L 69.91089 137.266535 
L 67.156988 137.82861 
L 64.403086 138.390684 
L 61.649184 138.952758 
L 58.895282 139.532262 
z
" style="fill:#348abd;fill-opacity:0.15;"/>
   </g>
   <g id="line2d_35">
    <path clip-path="url(#p8d9f8258ee)" d="M 33.33563 197.681588 
L 36.605888 196.232758 
L 39.876147 194.783928 
L 43.146406 193.335097 
L 46.416664 191.886267 
L 49.686923 190.437437 
L 52.957181 188.988607 
L 56.22744 187.539776 
L 59.497698 186.090946 
L 62.767957 184.642116 
L 66.038216 183.193285 
L 69.308474 181.744455 
L 72.578733 180.295625 
L 75.848991 178.846795 
L 79.11925 177.397964 
L 82.389508 175.949134 
L 85.659767 174.500304 
L 88.930025 173.051473 
L 92.200284 171.602643 
L 95.470543 170.153813 
L 98.740801 168.704983 
L 102.01106 167.256152 
L 105.281318 165.807322 
L 108.551577 164.358492 
L 111.821835 162.909661 
L 115.092094 161.460831 
L 118.362353 160.012001 
L 121.632611 158.563171 
L 124.90287 157.11434 
L 128.173128 155.66551 
L 131.443387 154.21668 
L 134.713645 152.767849 
L 137.983904 151.319019 
L 141.254162 149.870189 
L 144.524421 148.421359 
L 147.79468 146.972528 
L 151.064938 145.523698 
L 154.335197 144.074868 
L 157.605455 142.626037 
L 160.875714 141.177207 
L 164.145972 139.728377 
L 167.416231 138.279547 
L 170.68649 136.830716 
L 173.956748 135.381886 
L 177.227007 133.933056 
L 180.497265 132.484225 
L 183.767524 131.035395 
L 187.037782 129.586565 
L 190.308041 128.137735 
L 193.5783 126.688904 
L 196.848558 125.240074 
L 200.118817 123.791244 
L 203.389075 122.342413 
L 206.659334 120.893583 
L 209.929592 119.444753 
L 213.199851 117.995922 
L 216.470109 116.547092 
L 219.740368 115.098262 
L 223.010627 113.649432 
L 226.280885 112.200601 
L 229.551144 110.751771 
L 232.821402 109.302941 
L 236.091661 107.85411 
L 239.361919 106.40528 
L 242.632178 104.95645 
L 245.902437 103.50762 
L 249.172695 102.058789 
L 252.442954 100.609959 
L 255.713212 99.161129 
L 258.983471 97.712298 
L 262.253729 96.263468 
L 265.523988 94.814638 
L 268.794247 93.365808 
L 272.064505 91.916977 
L 275.334764 90.468147 
L 278.605022 89.019317 
L 281.875281 87.570486 
L 285.145539 86.121656 
L 288.415798 84.672826 
L 291.686056 83.223996 
L 294.956315 81.775165 
L 298.226574 80.326335 
L 301.496832 78.877505 
L 304.767091 77.428674 
L 308.037349 75.979844 
L 311.307608 74.531014 
L 314.577866 73.082184 
L 317.848125 71.633353 
L 321.118384 70.184523 
L 324.388642 68.735693 
L 327.658901 67.286862 
L 330.929159 65.838032 
L 334.199418 64.389202 
L 337.469676 62.940372 
L 340.739935 61.491541 
L 344.010194 60.042711 
L 347.280452 58.593881 
L 350.550711 57.14505 
L 353.820969 55.69622 
L 357.091228 54.24739 
" style="fill:none;stroke:#e24a33;stroke-linecap:square;stroke-width:2.25;"/>
   </g>
   <g id="line2d_36">
    <path clip-path="url(#p8d9f8258ee)" d="M 58.895282 182.867847 
L 61.649184 181.682739 
L 64.403086 180.497631 
L 67.156988 179.312523 
L 69.91089 178.127415 
L 72.664792 176.942306 
L 75.418694 175.757198 
L 78.172596 174.57209 
L 80.926498 173.386982 
L 83.6804 172.201874 
L 86.434302 171.016765 
L 89.188204 169.831657 
L 91.942106 168.646549 
L 94.696008 167.461441 
L 97.44991 166.276333 
L 100.203812 165.091224 
L 102.957714 163.906116 
L 105.711615 162.721008 
L 108.465517 161.5359 
L 111.219419 160.350792 
L 113.973321 159.165683 
L 116.727223 157.980575 
L 119.481125 156.795467 
L 122.235027 155.610359 
L 124.988929 154.42525 
L 127.742831 153.240142 
L 130.496733 152.055034 
L 133.250635 150.869926 
L 136.004537 149.684818 
L 138.758439 148.499709 
L 141.512341 147.314601 
L 144.266243 146.129493 
L 147.020145 144.944385 
L 149.774047 143.759277 
L 152.527949 142.574168 
L 155.281851 141.38906 
L 158.035753 140.203952 
L 160.789654 139.018844 
L 163.543556 137.833736 
L 166.297458 136.648627 
L 169.05136 135.463519 
L 171.805262 134.278411 
L 174.559164 133.093303 
L 177.313066 131.908195 
L 180.066968 130.723086 
L 182.82087 129.537978 
L 185.574772 128.35287 
L 188.328674 127.167762 
L 191.082576 125.982654 
L 193.836478 124.797545 
L 196.59038 123.612437 
L 199.344282 122.427329 
L 202.098184 121.242221 
L 204.852086 120.057113 
L 207.605988 118.872004 
L 210.35989 117.686896 
L 213.113791 116.501788 
L 215.867693 115.31668 
L 218.621595 114.131572 
L 221.375497 112.946463 
L 224.129399 111.761355 
L 226.883301 110.576247 
L 229.637203 109.391139 
L 232.391105 108.20603 
L 235.145007 107.020922 
L 237.898909 105.835814 
L 240.652811 104.650706 
L 243.406713 103.465598 
L 246.160615 102.280489 
L 248.914517 101.095381 
L 251.668419 99.910273 
L 254.422321 98.725165 
L 257.176223 97.540057 
L 259.930125 96.354948 
L 262.684027 95.16984 
L 265.437929 93.984732 
L 268.19183 92.799624 
L 270.945732 91.614516 
L 273.699634 90.429407 
L 276.453536 89.244299 
L 279.207438 88.059191 
L 281.96134 86.874083 
L 284.715242 85.688975 
L 287.469144 84.503866 
L 290.223046 83.318758 
L 292.976948 82.13365 
L 295.73085 80.948542 
L 298.484752 79.763434 
L 301.238654 78.578325 
L 303.992556 77.393217 
L 306.746458 76.208109 
L 309.50036 75.023001 
L 312.254262 73.837893 
L 315.008164 72.652784 
L 317.762066 71.467676 
L 320.515968 70.282568 
L 323.269869 69.09746 
L 326.023771 67.912352 
L 328.777673 66.727243 
L 331.531575 65.542135 
" style="fill:none;stroke:#348abd;stroke-linecap:square;stroke-width:2.25;"/>
   </g>
   <g id="patch_3">
    <path d="M 52.079375 311.6 
L 52.079375 7.2 
" style="fill:none;stroke:#ffffff;stroke-linecap:square;stroke-linejoin:miter;"/>
   </g>
   <g id="patch_4">
    <path d="M 52.079375 311.6 
L 338.347483 311.6 
" style="fill:none;stroke:#ffffff;stroke-linecap:square;stroke-linejoin:miter;"/>
   </g>
  </g>
  <g id="legend_1">
   <g id="text_20">
    <!-- name -->
    <g transform="translate(363.979045 163.627187)scale(0.1 -0.1)">
     <defs>
      <path d="M 54.890625 33.015625 
L 54.890625 0 
L 45.90625 0 
L 45.90625 32.71875 
Q 45.90625 40.484375 42.875 44.328125 
Q 39.84375 48.1875 33.796875 48.1875 
Q 26.515625 48.1875 22.3125 43.546875 
Q 18.109375 38.921875 18.109375 30.90625 
L 18.109375 0 
L 9.078125 0 
L 9.078125 54.6875 
L 18.109375 54.6875 
L 18.109375 46.1875 
Q 21.34375 51.125 25.703125 53.5625 
Q 30.078125 56 35.796875 56 
Q 45.21875 56 50.046875 50.171875 
Q 54.890625 44.34375 54.890625 33.015625 
z
" id="DejaVuSans-110"/>
      <path d="M 52 44.1875 
Q 55.375 50.25 60.0625 53.125 
Q 64.75 56 71.09375 56 
Q 79.640625 56 84.28125 50.015625 
Q 88.921875 44.046875 88.921875 33.015625 
L 88.921875 0 
L 79.890625 0 
L 79.890625 32.71875 
Q 79.890625 40.578125 77.09375 44.375 
Q 74.3125 48.1875 68.609375 48.1875 
Q 61.625 48.1875 57.5625 43.546875 
Q 53.515625 38.921875 53.515625 30.90625 
L 53.515625 0 
L 44.484375 0 
L 44.484375 32.71875 
Q 44.484375 40.625 41.703125 44.40625 
Q 38.921875 48.1875 33.109375 48.1875 
Q 26.21875 48.1875 22.15625 43.53125 
Q 18.109375 38.875 18.109375 30.90625 
L 18.109375 0 
L 9.078125 0 
L 9.078125 54.6875 
L 18.109375 54.6875 
L 18.109375 46.1875 
Q 21.1875 51.21875 25.484375 53.609375 
Q 29.78125 56 35.6875 56 
Q 41.65625 56 45.828125 52.96875 
Q 50 49.953125 52 44.1875 
z
" id="DejaVuSans-109"/>
      <path d="M 56.203125 29.59375 
L 56.203125 25.203125 
L 14.890625 25.203125 
Q 15.484375 15.921875 20.484375 11.0625 
Q 25.484375 6.203125 34.421875 6.203125 
Q 39.59375 6.203125 44.453125 7.46875 
Q 49.3125 8.734375 54.109375 11.28125 
L 54.109375 2.78125 
Q 49.265625 0.734375 44.1875 -0.34375 
Q 39.109375 -1.421875 33.890625 -1.421875 
Q 20.796875 -1.421875 13.15625 6.1875 
Q 5.515625 13.8125 5.515625 26.8125 
Q 5.515625 40.234375 12.765625 48.109375 
Q 20.015625 56 32.328125 56 
Q 43.359375 56 49.78125 48.890625 
Q 56.203125 41.796875 56.203125 29.59375 
z
M 47.21875 32.234375 
Q 47.125 39.59375 43.09375 43.984375 
Q 39.0625 48.390625 32.421875 48.390625 
Q 24.90625 48.390625 20.390625 44.140625 
Q 15.875 39.890625 15.1875 32.171875 
z
" id="DejaVuSans-101"/>
     </defs>
     <use xlink:href="#DejaVuSans-110"/>
     <use x="63.378906" xlink:href="#DejaVuSans-97"/>
     <use x="124.658203" xlink:href="#DejaVuSans-109"/>
     <use x="222.070312" xlink:href="#DejaVuSans-101"/>
    </g>
   </g>
   <g id="PathCollection_3">
    <g>
     <use style="fill:#e24a33;fill-opacity:0.8;stroke:#e24a33;stroke-opacity:0.8;" x="353.652483" xlink:href="#m7ff10210a6" y="175.680312"/>
    </g>
   </g>
   <g id="text_21">
    <!-- SVM -->
    <g transform="translate(371.652483 178.305312)scale(0.1 -0.1)">
     <defs>
      <path d="M 53.515625 70.515625 
L 53.515625 60.890625 
Q 47.90625 63.578125 42.921875 64.890625 
Q 37.9375 66.21875 33.296875 66.21875 
Q 25.25 66.21875 20.875 63.09375 
Q 16.5 59.96875 16.5 54.203125 
Q 16.5 49.359375 19.40625 46.890625 
Q 22.3125 44.4375 30.421875 42.921875 
L 36.375 41.703125 
Q 47.40625 39.59375 52.65625 34.296875 
Q 57.90625 29 57.90625 20.125 
Q 57.90625 9.515625 50.796875 4.046875 
Q 43.703125 -1.421875 29.984375 -1.421875 
Q 24.8125 -1.421875 18.96875 -0.25 
Q 13.140625 0.921875 6.890625 3.21875 
L 6.890625 13.375 
Q 12.890625 10.015625 18.65625 8.296875 
Q 24.421875 6.59375 29.984375 6.59375 
Q 38.421875 6.59375 43.015625 9.90625 
Q 47.609375 13.234375 47.609375 19.390625 
Q 47.609375 24.75 44.3125 27.78125 
Q 41.015625 30.8125 33.5 32.328125 
L 27.484375 33.5 
Q 16.453125 35.6875 11.515625 40.375 
Q 6.59375 45.0625 6.59375 53.421875 
Q 6.59375 63.09375 13.40625 68.65625 
Q 20.21875 74.21875 32.171875 74.21875 
Q 37.3125 74.21875 42.625 73.28125 
Q 47.953125 72.359375 53.515625 70.515625 
z
" id="DejaVuSans-83"/>
      <path d="M 28.609375 0 
L 0.78125 72.90625 
L 11.078125 72.90625 
L 34.1875 11.53125 
L 57.328125 72.90625 
L 67.578125 72.90625 
L 39.796875 0 
z
" id="DejaVuSans-86"/>
      <path d="M 9.8125 72.90625 
L 24.515625 72.90625 
L 43.109375 23.296875 
L 61.8125 72.90625 
L 76.515625 72.90625 
L 76.515625 0 
L 66.890625 0 
L 66.890625 64.015625 
L 48.09375 14.015625 
L 38.1875 14.015625 
L 19.390625 64.015625 
L 19.390625 0 
L 9.8125 0 
z
" id="DejaVuSans-77"/>
     </defs>
     <use xlink:href="#DejaVuSans-83"/>
     <use x="63.476562" xlink:href="#DejaVuSans-86"/>
     <use x="131.884766" xlink:href="#DejaVuSans-77"/>
    </g>
   </g>
   <g id="PathCollection_4">
    <g>
     <use style="fill:#348abd;fill-opacity:0.8;stroke:#348abd;stroke-opacity:0.8;" x="353.652483" xlink:href="#mc994a4d28f" y="190.358437"/>
    </g>
   </g>
   <g id="text_22">
    <!-- CNN 5 S -->
    <g transform="translate(371.652483 192.983437)scale(0.1 -0.1)">
     <defs>
      <path d="M 64.40625 67.28125 
L 64.40625 56.890625 
Q 59.421875 61.53125 53.78125 63.8125 
Q 48.140625 66.109375 41.796875 66.109375 
Q 29.296875 66.109375 22.65625 58.46875 
Q 16.015625 50.828125 16.015625 36.375 
Q 16.015625 21.96875 22.65625 14.328125 
Q 29.296875 6.6875 41.796875 6.6875 
Q 48.140625 6.6875 53.78125 8.984375 
Q 59.421875 11.28125 64.40625 15.921875 
L 64.40625 5.609375 
Q 59.234375 2.09375 53.4375 0.328125 
Q 47.65625 -1.421875 41.21875 -1.421875 
Q 24.65625 -1.421875 15.125 8.703125 
Q 5.609375 18.84375 5.609375 36.375 
Q 5.609375 53.953125 15.125 64.078125 
Q 24.65625 74.21875 41.21875 74.21875 
Q 47.75 74.21875 53.53125 72.484375 
Q 59.328125 70.75 64.40625 67.28125 
z
" id="DejaVuSans-67"/>
      <path d="M 9.8125 72.90625 
L 23.09375 72.90625 
L 55.421875 11.921875 
L 55.421875 72.90625 
L 64.984375 72.90625 
L 64.984375 0 
L 51.703125 0 
L 19.390625 60.984375 
L 19.390625 0 
L 9.8125 0 
z
" id="DejaVuSans-78"/>
      <path id="DejaVuSans-32"/>
     </defs>
     <use xlink:href="#DejaVuSans-67"/>
     <use x="69.824219" xlink:href="#DejaVuSans-78"/>
     <use x="144.628906" xlink:href="#DejaVuSans-78"/>
     <use x="219.433594" xlink:href="#DejaVuSans-32"/>
     <use x="251.220703" xlink:href="#DejaVuSans-53"/>
     <use x="314.84375" xlink:href="#DejaVuSans-32"/>
     <use x="346.630859" xlink:href="#DejaVuSans-83"/>
    </g>
   </g>
  </g>
 </g>
 <defs>
  <clipPath id="p8d9f8258ee">
   <rect height="304.4" width="286.268108" x="52.079375" y="7.2"/>
  </clipPath>
 </defs>
</svg>
