<?xml version="1.0" encoding="utf-8" standalone="no"?>
<!DOCTYPE svg PUBLIC "-//W3C//DTD SVG 1.1//EN"
  "http://www.w3.org/Graphics/SVG/1.1/DTD/svg11.dtd">
<!-- Created with matplotlib (https://matplotlib.org/) -->
<svg height="351.091875pt" version="1.1" viewBox="0 0 412.573316 351.091875" width="412.573316pt" xmlns="http://www.w3.org/2000/svg" xmlns:xlink="http://www.w3.org/1999/xlink">
 <metadata>
  <rdf:RDF xmlns:cc="http://creativecommons.org/ns#" xmlns:dc="http://purl.org/dc/elements/1.1/" xmlns:rdf="http://www.w3.org/1999/02/22-rdf-syntax-ns#">
   <cc:Work>
    <dc:type rdf:resource="http://purl.org/dc/dcmitype/StillImage"/>
    <dc:date>2020-09-05T00:27:14.117486</dc:date>
    <dc:format>image/svg+xml</dc:format>
    <dc:creator>
     <cc:Agent>
      <dc:title>Matplotlib v3.3.1, https://matplotlib.org/</dc:title>
     </cc:Agent>
    </dc:creator>
   </cc:Work>
  </rdf:RDF>
 </metadata>
 <defs>
  <style type="text/css">*{stroke-linecap:butt;stroke-linejoin:round;}</style>
 </defs>
 <g id="figure_1">
  <g id="patch_1">
   <path d="M 0 351.091875 
L 412.573316 351.091875 
L 412.573316 0 
L 0 0 
z
" style="fill:#ffffff;"/>
  </g>
  <g id="axes_1">
   <g id="patch_2">
    <path d="M 58.441875 311.6 
L 338.724566 311.6 
L 338.724566 7.2 
L 58.441875 7.2 
z
" style="fill:#e5e5e5;"/>
   </g>
   <g id="matplotlib.axis_1">
    <g id="xtick_1">
     <g id="line2d_1">
      <path clip-path="url(#p8f600001ef)" d="M 65.115272 311.6 
L 65.115272 7.2 
" style="fill:none;stroke:#ffffff;stroke-linecap:square;stroke-width:0.8;"/>
     </g>
     <g id="line2d_2">
      <defs>
       <path d="M 0 0 
L 0 3.5 
" id="mb37e7bbe57" style="stroke:#555555;stroke-width:0.8;"/>
      </defs>
      <g>
       <use style="fill:#555555;stroke:#555555;stroke-width:0.8;" x="65.115272" xlink:href="#mb37e7bbe57" y="311.6"/>
      </g>
     </g>
     <g id="text_1">
      <!-- 0.1 -->
      <g style="fill:#555555;" transform="translate(57.16371 326.198437)scale(0.1 -0.1)">
       <defs>
        <path d="M 31.78125 66.40625 
Q 24.171875 66.40625 20.328125 58.90625 
Q 16.5 51.421875 16.5 36.375 
Q 16.5 21.390625 20.328125 13.890625 
Q 24.171875 6.390625 31.78125 6.390625 
Q 39.453125 6.390625 43.28125 13.890625 
Q 47.125 21.390625 47.125 36.375 
Q 47.125 51.421875 43.28125 58.90625 
Q 39.453125 66.40625 31.78125 66.40625 
z
M 31.78125 74.21875 
Q 44.046875 74.21875 50.515625 64.515625 
Q 56.984375 54.828125 56.984375 36.375 
Q 56.984375 17.96875 50.515625 8.265625 
Q 44.046875 -1.421875 31.78125 -1.421875 
Q 19.53125 -1.421875 13.0625 8.265625 
Q 6.59375 17.96875 6.59375 36.375 
Q 6.59375 54.828125 13.0625 64.515625 
Q 19.53125 74.21875 31.78125 74.21875 
z
" id="DejaVuSans-48"/>
        <path d="M 10.6875 12.40625 
L 21 12.40625 
L 21 0 
L 10.6875 0 
z
" id="DejaVuSans-46"/>
        <path d="M 12.40625 8.296875 
L 28.515625 8.296875 
L 28.515625 63.921875 
L 10.984375 60.40625 
L 10.984375 69.390625 
L 28.421875 72.90625 
L 38.28125 72.90625 
L 38.28125 8.296875 
L 54.390625 8.296875 
L 54.390625 0 
L 12.40625 0 
z
" id="DejaVuSans-49"/>
       </defs>
       <use xlink:href="#DejaVuSans-48"/>
       <use x="63.623047" xlink:href="#DejaVuSans-46"/>
       <use x="95.410156" xlink:href="#DejaVuSans-49"/>
      </g>
     </g>
    </g>
    <g id="xtick_2">
     <g id="line2d_3">
      <path clip-path="url(#p8f600001ef)" d="M 98.482259 311.6 
L 98.482259 7.2 
" style="fill:none;stroke:#ffffff;stroke-linecap:square;stroke-width:0.8;"/>
     </g>
     <g id="line2d_4">
      <g>
       <use style="fill:#555555;stroke:#555555;stroke-width:0.8;" x="98.482259" xlink:href="#mb37e7bbe57" y="311.6"/>
      </g>
     </g>
     <g id="text_2">
      <!-- 0.2 -->
      <g style="fill:#555555;" transform="translate(90.530697 326.198437)scale(0.1 -0.1)">
       <defs>
        <path d="M 19.1875 8.296875 
L 53.609375 8.296875 
L 53.609375 0 
L 7.328125 0 
L 7.328125 8.296875 
Q 12.9375 14.109375 22.625 23.890625 
Q 32.328125 33.6875 34.8125 36.53125 
Q 39.546875 41.84375 41.421875 45.53125 
Q 43.3125 49.21875 43.3125 52.78125 
Q 43.3125 58.59375 39.234375 62.25 
Q 35.15625 65.921875 28.609375 65.921875 
Q 23.96875 65.921875 18.8125 64.3125 
Q 13.671875 62.703125 7.8125 59.421875 
L 7.8125 69.390625 
Q 13.765625 71.78125 18.9375 73 
Q 24.125 74.21875 28.421875 74.21875 
Q 39.75 74.21875 46.484375 68.546875 
Q 53.21875 62.890625 53.21875 53.421875 
Q 53.21875 48.921875 51.53125 44.890625 
Q 49.859375 40.875 45.40625 35.40625 
Q 44.1875 33.984375 37.640625 27.21875 
Q 31.109375 20.453125 19.1875 8.296875 
z
" id="DejaVuSans-50"/>
       </defs>
       <use xlink:href="#DejaVuSans-48"/>
       <use x="63.623047" xlink:href="#DejaVuSans-46"/>
       <use x="95.410156" xlink:href="#DejaVuSans-50"/>
      </g>
     </g>
    </g>
    <g id="xtick_3">
     <g id="line2d_5">
      <path clip-path="url(#p8f600001ef)" d="M 131.849246 311.6 
L 131.849246 7.2 
" style="fill:none;stroke:#ffffff;stroke-linecap:square;stroke-width:0.8;"/>
     </g>
     <g id="line2d_6">
      <g>
       <use style="fill:#555555;stroke:#555555;stroke-width:0.8;" x="131.849246" xlink:href="#mb37e7bbe57" y="311.6"/>
      </g>
     </g>
     <g id="text_3">
      <!-- 0.3 -->
      <g style="fill:#555555;" transform="translate(123.897684 326.198437)scale(0.1 -0.1)">
       <defs>
        <path d="M 40.578125 39.3125 
Q 47.65625 37.796875 51.625 33 
Q 55.609375 28.21875 55.609375 21.1875 
Q 55.609375 10.40625 48.1875 4.484375 
Q 40.765625 -1.421875 27.09375 -1.421875 
Q 22.515625 -1.421875 17.65625 -0.515625 
Q 12.796875 0.390625 7.625 2.203125 
L 7.625 11.71875 
Q 11.71875 9.328125 16.59375 8.109375 
Q 21.484375 6.890625 26.8125 6.890625 
Q 36.078125 6.890625 40.9375 10.546875 
Q 45.796875 14.203125 45.796875 21.1875 
Q 45.796875 27.640625 41.28125 31.265625 
Q 36.765625 34.90625 28.71875 34.90625 
L 20.21875 34.90625 
L 20.21875 43.015625 
L 29.109375 43.015625 
Q 36.375 43.015625 40.234375 45.921875 
Q 44.09375 48.828125 44.09375 54.296875 
Q 44.09375 59.90625 40.109375 62.90625 
Q 36.140625 65.921875 28.71875 65.921875 
Q 24.65625 65.921875 20.015625 65.03125 
Q 15.375 64.15625 9.8125 62.3125 
L 9.8125 71.09375 
Q 15.4375 72.65625 20.34375 73.4375 
Q 25.25 74.21875 29.59375 74.21875 
Q 40.828125 74.21875 47.359375 69.109375 
Q 53.90625 64.015625 53.90625 55.328125 
Q 53.90625 49.265625 50.4375 45.09375 
Q 46.96875 40.921875 40.578125 39.3125 
z
" id="DejaVuSans-51"/>
       </defs>
       <use xlink:href="#DejaVuSans-48"/>
       <use x="63.623047" xlink:href="#DejaVuSans-46"/>
       <use x="95.410156" xlink:href="#DejaVuSans-51"/>
      </g>
     </g>
    </g>
    <g id="xtick_4">
     <g id="line2d_7">
      <path clip-path="url(#p8f600001ef)" d="M 165.216233 311.6 
L 165.216233 7.2 
" style="fill:none;stroke:#ffffff;stroke-linecap:square;stroke-width:0.8;"/>
     </g>
     <g id="line2d_8">
      <g>
       <use style="fill:#555555;stroke:#555555;stroke-width:0.8;" x="165.216233" xlink:href="#mb37e7bbe57" y="311.6"/>
      </g>
     </g>
     <g id="text_4">
      <!-- 0.4 -->
      <g style="fill:#555555;" transform="translate(157.264671 326.198437)scale(0.1 -0.1)">
       <defs>
        <path d="M 37.796875 64.3125 
L 12.890625 25.390625 
L 37.796875 25.390625 
z
M 35.203125 72.90625 
L 47.609375 72.90625 
L 47.609375 25.390625 
L 58.015625 25.390625 
L 58.015625 17.1875 
L 47.609375 17.1875 
L 47.609375 0 
L 37.796875 0 
L 37.796875 17.1875 
L 4.890625 17.1875 
L 4.890625 26.703125 
z
" id="DejaVuSans-52"/>
       </defs>
       <use xlink:href="#DejaVuSans-48"/>
       <use x="63.623047" xlink:href="#DejaVuSans-46"/>
       <use x="95.410156" xlink:href="#DejaVuSans-52"/>
      </g>
     </g>
    </g>
    <g id="xtick_5">
     <g id="line2d_9">
      <path clip-path="url(#p8f600001ef)" d="M 198.58322 311.6 
L 198.58322 7.2 
" style="fill:none;stroke:#ffffff;stroke-linecap:square;stroke-width:0.8;"/>
     </g>
     <g id="line2d_10">
      <g>
       <use style="fill:#555555;stroke:#555555;stroke-width:0.8;" x="198.58322" xlink:href="#mb37e7bbe57" y="311.6"/>
      </g>
     </g>
     <g id="text_5">
      <!-- 0.5 -->
      <g style="fill:#555555;" transform="translate(190.631658 326.198437)scale(0.1 -0.1)">
       <defs>
        <path d="M 10.796875 72.90625 
L 49.515625 72.90625 
L 49.515625 64.59375 
L 19.828125 64.59375 
L 19.828125 46.734375 
Q 21.96875 47.46875 24.109375 47.828125 
Q 26.265625 48.1875 28.421875 48.1875 
Q 40.625 48.1875 47.75 41.5 
Q 54.890625 34.8125 54.890625 23.390625 
Q 54.890625 11.625 47.5625 5.09375 
Q 40.234375 -1.421875 26.90625 -1.421875 
Q 22.3125 -1.421875 17.546875 -0.640625 
Q 12.796875 0.140625 7.71875 1.703125 
L 7.71875 11.625 
Q 12.109375 9.234375 16.796875 8.0625 
Q 21.484375 6.890625 26.703125 6.890625 
Q 35.15625 6.890625 40.078125 11.328125 
Q 45.015625 15.765625 45.015625 23.390625 
Q 45.015625 31 40.078125 35.4375 
Q 35.15625 39.890625 26.703125 39.890625 
Q 22.75 39.890625 18.8125 39.015625 
Q 14.890625 38.140625 10.796875 36.28125 
z
" id="DejaVuSans-53"/>
       </defs>
       <use xlink:href="#DejaVuSans-48"/>
       <use x="63.623047" xlink:href="#DejaVuSans-46"/>
       <use x="95.410156" xlink:href="#DejaVuSans-53"/>
      </g>
     </g>
    </g>
    <g id="xtick_6">
     <g id="line2d_11">
      <path clip-path="url(#p8f600001ef)" d="M 231.950208 311.6 
L 231.950208 7.2 
" style="fill:none;stroke:#ffffff;stroke-linecap:square;stroke-width:0.8;"/>
     </g>
     <g id="line2d_12">
      <g>
       <use style="fill:#555555;stroke:#555555;stroke-width:0.8;" x="231.950208" xlink:href="#mb37e7bbe57" y="311.6"/>
      </g>
     </g>
     <g id="text_6">
      <!-- 0.6 -->
      <g style="fill:#555555;" transform="translate(223.998645 326.198437)scale(0.1 -0.1)">
       <defs>
        <path d="M 33.015625 40.375 
Q 26.375 40.375 22.484375 35.828125 
Q 18.609375 31.296875 18.609375 23.390625 
Q 18.609375 15.53125 22.484375 10.953125 
Q 26.375 6.390625 33.015625 6.390625 
Q 39.65625 6.390625 43.53125 10.953125 
Q 47.40625 15.53125 47.40625 23.390625 
Q 47.40625 31.296875 43.53125 35.828125 
Q 39.65625 40.375 33.015625 40.375 
z
M 52.59375 71.296875 
L 52.59375 62.3125 
Q 48.875 64.0625 45.09375 64.984375 
Q 41.3125 65.921875 37.59375 65.921875 
Q 27.828125 65.921875 22.671875 59.328125 
Q 17.53125 52.734375 16.796875 39.40625 
Q 19.671875 43.65625 24.015625 45.921875 
Q 28.375 48.1875 33.59375 48.1875 
Q 44.578125 48.1875 50.953125 41.515625 
Q 57.328125 34.859375 57.328125 23.390625 
Q 57.328125 12.15625 50.6875 5.359375 
Q 44.046875 -1.421875 33.015625 -1.421875 
Q 20.359375 -1.421875 13.671875 8.265625 
Q 6.984375 17.96875 6.984375 36.375 
Q 6.984375 53.65625 15.1875 63.9375 
Q 23.390625 74.21875 37.203125 74.21875 
Q 40.921875 74.21875 44.703125 73.484375 
Q 48.484375 72.75 52.59375 71.296875 
z
" id="DejaVuSans-54"/>
       </defs>
       <use xlink:href="#DejaVuSans-48"/>
       <use x="63.623047" xlink:href="#DejaVuSans-46"/>
       <use x="95.410156" xlink:href="#DejaVuSans-54"/>
      </g>
     </g>
    </g>
    <g id="xtick_7">
     <g id="line2d_13">
      <path clip-path="url(#p8f600001ef)" d="M 265.317195 311.6 
L 265.317195 7.2 
" style="fill:none;stroke:#ffffff;stroke-linecap:square;stroke-width:0.8;"/>
     </g>
     <g id="line2d_14">
      <g>
       <use style="fill:#555555;stroke:#555555;stroke-width:0.8;" x="265.317195" xlink:href="#mb37e7bbe57" y="311.6"/>
      </g>
     </g>
     <g id="text_7">
      <!-- 0.7 -->
      <g style="fill:#555555;" transform="translate(257.365632 326.198437)scale(0.1 -0.1)">
       <defs>
        <path d="M 8.203125 72.90625 
L 55.078125 72.90625 
L 55.078125 68.703125 
L 28.609375 0 
L 18.3125 0 
L 43.21875 64.59375 
L 8.203125 64.59375 
z
" id="DejaVuSans-55"/>
       </defs>
       <use xlink:href="#DejaVuSans-48"/>
       <use x="63.623047" xlink:href="#DejaVuSans-46"/>
       <use x="95.410156" xlink:href="#DejaVuSans-55"/>
      </g>
     </g>
    </g>
    <g id="xtick_8">
     <g id="line2d_15">
      <path clip-path="url(#p8f600001ef)" d="M 298.684182 311.6 
L 298.684182 7.2 
" style="fill:none;stroke:#ffffff;stroke-linecap:square;stroke-width:0.8;"/>
     </g>
     <g id="line2d_16">
      <g>
       <use style="fill:#555555;stroke:#555555;stroke-width:0.8;" x="298.684182" xlink:href="#mb37e7bbe57" y="311.6"/>
      </g>
     </g>
     <g id="text_8">
      <!-- 0.8 -->
      <g style="fill:#555555;" transform="translate(290.732619 326.198437)scale(0.1 -0.1)">
       <defs>
        <path d="M 31.78125 34.625 
Q 24.75 34.625 20.71875 30.859375 
Q 16.703125 27.09375 16.703125 20.515625 
Q 16.703125 13.921875 20.71875 10.15625 
Q 24.75 6.390625 31.78125 6.390625 
Q 38.8125 6.390625 42.859375 10.171875 
Q 46.921875 13.96875 46.921875 20.515625 
Q 46.921875 27.09375 42.890625 30.859375 
Q 38.875 34.625 31.78125 34.625 
z
M 21.921875 38.8125 
Q 15.578125 40.375 12.03125 44.71875 
Q 8.5 49.078125 8.5 55.328125 
Q 8.5 64.0625 14.71875 69.140625 
Q 20.953125 74.21875 31.78125 74.21875 
Q 42.671875 74.21875 48.875 69.140625 
Q 55.078125 64.0625 55.078125 55.328125 
Q 55.078125 49.078125 51.53125 44.71875 
Q 48 40.375 41.703125 38.8125 
Q 48.828125 37.15625 52.796875 32.3125 
Q 56.78125 27.484375 56.78125 20.515625 
Q 56.78125 9.90625 50.3125 4.234375 
Q 43.84375 -1.421875 31.78125 -1.421875 
Q 19.734375 -1.421875 13.25 4.234375 
Q 6.78125 9.90625 6.78125 20.515625 
Q 6.78125 27.484375 10.78125 32.3125 
Q 14.796875 37.15625 21.921875 38.8125 
z
M 18.3125 54.390625 
Q 18.3125 48.734375 21.84375 45.5625 
Q 25.390625 42.390625 31.78125 42.390625 
Q 38.140625 42.390625 41.71875 45.5625 
Q 45.3125 48.734375 45.3125 54.390625 
Q 45.3125 60.0625 41.71875 63.234375 
Q 38.140625 66.40625 31.78125 66.40625 
Q 25.390625 66.40625 21.84375 63.234375 
Q 18.3125 60.0625 18.3125 54.390625 
z
" id="DejaVuSans-56"/>
       </defs>
       <use xlink:href="#DejaVuSans-48"/>
       <use x="63.623047" xlink:href="#DejaVuSans-46"/>
       <use x="95.410156" xlink:href="#DejaVuSans-56"/>
      </g>
     </g>
    </g>
    <g id="xtick_9">
     <g id="line2d_17">
      <path clip-path="url(#p8f600001ef)" d="M 332.051169 311.6 
L 332.051169 7.2 
" style="fill:none;stroke:#ffffff;stroke-linecap:square;stroke-width:0.8;"/>
     </g>
     <g id="line2d_18">
      <g>
       <use style="fill:#555555;stroke:#555555;stroke-width:0.8;" x="332.051169" xlink:href="#mb37e7bbe57" y="311.6"/>
      </g>
     </g>
     <g id="text_9">
      <!-- 0.9 -->
      <g style="fill:#555555;" transform="translate(324.099606 326.198437)scale(0.1 -0.1)">
       <defs>
        <path d="M 10.984375 1.515625 
L 10.984375 10.5 
Q 14.703125 8.734375 18.5 7.8125 
Q 22.3125 6.890625 25.984375 6.890625 
Q 35.75 6.890625 40.890625 13.453125 
Q 46.046875 20.015625 46.78125 33.40625 
Q 43.953125 29.203125 39.59375 26.953125 
Q 35.25 24.703125 29.984375 24.703125 
Q 19.046875 24.703125 12.671875 31.3125 
Q 6.296875 37.9375 6.296875 49.421875 
Q 6.296875 60.640625 12.9375 67.421875 
Q 19.578125 74.21875 30.609375 74.21875 
Q 43.265625 74.21875 49.921875 64.515625 
Q 56.59375 54.828125 56.59375 36.375 
Q 56.59375 19.140625 48.40625 8.859375 
Q 40.234375 -1.421875 26.421875 -1.421875 
Q 22.703125 -1.421875 18.890625 -0.6875 
Q 15.09375 0.046875 10.984375 1.515625 
z
M 30.609375 32.421875 
Q 37.25 32.421875 41.125 36.953125 
Q 45.015625 41.5 45.015625 49.421875 
Q 45.015625 57.28125 41.125 61.84375 
Q 37.25 66.40625 30.609375 66.40625 
Q 23.96875 66.40625 20.09375 61.84375 
Q 16.21875 57.28125 16.21875 49.421875 
Q 16.21875 41.5 20.09375 36.953125 
Q 23.96875 32.421875 30.609375 32.421875 
z
" id="DejaVuSans-57"/>
       </defs>
       <use xlink:href="#DejaVuSans-48"/>
       <use x="63.623047" xlink:href="#DejaVuSans-46"/>
       <use x="95.410156" xlink:href="#DejaVuSans-57"/>
      </g>
     </g>
    </g>
    <g id="text_10">
     <!-- ratio -->
     <g style="fill:#555555;" transform="translate(184.74947 341.39625)scale(0.12 -0.12)">
      <defs>
       <path d="M 41.109375 46.296875 
Q 39.59375 47.171875 37.8125 47.578125 
Q 36.03125 48 33.890625 48 
Q 26.265625 48 22.1875 43.046875 
Q 18.109375 38.09375 18.109375 28.8125 
L 18.109375 0 
L 9.078125 0 
L 9.078125 54.6875 
L 18.109375 54.6875 
L 18.109375 46.1875 
Q 20.953125 51.171875 25.484375 53.578125 
Q 30.03125 56 36.53125 56 
Q 37.453125 56 38.578125 55.875 
Q 39.703125 55.765625 41.0625 55.515625 
z
" id="DejaVuSans-114"/>
       <path d="M 34.28125 27.484375 
Q 23.390625 27.484375 19.1875 25 
Q 14.984375 22.515625 14.984375 16.5 
Q 14.984375 11.71875 18.140625 8.90625 
Q 21.296875 6.109375 26.703125 6.109375 
Q 34.1875 6.109375 38.703125 11.40625 
Q 43.21875 16.703125 43.21875 25.484375 
L 43.21875 27.484375 
z
M 52.203125 31.203125 
L 52.203125 0 
L 43.21875 0 
L 43.21875 8.296875 
Q 40.140625 3.328125 35.546875 0.953125 
Q 30.953125 -1.421875 24.3125 -1.421875 
Q 15.921875 -1.421875 10.953125 3.296875 
Q 6 8.015625 6 15.921875 
Q 6 25.140625 12.171875 29.828125 
Q 18.359375 34.515625 30.609375 34.515625 
L 43.21875 34.515625 
L 43.21875 35.40625 
Q 43.21875 41.609375 39.140625 45 
Q 35.0625 48.390625 27.6875 48.390625 
Q 23 48.390625 18.546875 47.265625 
Q 14.109375 46.140625 10.015625 43.890625 
L 10.015625 52.203125 
Q 14.9375 54.109375 19.578125 55.046875 
Q 24.21875 56 28.609375 56 
Q 40.484375 56 46.34375 49.84375 
Q 52.203125 43.703125 52.203125 31.203125 
z
" id="DejaVuSans-97"/>
       <path d="M 18.3125 70.21875 
L 18.3125 54.6875 
L 36.8125 54.6875 
L 36.8125 47.703125 
L 18.3125 47.703125 
L 18.3125 18.015625 
Q 18.3125 11.328125 20.140625 9.421875 
Q 21.96875 7.515625 27.59375 7.515625 
L 36.8125 7.515625 
L 36.8125 0 
L 27.59375 0 
Q 17.1875 0 13.234375 3.875 
Q 9.28125 7.765625 9.28125 18.015625 
L 9.28125 47.703125 
L 2.6875 47.703125 
L 2.6875 54.6875 
L 9.28125 54.6875 
L 9.28125 70.21875 
z
" id="DejaVuSans-116"/>
       <path d="M 9.421875 54.6875 
L 18.40625 54.6875 
L 18.40625 0 
L 9.421875 0 
z
M 9.421875 75.984375 
L 18.40625 75.984375 
L 18.40625 64.59375 
L 9.421875 64.59375 
z
" id="DejaVuSans-105"/>
       <path d="M 30.609375 48.390625 
Q 23.390625 48.390625 19.1875 42.75 
Q 14.984375 37.109375 14.984375 27.296875 
Q 14.984375 17.484375 19.15625 11.84375 
Q 23.34375 6.203125 30.609375 6.203125 
Q 37.796875 6.203125 41.984375 11.859375 
Q 46.1875 17.53125 46.1875 27.296875 
Q 46.1875 37.015625 41.984375 42.703125 
Q 37.796875 48.390625 30.609375 48.390625 
z
M 30.609375 56 
Q 42.328125 56 49.015625 48.375 
Q 55.71875 40.765625 55.71875 27.296875 
Q 55.71875 13.875 49.015625 6.21875 
Q 42.328125 -1.421875 30.609375 -1.421875 
Q 18.84375 -1.421875 12.171875 6.21875 
Q 5.515625 13.875 5.515625 27.296875 
Q 5.515625 40.765625 12.171875 48.375 
Q 18.84375 56 30.609375 56 
z
" id="DejaVuSans-111"/>
      </defs>
      <use xlink:href="#DejaVuSans-114"/>
      <use x="41.113281" xlink:href="#DejaVuSans-97"/>
      <use x="102.392578" xlink:href="#DejaVuSans-116"/>
      <use x="141.601562" xlink:href="#DejaVuSans-105"/>
      <use x="169.384766" xlink:href="#DejaVuSans-111"/>
     </g>
    </g>
   </g>
   <g id="matplotlib.axis_2">
    <g id="ytick_1">
     <g id="line2d_19">
      <path clip-path="url(#p8f600001ef)" d="M 58.441875 293.375444 
L 338.724566 293.375444 
" style="fill:none;stroke:#ffffff;stroke-linecap:square;stroke-width:0.8;"/>
     </g>
     <g id="line2d_20">
      <defs>
       <path d="M 0 0 
L -3.5 0 
" id="m61313e66fb" style="stroke:#555555;stroke-width:0.8;"/>
      </defs>
      <g>
       <use style="fill:#555555;stroke:#555555;stroke-width:0.8;" x="58.441875" xlink:href="#m61313e66fb" y="293.375444"/>
      </g>
     </g>
     <g id="text_11">
      <!-- 0.750 -->
      <g style="fill:#555555;" transform="translate(22.81375 297.174663)scale(0.1 -0.1)">
       <use xlink:href="#DejaVuSans-48"/>
       <use x="63.623047" xlink:href="#DejaVuSans-46"/>
       <use x="95.410156" xlink:href="#DejaVuSans-55"/>
       <use x="159.033203" xlink:href="#DejaVuSans-53"/>
       <use x="222.65625" xlink:href="#DejaVuSans-48"/>
      </g>
     </g>
    </g>
    <g id="ytick_2">
     <g id="line2d_21">
      <path clip-path="url(#p8f600001ef)" d="M 58.441875 251.429612 
L 338.724566 251.429612 
" style="fill:none;stroke:#ffffff;stroke-linecap:square;stroke-width:0.8;"/>
     </g>
     <g id="line2d_22">
      <g>
       <use style="fill:#555555;stroke:#555555;stroke-width:0.8;" x="58.441875" xlink:href="#m61313e66fb" y="251.429612"/>
      </g>
     </g>
     <g id="text_12">
      <!-- 0.775 -->
      <g style="fill:#555555;" transform="translate(22.81375 255.228831)scale(0.1 -0.1)">
       <use xlink:href="#DejaVuSans-48"/>
       <use x="63.623047" xlink:href="#DejaVuSans-46"/>
       <use x="95.410156" xlink:href="#DejaVuSans-55"/>
       <use x="159.033203" xlink:href="#DejaVuSans-55"/>
       <use x="222.65625" xlink:href="#DejaVuSans-53"/>
      </g>
     </g>
    </g>
    <g id="ytick_3">
     <g id="line2d_23">
      <path clip-path="url(#p8f600001ef)" d="M 58.441875 209.483779 
L 338.724566 209.483779 
" style="fill:none;stroke:#ffffff;stroke-linecap:square;stroke-width:0.8;"/>
     </g>
     <g id="line2d_24">
      <g>
       <use style="fill:#555555;stroke:#555555;stroke-width:0.8;" x="58.441875" xlink:href="#m61313e66fb" y="209.483779"/>
      </g>
     </g>
     <g id="text_13">
      <!-- 0.800 -->
      <g style="fill:#555555;" transform="translate(22.81375 213.282998)scale(0.1 -0.1)">
       <use xlink:href="#DejaVuSans-48"/>
       <use x="63.623047" xlink:href="#DejaVuSans-46"/>
       <use x="95.410156" xlink:href="#DejaVuSans-56"/>
       <use x="159.033203" xlink:href="#DejaVuSans-48"/>
       <use x="222.65625" xlink:href="#DejaVuSans-48"/>
      </g>
     </g>
    </g>
    <g id="ytick_4">
     <g id="line2d_25">
      <path clip-path="url(#p8f600001ef)" d="M 58.441875 167.537947 
L 338.724566 167.537947 
" style="fill:none;stroke:#ffffff;stroke-linecap:square;stroke-width:0.8;"/>
     </g>
     <g id="line2d_26">
      <g>
       <use style="fill:#555555;stroke:#555555;stroke-width:0.8;" x="58.441875" xlink:href="#m61313e66fb" y="167.537947"/>
      </g>
     </g>
     <g id="text_14">
      <!-- 0.825 -->
      <g style="fill:#555555;" transform="translate(22.81375 171.337166)scale(0.1 -0.1)">
       <use xlink:href="#DejaVuSans-48"/>
       <use x="63.623047" xlink:href="#DejaVuSans-46"/>
       <use x="95.410156" xlink:href="#DejaVuSans-56"/>
       <use x="159.033203" xlink:href="#DejaVuSans-50"/>
       <use x="222.65625" xlink:href="#DejaVuSans-53"/>
      </g>
     </g>
    </g>
    <g id="ytick_5">
     <g id="line2d_27">
      <path clip-path="url(#p8f600001ef)" d="M 58.441875 125.592114 
L 338.724566 125.592114 
" style="fill:none;stroke:#ffffff;stroke-linecap:square;stroke-width:0.8;"/>
     </g>
     <g id="line2d_28">
      <g>
       <use style="fill:#555555;stroke:#555555;stroke-width:0.8;" x="58.441875" xlink:href="#m61313e66fb" y="125.592114"/>
      </g>
     </g>
     <g id="text_15">
      <!-- 0.850 -->
      <g style="fill:#555555;" transform="translate(22.81375 129.391333)scale(0.1 -0.1)">
       <use xlink:href="#DejaVuSans-48"/>
       <use x="63.623047" xlink:href="#DejaVuSans-46"/>
       <use x="95.410156" xlink:href="#DejaVuSans-56"/>
       <use x="159.033203" xlink:href="#DejaVuSans-53"/>
       <use x="222.65625" xlink:href="#DejaVuSans-48"/>
      </g>
     </g>
    </g>
    <g id="ytick_6">
     <g id="line2d_29">
      <path clip-path="url(#p8f600001ef)" d="M 58.441875 83.646282 
L 338.724566 83.646282 
" style="fill:none;stroke:#ffffff;stroke-linecap:square;stroke-width:0.8;"/>
     </g>
     <g id="line2d_30">
      <g>
       <use style="fill:#555555;stroke:#555555;stroke-width:0.8;" x="58.441875" xlink:href="#m61313e66fb" y="83.646282"/>
      </g>
     </g>
     <g id="text_16">
      <!-- 0.875 -->
      <g style="fill:#555555;" transform="translate(22.81375 87.445501)scale(0.1 -0.1)">
       <use xlink:href="#DejaVuSans-48"/>
       <use x="63.623047" xlink:href="#DejaVuSans-46"/>
       <use x="95.410156" xlink:href="#DejaVuSans-56"/>
       <use x="159.033203" xlink:href="#DejaVuSans-55"/>
       <use x="222.65625" xlink:href="#DejaVuSans-53"/>
      </g>
     </g>
    </g>
    <g id="ytick_7">
     <g id="line2d_31">
      <path clip-path="url(#p8f600001ef)" d="M 58.441875 41.70045 
L 338.724566 41.70045 
" style="fill:none;stroke:#ffffff;stroke-linecap:square;stroke-width:0.8;"/>
     </g>
     <g id="line2d_32">
      <g>
       <use style="fill:#555555;stroke:#555555;stroke-width:0.8;" x="58.441875" xlink:href="#m61313e66fb" y="41.70045"/>
      </g>
     </g>
     <g id="text_17">
      <!-- 0.900 -->
      <g style="fill:#555555;" transform="translate(22.81375 45.499668)scale(0.1 -0.1)">
       <use xlink:href="#DejaVuSans-48"/>
       <use x="63.623047" xlink:href="#DejaVuSans-46"/>
       <use x="95.410156" xlink:href="#DejaVuSans-57"/>
       <use x="159.033203" xlink:href="#DejaVuSans-48"/>
       <use x="222.65625" xlink:href="#DejaVuSans-48"/>
      </g>
     </g>
    </g>
    <g id="text_18">
     <!-- accuracy -->
     <g style="fill:#555555;" transform="translate(16.318125 186.47125)rotate(-90)scale(0.12 -0.12)">
      <defs>
       <path d="M 48.78125 52.59375 
L 48.78125 44.1875 
Q 44.96875 46.296875 41.140625 47.34375 
Q 37.3125 48.390625 33.40625 48.390625 
Q 24.65625 48.390625 19.8125 42.84375 
Q 14.984375 37.3125 14.984375 27.296875 
Q 14.984375 17.28125 19.8125 11.734375 
Q 24.65625 6.203125 33.40625 6.203125 
Q 37.3125 6.203125 41.140625 7.25 
Q 44.96875 8.296875 48.78125 10.40625 
L 48.78125 2.09375 
Q 45.015625 0.34375 40.984375 -0.53125 
Q 36.96875 -1.421875 32.421875 -1.421875 
Q 20.0625 -1.421875 12.78125 6.34375 
Q 5.515625 14.109375 5.515625 27.296875 
Q 5.515625 40.671875 12.859375 48.328125 
Q 20.21875 56 33.015625 56 
Q 37.15625 56 41.109375 55.140625 
Q 45.0625 54.296875 48.78125 52.59375 
z
" id="DejaVuSans-99"/>
       <path d="M 8.5 21.578125 
L 8.5 54.6875 
L 17.484375 54.6875 
L 17.484375 21.921875 
Q 17.484375 14.15625 20.5 10.265625 
Q 23.53125 6.390625 29.59375 6.390625 
Q 36.859375 6.390625 41.078125 11.03125 
Q 45.3125 15.671875 45.3125 23.6875 
L 45.3125 54.6875 
L 54.296875 54.6875 
L 54.296875 0 
L 45.3125 0 
L 45.3125 8.40625 
Q 42.046875 3.421875 37.71875 1 
Q 33.40625 -1.421875 27.6875 -1.421875 
Q 18.265625 -1.421875 13.375 4.4375 
Q 8.5 10.296875 8.5 21.578125 
z
M 31.109375 56 
z
" id="DejaVuSans-117"/>
       <path d="M 32.171875 -5.078125 
Q 28.375 -14.84375 24.75 -17.8125 
Q 21.140625 -20.796875 15.09375 -20.796875 
L 7.90625 -20.796875 
L 7.90625 -13.28125 
L 13.1875 -13.28125 
Q 16.890625 -13.28125 18.9375 -11.515625 
Q 21 -9.765625 23.484375 -3.21875 
L 25.09375 0.875 
L 2.984375 54.6875 
L 12.5 54.6875 
L 29.59375 11.921875 
L 46.6875 54.6875 
L 56.203125 54.6875 
z
" id="DejaVuSans-121"/>
      </defs>
      <use xlink:href="#DejaVuSans-97"/>
      <use x="61.279297" xlink:href="#DejaVuSans-99"/>
      <use x="116.259766" xlink:href="#DejaVuSans-99"/>
      <use x="171.240234" xlink:href="#DejaVuSans-117"/>
      <use x="234.619141" xlink:href="#DejaVuSans-114"/>
      <use x="275.732422" xlink:href="#DejaVuSans-97"/>
      <use x="337.011719" xlink:href="#DejaVuSans-99"/>
      <use x="391.992188" xlink:href="#DejaVuSans-121"/>
     </g>
    </g>
   </g>
   <g id="PathCollection_1">
    <defs>
     <path d="M 0 3 
C 0.795609 3 1.55874 2.683901 2.12132 2.12132 
C 2.683901 1.55874 3 0.795609 3 0 
C 3 -0.795609 2.683901 -1.55874 2.12132 -2.12132 
C 1.55874 -2.683901 0.795609 -3 0 -3 
C -0.795609 -3 -1.55874 -2.683901 -2.12132 -2.12132 
C -2.683901 -1.55874 -3 -0.795609 -3 0 
C -3 0.795609 -2.683901 1.55874 -2.12132 2.12132 
C -1.55874 2.683901 -0.795609 3 0 3 
z
" id="m42bffb42db" style="stroke:#e24a33;stroke-opacity:0.8;"/>
    </defs>
    <g clip-path="url(#p8f600001ef)">
     <use style="fill:#e24a33;fill-opacity:0.8;stroke:#e24a33;stroke-opacity:0.8;" x="40.090032" xlink:href="#m42bffb42db" y="279.178393"/>
     <use style="fill:#e24a33;fill-opacity:0.8;stroke:#e24a33;stroke-opacity:0.8;" x="48.431779" xlink:href="#m42bffb42db" y="241.450919"/>
     <use style="fill:#e24a33;fill-opacity:0.8;stroke:#e24a33;stroke-opacity:0.8;" x="56.773526" xlink:href="#m42bffb42db" y="202.228284"/>
     <use style="fill:#e24a33;fill-opacity:0.8;stroke:#e24a33;stroke-opacity:0.8;" x="65.115272" xlink:href="#m42bffb42db" y="189.909058"/>
     <use style="fill:#e24a33;fill-opacity:0.8;stroke:#e24a33;stroke-opacity:0.8;" x="73.457019" xlink:href="#m42bffb42db" y="176.885875"/>
     <use style="fill:#e24a33;fill-opacity:0.8;stroke:#e24a33;stroke-opacity:0.8;" x="81.798766" xlink:href="#m42bffb42db" y="178.493211"/>
     <use style="fill:#e24a33;fill-opacity:0.8;stroke:#e24a33;stroke-opacity:0.8;" x="90.140513" xlink:href="#m42bffb42db" y="167.385417"/>
     <use style="fill:#e24a33;fill-opacity:0.8;stroke:#e24a33;stroke-opacity:0.8;" x="98.482259" xlink:href="#m42bffb42db" y="168.796322"/>
     <use style="fill:#e24a33;fill-opacity:0.8;stroke:#e24a33;stroke-opacity:0.8;" x="106.824006" xlink:href="#m42bffb42db" y="162.287952"/>
     <use style="fill:#e24a33;fill-opacity:0.8;stroke:#e24a33;stroke-opacity:0.8;" x="115.165753" xlink:href="#m42bffb42db" y="156.016825"/>
     <use style="fill:#e24a33;fill-opacity:0.8;stroke:#e24a33;stroke-opacity:0.8;" x="123.5075" xlink:href="#m42bffb42db" y="150.933183"/>
     <use style="fill:#e24a33;fill-opacity:0.8;stroke:#e24a33;stroke-opacity:0.8;" x="131.849246" xlink:href="#m42bffb42db" y="144.048281"/>
     <use style="fill:#e24a33;fill-opacity:0.8;stroke:#e24a33;stroke-opacity:0.8;" x="140.190993" xlink:href="#m42bffb42db" y="138.393361"/>
     <use style="fill:#e24a33;fill-opacity:0.8;stroke:#e24a33;stroke-opacity:0.8;" x="148.53274" xlink:href="#m42bffb42db" y="137.466012"/>
     <use style="fill:#e24a33;fill-opacity:0.8;stroke:#e24a33;stroke-opacity:0.8;" x="156.874487" xlink:href="#m42bffb42db" y="137.806741"/>
     <use style="fill:#e24a33;fill-opacity:0.8;stroke:#e24a33;stroke-opacity:0.8;" x="165.216233" xlink:href="#m42bffb42db" y="134.26092"/>
     <use style="fill:#e24a33;fill-opacity:0.8;stroke:#e24a33;stroke-opacity:0.8;" x="173.55798" xlink:href="#m42bffb42db" y="124.862622"/>
     <use style="fill:#e24a33;fill-opacity:0.8;stroke:#e24a33;stroke-opacity:0.8;" x="181.899727" xlink:href="#m42bffb42db" y="120.711145"/>
     <use style="fill:#e24a33;fill-opacity:0.8;stroke:#e24a33;stroke-opacity:0.8;" x="190.241474" xlink:href="#m42bffb42db" y="119.999337"/>
     <use style="fill:#e24a33;fill-opacity:0.8;stroke:#e24a33;stroke-opacity:0.8;" x="198.58322" xlink:href="#m42bffb42db" y="118.209648"/>
     <use style="fill:#e24a33;fill-opacity:0.8;stroke:#e24a33;stroke-opacity:0.8;" x="206.924967" xlink:href="#m42bffb42db" y="120.117079"/>
     <use style="fill:#e24a33;fill-opacity:0.8;stroke:#e24a33;stroke-opacity:0.8;" x="215.266714" xlink:href="#m42bffb42db" y="116.270818"/>
     <use style="fill:#e24a33;fill-opacity:0.8;stroke:#e24a33;stroke-opacity:0.8;" x="223.608461" xlink:href="#m42bffb42db" y="115.919899"/>
     <use style="fill:#e24a33;fill-opacity:0.8;stroke:#e24a33;stroke-opacity:0.8;" x="231.950208" xlink:href="#m42bffb42db" y="115.105656"/>
     <use style="fill:#e24a33;fill-opacity:0.8;stroke:#e24a33;stroke-opacity:0.8;" x="240.291954" xlink:href="#m42bffb42db" y="111.050893"/>
     <use style="fill:#e24a33;fill-opacity:0.8;stroke:#e24a33;stroke-opacity:0.8;" x="248.633701" xlink:href="#m42bffb42db" y="109.293162"/>
     <use style="fill:#e24a33;fill-opacity:0.8;stroke:#e24a33;stroke-opacity:0.8;" x="256.975448" xlink:href="#m42bffb42db" y="114.492602"/>
     <use style="fill:#e24a33;fill-opacity:0.8;stroke:#e24a33;stroke-opacity:0.8;" x="265.317195" xlink:href="#m42bffb42db" y="114.406559"/>
     <use style="fill:#e24a33;fill-opacity:0.8;stroke:#e24a33;stroke-opacity:0.8;" x="273.658941" xlink:href="#m42bffb42db" y="110.034024"/>
     <use style="fill:#e24a33;fill-opacity:0.8;stroke:#e24a33;stroke-opacity:0.8;" x="282.000688" xlink:href="#m42bffb42db" y="111.498315"/>
     <use style="fill:#e24a33;fill-opacity:0.8;stroke:#e24a33;stroke-opacity:0.8;" x="290.342435" xlink:href="#m42bffb42db" y="104.339559"/>
     <use style="fill:#e24a33;fill-opacity:0.8;stroke:#e24a33;stroke-opacity:0.8;" x="298.684182" xlink:href="#m42bffb42db" y="100.424615"/>
     <use style="fill:#e24a33;fill-opacity:0.8;stroke:#e24a33;stroke-opacity:0.8;" x="307.025928" xlink:href="#m42bffb42db" y="98.267401"/>
     <use style="fill:#e24a33;fill-opacity:0.8;stroke:#e24a33;stroke-opacity:0.8;" x="315.367675" xlink:href="#m42bffb42db" y="85.324115"/>
     <use style="fill:#e24a33;fill-opacity:0.8;stroke:#e24a33;stroke-opacity:0.8;" x="323.709422" xlink:href="#m42bffb42db" y="81.968449"/>
     <use style="fill:#e24a33;fill-opacity:0.8;stroke:#e24a33;stroke-opacity:0.8;" x="332.051169" xlink:href="#m42bffb42db" y="98.746782"/>
     <use style="fill:#e24a33;fill-opacity:0.8;stroke:#e24a33;stroke-opacity:0.8;" x="340.392915" xlink:href="#m42bffb42db" y="104.339559"/>
     <use style="fill:#e24a33;fill-opacity:0.8;stroke:#e24a33;stroke-opacity:0.8;" x="348.734662" xlink:href="#m42bffb42db" y="92.035448"/>
     <use style="fill:#e24a33;fill-opacity:0.8;stroke:#e24a33;stroke-opacity:0.8;" x="357.076409" xlink:href="#m42bffb42db" y="115.525115"/>
    </g>
   </g>
   <g id="PolyCollection_1">
    <path clip-path="url(#p8f600001ef)" d="M 40.090032 174.515088 
L 40.090032 214.724775 
L 43.291915 213.26795 
L 46.493797 211.811126 
L 49.69568 210.354301 
L 52.897563 208.897476 
L 56.099445 207.398786 
L 59.301328 205.890334 
L 62.50321 204.381883 
L 65.705093 202.871339 
L 68.906975 201.348644 
L 72.108858 199.706209 
L 75.310741 198.09142 
L 78.512623 196.577023 
L 81.714506 195.085335 
L 84.916388 193.593647 
L 88.118271 192.101288 
L 91.320154 190.608697 
L 94.522036 189.116105 
L 97.723919 187.623513 
L 100.925801 186.130922 
L 104.127684 184.63833 
L 107.329567 183.144637 
L 110.531449 181.600107 
L 113.733332 180.004894 
L 116.935214 178.409681 
L 120.137097 176.987271 
L 123.33898 175.579345 
L 126.540862 174.155987 
L 129.742745 172.612327 
L 132.944627 171.162663 
L 136.14651 169.619608 
L 139.348393 168.142732 
L 142.550275 166.73 
L 145.752158 165.323109 
L 148.95404 163.779307 
L 152.155923 162.253901 
L 155.357805 160.715638 
L 158.559688 159.15295 
L 161.761571 157.611213 
L 164.963453 156.227593 
L 168.165336 154.673183 
L 171.367218 153.187945 
L 174.569101 151.781924 
L 177.770984 150.338222 
L 180.972866 148.932148 
L 184.174749 147.472047 
L 187.376631 146.12878 
L 190.578514 144.80875 
L 193.780397 143.4978 
L 196.982279 142.113671 
L 200.184162 140.838599 
L 203.386044 139.489853 
L 206.587927 138.190852 
L 209.78981 136.710471 
L 212.991692 135.385584 
L 216.193575 134.060292 
L 219.395457 132.773216 
L 222.59734 131.55986 
L 225.799223 130.235325 
L 229.001105 128.976661 
L 232.202988 127.722937 
L 235.40487 126.376279 
L 238.606753 125.139263 
L 241.808635 123.905337 
L 245.010518 122.686078 
L 248.212401 121.4442 
L 251.414283 120.282646 
L 254.616166 119.184861 
L 257.818048 117.968138 
L 261.019931 116.824607 
L 264.221814 115.760763 
L 267.423696 114.649036 
L 270.625579 113.496681 
L 273.827461 112.561009 
L 277.029344 111.483417 
L 280.231227 110.445238 
L 283.433109 109.324686 
L 286.634992 108.279893 
L 289.836874 107.255762 
L 293.038757 106.247843 
L 296.24064 105.312351 
L 299.442522 104.357717 
L 302.644405 103.414774 
L 305.846287 102.421833 
L 309.04817 101.388101 
L 312.250053 100.440215 
L 315.451935 99.598043 
L 318.653818 98.634921 
L 321.8557 97.651817 
L 325.057583 96.651067 
L 328.259465 95.7031 
L 331.461348 94.755133 
L 334.663231 93.807166 
L 337.865113 92.854786 
L 341.066996 91.914965 
L 344.268878 90.967943 
L 347.470761 90.088165 
L 350.672644 89.207274 
L 353.874526 88.324639 
L 357.076409 87.355288 
L 357.076409 59.739491 
L 357.076409 59.739491 
L 353.874526 61.3022 
L 350.672644 62.808948 
L 347.470761 64.347146 
L 344.268878 65.971491 
L 341.066996 67.416309 
L 337.865113 68.833024 
L 334.663231 70.327438 
L 331.461348 71.727105 
L 328.259465 73.115275 
L 325.057583 74.541518 
L 321.8557 76.137036 
L 318.653818 77.735978 
L 315.451935 79.28745 
L 312.250053 80.846675 
L 309.04817 82.346721 
L 305.846287 83.846768 
L 302.644405 85.346814 
L 299.442522 86.818572 
L 296.24064 88.153815 
L 293.038757 89.457484 
L 289.836874 90.780823 
L 286.634992 92.344311 
L 283.433109 93.779215 
L 280.231227 95.173408 
L 277.029344 96.568892 
L 273.827461 98.132909 
L 270.625579 99.770636 
L 267.423696 101.165444 
L 264.221814 102.483537 
L 261.019931 103.799354 
L 257.818048 105.171283 
L 254.616166 106.695867 
L 251.414283 108.068171 
L 248.212401 109.522391 
L 245.010518 111.041134 
L 241.808635 112.526968 
L 238.606753 113.609781 
L 235.40487 115.065233 
L 232.202988 116.380088 
L 229.001105 117.618571 
L 225.799223 118.789892 
L 222.59734 119.905537 
L 219.395457 121.183701 
L 216.193575 122.411057 
L 212.991692 123.520777 
L 209.78981 124.690576 
L 206.587927 125.784646 
L 203.386044 127.011195 
L 200.184162 128.119684 
L 196.982279 129.126343 
L 193.780397 130.07847 
L 190.578514 131.060717 
L 187.376631 132.171221 
L 184.174749 133.257463 
L 180.972866 134.270012 
L 177.770984 135.210542 
L 174.569101 136.101604 
L 171.367218 136.994731 
L 168.165336 137.871955 
L 164.963453 138.782851 
L 161.761571 139.717033 
L 158.559688 140.645002 
L 155.357805 141.615367 
L 152.155923 142.570209 
L 148.95404 143.575568 
L 145.752158 144.397606 
L 142.550275 145.275287 
L 139.348393 146.171159 
L 136.14651 147.017542 
L 132.944627 147.981685 
L 129.742745 148.846439 
L 126.540862 149.749696 
L 123.33898 150.614027 
L 120.137097 151.548942 
L 116.935214 152.467234 
L 113.733332 153.29834 
L 110.531449 154.243876 
L 107.329567 155.194962 
L 104.127684 156.146048 
L 100.925801 157.029254 
L 97.723919 157.9434 
L 94.522036 158.839702 
L 91.320154 159.731925 
L 88.118271 160.625156 
L 84.916388 161.538587 
L 81.714506 162.494551 
L 78.512623 163.451023 
L 75.310741 164.408231 
L 72.108858 165.365439 
L 68.906975 166.302938 
L 65.705093 167.232435 
L 62.50321 168.161932 
L 59.301328 169.091428 
L 56.099445 170.020925 
L 52.897563 170.924054 
L 49.69568 171.804749 
L 46.493797 172.720356 
L 43.291915 173.617722 
L 40.090032 174.515088 
z
" style="fill:#e24a33;fill-opacity:0.15;"/>
   </g>
   <g id="PathCollection_2">
    <defs>
     <path d="M 0 3 
C 0.795609 3 1.55874 2.683901 2.12132 2.12132 
C 2.683901 1.55874 3 0.795609 3 0 
C 3 -0.795609 2.683901 -1.55874 2.12132 -2.12132 
C 1.55874 -2.683901 0.795609 -3 0 -3 
C -0.795609 -3 -1.55874 -2.683901 -2.12132 -2.12132 
C -2.683901 -1.55874 -3 -0.795609 -3 0 
C -3 0.795609 -2.683901 1.55874 -2.12132 2.12132 
C -1.55874 2.683901 -0.795609 3 0 3 
z
" id="mee9ce8db0f" style="stroke:#348abd;stroke-opacity:0.8;"/>
    </defs>
    <g clip-path="url(#p8f600001ef)">
     <use style="fill:#348abd;fill-opacity:0.8;stroke:#348abd;stroke-opacity:0.8;" x="40.090032" xlink:href="#mee9ce8db0f" y="297.763636"/>
     <use style="fill:#348abd;fill-opacity:0.8;stroke:#348abd;stroke-opacity:0.8;" x="48.431779" xlink:href="#mee9ce8db0f" y="262.997822"/>
     <use style="fill:#348abd;fill-opacity:0.8;stroke:#348abd;stroke-opacity:0.8;" x="56.773526" xlink:href="#mee9ce8db0f" y="186.084802"/>
     <use style="fill:#348abd;fill-opacity:0.8;stroke:#348abd;stroke-opacity:0.8;" x="65.115272" xlink:href="#mee9ce8db0f" y="183.570534"/>
     <use style="fill:#348abd;fill-opacity:0.8;stroke:#348abd;stroke-opacity:0.8;" x="73.457019" xlink:href="#mee9ce8db0f" y="176.310651"/>
     <use style="fill:#348abd;fill-opacity:0.8;stroke:#348abd;stroke-opacity:0.8;" x="81.798766" xlink:href="#mee9ce8db0f" y="150.660943"/>
     <use style="fill:#348abd;fill-opacity:0.8;stroke:#348abd;stroke-opacity:0.8;" x="90.140513" xlink:href="#mee9ce8db0f" y="144.200813"/>
     <use style="fill:#348abd;fill-opacity:0.8;stroke:#348abd;stroke-opacity:0.8;" x="98.482259" xlink:href="#mee9ce8db0f" y="129.367226"/>
     <use style="fill:#348abd;fill-opacity:0.8;stroke:#348abd;stroke-opacity:0.8;" x="106.824006" xlink:href="#mee9ce8db0f" y="127.215783"/>
     <use style="fill:#348abd;fill-opacity:0.8;stroke:#348abd;stroke-opacity:0.8;" x="115.165753" xlink:href="#mee9ce8db0f" y="121.789021"/>
     <use style="fill:#348abd;fill-opacity:0.8;stroke:#348abd;stroke-opacity:0.8;" x="123.5075" xlink:href="#mee9ce8db0f" y="121.079274"/>
     <use style="fill:#348abd;fill-opacity:0.8;stroke:#348abd;stroke-opacity:0.8;" x="131.849246" xlink:href="#mee9ce8db0f" y="115.525104"/>
     <use style="fill:#348abd;fill-opacity:0.8;stroke:#348abd;stroke-opacity:0.8;" x="140.190993" xlink:href="#mee9ce8db0f" y="111.796556"/>
     <use style="fill:#348abd;fill-opacity:0.8;stroke:#348abd;stroke-opacity:0.8;" x="148.53274" xlink:href="#mee9ce8db0f" y="112.427598"/>
     <use style="fill:#348abd;fill-opacity:0.8;stroke:#348abd;stroke-opacity:0.8;" x="156.874487" xlink:href="#mee9ce8db0f" y="112.840626"/>
     <use style="fill:#348abd;fill-opacity:0.8;stroke:#348abd;stroke-opacity:0.8;" x="165.216233" xlink:href="#mee9ce8db0f" y="111.050906"/>
     <use style="fill:#348abd;fill-opacity:0.8;stroke:#348abd;stroke-opacity:0.8;" x="173.55798" xlink:href="#mee9ce8db0f" y="96.266522"/>
     <use style="fill:#348abd;fill-opacity:0.8;stroke:#348abd;stroke-opacity:0.8;" x="181.899727" xlink:href="#mee9ce8db0f" y="96.611345"/>
     <use style="fill:#348abd;fill-opacity:0.8;stroke:#348abd;stroke-opacity:0.8;" x="190.241474" xlink:href="#mee9ce8db0f" y="99.226119"/>
     <use style="fill:#348abd;fill-opacity:0.8;stroke:#348abd;stroke-opacity:0.8;" x="198.58322" xlink:href="#mee9ce8db0f" y="102.773555"/>
     <use style="fill:#348abd;fill-opacity:0.8;stroke:#348abd;stroke-opacity:0.8;" x="206.924967" xlink:href="#mee9ce8db0f" y="104.575075"/>
     <use style="fill:#348abd;fill-opacity:0.8;stroke:#348abd;stroke-opacity:0.8;" x="215.266714" xlink:href="#mee9ce8db0f" y="102.475336"/>
     <use style="fill:#348abd;fill-opacity:0.8;stroke:#348abd;stroke-opacity:0.8;" x="223.608461" xlink:href="#mee9ce8db0f" y="97.759822"/>
     <use style="fill:#348abd;fill-opacity:0.8;stroke:#348abd;stroke-opacity:0.8;" x="231.950208" xlink:href="#mee9ce8db0f" y="95.810592"/>
     <use style="fill:#348abd;fill-opacity:0.8;stroke:#348abd;stroke-opacity:0.8;" x="240.291954" xlink:href="#mee9ce8db0f" y="85.995238"/>
     <use style="fill:#348abd;fill-opacity:0.8;stroke:#348abd;stroke-opacity:0.8;" x="248.633701" xlink:href="#mee9ce8db0f" y="90.597345"/>
     <use style="fill:#348abd;fill-opacity:0.8;stroke:#348abd;stroke-opacity:0.8;" x="256.975448" xlink:href="#mee9ce8db0f" y="80.935902"/>
     <use style="fill:#348abd;fill-opacity:0.8;stroke:#348abd;stroke-opacity:0.8;" x="265.317195" xlink:href="#mee9ce8db0f" y="78.05351"/>
     <use style="fill:#348abd;fill-opacity:0.8;stroke:#348abd;stroke-opacity:0.8;" x="273.658941" xlink:href="#mee9ce8db0f" y="77.697586"/>
     <use style="fill:#348abd;fill-opacity:0.8;stroke:#348abd;stroke-opacity:0.8;" x="282.000688" xlink:href="#mee9ce8db0f" y="81.96847"/>
     <use style="fill:#348abd;fill-opacity:0.8;stroke:#348abd;stroke-opacity:0.8;" x="290.342435" xlink:href="#mee9ce8db0f" y="83.45987"/>
     <use style="fill:#348abd;fill-opacity:0.8;stroke:#348abd;stroke-opacity:0.8;" x="298.684182" xlink:href="#mee9ce8db0f" y="58.478807"/>
     <use style="fill:#348abd;fill-opacity:0.8;stroke:#348abd;stroke-opacity:0.8;" x="307.025928" xlink:href="#mee9ce8db0f" y="52.246792"/>
     <use style="fill:#348abd;fill-opacity:0.8;stroke:#348abd;stroke-opacity:0.8;" x="315.367675" xlink:href="#mee9ce8db0f" y="56.241658"/>
     <use style="fill:#348abd;fill-opacity:0.8;stroke:#348abd;stroke-opacity:0.8;" x="323.709422" xlink:href="#mee9ce8db0f" y="57.807662"/>
     <use style="fill:#348abd;fill-opacity:0.8;stroke:#348abd;stroke-opacity:0.8;" x="332.051169" xlink:href="#mee9ce8db0f" y="55.123083"/>
     <use style="fill:#348abd;fill-opacity:0.8;stroke:#348abd;stroke-opacity:0.8;" x="340.392915" xlink:href="#mee9ce8db0f" y="84.205519"/>
     <use style="fill:#348abd;fill-opacity:0.8;stroke:#348abd;stroke-opacity:0.8;" x="348.734662" xlink:href="#mee9ce8db0f" y="122.236451"/>
     <use style="fill:#348abd;fill-opacity:0.8;stroke:#348abd;stroke-opacity:0.8;" x="357.076409" xlink:href="#mee9ce8db0f" y="115.525104"/>
    </g>
   </g>
   <g id="PolyCollection_2">
    <path clip-path="url(#p8f600001ef)" d="M 40.090032 146.382942 
L 40.090032 210.243216 
L 43.291915 208.512681 
L 46.493797 206.779775 
L 49.69568 205.04687 
L 52.897563 203.232868 
L 56.099445 201.397532 
L 59.301328 199.55494 
L 62.50321 197.569863 
L 65.705093 195.650504 
L 68.906975 193.940045 
L 72.108858 192.210346 
L 75.310741 190.372238 
L 78.512623 188.570736 
L 81.714506 186.865879 
L 84.916388 185.20904 
L 88.118271 183.455584 
L 91.320154 181.751307 
L 94.522036 180.043521 
L 97.723919 178.166848 
L 100.925801 176.172739 
L 104.127684 174.279397 
L 107.329567 172.432349 
L 110.531449 170.595206 
L 113.733332 168.823185 
L 116.935214 167.097714 
L 120.137097 165.371562 
L 123.33898 163.591573 
L 126.540862 161.808799 
L 129.742745 159.963081 
L 132.944627 158.19106 
L 136.14651 156.474754 
L 139.348393 154.68991 
L 142.550275 152.874997 
L 145.752158 151.11228 
L 148.95404 149.345339 
L 152.155923 147.567309 
L 155.357805 145.795036 
L 158.559688 144.02582 
L 161.761571 142.371574 
L 164.963453 140.876487 
L 168.165336 139.436605 
L 171.367218 137.594982 
L 174.569101 135.870789 
L 177.770984 134.426092 
L 180.972866 132.792581 
L 184.174749 131.276598 
L 187.376631 129.825684 
L 190.578514 128.376059 
L 193.780397 126.731554 
L 196.982279 125.09682 
L 200.184162 123.518896 
L 203.386044 122.058771 
L 206.587927 120.672997 
L 209.78981 119.254403 
L 212.991692 117.80893 
L 216.193575 116.364551 
L 219.395457 114.920172 
L 222.59734 113.514429 
L 225.799223 112.307663 
L 229.001105 111.048697 
L 232.202988 109.746308 
L 235.40487 108.533606 
L 238.606753 107.271196 
L 241.808635 105.988446 
L 245.010518 104.743087 
L 248.212401 103.435273 
L 251.414283 102.191104 
L 254.616166 101.156123 
L 257.818048 99.895953 
L 261.019931 98.88123 
L 264.221814 97.977075 
L 267.423696 96.891176 
L 270.625579 96.138738 
L 273.827461 95.087338 
L 277.029344 94.133733 
L 280.231227 93.129198 
L 283.433109 92.124689 
L 286.634992 91.122362 
L 289.836874 90.103773 
L 293.038757 89.201788 
L 296.24064 88.361125 
L 299.442522 87.256545 
L 302.644405 86.208148 
L 305.846287 85.213236 
L 309.04817 84.27192 
L 312.250053 83.115372 
L 315.451935 82.092819 
L 318.653818 81.094752 
L 321.8557 80.156154 
L 325.057583 79.467169 
L 328.259465 78.562 
L 331.461348 77.343017 
L 334.663231 76.221043 
L 337.865113 75.341826 
L 341.066996 74.570982 
L 344.268878 73.801136 
L 347.470761 72.957205 
L 350.672644 72.163956 
L 353.874526 71.367486 
L 357.076409 70.405083 
L 357.076409 21.036364 
L 357.076409 21.036364 
L 353.874526 22.807958 
L 350.672644 24.911155 
L 347.470761 26.867739 
L 344.268878 28.807687 
L 341.066996 30.747635 
L 337.865113 32.691036 
L 334.663231 34.542084 
L 331.461348 36.377639 
L 328.259465 38.213194 
L 325.057583 40.048748 
L 321.8557 41.884303 
L 318.653818 43.719858 
L 315.451935 45.555413 
L 312.250053 47.438414 
L 309.04817 49.213977 
L 305.846287 51.040517 
L 302.644405 52.867058 
L 299.442522 54.693599 
L 296.24064 56.523859 
L 293.038757 58.358723 
L 289.836874 60.196734 
L 286.634992 61.944309 
L 283.433109 63.79684 
L 280.231227 65.680775 
L 277.029344 67.50768 
L 273.827461 69.293117 
L 270.625579 71.080206 
L 267.423696 72.759894 
L 264.221814 74.441149 
L 261.019931 76.243503 
L 257.818048 78.089623 
L 254.616166 79.794822 
L 251.414283 81.401468 
L 248.212401 83.010503 
L 245.010518 84.568047 
L 241.808635 86.134073 
L 238.606753 87.605047 
L 235.40487 89.137854 
L 232.202988 90.496592 
L 229.001105 92.077708 
L 225.799223 93.728735 
L 222.59734 95.143675 
L 219.395457 96.405412 
L 216.193575 97.575621 
L 212.991692 98.797521 
L 209.78981 100.162478 
L 206.587927 101.386757 
L 203.386044 102.462122 
L 200.184162 103.438552 
L 196.982279 104.587686 
L 193.780397 105.629817 
L 190.578514 106.724776 
L 187.376631 107.69576 
L 184.174749 108.524995 
L 180.972866 109.405846 
L 177.770984 110.268954 
L 174.569101 111.24294 
L 171.367218 112.171932 
L 168.165336 112.964246 
L 164.963453 114.011352 
L 161.761571 114.835029 
L 158.559688 115.658705 
L 155.357805 116.538187 
L 152.155923 117.387049 
L 148.95404 118.187938 
L 145.752158 118.988826 
L 142.550275 119.808032 
L 139.348393 120.638184 
L 136.14651 121.523558 
L 132.944627 122.590386 
L 129.742745 123.643033 
L 126.540862 124.4288 
L 123.33898 125.220256 
L 120.137097 126.008156 
L 116.935214 126.78865 
L 113.733332 127.570296 
L 110.531449 128.355748 
L 107.329567 129.053934 
L 104.127684 129.775153 
L 100.925801 130.606905 
L 97.723919 131.497558 
L 94.522036 132.283011 
L 91.320154 133.098211 
L 88.118271 133.927707 
L 84.916388 134.757203 
L 81.714506 135.586753 
L 78.512623 136.380278 
L 75.310741 137.069574 
L 72.108858 137.890235 
L 68.906975 138.712753 
L 65.705093 139.53527 
L 62.50321 140.357788 
L 59.301328 141.183951 
L 56.099445 142.010235 
L 52.897563 142.924046 
L 49.69568 143.856216 
L 46.493797 144.72199 
L 43.291915 145.552466 
L 40.090032 146.382942 
z
" style="fill:#348abd;fill-opacity:0.15;"/>
   </g>
   <g id="line2d_33">
    <path clip-path="url(#p8f600001ef)" d="M 40.090032 195.238923 
L 43.291915 194.02378 
L 46.493797 192.808636 
L 49.69568 191.593493 
L 52.897563 190.378349 
L 56.099445 189.163206 
L 59.301328 187.948062 
L 62.50321 186.732919 
L 65.705093 185.517776 
L 68.906975 184.302632 
L 72.108858 183.087489 
L 75.310741 181.872345 
L 78.512623 180.657202 
L 81.714506 179.442058 
L 84.916388 178.226915 
L 88.118271 177.011771 
L 91.320154 175.796628 
L 94.522036 174.581484 
L 97.723919 173.366341 
L 100.925801 172.151197 
L 104.127684 170.936054 
L 107.329567 169.720911 
L 110.531449 168.505767 
L 113.733332 167.290624 
L 116.935214 166.07548 
L 120.137097 164.860337 
L 123.33898 163.645193 
L 126.540862 162.43005 
L 129.742745 161.214906 
L 132.944627 159.999763 
L 136.14651 158.784619 
L 139.348393 157.569476 
L 142.550275 156.354333 
L 145.752158 155.139189 
L 148.95404 153.924046 
L 152.155923 152.708902 
L 155.357805 151.493759 
L 158.559688 150.278615 
L 161.761571 149.063472 
L 164.963453 147.848328 
L 168.165336 146.633185 
L 171.367218 145.418041 
L 174.569101 144.202898 
L 177.770984 142.987754 
L 180.972866 141.772611 
L 184.174749 140.557468 
L 187.376631 139.342324 
L 190.578514 138.127181 
L 193.780397 136.912037 
L 196.982279 135.696894 
L 200.184162 134.48175 
L 203.386044 133.266607 
L 206.587927 132.051463 
L 209.78981 130.83632 
L 212.991692 129.621176 
L 216.193575 128.406033 
L 219.395457 127.190889 
L 222.59734 125.975746 
L 225.799223 124.760603 
L 229.001105 123.545459 
L 232.202988 122.330316 
L 235.40487 121.115172 
L 238.606753 119.900029 
L 241.808635 118.684885 
L 245.010518 117.469742 
L 248.212401 116.254598 
L 251.414283 115.039455 
L 254.616166 113.824311 
L 257.818048 112.609168 
L 261.019931 111.394024 
L 264.221814 110.178881 
L 267.423696 108.963738 
L 270.625579 107.748594 
L 273.827461 106.533451 
L 277.029344 105.318307 
L 280.231227 104.103164 
L 283.433109 102.88802 
L 286.634992 101.672877 
L 289.836874 100.457733 
L 293.038757 99.24259 
L 296.24064 98.027446 
L 299.442522 96.812303 
L 302.644405 95.597159 
L 305.846287 94.382016 
L 309.04817 93.166873 
L 312.250053 91.951729 
L 315.451935 90.736586 
L 318.653818 89.521442 
L 321.8557 88.306299 
L 325.057583 87.091155 
L 328.259465 85.876012 
L 331.461348 84.660868 
L 334.663231 83.445725 
L 337.865113 82.230581 
L 341.066996 81.015438 
L 344.268878 79.800294 
L 347.470761 78.585151 
L 350.672644 77.370008 
L 353.874526 76.154864 
L 357.076409 74.939721 
" style="fill:none;stroke:#e24a33;stroke-linecap:square;stroke-width:2.25;"/>
   </g>
   <g id="line2d_34">
    <path clip-path="url(#p8f600001ef)" d="M 40.090032 179.323868 
L 43.291915 178.001476 
L 46.493797 176.679083 
L 49.69568 175.356691 
L 52.897563 174.034299 
L 56.099445 172.711907 
L 59.301328 171.389514 
L 62.50321 170.067122 
L 65.705093 168.74473 
L 68.906975 167.422338 
L 72.108858 166.099946 
L 75.310741 164.777553 
L 78.512623 163.455161 
L 81.714506 162.132769 
L 84.916388 160.810377 
L 88.118271 159.487984 
L 91.320154 158.165592 
L 94.522036 156.8432 
L 97.723919 155.520808 
L 100.925801 154.198416 
L 104.127684 152.876023 
L 107.329567 151.553631 
L 110.531449 150.231239 
L 113.733332 148.908847 
L 116.935214 147.586454 
L 120.137097 146.264062 
L 123.33898 144.94167 
L 126.540862 143.619278 
L 129.742745 142.296886 
L 132.944627 140.974493 
L 136.14651 139.652101 
L 139.348393 138.329709 
L 142.550275 137.007317 
L 145.752158 135.684924 
L 148.95404 134.362532 
L 152.155923 133.04014 
L 155.357805 131.717748 
L 158.559688 130.395356 
L 161.761571 129.072963 
L 164.963453 127.750571 
L 168.165336 126.428179 
L 171.367218 125.105787 
L 174.569101 123.783394 
L 177.770984 122.461002 
L 180.972866 121.13861 
L 184.174749 119.816218 
L 187.376631 118.493826 
L 190.578514 117.171433 
L 193.780397 115.849041 
L 196.982279 114.526649 
L 200.184162 113.204257 
L 203.386044 111.881864 
L 206.587927 110.559472 
L 209.78981 109.23708 
L 212.991692 107.914688 
L 216.193575 106.592296 
L 219.395457 105.269903 
L 222.59734 103.947511 
L 225.799223 102.625119 
L 229.001105 101.302727 
L 232.202988 99.980334 
L 235.40487 98.657942 
L 238.606753 97.33555 
L 241.808635 96.013158 
L 245.010518 94.690766 
L 248.212401 93.368373 
L 251.414283 92.045981 
L 254.616166 90.723589 
L 257.818048 89.401197 
L 261.019931 88.078804 
L 264.221814 86.756412 
L 267.423696 85.43402 
L 270.625579 84.111628 
L 273.827461 82.789236 
L 277.029344 81.466843 
L 280.231227 80.144451 
L 283.433109 78.822059 
L 286.634992 77.499667 
L 289.836874 76.177274 
L 293.038757 74.854882 
L 296.24064 73.53249 
L 299.442522 72.210098 
L 302.644405 70.887705 
L 305.846287 69.565313 
L 309.04817 68.242921 
L 312.250053 66.920529 
L 315.451935 65.598137 
L 318.653818 64.275744 
L 321.8557 62.953352 
L 325.057583 61.63096 
L 328.259465 60.308568 
L 331.461348 58.986175 
L 334.663231 57.663783 
L 337.865113 56.341391 
L 341.066996 55.018999 
L 344.268878 53.696607 
L 347.470761 52.374214 
L 350.672644 51.051822 
L 353.874526 49.72943 
L 357.076409 48.407038 
" style="fill:none;stroke:#348abd;stroke-linecap:square;stroke-width:2.25;"/>
   </g>
   <g id="patch_3">
    <path d="M 58.441875 311.6 
L 58.441875 7.2 
" style="fill:none;stroke:#ffffff;stroke-linecap:square;stroke-linejoin:miter;"/>
   </g>
   <g id="patch_4">
    <path d="M 58.441875 311.6 
L 338.724566 311.6 
" style="fill:none;stroke:#ffffff;stroke-linecap:square;stroke-linejoin:miter;"/>
   </g>
  </g>
  <g id="legend_1">
   <g id="text_19">
    <!-- name -->
    <g transform="translate(359.65066 163.627187)scale(0.1 -0.1)">
     <defs>
      <path d="M 54.890625 33.015625 
L 54.890625 0 
L 45.90625 0 
L 45.90625 32.71875 
Q 45.90625 40.484375 42.875 44.328125 
Q 39.84375 48.1875 33.796875 48.1875 
Q 26.515625 48.1875 22.3125 43.546875 
Q 18.109375 38.921875 18.109375 30.90625 
L 18.109375 0 
L 9.078125 0 
L 9.078125 54.6875 
L 18.109375 54.6875 
L 18.109375 46.1875 
Q 21.34375 51.125 25.703125 53.5625 
Q 30.078125 56 35.796875 56 
Q 45.21875 56 50.046875 50.171875 
Q 54.890625 44.34375 54.890625 33.015625 
z
" id="DejaVuSans-110"/>
      <path d="M 52 44.1875 
Q 55.375 50.25 60.0625 53.125 
Q 64.75 56 71.09375 56 
Q 79.640625 56 84.28125 50.015625 
Q 88.921875 44.046875 88.921875 33.015625 
L 88.921875 0 
L 79.890625 0 
L 79.890625 32.71875 
Q 79.890625 40.578125 77.09375 44.375 
Q 74.3125 48.1875 68.609375 48.1875 
Q 61.625 48.1875 57.5625 43.546875 
Q 53.515625 38.921875 53.515625 30.90625 
L 53.515625 0 
L 44.484375 0 
L 44.484375 32.71875 
Q 44.484375 40.625 41.703125 44.40625 
Q 38.921875 48.1875 33.109375 48.1875 
Q 26.21875 48.1875 22.15625 43.53125 
Q 18.109375 38.875 18.109375 30.90625 
L 18.109375 0 
L 9.078125 0 
L 9.078125 54.6875 
L 18.109375 54.6875 
L 18.109375 46.1875 
Q 21.1875 51.21875 25.484375 53.609375 
Q 29.78125 56 35.6875 56 
Q 41.65625 56 45.828125 52.96875 
Q 50 49.953125 52 44.1875 
z
" id="DejaVuSans-109"/>
      <path d="M 56.203125 29.59375 
L 56.203125 25.203125 
L 14.890625 25.203125 
Q 15.484375 15.921875 20.484375 11.0625 
Q 25.484375 6.203125 34.421875 6.203125 
Q 39.59375 6.203125 44.453125 7.46875 
Q 49.3125 8.734375 54.109375 11.28125 
L 54.109375 2.78125 
Q 49.265625 0.734375 44.1875 -0.34375 
Q 39.109375 -1.421875 33.890625 -1.421875 
Q 20.796875 -1.421875 13.15625 6.1875 
Q 5.515625 13.8125 5.515625 26.8125 
Q 5.515625 40.234375 12.765625 48.109375 
Q 20.015625 56 32.328125 56 
Q 43.359375 56 49.78125 48.890625 
Q 56.203125 41.796875 56.203125 29.59375 
z
M 47.21875 32.234375 
Q 47.125 39.59375 43.09375 43.984375 
Q 39.0625 48.390625 32.421875 48.390625 
Q 24.90625 48.390625 20.390625 44.140625 
Q 15.875 39.890625 15.1875 32.171875 
z
" id="DejaVuSans-101"/>
     </defs>
     <use xlink:href="#DejaVuSans-110"/>
     <use x="63.378906" xlink:href="#DejaVuSans-97"/>
     <use x="124.658203" xlink:href="#DejaVuSans-109"/>
     <use x="222.070312" xlink:href="#DejaVuSans-101"/>
    </g>
   </g>
   <g id="PathCollection_3">
    <g>
     <use style="fill:#e24a33;fill-opacity:0.8;stroke:#e24a33;stroke-opacity:0.8;" x="354.087378" xlink:href="#m42bffb42db" y="175.680312"/>
    </g>
   </g>
   <g id="text_20">
    <!-- SVM -->
    <g transform="translate(372.087378 178.305312)scale(0.1 -0.1)">
     <defs>
      <path d="M 53.515625 70.515625 
L 53.515625 60.890625 
Q 47.90625 63.578125 42.921875 64.890625 
Q 37.9375 66.21875 33.296875 66.21875 
Q 25.25 66.21875 20.875 63.09375 
Q 16.5 59.96875 16.5 54.203125 
Q 16.5 49.359375 19.40625 46.890625 
Q 22.3125 44.4375 30.421875 42.921875 
L 36.375 41.703125 
Q 47.40625 39.59375 52.65625 34.296875 
Q 57.90625 29 57.90625 20.125 
Q 57.90625 9.515625 50.796875 4.046875 
Q 43.703125 -1.421875 29.984375 -1.421875 
Q 24.8125 -1.421875 18.96875 -0.25 
Q 13.140625 0.921875 6.890625 3.21875 
L 6.890625 13.375 
Q 12.890625 10.015625 18.65625 8.296875 
Q 24.421875 6.59375 29.984375 6.59375 
Q 38.421875 6.59375 43.015625 9.90625 
Q 47.609375 13.234375 47.609375 19.390625 
Q 47.609375 24.75 44.3125 27.78125 
Q 41.015625 30.8125 33.5 32.328125 
L 27.484375 33.5 
Q 16.453125 35.6875 11.515625 40.375 
Q 6.59375 45.0625 6.59375 53.421875 
Q 6.59375 63.09375 13.40625 68.65625 
Q 20.21875 74.21875 32.171875 74.21875 
Q 37.3125 74.21875 42.625 73.28125 
Q 47.953125 72.359375 53.515625 70.515625 
z
" id="DejaVuSans-83"/>
      <path d="M 28.609375 0 
L 0.78125 72.90625 
L 11.078125 72.90625 
L 34.1875 11.53125 
L 57.328125 72.90625 
L 67.578125 72.90625 
L 39.796875 0 
z
" id="DejaVuSans-86"/>
      <path d="M 9.8125 72.90625 
L 24.515625 72.90625 
L 43.109375 23.296875 
L 61.8125 72.90625 
L 76.515625 72.90625 
L 76.515625 0 
L 66.890625 0 
L 66.890625 64.015625 
L 48.09375 14.015625 
L 38.1875 14.015625 
L 19.390625 64.015625 
L 19.390625 0 
L 9.8125 0 
z
" id="DejaVuSans-77"/>
     </defs>
     <use xlink:href="#DejaVuSans-83"/>
     <use x="63.476562" xlink:href="#DejaVuSans-86"/>
     <use x="131.884766" xlink:href="#DejaVuSans-77"/>
    </g>
   </g>
   <g id="PathCollection_4">
    <g>
     <use style="fill:#348abd;fill-opacity:0.8;stroke:#348abd;stroke-opacity:0.8;" x="354.087378" xlink:href="#mee9ce8db0f" y="190.358437"/>
    </g>
   </g>
   <g id="text_21">
    <!-- CNN 1 -->
    <g transform="translate(372.087378 192.983437)scale(0.1 -0.1)">
     <defs>
      <path d="M 64.40625 67.28125 
L 64.40625 56.890625 
Q 59.421875 61.53125 53.78125 63.8125 
Q 48.140625 66.109375 41.796875 66.109375 
Q 29.296875 66.109375 22.65625 58.46875 
Q 16.015625 50.828125 16.015625 36.375 
Q 16.015625 21.96875 22.65625 14.328125 
Q 29.296875 6.6875 41.796875 6.6875 
Q 48.140625 6.6875 53.78125 8.984375 
Q 59.421875 11.28125 64.40625 15.921875 
L 64.40625 5.609375 
Q 59.234375 2.09375 53.4375 0.328125 
Q 47.65625 -1.421875 41.21875 -1.421875 
Q 24.65625 -1.421875 15.125 8.703125 
Q 5.609375 18.84375 5.609375 36.375 
Q 5.609375 53.953125 15.125 64.078125 
Q 24.65625 74.21875 41.21875 74.21875 
Q 47.75 74.21875 53.53125 72.484375 
Q 59.328125 70.75 64.40625 67.28125 
z
" id="DejaVuSans-67"/>
      <path d="M 9.8125 72.90625 
L 23.09375 72.90625 
L 55.421875 11.921875 
L 55.421875 72.90625 
L 64.984375 72.90625 
L 64.984375 0 
L 51.703125 0 
L 19.390625 60.984375 
L 19.390625 0 
L 9.8125 0 
z
" id="DejaVuSans-78"/>
      <path id="DejaVuSans-32"/>
     </defs>
     <use xlink:href="#DejaVuSans-67"/>
     <use x="69.824219" xlink:href="#DejaVuSans-78"/>
     <use x="144.628906" xlink:href="#DejaVuSans-78"/>
     <use x="219.433594" xlink:href="#DejaVuSans-32"/>
     <use x="251.220703" xlink:href="#DejaVuSans-49"/>
    </g>
   </g>
  </g>
 </g>
 <defs>
  <clipPath id="p8f600001ef">
   <rect height="304.4" width="280.282691" x="58.441875" y="7.2"/>
  </clipPath>
 </defs>
</svg>
