<?xml version="1.0" encoding="utf-8" standalone="no"?>
<!DOCTYPE svg PUBLIC "-//W3C//DTD SVG 1.1//EN"
  "http://www.w3.org/Graphics/SVG/1.1/DTD/svg11.dtd">
<!-- Created with matplotlib (https://matplotlib.org/) -->
<svg height="351.091875pt" version="1.1" viewBox="0 0 417.822951 351.091875" width="417.822951pt" xmlns="http://www.w3.org/2000/svg" xmlns:xlink="http://www.w3.org/1999/xlink">
 <metadata>
  <rdf:RDF xmlns:cc="http://creativecommons.org/ns#" xmlns:dc="http://purl.org/dc/elements/1.1/" xmlns:rdf="http://www.w3.org/1999/02/22-rdf-syntax-ns#">
   <cc:Work>
    <dc:type rdf:resource="http://purl.org/dc/dcmitype/StillImage"/>
    <dc:date>2020-09-05T00:27:15.363486</dc:date>
    <dc:format>image/svg+xml</dc:format>
    <dc:creator>
     <cc:Agent>
      <dc:title>Matplotlib v3.3.1, https://matplotlib.org/</dc:title>
     </cc:Agent>
    </dc:creator>
   </cc:Work>
  </rdf:RDF>
 </metadata>
 <defs>
  <style type="text/css">*{stroke-linecap:butt;stroke-linejoin:round;}</style>
 </defs>
 <g id="figure_1">
  <g id="patch_1">
   <path d="M 0 351.091875 
L 417.822951 351.091875 
L 417.822951 0 
L 0 0 
z
" style="fill:#ffffff;"/>
  </g>
  <g id="axes_1">
   <g id="patch_2">
    <path d="M 58.441875 311.6 
L 337.535451 311.6 
L 337.535451 7.2 
L 58.441875 7.2 
z
" style="fill:#e5e5e5;"/>
   </g>
   <g id="matplotlib.axis_1">
    <g id="xtick_1">
     <g id="line2d_1">
      <path clip-path="url(#p6b1f693cde)" d="M 65.08696 311.6 
L 65.08696 7.2 
" style="fill:none;stroke:#ffffff;stroke-linecap:square;stroke-width:0.8;"/>
     </g>
     <g id="line2d_2">
      <defs>
       <path d="M 0 0 
L 0 3.5 
" id="ma1821310f0" style="stroke:#555555;stroke-width:0.8;"/>
      </defs>
      <g>
       <use style="fill:#555555;stroke:#555555;stroke-width:0.8;" x="65.08696" xlink:href="#ma1821310f0" y="311.6"/>
      </g>
     </g>
     <g id="text_1">
      <!-- 0.1 -->
      <g style="fill:#555555;" transform="translate(57.135398 326.198437)scale(0.1 -0.1)">
       <defs>
        <path d="M 31.78125 66.40625 
Q 24.171875 66.40625 20.328125 58.90625 
Q 16.5 51.421875 16.5 36.375 
Q 16.5 21.390625 20.328125 13.890625 
Q 24.171875 6.390625 31.78125 6.390625 
Q 39.453125 6.390625 43.28125 13.890625 
Q 47.125 21.390625 47.125 36.375 
Q 47.125 51.421875 43.28125 58.90625 
Q 39.453125 66.40625 31.78125 66.40625 
z
M 31.78125 74.21875 
Q 44.046875 74.21875 50.515625 64.515625 
Q 56.984375 54.828125 56.984375 36.375 
Q 56.984375 17.96875 50.515625 8.265625 
Q 44.046875 -1.421875 31.78125 -1.421875 
Q 19.53125 -1.421875 13.0625 8.265625 
Q 6.59375 17.96875 6.59375 36.375 
Q 6.59375 54.828125 13.0625 64.515625 
Q 19.53125 74.21875 31.78125 74.21875 
z
" id="DejaVuSans-48"/>
        <path d="M 10.6875 12.40625 
L 21 12.40625 
L 21 0 
L 10.6875 0 
z
" id="DejaVuSans-46"/>
        <path d="M 12.40625 8.296875 
L 28.515625 8.296875 
L 28.515625 63.921875 
L 10.984375 60.40625 
L 10.984375 69.390625 
L 28.421875 72.90625 
L 38.28125 72.90625 
L 38.28125 8.296875 
L 54.390625 8.296875 
L 54.390625 0 
L 12.40625 0 
z
" id="DejaVuSans-49"/>
       </defs>
       <use xlink:href="#DejaVuSans-48"/>
       <use x="63.623047" xlink:href="#DejaVuSans-46"/>
       <use x="95.410156" xlink:href="#DejaVuSans-49"/>
      </g>
     </g>
    </g>
    <g id="xtick_2">
     <g id="line2d_3">
      <path clip-path="url(#p6b1f693cde)" d="M 98.312386 311.6 
L 98.312386 7.2 
" style="fill:none;stroke:#ffffff;stroke-linecap:square;stroke-width:0.8;"/>
     </g>
     <g id="line2d_4">
      <g>
       <use style="fill:#555555;stroke:#555555;stroke-width:0.8;" x="98.312386" xlink:href="#ma1821310f0" y="311.6"/>
      </g>
     </g>
     <g id="text_2">
      <!-- 0.2 -->
      <g style="fill:#555555;" transform="translate(90.360823 326.198437)scale(0.1 -0.1)">
       <defs>
        <path d="M 19.1875 8.296875 
L 53.609375 8.296875 
L 53.609375 0 
L 7.328125 0 
L 7.328125 8.296875 
Q 12.9375 14.109375 22.625 23.890625 
Q 32.328125 33.6875 34.8125 36.53125 
Q 39.546875 41.84375 41.421875 45.53125 
Q 43.3125 49.21875 43.3125 52.78125 
Q 43.3125 58.59375 39.234375 62.25 
Q 35.15625 65.921875 28.609375 65.921875 
Q 23.96875 65.921875 18.8125 64.3125 
Q 13.671875 62.703125 7.8125 59.421875 
L 7.8125 69.390625 
Q 13.765625 71.78125 18.9375 73 
Q 24.125 74.21875 28.421875 74.21875 
Q 39.75 74.21875 46.484375 68.546875 
Q 53.21875 62.890625 53.21875 53.421875 
Q 53.21875 48.921875 51.53125 44.890625 
Q 49.859375 40.875 45.40625 35.40625 
Q 44.1875 33.984375 37.640625 27.21875 
Q 31.109375 20.453125 19.1875 8.296875 
z
" id="DejaVuSans-50"/>
       </defs>
       <use xlink:href="#DejaVuSans-48"/>
       <use x="63.623047" xlink:href="#DejaVuSans-46"/>
       <use x="95.410156" xlink:href="#DejaVuSans-50"/>
      </g>
     </g>
    </g>
    <g id="xtick_3">
     <g id="line2d_5">
      <path clip-path="url(#p6b1f693cde)" d="M 131.537812 311.6 
L 131.537812 7.2 
" style="fill:none;stroke:#ffffff;stroke-linecap:square;stroke-width:0.8;"/>
     </g>
     <g id="line2d_6">
      <g>
       <use style="fill:#555555;stroke:#555555;stroke-width:0.8;" x="131.537812" xlink:href="#ma1821310f0" y="311.6"/>
      </g>
     </g>
     <g id="text_3">
      <!-- 0.3 -->
      <g style="fill:#555555;" transform="translate(123.586249 326.198437)scale(0.1 -0.1)">
       <defs>
        <path d="M 40.578125 39.3125 
Q 47.65625 37.796875 51.625 33 
Q 55.609375 28.21875 55.609375 21.1875 
Q 55.609375 10.40625 48.1875 4.484375 
Q 40.765625 -1.421875 27.09375 -1.421875 
Q 22.515625 -1.421875 17.65625 -0.515625 
Q 12.796875 0.390625 7.625 2.203125 
L 7.625 11.71875 
Q 11.71875 9.328125 16.59375 8.109375 
Q 21.484375 6.890625 26.8125 6.890625 
Q 36.078125 6.890625 40.9375 10.546875 
Q 45.796875 14.203125 45.796875 21.1875 
Q 45.796875 27.640625 41.28125 31.265625 
Q 36.765625 34.90625 28.71875 34.90625 
L 20.21875 34.90625 
L 20.21875 43.015625 
L 29.109375 43.015625 
Q 36.375 43.015625 40.234375 45.921875 
Q 44.09375 48.828125 44.09375 54.296875 
Q 44.09375 59.90625 40.109375 62.90625 
Q 36.140625 65.921875 28.71875 65.921875 
Q 24.65625 65.921875 20.015625 65.03125 
Q 15.375 64.15625 9.8125 62.3125 
L 9.8125 71.09375 
Q 15.4375 72.65625 20.34375 73.4375 
Q 25.25 74.21875 29.59375 74.21875 
Q 40.828125 74.21875 47.359375 69.109375 
Q 53.90625 64.015625 53.90625 55.328125 
Q 53.90625 49.265625 50.4375 45.09375 
Q 46.96875 40.921875 40.578125 39.3125 
z
" id="DejaVuSans-51"/>
       </defs>
       <use xlink:href="#DejaVuSans-48"/>
       <use x="63.623047" xlink:href="#DejaVuSans-46"/>
       <use x="95.410156" xlink:href="#DejaVuSans-51"/>
      </g>
     </g>
    </g>
    <g id="xtick_4">
     <g id="line2d_7">
      <path clip-path="url(#p6b1f693cde)" d="M 164.763237 311.6 
L 164.763237 7.2 
" style="fill:none;stroke:#ffffff;stroke-linecap:square;stroke-width:0.8;"/>
     </g>
     <g id="line2d_8">
      <g>
       <use style="fill:#555555;stroke:#555555;stroke-width:0.8;" x="164.763237" xlink:href="#ma1821310f0" y="311.6"/>
      </g>
     </g>
     <g id="text_4">
      <!-- 0.4 -->
      <g style="fill:#555555;" transform="translate(156.811675 326.198437)scale(0.1 -0.1)">
       <defs>
        <path d="M 37.796875 64.3125 
L 12.890625 25.390625 
L 37.796875 25.390625 
z
M 35.203125 72.90625 
L 47.609375 72.90625 
L 47.609375 25.390625 
L 58.015625 25.390625 
L 58.015625 17.1875 
L 47.609375 17.1875 
L 47.609375 0 
L 37.796875 0 
L 37.796875 17.1875 
L 4.890625 17.1875 
L 4.890625 26.703125 
z
" id="DejaVuSans-52"/>
       </defs>
       <use xlink:href="#DejaVuSans-48"/>
       <use x="63.623047" xlink:href="#DejaVuSans-46"/>
       <use x="95.410156" xlink:href="#DejaVuSans-52"/>
      </g>
     </g>
    </g>
    <g id="xtick_5">
     <g id="line2d_9">
      <path clip-path="url(#p6b1f693cde)" d="M 197.988663 311.6 
L 197.988663 7.2 
" style="fill:none;stroke:#ffffff;stroke-linecap:square;stroke-width:0.8;"/>
     </g>
     <g id="line2d_10">
      <g>
       <use style="fill:#555555;stroke:#555555;stroke-width:0.8;" x="197.988663" xlink:href="#ma1821310f0" y="311.6"/>
      </g>
     </g>
     <g id="text_5">
      <!-- 0.5 -->
      <g style="fill:#555555;" transform="translate(190.037101 326.198437)scale(0.1 -0.1)">
       <defs>
        <path d="M 10.796875 72.90625 
L 49.515625 72.90625 
L 49.515625 64.59375 
L 19.828125 64.59375 
L 19.828125 46.734375 
Q 21.96875 47.46875 24.109375 47.828125 
Q 26.265625 48.1875 28.421875 48.1875 
Q 40.625 48.1875 47.75 41.5 
Q 54.890625 34.8125 54.890625 23.390625 
Q 54.890625 11.625 47.5625 5.09375 
Q 40.234375 -1.421875 26.90625 -1.421875 
Q 22.3125 -1.421875 17.546875 -0.640625 
Q 12.796875 0.140625 7.71875 1.703125 
L 7.71875 11.625 
Q 12.109375 9.234375 16.796875 8.0625 
Q 21.484375 6.890625 26.703125 6.890625 
Q 35.15625 6.890625 40.078125 11.328125 
Q 45.015625 15.765625 45.015625 23.390625 
Q 45.015625 31 40.078125 35.4375 
Q 35.15625 39.890625 26.703125 39.890625 
Q 22.75 39.890625 18.8125 39.015625 
Q 14.890625 38.140625 10.796875 36.28125 
z
" id="DejaVuSans-53"/>
       </defs>
       <use xlink:href="#DejaVuSans-48"/>
       <use x="63.623047" xlink:href="#DejaVuSans-46"/>
       <use x="95.410156" xlink:href="#DejaVuSans-53"/>
      </g>
     </g>
    </g>
    <g id="xtick_6">
     <g id="line2d_11">
      <path clip-path="url(#p6b1f693cde)" d="M 231.214089 311.6 
L 231.214089 7.2 
" style="fill:none;stroke:#ffffff;stroke-linecap:square;stroke-width:0.8;"/>
     </g>
     <g id="line2d_12">
      <g>
       <use style="fill:#555555;stroke:#555555;stroke-width:0.8;" x="231.214089" xlink:href="#ma1821310f0" y="311.6"/>
      </g>
     </g>
     <g id="text_6">
      <!-- 0.6 -->
      <g style="fill:#555555;" transform="translate(223.262526 326.198437)scale(0.1 -0.1)">
       <defs>
        <path d="M 33.015625 40.375 
Q 26.375 40.375 22.484375 35.828125 
Q 18.609375 31.296875 18.609375 23.390625 
Q 18.609375 15.53125 22.484375 10.953125 
Q 26.375 6.390625 33.015625 6.390625 
Q 39.65625 6.390625 43.53125 10.953125 
Q 47.40625 15.53125 47.40625 23.390625 
Q 47.40625 31.296875 43.53125 35.828125 
Q 39.65625 40.375 33.015625 40.375 
z
M 52.59375 71.296875 
L 52.59375 62.3125 
Q 48.875 64.0625 45.09375 64.984375 
Q 41.3125 65.921875 37.59375 65.921875 
Q 27.828125 65.921875 22.671875 59.328125 
Q 17.53125 52.734375 16.796875 39.40625 
Q 19.671875 43.65625 24.015625 45.921875 
Q 28.375 48.1875 33.59375 48.1875 
Q 44.578125 48.1875 50.953125 41.515625 
Q 57.328125 34.859375 57.328125 23.390625 
Q 57.328125 12.15625 50.6875 5.359375 
Q 44.046875 -1.421875 33.015625 -1.421875 
Q 20.359375 -1.421875 13.671875 8.265625 
Q 6.984375 17.96875 6.984375 36.375 
Q 6.984375 53.65625 15.1875 63.9375 
Q 23.390625 74.21875 37.203125 74.21875 
Q 40.921875 74.21875 44.703125 73.484375 
Q 48.484375 72.75 52.59375 71.296875 
z
" id="DejaVuSans-54"/>
       </defs>
       <use xlink:href="#DejaVuSans-48"/>
       <use x="63.623047" xlink:href="#DejaVuSans-46"/>
       <use x="95.410156" xlink:href="#DejaVuSans-54"/>
      </g>
     </g>
    </g>
    <g id="xtick_7">
     <g id="line2d_13">
      <path clip-path="url(#p6b1f693cde)" d="M 264.439515 311.6 
L 264.439515 7.2 
" style="fill:none;stroke:#ffffff;stroke-linecap:square;stroke-width:0.8;"/>
     </g>
     <g id="line2d_14">
      <g>
       <use style="fill:#555555;stroke:#555555;stroke-width:0.8;" x="264.439515" xlink:href="#ma1821310f0" y="311.6"/>
      </g>
     </g>
     <g id="text_7">
      <!-- 0.7 -->
      <g style="fill:#555555;" transform="translate(256.487952 326.198437)scale(0.1 -0.1)">
       <defs>
        <path d="M 8.203125 72.90625 
L 55.078125 72.90625 
L 55.078125 68.703125 
L 28.609375 0 
L 18.3125 0 
L 43.21875 64.59375 
L 8.203125 64.59375 
z
" id="DejaVuSans-55"/>
       </defs>
       <use xlink:href="#DejaVuSans-48"/>
       <use x="63.623047" xlink:href="#DejaVuSans-46"/>
       <use x="95.410156" xlink:href="#DejaVuSans-55"/>
      </g>
     </g>
    </g>
    <g id="xtick_8">
     <g id="line2d_15">
      <path clip-path="url(#p6b1f693cde)" d="M 297.66494 311.6 
L 297.66494 7.2 
" style="fill:none;stroke:#ffffff;stroke-linecap:square;stroke-width:0.8;"/>
     </g>
     <g id="line2d_16">
      <g>
       <use style="fill:#555555;stroke:#555555;stroke-width:0.8;" x="297.66494" xlink:href="#ma1821310f0" y="311.6"/>
      </g>
     </g>
     <g id="text_8">
      <!-- 0.8 -->
      <g style="fill:#555555;" transform="translate(289.713378 326.198437)scale(0.1 -0.1)">
       <defs>
        <path d="M 31.78125 34.625 
Q 24.75 34.625 20.71875 30.859375 
Q 16.703125 27.09375 16.703125 20.515625 
Q 16.703125 13.921875 20.71875 10.15625 
Q 24.75 6.390625 31.78125 6.390625 
Q 38.8125 6.390625 42.859375 10.171875 
Q 46.921875 13.96875 46.921875 20.515625 
Q 46.921875 27.09375 42.890625 30.859375 
Q 38.875 34.625 31.78125 34.625 
z
M 21.921875 38.8125 
Q 15.578125 40.375 12.03125 44.71875 
Q 8.5 49.078125 8.5 55.328125 
Q 8.5 64.0625 14.71875 69.140625 
Q 20.953125 74.21875 31.78125 74.21875 
Q 42.671875 74.21875 48.875 69.140625 
Q 55.078125 64.0625 55.078125 55.328125 
Q 55.078125 49.078125 51.53125 44.71875 
Q 48 40.375 41.703125 38.8125 
Q 48.828125 37.15625 52.796875 32.3125 
Q 56.78125 27.484375 56.78125 20.515625 
Q 56.78125 9.90625 50.3125 4.234375 
Q 43.84375 -1.421875 31.78125 -1.421875 
Q 19.734375 -1.421875 13.25 4.234375 
Q 6.78125 9.90625 6.78125 20.515625 
Q 6.78125 27.484375 10.78125 32.3125 
Q 14.796875 37.15625 21.921875 38.8125 
z
M 18.3125 54.390625 
Q 18.3125 48.734375 21.84375 45.5625 
Q 25.390625 42.390625 31.78125 42.390625 
Q 38.140625 42.390625 41.71875 45.5625 
Q 45.3125 48.734375 45.3125 54.390625 
Q 45.3125 60.0625 41.71875 63.234375 
Q 38.140625 66.40625 31.78125 66.40625 
Q 25.390625 66.40625 21.84375 63.234375 
Q 18.3125 60.0625 18.3125 54.390625 
z
" id="DejaVuSans-56"/>
       </defs>
       <use xlink:href="#DejaVuSans-48"/>
       <use x="63.623047" xlink:href="#DejaVuSans-46"/>
       <use x="95.410156" xlink:href="#DejaVuSans-56"/>
      </g>
     </g>
    </g>
    <g id="xtick_9">
     <g id="line2d_17">
      <path clip-path="url(#p6b1f693cde)" d="M 330.890366 311.6 
L 330.890366 7.2 
" style="fill:none;stroke:#ffffff;stroke-linecap:square;stroke-width:0.8;"/>
     </g>
     <g id="line2d_18">
      <g>
       <use style="fill:#555555;stroke:#555555;stroke-width:0.8;" x="330.890366" xlink:href="#ma1821310f0" y="311.6"/>
      </g>
     </g>
     <g id="text_9">
      <!-- 0.9 -->
      <g style="fill:#555555;" transform="translate(322.938804 326.198437)scale(0.1 -0.1)">
       <defs>
        <path d="M 10.984375 1.515625 
L 10.984375 10.5 
Q 14.703125 8.734375 18.5 7.8125 
Q 22.3125 6.890625 25.984375 6.890625 
Q 35.75 6.890625 40.890625 13.453125 
Q 46.046875 20.015625 46.78125 33.40625 
Q 43.953125 29.203125 39.59375 26.953125 
Q 35.25 24.703125 29.984375 24.703125 
Q 19.046875 24.703125 12.671875 31.3125 
Q 6.296875 37.9375 6.296875 49.421875 
Q 6.296875 60.640625 12.9375 67.421875 
Q 19.578125 74.21875 30.609375 74.21875 
Q 43.265625 74.21875 49.921875 64.515625 
Q 56.59375 54.828125 56.59375 36.375 
Q 56.59375 19.140625 48.40625 8.859375 
Q 40.234375 -1.421875 26.421875 -1.421875 
Q 22.703125 -1.421875 18.890625 -0.6875 
Q 15.09375 0.046875 10.984375 1.515625 
z
M 30.609375 32.421875 
Q 37.25 32.421875 41.125 36.953125 
Q 45.015625 41.5 45.015625 49.421875 
Q 45.015625 57.28125 41.125 61.84375 
Q 37.25 66.40625 30.609375 66.40625 
Q 23.96875 66.40625 20.09375 61.84375 
Q 16.21875 57.28125 16.21875 49.421875 
Q 16.21875 41.5 20.09375 36.953125 
Q 23.96875 32.421875 30.609375 32.421875 
z
" id="DejaVuSans-57"/>
       </defs>
       <use xlink:href="#DejaVuSans-48"/>
       <use x="63.623047" xlink:href="#DejaVuSans-46"/>
       <use x="95.410156" xlink:href="#DejaVuSans-57"/>
      </g>
     </g>
    </g>
    <g id="text_10">
     <!-- ratio -->
     <g style="fill:#555555;" transform="translate(184.154913 341.39625)scale(0.12 -0.12)">
      <defs>
       <path d="M 41.109375 46.296875 
Q 39.59375 47.171875 37.8125 47.578125 
Q 36.03125 48 33.890625 48 
Q 26.265625 48 22.1875 43.046875 
Q 18.109375 38.09375 18.109375 28.8125 
L 18.109375 0 
L 9.078125 0 
L 9.078125 54.6875 
L 18.109375 54.6875 
L 18.109375 46.1875 
Q 20.953125 51.171875 25.484375 53.578125 
Q 30.03125 56 36.53125 56 
Q 37.453125 56 38.578125 55.875 
Q 39.703125 55.765625 41.0625 55.515625 
z
" id="DejaVuSans-114"/>
       <path d="M 34.28125 27.484375 
Q 23.390625 27.484375 19.1875 25 
Q 14.984375 22.515625 14.984375 16.5 
Q 14.984375 11.71875 18.140625 8.90625 
Q 21.296875 6.109375 26.703125 6.109375 
Q 34.1875 6.109375 38.703125 11.40625 
Q 43.21875 16.703125 43.21875 25.484375 
L 43.21875 27.484375 
z
M 52.203125 31.203125 
L 52.203125 0 
L 43.21875 0 
L 43.21875 8.296875 
Q 40.140625 3.328125 35.546875 0.953125 
Q 30.953125 -1.421875 24.3125 -1.421875 
Q 15.921875 -1.421875 10.953125 3.296875 
Q 6 8.015625 6 15.921875 
Q 6 25.140625 12.171875 29.828125 
Q 18.359375 34.515625 30.609375 34.515625 
L 43.21875 34.515625 
L 43.21875 35.40625 
Q 43.21875 41.609375 39.140625 45 
Q 35.0625 48.390625 27.6875 48.390625 
Q 23 48.390625 18.546875 47.265625 
Q 14.109375 46.140625 10.015625 43.890625 
L 10.015625 52.203125 
Q 14.9375 54.109375 19.578125 55.046875 
Q 24.21875 56 28.609375 56 
Q 40.484375 56 46.34375 49.84375 
Q 52.203125 43.703125 52.203125 31.203125 
z
" id="DejaVuSans-97"/>
       <path d="M 18.3125 70.21875 
L 18.3125 54.6875 
L 36.8125 54.6875 
L 36.8125 47.703125 
L 18.3125 47.703125 
L 18.3125 18.015625 
Q 18.3125 11.328125 20.140625 9.421875 
Q 21.96875 7.515625 27.59375 7.515625 
L 36.8125 7.515625 
L 36.8125 0 
L 27.59375 0 
Q 17.1875 0 13.234375 3.875 
Q 9.28125 7.765625 9.28125 18.015625 
L 9.28125 47.703125 
L 2.6875 47.703125 
L 2.6875 54.6875 
L 9.28125 54.6875 
L 9.28125 70.21875 
z
" id="DejaVuSans-116"/>
       <path d="M 9.421875 54.6875 
L 18.40625 54.6875 
L 18.40625 0 
L 9.421875 0 
z
M 9.421875 75.984375 
L 18.40625 75.984375 
L 18.40625 64.59375 
L 9.421875 64.59375 
z
" id="DejaVuSans-105"/>
       <path d="M 30.609375 48.390625 
Q 23.390625 48.390625 19.1875 42.75 
Q 14.984375 37.109375 14.984375 27.296875 
Q 14.984375 17.484375 19.15625 11.84375 
Q 23.34375 6.203125 30.609375 6.203125 
Q 37.796875 6.203125 41.984375 11.859375 
Q 46.1875 17.53125 46.1875 27.296875 
Q 46.1875 37.015625 41.984375 42.703125 
Q 37.796875 48.390625 30.609375 48.390625 
z
M 30.609375 56 
Q 42.328125 56 49.015625 48.375 
Q 55.71875 40.765625 55.71875 27.296875 
Q 55.71875 13.875 49.015625 6.21875 
Q 42.328125 -1.421875 30.609375 -1.421875 
Q 18.84375 -1.421875 12.171875 6.21875 
Q 5.515625 13.875 5.515625 27.296875 
Q 5.515625 40.765625 12.171875 48.375 
Q 18.84375 56 30.609375 56 
z
" id="DejaVuSans-111"/>
      </defs>
      <use xlink:href="#DejaVuSans-114"/>
      <use x="41.113281" xlink:href="#DejaVuSans-97"/>
      <use x="102.392578" xlink:href="#DejaVuSans-116"/>
      <use x="141.601562" xlink:href="#DejaVuSans-105"/>
      <use x="169.384766" xlink:href="#DejaVuSans-111"/>
     </g>
    </g>
   </g>
   <g id="matplotlib.axis_2">
    <g id="ytick_1">
     <g id="line2d_19">
      <path clip-path="url(#p6b1f693cde)" d="M 58.441875 293.91682 
L 337.535451 293.91682 
" style="fill:none;stroke:#ffffff;stroke-linecap:square;stroke-width:0.8;"/>
     </g>
     <g id="line2d_20">
      <defs>
       <path d="M 0 0 
L -3.5 0 
" id="mece3cc9b7c" style="stroke:#555555;stroke-width:0.8;"/>
      </defs>
      <g>
       <use style="fill:#555555;stroke:#555555;stroke-width:0.8;" x="58.441875" xlink:href="#mece3cc9b7c" y="293.91682"/>
      </g>
     </g>
     <g id="text_11">
      <!-- 0.700 -->
      <g style="fill:#555555;" transform="translate(22.81375 297.716038)scale(0.1 -0.1)">
       <use xlink:href="#DejaVuSans-48"/>
       <use x="63.623047" xlink:href="#DejaVuSans-46"/>
       <use x="95.410156" xlink:href="#DejaVuSans-55"/>
       <use x="159.033203" xlink:href="#DejaVuSans-48"/>
       <use x="222.65625" xlink:href="#DejaVuSans-48"/>
      </g>
     </g>
    </g>
    <g id="ytick_2">
     <g id="line2d_21">
      <path clip-path="url(#p6b1f693cde)" d="M 58.441875 257.85288 
L 337.535451 257.85288 
" style="fill:none;stroke:#ffffff;stroke-linecap:square;stroke-width:0.8;"/>
     </g>
     <g id="line2d_22">
      <g>
       <use style="fill:#555555;stroke:#555555;stroke-width:0.8;" x="58.441875" xlink:href="#mece3cc9b7c" y="257.85288"/>
      </g>
     </g>
     <g id="text_12">
      <!-- 0.725 -->
      <g style="fill:#555555;" transform="translate(22.81375 261.652098)scale(0.1 -0.1)">
       <use xlink:href="#DejaVuSans-48"/>
       <use x="63.623047" xlink:href="#DejaVuSans-46"/>
       <use x="95.410156" xlink:href="#DejaVuSans-55"/>
       <use x="159.033203" xlink:href="#DejaVuSans-50"/>
       <use x="222.65625" xlink:href="#DejaVuSans-53"/>
      </g>
     </g>
    </g>
    <g id="ytick_3">
     <g id="line2d_23">
      <path clip-path="url(#p6b1f693cde)" d="M 58.441875 221.788939 
L 337.535451 221.788939 
" style="fill:none;stroke:#ffffff;stroke-linecap:square;stroke-width:0.8;"/>
     </g>
     <g id="line2d_24">
      <g>
       <use style="fill:#555555;stroke:#555555;stroke-width:0.8;" x="58.441875" xlink:href="#mece3cc9b7c" y="221.788939"/>
      </g>
     </g>
     <g id="text_13">
      <!-- 0.750 -->
      <g style="fill:#555555;" transform="translate(22.81375 225.588158)scale(0.1 -0.1)">
       <use xlink:href="#DejaVuSans-48"/>
       <use x="63.623047" xlink:href="#DejaVuSans-46"/>
       <use x="95.410156" xlink:href="#DejaVuSans-55"/>
       <use x="159.033203" xlink:href="#DejaVuSans-53"/>
       <use x="222.65625" xlink:href="#DejaVuSans-48"/>
      </g>
     </g>
    </g>
    <g id="ytick_4">
     <g id="line2d_25">
      <path clip-path="url(#p6b1f693cde)" d="M 58.441875 185.724999 
L 337.535451 185.724999 
" style="fill:none;stroke:#ffffff;stroke-linecap:square;stroke-width:0.8;"/>
     </g>
     <g id="line2d_26">
      <g>
       <use style="fill:#555555;stroke:#555555;stroke-width:0.8;" x="58.441875" xlink:href="#mece3cc9b7c" y="185.724999"/>
      </g>
     </g>
     <g id="text_14">
      <!-- 0.775 -->
      <g style="fill:#555555;" transform="translate(22.81375 189.524218)scale(0.1 -0.1)">
       <use xlink:href="#DejaVuSans-48"/>
       <use x="63.623047" xlink:href="#DejaVuSans-46"/>
       <use x="95.410156" xlink:href="#DejaVuSans-55"/>
       <use x="159.033203" xlink:href="#DejaVuSans-55"/>
       <use x="222.65625" xlink:href="#DejaVuSans-53"/>
      </g>
     </g>
    </g>
    <g id="ytick_5">
     <g id="line2d_27">
      <path clip-path="url(#p6b1f693cde)" d="M 58.441875 149.661059 
L 337.535451 149.661059 
" style="fill:none;stroke:#ffffff;stroke-linecap:square;stroke-width:0.8;"/>
     </g>
     <g id="line2d_28">
      <g>
       <use style="fill:#555555;stroke:#555555;stroke-width:0.8;" x="58.441875" xlink:href="#mece3cc9b7c" y="149.661059"/>
      </g>
     </g>
     <g id="text_15">
      <!-- 0.800 -->
      <g style="fill:#555555;" transform="translate(22.81375 153.460278)scale(0.1 -0.1)">
       <use xlink:href="#DejaVuSans-48"/>
       <use x="63.623047" xlink:href="#DejaVuSans-46"/>
       <use x="95.410156" xlink:href="#DejaVuSans-56"/>
       <use x="159.033203" xlink:href="#DejaVuSans-48"/>
       <use x="222.65625" xlink:href="#DejaVuSans-48"/>
      </g>
     </g>
    </g>
    <g id="ytick_6">
     <g id="line2d_29">
      <path clip-path="url(#p6b1f693cde)" d="M 58.441875 113.597119 
L 337.535451 113.597119 
" style="fill:none;stroke:#ffffff;stroke-linecap:square;stroke-width:0.8;"/>
     </g>
     <g id="line2d_30">
      <g>
       <use style="fill:#555555;stroke:#555555;stroke-width:0.8;" x="58.441875" xlink:href="#mece3cc9b7c" y="113.597119"/>
      </g>
     </g>
     <g id="text_16">
      <!-- 0.825 -->
      <g style="fill:#555555;" transform="translate(22.81375 117.396338)scale(0.1 -0.1)">
       <use xlink:href="#DejaVuSans-48"/>
       <use x="63.623047" xlink:href="#DejaVuSans-46"/>
       <use x="95.410156" xlink:href="#DejaVuSans-56"/>
       <use x="159.033203" xlink:href="#DejaVuSans-50"/>
       <use x="222.65625" xlink:href="#DejaVuSans-53"/>
      </g>
     </g>
    </g>
    <g id="ytick_7">
     <g id="line2d_31">
      <path clip-path="url(#p6b1f693cde)" d="M 58.441875 77.533179 
L 337.535451 77.533179 
" style="fill:none;stroke:#ffffff;stroke-linecap:square;stroke-width:0.8;"/>
     </g>
     <g id="line2d_32">
      <g>
       <use style="fill:#555555;stroke:#555555;stroke-width:0.8;" x="58.441875" xlink:href="#mece3cc9b7c" y="77.533179"/>
      </g>
     </g>
     <g id="text_17">
      <!-- 0.850 -->
      <g style="fill:#555555;" transform="translate(22.81375 81.332398)scale(0.1 -0.1)">
       <use xlink:href="#DejaVuSans-48"/>
       <use x="63.623047" xlink:href="#DejaVuSans-46"/>
       <use x="95.410156" xlink:href="#DejaVuSans-56"/>
       <use x="159.033203" xlink:href="#DejaVuSans-53"/>
       <use x="222.65625" xlink:href="#DejaVuSans-48"/>
      </g>
     </g>
    </g>
    <g id="ytick_8">
     <g id="line2d_33">
      <path clip-path="url(#p6b1f693cde)" d="M 58.441875 41.469239 
L 337.535451 41.469239 
" style="fill:none;stroke:#ffffff;stroke-linecap:square;stroke-width:0.8;"/>
     </g>
     <g id="line2d_34">
      <g>
       <use style="fill:#555555;stroke:#555555;stroke-width:0.8;" x="58.441875" xlink:href="#mece3cc9b7c" y="41.469239"/>
      </g>
     </g>
     <g id="text_18">
      <!-- 0.875 -->
      <g style="fill:#555555;" transform="translate(22.81375 45.268457)scale(0.1 -0.1)">
       <use xlink:href="#DejaVuSans-48"/>
       <use x="63.623047" xlink:href="#DejaVuSans-46"/>
       <use x="95.410156" xlink:href="#DejaVuSans-56"/>
       <use x="159.033203" xlink:href="#DejaVuSans-55"/>
       <use x="222.65625" xlink:href="#DejaVuSans-53"/>
      </g>
     </g>
    </g>
    <g id="text_19">
     <!-- accuracy -->
     <g style="fill:#555555;" transform="translate(16.318125 186.47125)rotate(-90)scale(0.12 -0.12)">
      <defs>
       <path d="M 48.78125 52.59375 
L 48.78125 44.1875 
Q 44.96875 46.296875 41.140625 47.34375 
Q 37.3125 48.390625 33.40625 48.390625 
Q 24.65625 48.390625 19.8125 42.84375 
Q 14.984375 37.3125 14.984375 27.296875 
Q 14.984375 17.28125 19.8125 11.734375 
Q 24.65625 6.203125 33.40625 6.203125 
Q 37.3125 6.203125 41.140625 7.25 
Q 44.96875 8.296875 48.78125 10.40625 
L 48.78125 2.09375 
Q 45.015625 0.34375 40.984375 -0.53125 
Q 36.96875 -1.421875 32.421875 -1.421875 
Q 20.0625 -1.421875 12.78125 6.34375 
Q 5.515625 14.109375 5.515625 27.296875 
Q 5.515625 40.671875 12.859375 48.328125 
Q 20.21875 56 33.015625 56 
Q 37.15625 56 41.109375 55.140625 
Q 45.0625 54.296875 48.78125 52.59375 
z
" id="DejaVuSans-99"/>
       <path d="M 8.5 21.578125 
L 8.5 54.6875 
L 17.484375 54.6875 
L 17.484375 21.921875 
Q 17.484375 14.15625 20.5 10.265625 
Q 23.53125 6.390625 29.59375 6.390625 
Q 36.859375 6.390625 41.078125 11.03125 
Q 45.3125 15.671875 45.3125 23.6875 
L 45.3125 54.6875 
L 54.296875 54.6875 
L 54.296875 0 
L 45.3125 0 
L 45.3125 8.40625 
Q 42.046875 3.421875 37.71875 1 
Q 33.40625 -1.421875 27.6875 -1.421875 
Q 18.265625 -1.421875 13.375 4.4375 
Q 8.5 10.296875 8.5 21.578125 
z
M 31.109375 56 
z
" id="DejaVuSans-117"/>
       <path d="M 32.171875 -5.078125 
Q 28.375 -14.84375 24.75 -17.8125 
Q 21.140625 -20.796875 15.09375 -20.796875 
L 7.90625 -20.796875 
L 7.90625 -13.28125 
L 13.1875 -13.28125 
Q 16.890625 -13.28125 18.9375 -11.515625 
Q 21 -9.765625 23.484375 -3.21875 
L 25.09375 0.875 
L 2.984375 54.6875 
L 12.5 54.6875 
L 29.59375 11.921875 
L 46.6875 54.6875 
L 56.203125 54.6875 
z
" id="DejaVuSans-121"/>
      </defs>
      <use xlink:href="#DejaVuSans-97"/>
      <use x="61.279297" xlink:href="#DejaVuSans-99"/>
      <use x="116.259766" xlink:href="#DejaVuSans-99"/>
      <use x="171.240234" xlink:href="#DejaVuSans-117"/>
      <use x="234.619141" xlink:href="#DejaVuSans-114"/>
      <use x="275.732422" xlink:href="#DejaVuSans-97"/>
      <use x="337.011719" xlink:href="#DejaVuSans-99"/>
      <use x="391.992188" xlink:href="#DejaVuSans-121"/>
     </g>
    </g>
   </g>
   <g id="PathCollection_1">
    <defs>
     <path d="M 0 3 
C 0.795609 3 1.55874 2.683901 2.12132 2.12132 
C 2.683901 1.55874 3 0.795609 3 0 
C 3 -0.795609 2.683901 -1.55874 2.12132 -2.12132 
C 1.55874 -2.683901 0.795609 -3 0 -3 
C -0.795609 -3 -1.55874 -2.683901 -2.12132 -2.12132 
C -2.683901 -1.55874 -3 -0.795609 -3 0 
C -3 0.795609 -2.683901 1.55874 -2.12132 2.12132 
C -1.55874 2.683901 -0.795609 3 0 3 
z
" id="m70c82c1d05" style="stroke:#e24a33;stroke-opacity:0.8;"/>
    </defs>
    <g clip-path="url(#p6b1f693cde)">
     <use style="fill:#e24a33;fill-opacity:0.8;stroke:#e24a33;stroke-opacity:0.8;" x="40.167891" xlink:href="#m70c82c1d05" y="209.582683"/>
     <use style="fill:#e24a33;fill-opacity:0.8;stroke:#e24a33;stroke-opacity:0.8;" x="48.474247" xlink:href="#m70c82c1d05" y="177.145578"/>
     <use style="fill:#e24a33;fill-opacity:0.8;stroke:#e24a33;stroke-opacity:0.8;" x="56.780604" xlink:href="#m70c82c1d05" y="143.422972"/>
     <use style="fill:#e24a33;fill-opacity:0.8;stroke:#e24a33;stroke-opacity:0.8;" x="65.08696" xlink:href="#m70c82c1d05" y="132.83122"/>
     <use style="fill:#e24a33;fill-opacity:0.8;stroke:#e24a33;stroke-opacity:0.8;" x="73.393317" xlink:href="#m70c82c1d05" y="121.634226"/>
     <use style="fill:#e24a33;fill-opacity:0.8;stroke:#e24a33;stroke-opacity:0.8;" x="81.699673" xlink:href="#m70c82c1d05" y="123.016172"/>
     <use style="fill:#e24a33;fill-opacity:0.8;stroke:#e24a33;stroke-opacity:0.8;" x="90.006029" xlink:href="#m70c82c1d05" y="113.465977"/>
     <use style="fill:#e24a33;fill-opacity:0.8;stroke:#e24a33;stroke-opacity:0.8;" x="98.312386" xlink:href="#m70c82c1d05" y="114.679037"/>
     <use style="fill:#e24a33;fill-opacity:0.8;stroke:#e24a33;stroke-opacity:0.8;" x="106.618742" xlink:href="#m70c82c1d05" y="109.08331"/>
     <use style="fill:#e24a33;fill-opacity:0.8;stroke:#e24a33;stroke-opacity:0.8;" x="114.925099" xlink:href="#m70c82c1d05" y="103.691557"/>
     <use style="fill:#e24a33;fill-opacity:0.8;stroke:#e24a33;stroke-opacity:0.8;" x="123.231455" xlink:href="#m70c82c1d05" y="99.320773"/>
     <use style="fill:#e24a33;fill-opacity:0.8;stroke:#e24a33;stroke-opacity:0.8;" x="131.537812" xlink:href="#m70c82c1d05" y="93.401312"/>
     <use style="fill:#e24a33;fill-opacity:0.8;stroke:#e24a33;stroke-opacity:0.8;" x="139.844168" xlink:href="#m70c82c1d05" y="88.539359"/>
     <use style="fill:#e24a33;fill-opacity:0.8;stroke:#e24a33;stroke-opacity:0.8;" x="148.150525" xlink:href="#m70c82c1d05" y="87.742048"/>
     <use style="fill:#e24a33;fill-opacity:0.8;stroke:#e24a33;stroke-opacity:0.8;" x="156.456881" xlink:href="#m70c82c1d05" y="88.034998"/>
     <use style="fill:#e24a33;fill-opacity:0.8;stroke:#e24a33;stroke-opacity:0.8;" x="164.763237" xlink:href="#m70c82c1d05" y="84.986393"/>
     <use style="fill:#e24a33;fill-opacity:0.8;stroke:#e24a33;stroke-opacity:0.8;" x="173.069594" xlink:href="#m70c82c1d05" y="76.90598"/>
     <use style="fill:#e24a33;fill-opacity:0.8;stroke:#e24a33;stroke-opacity:0.8;" x="181.37595" xlink:href="#m70c82c1d05" y="73.336648"/>
     <use style="fill:#e24a33;fill-opacity:0.8;stroke:#e24a33;stroke-opacity:0.8;" x="189.682307" xlink:href="#m70c82c1d05" y="72.724653"/>
     <use style="fill:#e24a33;fill-opacity:0.8;stroke:#e24a33;stroke-opacity:0.8;" x="197.988663" xlink:href="#m70c82c1d05" y="71.185925"/>
     <use style="fill:#e24a33;fill-opacity:0.8;stroke:#e24a33;stroke-opacity:0.8;" x="206.29502" xlink:href="#m70c82c1d05" y="72.825886"/>
     <use style="fill:#e24a33;fill-opacity:0.8;stroke:#e24a33;stroke-opacity:0.8;" x="214.601376" xlink:href="#m70c82c1d05" y="69.51897"/>
     <use style="fill:#e24a33;fill-opacity:0.8;stroke:#e24a33;stroke-opacity:0.8;" x="222.907733" xlink:href="#m70c82c1d05" y="69.217258"/>
     <use style="fill:#e24a33;fill-opacity:0.8;stroke:#e24a33;stroke-opacity:0.8;" x="231.214089" xlink:href="#m70c82c1d05" y="68.517194"/>
     <use style="fill:#e24a33;fill-opacity:0.8;stroke:#e24a33;stroke-opacity:0.8;" x="239.520445" xlink:href="#m70c82c1d05" y="65.031013"/>
     <use style="fill:#e24a33;fill-opacity:0.8;stroke:#e24a33;stroke-opacity:0.8;" x="247.826802" xlink:href="#m70c82c1d05" y="63.519762"/>
     <use style="fill:#e24a33;fill-opacity:0.8;stroke:#e24a33;stroke-opacity:0.8;" x="256.133158" xlink:href="#m70c82c1d05" y="67.990105"/>
     <use style="fill:#e24a33;fill-opacity:0.8;stroke:#e24a33;stroke-opacity:0.8;" x="264.439515" xlink:href="#m70c82c1d05" y="67.916128"/>
     <use style="fill:#e24a33;fill-opacity:0.8;stroke:#e24a33;stroke-opacity:0.8;" x="272.745871" xlink:href="#m70c82c1d05" y="64.156736"/>
     <use style="fill:#e24a33;fill-opacity:0.8;stroke:#e24a33;stroke-opacity:0.8;" x="281.052228" xlink:href="#m70c82c1d05" y="65.415695"/>
     <use style="fill:#e24a33;fill-opacity:0.8;stroke:#e24a33;stroke-opacity:0.8;" x="289.358584" xlink:href="#m70c82c1d05" y="59.260782"/>
     <use style="fill:#e24a33;fill-opacity:0.8;stroke:#e24a33;stroke-opacity:0.8;" x="297.66494" xlink:href="#m70c82c1d05" y="55.894815"/>
     <use style="fill:#e24a33;fill-opacity:0.8;stroke:#e24a33;stroke-opacity:0.8;" x="305.971297" xlink:href="#m70c82c1d05" y="54.040098"/>
     <use style="fill:#e24a33;fill-opacity:0.8;stroke:#e24a33;stroke-opacity:0.8;" x="314.277653" xlink:href="#m70c82c1d05" y="42.911796"/>
     <use style="fill:#e24a33;fill-opacity:0.8;stroke:#e24a33;stroke-opacity:0.8;" x="322.58401" xlink:href="#m70c82c1d05" y="40.026681"/>
     <use style="fill:#e24a33;fill-opacity:0.8;stroke:#e24a33;stroke-opacity:0.8;" x="330.890366" xlink:href="#m70c82c1d05" y="54.452257"/>
     <use style="fill:#e24a33;fill-opacity:0.8;stroke:#e24a33;stroke-opacity:0.8;" x="339.196723" xlink:href="#m70c82c1d05" y="59.260782"/>
     <use style="fill:#e24a33;fill-opacity:0.8;stroke:#e24a33;stroke-opacity:0.8;" x="347.503079" xlink:href="#m70c82c1d05" y="48.682027"/>
     <use style="fill:#e24a33;fill-opacity:0.8;stroke:#e24a33;stroke-opacity:0.8;" x="355.809436" xlink:href="#m70c82c1d05" y="68.877833"/>
    </g>
   </g>
   <g id="PolyCollection_1">
    <path clip-path="url(#p6b1f693cde)" d="M 40.167891 118.75963 
L 40.167891 154.648082 
L 43.356189 153.338259 
L 46.544488 152.052992 
L 49.732786 150.767094 
L 52.921085 149.481197 
L 56.109383 148.193766 
L 59.297681 146.846036 
L 62.48598 145.493707 
L 65.674278 144.141377 
L 68.862577 142.789048 
L 72.050875 141.436718 
L 75.239174 140.084389 
L 78.427472 138.742598 
L 81.61577 137.417198 
L 84.804069 136.087481 
L 87.992367 134.755537 
L 91.180666 133.354988 
L 94.368964 131.953796 
L 97.557263 130.687707 
L 100.745561 129.434948 
L 103.933859 128.121344 
L 107.122158 126.796819 
L 110.310456 125.472293 
L 113.498755 124.147768 
L 116.687053 123.018146 
L 119.875352 121.598221 
L 123.06365 120.164946 
L 126.251948 118.902219 
L 129.440247 117.593314 
L 132.628545 116.459845 
L 135.816844 115.235701 
L 139.005142 113.958553 
L 142.193441 112.62809 
L 145.381739 111.445054 
L 148.570038 110.263885 
L 151.758336 109.046966 
L 154.946634 107.744756 
L 158.134933 106.581807 
L 161.323231 105.208792 
L 164.51153 103.90751 
L 167.699828 102.665173 
L 170.888127 101.398456 
L 174.076425 100.190653 
L 177.264723 98.976228 
L 180.453022 97.716662 
L 183.64132 96.487231 
L 186.829619 95.292453 
L 190.017917 94.078094 
L 193.206216 92.900522 
L 196.394514 91.709912 
L 199.582812 90.527956 
L 202.771111 89.344418 
L 205.959409 88.160042 
L 209.147708 86.984151 
L 212.336006 85.846196 
L 215.524305 84.746907 
L 218.712603 83.670886 
L 221.900901 82.600859 
L 225.0892 81.411897 
L 228.277498 80.351097 
L 231.465797 79.320349 
L 234.654095 78.301956 
L 237.842394 77.18195 
L 241.030692 76.142948 
L 244.21899 75.090766 
L 247.407289 74.12736 
L 250.595587 73.178262 
L 253.783886 72.187122 
L 256.972184 71.183083 
L 260.160483 70.296324 
L 263.348781 69.381035 
L 266.537079 68.539207 
L 269.725378 67.599307 
L 272.913676 66.621127 
L 276.101975 65.709824 
L 279.290273 64.855494 
L 282.478572 64.054364 
L 285.66687 63.060391 
L 288.855168 62.16567 
L 292.043467 61.329936 
L 295.231765 60.465553 
L 298.420064 59.623375 
L 301.608362 58.798686 
L 304.796661 57.868854 
L 307.984959 57.009872 
L 311.173258 56.097909 
L 314.361556 55.224344 
L 317.549854 54.371256 
L 320.738153 53.569003 
L 323.926451 52.792109 
L 327.11475 52.037879 
L 330.303048 51.286069 
L 333.491347 50.482865 
L 336.679645 49.691056 
L 339.867943 48.928827 
L 343.056242 48.151998 
L 346.24454 47.374412 
L 349.432839 46.596826 
L 352.621137 45.81924 
L 355.809436 45.041654 
L 355.809436 21.036364 
L 355.809436 21.036364 
L 352.621137 22.288988 
L 349.432839 23.625887 
L 346.24454 24.979252 
L 343.056242 26.332618 
L 339.867943 27.685984 
L 336.679645 29.039349 
L 333.491347 30.346709 
L 330.303048 31.64847 
L 327.11475 33.03165 
L 323.926451 34.400195 
L 320.738153 35.808131 
L 317.549854 37.162099 
L 314.361556 38.488565 
L 311.173258 39.67512 
L 307.984959 40.992206 
L 304.796661 42.150781 
L 301.608362 43.473417 
L 298.420064 44.801458 
L 295.231765 45.98193 
L 292.043467 47.315591 
L 288.855168 48.547218 
L 285.66687 49.744244 
L 282.478572 50.941481 
L 279.290273 52.150544 
L 276.101975 53.423997 
L 272.913676 54.636271 
L 269.725378 55.852396 
L 266.537079 57.128947 
L 263.348781 58.409434 
L 260.160483 59.603628 
L 256.972184 60.803876 
L 253.783886 62.010403 
L 250.595587 63.290143 
L 247.407289 64.386887 
L 244.21899 65.617709 
L 241.030692 66.762903 
L 237.842394 67.943961 
L 234.654095 69.093453 
L 231.465797 70.200817 
L 228.277498 71.230464 
L 225.0892 72.228237 
L 221.900901 73.25571 
L 218.712603 74.287029 
L 215.524305 75.189604 
L 212.336006 76.134676 
L 209.147708 77.163469 
L 205.959409 77.977395 
L 202.771111 78.824008 
L 199.582812 79.6627 
L 196.394514 80.540057 
L 193.206216 81.423038 
L 190.017917 82.270598 
L 186.829619 83.119331 
L 183.64132 83.953188 
L 180.453022 84.732575 
L 177.264723 85.5445 
L 174.076425 86.33803 
L 170.888127 87.099771 
L 167.699828 87.937674 
L 164.51153 88.722382 
L 161.323231 89.505646 
L 158.134933 90.290293 
L 154.946634 91.07494 
L 151.758336 91.859587 
L 148.570038 92.644234 
L 145.381739 93.428881 
L 142.193441 94.195092 
L 139.005142 94.957819 
L 135.816844 95.720547 
L 132.628545 96.501112 
L 129.440247 97.312688 
L 126.251948 98.068156 
L 123.06365 98.843438 
L 119.875352 99.610152 
L 116.687053 100.376928 
L 113.498755 101.156956 
L 110.310456 101.909416 
L 107.122158 102.674675 
L 103.933859 103.507892 
L 100.745561 104.34823 
L 97.557263 105.105975 
L 94.368964 105.877869 
L 91.180666 106.652196 
L 87.992367 107.408834 
L 84.804069 108.165473 
L 81.61577 108.922836 
L 78.427472 109.702668 
L 75.239174 110.49386 
L 72.050875 111.285052 
L 68.862577 112.076244 
L 65.674278 112.867437 
L 62.48598 113.658629 
L 59.297681 114.39572 
L 56.109383 115.122126 
L 52.921085 115.848532 
L 49.732786 116.561992 
L 46.544488 117.263923 
L 43.356189 118.002461 
L 40.167891 118.75963 
z
" style="fill:#e24a33;fill-opacity:0.15;"/>
   </g>
   <g id="PathCollection_2">
    <defs>
     <path d="M 0 3 
C 0.795609 3 1.55874 2.683901 2.12132 2.12132 
C 2.683901 1.55874 3 0.795609 3 0 
C 3 -0.795609 2.683901 -1.55874 2.12132 -2.12132 
C 1.55874 -2.683901 0.795609 -3 0 -3 
C -0.795609 -3 -1.55874 -2.683901 -2.12132 -2.12132 
C -2.683901 -1.55874 -3 -0.795609 -3 0 
C -3 0.795609 -2.683901 1.55874 -2.12132 2.12132 
C -1.55874 2.683901 -0.795609 3 0 3 
z
" id="m72a89ba39a" style="stroke:#348abd;stroke-opacity:0.8;"/>
    </defs>
    <g clip-path="url(#p6b1f693cde)">
     <use style="fill:#348abd;fill-opacity:0.8;stroke:#348abd;stroke-opacity:0.8;" x="40.167891" xlink:href="#m72a89ba39a" y="297.763636"/>
     <use style="fill:#348abd;fill-opacity:0.8;stroke:#348abd;stroke-opacity:0.8;" x="48.474247" xlink:href="#m72a89ba39a" y="200.530212"/>
     <use style="fill:#348abd;fill-opacity:0.8;stroke:#348abd;stroke-opacity:0.8;" x="56.780604" xlink:href="#m72a89ba39a" y="179.915755"/>
     <use style="fill:#348abd;fill-opacity:0.8;stroke:#348abd;stroke-opacity:0.8;" x="65.08696" xlink:href="#m72a89ba39a" y="197.425704"/>
     <use style="fill:#348abd;fill-opacity:0.8;stroke:#348abd;stroke-opacity:0.8;" x="73.393317" xlink:href="#m72a89ba39a" y="208.187697"/>
     <use style="fill:#348abd;fill-opacity:0.8;stroke:#348abd;stroke-opacity:0.8;" x="81.699673" xlink:href="#m72a89ba39a" y="140.157154"/>
     <use style="fill:#348abd;fill-opacity:0.8;stroke:#348abd;stroke-opacity:0.8;" x="90.006029" xlink:href="#m72a89ba39a" y="147.912489"/>
     <use style="fill:#348abd;fill-opacity:0.8;stroke:#348abd;stroke-opacity:0.8;" x="98.312386" xlink:href="#m72a89ba39a" y="122.973769"/>
     <use style="fill:#348abd;fill-opacity:0.8;stroke:#348abd;stroke-opacity:0.8;" x="106.618742" xlink:href="#m72a89ba39a" y="136.445348"/>
     <use style="fill:#348abd;fill-opacity:0.8;stroke:#348abd;stroke-opacity:0.8;" x="114.925099" xlink:href="#m72a89ba39a" y="117.347806"/>
     <use style="fill:#348abd;fill-opacity:0.8;stroke:#348abd;stroke-opacity:0.8;" x="123.231455" xlink:href="#m72a89ba39a" y="110.662274"/>
     <use style="fill:#348abd;fill-opacity:0.8;stroke:#348abd;stroke-opacity:0.8;" x="131.537812" xlink:href="#m72a89ba39a" y="125.13762"/>
     <use style="fill:#348abd;fill-opacity:0.8;stroke:#348abd;stroke-opacity:0.8;" x="139.844168" xlink:href="#m72a89ba39a" y="109.483187"/>
     <use style="fill:#348abd;fill-opacity:0.8;stroke:#348abd;stroke-opacity:0.8;" x="148.150525" xlink:href="#m72a89ba39a" y="107.493967"/>
     <use style="fill:#348abd;fill-opacity:0.8;stroke:#348abd;stroke-opacity:0.8;" x="156.456881" xlink:href="#m72a89ba39a" y="110.654277"/>
     <use style="fill:#348abd;fill-opacity:0.8;stroke:#348abd;stroke-opacity:0.8;" x="164.763237" xlink:href="#m72a89ba39a" y="114.799266"/>
     <use style="fill:#348abd;fill-opacity:0.8;stroke:#348abd;stroke-opacity:0.8;" x="173.069594" xlink:href="#m72a89ba39a" y="105.004498"/>
     <use style="fill:#348abd;fill-opacity:0.8;stroke:#348abd;stroke-opacity:0.8;" x="181.37595" xlink:href="#m72a89ba39a" y="89.598212"/>
     <use style="fill:#348abd;fill-opacity:0.8;stroke:#348abd;stroke-opacity:0.8;" x="189.682307" xlink:href="#m72a89ba39a" y="108.994631"/>
     <use style="fill:#348abd;fill-opacity:0.8;stroke:#348abd;stroke-opacity:0.8;" x="197.988663" xlink:href="#m72a89ba39a" y="105.807322"/>
     <use style="fill:#348abd;fill-opacity:0.8;stroke:#348abd;stroke-opacity:0.8;" x="206.29502" xlink:href="#m72a89ba39a" y="78.899846"/>
     <use style="fill:#348abd;fill-opacity:0.8;stroke:#348abd;stroke-opacity:0.8;" x="214.601376" xlink:href="#m72a89ba39a" y="107.987167"/>
     <use style="fill:#348abd;fill-opacity:0.8;stroke:#348abd;stroke-opacity:0.8;" x="222.907733" xlink:href="#m72a89ba39a" y="112.324242"/>
     <use style="fill:#348abd;fill-opacity:0.8;stroke:#348abd;stroke-opacity:0.8;" x="231.214089" xlink:href="#m72a89ba39a" y="83.664086"/>
     <use style="fill:#348abd;fill-opacity:0.8;stroke:#348abd;stroke-opacity:0.8;" x="239.520445" xlink:href="#m72a89ba39a" y="80.03362"/>
     <use style="fill:#348abd;fill-opacity:0.8;stroke:#348abd;stroke-opacity:0.8;" x="247.826802" xlink:href="#m72a89ba39a" y="92.783113"/>
     <use style="fill:#348abd;fill-opacity:0.8;stroke:#348abd;stroke-opacity:0.8;" x="256.133158" xlink:href="#m72a89ba39a" y="92.402638"/>
     <use style="fill:#348abd;fill-opacity:0.8;stroke:#348abd;stroke-opacity:0.8;" x="264.439515" xlink:href="#m72a89ba39a" y="83.303387"/>
     <use style="fill:#348abd;fill-opacity:0.8;stroke:#348abd;stroke-opacity:0.8;" x="272.745871" xlink:href="#m72a89ba39a" y="86.713134"/>
     <use style="fill:#348abd;fill-opacity:0.8;stroke:#348abd;stroke-opacity:0.8;" x="281.052228" xlink:href="#m72a89ba39a" y="82.726354"/>
     <use style="fill:#348abd;fill-opacity:0.8;stroke:#348abd;stroke-opacity:0.8;" x="289.358584" xlink:href="#m72a89ba39a" y="79.136042"/>
     <use style="fill:#348abd;fill-opacity:0.8;stroke:#348abd;stroke-opacity:0.8;" x="297.66494" xlink:href="#m72a89ba39a" y="78.254457"/>
     <use style="fill:#348abd;fill-opacity:0.8;stroke:#348abd;stroke-opacity:0.8;" x="305.971297" xlink:href="#m72a89ba39a" y="80.418308"/>
     <use style="fill:#348abd;fill-opacity:0.8;stroke:#348abd;stroke-opacity:0.8;" x="314.277653" xlink:href="#m72a89ba39a" y="65.992746"/>
     <use style="fill:#348abd;fill-opacity:0.8;stroke:#348abd;stroke-opacity:0.8;" x="322.58401" xlink:href="#m72a89ba39a" y="96.574969"/>
     <use style="fill:#348abd;fill-opacity:0.8;stroke:#348abd;stroke-opacity:0.8;" x="330.890366" xlink:href="#m72a89ba39a" y="67.435285"/>
     <use style="fill:#348abd;fill-opacity:0.8;stroke:#348abd;stroke-opacity:0.8;" x="339.196723" xlink:href="#m72a89ba39a" y="74.648066"/>
     <use style="fill:#348abd;fill-opacity:0.8;stroke:#348abd;stroke-opacity:0.8;" x="347.503079" xlink:href="#m72a89ba39a" y="68.877824"/>
     <use style="fill:#348abd;fill-opacity:0.8;stroke:#348abd;stroke-opacity:0.8;" x="355.809436" xlink:href="#m72a89ba39a" y="45.796942"/>
    </g>
   </g>
   <g id="PolyCollection_2">
    <path clip-path="url(#p6b1f693cde)" d="M 40.167891 150.291926 
L 40.167891 205.198995 
L 43.356189 203.457321 
L 46.544488 201.712284 
L 49.732786 199.948737 
L 52.921085 198.109647 
L 56.109383 196.463562 
L 59.297681 194.741595 
L 62.48598 193.001609 
L 65.674278 191.261622 
L 68.862577 189.521636 
L 72.050875 187.781649 
L 75.239174 186.227284 
L 78.427472 184.692864 
L 81.61577 183.158445 
L 84.804069 181.51744 
L 87.992367 179.772725 
L 91.180666 178.028011 
L 94.368964 176.283296 
L 97.557263 174.538582 
L 100.745561 172.790398 
L 103.933859 171.043965 
L 107.122158 169.301067 
L 110.310456 167.557731 
L 113.498755 165.809977 
L 116.687053 164.062224 
L 119.875352 162.31447 
L 123.06365 160.567855 
L 126.251948 158.829768 
L 129.440247 157.171457 
L 132.628545 155.484573 
L 135.816844 153.841306 
L 139.005142 152.203153 
L 142.193441 150.54832 
L 145.381739 148.893484 
L 148.570038 147.238648 
L 151.758336 145.583812 
L 154.946634 143.927922 
L 158.134933 142.274141 
L 161.323231 140.618172 
L 164.51153 138.892585 
L 167.699828 137.286156 
L 170.888127 135.651159 
L 174.076425 133.995958 
L 177.264723 132.313538 
L 180.453022 130.599747 
L 183.64132 128.885957 
L 186.829619 127.169778 
L 190.017917 125.452765 
L 193.206216 123.732017 
L 196.394514 122.035404 
L 199.582812 120.34262 
L 202.771111 118.83991 
L 205.959409 117.31313 
L 209.147708 115.783008 
L 212.336006 114.22864 
L 215.524305 112.715598 
L 218.712603 111.111919 
L 221.900901 109.623848 
L 225.0892 108.065166 
L 228.277498 106.498257 
L 231.465797 105.026535 
L 234.654095 103.543284 
L 237.842394 102.068248 
L 241.030692 100.729581 
L 244.21899 99.214191 
L 247.407289 97.859902 
L 250.595587 96.268536 
L 253.783886 94.719288 
L 256.972184 93.497995 
L 260.160483 92.127566 
L 263.348781 90.935167 
L 266.537079 89.965796 
L 269.725378 88.709023 
L 272.913676 87.355175 
L 276.101975 86.280146 
L 279.290273 85.21811 
L 282.478572 84.130928 
L 285.66687 83.058193 
L 288.855168 81.986942 
L 292.043467 80.993658 
L 295.231765 79.84167 
L 298.420064 78.802926 
L 301.608362 77.695172 
L 304.796661 76.717215 
L 307.984959 75.610229 
L 311.173258 74.710155 
L 314.361556 73.786619 
L 317.549854 72.870812 
L 320.738153 71.989376 
L 323.926451 71.082255 
L 327.11475 70.141269 
L 330.303048 69.199186 
L 333.491347 68.257801 
L 336.679645 67.315168 
L 339.867943 66.248454 
L 343.056242 65.314056 
L 346.24454 64.411829 
L 349.432839 63.460323 
L 352.621137 62.5345 
L 355.809436 61.608677 
L 355.809436 30.9622 
L 355.809436 30.9622 
L 352.621137 32.782587 
L 349.432839 34.603322 
L 346.24454 36.22368 
L 343.056242 37.833564 
L 339.867943 39.507443 
L 336.679645 41.29028 
L 333.491347 42.998735 
L 330.303048 44.566692 
L 327.11475 46.133302 
L 323.926451 47.703631 
L 320.738153 49.505153 
L 317.549854 51.084974 
L 314.361556 52.643244 
L 311.173258 54.319643 
L 307.984959 55.839648 
L 304.796661 57.387716 
L 301.608362 58.920421 
L 298.420064 60.456642 
L 295.231765 62.205304 
L 292.043467 63.985698 
L 288.855168 65.43748 
L 285.66687 66.889263 
L 282.478572 68.44619 
L 279.290273 70.02504 
L 276.101975 71.603889 
L 272.913676 73.182739 
L 269.725378 74.760868 
L 266.537079 76.365609 
L 263.348781 77.946176 
L 260.160483 79.509433 
L 256.972184 81.073399 
L 253.783886 82.651343 
L 250.595587 84.189324 
L 247.407289 85.793358 
L 244.21899 87.257199 
L 241.030692 88.714819 
L 237.842394 90.191953 
L 234.654095 91.547981 
L 231.465797 92.722637 
L 228.277498 94.086134 
L 225.0892 95.360315 
L 221.900901 96.551268 
L 218.712603 97.632773 
L 215.524305 98.887088 
L 212.336006 99.918923 
L 209.147708 100.968664 
L 205.959409 101.882451 
L 202.771111 102.871384 
L 199.582812 103.889468 
L 196.394514 104.843725 
L 193.206216 105.79719 
L 190.017917 106.747333 
L 186.829619 107.708658 
L 183.64132 108.742432 
L 180.453022 109.648414 
L 177.264723 110.562671 
L 174.076425 111.456902 
L 170.888127 112.361379 
L 167.699828 113.273944 
L 164.51153 114.233718 
L 161.323231 115.253056 
L 158.134933 116.272394 
L 154.946634 117.228549 
L 151.758336 118.182983 
L 148.570038 119.137417 
L 145.381739 120.062173 
L 142.193441 121.024352 
L 139.005142 121.94528 
L 135.816844 122.822417 
L 132.628545 123.728939 
L 129.440247 124.695216 
L 126.251948 125.662031 
L 123.06365 126.57218 
L 119.875352 127.478636 
L 116.687053 128.384972 
L 113.498755 129.292804 
L 110.310456 130.197707 
L 107.122158 131.102611 
L 103.933859 131.992412 
L 100.745561 132.817293 
L 97.557263 133.746608 
L 94.368964 134.678039 
L 91.180666 135.616959 
L 87.992367 136.537442 
L 84.804069 137.441894 
L 81.61577 138.346347 
L 78.427472 139.250799 
L 75.239174 140.155251 
L 72.050875 141.061625 
L 68.862577 141.968723 
L 65.674278 142.875821 
L 62.48598 143.8114 
L 59.297681 144.777589 
L 56.109383 145.72902 
L 52.921085 146.640787 
L 49.732786 147.552554 
L 46.544488 148.46562 
L 43.356189 149.378773 
L 40.167891 150.291926 
z
" style="fill:#348abd;fill-opacity:0.15;"/>
   </g>
   <g id="line2d_35">
    <path clip-path="url(#p6b1f693cde)" d="M 40.167891 137.413701 
L 43.356189 136.368952 
L 46.544488 135.324203 
L 49.732786 134.279454 
L 52.921085 133.234705 
L 56.109383 132.189956 
L 59.297681 131.145208 
L 62.48598 130.100459 
L 65.674278 129.05571 
L 68.862577 128.010961 
L 72.050875 126.966212 
L 75.239174 125.921463 
L 78.427472 124.876714 
L 81.61577 123.831966 
L 84.804069 122.787217 
L 87.992367 121.742468 
L 91.180666 120.697719 
L 94.368964 119.65297 
L 97.557263 118.608221 
L 100.745561 117.563472 
L 103.933859 116.518723 
L 107.122158 115.473975 
L 110.310456 114.429226 
L 113.498755 113.384477 
L 116.687053 112.339728 
L 119.875352 111.294979 
L 123.06365 110.25023 
L 126.251948 109.205481 
L 129.440247 108.160732 
L 132.628545 107.115984 
L 135.816844 106.071235 
L 139.005142 105.026486 
L 142.193441 103.981737 
L 145.381739 102.936988 
L 148.570038 101.892239 
L 151.758336 100.84749 
L 154.946634 99.802742 
L 158.134933 98.757993 
L 161.323231 97.713244 
L 164.51153 96.668495 
L 167.699828 95.623746 
L 170.888127 94.578997 
L 174.076425 93.534248 
L 177.264723 92.489499 
L 180.453022 91.444751 
L 183.64132 90.400002 
L 186.829619 89.355253 
L 190.017917 88.310504 
L 193.206216 87.265755 
L 196.394514 86.221006 
L 199.582812 85.176257 
L 202.771111 84.131508 
L 205.959409 83.08676 
L 209.147708 82.042011 
L 212.336006 80.997262 
L 215.524305 79.952513 
L 218.712603 78.907764 
L 221.900901 77.863015 
L 225.0892 76.818266 
L 228.277498 75.773518 
L 231.465797 74.728769 
L 234.654095 73.68402 
L 237.842394 72.639271 
L 241.030692 71.594522 
L 244.21899 70.549773 
L 247.407289 69.505024 
L 250.595587 68.460275 
L 253.783886 67.415527 
L 256.972184 66.370778 
L 260.160483 65.326029 
L 263.348781 64.28128 
L 266.537079 63.236531 
L 269.725378 62.191782 
L 272.913676 61.147033 
L 276.101975 60.102284 
L 279.290273 59.057536 
L 282.478572 58.012787 
L 285.66687 56.968038 
L 288.855168 55.923289 
L 292.043467 54.87854 
L 295.231765 53.833791 
L 298.420064 52.789042 
L 301.608362 51.744293 
L 304.796661 50.699545 
L 307.984959 49.654796 
L 311.173258 48.610047 
L 314.361556 47.565298 
L 317.549854 46.520549 
L 320.738153 45.4758 
L 323.926451 44.431051 
L 327.11475 43.386303 
L 330.303048 42.341554 
L 333.491347 41.296805 
L 336.679645 40.252056 
L 339.867943 39.207307 
L 343.056242 38.162558 
L 346.24454 37.117809 
L 349.432839 36.07306 
L 352.621137 35.028312 
L 355.809436 33.983563 
" style="fill:none;stroke:#e24a33;stroke-linecap:square;stroke-width:2.25;"/>
   </g>
   <g id="line2d_36">
    <path clip-path="url(#p6b1f693cde)" d="M 40.167891 178.583976 
L 43.356189 177.252451 
L 46.544488 175.920927 
L 49.732786 174.589402 
L 52.921085 173.257878 
L 56.109383 171.926353 
L 59.297681 170.594829 
L 62.48598 169.263304 
L 65.674278 167.93178 
L 68.862577 166.600255 
L 72.050875 165.268731 
L 75.239174 163.937206 
L 78.427472 162.605682 
L 81.61577 161.274157 
L 84.804069 159.942633 
L 87.992367 158.611108 
L 91.180666 157.279584 
L 94.368964 155.94806 
L 97.557263 154.616535 
L 100.745561 153.285011 
L 103.933859 151.953486 
L 107.122158 150.621962 
L 110.310456 149.290437 
L 113.498755 147.958913 
L 116.687053 146.627388 
L 119.875352 145.295864 
L 123.06365 143.964339 
L 126.251948 142.632815 
L 129.440247 141.30129 
L 132.628545 139.969766 
L 135.816844 138.638241 
L 139.005142 137.306717 
L 142.193441 135.975192 
L 145.381739 134.643668 
L 148.570038 133.312143 
L 151.758336 131.980619 
L 154.946634 130.649095 
L 158.134933 129.31757 
L 161.323231 127.986046 
L 164.51153 126.654521 
L 167.699828 125.322997 
L 170.888127 123.991472 
L 174.076425 122.659948 
L 177.264723 121.328423 
L 180.453022 119.996899 
L 183.64132 118.665374 
L 186.829619 117.33385 
L 190.017917 116.002325 
L 193.206216 114.670801 
L 196.394514 113.339276 
L 199.582812 112.007752 
L 202.771111 110.676227 
L 205.959409 109.344703 
L 209.147708 108.013178 
L 212.336006 106.681654 
L 215.524305 105.35013 
L 218.712603 104.018605 
L 221.900901 102.687081 
L 225.0892 101.355556 
L 228.277498 100.024032 
L 231.465797 98.692507 
L 234.654095 97.360983 
L 237.842394 96.029458 
L 241.030692 94.697934 
L 244.21899 93.366409 
L 247.407289 92.034885 
L 250.595587 90.70336 
L 253.783886 89.371836 
L 256.972184 88.040311 
L 260.160483 86.708787 
L 263.348781 85.377262 
L 266.537079 84.045738 
L 269.725378 82.714213 
L 272.913676 81.382689 
L 276.101975 80.051165 
L 279.290273 78.71964 
L 282.478572 77.388116 
L 285.66687 76.056591 
L 288.855168 74.725067 
L 292.043467 73.393542 
L 295.231765 72.062018 
L 298.420064 70.730493 
L 301.608362 69.398969 
L 304.796661 68.067444 
L 307.984959 66.73592 
L 311.173258 65.404395 
L 314.361556 64.072871 
L 317.549854 62.741346 
L 320.738153 61.409822 
L 323.926451 60.078297 
L 327.11475 58.746773 
L 330.303048 57.415249 
L 333.491347 56.083724 
L 336.679645 54.7522 
L 339.867943 53.420675 
L 343.056242 52.089151 
L 346.24454 50.757626 
L 349.432839 49.426102 
L 352.621137 48.094577 
L 355.809436 46.763053 
" style="fill:none;stroke:#348abd;stroke-linecap:square;stroke-width:2.25;"/>
   </g>
   <g id="patch_3">
    <path d="M 58.441875 311.6 
L 58.441875 7.2 
" style="fill:none;stroke:#ffffff;stroke-linecap:square;stroke-linejoin:miter;"/>
   </g>
   <g id="patch_4">
    <path d="M 58.441875 311.6 
L 337.535451 311.6 
" style="fill:none;stroke:#ffffff;stroke-linecap:square;stroke-linejoin:miter;"/>
   </g>
  </g>
  <g id="legend_1">
   <g id="text_20">
    <!-- name -->
    <g transform="translate(361.719045 163.627187)scale(0.1 -0.1)">
     <defs>
      <path d="M 54.890625 33.015625 
L 54.890625 0 
L 45.90625 0 
L 45.90625 32.71875 
Q 45.90625 40.484375 42.875 44.328125 
Q 39.84375 48.1875 33.796875 48.1875 
Q 26.515625 48.1875 22.3125 43.546875 
Q 18.109375 38.921875 18.109375 30.90625 
L 18.109375 0 
L 9.078125 0 
L 9.078125 54.6875 
L 18.109375 54.6875 
L 18.109375 46.1875 
Q 21.34375 51.125 25.703125 53.5625 
Q 30.078125 56 35.796875 56 
Q 45.21875 56 50.046875 50.171875 
Q 54.890625 44.34375 54.890625 33.015625 
z
" id="DejaVuSans-110"/>
      <path d="M 52 44.1875 
Q 55.375 50.25 60.0625 53.125 
Q 64.75 56 71.09375 56 
Q 79.640625 56 84.28125 50.015625 
Q 88.921875 44.046875 88.921875 33.015625 
L 88.921875 0 
L 79.890625 0 
L 79.890625 32.71875 
Q 79.890625 40.578125 77.09375 44.375 
Q 74.3125 48.1875 68.609375 48.1875 
Q 61.625 48.1875 57.5625 43.546875 
Q 53.515625 38.921875 53.515625 30.90625 
L 53.515625 0 
L 44.484375 0 
L 44.484375 32.71875 
Q 44.484375 40.625 41.703125 44.40625 
Q 38.921875 48.1875 33.109375 48.1875 
Q 26.21875 48.1875 22.15625 43.53125 
Q 18.109375 38.875 18.109375 30.90625 
L 18.109375 0 
L 9.078125 0 
L 9.078125 54.6875 
L 18.109375 54.6875 
L 18.109375 46.1875 
Q 21.1875 51.21875 25.484375 53.609375 
Q 29.78125 56 35.6875 56 
Q 41.65625 56 45.828125 52.96875 
Q 50 49.953125 52 44.1875 
z
" id="DejaVuSans-109"/>
      <path d="M 56.203125 29.59375 
L 56.203125 25.203125 
L 14.890625 25.203125 
Q 15.484375 15.921875 20.484375 11.0625 
Q 25.484375 6.203125 34.421875 6.203125 
Q 39.59375 6.203125 44.453125 7.46875 
Q 49.3125 8.734375 54.109375 11.28125 
L 54.109375 2.78125 
Q 49.265625 0.734375 44.1875 -0.34375 
Q 39.109375 -1.421875 33.890625 -1.421875 
Q 20.796875 -1.421875 13.15625 6.1875 
Q 5.515625 13.8125 5.515625 26.8125 
Q 5.515625 40.234375 12.765625 48.109375 
Q 20.015625 56 32.328125 56 
Q 43.359375 56 49.78125 48.890625 
Q 56.203125 41.796875 56.203125 29.59375 
z
M 47.21875 32.234375 
Q 47.125 39.59375 43.09375 43.984375 
Q 39.0625 48.390625 32.421875 48.390625 
Q 24.90625 48.390625 20.390625 44.140625 
Q 15.875 39.890625 15.1875 32.171875 
z
" id="DejaVuSans-101"/>
     </defs>
     <use xlink:href="#DejaVuSans-110"/>
     <use x="63.378906" xlink:href="#DejaVuSans-97"/>
     <use x="124.658203" xlink:href="#DejaVuSans-109"/>
     <use x="222.070312" xlink:href="#DejaVuSans-101"/>
    </g>
   </g>
   <g id="PathCollection_3">
    <g>
     <use style="fill:#e24a33;fill-opacity:0.8;stroke:#e24a33;stroke-opacity:0.8;" x="352.974514" xlink:href="#m70c82c1d05" y="175.680312"/>
    </g>
   </g>
   <g id="text_21">
    <!-- SVM -->
    <g transform="translate(370.974514 178.305312)scale(0.1 -0.1)">
     <defs>
      <path d="M 53.515625 70.515625 
L 53.515625 60.890625 
Q 47.90625 63.578125 42.921875 64.890625 
Q 37.9375 66.21875 33.296875 66.21875 
Q 25.25 66.21875 20.875 63.09375 
Q 16.5 59.96875 16.5 54.203125 
Q 16.5 49.359375 19.40625 46.890625 
Q 22.3125 44.4375 30.421875 42.921875 
L 36.375 41.703125 
Q 47.40625 39.59375 52.65625 34.296875 
Q 57.90625 29 57.90625 20.125 
Q 57.90625 9.515625 50.796875 4.046875 
Q 43.703125 -1.421875 29.984375 -1.421875 
Q 24.8125 -1.421875 18.96875 -0.25 
Q 13.140625 0.921875 6.890625 3.21875 
L 6.890625 13.375 
Q 12.890625 10.015625 18.65625 8.296875 
Q 24.421875 6.59375 29.984375 6.59375 
Q 38.421875 6.59375 43.015625 9.90625 
Q 47.609375 13.234375 47.609375 19.390625 
Q 47.609375 24.75 44.3125 27.78125 
Q 41.015625 30.8125 33.5 32.328125 
L 27.484375 33.5 
Q 16.453125 35.6875 11.515625 40.375 
Q 6.59375 45.0625 6.59375 53.421875 
Q 6.59375 63.09375 13.40625 68.65625 
Q 20.21875 74.21875 32.171875 74.21875 
Q 37.3125 74.21875 42.625 73.28125 
Q 47.953125 72.359375 53.515625 70.515625 
z
" id="DejaVuSans-83"/>
      <path d="M 28.609375 0 
L 0.78125 72.90625 
L 11.078125 72.90625 
L 34.1875 11.53125 
L 57.328125 72.90625 
L 67.578125 72.90625 
L 39.796875 0 
z
" id="DejaVuSans-86"/>
      <path d="M 9.8125 72.90625 
L 24.515625 72.90625 
L 43.109375 23.296875 
L 61.8125 72.90625 
L 76.515625 72.90625 
L 76.515625 0 
L 66.890625 0 
L 66.890625 64.015625 
L 48.09375 14.015625 
L 38.1875 14.015625 
L 19.390625 64.015625 
L 19.390625 0 
L 9.8125 0 
z
" id="DejaVuSans-77"/>
     </defs>
     <use xlink:href="#DejaVuSans-83"/>
     <use x="63.476562" xlink:href="#DejaVuSans-86"/>
     <use x="131.884766" xlink:href="#DejaVuSans-77"/>
    </g>
   </g>
   <g id="PathCollection_4">
    <g>
     <use style="fill:#348abd;fill-opacity:0.8;stroke:#348abd;stroke-opacity:0.8;" x="352.974514" xlink:href="#m72a89ba39a" y="190.358437"/>
    </g>
   </g>
   <g id="text_22">
    <!-- CNN 10 -->
    <g transform="translate(370.974514 192.983437)scale(0.1 -0.1)">
     <defs>
      <path d="M 64.40625 67.28125 
L 64.40625 56.890625 
Q 59.421875 61.53125 53.78125 63.8125 
Q 48.140625 66.109375 41.796875 66.109375 
Q 29.296875 66.109375 22.65625 58.46875 
Q 16.015625 50.828125 16.015625 36.375 
Q 16.015625 21.96875 22.65625 14.328125 
Q 29.296875 6.6875 41.796875 6.6875 
Q 48.140625 6.6875 53.78125 8.984375 
Q 59.421875 11.28125 64.40625 15.921875 
L 64.40625 5.609375 
Q 59.234375 2.09375 53.4375 0.328125 
Q 47.65625 -1.421875 41.21875 -1.421875 
Q 24.65625 -1.421875 15.125 8.703125 
Q 5.609375 18.84375 5.609375 36.375 
Q 5.609375 53.953125 15.125 64.078125 
Q 24.65625 74.21875 41.21875 74.21875 
Q 47.75 74.21875 53.53125 72.484375 
Q 59.328125 70.75 64.40625 67.28125 
z
" id="DejaVuSans-67"/>
      <path d="M 9.8125 72.90625 
L 23.09375 72.90625 
L 55.421875 11.921875 
L 55.421875 72.90625 
L 64.984375 72.90625 
L 64.984375 0 
L 51.703125 0 
L 19.390625 60.984375 
L 19.390625 0 
L 9.8125 0 
z
" id="DejaVuSans-78"/>
      <path id="DejaVuSans-32"/>
     </defs>
     <use xlink:href="#DejaVuSans-67"/>
     <use x="69.824219" xlink:href="#DejaVuSans-78"/>
     <use x="144.628906" xlink:href="#DejaVuSans-78"/>
     <use x="219.433594" xlink:href="#DejaVuSans-32"/>
     <use x="251.220703" xlink:href="#DejaVuSans-49"/>
     <use x="314.84375" xlink:href="#DejaVuSans-48"/>
    </g>
   </g>
  </g>
 </g>
 <defs>
  <clipPath id="p6b1f693cde">
   <rect height="304.4" width="279.093576" x="58.441875" y="7.2"/>
  </clipPath>
 </defs>
</svg>
