<?xml version="1.0" encoding="utf-8" standalone="no"?>
<!DOCTYPE svg PUBLIC "-//W3C//DTD SVG 1.1//EN"
  "http://www.w3.org/Graphics/SVG/1.1/DTD/svg11.dtd">
<!-- Created with matplotlib (https://matplotlib.org/) -->
<svg height="351.091875pt" version="1.1" viewBox="0 0 421.664983 351.091875" width="421.664983pt" xmlns="http://www.w3.org/2000/svg" xmlns:xlink="http://www.w3.org/1999/xlink">
 <metadata>
  <rdf:RDF xmlns:cc="http://creativecommons.org/ns#" xmlns:dc="http://purl.org/dc/elements/1.1/" xmlns:rdf="http://www.w3.org/1999/02/22-rdf-syntax-ns#">
   <cc:Work>
    <dc:type rdf:resource="http://purl.org/dc/dcmitype/StillImage"/>
    <dc:date>2020-09-05T21:11:44.048536</dc:date>
    <dc:format>image/svg+xml</dc:format>
    <dc:creator>
     <cc:Agent>
      <dc:title>Matplotlib v3.3.1, https://matplotlib.org/</dc:title>
     </cc:Agent>
    </dc:creator>
   </cc:Work>
  </rdf:RDF>
 </metadata>
 <defs>
  <style type="text/css">*{stroke-linecap:butt;stroke-linejoin:round;}</style>
 </defs>
 <g id="figure_1">
  <g id="patch_1">
   <path d="M 0 351.091875 
L 421.664983 351.091875 
L 421.664983 0 
L 0 0 
z
" style="fill:#ffffff;"/>
  </g>
  <g id="axes_1">
   <g id="patch_2">
    <path d="M 52.079375 311.6 
L 338.347483 311.6 
L 338.347483 7.2 
L 52.079375 7.2 
z
" style="fill:#e5e5e5;"/>
   </g>
   <g id="matplotlib.axis_1">
    <g id="xtick_1">
     <g id="line2d_1">
      <path clip-path="url(#p2d7fd06ce3)" d="M 58.895282 311.6 
L 58.895282 7.2 
" style="fill:none;stroke:#ffffff;stroke-linecap:square;stroke-width:0.8;"/>
     </g>
     <g id="line2d_2">
      <defs>
       <path d="M 0 0 
L 0 3.5 
" id="ma6ecb23296" style="stroke:#555555;stroke-width:0.8;"/>
      </defs>
      <g>
       <use style="fill:#555555;stroke:#555555;stroke-width:0.8;" x="58.895282" xlink:href="#ma6ecb23296" y="311.6"/>
      </g>
     </g>
     <g id="text_1">
      <!-- 0.1 -->
      <g style="fill:#555555;" transform="translate(50.94372 326.198437)scale(0.1 -0.1)">
       <defs>
        <path d="M 31.78125 66.40625 
Q 24.171875 66.40625 20.328125 58.90625 
Q 16.5 51.421875 16.5 36.375 
Q 16.5 21.390625 20.328125 13.890625 
Q 24.171875 6.390625 31.78125 6.390625 
Q 39.453125 6.390625 43.28125 13.890625 
Q 47.125 21.390625 47.125 36.375 
Q 47.125 51.421875 43.28125 58.90625 
Q 39.453125 66.40625 31.78125 66.40625 
z
M 31.78125 74.21875 
Q 44.046875 74.21875 50.515625 64.515625 
Q 56.984375 54.828125 56.984375 36.375 
Q 56.984375 17.96875 50.515625 8.265625 
Q 44.046875 -1.421875 31.78125 -1.421875 
Q 19.53125 -1.421875 13.0625 8.265625 
Q 6.59375 17.96875 6.59375 36.375 
Q 6.59375 54.828125 13.0625 64.515625 
Q 19.53125 74.21875 31.78125 74.21875 
z
" id="DejaVuSans-48"/>
        <path d="M 10.6875 12.40625 
L 21 12.40625 
L 21 0 
L 10.6875 0 
z
" id="DejaVuSans-46"/>
        <path d="M 12.40625 8.296875 
L 28.515625 8.296875 
L 28.515625 63.921875 
L 10.984375 60.40625 
L 10.984375 69.390625 
L 28.421875 72.90625 
L 38.28125 72.90625 
L 38.28125 8.296875 
L 54.390625 8.296875 
L 54.390625 0 
L 12.40625 0 
z
" id="DejaVuSans-49"/>
       </defs>
       <use xlink:href="#DejaVuSans-48"/>
       <use x="63.623047" xlink:href="#DejaVuSans-46"/>
       <use x="95.410156" xlink:href="#DejaVuSans-49"/>
      </g>
     </g>
    </g>
    <g id="xtick_2">
     <g id="line2d_3">
      <path clip-path="url(#p2d7fd06ce3)" d="M 92.974819 311.6 
L 92.974819 7.2 
" style="fill:none;stroke:#ffffff;stroke-linecap:square;stroke-width:0.8;"/>
     </g>
     <g id="line2d_4">
      <g>
       <use style="fill:#555555;stroke:#555555;stroke-width:0.8;" x="92.974819" xlink:href="#ma6ecb23296" y="311.6"/>
      </g>
     </g>
     <g id="text_2">
      <!-- 0.2 -->
      <g style="fill:#555555;" transform="translate(85.023256 326.198437)scale(0.1 -0.1)">
       <defs>
        <path d="M 19.1875 8.296875 
L 53.609375 8.296875 
L 53.609375 0 
L 7.328125 0 
L 7.328125 8.296875 
Q 12.9375 14.109375 22.625 23.890625 
Q 32.328125 33.6875 34.8125 36.53125 
Q 39.546875 41.84375 41.421875 45.53125 
Q 43.3125 49.21875 43.3125 52.78125 
Q 43.3125 58.59375 39.234375 62.25 
Q 35.15625 65.921875 28.609375 65.921875 
Q 23.96875 65.921875 18.8125 64.3125 
Q 13.671875 62.703125 7.8125 59.421875 
L 7.8125 69.390625 
Q 13.765625 71.78125 18.9375 73 
Q 24.125 74.21875 28.421875 74.21875 
Q 39.75 74.21875 46.484375 68.546875 
Q 53.21875 62.890625 53.21875 53.421875 
Q 53.21875 48.921875 51.53125 44.890625 
Q 49.859375 40.875 45.40625 35.40625 
Q 44.1875 33.984375 37.640625 27.21875 
Q 31.109375 20.453125 19.1875 8.296875 
z
" id="DejaVuSans-50"/>
       </defs>
       <use xlink:href="#DejaVuSans-48"/>
       <use x="63.623047" xlink:href="#DejaVuSans-46"/>
       <use x="95.410156" xlink:href="#DejaVuSans-50"/>
      </g>
     </g>
    </g>
    <g id="xtick_3">
     <g id="line2d_5">
      <path clip-path="url(#p2d7fd06ce3)" d="M 127.054356 311.6 
L 127.054356 7.2 
" style="fill:none;stroke:#ffffff;stroke-linecap:square;stroke-width:0.8;"/>
     </g>
     <g id="line2d_6">
      <g>
       <use style="fill:#555555;stroke:#555555;stroke-width:0.8;" x="127.054356" xlink:href="#ma6ecb23296" y="311.6"/>
      </g>
     </g>
     <g id="text_3">
      <!-- 0.3 -->
      <g style="fill:#555555;" transform="translate(119.102793 326.198437)scale(0.1 -0.1)">
       <defs>
        <path d="M 40.578125 39.3125 
Q 47.65625 37.796875 51.625 33 
Q 55.609375 28.21875 55.609375 21.1875 
Q 55.609375 10.40625 48.1875 4.484375 
Q 40.765625 -1.421875 27.09375 -1.421875 
Q 22.515625 -1.421875 17.65625 -0.515625 
Q 12.796875 0.390625 7.625 2.203125 
L 7.625 11.71875 
Q 11.71875 9.328125 16.59375 8.109375 
Q 21.484375 6.890625 26.8125 6.890625 
Q 36.078125 6.890625 40.9375 10.546875 
Q 45.796875 14.203125 45.796875 21.1875 
Q 45.796875 27.640625 41.28125 31.265625 
Q 36.765625 34.90625 28.71875 34.90625 
L 20.21875 34.90625 
L 20.21875 43.015625 
L 29.109375 43.015625 
Q 36.375 43.015625 40.234375 45.921875 
Q 44.09375 48.828125 44.09375 54.296875 
Q 44.09375 59.90625 40.109375 62.90625 
Q 36.140625 65.921875 28.71875 65.921875 
Q 24.65625 65.921875 20.015625 65.03125 
Q 15.375 64.15625 9.8125 62.3125 
L 9.8125 71.09375 
Q 15.4375 72.65625 20.34375 73.4375 
Q 25.25 74.21875 29.59375 74.21875 
Q 40.828125 74.21875 47.359375 69.109375 
Q 53.90625 64.015625 53.90625 55.328125 
Q 53.90625 49.265625 50.4375 45.09375 
Q 46.96875 40.921875 40.578125 39.3125 
z
" id="DejaVuSans-51"/>
       </defs>
       <use xlink:href="#DejaVuSans-48"/>
       <use x="63.623047" xlink:href="#DejaVuSans-46"/>
       <use x="95.410156" xlink:href="#DejaVuSans-51"/>
      </g>
     </g>
    </g>
    <g id="xtick_4">
     <g id="line2d_7">
      <path clip-path="url(#p2d7fd06ce3)" d="M 161.133892 311.6 
L 161.133892 7.2 
" style="fill:none;stroke:#ffffff;stroke-linecap:square;stroke-width:0.8;"/>
     </g>
     <g id="line2d_8">
      <g>
       <use style="fill:#555555;stroke:#555555;stroke-width:0.8;" x="161.133892" xlink:href="#ma6ecb23296" y="311.6"/>
      </g>
     </g>
     <g id="text_4">
      <!-- 0.4 -->
      <g style="fill:#555555;" transform="translate(153.18233 326.198437)scale(0.1 -0.1)">
       <defs>
        <path d="M 37.796875 64.3125 
L 12.890625 25.390625 
L 37.796875 25.390625 
z
M 35.203125 72.90625 
L 47.609375 72.90625 
L 47.609375 25.390625 
L 58.015625 25.390625 
L 58.015625 17.1875 
L 47.609375 17.1875 
L 47.609375 0 
L 37.796875 0 
L 37.796875 17.1875 
L 4.890625 17.1875 
L 4.890625 26.703125 
z
" id="DejaVuSans-52"/>
       </defs>
       <use xlink:href="#DejaVuSans-48"/>
       <use x="63.623047" xlink:href="#DejaVuSans-46"/>
       <use x="95.410156" xlink:href="#DejaVuSans-52"/>
      </g>
     </g>
    </g>
    <g id="xtick_5">
     <g id="line2d_9">
      <path clip-path="url(#p2d7fd06ce3)" d="M 195.213429 311.6 
L 195.213429 7.2 
" style="fill:none;stroke:#ffffff;stroke-linecap:square;stroke-width:0.8;"/>
     </g>
     <g id="line2d_10">
      <g>
       <use style="fill:#555555;stroke:#555555;stroke-width:0.8;" x="195.213429" xlink:href="#ma6ecb23296" y="311.6"/>
      </g>
     </g>
     <g id="text_5">
      <!-- 0.5 -->
      <g style="fill:#555555;" transform="translate(187.261866 326.198437)scale(0.1 -0.1)">
       <defs>
        <path d="M 10.796875 72.90625 
L 49.515625 72.90625 
L 49.515625 64.59375 
L 19.828125 64.59375 
L 19.828125 46.734375 
Q 21.96875 47.46875 24.109375 47.828125 
Q 26.265625 48.1875 28.421875 48.1875 
Q 40.625 48.1875 47.75 41.5 
Q 54.890625 34.8125 54.890625 23.390625 
Q 54.890625 11.625 47.5625 5.09375 
Q 40.234375 -1.421875 26.90625 -1.421875 
Q 22.3125 -1.421875 17.546875 -0.640625 
Q 12.796875 0.140625 7.71875 1.703125 
L 7.71875 11.625 
Q 12.109375 9.234375 16.796875 8.0625 
Q 21.484375 6.890625 26.703125 6.890625 
Q 35.15625 6.890625 40.078125 11.328125 
Q 45.015625 15.765625 45.015625 23.390625 
Q 45.015625 31 40.078125 35.4375 
Q 35.15625 39.890625 26.703125 39.890625 
Q 22.75 39.890625 18.8125 39.015625 
Q 14.890625 38.140625 10.796875 36.28125 
z
" id="DejaVuSans-53"/>
       </defs>
       <use xlink:href="#DejaVuSans-48"/>
       <use x="63.623047" xlink:href="#DejaVuSans-46"/>
       <use x="95.410156" xlink:href="#DejaVuSans-53"/>
      </g>
     </g>
    </g>
    <g id="xtick_6">
     <g id="line2d_11">
      <path clip-path="url(#p2d7fd06ce3)" d="M 229.292965 311.6 
L 229.292965 7.2 
" style="fill:none;stroke:#ffffff;stroke-linecap:square;stroke-width:0.8;"/>
     </g>
     <g id="line2d_12">
      <g>
       <use style="fill:#555555;stroke:#555555;stroke-width:0.8;" x="229.292965" xlink:href="#ma6ecb23296" y="311.6"/>
      </g>
     </g>
     <g id="text_6">
      <!-- 0.6 -->
      <g style="fill:#555555;" transform="translate(221.341403 326.198437)scale(0.1 -0.1)">
       <defs>
        <path d="M 33.015625 40.375 
Q 26.375 40.375 22.484375 35.828125 
Q 18.609375 31.296875 18.609375 23.390625 
Q 18.609375 15.53125 22.484375 10.953125 
Q 26.375 6.390625 33.015625 6.390625 
Q 39.65625 6.390625 43.53125 10.953125 
Q 47.40625 15.53125 47.40625 23.390625 
Q 47.40625 31.296875 43.53125 35.828125 
Q 39.65625 40.375 33.015625 40.375 
z
M 52.59375 71.296875 
L 52.59375 62.3125 
Q 48.875 64.0625 45.09375 64.984375 
Q 41.3125 65.921875 37.59375 65.921875 
Q 27.828125 65.921875 22.671875 59.328125 
Q 17.53125 52.734375 16.796875 39.40625 
Q 19.671875 43.65625 24.015625 45.921875 
Q 28.375 48.1875 33.59375 48.1875 
Q 44.578125 48.1875 50.953125 41.515625 
Q 57.328125 34.859375 57.328125 23.390625 
Q 57.328125 12.15625 50.6875 5.359375 
Q 44.046875 -1.421875 33.015625 -1.421875 
Q 20.359375 -1.421875 13.671875 8.265625 
Q 6.984375 17.96875 6.984375 36.375 
Q 6.984375 53.65625 15.1875 63.9375 
Q 23.390625 74.21875 37.203125 74.21875 
Q 40.921875 74.21875 44.703125 73.484375 
Q 48.484375 72.75 52.59375 71.296875 
z
" id="DejaVuSans-54"/>
       </defs>
       <use xlink:href="#DejaVuSans-48"/>
       <use x="63.623047" xlink:href="#DejaVuSans-46"/>
       <use x="95.410156" xlink:href="#DejaVuSans-54"/>
      </g>
     </g>
    </g>
    <g id="xtick_7">
     <g id="line2d_13">
      <path clip-path="url(#p2d7fd06ce3)" d="M 263.372502 311.6 
L 263.372502 7.2 
" style="fill:none;stroke:#ffffff;stroke-linecap:square;stroke-width:0.8;"/>
     </g>
     <g id="line2d_14">
      <g>
       <use style="fill:#555555;stroke:#555555;stroke-width:0.8;" x="263.372502" xlink:href="#ma6ecb23296" y="311.6"/>
      </g>
     </g>
     <g id="text_7">
      <!-- 0.7 -->
      <g style="fill:#555555;" transform="translate(255.42094 326.198437)scale(0.1 -0.1)">
       <defs>
        <path d="M 8.203125 72.90625 
L 55.078125 72.90625 
L 55.078125 68.703125 
L 28.609375 0 
L 18.3125 0 
L 43.21875 64.59375 
L 8.203125 64.59375 
z
" id="DejaVuSans-55"/>
       </defs>
       <use xlink:href="#DejaVuSans-48"/>
       <use x="63.623047" xlink:href="#DejaVuSans-46"/>
       <use x="95.410156" xlink:href="#DejaVuSans-55"/>
      </g>
     </g>
    </g>
    <g id="xtick_8">
     <g id="line2d_15">
      <path clip-path="url(#p2d7fd06ce3)" d="M 297.452039 311.6 
L 297.452039 7.2 
" style="fill:none;stroke:#ffffff;stroke-linecap:square;stroke-width:0.8;"/>
     </g>
     <g id="line2d_16">
      <g>
       <use style="fill:#555555;stroke:#555555;stroke-width:0.8;" x="297.452039" xlink:href="#ma6ecb23296" y="311.6"/>
      </g>
     </g>
     <g id="text_8">
      <!-- 0.8 -->
      <g style="fill:#555555;" transform="translate(289.500476 326.198437)scale(0.1 -0.1)">
       <defs>
        <path d="M 31.78125 34.625 
Q 24.75 34.625 20.71875 30.859375 
Q 16.703125 27.09375 16.703125 20.515625 
Q 16.703125 13.921875 20.71875 10.15625 
Q 24.75 6.390625 31.78125 6.390625 
Q 38.8125 6.390625 42.859375 10.171875 
Q 46.921875 13.96875 46.921875 20.515625 
Q 46.921875 27.09375 42.890625 30.859375 
Q 38.875 34.625 31.78125 34.625 
z
M 21.921875 38.8125 
Q 15.578125 40.375 12.03125 44.71875 
Q 8.5 49.078125 8.5 55.328125 
Q 8.5 64.0625 14.71875 69.140625 
Q 20.953125 74.21875 31.78125 74.21875 
Q 42.671875 74.21875 48.875 69.140625 
Q 55.078125 64.0625 55.078125 55.328125 
Q 55.078125 49.078125 51.53125 44.71875 
Q 48 40.375 41.703125 38.8125 
Q 48.828125 37.15625 52.796875 32.3125 
Q 56.78125 27.484375 56.78125 20.515625 
Q 56.78125 9.90625 50.3125 4.234375 
Q 43.84375 -1.421875 31.78125 -1.421875 
Q 19.734375 -1.421875 13.25 4.234375 
Q 6.78125 9.90625 6.78125 20.515625 
Q 6.78125 27.484375 10.78125 32.3125 
Q 14.796875 37.15625 21.921875 38.8125 
z
M 18.3125 54.390625 
Q 18.3125 48.734375 21.84375 45.5625 
Q 25.390625 42.390625 31.78125 42.390625 
Q 38.140625 42.390625 41.71875 45.5625 
Q 45.3125 48.734375 45.3125 54.390625 
Q 45.3125 60.0625 41.71875 63.234375 
Q 38.140625 66.40625 31.78125 66.40625 
Q 25.390625 66.40625 21.84375 63.234375 
Q 18.3125 60.0625 18.3125 54.390625 
z
" id="DejaVuSans-56"/>
       </defs>
       <use xlink:href="#DejaVuSans-48"/>
       <use x="63.623047" xlink:href="#DejaVuSans-46"/>
       <use x="95.410156" xlink:href="#DejaVuSans-56"/>
      </g>
     </g>
    </g>
    <g id="xtick_9">
     <g id="line2d_17">
      <path clip-path="url(#p2d7fd06ce3)" d="M 331.531575 311.6 
L 331.531575 7.2 
" style="fill:none;stroke:#ffffff;stroke-linecap:square;stroke-width:0.8;"/>
     </g>
     <g id="line2d_18">
      <g>
       <use style="fill:#555555;stroke:#555555;stroke-width:0.8;" x="331.531575" xlink:href="#ma6ecb23296" y="311.6"/>
      </g>
     </g>
     <g id="text_9">
      <!-- 0.9 -->
      <g style="fill:#555555;" transform="translate(323.580013 326.198437)scale(0.1 -0.1)">
       <defs>
        <path d="M 10.984375 1.515625 
L 10.984375 10.5 
Q 14.703125 8.734375 18.5 7.8125 
Q 22.3125 6.890625 25.984375 6.890625 
Q 35.75 6.890625 40.890625 13.453125 
Q 46.046875 20.015625 46.78125 33.40625 
Q 43.953125 29.203125 39.59375 26.953125 
Q 35.25 24.703125 29.984375 24.703125 
Q 19.046875 24.703125 12.671875 31.3125 
Q 6.296875 37.9375 6.296875 49.421875 
Q 6.296875 60.640625 12.9375 67.421875 
Q 19.578125 74.21875 30.609375 74.21875 
Q 43.265625 74.21875 49.921875 64.515625 
Q 56.59375 54.828125 56.59375 36.375 
Q 56.59375 19.140625 48.40625 8.859375 
Q 40.234375 -1.421875 26.421875 -1.421875 
Q 22.703125 -1.421875 18.890625 -0.6875 
Q 15.09375 0.046875 10.984375 1.515625 
z
M 30.609375 32.421875 
Q 37.25 32.421875 41.125 36.953125 
Q 45.015625 41.5 45.015625 49.421875 
Q 45.015625 57.28125 41.125 61.84375 
Q 37.25 66.40625 30.609375 66.40625 
Q 23.96875 66.40625 20.09375 61.84375 
Q 16.21875 57.28125 16.21875 49.421875 
Q 16.21875 41.5 20.09375 36.953125 
Q 23.96875 32.421875 30.609375 32.421875 
z
" id="DejaVuSans-57"/>
       </defs>
       <use xlink:href="#DejaVuSans-48"/>
       <use x="63.623047" xlink:href="#DejaVuSans-46"/>
       <use x="95.410156" xlink:href="#DejaVuSans-57"/>
      </g>
     </g>
    </g>
    <g id="text_10">
     <!-- ratio -->
     <g style="fill:#555555;" transform="translate(181.379679 341.39625)scale(0.12 -0.12)">
      <defs>
       <path d="M 41.109375 46.296875 
Q 39.59375 47.171875 37.8125 47.578125 
Q 36.03125 48 33.890625 48 
Q 26.265625 48 22.1875 43.046875 
Q 18.109375 38.09375 18.109375 28.8125 
L 18.109375 0 
L 9.078125 0 
L 9.078125 54.6875 
L 18.109375 54.6875 
L 18.109375 46.1875 
Q 20.953125 51.171875 25.484375 53.578125 
Q 30.03125 56 36.53125 56 
Q 37.453125 56 38.578125 55.875 
Q 39.703125 55.765625 41.0625 55.515625 
z
" id="DejaVuSans-114"/>
       <path d="M 34.28125 27.484375 
Q 23.390625 27.484375 19.1875 25 
Q 14.984375 22.515625 14.984375 16.5 
Q 14.984375 11.71875 18.140625 8.90625 
Q 21.296875 6.109375 26.703125 6.109375 
Q 34.1875 6.109375 38.703125 11.40625 
Q 43.21875 16.703125 43.21875 25.484375 
L 43.21875 27.484375 
z
M 52.203125 31.203125 
L 52.203125 0 
L 43.21875 0 
L 43.21875 8.296875 
Q 40.140625 3.328125 35.546875 0.953125 
Q 30.953125 -1.421875 24.3125 -1.421875 
Q 15.921875 -1.421875 10.953125 3.296875 
Q 6 8.015625 6 15.921875 
Q 6 25.140625 12.171875 29.828125 
Q 18.359375 34.515625 30.609375 34.515625 
L 43.21875 34.515625 
L 43.21875 35.40625 
Q 43.21875 41.609375 39.140625 45 
Q 35.0625 48.390625 27.6875 48.390625 
Q 23 48.390625 18.546875 47.265625 
Q 14.109375 46.140625 10.015625 43.890625 
L 10.015625 52.203125 
Q 14.9375 54.109375 19.578125 55.046875 
Q 24.21875 56 28.609375 56 
Q 40.484375 56 46.34375 49.84375 
Q 52.203125 43.703125 52.203125 31.203125 
z
" id="DejaVuSans-97"/>
       <path d="M 18.3125 70.21875 
L 18.3125 54.6875 
L 36.8125 54.6875 
L 36.8125 47.703125 
L 18.3125 47.703125 
L 18.3125 18.015625 
Q 18.3125 11.328125 20.140625 9.421875 
Q 21.96875 7.515625 27.59375 7.515625 
L 36.8125 7.515625 
L 36.8125 0 
L 27.59375 0 
Q 17.1875 0 13.234375 3.875 
Q 9.28125 7.765625 9.28125 18.015625 
L 9.28125 47.703125 
L 2.6875 47.703125 
L 2.6875 54.6875 
L 9.28125 54.6875 
L 9.28125 70.21875 
z
" id="DejaVuSans-116"/>
       <path d="M 9.421875 54.6875 
L 18.40625 54.6875 
L 18.40625 0 
L 9.421875 0 
z
M 9.421875 75.984375 
L 18.40625 75.984375 
L 18.40625 64.59375 
L 9.421875 64.59375 
z
" id="DejaVuSans-105"/>
       <path d="M 30.609375 48.390625 
Q 23.390625 48.390625 19.1875 42.75 
Q 14.984375 37.109375 14.984375 27.296875 
Q 14.984375 17.484375 19.15625 11.84375 
Q 23.34375 6.203125 30.609375 6.203125 
Q 37.796875 6.203125 41.984375 11.859375 
Q 46.1875 17.53125 46.1875 27.296875 
Q 46.1875 37.015625 41.984375 42.703125 
Q 37.796875 48.390625 30.609375 48.390625 
z
M 30.609375 56 
Q 42.328125 56 49.015625 48.375 
Q 55.71875 40.765625 55.71875 27.296875 
Q 55.71875 13.875 49.015625 6.21875 
Q 42.328125 -1.421875 30.609375 -1.421875 
Q 18.84375 -1.421875 12.171875 6.21875 
Q 5.515625 13.875 5.515625 27.296875 
Q 5.515625 40.765625 12.171875 48.375 
Q 18.84375 56 30.609375 56 
z
" id="DejaVuSans-111"/>
      </defs>
      <use xlink:href="#DejaVuSans-114"/>
      <use x="41.113281" xlink:href="#DejaVuSans-97"/>
      <use x="102.392578" xlink:href="#DejaVuSans-116"/>
      <use x="141.601562" xlink:href="#DejaVuSans-105"/>
      <use x="169.384766" xlink:href="#DejaVuSans-111"/>
     </g>
    </g>
   </g>
   <g id="matplotlib.axis_2">
    <g id="ytick_1">
     <g id="line2d_19">
      <path clip-path="url(#p2d7fd06ce3)" d="M 52.079375 294.893631 
L 338.347483 294.893631 
" style="fill:none;stroke:#ffffff;stroke-linecap:square;stroke-width:0.8;"/>
     </g>
     <g id="line2d_20">
      <defs>
       <path d="M 0 0 
L -3.5 0 
" id="m55ea48abc5" style="stroke:#555555;stroke-width:0.8;"/>
      </defs>
      <g>
       <use style="fill:#555555;stroke:#555555;stroke-width:0.8;" x="52.079375" xlink:href="#m55ea48abc5" y="294.893631"/>
      </g>
     </g>
     <g id="text_11">
      <!-- 0.76 -->
      <g style="fill:#555555;" transform="translate(22.81375 298.69285)scale(0.1 -0.1)">
       <use xlink:href="#DejaVuSans-48"/>
       <use x="63.623047" xlink:href="#DejaVuSans-46"/>
       <use x="95.410156" xlink:href="#DejaVuSans-55"/>
       <use x="159.033203" xlink:href="#DejaVuSans-54"/>
      </g>
     </g>
    </g>
    <g id="ytick_2">
     <g id="line2d_21">
      <path clip-path="url(#p2d7fd06ce3)" d="M 52.079375 257.583561 
L 338.347483 257.583561 
" style="fill:none;stroke:#ffffff;stroke-linecap:square;stroke-width:0.8;"/>
     </g>
     <g id="line2d_22">
      <g>
       <use style="fill:#555555;stroke:#555555;stroke-width:0.8;" x="52.079375" xlink:href="#m55ea48abc5" y="257.583561"/>
      </g>
     </g>
     <g id="text_12">
      <!-- 0.78 -->
      <g style="fill:#555555;" transform="translate(22.81375 261.38278)scale(0.1 -0.1)">
       <use xlink:href="#DejaVuSans-48"/>
       <use x="63.623047" xlink:href="#DejaVuSans-46"/>
       <use x="95.410156" xlink:href="#DejaVuSans-55"/>
       <use x="159.033203" xlink:href="#DejaVuSans-56"/>
      </g>
     </g>
    </g>
    <g id="ytick_3">
     <g id="line2d_23">
      <path clip-path="url(#p2d7fd06ce3)" d="M 52.079375 220.273492 
L 338.347483 220.273492 
" style="fill:none;stroke:#ffffff;stroke-linecap:square;stroke-width:0.8;"/>
     </g>
     <g id="line2d_24">
      <g>
       <use style="fill:#555555;stroke:#555555;stroke-width:0.8;" x="52.079375" xlink:href="#m55ea48abc5" y="220.273492"/>
      </g>
     </g>
     <g id="text_13">
      <!-- 0.80 -->
      <g style="fill:#555555;" transform="translate(22.81375 224.07271)scale(0.1 -0.1)">
       <use xlink:href="#DejaVuSans-48"/>
       <use x="63.623047" xlink:href="#DejaVuSans-46"/>
       <use x="95.410156" xlink:href="#DejaVuSans-56"/>
       <use x="159.033203" xlink:href="#DejaVuSans-48"/>
      </g>
     </g>
    </g>
    <g id="ytick_4">
     <g id="line2d_25">
      <path clip-path="url(#p2d7fd06ce3)" d="M 52.079375 182.963422 
L 338.347483 182.963422 
" style="fill:none;stroke:#ffffff;stroke-linecap:square;stroke-width:0.8;"/>
     </g>
     <g id="line2d_26">
      <g>
       <use style="fill:#555555;stroke:#555555;stroke-width:0.8;" x="52.079375" xlink:href="#m55ea48abc5" y="182.963422"/>
      </g>
     </g>
     <g id="text_14">
      <!-- 0.82 -->
      <g style="fill:#555555;" transform="translate(22.81375 186.762641)scale(0.1 -0.1)">
       <use xlink:href="#DejaVuSans-48"/>
       <use x="63.623047" xlink:href="#DejaVuSans-46"/>
       <use x="95.410156" xlink:href="#DejaVuSans-56"/>
       <use x="159.033203" xlink:href="#DejaVuSans-50"/>
      </g>
     </g>
    </g>
    <g id="ytick_5">
     <g id="line2d_27">
      <path clip-path="url(#p2d7fd06ce3)" d="M 52.079375 145.653352 
L 338.347483 145.653352 
" style="fill:none;stroke:#ffffff;stroke-linecap:square;stroke-width:0.8;"/>
     </g>
     <g id="line2d_28">
      <g>
       <use style="fill:#555555;stroke:#555555;stroke-width:0.8;" x="52.079375" xlink:href="#m55ea48abc5" y="145.653352"/>
      </g>
     </g>
     <g id="text_15">
      <!-- 0.84 -->
      <g style="fill:#555555;" transform="translate(22.81375 149.452571)scale(0.1 -0.1)">
       <use xlink:href="#DejaVuSans-48"/>
       <use x="63.623047" xlink:href="#DejaVuSans-46"/>
       <use x="95.410156" xlink:href="#DejaVuSans-56"/>
       <use x="159.033203" xlink:href="#DejaVuSans-52"/>
      </g>
     </g>
    </g>
    <g id="ytick_6">
     <g id="line2d_29">
      <path clip-path="url(#p2d7fd06ce3)" d="M 52.079375 108.343282 
L 338.347483 108.343282 
" style="fill:none;stroke:#ffffff;stroke-linecap:square;stroke-width:0.8;"/>
     </g>
     <g id="line2d_30">
      <g>
       <use style="fill:#555555;stroke:#555555;stroke-width:0.8;" x="52.079375" xlink:href="#m55ea48abc5" y="108.343282"/>
      </g>
     </g>
     <g id="text_16">
      <!-- 0.86 -->
      <g style="fill:#555555;" transform="translate(22.81375 112.142501)scale(0.1 -0.1)">
       <use xlink:href="#DejaVuSans-48"/>
       <use x="63.623047" xlink:href="#DejaVuSans-46"/>
       <use x="95.410156" xlink:href="#DejaVuSans-56"/>
       <use x="159.033203" xlink:href="#DejaVuSans-54"/>
      </g>
     </g>
    </g>
    <g id="ytick_7">
     <g id="line2d_31">
      <path clip-path="url(#p2d7fd06ce3)" d="M 52.079375 71.033213 
L 338.347483 71.033213 
" style="fill:none;stroke:#ffffff;stroke-linecap:square;stroke-width:0.8;"/>
     </g>
     <g id="line2d_32">
      <g>
       <use style="fill:#555555;stroke:#555555;stroke-width:0.8;" x="52.079375" xlink:href="#m55ea48abc5" y="71.033213"/>
      </g>
     </g>
     <g id="text_17">
      <!-- 0.88 -->
      <g style="fill:#555555;" transform="translate(22.81375 74.832431)scale(0.1 -0.1)">
       <use xlink:href="#DejaVuSans-48"/>
       <use x="63.623047" xlink:href="#DejaVuSans-46"/>
       <use x="95.410156" xlink:href="#DejaVuSans-56"/>
       <use x="159.033203" xlink:href="#DejaVuSans-56"/>
      </g>
     </g>
    </g>
    <g id="ytick_8">
     <g id="line2d_33">
      <path clip-path="url(#p2d7fd06ce3)" d="M 52.079375 33.723143 
L 338.347483 33.723143 
" style="fill:none;stroke:#ffffff;stroke-linecap:square;stroke-width:0.8;"/>
     </g>
     <g id="line2d_34">
      <g>
       <use style="fill:#555555;stroke:#555555;stroke-width:0.8;" x="52.079375" xlink:href="#m55ea48abc5" y="33.723143"/>
      </g>
     </g>
     <g id="text_18">
      <!-- 0.90 -->
      <g style="fill:#555555;" transform="translate(22.81375 37.522362)scale(0.1 -0.1)">
       <use xlink:href="#DejaVuSans-48"/>
       <use x="63.623047" xlink:href="#DejaVuSans-46"/>
       <use x="95.410156" xlink:href="#DejaVuSans-57"/>
       <use x="159.033203" xlink:href="#DejaVuSans-48"/>
      </g>
     </g>
    </g>
    <g id="text_19">
     <!-- accuracy -->
     <g style="fill:#555555;" transform="translate(16.318125 186.47125)rotate(-90)scale(0.12 -0.12)">
      <defs>
       <path d="M 48.78125 52.59375 
L 48.78125 44.1875 
Q 44.96875 46.296875 41.140625 47.34375 
Q 37.3125 48.390625 33.40625 48.390625 
Q 24.65625 48.390625 19.8125 42.84375 
Q 14.984375 37.3125 14.984375 27.296875 
Q 14.984375 17.28125 19.8125 11.734375 
Q 24.65625 6.203125 33.40625 6.203125 
Q 37.3125 6.203125 41.140625 7.25 
Q 44.96875 8.296875 48.78125 10.40625 
L 48.78125 2.09375 
Q 45.015625 0.34375 40.984375 -0.53125 
Q 36.96875 -1.421875 32.421875 -1.421875 
Q 20.0625 -1.421875 12.78125 6.34375 
Q 5.515625 14.109375 5.515625 27.296875 
Q 5.515625 40.671875 12.859375 48.328125 
Q 20.21875 56 33.015625 56 
Q 37.15625 56 41.109375 55.140625 
Q 45.0625 54.296875 48.78125 52.59375 
z
" id="DejaVuSans-99"/>
       <path d="M 8.5 21.578125 
L 8.5 54.6875 
L 17.484375 54.6875 
L 17.484375 21.921875 
Q 17.484375 14.15625 20.5 10.265625 
Q 23.53125 6.390625 29.59375 6.390625 
Q 36.859375 6.390625 41.078125 11.03125 
Q 45.3125 15.671875 45.3125 23.6875 
L 45.3125 54.6875 
L 54.296875 54.6875 
L 54.296875 0 
L 45.3125 0 
L 45.3125 8.40625 
Q 42.046875 3.421875 37.71875 1 
Q 33.40625 -1.421875 27.6875 -1.421875 
Q 18.265625 -1.421875 13.375 4.4375 
Q 8.5 10.296875 8.5 21.578125 
z
M 31.109375 56 
z
" id="DejaVuSans-117"/>
       <path d="M 32.171875 -5.078125 
Q 28.375 -14.84375 24.75 -17.8125 
Q 21.140625 -20.796875 15.09375 -20.796875 
L 7.90625 -20.796875 
L 7.90625 -13.28125 
L 13.1875 -13.28125 
Q 16.890625 -13.28125 18.9375 -11.515625 
Q 21 -9.765625 23.484375 -3.21875 
L 25.09375 0.875 
L 2.984375 54.6875 
L 12.5 54.6875 
L 29.59375 11.921875 
L 46.6875 54.6875 
L 56.203125 54.6875 
z
" id="DejaVuSans-121"/>
      </defs>
      <use xlink:href="#DejaVuSans-97"/>
      <use x="61.279297" xlink:href="#DejaVuSans-99"/>
      <use x="116.259766" xlink:href="#DejaVuSans-99"/>
      <use x="171.240234" xlink:href="#DejaVuSans-117"/>
      <use x="234.619141" xlink:href="#DejaVuSans-114"/>
      <use x="275.732422" xlink:href="#DejaVuSans-97"/>
      <use x="337.011719" xlink:href="#DejaVuSans-99"/>
      <use x="391.992188" xlink:href="#DejaVuSans-121"/>
     </g>
    </g>
   </g>
   <g id="PathCollection_1">
    <defs>
     <path d="M 0 3 
C 0.795609 3 1.55874 2.683901 2.12132 2.12132 
C 2.683901 1.55874 3 0.795609 3 0 
C 3 -0.795609 2.683901 -1.55874 2.12132 -2.12132 
C 1.55874 -2.683901 0.795609 -3 0 -3 
C -0.795609 -3 -1.55874 -2.683901 -2.12132 -2.12132 
C -2.683901 -1.55874 -3 -0.795609 -3 0 
C -3 0.795609 -2.683901 1.55874 -2.12132 2.12132 
C -1.55874 2.683901 -0.795609 3 0 3 
z
" id="m3755a0de55" style="stroke:#e24a33;stroke-opacity:0.8;"/>
    </defs>
    <g clip-path="url(#p2d7fd06ce3)">
     <use style="fill:#e24a33;fill-opacity:0.8;stroke:#e24a33;stroke-opacity:0.8;" x="33.33563" xlink:href="#m3755a0de55" y="297.763636"/>
     <use style="fill:#e24a33;fill-opacity:0.8;stroke:#e24a33;stroke-opacity:0.8;" x="41.855514" xlink:href="#m3755a0de55" y="255.816242"/>
     <use style="fill:#e24a33;fill-opacity:0.8;stroke:#e24a33;stroke-opacity:0.8;" x="50.375398" xlink:href="#m3755a0de55" y="212.206449"/>
     <use style="fill:#e24a33;fill-opacity:0.8;stroke:#e24a33;stroke-opacity:0.8;" x="58.895282" xlink:href="#m3755a0de55" y="198.509284"/>
     <use style="fill:#e24a33;fill-opacity:0.8;stroke:#e24a33;stroke-opacity:0.8;" x="67.415166" xlink:href="#m3755a0de55" y="184.029424"/>
     <use style="fill:#e24a33;fill-opacity:0.8;stroke:#e24a33;stroke-opacity:0.8;" x="75.935051" xlink:href="#m3755a0de55" y="185.816545"/>
     <use style="fill:#e24a33;fill-opacity:0.8;stroke:#e24a33;stroke-opacity:0.8;" x="84.454935" xlink:href="#m3755a0de55" y="173.466313"/>
     <use style="fill:#e24a33;fill-opacity:0.8;stroke:#e24a33;stroke-opacity:0.8;" x="92.974819" xlink:href="#m3755a0de55" y="175.035032"/>
     <use style="fill:#e24a33;fill-opacity:0.8;stroke:#e24a33;stroke-opacity:0.8;" x="101.494703" xlink:href="#m3755a0de55" y="167.798684"/>
     <use style="fill:#e24a33;fill-opacity:0.8;stroke:#e24a33;stroke-opacity:0.8;" x="110.014587" xlink:href="#m3755a0de55" y="160.826114"/>
     <use style="fill:#e24a33;fill-opacity:0.8;stroke:#e24a33;stroke-opacity:0.8;" x="118.534471" xlink:href="#m3755a0de55" y="155.173853"/>
     <use style="fill:#e24a33;fill-opacity:0.8;stroke:#e24a33;stroke-opacity:0.8;" x="127.054356" xlink:href="#m3755a0de55" y="147.518856"/>
     <use style="fill:#e24a33;fill-opacity:0.8;stroke:#e24a33;stroke-opacity:0.8;" x="135.57424" xlink:href="#m3755a0de55" y="141.231418"/>
     <use style="fill:#e24a33;fill-opacity:0.8;stroke:#e24a33;stroke-opacity:0.8;" x="144.094124" xlink:href="#m3755a0de55" y="140.200342"/>
     <use style="fill:#e24a33;fill-opacity:0.8;stroke:#e24a33;stroke-opacity:0.8;" x="152.614008" xlink:href="#m3755a0de55" y="140.579183"/>
     <use style="fill:#e24a33;fill-opacity:0.8;stroke:#e24a33;stroke-opacity:0.8;" x="161.133892" xlink:href="#m3755a0de55" y="136.636752"/>
     <use style="fill:#e24a33;fill-opacity:0.8;stroke:#e24a33;stroke-opacity:0.8;" x="169.653776" xlink:href="#m3755a0de55" y="126.187229"/>
     <use style="fill:#e24a33;fill-opacity:0.8;stroke:#e24a33;stroke-opacity:0.8;" x="178.173661" xlink:href="#m3755a0de55" y="121.571398"/>
     <use style="fill:#e24a33;fill-opacity:0.8;stroke:#e24a33;stroke-opacity:0.8;" x="186.693545" xlink:href="#m3755a0de55" y="120.779972"/>
     <use style="fill:#e24a33;fill-opacity:0.8;stroke:#e24a33;stroke-opacity:0.8;" x="195.213429" xlink:href="#m3755a0de55" y="118.790102"/>
     <use style="fill:#e24a33;fill-opacity:0.8;stroke:#e24a33;stroke-opacity:0.8;" x="203.733313" xlink:href="#m3755a0de55" y="120.910885"/>
     <use style="fill:#e24a33;fill-opacity:0.8;stroke:#e24a33;stroke-opacity:0.8;" x="212.253197" xlink:href="#m3755a0de55" y="116.634409"/>
     <use style="fill:#e24a33;fill-opacity:0.8;stroke:#e24a33;stroke-opacity:0.8;" x="220.773081" xlink:href="#m3755a0de55" y="116.244238"/>
     <use style="fill:#e24a33;fill-opacity:0.8;stroke:#e24a33;stroke-opacity:0.8;" x="229.292965" xlink:href="#m3755a0de55" y="115.33892"/>
     <use style="fill:#e24a33;fill-opacity:0.8;stroke:#e24a33;stroke-opacity:0.8;" x="237.81285" xlink:href="#m3755a0de55" y="110.83062"/>
     <use style="fill:#e24a33;fill-opacity:0.8;stroke:#e24a33;stroke-opacity:0.8;" x="246.332734" xlink:href="#m3755a0de55" y="108.876283"/>
     <use style="fill:#e24a33;fill-opacity:0.8;stroke:#e24a33;stroke-opacity:0.8;" x="254.852618" xlink:href="#m3755a0de55" y="114.657294"/>
     <use style="fill:#e24a33;fill-opacity:0.8;stroke:#e24a33;stroke-opacity:0.8;" x="263.372502" xlink:href="#m3755a0de55" y="114.561627"/>
     <use style="fill:#e24a33;fill-opacity:0.8;stroke:#e24a33;stroke-opacity:0.8;" x="271.892386" xlink:href="#m3755a0de55" y="109.700012"/>
     <use style="fill:#e24a33;fill-opacity:0.8;stroke:#e24a33;stroke-opacity:0.8;" x="280.41227" xlink:href="#m3755a0de55" y="111.328088"/>
     <use style="fill:#e24a33;fill-opacity:0.8;stroke:#e24a33;stroke-opacity:0.8;" x="288.932155" xlink:href="#m3755a0de55" y="103.368606"/>
     <use style="fill:#e24a33;fill-opacity:0.8;stroke:#e24a33;stroke-opacity:0.8;" x="297.452039" xlink:href="#m3755a0de55" y="99.015765"/>
     <use style="fill:#e24a33;fill-opacity:0.8;stroke:#e24a33;stroke-opacity:0.8;" x="305.971923" xlink:href="#m3755a0de55" y="96.61726"/>
     <use style="fill:#e24a33;fill-opacity:0.8;stroke:#e24a33;stroke-opacity:0.8;" x="314.491807" xlink:href="#m3755a0de55" y="82.226233"/>
     <use style="fill:#e24a33;fill-opacity:0.8;stroke:#e24a33;stroke-opacity:0.8;" x="323.011691" xlink:href="#m3755a0de55" y="78.495227"/>
     <use style="fill:#e24a33;fill-opacity:0.8;stroke:#e24a33;stroke-opacity:0.8;" x="331.531575" xlink:href="#m3755a0de55" y="97.150261"/>
     <use style="fill:#e24a33;fill-opacity:0.8;stroke:#e24a33;stroke-opacity:0.8;" x="340.051459" xlink:href="#m3755a0de55" y="103.368606"/>
     <use style="fill:#e24a33;fill-opacity:0.8;stroke:#e24a33;stroke-opacity:0.8;" x="348.571344" xlink:href="#m3755a0de55" y="89.688247"/>
     <use style="fill:#e24a33;fill-opacity:0.8;stroke:#e24a33;stroke-opacity:0.8;" x="357.091228" xlink:href="#m3755a0de55" y="115.805296"/>
    </g>
   </g>
   <g id="PolyCollection_1">
    <path clip-path="url(#p2d7fd06ce3)" d="M 33.33563 182.224528 
L 33.33563 225.432835 
L 36.605888 223.78147 
L 39.876147 222.130105 
L 43.146406 220.485084 
L 46.416664 218.878928 
L 49.686923 217.246316 
L 52.957181 215.524308 
L 56.22744 213.873281 
L 59.497698 212.286412 
L 62.767957 210.773766 
L 66.038216 209.146492 
L 69.308474 207.392858 
L 72.578733 205.616458 
L 75.848991 203.965093 
L 79.11925 202.386673 
L 82.389508 200.814435 
L 85.659767 199.242196 
L 88.930025 197.647965 
L 92.200284 195.85996 
L 95.470543 194.073338 
L 98.740801 192.395236 
L 102.01106 190.641568 
L 105.281318 188.928034 
L 108.551577 187.306315 
L 111.821835 185.684596 
L 115.092094 184.062687 
L 118.362353 182.350308 
L 121.632611 180.715465 
L 124.90287 179.150444 
L 128.173128 177.529972 
L 131.443387 175.835743 
L 134.713645 174.233149 
L 137.983904 172.631914 
L 141.254162 171.029991 
L 144.524421 169.427412 
L 147.79468 167.710434 
L 151.064938 165.972407 
L 154.335197 164.32157 
L 157.605455 162.710924 
L 160.875714 161.133399 
L 164.145972 159.575648 
L 167.416231 158.071794 
L 170.68649 156.533529 
L 173.956748 154.929739 
L 177.227007 153.318823 
L 180.497265 151.82913 
L 183.767524 150.340942 
L 187.037782 148.852738 
L 190.308041 147.311651 
L 193.5783 145.876782 
L 196.848558 144.387904 
L 200.118817 142.880021 
L 203.389075 141.344722 
L 206.659334 139.846042 
L 209.929592 138.328349 
L 213.199851 136.697204 
L 216.470109 135.234947 
L 219.740368 133.788924 
L 223.010627 132.260142 
L 226.280885 130.856658 
L 229.551144 129.490488 
L 232.821402 128.040418 
L 236.091661 126.728833 
L 239.361919 125.395848 
L 242.632178 123.931275 
L 245.902437 122.587069 
L 249.172695 121.301274 
L 252.442954 119.962263 
L 255.713212 118.807732 
L 258.983471 117.498037 
L 262.253729 116.247573 
L 265.523988 114.961223 
L 268.794247 113.82081 
L 272.064505 112.678093 
L 275.334764 111.537117 
L 278.605022 110.3294 
L 281.875281 109.055753 
L 285.145539 107.967537 
L 288.415798 106.754211 
L 291.686056 105.511196 
L 294.956315 104.355608 
L 298.226574 103.319837 
L 301.496832 102.377236 
L 304.767091 101.273102 
L 308.037349 100.191757 
L 311.307608 99.166301 
L 314.577866 98.026043 
L 317.848125 96.980253 
L 321.118384 95.948117 
L 324.388642 94.950519 
L 327.658901 93.95292 
L 330.929159 92.953381 
L 334.199418 91.956957 
L 337.469676 90.972078 
L 340.739935 90.011053 
L 344.010194 89.050028 
L 347.280452 88.086988 
L 350.550711 86.998247 
L 353.820969 85.969369 
L 357.091228 84.969503 
L 357.091228 53.985645 
L 357.091228 53.985645 
L 353.820969 55.713546 
L 350.550711 57.441447 
L 347.280452 59.171241 
L 344.010194 60.902305 
L 340.739935 62.633368 
L 337.469676 64.328756 
L 334.199418 65.913574 
L 330.929159 67.497653 
L 327.658901 69.109633 
L 324.388642 70.659491 
L 321.118384 72.240065 
L 317.848125 73.930043 
L 314.577866 75.662092 
L 311.307608 77.363136 
L 308.037349 79.078221 
L 304.767091 80.706341 
L 301.496832 82.33446 
L 298.226574 83.96258 
L 294.956315 85.5907 
L 291.686056 87.218819 
L 288.415798 88.849164 
L 285.145539 90.482279 
L 281.875281 92.122897 
L 278.605022 93.742633 
L 275.334764 95.372807 
L 272.064505 97.05202 
L 268.794247 98.724448 
L 265.523988 100.259002 
L 262.253729 101.88626 
L 258.983471 103.644656 
L 255.713212 105.145237 
L 252.442954 106.721403 
L 249.172695 108.168013 
L 245.902437 109.582598 
L 242.632178 111.058827 
L 239.361919 112.709635 
L 236.091661 114.13815 
L 232.821402 115.736754 
L 229.551144 117.291657 
L 226.280885 118.687647 
L 223.010627 119.982842 
L 219.740368 121.277698 
L 216.470109 122.703201 
L 213.199851 124.057876 
L 209.929592 125.352706 
L 206.659334 126.601771 
L 203.389075 127.662085 
L 200.118817 128.84919 
L 196.848558 129.944156 
L 193.5783 131.12035 
L 190.308041 132.25618 
L 187.037782 133.374401 
L 183.767524 134.547097 
L 180.497265 135.74277 
L 177.227007 136.748669 
L 173.956748 137.790946 
L 170.68649 138.865095 
L 167.416231 139.959206 
L 164.145972 141.03865 
L 160.875714 142.055263 
L 157.605455 143.122756 
L 154.335197 144.19109 
L 151.064938 145.218795 
L 147.79468 146.300793 
L 144.524421 147.424713 
L 141.254162 148.471766 
L 137.983904 149.518819 
L 134.713645 150.514074 
L 131.443387 151.570394 
L 128.173128 152.626714 
L 124.90287 153.683034 
L 121.632611 154.739353 
L 118.362353 155.790328 
L 115.092094 156.83856 
L 111.821835 157.886793 
L 108.551577 158.935025 
L 105.281318 159.982696 
L 102.01106 161.000575 
L 98.740801 162.013559 
L 95.470543 163.057885 
L 92.200284 164.081341 
L 88.930025 165.104798 
L 85.659767 166.111583 
L 82.389508 167.116042 
L 79.11925 168.120501 
L 75.848991 169.124967 
L 72.578733 170.129419 
L 69.308474 171.134193 
L 66.038216 172.171146 
L 62.767957 173.16107 
L 59.497698 174.158864 
L 56.22744 175.151714 
L 52.957181 176.161869 
L 49.686923 177.172312 
L 46.416664 178.182756 
L 43.146406 179.193199 
L 39.876147 180.203642 
L 36.605888 181.214085 
L 33.33563 182.224528 
z
" style="fill:#e24a33;fill-opacity:0.15;"/>
   </g>
   <g id="PathCollection_2">
    <defs>
     <path d="M 0 3 
C 0.795609 3 1.55874 2.683901 2.12132 2.12132 
C 2.683901 1.55874 3 0.795609 3 0 
C 3 -0.795609 2.683901 -1.55874 2.12132 -2.12132 
C 1.55874 -2.683901 0.795609 -3 0 -3 
C -0.795609 -3 -1.55874 -2.683901 -2.12132 -2.12132 
C -2.683901 -1.55874 -3 -0.795609 -3 0 
C -3 0.795609 -2.683901 1.55874 -2.12132 2.12132 
C -1.55874 2.683901 -0.795609 3 0 3 
z
" id="m124936f461" style="stroke:#348abd;stroke-opacity:0.8;"/>
    </defs>
    <g clip-path="url(#p2d7fd06ce3)">
     <use style="fill:#348abd;fill-opacity:0.8;stroke:#348abd;stroke-opacity:0.8;" x="58.895282" xlink:href="#m124936f461" y="261.10731"/>
     <use style="fill:#348abd;fill-opacity:0.8;stroke:#348abd;stroke-opacity:0.8;" x="92.974819" xlink:href="#m124936f461" y="157.545902"/>
     <use style="fill:#348abd;fill-opacity:0.8;stroke:#348abd;stroke-opacity:0.8;" x="127.054356" xlink:href="#m124936f461" y="158.178922"/>
     <use style="fill:#348abd;fill-opacity:0.8;stroke:#348abd;stroke-opacity:0.8;" x="161.133892" xlink:href="#m124936f461" y="136.636787"/>
     <use style="fill:#348abd;fill-opacity:0.8;stroke:#348abd;stroke-opacity:0.8;" x="195.213429" xlink:href="#m124936f461" y="113.939805"/>
     <use style="fill:#348abd;fill-opacity:0.8;stroke:#348abd;stroke-opacity:0.8;" x="229.292965" xlink:href="#m124936f461" y="111.14153"/>
     <use style="fill:#348abd;fill-opacity:0.8;stroke:#348abd;stroke-opacity:0.8;" x="263.372502" xlink:href="#m124936f461" y="102.746817"/>
     <use style="fill:#348abd;fill-opacity:0.8;stroke:#348abd;stroke-opacity:0.8;" x="297.452039" xlink:href="#m124936f461" y="83.159005"/>
     <use style="fill:#348abd;fill-opacity:0.8;stroke:#348abd;stroke-opacity:0.8;" x="331.531575" xlink:href="#m124936f461" y="67.302151"/>
    </g>
   </g>
   <g id="PolyCollection_2">
    <path clip-path="url(#p2d7fd06ce3)" d="M 58.895282 168.873963 
L 58.895282 246.050342 
L 61.649184 244.091473 
L 64.403086 242.01233 
L 67.156988 239.810999 
L 69.91089 237.808255 
L 72.664792 235.746189 
L 75.418694 233.679257 
L 78.172596 231.674859 
L 80.926498 229.458672 
L 83.6804 227.518978 
L 86.434302 225.579284 
L 89.188204 223.63959 
L 91.942106 221.684185 
L 94.696008 219.687884 
L 97.44991 217.691583 
L 100.203812 215.695282 
L 102.957714 213.69898 
L 105.711615 211.702679 
L 108.465517 209.747709 
L 111.219419 207.872945 
L 113.973321 205.953807 
L 116.727223 203.930903 
L 119.481125 201.903284 
L 122.235027 199.861096 
L 124.988929 197.754107 
L 127.742831 195.715302 
L 130.496733 193.716818 
L 133.250635 191.718334 
L 136.004537 189.748704 
L 138.758439 187.726624 
L 141.512341 185.730089 
L 144.266243 183.735056 
L 147.020145 181.740022 
L 149.774047 179.849554 
L 152.527949 177.963771 
L 155.281851 176.033709 
L 158.035753 173.938143 
L 160.789654 171.931159 
L 163.543556 169.998179 
L 166.297458 168.115392 
L 169.05136 166.240765 
L 171.805262 164.366137 
L 174.559164 162.491509 
L 177.313066 160.6157 
L 180.066968 158.738287 
L 182.82087 156.860873 
L 185.574772 154.983459 
L 188.328674 153.025175 
L 191.082576 151.036407 
L 193.836478 149.046293 
L 196.59038 147.053765 
L 199.344282 145.061238 
L 202.098184 143.06871 
L 204.852086 141.076182 
L 207.605988 139.182102 
L 210.35989 137.16192 
L 213.113791 135.183701 
L 215.867693 133.252103 
L 218.621595 131.3169 
L 221.375497 129.381091 
L 224.129399 127.445282 
L 226.883301 125.509474 
L 229.637203 123.635464 
L 232.391105 121.725047 
L 235.145007 119.777044 
L 237.898909 118.02708 
L 240.652811 116.33816 
L 243.406713 114.677479 
L 246.160615 112.975253 
L 248.914517 111.147076 
L 251.668419 109.194244 
L 254.422321 107.372244 
L 257.176223 105.437636 
L 259.930125 103.767869 
L 262.684027 102.117758 
L 265.437929 100.623351 
L 268.19183 99.025529 
L 270.945732 97.839342 
L 273.699634 96.205821 
L 276.453536 94.864644 
L 279.207438 93.634892 
L 281.96134 92.500215 
L 284.715242 91.484283 
L 287.469144 90.40889 
L 290.223046 89.370965 
L 292.976948 88.255685 
L 295.73085 87.279384 
L 298.484752 86.241927 
L 301.238654 85.220146 
L 303.992556 84.218079 
L 306.746458 83.291441 
L 309.50036 82.438081 
L 312.254262 81.455083 
L 315.008164 80.50365 
L 317.762066 79.63083 
L 320.515968 78.696313 
L 323.269869 77.759074 
L 326.023771 76.821834 
L 328.777673 75.849972 
L 331.531575 74.865285 
L 331.531575 21.036364 
L 331.531575 21.036364 
L 328.777673 23.17019 
L 326.023771 25.304094 
L 323.269869 27.437999 
L 320.515968 29.571904 
L 317.762066 31.705808 
L 315.008164 33.787884 
L 312.254262 35.8261 
L 309.50036 37.867024 
L 306.746458 39.908898 
L 303.992556 41.950772 
L 301.238654 43.992646 
L 298.484752 46.03452 
L 295.73085 48.14659 
L 292.976948 50.397292 
L 290.223046 52.647994 
L 287.469144 54.898695 
L 284.715242 57.149397 
L 281.96134 59.395024 
L 279.207438 61.179287 
L 276.453536 62.963916 
L 273.699634 64.888711 
L 270.945732 66.798711 
L 268.19183 69.044454 
L 265.437929 71.359197 
L 262.684027 73.678023 
L 259.930125 75.945706 
L 257.176223 78.159891 
L 254.422321 80.374076 
L 251.668419 82.588262 
L 248.914517 84.630956 
L 246.160615 86.557633 
L 243.406713 88.484309 
L 240.652811 90.410986 
L 237.898909 92.337662 
L 235.145007 94.264339 
L 232.391105 96.191015 
L 229.637203 98.117691 
L 226.883301 100.055335 
L 224.129399 102.243271 
L 221.375497 104.265936 
L 218.621595 106.373283 
L 215.867693 108.311819 
L 213.113791 110.064255 
L 210.35989 111.342319 
L 207.605988 113.041811 
L 204.852086 114.21544 
L 202.098184 115.774427 
L 199.344282 117.229591 
L 196.59038 118.398986 
L 193.836478 119.385528 
L 191.082576 120.372071 
L 188.328674 121.430287 
L 185.574772 122.655529 
L 182.82087 123.802679 
L 180.066968 125.008069 
L 177.313066 126.012973 
L 174.559164 127.047425 
L 171.805262 128.216113 
L 169.05136 129.196718 
L 166.297458 130.152981 
L 163.543556 131.156634 
L 160.789654 132.21807 
L 158.035753 133.196815 
L 155.281851 134.296606 
L 152.527949 135.316793 
L 149.774047 136.300429 
L 147.020145 137.305653 
L 144.266243 138.306749 
L 141.512341 139.298817 
L 138.758439 140.326405 
L 136.004537 141.33286 
L 133.250635 142.339203 
L 130.496733 143.336943 
L 127.742831 144.339014 
L 124.988929 145.33829 
L 122.235027 146.338581 
L 119.481125 147.34084 
L 116.727223 148.346425 
L 113.973321 149.35201 
L 111.219419 150.366115 
L 108.465517 151.357158 
L 105.711615 152.358957 
L 102.957714 153.360757 
L 100.203812 154.360943 
L 97.44991 155.339783 
L 94.696008 156.305753 
L 91.942106 157.240091 
L 89.188204 158.1577 
L 86.434302 159.129849 
L 83.6804 160.103167 
L 80.926498 161.078215 
L 78.172596 162.053263 
L 75.418694 163.044957 
L 72.664792 164.033508 
L 69.91089 164.999496 
L 67.156988 165.979705 
L 64.403086 166.944387 
L 61.649184 167.909076 
L 58.895282 168.873963 
z
" style="fill:#348abd;fill-opacity:0.15;"/>
   </g>
   <g id="line2d_35">
    <path clip-path="url(#p2d7fd06ce3)" d="M 33.33563 204.43531 
L 36.605888 203.084249 
L 39.876147 201.733189 
L 43.146406 200.382128 
L 46.416664 199.031068 
L 49.686923 197.680007 
L 52.957181 196.328947 
L 56.22744 194.977886 
L 59.497698 193.626825 
L 62.767957 192.275765 
L 66.038216 190.924704 
L 69.308474 189.573644 
L 72.578733 188.222583 
L 75.848991 186.871523 
L 79.11925 185.520462 
L 82.389508 184.169402 
L 85.659767 182.818341 
L 88.930025 181.467281 
L 92.200284 180.11622 
L 95.470543 178.765159 
L 98.740801 177.414099 
L 102.01106 176.063038 
L 105.281318 174.711978 
L 108.551577 173.360917 
L 111.821835 172.009857 
L 115.092094 170.658796 
L 118.362353 169.307736 
L 121.632611 167.956675 
L 124.90287 166.605615 
L 128.173128 165.254554 
L 131.443387 163.903494 
L 134.713645 162.552433 
L 137.983904 161.201372 
L 141.254162 159.850312 
L 144.524421 158.499251 
L 147.79468 157.148191 
L 151.064938 155.79713 
L 154.335197 154.44607 
L 157.605455 153.095009 
L 160.875714 151.743949 
L 164.145972 150.392888 
L 167.416231 149.041828 
L 170.68649 147.690767 
L 173.956748 146.339707 
L 177.227007 144.988646 
L 180.497265 143.637585 
L 183.767524 142.286525 
L 187.037782 140.935464 
L 190.308041 139.584404 
L 193.5783 138.233343 
L 196.848558 136.882283 
L 200.118817 135.531222 
L 203.389075 134.180162 
L 206.659334 132.829101 
L 209.929592 131.478041 
L 213.199851 130.12698 
L 216.470109 128.775919 
L 219.740368 127.424859 
L 223.010627 126.073798 
L 226.280885 124.722738 
L 229.551144 123.371677 
L 232.821402 122.020617 
L 236.091661 120.669556 
L 239.361919 119.318496 
L 242.632178 117.967435 
L 245.902437 116.616375 
L 249.172695 115.265314 
L 252.442954 113.914254 
L 255.713212 112.563193 
L 258.983471 111.212132 
L 262.253729 109.861072 
L 265.523988 108.510011 
L 268.794247 107.158951 
L 272.064505 105.80789 
L 275.334764 104.45683 
L 278.605022 103.105769 
L 281.875281 101.754709 
L 285.145539 100.403648 
L 288.415798 99.052588 
L 291.686056 97.701527 
L 294.956315 96.350466 
L 298.226574 94.999406 
L 301.496832 93.648345 
L 304.767091 92.297285 
L 308.037349 90.946224 
L 311.307608 89.595164 
L 314.577866 88.244103 
L 317.848125 86.893043 
L 321.118384 85.541982 
L 324.388642 84.190922 
L 327.658901 82.839861 
L 330.929159 81.488801 
L 334.199418 80.13774 
L 337.469676 78.786679 
L 340.739935 77.435619 
L 344.010194 76.084558 
L 347.280452 74.733498 
L 350.550711 73.382437 
L 353.820969 72.031377 
L 357.091228 70.680316 
" style="fill:none;stroke:#e24a33;stroke-linecap:square;stroke-width:2.25;"/>
   </g>
   <g id="line2d_36">
    <path clip-path="url(#p2d7fd06ce3)" d="M 58.895282 208.066967 
L 61.649184 206.538697 
L 64.403086 205.010427 
L 67.156988 203.482156 
L 69.91089 201.953886 
L 72.664792 200.425615 
L 75.418694 198.897345 
L 78.172596 197.369074 
L 80.926498 195.840804 
L 83.6804 194.312534 
L 86.434302 192.784263 
L 89.188204 191.255993 
L 91.942106 189.727722 
L 94.696008 188.199452 
L 97.44991 186.671181 
L 100.203812 185.142911 
L 102.957714 183.614641 
L 105.711615 182.08637 
L 108.465517 180.5581 
L 111.219419 179.029829 
L 113.973321 177.501559 
L 116.727223 175.973288 
L 119.481125 174.445018 
L 122.235027 172.916748 
L 124.988929 171.388477 
L 127.742831 169.860207 
L 130.496733 168.331936 
L 133.250635 166.803666 
L 136.004537 165.275395 
L 138.758439 163.747125 
L 141.512341 162.218855 
L 144.266243 160.690584 
L 147.020145 159.162314 
L 149.774047 157.634043 
L 152.527949 156.105773 
L 155.281851 154.577502 
L 158.035753 153.049232 
L 160.789654 151.520962 
L 163.543556 149.992691 
L 166.297458 148.464421 
L 169.05136 146.93615 
L 171.805262 145.40788 
L 174.559164 143.879609 
L 177.313066 142.351339 
L 180.066968 140.823069 
L 182.82087 139.294798 
L 185.574772 137.766528 
L 188.328674 136.238257 
L 191.082576 134.709987 
L 193.836478 133.181716 
L 196.59038 131.653446 
L 199.344282 130.125176 
L 202.098184 128.596905 
L 204.852086 127.068635 
L 207.605988 125.540364 
L 210.35989 124.012094 
L 213.113791 122.483823 
L 215.867693 120.955553 
L 218.621595 119.427283 
L 221.375497 117.899012 
L 224.129399 116.370742 
L 226.883301 114.842471 
L 229.637203 113.314201 
L 232.391105 111.78593 
L 235.145007 110.25766 
L 237.898909 108.72939 
L 240.652811 107.201119 
L 243.406713 105.672849 
L 246.160615 104.144578 
L 248.914517 102.616308 
L 251.668419 101.088037 
L 254.422321 99.559767 
L 257.176223 98.031497 
L 259.930125 96.503226 
L 262.684027 94.974956 
L 265.437929 93.446685 
L 268.19183 91.918415 
L 270.945732 90.390144 
L 273.699634 88.861874 
L 276.453536 87.333603 
L 279.207438 85.805333 
L 281.96134 84.277063 
L 284.715242 82.748792 
L 287.469144 81.220522 
L 290.223046 79.692251 
L 292.976948 78.163981 
L 295.73085 76.63571 
L 298.484752 75.10744 
L 301.238654 73.57917 
L 303.992556 72.050899 
L 306.746458 70.522629 
L 309.50036 68.994358 
L 312.254262 67.466088 
L 315.008164 65.937817 
L 317.762066 64.409547 
L 320.515968 62.881277 
L 323.269869 61.353006 
L 326.023771 59.824736 
L 328.777673 58.296465 
L 331.531575 56.768195 
" style="fill:none;stroke:#348abd;stroke-linecap:square;stroke-width:2.25;"/>
   </g>
   <g id="patch_3">
    <path d="M 52.079375 311.6 
L 52.079375 7.2 
" style="fill:none;stroke:#ffffff;stroke-linecap:square;stroke-linejoin:miter;"/>
   </g>
   <g id="patch_4">
    <path d="M 52.079375 311.6 
L 338.347483 311.6 
" style="fill:none;stroke:#ffffff;stroke-linecap:square;stroke-linejoin:miter;"/>
   </g>
  </g>
  <g id="legend_1">
   <g id="text_20">
    <!-- name -->
    <g transform="translate(363.979045 163.627187)scale(0.1 -0.1)">
     <defs>
      <path d="M 54.890625 33.015625 
L 54.890625 0 
L 45.90625 0 
L 45.90625 32.71875 
Q 45.90625 40.484375 42.875 44.328125 
Q 39.84375 48.1875 33.796875 48.1875 
Q 26.515625 48.1875 22.3125 43.546875 
Q 18.109375 38.921875 18.109375 30.90625 
L 18.109375 0 
L 9.078125 0 
L 9.078125 54.6875 
L 18.109375 54.6875 
L 18.109375 46.1875 
Q 21.34375 51.125 25.703125 53.5625 
Q 30.078125 56 35.796875 56 
Q 45.21875 56 50.046875 50.171875 
Q 54.890625 44.34375 54.890625 33.015625 
z
" id="DejaVuSans-110"/>
      <path d="M 52 44.1875 
Q 55.375 50.25 60.0625 53.125 
Q 64.75 56 71.09375 56 
Q 79.640625 56 84.28125 50.015625 
Q 88.921875 44.046875 88.921875 33.015625 
L 88.921875 0 
L 79.890625 0 
L 79.890625 32.71875 
Q 79.890625 40.578125 77.09375 44.375 
Q 74.3125 48.1875 68.609375 48.1875 
Q 61.625 48.1875 57.5625 43.546875 
Q 53.515625 38.921875 53.515625 30.90625 
L 53.515625 0 
L 44.484375 0 
L 44.484375 32.71875 
Q 44.484375 40.625 41.703125 44.40625 
Q 38.921875 48.1875 33.109375 48.1875 
Q 26.21875 48.1875 22.15625 43.53125 
Q 18.109375 38.875 18.109375 30.90625 
L 18.109375 0 
L 9.078125 0 
L 9.078125 54.6875 
L 18.109375 54.6875 
L 18.109375 46.1875 
Q 21.1875 51.21875 25.484375 53.609375 
Q 29.78125 56 35.6875 56 
Q 41.65625 56 45.828125 52.96875 
Q 50 49.953125 52 44.1875 
z
" id="DejaVuSans-109"/>
      <path d="M 56.203125 29.59375 
L 56.203125 25.203125 
L 14.890625 25.203125 
Q 15.484375 15.921875 20.484375 11.0625 
Q 25.484375 6.203125 34.421875 6.203125 
Q 39.59375 6.203125 44.453125 7.46875 
Q 49.3125 8.734375 54.109375 11.28125 
L 54.109375 2.78125 
Q 49.265625 0.734375 44.1875 -0.34375 
Q 39.109375 -1.421875 33.890625 -1.421875 
Q 20.796875 -1.421875 13.15625 6.1875 
Q 5.515625 13.8125 5.515625 26.8125 
Q 5.515625 40.234375 12.765625 48.109375 
Q 20.015625 56 32.328125 56 
Q 43.359375 56 49.78125 48.890625 
Q 56.203125 41.796875 56.203125 29.59375 
z
M 47.21875 32.234375 
Q 47.125 39.59375 43.09375 43.984375 
Q 39.0625 48.390625 32.421875 48.390625 
Q 24.90625 48.390625 20.390625 44.140625 
Q 15.875 39.890625 15.1875 32.171875 
z
" id="DejaVuSans-101"/>
     </defs>
     <use xlink:href="#DejaVuSans-110"/>
     <use x="63.378906" xlink:href="#DejaVuSans-97"/>
     <use x="124.658203" xlink:href="#DejaVuSans-109"/>
     <use x="222.070312" xlink:href="#DejaVuSans-101"/>
    </g>
   </g>
   <g id="PathCollection_3">
    <g>
     <use style="fill:#e24a33;fill-opacity:0.8;stroke:#e24a33;stroke-opacity:0.8;" x="353.652483" xlink:href="#m3755a0de55" y="175.680312"/>
    </g>
   </g>
   <g id="text_21">
    <!-- SVM -->
    <g transform="translate(371.652483 178.305312)scale(0.1 -0.1)">
     <defs>
      <path d="M 53.515625 70.515625 
L 53.515625 60.890625 
Q 47.90625 63.578125 42.921875 64.890625 
Q 37.9375 66.21875 33.296875 66.21875 
Q 25.25 66.21875 20.875 63.09375 
Q 16.5 59.96875 16.5 54.203125 
Q 16.5 49.359375 19.40625 46.890625 
Q 22.3125 44.4375 30.421875 42.921875 
L 36.375 41.703125 
Q 47.40625 39.59375 52.65625 34.296875 
Q 57.90625 29 57.90625 20.125 
Q 57.90625 9.515625 50.796875 4.046875 
Q 43.703125 -1.421875 29.984375 -1.421875 
Q 24.8125 -1.421875 18.96875 -0.25 
Q 13.140625 0.921875 6.890625 3.21875 
L 6.890625 13.375 
Q 12.890625 10.015625 18.65625 8.296875 
Q 24.421875 6.59375 29.984375 6.59375 
Q 38.421875 6.59375 43.015625 9.90625 
Q 47.609375 13.234375 47.609375 19.390625 
Q 47.609375 24.75 44.3125 27.78125 
Q 41.015625 30.8125 33.5 32.328125 
L 27.484375 33.5 
Q 16.453125 35.6875 11.515625 40.375 
Q 6.59375 45.0625 6.59375 53.421875 
Q 6.59375 63.09375 13.40625 68.65625 
Q 20.21875 74.21875 32.171875 74.21875 
Q 37.3125 74.21875 42.625 73.28125 
Q 47.953125 72.359375 53.515625 70.515625 
z
" id="DejaVuSans-83"/>
      <path d="M 28.609375 0 
L 0.78125 72.90625 
L 11.078125 72.90625 
L 34.1875 11.53125 
L 57.328125 72.90625 
L 67.578125 72.90625 
L 39.796875 0 
z
" id="DejaVuSans-86"/>
      <path d="M 9.8125 72.90625 
L 24.515625 72.90625 
L 43.109375 23.296875 
L 61.8125 72.90625 
L 76.515625 72.90625 
L 76.515625 0 
L 66.890625 0 
L 66.890625 64.015625 
L 48.09375 14.015625 
L 38.1875 14.015625 
L 19.390625 64.015625 
L 19.390625 0 
L 9.8125 0 
z
" id="DejaVuSans-77"/>
     </defs>
     <use xlink:href="#DejaVuSans-83"/>
     <use x="63.476562" xlink:href="#DejaVuSans-86"/>
     <use x="131.884766" xlink:href="#DejaVuSans-77"/>
    </g>
   </g>
   <g id="PathCollection_4">
    <g>
     <use style="fill:#348abd;fill-opacity:0.8;stroke:#348abd;stroke-opacity:0.8;" x="353.652483" xlink:href="#m124936f461" y="190.358437"/>
    </g>
   </g>
   <g id="text_22">
    <!-- CNN 1 S -->
    <g transform="translate(371.652483 192.983437)scale(0.1 -0.1)">
     <defs>
      <path d="M 64.40625 67.28125 
L 64.40625 56.890625 
Q 59.421875 61.53125 53.78125 63.8125 
Q 48.140625 66.109375 41.796875 66.109375 
Q 29.296875 66.109375 22.65625 58.46875 
Q 16.015625 50.828125 16.015625 36.375 
Q 16.015625 21.96875 22.65625 14.328125 
Q 29.296875 6.6875 41.796875 6.6875 
Q 48.140625 6.6875 53.78125 8.984375 
Q 59.421875 11.28125 64.40625 15.921875 
L 64.40625 5.609375 
Q 59.234375 2.09375 53.4375 0.328125 
Q 47.65625 -1.421875 41.21875 -1.421875 
Q 24.65625 -1.421875 15.125 8.703125 
Q 5.609375 18.84375 5.609375 36.375 
Q 5.609375 53.953125 15.125 64.078125 
Q 24.65625 74.21875 41.21875 74.21875 
Q 47.75 74.21875 53.53125 72.484375 
Q 59.328125 70.75 64.40625 67.28125 
z
" id="DejaVuSans-67"/>
      <path d="M 9.8125 72.90625 
L 23.09375 72.90625 
L 55.421875 11.921875 
L 55.421875 72.90625 
L 64.984375 72.90625 
L 64.984375 0 
L 51.703125 0 
L 19.390625 60.984375 
L 19.390625 0 
L 9.8125 0 
z
" id="DejaVuSans-78"/>
      <path id="DejaVuSans-32"/>
     </defs>
     <use xlink:href="#DejaVuSans-67"/>
     <use x="69.824219" xlink:href="#DejaVuSans-78"/>
     <use x="144.628906" xlink:href="#DejaVuSans-78"/>
     <use x="219.433594" xlink:href="#DejaVuSans-32"/>
     <use x="251.220703" xlink:href="#DejaVuSans-49"/>
     <use x="314.84375" xlink:href="#DejaVuSans-32"/>
     <use x="346.630859" xlink:href="#DejaVuSans-83"/>
    </g>
   </g>
  </g>
 </g>
 <defs>
  <clipPath id="p2d7fd06ce3">
   <rect height="304.4" width="286.268108" x="52.079375" y="7.2"/>
  </clipPath>
 </defs>
</svg>
