<?xml version="1.0" encoding="utf-8" standalone="no"?>
<!DOCTYPE svg PUBLIC "-//W3C//DTD SVG 1.1//EN"
  "http://www.w3.org/Graphics/SVG/1.1/DTD/svg11.dtd">
<!-- Created with matplotlib (https://matplotlib.org/) -->
<svg height="351.091875pt" version="1.1" viewBox="0 0 412.573316 351.091875" width="412.573316pt" xmlns="http://www.w3.org/2000/svg" xmlns:xlink="http://www.w3.org/1999/xlink">
 <metadata>
  <rdf:RDF xmlns:cc="http://creativecommons.org/ns#" xmlns:dc="http://purl.org/dc/elements/1.1/" xmlns:rdf="http://www.w3.org/1999/02/22-rdf-syntax-ns#">
   <cc:Work>
    <dc:type rdf:resource="http://purl.org/dc/dcmitype/StillImage"/>
    <dc:date>2020-09-05T00:27:14.950487</dc:date>
    <dc:format>image/svg+xml</dc:format>
    <dc:creator>
     <cc:Agent>
      <dc:title>Matplotlib v3.3.1, https://matplotlib.org/</dc:title>
     </cc:Agent>
    </dc:creator>
   </cc:Work>
  </rdf:RDF>
 </metadata>
 <defs>
  <style type="text/css">*{stroke-linecap:butt;stroke-linejoin:round;}</style>
 </defs>
 <g id="figure_1">
  <g id="patch_1">
   <path d="M 0 351.091875 
L 412.573316 351.091875 
L 412.573316 0 
L 0 0 
z
" style="fill:#ffffff;"/>
  </g>
  <g id="axes_1">
   <g id="patch_2">
    <path d="M 58.441875 311.6 
L 338.724566 311.6 
L 338.724566 7.2 
L 58.441875 7.2 
z
" style="fill:#e5e5e5;"/>
   </g>
   <g id="matplotlib.axis_1">
    <g id="xtick_1">
     <g id="line2d_1">
      <path clip-path="url(#pc2d9564a9b)" d="M 65.115272 311.6 
L 65.115272 7.2 
" style="fill:none;stroke:#ffffff;stroke-linecap:square;stroke-width:0.8;"/>
     </g>
     <g id="line2d_2">
      <defs>
       <path d="M 0 0 
L 0 3.5 
" id="m44b3566c49" style="stroke:#555555;stroke-width:0.8;"/>
      </defs>
      <g>
       <use style="fill:#555555;stroke:#555555;stroke-width:0.8;" x="65.115272" xlink:href="#m44b3566c49" y="311.6"/>
      </g>
     </g>
     <g id="text_1">
      <!-- 0.1 -->
      <g style="fill:#555555;" transform="translate(57.16371 326.198437)scale(0.1 -0.1)">
       <defs>
        <path d="M 31.78125 66.40625 
Q 24.171875 66.40625 20.328125 58.90625 
Q 16.5 51.421875 16.5 36.375 
Q 16.5 21.390625 20.328125 13.890625 
Q 24.171875 6.390625 31.78125 6.390625 
Q 39.453125 6.390625 43.28125 13.890625 
Q 47.125 21.390625 47.125 36.375 
Q 47.125 51.421875 43.28125 58.90625 
Q 39.453125 66.40625 31.78125 66.40625 
z
M 31.78125 74.21875 
Q 44.046875 74.21875 50.515625 64.515625 
Q 56.984375 54.828125 56.984375 36.375 
Q 56.984375 17.96875 50.515625 8.265625 
Q 44.046875 -1.421875 31.78125 -1.421875 
Q 19.53125 -1.421875 13.0625 8.265625 
Q 6.59375 17.96875 6.59375 36.375 
Q 6.59375 54.828125 13.0625 64.515625 
Q 19.53125 74.21875 31.78125 74.21875 
z
" id="DejaVuSans-48"/>
        <path d="M 10.6875 12.40625 
L 21 12.40625 
L 21 0 
L 10.6875 0 
z
" id="DejaVuSans-46"/>
        <path d="M 12.40625 8.296875 
L 28.515625 8.296875 
L 28.515625 63.921875 
L 10.984375 60.40625 
L 10.984375 69.390625 
L 28.421875 72.90625 
L 38.28125 72.90625 
L 38.28125 8.296875 
L 54.390625 8.296875 
L 54.390625 0 
L 12.40625 0 
z
" id="DejaVuSans-49"/>
       </defs>
       <use xlink:href="#DejaVuSans-48"/>
       <use x="63.623047" xlink:href="#DejaVuSans-46"/>
       <use x="95.410156" xlink:href="#DejaVuSans-49"/>
      </g>
     </g>
    </g>
    <g id="xtick_2">
     <g id="line2d_3">
      <path clip-path="url(#pc2d9564a9b)" d="M 98.482259 311.6 
L 98.482259 7.2 
" style="fill:none;stroke:#ffffff;stroke-linecap:square;stroke-width:0.8;"/>
     </g>
     <g id="line2d_4">
      <g>
       <use style="fill:#555555;stroke:#555555;stroke-width:0.8;" x="98.482259" xlink:href="#m44b3566c49" y="311.6"/>
      </g>
     </g>
     <g id="text_2">
      <!-- 0.2 -->
      <g style="fill:#555555;" transform="translate(90.530697 326.198437)scale(0.1 -0.1)">
       <defs>
        <path d="M 19.1875 8.296875 
L 53.609375 8.296875 
L 53.609375 0 
L 7.328125 0 
L 7.328125 8.296875 
Q 12.9375 14.109375 22.625 23.890625 
Q 32.328125 33.6875 34.8125 36.53125 
Q 39.546875 41.84375 41.421875 45.53125 
Q 43.3125 49.21875 43.3125 52.78125 
Q 43.3125 58.59375 39.234375 62.25 
Q 35.15625 65.921875 28.609375 65.921875 
Q 23.96875 65.921875 18.8125 64.3125 
Q 13.671875 62.703125 7.8125 59.421875 
L 7.8125 69.390625 
Q 13.765625 71.78125 18.9375 73 
Q 24.125 74.21875 28.421875 74.21875 
Q 39.75 74.21875 46.484375 68.546875 
Q 53.21875 62.890625 53.21875 53.421875 
Q 53.21875 48.921875 51.53125 44.890625 
Q 49.859375 40.875 45.40625 35.40625 
Q 44.1875 33.984375 37.640625 27.21875 
Q 31.109375 20.453125 19.1875 8.296875 
z
" id="DejaVuSans-50"/>
       </defs>
       <use xlink:href="#DejaVuSans-48"/>
       <use x="63.623047" xlink:href="#DejaVuSans-46"/>
       <use x="95.410156" xlink:href="#DejaVuSans-50"/>
      </g>
     </g>
    </g>
    <g id="xtick_3">
     <g id="line2d_5">
      <path clip-path="url(#pc2d9564a9b)" d="M 131.849246 311.6 
L 131.849246 7.2 
" style="fill:none;stroke:#ffffff;stroke-linecap:square;stroke-width:0.8;"/>
     </g>
     <g id="line2d_6">
      <g>
       <use style="fill:#555555;stroke:#555555;stroke-width:0.8;" x="131.849246" xlink:href="#m44b3566c49" y="311.6"/>
      </g>
     </g>
     <g id="text_3">
      <!-- 0.3 -->
      <g style="fill:#555555;" transform="translate(123.897684 326.198437)scale(0.1 -0.1)">
       <defs>
        <path d="M 40.578125 39.3125 
Q 47.65625 37.796875 51.625 33 
Q 55.609375 28.21875 55.609375 21.1875 
Q 55.609375 10.40625 48.1875 4.484375 
Q 40.765625 -1.421875 27.09375 -1.421875 
Q 22.515625 -1.421875 17.65625 -0.515625 
Q 12.796875 0.390625 7.625 2.203125 
L 7.625 11.71875 
Q 11.71875 9.328125 16.59375 8.109375 
Q 21.484375 6.890625 26.8125 6.890625 
Q 36.078125 6.890625 40.9375 10.546875 
Q 45.796875 14.203125 45.796875 21.1875 
Q 45.796875 27.640625 41.28125 31.265625 
Q 36.765625 34.90625 28.71875 34.90625 
L 20.21875 34.90625 
L 20.21875 43.015625 
L 29.109375 43.015625 
Q 36.375 43.015625 40.234375 45.921875 
Q 44.09375 48.828125 44.09375 54.296875 
Q 44.09375 59.90625 40.109375 62.90625 
Q 36.140625 65.921875 28.71875 65.921875 
Q 24.65625 65.921875 20.015625 65.03125 
Q 15.375 64.15625 9.8125 62.3125 
L 9.8125 71.09375 
Q 15.4375 72.65625 20.34375 73.4375 
Q 25.25 74.21875 29.59375 74.21875 
Q 40.828125 74.21875 47.359375 69.109375 
Q 53.90625 64.015625 53.90625 55.328125 
Q 53.90625 49.265625 50.4375 45.09375 
Q 46.96875 40.921875 40.578125 39.3125 
z
" id="DejaVuSans-51"/>
       </defs>
       <use xlink:href="#DejaVuSans-48"/>
       <use x="63.623047" xlink:href="#DejaVuSans-46"/>
       <use x="95.410156" xlink:href="#DejaVuSans-51"/>
      </g>
     </g>
    </g>
    <g id="xtick_4">
     <g id="line2d_7">
      <path clip-path="url(#pc2d9564a9b)" d="M 165.216233 311.6 
L 165.216233 7.2 
" style="fill:none;stroke:#ffffff;stroke-linecap:square;stroke-width:0.8;"/>
     </g>
     <g id="line2d_8">
      <g>
       <use style="fill:#555555;stroke:#555555;stroke-width:0.8;" x="165.216233" xlink:href="#m44b3566c49" y="311.6"/>
      </g>
     </g>
     <g id="text_4">
      <!-- 0.4 -->
      <g style="fill:#555555;" transform="translate(157.264671 326.198437)scale(0.1 -0.1)">
       <defs>
        <path d="M 37.796875 64.3125 
L 12.890625 25.390625 
L 37.796875 25.390625 
z
M 35.203125 72.90625 
L 47.609375 72.90625 
L 47.609375 25.390625 
L 58.015625 25.390625 
L 58.015625 17.1875 
L 47.609375 17.1875 
L 47.609375 0 
L 37.796875 0 
L 37.796875 17.1875 
L 4.890625 17.1875 
L 4.890625 26.703125 
z
" id="DejaVuSans-52"/>
       </defs>
       <use xlink:href="#DejaVuSans-48"/>
       <use x="63.623047" xlink:href="#DejaVuSans-46"/>
       <use x="95.410156" xlink:href="#DejaVuSans-52"/>
      </g>
     </g>
    </g>
    <g id="xtick_5">
     <g id="line2d_9">
      <path clip-path="url(#pc2d9564a9b)" d="M 198.58322 311.6 
L 198.58322 7.2 
" style="fill:none;stroke:#ffffff;stroke-linecap:square;stroke-width:0.8;"/>
     </g>
     <g id="line2d_10">
      <g>
       <use style="fill:#555555;stroke:#555555;stroke-width:0.8;" x="198.58322" xlink:href="#m44b3566c49" y="311.6"/>
      </g>
     </g>
     <g id="text_5">
      <!-- 0.5 -->
      <g style="fill:#555555;" transform="translate(190.631658 326.198437)scale(0.1 -0.1)">
       <defs>
        <path d="M 10.796875 72.90625 
L 49.515625 72.90625 
L 49.515625 64.59375 
L 19.828125 64.59375 
L 19.828125 46.734375 
Q 21.96875 47.46875 24.109375 47.828125 
Q 26.265625 48.1875 28.421875 48.1875 
Q 40.625 48.1875 47.75 41.5 
Q 54.890625 34.8125 54.890625 23.390625 
Q 54.890625 11.625 47.5625 5.09375 
Q 40.234375 -1.421875 26.90625 -1.421875 
Q 22.3125 -1.421875 17.546875 -0.640625 
Q 12.796875 0.140625 7.71875 1.703125 
L 7.71875 11.625 
Q 12.109375 9.234375 16.796875 8.0625 
Q 21.484375 6.890625 26.703125 6.890625 
Q 35.15625 6.890625 40.078125 11.328125 
Q 45.015625 15.765625 45.015625 23.390625 
Q 45.015625 31 40.078125 35.4375 
Q 35.15625 39.890625 26.703125 39.890625 
Q 22.75 39.890625 18.8125 39.015625 
Q 14.890625 38.140625 10.796875 36.28125 
z
" id="DejaVuSans-53"/>
       </defs>
       <use xlink:href="#DejaVuSans-48"/>
       <use x="63.623047" xlink:href="#DejaVuSans-46"/>
       <use x="95.410156" xlink:href="#DejaVuSans-53"/>
      </g>
     </g>
    </g>
    <g id="xtick_6">
     <g id="line2d_11">
      <path clip-path="url(#pc2d9564a9b)" d="M 231.950208 311.6 
L 231.950208 7.2 
" style="fill:none;stroke:#ffffff;stroke-linecap:square;stroke-width:0.8;"/>
     </g>
     <g id="line2d_12">
      <g>
       <use style="fill:#555555;stroke:#555555;stroke-width:0.8;" x="231.950208" xlink:href="#m44b3566c49" y="311.6"/>
      </g>
     </g>
     <g id="text_6">
      <!-- 0.6 -->
      <g style="fill:#555555;" transform="translate(223.998645 326.198437)scale(0.1 -0.1)">
       <defs>
        <path d="M 33.015625 40.375 
Q 26.375 40.375 22.484375 35.828125 
Q 18.609375 31.296875 18.609375 23.390625 
Q 18.609375 15.53125 22.484375 10.953125 
Q 26.375 6.390625 33.015625 6.390625 
Q 39.65625 6.390625 43.53125 10.953125 
Q 47.40625 15.53125 47.40625 23.390625 
Q 47.40625 31.296875 43.53125 35.828125 
Q 39.65625 40.375 33.015625 40.375 
z
M 52.59375 71.296875 
L 52.59375 62.3125 
Q 48.875 64.0625 45.09375 64.984375 
Q 41.3125 65.921875 37.59375 65.921875 
Q 27.828125 65.921875 22.671875 59.328125 
Q 17.53125 52.734375 16.796875 39.40625 
Q 19.671875 43.65625 24.015625 45.921875 
Q 28.375 48.1875 33.59375 48.1875 
Q 44.578125 48.1875 50.953125 41.515625 
Q 57.328125 34.859375 57.328125 23.390625 
Q 57.328125 12.15625 50.6875 5.359375 
Q 44.046875 -1.421875 33.015625 -1.421875 
Q 20.359375 -1.421875 13.671875 8.265625 
Q 6.984375 17.96875 6.984375 36.375 
Q 6.984375 53.65625 15.1875 63.9375 
Q 23.390625 74.21875 37.203125 74.21875 
Q 40.921875 74.21875 44.703125 73.484375 
Q 48.484375 72.75 52.59375 71.296875 
z
" id="DejaVuSans-54"/>
       </defs>
       <use xlink:href="#DejaVuSans-48"/>
       <use x="63.623047" xlink:href="#DejaVuSans-46"/>
       <use x="95.410156" xlink:href="#DejaVuSans-54"/>
      </g>
     </g>
    </g>
    <g id="xtick_7">
     <g id="line2d_13">
      <path clip-path="url(#pc2d9564a9b)" d="M 265.317195 311.6 
L 265.317195 7.2 
" style="fill:none;stroke:#ffffff;stroke-linecap:square;stroke-width:0.8;"/>
     </g>
     <g id="line2d_14">
      <g>
       <use style="fill:#555555;stroke:#555555;stroke-width:0.8;" x="265.317195" xlink:href="#m44b3566c49" y="311.6"/>
      </g>
     </g>
     <g id="text_7">
      <!-- 0.7 -->
      <g style="fill:#555555;" transform="translate(257.365632 326.198437)scale(0.1 -0.1)">
       <defs>
        <path d="M 8.203125 72.90625 
L 55.078125 72.90625 
L 55.078125 68.703125 
L 28.609375 0 
L 18.3125 0 
L 43.21875 64.59375 
L 8.203125 64.59375 
z
" id="DejaVuSans-55"/>
       </defs>
       <use xlink:href="#DejaVuSans-48"/>
       <use x="63.623047" xlink:href="#DejaVuSans-46"/>
       <use x="95.410156" xlink:href="#DejaVuSans-55"/>
      </g>
     </g>
    </g>
    <g id="xtick_8">
     <g id="line2d_15">
      <path clip-path="url(#pc2d9564a9b)" d="M 298.684182 311.6 
L 298.684182 7.2 
" style="fill:none;stroke:#ffffff;stroke-linecap:square;stroke-width:0.8;"/>
     </g>
     <g id="line2d_16">
      <g>
       <use style="fill:#555555;stroke:#555555;stroke-width:0.8;" x="298.684182" xlink:href="#m44b3566c49" y="311.6"/>
      </g>
     </g>
     <g id="text_8">
      <!-- 0.8 -->
      <g style="fill:#555555;" transform="translate(290.732619 326.198437)scale(0.1 -0.1)">
       <defs>
        <path d="M 31.78125 34.625 
Q 24.75 34.625 20.71875 30.859375 
Q 16.703125 27.09375 16.703125 20.515625 
Q 16.703125 13.921875 20.71875 10.15625 
Q 24.75 6.390625 31.78125 6.390625 
Q 38.8125 6.390625 42.859375 10.171875 
Q 46.921875 13.96875 46.921875 20.515625 
Q 46.921875 27.09375 42.890625 30.859375 
Q 38.875 34.625 31.78125 34.625 
z
M 21.921875 38.8125 
Q 15.578125 40.375 12.03125 44.71875 
Q 8.5 49.078125 8.5 55.328125 
Q 8.5 64.0625 14.71875 69.140625 
Q 20.953125 74.21875 31.78125 74.21875 
Q 42.671875 74.21875 48.875 69.140625 
Q 55.078125 64.0625 55.078125 55.328125 
Q 55.078125 49.078125 51.53125 44.71875 
Q 48 40.375 41.703125 38.8125 
Q 48.828125 37.15625 52.796875 32.3125 
Q 56.78125 27.484375 56.78125 20.515625 
Q 56.78125 9.90625 50.3125 4.234375 
Q 43.84375 -1.421875 31.78125 -1.421875 
Q 19.734375 -1.421875 13.25 4.234375 
Q 6.78125 9.90625 6.78125 20.515625 
Q 6.78125 27.484375 10.78125 32.3125 
Q 14.796875 37.15625 21.921875 38.8125 
z
M 18.3125 54.390625 
Q 18.3125 48.734375 21.84375 45.5625 
Q 25.390625 42.390625 31.78125 42.390625 
Q 38.140625 42.390625 41.71875 45.5625 
Q 45.3125 48.734375 45.3125 54.390625 
Q 45.3125 60.0625 41.71875 63.234375 
Q 38.140625 66.40625 31.78125 66.40625 
Q 25.390625 66.40625 21.84375 63.234375 
Q 18.3125 60.0625 18.3125 54.390625 
z
" id="DejaVuSans-56"/>
       </defs>
       <use xlink:href="#DejaVuSans-48"/>
       <use x="63.623047" xlink:href="#DejaVuSans-46"/>
       <use x="95.410156" xlink:href="#DejaVuSans-56"/>
      </g>
     </g>
    </g>
    <g id="xtick_9">
     <g id="line2d_17">
      <path clip-path="url(#pc2d9564a9b)" d="M 332.051169 311.6 
L 332.051169 7.2 
" style="fill:none;stroke:#ffffff;stroke-linecap:square;stroke-width:0.8;"/>
     </g>
     <g id="line2d_18">
      <g>
       <use style="fill:#555555;stroke:#555555;stroke-width:0.8;" x="332.051169" xlink:href="#m44b3566c49" y="311.6"/>
      </g>
     </g>
     <g id="text_9">
      <!-- 0.9 -->
      <g style="fill:#555555;" transform="translate(324.099606 326.198437)scale(0.1 -0.1)">
       <defs>
        <path d="M 10.984375 1.515625 
L 10.984375 10.5 
Q 14.703125 8.734375 18.5 7.8125 
Q 22.3125 6.890625 25.984375 6.890625 
Q 35.75 6.890625 40.890625 13.453125 
Q 46.046875 20.015625 46.78125 33.40625 
Q 43.953125 29.203125 39.59375 26.953125 
Q 35.25 24.703125 29.984375 24.703125 
Q 19.046875 24.703125 12.671875 31.3125 
Q 6.296875 37.9375 6.296875 49.421875 
Q 6.296875 60.640625 12.9375 67.421875 
Q 19.578125 74.21875 30.609375 74.21875 
Q 43.265625 74.21875 49.921875 64.515625 
Q 56.59375 54.828125 56.59375 36.375 
Q 56.59375 19.140625 48.40625 8.859375 
Q 40.234375 -1.421875 26.421875 -1.421875 
Q 22.703125 -1.421875 18.890625 -0.6875 
Q 15.09375 0.046875 10.984375 1.515625 
z
M 30.609375 32.421875 
Q 37.25 32.421875 41.125 36.953125 
Q 45.015625 41.5 45.015625 49.421875 
Q 45.015625 57.28125 41.125 61.84375 
Q 37.25 66.40625 30.609375 66.40625 
Q 23.96875 66.40625 20.09375 61.84375 
Q 16.21875 57.28125 16.21875 49.421875 
Q 16.21875 41.5 20.09375 36.953125 
Q 23.96875 32.421875 30.609375 32.421875 
z
" id="DejaVuSans-57"/>
       </defs>
       <use xlink:href="#DejaVuSans-48"/>
       <use x="63.623047" xlink:href="#DejaVuSans-46"/>
       <use x="95.410156" xlink:href="#DejaVuSans-57"/>
      </g>
     </g>
    </g>
    <g id="text_10">
     <!-- ratio -->
     <g style="fill:#555555;" transform="translate(184.74947 341.39625)scale(0.12 -0.12)">
      <defs>
       <path d="M 41.109375 46.296875 
Q 39.59375 47.171875 37.8125 47.578125 
Q 36.03125 48 33.890625 48 
Q 26.265625 48 22.1875 43.046875 
Q 18.109375 38.09375 18.109375 28.8125 
L 18.109375 0 
L 9.078125 0 
L 9.078125 54.6875 
L 18.109375 54.6875 
L 18.109375 46.1875 
Q 20.953125 51.171875 25.484375 53.578125 
Q 30.03125 56 36.53125 56 
Q 37.453125 56 38.578125 55.875 
Q 39.703125 55.765625 41.0625 55.515625 
z
" id="DejaVuSans-114"/>
       <path d="M 34.28125 27.484375 
Q 23.390625 27.484375 19.1875 25 
Q 14.984375 22.515625 14.984375 16.5 
Q 14.984375 11.71875 18.140625 8.90625 
Q 21.296875 6.109375 26.703125 6.109375 
Q 34.1875 6.109375 38.703125 11.40625 
Q 43.21875 16.703125 43.21875 25.484375 
L 43.21875 27.484375 
z
M 52.203125 31.203125 
L 52.203125 0 
L 43.21875 0 
L 43.21875 8.296875 
Q 40.140625 3.328125 35.546875 0.953125 
Q 30.953125 -1.421875 24.3125 -1.421875 
Q 15.921875 -1.421875 10.953125 3.296875 
Q 6 8.015625 6 15.921875 
Q 6 25.140625 12.171875 29.828125 
Q 18.359375 34.515625 30.609375 34.515625 
L 43.21875 34.515625 
L 43.21875 35.40625 
Q 43.21875 41.609375 39.140625 45 
Q 35.0625 48.390625 27.6875 48.390625 
Q 23 48.390625 18.546875 47.265625 
Q 14.109375 46.140625 10.015625 43.890625 
L 10.015625 52.203125 
Q 14.9375 54.109375 19.578125 55.046875 
Q 24.21875 56 28.609375 56 
Q 40.484375 56 46.34375 49.84375 
Q 52.203125 43.703125 52.203125 31.203125 
z
" id="DejaVuSans-97"/>
       <path d="M 18.3125 70.21875 
L 18.3125 54.6875 
L 36.8125 54.6875 
L 36.8125 47.703125 
L 18.3125 47.703125 
L 18.3125 18.015625 
Q 18.3125 11.328125 20.140625 9.421875 
Q 21.96875 7.515625 27.59375 7.515625 
L 36.8125 7.515625 
L 36.8125 0 
L 27.59375 0 
Q 17.1875 0 13.234375 3.875 
Q 9.28125 7.765625 9.28125 18.015625 
L 9.28125 47.703125 
L 2.6875 47.703125 
L 2.6875 54.6875 
L 9.28125 54.6875 
L 9.28125 70.21875 
z
" id="DejaVuSans-116"/>
       <path d="M 9.421875 54.6875 
L 18.40625 54.6875 
L 18.40625 0 
L 9.421875 0 
z
M 9.421875 75.984375 
L 18.40625 75.984375 
L 18.40625 64.59375 
L 9.421875 64.59375 
z
" id="DejaVuSans-105"/>
       <path d="M 30.609375 48.390625 
Q 23.390625 48.390625 19.1875 42.75 
Q 14.984375 37.109375 14.984375 27.296875 
Q 14.984375 17.484375 19.15625 11.84375 
Q 23.34375 6.203125 30.609375 6.203125 
Q 37.796875 6.203125 41.984375 11.859375 
Q 46.1875 17.53125 46.1875 27.296875 
Q 46.1875 37.015625 41.984375 42.703125 
Q 37.796875 48.390625 30.609375 48.390625 
z
M 30.609375 56 
Q 42.328125 56 49.015625 48.375 
Q 55.71875 40.765625 55.71875 27.296875 
Q 55.71875 13.875 49.015625 6.21875 
Q 42.328125 -1.421875 30.609375 -1.421875 
Q 18.84375 -1.421875 12.171875 6.21875 
Q 5.515625 13.875 5.515625 27.296875 
Q 5.515625 40.765625 12.171875 48.375 
Q 18.84375 56 30.609375 56 
z
" id="DejaVuSans-111"/>
      </defs>
      <use xlink:href="#DejaVuSans-114"/>
      <use x="41.113281" xlink:href="#DejaVuSans-97"/>
      <use x="102.392578" xlink:href="#DejaVuSans-116"/>
      <use x="141.601562" xlink:href="#DejaVuSans-105"/>
      <use x="169.384766" xlink:href="#DejaVuSans-111"/>
     </g>
    </g>
   </g>
   <g id="matplotlib.axis_2">
    <g id="ytick_1">
     <g id="line2d_19">
      <path clip-path="url(#pc2d9564a9b)" d="M 58.441875 296.69965 
L 338.724566 296.69965 
" style="fill:none;stroke:#ffffff;stroke-linecap:square;stroke-width:0.8;"/>
     </g>
     <g id="line2d_20">
      <defs>
       <path d="M 0 0 
L -3.5 0 
" id="md7b3b3ba5c" style="stroke:#555555;stroke-width:0.8;"/>
      </defs>
      <g>
       <use style="fill:#555555;stroke:#555555;stroke-width:0.8;" x="58.441875" xlink:href="#md7b3b3ba5c" y="296.69965"/>
      </g>
     </g>
     <g id="text_11">
      <!-- 0.725 -->
      <g style="fill:#555555;" transform="translate(22.81375 300.498869)scale(0.1 -0.1)">
       <use xlink:href="#DejaVuSans-48"/>
       <use x="63.623047" xlink:href="#DejaVuSans-46"/>
       <use x="95.410156" xlink:href="#DejaVuSans-55"/>
       <use x="159.033203" xlink:href="#DejaVuSans-50"/>
       <use x="222.65625" xlink:href="#DejaVuSans-53"/>
      </g>
     </g>
    </g>
    <g id="ytick_2">
     <g id="line2d_21">
      <path clip-path="url(#pc2d9564a9b)" d="M 58.441875 258.276629 
L 338.724566 258.276629 
" style="fill:none;stroke:#ffffff;stroke-linecap:square;stroke-width:0.8;"/>
     </g>
     <g id="line2d_22">
      <g>
       <use style="fill:#555555;stroke:#555555;stroke-width:0.8;" x="58.441875" xlink:href="#md7b3b3ba5c" y="258.276629"/>
      </g>
     </g>
     <g id="text_12">
      <!-- 0.750 -->
      <g style="fill:#555555;" transform="translate(22.81375 262.075848)scale(0.1 -0.1)">
       <use xlink:href="#DejaVuSans-48"/>
       <use x="63.623047" xlink:href="#DejaVuSans-46"/>
       <use x="95.410156" xlink:href="#DejaVuSans-55"/>
       <use x="159.033203" xlink:href="#DejaVuSans-53"/>
       <use x="222.65625" xlink:href="#DejaVuSans-48"/>
      </g>
     </g>
    </g>
    <g id="ytick_3">
     <g id="line2d_23">
      <path clip-path="url(#pc2d9564a9b)" d="M 58.441875 219.853608 
L 338.724566 219.853608 
" style="fill:none;stroke:#ffffff;stroke-linecap:square;stroke-width:0.8;"/>
     </g>
     <g id="line2d_24">
      <g>
       <use style="fill:#555555;stroke:#555555;stroke-width:0.8;" x="58.441875" xlink:href="#md7b3b3ba5c" y="219.853608"/>
      </g>
     </g>
     <g id="text_13">
      <!-- 0.775 -->
      <g style="fill:#555555;" transform="translate(22.81375 223.652826)scale(0.1 -0.1)">
       <use xlink:href="#DejaVuSans-48"/>
       <use x="63.623047" xlink:href="#DejaVuSans-46"/>
       <use x="95.410156" xlink:href="#DejaVuSans-55"/>
       <use x="159.033203" xlink:href="#DejaVuSans-55"/>
       <use x="222.65625" xlink:href="#DejaVuSans-53"/>
      </g>
     </g>
    </g>
    <g id="ytick_4">
     <g id="line2d_25">
      <path clip-path="url(#pc2d9564a9b)" d="M 58.441875 181.430586 
L 338.724566 181.430586 
" style="fill:none;stroke:#ffffff;stroke-linecap:square;stroke-width:0.8;"/>
     </g>
     <g id="line2d_26">
      <g>
       <use style="fill:#555555;stroke:#555555;stroke-width:0.8;" x="58.441875" xlink:href="#md7b3b3ba5c" y="181.430586"/>
      </g>
     </g>
     <g id="text_14">
      <!-- 0.800 -->
      <g style="fill:#555555;" transform="translate(22.81375 185.229805)scale(0.1 -0.1)">
       <use xlink:href="#DejaVuSans-48"/>
       <use x="63.623047" xlink:href="#DejaVuSans-46"/>
       <use x="95.410156" xlink:href="#DejaVuSans-56"/>
       <use x="159.033203" xlink:href="#DejaVuSans-48"/>
       <use x="222.65625" xlink:href="#DejaVuSans-48"/>
      </g>
     </g>
    </g>
    <g id="ytick_5">
     <g id="line2d_27">
      <path clip-path="url(#pc2d9564a9b)" d="M 58.441875 143.007565 
L 338.724566 143.007565 
" style="fill:none;stroke:#ffffff;stroke-linecap:square;stroke-width:0.8;"/>
     </g>
     <g id="line2d_28">
      <g>
       <use style="fill:#555555;stroke:#555555;stroke-width:0.8;" x="58.441875" xlink:href="#md7b3b3ba5c" y="143.007565"/>
      </g>
     </g>
     <g id="text_15">
      <!-- 0.825 -->
      <g style="fill:#555555;" transform="translate(22.81375 146.806783)scale(0.1 -0.1)">
       <use xlink:href="#DejaVuSans-48"/>
       <use x="63.623047" xlink:href="#DejaVuSans-46"/>
       <use x="95.410156" xlink:href="#DejaVuSans-56"/>
       <use x="159.033203" xlink:href="#DejaVuSans-50"/>
       <use x="222.65625" xlink:href="#DejaVuSans-53"/>
      </g>
     </g>
    </g>
    <g id="ytick_6">
     <g id="line2d_29">
      <path clip-path="url(#pc2d9564a9b)" d="M 58.441875 104.584543 
L 338.724566 104.584543 
" style="fill:none;stroke:#ffffff;stroke-linecap:square;stroke-width:0.8;"/>
     </g>
     <g id="line2d_30">
      <g>
       <use style="fill:#555555;stroke:#555555;stroke-width:0.8;" x="58.441875" xlink:href="#md7b3b3ba5c" y="104.584543"/>
      </g>
     </g>
     <g id="text_16">
      <!-- 0.850 -->
      <g style="fill:#555555;" transform="translate(22.81375 108.383762)scale(0.1 -0.1)">
       <use xlink:href="#DejaVuSans-48"/>
       <use x="63.623047" xlink:href="#DejaVuSans-46"/>
       <use x="95.410156" xlink:href="#DejaVuSans-56"/>
       <use x="159.033203" xlink:href="#DejaVuSans-53"/>
       <use x="222.65625" xlink:href="#DejaVuSans-48"/>
      </g>
     </g>
    </g>
    <g id="ytick_7">
     <g id="line2d_31">
      <path clip-path="url(#pc2d9564a9b)" d="M 58.441875 66.161522 
L 338.724566 66.161522 
" style="fill:none;stroke:#ffffff;stroke-linecap:square;stroke-width:0.8;"/>
     </g>
     <g id="line2d_32">
      <g>
       <use style="fill:#555555;stroke:#555555;stroke-width:0.8;" x="58.441875" xlink:href="#md7b3b3ba5c" y="66.161522"/>
      </g>
     </g>
     <g id="text_17">
      <!-- 0.875 -->
      <g style="fill:#555555;" transform="translate(22.81375 69.96074)scale(0.1 -0.1)">
       <use xlink:href="#DejaVuSans-48"/>
       <use x="63.623047" xlink:href="#DejaVuSans-46"/>
       <use x="95.410156" xlink:href="#DejaVuSans-56"/>
       <use x="159.033203" xlink:href="#DejaVuSans-55"/>
       <use x="222.65625" xlink:href="#DejaVuSans-53"/>
      </g>
     </g>
    </g>
    <g id="ytick_8">
     <g id="line2d_33">
      <path clip-path="url(#pc2d9564a9b)" d="M 58.441875 27.7385 
L 338.724566 27.7385 
" style="fill:none;stroke:#ffffff;stroke-linecap:square;stroke-width:0.8;"/>
     </g>
     <g id="line2d_34">
      <g>
       <use style="fill:#555555;stroke:#555555;stroke-width:0.8;" x="58.441875" xlink:href="#md7b3b3ba5c" y="27.7385"/>
      </g>
     </g>
     <g id="text_18">
      <!-- 0.900 -->
      <g style="fill:#555555;" transform="translate(22.81375 31.537719)scale(0.1 -0.1)">
       <use xlink:href="#DejaVuSans-48"/>
       <use x="63.623047" xlink:href="#DejaVuSans-46"/>
       <use x="95.410156" xlink:href="#DejaVuSans-57"/>
       <use x="159.033203" xlink:href="#DejaVuSans-48"/>
       <use x="222.65625" xlink:href="#DejaVuSans-48"/>
      </g>
     </g>
    </g>
    <g id="text_19">
     <!-- accuracy -->
     <g style="fill:#555555;" transform="translate(16.318125 186.47125)rotate(-90)scale(0.12 -0.12)">
      <defs>
       <path d="M 48.78125 52.59375 
L 48.78125 44.1875 
Q 44.96875 46.296875 41.140625 47.34375 
Q 37.3125 48.390625 33.40625 48.390625 
Q 24.65625 48.390625 19.8125 42.84375 
Q 14.984375 37.3125 14.984375 27.296875 
Q 14.984375 17.28125 19.8125 11.734375 
Q 24.65625 6.203125 33.40625 6.203125 
Q 37.3125 6.203125 41.140625 7.25 
Q 44.96875 8.296875 48.78125 10.40625 
L 48.78125 2.09375 
Q 45.015625 0.34375 40.984375 -0.53125 
Q 36.96875 -1.421875 32.421875 -1.421875 
Q 20.0625 -1.421875 12.78125 6.34375 
Q 5.515625 14.109375 5.515625 27.296875 
Q 5.515625 40.671875 12.859375 48.328125 
Q 20.21875 56 33.015625 56 
Q 37.15625 56 41.109375 55.140625 
Q 45.0625 54.296875 48.78125 52.59375 
z
" id="DejaVuSans-99"/>
       <path d="M 8.5 21.578125 
L 8.5 54.6875 
L 17.484375 54.6875 
L 17.484375 21.921875 
Q 17.484375 14.15625 20.5 10.265625 
Q 23.53125 6.390625 29.59375 6.390625 
Q 36.859375 6.390625 41.078125 11.03125 
Q 45.3125 15.671875 45.3125 23.6875 
L 45.3125 54.6875 
L 54.296875 54.6875 
L 54.296875 0 
L 45.3125 0 
L 45.3125 8.40625 
Q 42.046875 3.421875 37.71875 1 
Q 33.40625 -1.421875 27.6875 -1.421875 
Q 18.265625 -1.421875 13.375 4.4375 
Q 8.5 10.296875 8.5 21.578125 
z
M 31.109375 56 
z
" id="DejaVuSans-117"/>
       <path d="M 32.171875 -5.078125 
Q 28.375 -14.84375 24.75 -17.8125 
Q 21.140625 -20.796875 15.09375 -20.796875 
L 7.90625 -20.796875 
L 7.90625 -13.28125 
L 13.1875 -13.28125 
Q 16.890625 -13.28125 18.9375 -11.515625 
Q 21 -9.765625 23.484375 -3.21875 
L 25.09375 0.875 
L 2.984375 54.6875 
L 12.5 54.6875 
L 29.59375 11.921875 
L 46.6875 54.6875 
L 56.203125 54.6875 
z
" id="DejaVuSans-121"/>
      </defs>
      <use xlink:href="#DejaVuSans-97"/>
      <use x="61.279297" xlink:href="#DejaVuSans-99"/>
      <use x="116.259766" xlink:href="#DejaVuSans-99"/>
      <use x="171.240234" xlink:href="#DejaVuSans-117"/>
      <use x="234.619141" xlink:href="#DejaVuSans-114"/>
      <use x="275.732422" xlink:href="#DejaVuSans-97"/>
      <use x="337.011719" xlink:href="#DejaVuSans-99"/>
      <use x="391.992188" xlink:href="#DejaVuSans-121"/>
     </g>
    </g>
   </g>
   <g id="PathCollection_1">
    <defs>
     <path d="M 0 3 
C 0.795609 3 1.55874 2.683901 2.12132 2.12132 
C 2.683901 1.55874 3 0.795609 3 0 
C 3 -0.795609 2.683901 -1.55874 2.12132 -2.12132 
C 1.55874 -2.683901 0.795609 -3 0 -3 
C -0.795609 -3 -1.55874 -2.683901 -2.12132 -2.12132 
C -2.683901 -1.55874 -3 -0.795609 -3 0 
C -3 0.795609 -2.683901 1.55874 -2.12132 2.12132 
C -1.55874 2.683901 -0.795609 3 0 3 
z
" id="m702c8d70f1" style="stroke:#e24a33;stroke-opacity:0.8;"/>
    </defs>
    <g clip-path="url(#pc2d9564a9b)">
     <use style="fill:#e24a33;fill-opacity:0.8;stroke:#e24a33;stroke-opacity:0.8;" x="40.090032" xlink:href="#m702c8d70f1" y="245.271914"/>
     <use style="fill:#e24a33;fill-opacity:0.8;stroke:#e24a33;stroke-opacity:0.8;" x="48.431779" xlink:href="#m702c8d70f1" y="210.712973"/>
     <use style="fill:#e24a33;fill-opacity:0.8;stroke:#e24a33;stroke-opacity:0.8;" x="56.773526" xlink:href="#m702c8d70f1" y="174.784442"/>
     <use style="fill:#e24a33;fill-opacity:0.8;stroke:#e24a33;stroke-opacity:0.8;" x="65.115272" xlink:href="#m702c8d70f1" y="163.499843"/>
     <use style="fill:#e24a33;fill-opacity:0.8;stroke:#e24a33;stroke-opacity:0.8;" x="73.457019" xlink:href="#m702c8d70f1" y="151.570409"/>
     <use style="fill:#e24a33;fill-opacity:0.8;stroke:#e24a33;stroke-opacity:0.8;" x="81.798766" xlink:href="#m702c8d70f1" y="153.042754"/>
     <use style="fill:#e24a33;fill-opacity:0.8;stroke:#e24a33;stroke-opacity:0.8;" x="90.140513" xlink:href="#m702c8d70f1" y="142.867844"/>
     <use style="fill:#e24a33;fill-opacity:0.8;stroke:#e24a33;stroke-opacity:0.8;" x="98.482259" xlink:href="#m702c8d70f1" y="144.160255"/>
     <use style="fill:#e24a33;fill-opacity:0.8;stroke:#e24a33;stroke-opacity:0.8;" x="106.824006" xlink:href="#m702c8d70f1" y="138.19849"/>
     <use style="fill:#e24a33;fill-opacity:0.8;stroke:#e24a33;stroke-opacity:0.8;" x="115.165753" xlink:href="#m702c8d70f1" y="132.454041"/>
     <use style="fill:#e24a33;fill-opacity:0.8;stroke:#e24a33;stroke-opacity:0.8;" x="123.5075" xlink:href="#m702c8d70f1" y="127.797348"/>
     <use style="fill:#e24a33;fill-opacity:0.8;stroke:#e24a33;stroke-opacity:0.8;" x="131.849246" xlink:href="#m702c8d70f1" y="121.490673"/>
     <use style="fill:#e24a33;fill-opacity:0.8;stroke:#e24a33;stroke-opacity:0.8;" x="140.190993" xlink:href="#m702c8d70f1" y="116.31068"/>
     <use style="fill:#e24a33;fill-opacity:0.8;stroke:#e24a33;stroke-opacity:0.8;" x="148.53274" xlink:href="#m702c8d70f1" y="115.461214"/>
     <use style="fill:#e24a33;fill-opacity:0.8;stroke:#e24a33;stroke-opacity:0.8;" x="156.874487" xlink:href="#m702c8d70f1" y="115.773327"/>
     <use style="fill:#e24a33;fill-opacity:0.8;stroke:#e24a33;stroke-opacity:0.8;" x="165.216233" xlink:href="#m702c8d70f1" y="112.525301"/>
     <use style="fill:#e24a33;fill-opacity:0.8;stroke:#e24a33;stroke-opacity:0.8;" x="173.55798" xlink:href="#m702c8d70f1" y="103.916317"/>
     <use style="fill:#e24a33;fill-opacity:0.8;stroke:#e24a33;stroke-opacity:0.8;" x="181.899727" xlink:href="#m702c8d70f1" y="100.113501"/>
     <use style="fill:#e24a33;fill-opacity:0.8;stroke:#e24a33;stroke-opacity:0.8;" x="190.241474" xlink:href="#m702c8d70f1" y="99.461474"/>
     <use style="fill:#e24a33;fill-opacity:0.8;stroke:#e24a33;stroke-opacity:0.8;" x="198.58322" xlink:href="#m702c8d70f1" y="97.822091"/>
     <use style="fill:#e24a33;fill-opacity:0.8;stroke:#e24a33;stroke-opacity:0.8;" x="206.924967" xlink:href="#m702c8d70f1" y="99.569328"/>
     <use style="fill:#e24a33;fill-opacity:0.8;stroke:#e24a33;stroke-opacity:0.8;" x="215.266714" xlink:href="#m702c8d70f1" y="96.046094"/>
     <use style="fill:#e24a33;fill-opacity:0.8;stroke:#e24a33;stroke-opacity:0.8;" x="223.608461" xlink:href="#m702c8d70f1" y="95.724646"/>
     <use style="fill:#e24a33;fill-opacity:0.8;stroke:#e24a33;stroke-opacity:0.8;" x="231.950208" xlink:href="#m702c8d70f1" y="94.978788"/>
     <use style="fill:#e24a33;fill-opacity:0.8;stroke:#e24a33;stroke-opacity:0.8;" x="240.291954" xlink:href="#m702c8d70f1" y="91.264562"/>
     <use style="fill:#e24a33;fill-opacity:0.8;stroke:#e24a33;stroke-opacity:0.8;" x="248.633701" xlink:href="#m702c8d70f1" y="89.654455"/>
     <use style="fill:#e24a33;fill-opacity:0.8;stroke:#e24a33;stroke-opacity:0.8;" x="256.975448" xlink:href="#m702c8d70f1" y="94.41722"/>
     <use style="fill:#e24a33;fill-opacity:0.8;stroke:#e24a33;stroke-opacity:0.8;" x="265.317195" xlink:href="#m702c8d70f1" y="94.338404"/>
     <use style="fill:#e24a33;fill-opacity:0.8;stroke:#e24a33;stroke-opacity:0.8;" x="273.658941" xlink:href="#m702c8d70f1" y="90.333095"/>
     <use style="fill:#e24a33;fill-opacity:0.8;stroke:#e24a33;stroke-opacity:0.8;" x="282.000688" xlink:href="#m702c8d70f1" y="91.674408"/>
     <use style="fill:#e24a33;fill-opacity:0.8;stroke:#e24a33;stroke-opacity:0.8;" x="290.342435" xlink:href="#m702c8d70f1" y="85.116879"/>
     <use style="fill:#e24a33;fill-opacity:0.8;stroke:#e24a33;stroke-opacity:0.8;" x="298.684182" xlink:href="#m702c8d70f1" y="81.53073"/>
     <use style="fill:#e24a33;fill-opacity:0.8;stroke:#e24a33;stroke-opacity:0.8;" x="307.025928" xlink:href="#m702c8d70f1" y="79.554689"/>
     <use style="fill:#e24a33;fill-opacity:0.8;stroke:#e24a33;stroke-opacity:0.8;" x="315.367675" xlink:href="#m702c8d70f1" y="67.698442"/>
     <use style="fill:#e24a33;fill-opacity:0.8;stroke:#e24a33;stroke-opacity:0.8;" x="323.709422" xlink:href="#m702c8d70f1" y="64.624601"/>
     <use style="fill:#e24a33;fill-opacity:0.8;stroke:#e24a33;stroke-opacity:0.8;" x="332.051169" xlink:href="#m702c8d70f1" y="79.993809"/>
     <use style="fill:#e24a33;fill-opacity:0.8;stroke:#e24a33;stroke-opacity:0.8;" x="340.392915" xlink:href="#m702c8d70f1" y="85.116879"/>
     <use style="fill:#e24a33;fill-opacity:0.8;stroke:#e24a33;stroke-opacity:0.8;" x="348.734662" xlink:href="#m702c8d70f1" y="73.846126"/>
     <use style="fill:#e24a33;fill-opacity:0.8;stroke:#e24a33;stroke-opacity:0.8;" x="357.076409" xlink:href="#m702c8d70f1" y="95.363018"/>
    </g>
   </g>
   <g id="PolyCollection_1">
    <path clip-path="url(#pc2d9564a9b)" d="M 40.090032 149.762522 
L 40.090032 186.951861 
L 43.291915 185.610411 
L 46.493797 184.268515 
L 49.69568 182.897919 
L 52.897563 181.526963 
L 56.099445 180.154982 
L 59.301328 178.684462 
L 62.50321 177.192289 
L 65.705093 175.699778 
L 68.906975 174.207267 
L 72.108858 172.714756 
L 75.310741 171.222244 
L 78.512623 169.737445 
L 81.714506 168.404491 
L 84.916388 167.071536 
L 88.118271 165.738581 
L 91.320154 164.405626 
L 94.522036 163.087571 
L 97.723919 161.795682 
L 100.925801 160.503793 
L 104.127684 159.211904 
L 107.329567 157.920015 
L 110.531449 156.407896 
L 113.733332 155.074941 
L 116.935214 153.740488 
L 120.137097 152.282039 
L 123.33898 150.844234 
L 126.540862 149.475162 
L 129.742745 148.013259 
L 132.944627 146.60168 
L 136.14651 145.321288 
L 139.348393 144.03995 
L 142.550275 142.63743 
L 145.752158 141.141553 
L 148.95404 139.853472 
L 152.155923 138.536841 
L 155.357805 137.151487 
L 158.559688 135.806857 
L 161.761571 134.518134 
L 164.963453 133.227264 
L 168.165336 131.900902 
L 171.367218 130.553804 
L 174.569101 129.197753 
L 177.770984 127.898118 
L 180.972866 126.642636 
L 184.174749 125.318915 
L 187.376631 123.982922 
L 190.578514 122.673384 
L 193.780397 121.428591 
L 196.982279 120.184461 
L 200.184162 118.91742 
L 203.386044 117.599955 
L 206.587927 116.30792 
L 209.78981 115.015886 
L 212.991692 113.79448 
L 216.193575 112.463379 
L 219.395457 111.218703 
L 222.59734 109.999755 
L 225.799223 108.783546 
L 229.001105 107.51228 
L 232.202988 106.394619 
L 235.40487 105.264738 
L 238.606753 104.073494 
L 241.808635 102.94054 
L 245.010518 101.83441 
L 248.212401 100.74071 
L 251.414283 99.557833 
L 254.616166 98.437821 
L 257.818048 97.316283 
L 261.019931 96.269881 
L 264.221814 95.292761 
L 267.423696 94.33228 
L 270.625579 93.291804 
L 273.827461 92.272195 
L 277.029344 91.215496 
L 280.231227 90.169785 
L 283.433109 89.277242 
L 286.634992 88.429187 
L 289.836874 87.49824 
L 293.038757 86.567883 
L 296.24064 85.676348 
L 299.442522 84.736233 
L 302.644405 83.763146 
L 305.846287 82.807513 
L 309.04817 81.877619 
L 312.250053 80.977193 
L 315.451935 80.021355 
L 318.653818 79.172821 
L 321.8557 78.326862 
L 325.057583 77.529048 
L 328.259465 76.70069 
L 331.461348 75.837339 
L 334.663231 74.977605 
L 337.865113 74.11551 
L 341.066996 73.251209 
L 344.268878 72.387851 
L 347.470761 71.522239 
L 350.672644 70.659679 
L 353.874526 69.797119 
L 357.076409 68.995007 
L 357.076409 43.935232 
L 357.076409 43.935232 
L 353.874526 45.333821 
L 350.672644 46.732759 
L 347.470761 48.139686 
L 344.268878 49.520009 
L 341.066996 50.925343 
L 337.865113 52.329296 
L 334.663231 53.688132 
L 331.461348 55.036364 
L 328.259465 56.384596 
L 325.057583 57.74261 
L 321.8557 59.098035 
L 318.653818 60.443833 
L 315.451935 61.82314 
L 312.250053 63.204475 
L 309.04817 64.5948 
L 305.846287 65.965482 
L 302.644405 67.344829 
L 299.442522 68.72476 
L 296.24064 70.104691 
L 293.038757 71.484759 
L 289.836874 72.894662 
L 286.634992 74.244483 
L 283.433109 75.600667 
L 280.231227 76.937683 
L 277.029344 78.298689 
L 273.827461 79.66821 
L 270.625579 80.990971 
L 267.423696 82.288969 
L 264.221814 83.626652 
L 261.019931 84.869502 
L 257.818048 86.150316 
L 254.616166 87.47358 
L 251.414283 88.727411 
L 248.212401 90.045277 
L 245.010518 91.417377 
L 241.808635 92.57664 
L 238.606753 93.87819 
L 235.40487 95.109303 
L 232.202988 96.339409 
L 229.001105 97.578499 
L 225.799223 98.77075 
L 222.59734 99.945856 
L 219.395457 100.998921 
L 216.193575 102.167284 
L 212.991692 103.21048 
L 209.78981 104.189302 
L 206.587927 105.089187 
L 203.386044 106.052143 
L 200.184162 106.90451 
L 196.982279 108.02277 
L 193.780397 108.935708 
L 190.578514 109.958795 
L 187.376631 110.923742 
L 184.174749 111.798051 
L 180.972866 112.714176 
L 177.770984 113.54145 
L 174.569101 114.468559 
L 171.367218 115.388127 
L 168.165336 116.331417 
L 164.963453 117.272994 
L 161.761571 118.21457 
L 158.559688 119.156147 
L 155.357805 120.006926 
L 152.155923 120.820466 
L 148.95404 121.678906 
L 145.752158 122.450147 
L 142.550275 123.223083 
L 139.348393 124.094824 
L 136.14651 124.966623 
L 132.944627 125.842763 
L 129.742745 126.693448 
L 126.540862 127.531644 
L 123.33898 128.369841 
L 120.137097 129.208038 
L 116.935214 130.078165 
L 113.733332 130.965992 
L 110.531449 131.731092 
L 107.329567 132.552977 
L 104.127684 133.387509 
L 100.925801 134.222041 
L 97.723919 135.056573 
L 94.522036 135.891105 
L 91.320154 136.725638 
L 88.118271 137.56017 
L 84.916388 138.394702 
L 81.714506 139.229234 
L 78.512623 140.063766 
L 75.310741 140.898298 
L 72.108858 141.732982 
L 68.906975 142.568885 
L 65.705093 143.385421 
L 62.50321 144.18115 
L 59.301328 144.977178 
L 56.099445 145.774736 
L 52.897563 146.572293 
L 49.69568 147.36985 
L 46.493797 148.167407 
L 43.291915 148.964965 
L 40.090032 149.762522 
z
" style="fill:#e24a33;fill-opacity:0.15;"/>
   </g>
   <g id="PathCollection_2">
    <defs>
     <path d="M 0 3 
C 0.795609 3 1.55874 2.683901 2.12132 2.12132 
C 2.683901 1.55874 3 0.795609 3 0 
C 3 -0.795609 2.683901 -1.55874 2.12132 -2.12132 
C 1.55874 -2.683901 0.795609 -3 0 -3 
C -0.795609 -3 -1.55874 -2.683901 -2.12132 -2.12132 
C -2.683901 -1.55874 -3 -0.795609 -3 0 
C -3 0.795609 -2.683901 1.55874 -2.12132 2.12132 
C -1.55874 2.683901 -0.795609 3 0 3 
z
" id="m1119137240" style="stroke:#348abd;stroke-opacity:0.8;"/>
    </defs>
    <g clip-path="url(#pc2d9564a9b)">
     <use style="fill:#348abd;fill-opacity:0.8;stroke:#348abd;stroke-opacity:0.8;" x="40.090032" xlink:href="#m1119137240" y="297.763636"/>
     <use style="fill:#348abd;fill-opacity:0.8;stroke:#348abd;stroke-opacity:0.8;" x="48.431779" xlink:href="#m1119137240" y="216.375303"/>
     <use style="fill:#348abd;fill-opacity:0.8;stroke:#348abd;stroke-opacity:0.8;" x="56.773526" xlink:href="#m1119137240" y="173.289032"/>
     <use style="fill:#348abd;fill-opacity:0.8;stroke:#348abd;stroke-opacity:0.8;" x="65.115272" xlink:href="#m1119137240" y="182.113686"/>
     <use style="fill:#348abd;fill-opacity:0.8;stroke:#348abd;stroke-opacity:0.8;" x="73.457019" xlink:href="#m1119137240" y="139.977661"/>
     <use style="fill:#348abd;fill-opacity:0.8;stroke:#348abd;stroke-opacity:0.8;" x="81.798766" xlink:href="#m1119137240" y="166.061374"/>
     <use style="fill:#348abd;fill-opacity:0.8;stroke:#348abd;stroke-opacity:0.8;" x="90.140513" xlink:href="#m1119137240" y="130.38616"/>
     <use style="fill:#348abd;fill-opacity:0.8;stroke:#348abd;stroke-opacity:0.8;" x="98.482259" xlink:href="#m1119137240" y="123.027594"/>
     <use style="fill:#348abd;fill-opacity:0.8;stroke:#348abd;stroke-opacity:0.8;" x="106.824006" xlink:href="#m1119137240" y="135.620436"/>
     <use style="fill:#348abd;fill-opacity:0.8;stroke:#348abd;stroke-opacity:0.8;" x="115.165753" xlink:href="#m1119137240" y="146.593746"/>
     <use style="fill:#348abd;fill-opacity:0.8;stroke:#348abd;stroke-opacity:0.8;" x="123.5075" xlink:href="#m1119137240" y="104.054556"/>
     <use style="fill:#348abd;fill-opacity:0.8;stroke:#348abd;stroke-opacity:0.8;" x="131.849246" xlink:href="#m1119137240" y="111.830028"/>
     <use style="fill:#348abd;fill-opacity:0.8;stroke:#348abd;stroke-opacity:0.8;" x="140.190993" xlink:href="#m1119137240" y="111.301452"/>
     <use style="fill:#348abd;fill-opacity:0.8;stroke:#348abd;stroke-opacity:0.8;" x="148.53274" xlink:href="#m1119137240" y="100.328416"/>
     <use style="fill:#348abd;fill-opacity:0.8;stroke:#348abd;stroke-opacity:0.8;" x="156.874487" xlink:href="#m1119137240" y="99.543431"/>
     <use style="fill:#348abd;fill-opacity:0.8;stroke:#348abd;stroke-opacity:0.8;" x="165.216233" xlink:href="#m1119137240" y="126.613758"/>
     <use style="fill:#348abd;fill-opacity:0.8;stroke:#348abd;stroke-opacity:0.8;" x="173.55798" xlink:href="#m1119137240" y="114.607938"/>
     <use style="fill:#348abd;fill-opacity:0.8;stroke:#348abd;stroke-opacity:0.8;" x="181.899727" xlink:href="#m1119137240" y="114.085499"/>
     <use style="fill:#348abd;fill-opacity:0.8;stroke:#348abd;stroke-opacity:0.8;" x="190.241474" xlink:href="#m1119137240" y="89.800868"/>
     <use style="fill:#348abd;fill-opacity:0.8;stroke:#348abd;stroke-opacity:0.8;" x="198.58322" xlink:href="#m1119137240" y="104.891942"/>
     <use style="fill:#348abd;fill-opacity:0.8;stroke:#348abd;stroke-opacity:0.8;" x="206.924967" xlink:href="#m1119137240" y="90.185987"/>
     <use style="fill:#348abd;fill-opacity:0.8;stroke:#348abd;stroke-opacity:0.8;" x="215.266714" xlink:href="#m1119137240" y="87.849168"/>
     <use style="fill:#348abd;fill-opacity:0.8;stroke:#348abd;stroke-opacity:0.8;" x="223.608461" xlink:href="#m1119137240" y="79.089739"/>
     <use style="fill:#348abd;fill-opacity:0.8;stroke:#348abd;stroke-opacity:0.8;" x="231.950208" xlink:href="#m1119137240" y="74.614615"/>
     <use style="fill:#348abd;fill-opacity:0.8;stroke:#348abd;stroke-opacity:0.8;" x="240.291954" xlink:href="#m1119137240" y="74.87075"/>
     <use style="fill:#348abd;fill-opacity:0.8;stroke:#348abd;stroke-opacity:0.8;" x="248.633701" xlink:href="#m1119137240" y="64.624621"/>
     <use style="fill:#348abd;fill-opacity:0.8;stroke:#348abd;stroke-opacity:0.8;" x="256.975448" xlink:href="#m1119137240" y="62.733015"/>
     <use style="fill:#348abd;fill-opacity:0.8;stroke:#348abd;stroke-opacity:0.8;" x="265.317195" xlink:href="#m1119137240" y="68.723054"/>
     <use style="fill:#348abd;fill-opacity:0.8;stroke:#348abd;stroke-opacity:0.8;" x="273.658941" xlink:href="#m1119137240" y="73.007817"/>
     <use style="fill:#348abd;fill-opacity:0.8;stroke:#348abd;stroke-opacity:0.8;" x="282.000688" xlink:href="#m1119137240" y="93.518672"/>
     <use style="fill:#348abd;fill-opacity:0.8;stroke:#348abd;stroke-opacity:0.8;" x="290.342435" xlink:href="#m1119137240" y="59.843069"/>
     <use style="fill:#348abd;fill-opacity:0.8;stroke:#348abd;stroke-opacity:0.8;" x="298.684182" xlink:href="#m1119137240" y="76.151516"/>
     <use style="fill:#348abd;fill-opacity:0.8;stroke:#348abd;stroke-opacity:0.8;" x="307.025928" xlink:href="#m1119137240" y="68.13759"/>
     <use style="fill:#348abd;fill-opacity:0.8;stroke:#348abd;stroke-opacity:0.8;" x="315.367675" xlink:href="#m1119137240" y="71.796856"/>
     <use style="fill:#348abd;fill-opacity:0.8;stroke:#348abd;stroke-opacity:0.8;" x="323.709422" xlink:href="#m1119137240" y="49.870205"/>
     <use style="fill:#348abd;fill-opacity:0.8;stroke:#348abd;stroke-opacity:0.8;" x="332.051169" xlink:href="#m1119137240" y="92.289206"/>
     <use style="fill:#348abd;fill-opacity:0.8;stroke:#348abd;stroke-opacity:0.8;" x="340.392915" xlink:href="#m1119137240" y="81.018446"/>
     <use style="fill:#348abd;fill-opacity:0.8;stroke:#348abd;stroke-opacity:0.8;" x="348.734662" xlink:href="#m1119137240" y="73.846119"/>
     <use style="fill:#348abd;fill-opacity:0.8;stroke:#348abd;stroke-opacity:0.8;" x="357.076409" xlink:href="#m1119137240" y="83.067617"/>
    </g>
   </g>
   <g id="PolyCollection_2">
    <path clip-path="url(#pc2d9564a9b)" d="M 40.090032 145.068994 
L 40.090032 202.958247 
L 43.291915 201.129107 
L 46.493797 199.299967 
L 49.69568 197.470827 
L 52.897563 195.641687 
L 56.099445 193.812547 
L 59.301328 191.983407 
L 62.50321 190.154267 
L 65.705093 188.325127 
L 68.906975 186.495987 
L 72.108858 184.84523 
L 75.310741 183.256199 
L 78.512623 181.667169 
L 81.714506 180.078138 
L 84.916388 178.489107 
L 88.118271 176.811284 
L 91.320154 175.06309 
L 94.522036 173.312854 
L 97.723919 171.559109 
L 100.925801 169.804024 
L 104.127684 167.879811 
L 107.329567 165.941903 
L 110.531449 164.295842 
L 113.733332 162.496581 
L 116.935214 160.583801 
L 120.137097 158.664718 
L 123.33898 156.902068 
L 126.540862 154.855721 
L 129.742745 152.962591 
L 132.944627 151.223166 
L 136.14651 149.422349 
L 139.348393 147.848641 
L 142.550275 146.271054 
L 145.752158 144.740893 
L 148.95404 142.99579 
L 152.155923 141.145608 
L 155.357805 139.40092 
L 158.559688 137.748905 
L 161.761571 136.09587 
L 164.963453 134.442835 
L 168.165336 132.830316 
L 171.367218 131.23129 
L 174.569101 129.497637 
L 177.770984 127.868996 
L 180.972866 126.243487 
L 184.174749 124.788209 
L 187.376631 122.886327 
L 190.578514 121.23292 
L 193.780397 119.581507 
L 196.982279 118.020938 
L 200.184162 116.547862 
L 203.386044 115.078418 
L 206.587927 113.602755 
L 209.78981 112.090771 
L 212.991692 110.516595 
L 216.193575 109.070613 
L 219.395457 107.65824 
L 222.59734 106.243057 
L 225.799223 104.771909 
L 229.001105 103.285028 
L 232.202988 101.831383 
L 235.40487 100.465388 
L 238.606753 99.015944 
L 241.808635 97.608474 
L 245.010518 96.356804 
L 248.212401 95.081646 
L 251.414283 93.641568 
L 254.616166 92.453474 
L 257.818048 91.275029 
L 261.019931 90.268519 
L 264.221814 89.23234 
L 267.423696 88.027865 
L 270.625579 86.893236 
L 273.827461 85.662107 
L 277.029344 84.78182 
L 280.231227 83.880106 
L 283.433109 82.675001 
L 286.634992 81.643232 
L 289.836874 80.772983 
L 293.038757 79.856671 
L 296.24064 78.587525 
L 299.442522 77.585276 
L 302.644405 76.523772 
L 305.846287 75.61109 
L 309.04817 74.692702 
L 312.250053 73.774314 
L 315.451935 72.802809 
L 318.653818 71.917328 
L 321.8557 71.053721 
L 325.057583 70.200822 
L 328.259465 69.219445 
L 331.461348 68.430237 
L 334.663231 67.482563 
L 337.865113 66.465498 
L 341.066996 65.549578 
L 344.268878 64.633658 
L 347.470761 63.717738 
L 350.672644 62.801818 
L 353.874526 61.885898 
L 357.076409 60.945789 
L 357.076409 21.036364 
L 357.076409 21.036364 
L 353.874526 22.612576 
L 350.672644 24.188827 
L 347.470761 25.890095 
L 344.268878 27.548573 
L 341.066996 29.310978 
L 337.865113 31.048229 
L 334.663231 32.772236 
L 331.461348 34.320541 
L 328.259465 36.07473 
L 325.057583 37.839533 
L 321.8557 39.487612 
L 318.653818 41.137029 
L 315.451935 42.809589 
L 312.250053 44.513695 
L 309.04817 46.128645 
L 305.846287 47.876418 
L 302.644405 49.70088 
L 299.442522 51.382407 
L 296.24064 53.051102 
L 293.038757 54.665415 
L 289.836874 56.395499 
L 286.634992 58.003471 
L 283.433109 59.91916 
L 280.231227 61.684509 
L 277.029344 63.449857 
L 273.827461 65.215205 
L 270.625579 66.980554 
L 267.423696 68.716759 
L 264.221814 70.278947 
L 261.019931 71.735016 
L 257.818048 73.572959 
L 254.616166 75.282296 
L 251.414283 77.015701 
L 248.212401 78.448357 
L 245.010518 79.958072 
L 241.808635 81.390448 
L 238.606753 82.990312 
L 235.40487 84.255043 
L 232.202988 85.658301 
L 229.001105 86.967644 
L 225.799223 88.545109 
L 222.59734 89.828181 
L 219.395457 91.282867 
L 216.193575 92.438588 
L 212.991692 93.486608 
L 209.78981 94.608813 
L 206.587927 95.672698 
L 203.386044 96.929174 
L 200.184162 97.988165 
L 196.982279 99.118503 
L 193.780397 100.025168 
L 190.578514 100.893664 
L 187.376631 101.951633 
L 184.174749 103.049761 
L 180.972866 104.070066 
L 177.770984 105.097047 
L 174.569101 106.083086 
L 171.367218 106.976957 
L 168.165336 107.900987 
L 164.963453 108.675074 
L 161.761571 109.595066 
L 158.559688 110.685347 
L 155.357805 111.706897 
L 152.155923 112.698218 
L 148.95404 113.544903 
L 145.752158 114.49271 
L 142.550275 115.451211 
L 139.348393 116.283126 
L 136.14651 117.176428 
L 132.944627 118.072242 
L 129.742745 119.020027 
L 126.540862 120.019706 
L 123.33898 121.038652 
L 120.137097 121.962417 
L 116.935214 122.886182 
L 113.733332 123.810791 
L 110.531449 124.735828 
L 107.329567 125.6617 
L 104.127684 126.587953 
L 100.925801 127.514207 
L 97.723919 128.44046 
L 94.522036 129.384559 
L 91.320154 130.377642 
L 88.118271 131.314816 
L 84.916388 132.182842 
L 81.714506 133.063879 
L 78.512623 133.916991 
L 75.310741 134.832854 
L 72.108858 135.777051 
L 68.906975 136.721248 
L 65.705093 137.665446 
L 62.50321 138.602159 
L 59.301328 139.525206 
L 56.099445 140.448252 
L 52.897563 141.371299 
L 49.69568 142.294345 
L 46.493797 143.219065 
L 43.291915 144.144029 
L 40.090032 145.068994 
z
" style="fill:#348abd;fill-opacity:0.15;"/>
   </g>
   <g id="line2d_35">
    <path clip-path="url(#pc2d9564a9b)" d="M 40.090032 168.382081 
L 43.291915 167.268991 
L 46.493797 166.155901 
L 49.69568 165.042811 
L 52.897563 163.929721 
L 56.099445 162.816631 
L 59.301328 161.703541 
L 62.50321 160.590451 
L 65.705093 159.477362 
L 68.906975 158.364272 
L 72.108858 157.251182 
L 75.310741 156.138092 
L 78.512623 155.025002 
L 81.714506 153.911912 
L 84.916388 152.798822 
L 88.118271 151.685732 
L 91.320154 150.572642 
L 94.522036 149.459552 
L 97.723919 148.346462 
L 100.925801 147.233372 
L 104.127684 146.120282 
L 107.329567 145.007193 
L 110.531449 143.894103 
L 113.733332 142.781013 
L 116.935214 141.667923 
L 120.137097 140.554833 
L 123.33898 139.441743 
L 126.540862 138.328653 
L 129.742745 137.215563 
L 132.944627 136.102473 
L 136.14651 134.989383 
L 139.348393 133.876293 
L 142.550275 132.763203 
L 145.752158 131.650113 
L 148.95404 130.537024 
L 152.155923 129.423934 
L 155.357805 128.310844 
L 158.559688 127.197754 
L 161.761571 126.084664 
L 164.963453 124.971574 
L 168.165336 123.858484 
L 171.367218 122.745394 
L 174.569101 121.632304 
L 177.770984 120.519214 
L 180.972866 119.406124 
L 184.174749 118.293034 
L 187.376631 117.179945 
L 190.578514 116.066855 
L 193.780397 114.953765 
L 196.982279 113.840675 
L 200.184162 112.727585 
L 203.386044 111.614495 
L 206.587927 110.501405 
L 209.78981 109.388315 
L 212.991692 108.275225 
L 216.193575 107.162135 
L 219.395457 106.049045 
L 222.59734 104.935955 
L 225.799223 103.822865 
L 229.001105 102.709776 
L 232.202988 101.596686 
L 235.40487 100.483596 
L 238.606753 99.370506 
L 241.808635 98.257416 
L 245.010518 97.144326 
L 248.212401 96.031236 
L 251.414283 94.918146 
L 254.616166 93.805056 
L 257.818048 92.691966 
L 261.019931 91.578876 
L 264.221814 90.465786 
L 267.423696 89.352697 
L 270.625579 88.239607 
L 273.827461 87.126517 
L 277.029344 86.013427 
L 280.231227 84.900337 
L 283.433109 83.787247 
L 286.634992 82.674157 
L 289.836874 81.561067 
L 293.038757 80.447977 
L 296.24064 79.334887 
L 299.442522 78.221797 
L 302.644405 77.108707 
L 305.846287 75.995617 
L 309.04817 74.882528 
L 312.250053 73.769438 
L 315.451935 72.656348 
L 318.653818 71.543258 
L 321.8557 70.430168 
L 325.057583 69.317078 
L 328.259465 68.203988 
L 331.461348 67.090898 
L 334.663231 65.977808 
L 337.865113 64.864718 
L 341.066996 63.751628 
L 344.268878 62.638538 
L 347.470761 61.525449 
L 350.672644 60.412359 
L 353.874526 59.299269 
L 357.076409 58.186179 
" style="fill:none;stroke:#e24a33;stroke-linecap:square;stroke-width:2.25;"/>
   </g>
   <g id="line2d_36">
    <path clip-path="url(#pc2d9564a9b)" d="M 40.090032 172.370821 
L 43.291915 171.07118 
L 46.493797 169.771538 
L 49.69568 168.471897 
L 52.897563 167.172256 
L 56.099445 165.872615 
L 59.301328 164.572973 
L 62.50321 163.273332 
L 65.705093 161.973691 
L 68.906975 160.67405 
L 72.108858 159.374408 
L 75.310741 158.074767 
L 78.512623 156.775126 
L 81.714506 155.475485 
L 84.916388 154.175843 
L 88.118271 152.876202 
L 91.320154 151.576561 
L 94.522036 150.27692 
L 97.723919 148.977278 
L 100.925801 147.677637 
L 104.127684 146.377996 
L 107.329567 145.078355 
L 110.531449 143.778713 
L 113.733332 142.479072 
L 116.935214 141.179431 
L 120.137097 139.87979 
L 123.33898 138.580148 
L 126.540862 137.280507 
L 129.742745 135.980866 
L 132.944627 134.681225 
L 136.14651 133.381583 
L 139.348393 132.081942 
L 142.550275 130.782301 
L 145.752158 129.48266 
L 148.95404 128.183018 
L 152.155923 126.883377 
L 155.357805 125.583736 
L 158.559688 124.284095 
L 161.761571 122.984453 
L 164.963453 121.684812 
L 168.165336 120.385171 
L 171.367218 119.08553 
L 174.569101 117.785888 
L 177.770984 116.486247 
L 180.972866 115.186606 
L 184.174749 113.886965 
L 187.376631 112.587323 
L 190.578514 111.287682 
L 193.780397 109.988041 
L 196.982279 108.688399 
L 200.184162 107.388758 
L 203.386044 106.089117 
L 206.587927 104.789476 
L 209.78981 103.489834 
L 212.991692 102.190193 
L 216.193575 100.890552 
L 219.395457 99.590911 
L 222.59734 98.291269 
L 225.799223 96.991628 
L 229.001105 95.691987 
L 232.202988 94.392346 
L 235.40487 93.092704 
L 238.606753 91.793063 
L 241.808635 90.493422 
L 245.010518 89.193781 
L 248.212401 87.894139 
L 251.414283 86.594498 
L 254.616166 85.294857 
L 257.818048 83.995216 
L 261.019931 82.695574 
L 264.221814 81.395933 
L 267.423696 80.096292 
L 270.625579 78.796651 
L 273.827461 77.497009 
L 277.029344 76.197368 
L 280.231227 74.897727 
L 283.433109 73.598086 
L 286.634992 72.298444 
L 289.836874 70.998803 
L 293.038757 69.699162 
L 296.24064 68.399521 
L 299.442522 67.099879 
L 302.644405 65.800238 
L 305.846287 64.500597 
L 309.04817 63.200956 
L 312.250053 61.901314 
L 315.451935 60.601673 
L 318.653818 59.302032 
L 321.8557 58.002391 
L 325.057583 56.702749 
L 328.259465 55.403108 
L 331.461348 54.103467 
L 334.663231 52.803826 
L 337.865113 51.504184 
L 341.066996 50.204543 
L 344.268878 48.904902 
L 347.470761 47.605261 
L 350.672644 46.305619 
L 353.874526 45.005978 
L 357.076409 43.706337 
" style="fill:none;stroke:#348abd;stroke-linecap:square;stroke-width:2.25;"/>
   </g>
   <g id="patch_3">
    <path d="M 58.441875 311.6 
L 58.441875 7.2 
" style="fill:none;stroke:#ffffff;stroke-linecap:square;stroke-linejoin:miter;"/>
   </g>
   <g id="patch_4">
    <path d="M 58.441875 311.6 
L 338.724566 311.6 
" style="fill:none;stroke:#ffffff;stroke-linecap:square;stroke-linejoin:miter;"/>
   </g>
  </g>
  <g id="legend_1">
   <g id="text_20">
    <!-- name -->
    <g transform="translate(359.65066 163.627187)scale(0.1 -0.1)">
     <defs>
      <path d="M 54.890625 33.015625 
L 54.890625 0 
L 45.90625 0 
L 45.90625 32.71875 
Q 45.90625 40.484375 42.875 44.328125 
Q 39.84375 48.1875 33.796875 48.1875 
Q 26.515625 48.1875 22.3125 43.546875 
Q 18.109375 38.921875 18.109375 30.90625 
L 18.109375 0 
L 9.078125 0 
L 9.078125 54.6875 
L 18.109375 54.6875 
L 18.109375 46.1875 
Q 21.34375 51.125 25.703125 53.5625 
Q 30.078125 56 35.796875 56 
Q 45.21875 56 50.046875 50.171875 
Q 54.890625 44.34375 54.890625 33.015625 
z
" id="DejaVuSans-110"/>
      <path d="M 52 44.1875 
Q 55.375 50.25 60.0625 53.125 
Q 64.75 56 71.09375 56 
Q 79.640625 56 84.28125 50.015625 
Q 88.921875 44.046875 88.921875 33.015625 
L 88.921875 0 
L 79.890625 0 
L 79.890625 32.71875 
Q 79.890625 40.578125 77.09375 44.375 
Q 74.3125 48.1875 68.609375 48.1875 
Q 61.625 48.1875 57.5625 43.546875 
Q 53.515625 38.921875 53.515625 30.90625 
L 53.515625 0 
L 44.484375 0 
L 44.484375 32.71875 
Q 44.484375 40.625 41.703125 44.40625 
Q 38.921875 48.1875 33.109375 48.1875 
Q 26.21875 48.1875 22.15625 43.53125 
Q 18.109375 38.875 18.109375 30.90625 
L 18.109375 0 
L 9.078125 0 
L 9.078125 54.6875 
L 18.109375 54.6875 
L 18.109375 46.1875 
Q 21.1875 51.21875 25.484375 53.609375 
Q 29.78125 56 35.6875 56 
Q 41.65625 56 45.828125 52.96875 
Q 50 49.953125 52 44.1875 
z
" id="DejaVuSans-109"/>
      <path d="M 56.203125 29.59375 
L 56.203125 25.203125 
L 14.890625 25.203125 
Q 15.484375 15.921875 20.484375 11.0625 
Q 25.484375 6.203125 34.421875 6.203125 
Q 39.59375 6.203125 44.453125 7.46875 
Q 49.3125 8.734375 54.109375 11.28125 
L 54.109375 2.78125 
Q 49.265625 0.734375 44.1875 -0.34375 
Q 39.109375 -1.421875 33.890625 -1.421875 
Q 20.796875 -1.421875 13.15625 6.1875 
Q 5.515625 13.8125 5.515625 26.8125 
Q 5.515625 40.234375 12.765625 48.109375 
Q 20.015625 56 32.328125 56 
Q 43.359375 56 49.78125 48.890625 
Q 56.203125 41.796875 56.203125 29.59375 
z
M 47.21875 32.234375 
Q 47.125 39.59375 43.09375 43.984375 
Q 39.0625 48.390625 32.421875 48.390625 
Q 24.90625 48.390625 20.390625 44.140625 
Q 15.875 39.890625 15.1875 32.171875 
z
" id="DejaVuSans-101"/>
     </defs>
     <use xlink:href="#DejaVuSans-110"/>
     <use x="63.378906" xlink:href="#DejaVuSans-97"/>
     <use x="124.658203" xlink:href="#DejaVuSans-109"/>
     <use x="222.070312" xlink:href="#DejaVuSans-101"/>
    </g>
   </g>
   <g id="PathCollection_3">
    <g>
     <use style="fill:#e24a33;fill-opacity:0.8;stroke:#e24a33;stroke-opacity:0.8;" x="354.087378" xlink:href="#m702c8d70f1" y="175.680312"/>
    </g>
   </g>
   <g id="text_21">
    <!-- SVM -->
    <g transform="translate(372.087378 178.305312)scale(0.1 -0.1)">
     <defs>
      <path d="M 53.515625 70.515625 
L 53.515625 60.890625 
Q 47.90625 63.578125 42.921875 64.890625 
Q 37.9375 66.21875 33.296875 66.21875 
Q 25.25 66.21875 20.875 63.09375 
Q 16.5 59.96875 16.5 54.203125 
Q 16.5 49.359375 19.40625 46.890625 
Q 22.3125 44.4375 30.421875 42.921875 
L 36.375 41.703125 
Q 47.40625 39.59375 52.65625 34.296875 
Q 57.90625 29 57.90625 20.125 
Q 57.90625 9.515625 50.796875 4.046875 
Q 43.703125 -1.421875 29.984375 -1.421875 
Q 24.8125 -1.421875 18.96875 -0.25 
Q 13.140625 0.921875 6.890625 3.21875 
L 6.890625 13.375 
Q 12.890625 10.015625 18.65625 8.296875 
Q 24.421875 6.59375 29.984375 6.59375 
Q 38.421875 6.59375 43.015625 9.90625 
Q 47.609375 13.234375 47.609375 19.390625 
Q 47.609375 24.75 44.3125 27.78125 
Q 41.015625 30.8125 33.5 32.328125 
L 27.484375 33.5 
Q 16.453125 35.6875 11.515625 40.375 
Q 6.59375 45.0625 6.59375 53.421875 
Q 6.59375 63.09375 13.40625 68.65625 
Q 20.21875 74.21875 32.171875 74.21875 
Q 37.3125 74.21875 42.625 73.28125 
Q 47.953125 72.359375 53.515625 70.515625 
z
" id="DejaVuSans-83"/>
      <path d="M 28.609375 0 
L 0.78125 72.90625 
L 11.078125 72.90625 
L 34.1875 11.53125 
L 57.328125 72.90625 
L 67.578125 72.90625 
L 39.796875 0 
z
" id="DejaVuSans-86"/>
      <path d="M 9.8125 72.90625 
L 24.515625 72.90625 
L 43.109375 23.296875 
L 61.8125 72.90625 
L 76.515625 72.90625 
L 76.515625 0 
L 66.890625 0 
L 66.890625 64.015625 
L 48.09375 14.015625 
L 38.1875 14.015625 
L 19.390625 64.015625 
L 19.390625 0 
L 9.8125 0 
z
" id="DejaVuSans-77"/>
     </defs>
     <use xlink:href="#DejaVuSans-83"/>
     <use x="63.476562" xlink:href="#DejaVuSans-86"/>
     <use x="131.884766" xlink:href="#DejaVuSans-77"/>
    </g>
   </g>
   <g id="PathCollection_4">
    <g>
     <use style="fill:#348abd;fill-opacity:0.8;stroke:#348abd;stroke-opacity:0.8;" x="354.087378" xlink:href="#m1119137240" y="190.358437"/>
    </g>
   </g>
   <g id="text_22">
    <!-- CNN 5 -->
    <g transform="translate(372.087378 192.983437)scale(0.1 -0.1)">
     <defs>
      <path d="M 64.40625 67.28125 
L 64.40625 56.890625 
Q 59.421875 61.53125 53.78125 63.8125 
Q 48.140625 66.109375 41.796875 66.109375 
Q 29.296875 66.109375 22.65625 58.46875 
Q 16.015625 50.828125 16.015625 36.375 
Q 16.015625 21.96875 22.65625 14.328125 
Q 29.296875 6.6875 41.796875 6.6875 
Q 48.140625 6.6875 53.78125 8.984375 
Q 59.421875 11.28125 64.40625 15.921875 
L 64.40625 5.609375 
Q 59.234375 2.09375 53.4375 0.328125 
Q 47.65625 -1.421875 41.21875 -1.421875 
Q 24.65625 -1.421875 15.125 8.703125 
Q 5.609375 18.84375 5.609375 36.375 
Q 5.609375 53.953125 15.125 64.078125 
Q 24.65625 74.21875 41.21875 74.21875 
Q 47.75 74.21875 53.53125 72.484375 
Q 59.328125 70.75 64.40625 67.28125 
z
" id="DejaVuSans-67"/>
      <path d="M 9.8125 72.90625 
L 23.09375 72.90625 
L 55.421875 11.921875 
L 55.421875 72.90625 
L 64.984375 72.90625 
L 64.984375 0 
L 51.703125 0 
L 19.390625 60.984375 
L 19.390625 0 
L 9.8125 0 
z
" id="DejaVuSans-78"/>
      <path id="DejaVuSans-32"/>
     </defs>
     <use xlink:href="#DejaVuSans-67"/>
     <use x="69.824219" xlink:href="#DejaVuSans-78"/>
     <use x="144.628906" xlink:href="#DejaVuSans-78"/>
     <use x="219.433594" xlink:href="#DejaVuSans-32"/>
     <use x="251.220703" xlink:href="#DejaVuSans-53"/>
    </g>
   </g>
  </g>
 </g>
 <defs>
  <clipPath id="pc2d9564a9b">
   <rect height="304.4" width="280.282691" x="58.441875" y="7.2"/>
  </clipPath>
 </defs>
</svg>
