<?xml version="1.0" encoding="utf-8" standalone="no"?>
<!DOCTYPE svg PUBLIC "-//W3C//DTD SVG 1.1//EN"
  "http://www.w3.org/Graphics/SVG/1.1/DTD/svg11.dtd">
<!-- Created with matplotlib (https://matplotlib.org/) -->
<svg height="351.091875pt" version="1.1" viewBox="0 0 417.822951 351.091875" width="417.822951pt" xmlns="http://www.w3.org/2000/svg" xmlns:xlink="http://www.w3.org/1999/xlink">
 <metadata>
  <rdf:RDF xmlns:cc="http://creativecommons.org/ns#" xmlns:dc="http://purl.org/dc/elements/1.1/" xmlns:rdf="http://www.w3.org/1999/02/22-rdf-syntax-ns#">
   <cc:Work>
    <dc:type rdf:resource="http://purl.org/dc/dcmitype/StillImage"/>
    <dc:date>2020-09-05T21:55:57.425937</dc:date>
    <dc:format>image/svg+xml</dc:format>
    <dc:creator>
     <cc:Agent>
      <dc:title>Matplotlib v3.3.1, https://matplotlib.org/</dc:title>
     </cc:Agent>
    </dc:creator>
   </cc:Work>
  </rdf:RDF>
 </metadata>
 <defs>
  <style type="text/css">*{stroke-linecap:butt;stroke-linejoin:round;}</style>
 </defs>
 <g id="figure_1">
  <g id="patch_1">
   <path d="M 0 351.091875 
L 417.822951 351.091875 
L 417.822951 0 
L 0 0 
z
" style="fill:#ffffff;"/>
  </g>
  <g id="axes_1">
   <g id="patch_2">
    <path d="M 58.441875 311.6 
L 337.535451 311.6 
L 337.535451 7.2 
L 58.441875 7.2 
z
" style="fill:#e5e5e5;"/>
   </g>
   <g id="matplotlib.axis_1">
    <g id="xtick_1">
     <g id="line2d_1">
      <path clip-path="url(#p9533ca6e42)" d="M 58.441875 311.6 
L 58.441875 7.2 
" style="fill:none;stroke:#ffffff;stroke-linecap:square;stroke-width:0.8;"/>
     </g>
     <g id="line2d_2">
      <defs>
       <path d="M 0 0 
L 0 3.5 
" id="m4d5c098b6f" style="stroke:#555555;stroke-width:0.8;"/>
      </defs>
      <g>
       <use style="fill:#555555;stroke:#555555;stroke-width:0.8;" x="58.441875" xlink:href="#m4d5c098b6f" y="311.6"/>
      </g>
     </g>
     <g id="text_1">
      <!-- 1 -->
      <g style="fill:#555555;" transform="translate(55.260625 326.198437)scale(0.1 -0.1)">
       <defs>
        <path d="M 12.40625 8.296875 
L 28.515625 8.296875 
L 28.515625 63.921875 
L 10.984375 60.40625 
L 10.984375 69.390625 
L 28.421875 72.90625 
L 38.28125 72.90625 
L 38.28125 8.296875 
L 54.390625 8.296875 
L 54.390625 0 
L 12.40625 0 
z
" id="DejaVuSans-49"/>
       </defs>
       <use xlink:href="#DejaVuSans-49"/>
      </g>
     </g>
    </g>
    <g id="xtick_2">
     <g id="line2d_3">
      <path clip-path="url(#p9533ca6e42)" d="M 89.452272 311.6 
L 89.452272 7.2 
" style="fill:none;stroke:#ffffff;stroke-linecap:square;stroke-width:0.8;"/>
     </g>
     <g id="line2d_4">
      <g>
       <use style="fill:#555555;stroke:#555555;stroke-width:0.8;" x="89.452272" xlink:href="#m4d5c098b6f" y="311.6"/>
      </g>
     </g>
     <g id="text_2">
      <!-- 2 -->
      <g style="fill:#555555;" transform="translate(86.271022 326.198437)scale(0.1 -0.1)">
       <defs>
        <path d="M 19.1875 8.296875 
L 53.609375 8.296875 
L 53.609375 0 
L 7.328125 0 
L 7.328125 8.296875 
Q 12.9375 14.109375 22.625 23.890625 
Q 32.328125 33.6875 34.8125 36.53125 
Q 39.546875 41.84375 41.421875 45.53125 
Q 43.3125 49.21875 43.3125 52.78125 
Q 43.3125 58.59375 39.234375 62.25 
Q 35.15625 65.921875 28.609375 65.921875 
Q 23.96875 65.921875 18.8125 64.3125 
Q 13.671875 62.703125 7.8125 59.421875 
L 7.8125 69.390625 
Q 13.765625 71.78125 18.9375 73 
Q 24.125 74.21875 28.421875 74.21875 
Q 39.75 74.21875 46.484375 68.546875 
Q 53.21875 62.890625 53.21875 53.421875 
Q 53.21875 48.921875 51.53125 44.890625 
Q 49.859375 40.875 45.40625 35.40625 
Q 44.1875 33.984375 37.640625 27.21875 
Q 31.109375 20.453125 19.1875 8.296875 
z
" id="DejaVuSans-50"/>
       </defs>
       <use xlink:href="#DejaVuSans-50"/>
      </g>
     </g>
    </g>
    <g id="xtick_3">
     <g id="line2d_5">
      <path clip-path="url(#p9533ca6e42)" d="M 120.46267 311.6 
L 120.46267 7.2 
" style="fill:none;stroke:#ffffff;stroke-linecap:square;stroke-width:0.8;"/>
     </g>
     <g id="line2d_6">
      <g>
       <use style="fill:#555555;stroke:#555555;stroke-width:0.8;" x="120.46267" xlink:href="#m4d5c098b6f" y="311.6"/>
      </g>
     </g>
     <g id="text_3">
      <!-- 3 -->
      <g style="fill:#555555;" transform="translate(117.28142 326.198437)scale(0.1 -0.1)">
       <defs>
        <path d="M 40.578125 39.3125 
Q 47.65625 37.796875 51.625 33 
Q 55.609375 28.21875 55.609375 21.1875 
Q 55.609375 10.40625 48.1875 4.484375 
Q 40.765625 -1.421875 27.09375 -1.421875 
Q 22.515625 -1.421875 17.65625 -0.515625 
Q 12.796875 0.390625 7.625 2.203125 
L 7.625 11.71875 
Q 11.71875 9.328125 16.59375 8.109375 
Q 21.484375 6.890625 26.8125 6.890625 
Q 36.078125 6.890625 40.9375 10.546875 
Q 45.796875 14.203125 45.796875 21.1875 
Q 45.796875 27.640625 41.28125 31.265625 
Q 36.765625 34.90625 28.71875 34.90625 
L 20.21875 34.90625 
L 20.21875 43.015625 
L 29.109375 43.015625 
Q 36.375 43.015625 40.234375 45.921875 
Q 44.09375 48.828125 44.09375 54.296875 
Q 44.09375 59.90625 40.109375 62.90625 
Q 36.140625 65.921875 28.71875 65.921875 
Q 24.65625 65.921875 20.015625 65.03125 
Q 15.375 64.15625 9.8125 62.3125 
L 9.8125 71.09375 
Q 15.4375 72.65625 20.34375 73.4375 
Q 25.25 74.21875 29.59375 74.21875 
Q 40.828125 74.21875 47.359375 69.109375 
Q 53.90625 64.015625 53.90625 55.328125 
Q 53.90625 49.265625 50.4375 45.09375 
Q 46.96875 40.921875 40.578125 39.3125 
z
" id="DejaVuSans-51"/>
       </defs>
       <use xlink:href="#DejaVuSans-51"/>
      </g>
     </g>
    </g>
    <g id="xtick_4">
     <g id="line2d_7">
      <path clip-path="url(#p9533ca6e42)" d="M 151.473067 311.6 
L 151.473067 7.2 
" style="fill:none;stroke:#ffffff;stroke-linecap:square;stroke-width:0.8;"/>
     </g>
     <g id="line2d_8">
      <g>
       <use style="fill:#555555;stroke:#555555;stroke-width:0.8;" x="151.473067" xlink:href="#m4d5c098b6f" y="311.6"/>
      </g>
     </g>
     <g id="text_4">
      <!-- 4 -->
      <g style="fill:#555555;" transform="translate(148.291817 326.198437)scale(0.1 -0.1)">
       <defs>
        <path d="M 37.796875 64.3125 
L 12.890625 25.390625 
L 37.796875 25.390625 
z
M 35.203125 72.90625 
L 47.609375 72.90625 
L 47.609375 25.390625 
L 58.015625 25.390625 
L 58.015625 17.1875 
L 47.609375 17.1875 
L 47.609375 0 
L 37.796875 0 
L 37.796875 17.1875 
L 4.890625 17.1875 
L 4.890625 26.703125 
z
" id="DejaVuSans-52"/>
       </defs>
       <use xlink:href="#DejaVuSans-52"/>
      </g>
     </g>
    </g>
    <g id="xtick_5">
     <g id="line2d_9">
      <path clip-path="url(#p9533ca6e42)" d="M 182.483465 311.6 
L 182.483465 7.2 
" style="fill:none;stroke:#ffffff;stroke-linecap:square;stroke-width:0.8;"/>
     </g>
     <g id="line2d_10">
      <g>
       <use style="fill:#555555;stroke:#555555;stroke-width:0.8;" x="182.483465" xlink:href="#m4d5c098b6f" y="311.6"/>
      </g>
     </g>
     <g id="text_5">
      <!-- 5 -->
      <g style="fill:#555555;" transform="translate(179.302215 326.198437)scale(0.1 -0.1)">
       <defs>
        <path d="M 10.796875 72.90625 
L 49.515625 72.90625 
L 49.515625 64.59375 
L 19.828125 64.59375 
L 19.828125 46.734375 
Q 21.96875 47.46875 24.109375 47.828125 
Q 26.265625 48.1875 28.421875 48.1875 
Q 40.625 48.1875 47.75 41.5 
Q 54.890625 34.8125 54.890625 23.390625 
Q 54.890625 11.625 47.5625 5.09375 
Q 40.234375 -1.421875 26.90625 -1.421875 
Q 22.3125 -1.421875 17.546875 -0.640625 
Q 12.796875 0.140625 7.71875 1.703125 
L 7.71875 11.625 
Q 12.109375 9.234375 16.796875 8.0625 
Q 21.484375 6.890625 26.703125 6.890625 
Q 35.15625 6.890625 40.078125 11.328125 
Q 45.015625 15.765625 45.015625 23.390625 
Q 45.015625 31 40.078125 35.4375 
Q 35.15625 39.890625 26.703125 39.890625 
Q 22.75 39.890625 18.8125 39.015625 
Q 14.890625 38.140625 10.796875 36.28125 
z
" id="DejaVuSans-53"/>
       </defs>
       <use xlink:href="#DejaVuSans-53"/>
      </g>
     </g>
    </g>
    <g id="xtick_6">
     <g id="line2d_11">
      <path clip-path="url(#p9533ca6e42)" d="M 213.493862 311.6 
L 213.493862 7.2 
" style="fill:none;stroke:#ffffff;stroke-linecap:square;stroke-width:0.8;"/>
     </g>
     <g id="line2d_12">
      <g>
       <use style="fill:#555555;stroke:#555555;stroke-width:0.8;" x="213.493862" xlink:href="#m4d5c098b6f" y="311.6"/>
      </g>
     </g>
     <g id="text_6">
      <!-- 6 -->
      <g style="fill:#555555;" transform="translate(210.312612 326.198437)scale(0.1 -0.1)">
       <defs>
        <path d="M 33.015625 40.375 
Q 26.375 40.375 22.484375 35.828125 
Q 18.609375 31.296875 18.609375 23.390625 
Q 18.609375 15.53125 22.484375 10.953125 
Q 26.375 6.390625 33.015625 6.390625 
Q 39.65625 6.390625 43.53125 10.953125 
Q 47.40625 15.53125 47.40625 23.390625 
Q 47.40625 31.296875 43.53125 35.828125 
Q 39.65625 40.375 33.015625 40.375 
z
M 52.59375 71.296875 
L 52.59375 62.3125 
Q 48.875 64.0625 45.09375 64.984375 
Q 41.3125 65.921875 37.59375 65.921875 
Q 27.828125 65.921875 22.671875 59.328125 
Q 17.53125 52.734375 16.796875 39.40625 
Q 19.671875 43.65625 24.015625 45.921875 
Q 28.375 48.1875 33.59375 48.1875 
Q 44.578125 48.1875 50.953125 41.515625 
Q 57.328125 34.859375 57.328125 23.390625 
Q 57.328125 12.15625 50.6875 5.359375 
Q 44.046875 -1.421875 33.015625 -1.421875 
Q 20.359375 -1.421875 13.671875 8.265625 
Q 6.984375 17.96875 6.984375 36.375 
Q 6.984375 53.65625 15.1875 63.9375 
Q 23.390625 74.21875 37.203125 74.21875 
Q 40.921875 74.21875 44.703125 73.484375 
Q 48.484375 72.75 52.59375 71.296875 
z
" id="DejaVuSans-54"/>
       </defs>
       <use xlink:href="#DejaVuSans-54"/>
      </g>
     </g>
    </g>
    <g id="xtick_7">
     <g id="line2d_13">
      <path clip-path="url(#p9533ca6e42)" d="M 244.504259 311.6 
L 244.504259 7.2 
" style="fill:none;stroke:#ffffff;stroke-linecap:square;stroke-width:0.8;"/>
     </g>
     <g id="line2d_14">
      <g>
       <use style="fill:#555555;stroke:#555555;stroke-width:0.8;" x="244.504259" xlink:href="#m4d5c098b6f" y="311.6"/>
      </g>
     </g>
     <g id="text_7">
      <!-- 7 -->
      <g style="fill:#555555;" transform="translate(241.323009 326.198437)scale(0.1 -0.1)">
       <defs>
        <path d="M 8.203125 72.90625 
L 55.078125 72.90625 
L 55.078125 68.703125 
L 28.609375 0 
L 18.3125 0 
L 43.21875 64.59375 
L 8.203125 64.59375 
z
" id="DejaVuSans-55"/>
       </defs>
       <use xlink:href="#DejaVuSans-55"/>
      </g>
     </g>
    </g>
    <g id="xtick_8">
     <g id="line2d_15">
      <path clip-path="url(#p9533ca6e42)" d="M 275.514657 311.6 
L 275.514657 7.2 
" style="fill:none;stroke:#ffffff;stroke-linecap:square;stroke-width:0.8;"/>
     </g>
     <g id="line2d_16">
      <g>
       <use style="fill:#555555;stroke:#555555;stroke-width:0.8;" x="275.514657" xlink:href="#m4d5c098b6f" y="311.6"/>
      </g>
     </g>
     <g id="text_8">
      <!-- 8 -->
      <g style="fill:#555555;" transform="translate(272.333407 326.198437)scale(0.1 -0.1)">
       <defs>
        <path d="M 31.78125 34.625 
Q 24.75 34.625 20.71875 30.859375 
Q 16.703125 27.09375 16.703125 20.515625 
Q 16.703125 13.921875 20.71875 10.15625 
Q 24.75 6.390625 31.78125 6.390625 
Q 38.8125 6.390625 42.859375 10.171875 
Q 46.921875 13.96875 46.921875 20.515625 
Q 46.921875 27.09375 42.890625 30.859375 
Q 38.875 34.625 31.78125 34.625 
z
M 21.921875 38.8125 
Q 15.578125 40.375 12.03125 44.71875 
Q 8.5 49.078125 8.5 55.328125 
Q 8.5 64.0625 14.71875 69.140625 
Q 20.953125 74.21875 31.78125 74.21875 
Q 42.671875 74.21875 48.875 69.140625 
Q 55.078125 64.0625 55.078125 55.328125 
Q 55.078125 49.078125 51.53125 44.71875 
Q 48 40.375 41.703125 38.8125 
Q 48.828125 37.15625 52.796875 32.3125 
Q 56.78125 27.484375 56.78125 20.515625 
Q 56.78125 9.90625 50.3125 4.234375 
Q 43.84375 -1.421875 31.78125 -1.421875 
Q 19.734375 -1.421875 13.25 4.234375 
Q 6.78125 9.90625 6.78125 20.515625 
Q 6.78125 27.484375 10.78125 32.3125 
Q 14.796875 37.15625 21.921875 38.8125 
z
M 18.3125 54.390625 
Q 18.3125 48.734375 21.84375 45.5625 
Q 25.390625 42.390625 31.78125 42.390625 
Q 38.140625 42.390625 41.71875 45.5625 
Q 45.3125 48.734375 45.3125 54.390625 
Q 45.3125 60.0625 41.71875 63.234375 
Q 38.140625 66.40625 31.78125 66.40625 
Q 25.390625 66.40625 21.84375 63.234375 
Q 18.3125 60.0625 18.3125 54.390625 
z
" id="DejaVuSans-56"/>
       </defs>
       <use xlink:href="#DejaVuSans-56"/>
      </g>
     </g>
    </g>
    <g id="xtick_9">
     <g id="line2d_17">
      <path clip-path="url(#p9533ca6e42)" d="M 306.525054 311.6 
L 306.525054 7.2 
" style="fill:none;stroke:#ffffff;stroke-linecap:square;stroke-width:0.8;"/>
     </g>
     <g id="line2d_18">
      <g>
       <use style="fill:#555555;stroke:#555555;stroke-width:0.8;" x="306.525054" xlink:href="#m4d5c098b6f" y="311.6"/>
      </g>
     </g>
     <g id="text_9">
      <!-- 9 -->
      <g style="fill:#555555;" transform="translate(303.343804 326.198437)scale(0.1 -0.1)">
       <defs>
        <path d="M 10.984375 1.515625 
L 10.984375 10.5 
Q 14.703125 8.734375 18.5 7.8125 
Q 22.3125 6.890625 25.984375 6.890625 
Q 35.75 6.890625 40.890625 13.453125 
Q 46.046875 20.015625 46.78125 33.40625 
Q 43.953125 29.203125 39.59375 26.953125 
Q 35.25 24.703125 29.984375 24.703125 
Q 19.046875 24.703125 12.671875 31.3125 
Q 6.296875 37.9375 6.296875 49.421875 
Q 6.296875 60.640625 12.9375 67.421875 
Q 19.578125 74.21875 30.609375 74.21875 
Q 43.265625 74.21875 49.921875 64.515625 
Q 56.59375 54.828125 56.59375 36.375 
Q 56.59375 19.140625 48.40625 8.859375 
Q 40.234375 -1.421875 26.421875 -1.421875 
Q 22.703125 -1.421875 18.890625 -0.6875 
Q 15.09375 0.046875 10.984375 1.515625 
z
M 30.609375 32.421875 
Q 37.25 32.421875 41.125 36.953125 
Q 45.015625 41.5 45.015625 49.421875 
Q 45.015625 57.28125 41.125 61.84375 
Q 37.25 66.40625 30.609375 66.40625 
Q 23.96875 66.40625 20.09375 61.84375 
Q 16.21875 57.28125 16.21875 49.421875 
Q 16.21875 41.5 20.09375 36.953125 
Q 23.96875 32.421875 30.609375 32.421875 
z
" id="DejaVuSans-57"/>
       </defs>
       <use xlink:href="#DejaVuSans-57"/>
      </g>
     </g>
    </g>
    <g id="xtick_10">
     <g id="line2d_19">
      <path clip-path="url(#p9533ca6e42)" d="M 337.535451 311.6 
L 337.535451 7.2 
" style="fill:none;stroke:#ffffff;stroke-linecap:square;stroke-width:0.8;"/>
     </g>
     <g id="line2d_20">
      <g>
       <use style="fill:#555555;stroke:#555555;stroke-width:0.8;" x="337.535451" xlink:href="#m4d5c098b6f" y="311.6"/>
      </g>
     </g>
     <g id="text_10">
      <!-- 10 -->
      <g style="fill:#555555;" transform="translate(331.172951 326.198437)scale(0.1 -0.1)">
       <defs>
        <path d="M 31.78125 66.40625 
Q 24.171875 66.40625 20.328125 58.90625 
Q 16.5 51.421875 16.5 36.375 
Q 16.5 21.390625 20.328125 13.890625 
Q 24.171875 6.390625 31.78125 6.390625 
Q 39.453125 6.390625 43.28125 13.890625 
Q 47.125 21.390625 47.125 36.375 
Q 47.125 51.421875 43.28125 58.90625 
Q 39.453125 66.40625 31.78125 66.40625 
z
M 31.78125 74.21875 
Q 44.046875 74.21875 50.515625 64.515625 
Q 56.984375 54.828125 56.984375 36.375 
Q 56.984375 17.96875 50.515625 8.265625 
Q 44.046875 -1.421875 31.78125 -1.421875 
Q 19.53125 -1.421875 13.0625 8.265625 
Q 6.59375 17.96875 6.59375 36.375 
Q 6.59375 54.828125 13.0625 64.515625 
Q 19.53125 74.21875 31.78125 74.21875 
z
" id="DejaVuSans-48"/>
       </defs>
       <use xlink:href="#DejaVuSans-49"/>
       <use x="63.623047" xlink:href="#DejaVuSans-48"/>
      </g>
     </g>
    </g>
    <g id="text_11">
     <!-- epochs -->
     <g style="fill:#555555;" transform="translate(176.589288 341.39625)scale(0.12 -0.12)">
      <defs>
       <path d="M 56.203125 29.59375 
L 56.203125 25.203125 
L 14.890625 25.203125 
Q 15.484375 15.921875 20.484375 11.0625 
Q 25.484375 6.203125 34.421875 6.203125 
Q 39.59375 6.203125 44.453125 7.46875 
Q 49.3125 8.734375 54.109375 11.28125 
L 54.109375 2.78125 
Q 49.265625 0.734375 44.1875 -0.34375 
Q 39.109375 -1.421875 33.890625 -1.421875 
Q 20.796875 -1.421875 13.15625 6.1875 
Q 5.515625 13.8125 5.515625 26.8125 
Q 5.515625 40.234375 12.765625 48.109375 
Q 20.015625 56 32.328125 56 
Q 43.359375 56 49.78125 48.890625 
Q 56.203125 41.796875 56.203125 29.59375 
z
M 47.21875 32.234375 
Q 47.125 39.59375 43.09375 43.984375 
Q 39.0625 48.390625 32.421875 48.390625 
Q 24.90625 48.390625 20.390625 44.140625 
Q 15.875 39.890625 15.1875 32.171875 
z
" id="DejaVuSans-101"/>
       <path d="M 18.109375 8.203125 
L 18.109375 -20.796875 
L 9.078125 -20.796875 
L 9.078125 54.6875 
L 18.109375 54.6875 
L 18.109375 46.390625 
Q 20.953125 51.265625 25.265625 53.625 
Q 29.59375 56 35.59375 56 
Q 45.5625 56 51.78125 48.09375 
Q 58.015625 40.1875 58.015625 27.296875 
Q 58.015625 14.40625 51.78125 6.484375 
Q 45.5625 -1.421875 35.59375 -1.421875 
Q 29.59375 -1.421875 25.265625 0.953125 
Q 20.953125 3.328125 18.109375 8.203125 
z
M 48.6875 27.296875 
Q 48.6875 37.203125 44.609375 42.84375 
Q 40.53125 48.484375 33.40625 48.484375 
Q 26.265625 48.484375 22.1875 42.84375 
Q 18.109375 37.203125 18.109375 27.296875 
Q 18.109375 17.390625 22.1875 11.75 
Q 26.265625 6.109375 33.40625 6.109375 
Q 40.53125 6.109375 44.609375 11.75 
Q 48.6875 17.390625 48.6875 27.296875 
z
" id="DejaVuSans-112"/>
       <path d="M 30.609375 48.390625 
Q 23.390625 48.390625 19.1875 42.75 
Q 14.984375 37.109375 14.984375 27.296875 
Q 14.984375 17.484375 19.15625 11.84375 
Q 23.34375 6.203125 30.609375 6.203125 
Q 37.796875 6.203125 41.984375 11.859375 
Q 46.1875 17.53125 46.1875 27.296875 
Q 46.1875 37.015625 41.984375 42.703125 
Q 37.796875 48.390625 30.609375 48.390625 
z
M 30.609375 56 
Q 42.328125 56 49.015625 48.375 
Q 55.71875 40.765625 55.71875 27.296875 
Q 55.71875 13.875 49.015625 6.21875 
Q 42.328125 -1.421875 30.609375 -1.421875 
Q 18.84375 -1.421875 12.171875 6.21875 
Q 5.515625 13.875 5.515625 27.296875 
Q 5.515625 40.765625 12.171875 48.375 
Q 18.84375 56 30.609375 56 
z
" id="DejaVuSans-111"/>
       <path d="M 48.78125 52.59375 
L 48.78125 44.1875 
Q 44.96875 46.296875 41.140625 47.34375 
Q 37.3125 48.390625 33.40625 48.390625 
Q 24.65625 48.390625 19.8125 42.84375 
Q 14.984375 37.3125 14.984375 27.296875 
Q 14.984375 17.28125 19.8125 11.734375 
Q 24.65625 6.203125 33.40625 6.203125 
Q 37.3125 6.203125 41.140625 7.25 
Q 44.96875 8.296875 48.78125 10.40625 
L 48.78125 2.09375 
Q 45.015625 0.34375 40.984375 -0.53125 
Q 36.96875 -1.421875 32.421875 -1.421875 
Q 20.0625 -1.421875 12.78125 6.34375 
Q 5.515625 14.109375 5.515625 27.296875 
Q 5.515625 40.671875 12.859375 48.328125 
Q 20.21875 56 33.015625 56 
Q 37.15625 56 41.109375 55.140625 
Q 45.0625 54.296875 48.78125 52.59375 
z
" id="DejaVuSans-99"/>
       <path d="M 54.890625 33.015625 
L 54.890625 0 
L 45.90625 0 
L 45.90625 32.71875 
Q 45.90625 40.484375 42.875 44.328125 
Q 39.84375 48.1875 33.796875 48.1875 
Q 26.515625 48.1875 22.3125 43.546875 
Q 18.109375 38.921875 18.109375 30.90625 
L 18.109375 0 
L 9.078125 0 
L 9.078125 75.984375 
L 18.109375 75.984375 
L 18.109375 46.1875 
Q 21.34375 51.125 25.703125 53.5625 
Q 30.078125 56 35.796875 56 
Q 45.21875 56 50.046875 50.171875 
Q 54.890625 44.34375 54.890625 33.015625 
z
" id="DejaVuSans-104"/>
       <path d="M 44.28125 53.078125 
L 44.28125 44.578125 
Q 40.484375 46.53125 36.375 47.5 
Q 32.28125 48.484375 27.875 48.484375 
Q 21.1875 48.484375 17.84375 46.4375 
Q 14.5 44.390625 14.5 40.28125 
Q 14.5 37.15625 16.890625 35.375 
Q 19.28125 33.59375 26.515625 31.984375 
L 29.59375 31.296875 
Q 39.15625 29.25 43.1875 25.515625 
Q 47.21875 21.78125 47.21875 15.09375 
Q 47.21875 7.46875 41.1875 3.015625 
Q 35.15625 -1.421875 24.609375 -1.421875 
Q 20.21875 -1.421875 15.453125 -0.5625 
Q 10.6875 0.296875 5.421875 2 
L 5.421875 11.28125 
Q 10.40625 8.6875 15.234375 7.390625 
Q 20.0625 6.109375 24.8125 6.109375 
Q 31.15625 6.109375 34.5625 8.28125 
Q 37.984375 10.453125 37.984375 14.40625 
Q 37.984375 18.0625 35.515625 20.015625 
Q 33.0625 21.96875 24.703125 23.78125 
L 21.578125 24.515625 
Q 13.234375 26.265625 9.515625 29.90625 
Q 5.8125 33.546875 5.8125 39.890625 
Q 5.8125 47.609375 11.28125 51.796875 
Q 16.75 56 26.8125 56 
Q 31.78125 56 36.171875 55.265625 
Q 40.578125 54.546875 44.28125 53.078125 
z
" id="DejaVuSans-115"/>
      </defs>
      <use xlink:href="#DejaVuSans-101"/>
      <use x="61.523438" xlink:href="#DejaVuSans-112"/>
      <use x="125" xlink:href="#DejaVuSans-111"/>
      <use x="186.181641" xlink:href="#DejaVuSans-99"/>
      <use x="241.162109" xlink:href="#DejaVuSans-104"/>
      <use x="304.541016" xlink:href="#DejaVuSans-115"/>
     </g>
    </g>
   </g>
   <g id="matplotlib.axis_2">
    <g id="ytick_1">
     <g id="line2d_21">
      <path clip-path="url(#p9533ca6e42)" d="M 58.441875 291.043013 
L 337.535451 291.043013 
" style="fill:none;stroke:#ffffff;stroke-linecap:square;stroke-width:0.8;"/>
     </g>
     <g id="line2d_22">
      <defs>
       <path d="M 0 0 
L -3.5 0 
" id="m835727052d" style="stroke:#555555;stroke-width:0.8;"/>
      </defs>
      <g>
       <use style="fill:#555555;stroke:#555555;stroke-width:0.8;" x="58.441875" xlink:href="#m835727052d" y="291.043013"/>
      </g>
     </g>
     <g id="text_12">
      <!-- 0.855 -->
      <g style="fill:#555555;" transform="translate(22.81375 294.842232)scale(0.1 -0.1)">
       <defs>
        <path d="M 10.6875 12.40625 
L 21 12.40625 
L 21 0 
L 10.6875 0 
z
" id="DejaVuSans-46"/>
       </defs>
       <use xlink:href="#DejaVuSans-48"/>
       <use x="63.623047" xlink:href="#DejaVuSans-46"/>
       <use x="95.410156" xlink:href="#DejaVuSans-56"/>
       <use x="159.033203" xlink:href="#DejaVuSans-53"/>
       <use x="222.65625" xlink:href="#DejaVuSans-53"/>
      </g>
     </g>
    </g>
    <g id="ytick_2">
     <g id="line2d_23">
      <path clip-path="url(#p9533ca6e42)" d="M 58.441875 256.062107 
L 337.535451 256.062107 
" style="fill:none;stroke:#ffffff;stroke-linecap:square;stroke-width:0.8;"/>
     </g>
     <g id="line2d_24">
      <g>
       <use style="fill:#555555;stroke:#555555;stroke-width:0.8;" x="58.441875" xlink:href="#m835727052d" y="256.062107"/>
      </g>
     </g>
     <g id="text_13">
      <!-- 0.860 -->
      <g style="fill:#555555;" transform="translate(22.81375 259.861326)scale(0.1 -0.1)">
       <use xlink:href="#DejaVuSans-48"/>
       <use x="63.623047" xlink:href="#DejaVuSans-46"/>
       <use x="95.410156" xlink:href="#DejaVuSans-56"/>
       <use x="159.033203" xlink:href="#DejaVuSans-54"/>
       <use x="222.65625" xlink:href="#DejaVuSans-48"/>
      </g>
     </g>
    </g>
    <g id="ytick_3">
     <g id="line2d_25">
      <path clip-path="url(#p9533ca6e42)" d="M 58.441875 221.081201 
L 337.535451 221.081201 
" style="fill:none;stroke:#ffffff;stroke-linecap:square;stroke-width:0.8;"/>
     </g>
     <g id="line2d_26">
      <g>
       <use style="fill:#555555;stroke:#555555;stroke-width:0.8;" x="58.441875" xlink:href="#m835727052d" y="221.081201"/>
      </g>
     </g>
     <g id="text_14">
      <!-- 0.865 -->
      <g style="fill:#555555;" transform="translate(22.81375 224.880419)scale(0.1 -0.1)">
       <use xlink:href="#DejaVuSans-48"/>
       <use x="63.623047" xlink:href="#DejaVuSans-46"/>
       <use x="95.410156" xlink:href="#DejaVuSans-56"/>
       <use x="159.033203" xlink:href="#DejaVuSans-54"/>
       <use x="222.65625" xlink:href="#DejaVuSans-53"/>
      </g>
     </g>
    </g>
    <g id="ytick_4">
     <g id="line2d_27">
      <path clip-path="url(#p9533ca6e42)" d="M 58.441875 186.100294 
L 337.535451 186.100294 
" style="fill:none;stroke:#ffffff;stroke-linecap:square;stroke-width:0.8;"/>
     </g>
     <g id="line2d_28">
      <g>
       <use style="fill:#555555;stroke:#555555;stroke-width:0.8;" x="58.441875" xlink:href="#m835727052d" y="186.100294"/>
      </g>
     </g>
     <g id="text_15">
      <!-- 0.870 -->
      <g style="fill:#555555;" transform="translate(22.81375 189.899513)scale(0.1 -0.1)">
       <use xlink:href="#DejaVuSans-48"/>
       <use x="63.623047" xlink:href="#DejaVuSans-46"/>
       <use x="95.410156" xlink:href="#DejaVuSans-56"/>
       <use x="159.033203" xlink:href="#DejaVuSans-55"/>
       <use x="222.65625" xlink:href="#DejaVuSans-48"/>
      </g>
     </g>
    </g>
    <g id="ytick_5">
     <g id="line2d_29">
      <path clip-path="url(#p9533ca6e42)" d="M 58.441875 151.119388 
L 337.535451 151.119388 
" style="fill:none;stroke:#ffffff;stroke-linecap:square;stroke-width:0.8;"/>
     </g>
     <g id="line2d_30">
      <g>
       <use style="fill:#555555;stroke:#555555;stroke-width:0.8;" x="58.441875" xlink:href="#m835727052d" y="151.119388"/>
      </g>
     </g>
     <g id="text_16">
      <!-- 0.875 -->
      <g style="fill:#555555;" transform="translate(22.81375 154.918607)scale(0.1 -0.1)">
       <use xlink:href="#DejaVuSans-48"/>
       <use x="63.623047" xlink:href="#DejaVuSans-46"/>
       <use x="95.410156" xlink:href="#DejaVuSans-56"/>
       <use x="159.033203" xlink:href="#DejaVuSans-55"/>
       <use x="222.65625" xlink:href="#DejaVuSans-53"/>
      </g>
     </g>
    </g>
    <g id="ytick_6">
     <g id="line2d_31">
      <path clip-path="url(#p9533ca6e42)" d="M 58.441875 116.138482 
L 337.535451 116.138482 
" style="fill:none;stroke:#ffffff;stroke-linecap:square;stroke-width:0.8;"/>
     </g>
     <g id="line2d_32">
      <g>
       <use style="fill:#555555;stroke:#555555;stroke-width:0.8;" x="58.441875" xlink:href="#m835727052d" y="116.138482"/>
      </g>
     </g>
     <g id="text_17">
      <!-- 0.880 -->
      <g style="fill:#555555;" transform="translate(22.81375 119.9377)scale(0.1 -0.1)">
       <use xlink:href="#DejaVuSans-48"/>
       <use x="63.623047" xlink:href="#DejaVuSans-46"/>
       <use x="95.410156" xlink:href="#DejaVuSans-56"/>
       <use x="159.033203" xlink:href="#DejaVuSans-56"/>
       <use x="222.65625" xlink:href="#DejaVuSans-48"/>
      </g>
     </g>
    </g>
    <g id="ytick_7">
     <g id="line2d_33">
      <path clip-path="url(#p9533ca6e42)" d="M 58.441875 81.157575 
L 337.535451 81.157575 
" style="fill:none;stroke:#ffffff;stroke-linecap:square;stroke-width:0.8;"/>
     </g>
     <g id="line2d_34">
      <g>
       <use style="fill:#555555;stroke:#555555;stroke-width:0.8;" x="58.441875" xlink:href="#m835727052d" y="81.157575"/>
      </g>
     </g>
     <g id="text_18">
      <!-- 0.885 -->
      <g style="fill:#555555;" transform="translate(22.81375 84.956794)scale(0.1 -0.1)">
       <use xlink:href="#DejaVuSans-48"/>
       <use x="63.623047" xlink:href="#DejaVuSans-46"/>
       <use x="95.410156" xlink:href="#DejaVuSans-56"/>
       <use x="159.033203" xlink:href="#DejaVuSans-56"/>
       <use x="222.65625" xlink:href="#DejaVuSans-53"/>
      </g>
     </g>
    </g>
    <g id="ytick_8">
     <g id="line2d_35">
      <path clip-path="url(#p9533ca6e42)" d="M 58.441875 46.176669 
L 337.535451 46.176669 
" style="fill:none;stroke:#ffffff;stroke-linecap:square;stroke-width:0.8;"/>
     </g>
     <g id="line2d_36">
      <g>
       <use style="fill:#555555;stroke:#555555;stroke-width:0.8;" x="58.441875" xlink:href="#m835727052d" y="46.176669"/>
      </g>
     </g>
     <g id="text_19">
      <!-- 0.890 -->
      <g style="fill:#555555;" transform="translate(22.81375 49.975888)scale(0.1 -0.1)">
       <use xlink:href="#DejaVuSans-48"/>
       <use x="63.623047" xlink:href="#DejaVuSans-46"/>
       <use x="95.410156" xlink:href="#DejaVuSans-56"/>
       <use x="159.033203" xlink:href="#DejaVuSans-57"/>
       <use x="222.65625" xlink:href="#DejaVuSans-48"/>
      </g>
     </g>
    </g>
    <g id="ytick_9">
     <g id="line2d_37">
      <path clip-path="url(#p9533ca6e42)" d="M 58.441875 11.195763 
L 337.535451 11.195763 
" style="fill:none;stroke:#ffffff;stroke-linecap:square;stroke-width:0.8;"/>
     </g>
     <g id="line2d_38">
      <g>
       <use style="fill:#555555;stroke:#555555;stroke-width:0.8;" x="58.441875" xlink:href="#m835727052d" y="11.195763"/>
      </g>
     </g>
     <g id="text_20">
      <!-- 0.895 -->
      <g style="fill:#555555;" transform="translate(22.81375 14.994982)scale(0.1 -0.1)">
       <use xlink:href="#DejaVuSans-48"/>
       <use x="63.623047" xlink:href="#DejaVuSans-46"/>
       <use x="95.410156" xlink:href="#DejaVuSans-56"/>
       <use x="159.033203" xlink:href="#DejaVuSans-57"/>
       <use x="222.65625" xlink:href="#DejaVuSans-53"/>
      </g>
     </g>
    </g>
    <g id="text_21">
     <!-- accuracy -->
     <g style="fill:#555555;" transform="translate(16.318125 186.47125)rotate(-90)scale(0.12 -0.12)">
      <defs>
       <path d="M 34.28125 27.484375 
Q 23.390625 27.484375 19.1875 25 
Q 14.984375 22.515625 14.984375 16.5 
Q 14.984375 11.71875 18.140625 8.90625 
Q 21.296875 6.109375 26.703125 6.109375 
Q 34.1875 6.109375 38.703125 11.40625 
Q 43.21875 16.703125 43.21875 25.484375 
L 43.21875 27.484375 
z
M 52.203125 31.203125 
L 52.203125 0 
L 43.21875 0 
L 43.21875 8.296875 
Q 40.140625 3.328125 35.546875 0.953125 
Q 30.953125 -1.421875 24.3125 -1.421875 
Q 15.921875 -1.421875 10.953125 3.296875 
Q 6 8.015625 6 15.921875 
Q 6 25.140625 12.171875 29.828125 
Q 18.359375 34.515625 30.609375 34.515625 
L 43.21875 34.515625 
L 43.21875 35.40625 
Q 43.21875 41.609375 39.140625 45 
Q 35.0625 48.390625 27.6875 48.390625 
Q 23 48.390625 18.546875 47.265625 
Q 14.109375 46.140625 10.015625 43.890625 
L 10.015625 52.203125 
Q 14.9375 54.109375 19.578125 55.046875 
Q 24.21875 56 28.609375 56 
Q 40.484375 56 46.34375 49.84375 
Q 52.203125 43.703125 52.203125 31.203125 
z
" id="DejaVuSans-97"/>
       <path d="M 8.5 21.578125 
L 8.5 54.6875 
L 17.484375 54.6875 
L 17.484375 21.921875 
Q 17.484375 14.15625 20.5 10.265625 
Q 23.53125 6.390625 29.59375 6.390625 
Q 36.859375 6.390625 41.078125 11.03125 
Q 45.3125 15.671875 45.3125 23.6875 
L 45.3125 54.6875 
L 54.296875 54.6875 
L 54.296875 0 
L 45.3125 0 
L 45.3125 8.40625 
Q 42.046875 3.421875 37.71875 1 
Q 33.40625 -1.421875 27.6875 -1.421875 
Q 18.265625 -1.421875 13.375 4.4375 
Q 8.5 10.296875 8.5 21.578125 
z
M 31.109375 56 
z
" id="DejaVuSans-117"/>
       <path d="M 41.109375 46.296875 
Q 39.59375 47.171875 37.8125 47.578125 
Q 36.03125 48 33.890625 48 
Q 26.265625 48 22.1875 43.046875 
Q 18.109375 38.09375 18.109375 28.8125 
L 18.109375 0 
L 9.078125 0 
L 9.078125 54.6875 
L 18.109375 54.6875 
L 18.109375 46.1875 
Q 20.953125 51.171875 25.484375 53.578125 
Q 30.03125 56 36.53125 56 
Q 37.453125 56 38.578125 55.875 
Q 39.703125 55.765625 41.0625 55.515625 
z
" id="DejaVuSans-114"/>
       <path d="M 32.171875 -5.078125 
Q 28.375 -14.84375 24.75 -17.8125 
Q 21.140625 -20.796875 15.09375 -20.796875 
L 7.90625 -20.796875 
L 7.90625 -13.28125 
L 13.1875 -13.28125 
Q 16.890625 -13.28125 18.9375 -11.515625 
Q 21 -9.765625 23.484375 -3.21875 
L 25.09375 0.875 
L 2.984375 54.6875 
L 12.5 54.6875 
L 29.59375 11.921875 
L 46.6875 54.6875 
L 56.203125 54.6875 
z
" id="DejaVuSans-121"/>
      </defs>
      <use xlink:href="#DejaVuSans-97"/>
      <use x="61.279297" xlink:href="#DejaVuSans-99"/>
      <use x="116.259766" xlink:href="#DejaVuSans-99"/>
      <use x="171.240234" xlink:href="#DejaVuSans-117"/>
      <use x="234.619141" xlink:href="#DejaVuSans-114"/>
      <use x="275.732422" xlink:href="#DejaVuSans-97"/>
      <use x="337.011719" xlink:href="#DejaVuSans-99"/>
      <use x="391.992188" xlink:href="#DejaVuSans-121"/>
     </g>
    </g>
   </g>
   <g id="PathCollection_1">
    <defs>
     <path d="M 0 3 
C 0.795609 3 1.55874 2.683901 2.12132 2.12132 
C 2.683901 1.55874 3 0.795609 3 0 
C 3 -0.795609 2.683901 -1.55874 2.12132 -2.12132 
C 1.55874 -2.683901 0.795609 -3 0 -3 
C -0.795609 -3 -1.55874 -2.683901 -2.12132 -2.12132 
C -2.683901 -1.55874 -3 -0.795609 -3 0 
C -3 0.795609 -2.683901 1.55874 -2.12132 2.12132 
C -1.55874 2.683901 -0.795609 3 0 3 
z
" id="m9146335dc9" style="stroke:#e24a33;stroke-opacity:0.8;"/>
    </defs>
    <g clip-path="url(#p9533ca6e42)">
     <use style="fill:#e24a33;fill-opacity:0.8;stroke:#e24a33;stroke-opacity:0.8;" x="58.441875" xlink:href="#m9146335dc9" y="277.050697"/>
     <use style="fill:#e24a33;fill-opacity:0.8;stroke:#e24a33;stroke-opacity:0.8;" x="89.452272" xlink:href="#m9146335dc9" y="221.081134"/>
     <use style="fill:#e24a33;fill-opacity:0.8;stroke:#e24a33;stroke-opacity:0.8;" x="120.46267" xlink:href="#m9146335dc9" y="182.602007"/>
     <use style="fill:#e24a33;fill-opacity:0.8;stroke:#e24a33;stroke-opacity:0.8;" x="151.473067" xlink:href="#m9146335dc9" y="228.077225"/>
     <use style="fill:#e24a33;fill-opacity:0.8;stroke:#e24a33;stroke-opacity:0.8;" x="182.483465" xlink:href="#m9146335dc9" y="224.579388"/>
     <use style="fill:#e24a33;fill-opacity:0.8;stroke:#e24a33;stroke-opacity:0.8;" x="213.493862" xlink:href="#m9146335dc9" y="168.609824"/>
     <use style="fill:#e24a33;fill-opacity:0.8;stroke:#e24a33;stroke-opacity:0.8;" x="244.504259" xlink:href="#m9146335dc9" y="172.108079"/>
     <use style="fill:#e24a33;fill-opacity:0.8;stroke:#e24a33;stroke-opacity:0.8;" x="275.514657" xlink:href="#m9146335dc9" y="147.621134"/>
     <use style="fill:#e24a33;fill-opacity:0.8;stroke:#e24a33;stroke-opacity:0.8;" x="306.525054" xlink:href="#m9146335dc9" y="193.096352"/>
     <use style="fill:#e24a33;fill-opacity:0.8;stroke:#e24a33;stroke-opacity:0.8;" x="337.535451" xlink:href="#m9146335dc9" y="147.621134"/>
    </g>
   </g>
   <g id="PolyCollection_1">
    <path clip-path="url(#p9533ca6e42)" d="M 58.441875 204.772664 
L 58.441875 274.145194 
L 61.261002 272.882224 
L 64.080129 271.619254 
L 66.899256 270.324903 
L 69.718383 268.904992 
L 72.53751 267.470836 
L 75.356637 266.192816 
L 78.175764 264.876464 
L 80.994891 263.610899 
L 83.814018 262.29635 
L 86.633145 261.094745 
L 89.452272 259.724823 
L 92.271399 258.44798 
L 95.090526 257.089634 
L 97.909653 255.761415 
L 100.728781 254.557749 
L 103.547908 253.285001 
L 106.367035 251.823774 
L 109.186162 250.422233 
L 112.005289 249.161476 
L 114.824416 247.898564 
L 117.643543 246.450044 
L 120.46267 244.836574 
L 123.281797 243.600322 
L 126.100924 242.421841 
L 128.920051 241.298994 
L 131.739178 240.149829 
L 134.558305 239.015126 
L 137.377432 237.824083 
L 140.196559 236.650198 
L 143.015686 235.519656 
L 145.834813 234.364108 
L 148.65394 233.183124 
L 151.473067 232.050474 
L 154.292194 230.834898 
L 157.111321 229.720659 
L 159.930448 228.507793 
L 162.749575 227.243846 
L 165.568702 225.916131 
L 168.387829 224.647863 
L 171.206956 223.634722 
L 174.026083 222.601491 
L 176.84521 221.35684 
L 179.664337 220.164859 
L 182.483465 218.99999 
L 185.302592 218.04283 
L 188.121719 217.018407 
L 190.940846 215.90067 
L 193.759973 214.780314 
L 196.5791 213.656001 
L 199.398227 212.57214 
L 202.217354 211.780359 
L 205.036481 210.646746 
L 207.855608 209.510741 
L 210.674735 208.432302 
L 213.493862 207.495642 
L 216.312989 206.400997 
L 219.132116 205.254741 
L 221.951243 204.343526 
L 224.77037 203.502033 
L 227.589497 202.658105 
L 230.408624 201.578584 
L 233.227751 200.727908 
L 236.046878 200.003769 
L 238.866005 199.062168 
L 241.685132 198.114586 
L 244.504259 197.187097 
L 247.323386 196.433257 
L 250.142513 195.507666 
L 252.96164 194.801218 
L 255.780767 193.824613 
L 258.599894 192.839605 
L 261.419021 191.913922 
L 264.238148 191.276131 
L 267.057276 190.518659 
L 269.876403 189.831924 
L 272.69553 189.188727 
L 275.514657 188.45717 
L 278.333784 187.771717 
L 281.152911 187.084981 
L 283.972038 186.505085 
L 286.791165 185.801226 
L 289.610292 185.024775 
L 292.429419 184.338039 
L 295.248546 183.745636 
L 298.067673 183.178285 
L 300.8868 182.605045 
L 303.705927 182.035941 
L 306.525054 181.470314 
L 309.344181 180.96253 
L 312.163308 180.476417 
L 314.982435 179.932685 
L 317.801562 179.771031 
L 320.620689 179.366217 
L 323.439816 178.629519 
L 326.258943 177.891533 
L 329.07807 177.409601 
L 331.897197 176.968621 
L 334.716324 176.536269 
L 337.535451 176.145387 
L 337.535451 113.086355 
L 337.535451 113.086355 
L 334.716324 114.591801 
L 331.897197 116.097247 
L 329.07807 117.656158 
L 326.258943 119.354997 
L 323.439816 121.070453 
L 320.620689 122.785909 
L 317.801562 124.501365 
L 314.982435 126.216821 
L 312.163308 127.78756 
L 309.344181 129.3158 
L 306.525054 130.84683 
L 303.705927 132.379263 
L 300.8868 133.906558 
L 298.067673 135.435064 
L 295.248546 136.88916 
L 292.429419 138.300668 
L 289.610292 139.785913 
L 286.791165 141.225316 
L 283.972038 142.78903 
L 281.152911 144.195079 
L 278.333784 145.541043 
L 275.514657 146.971227 
L 272.69553 148.405821 
L 269.876403 149.641533 
L 267.057276 150.965992 
L 264.238148 152.547586 
L 261.419021 153.765815 
L 258.599894 155.336904 
L 255.780767 156.928241 
L 252.96164 158.201146 
L 250.142513 159.587226 
L 247.323386 160.621947 
L 244.504259 161.734768 
L 241.685132 163.006352 
L 238.866005 164.180516 
L 236.046878 165.440941 
L 233.227751 166.74844 
L 230.408624 167.886504 
L 227.589497 168.882199 
L 224.77037 169.911571 
L 221.951243 170.928136 
L 219.132116 171.80864 
L 216.312989 172.726908 
L 213.493862 173.528664 
L 210.674735 174.539922 
L 207.855608 175.63024 
L 205.036481 176.492361 
L 202.217354 177.283324 
L 199.398227 178.140552 
L 196.5791 179.078387 
L 193.759973 179.674592 
L 190.940846 180.296818 
L 188.121719 180.900761 
L 185.302592 181.606921 
L 182.483465 182.205231 
L 179.664337 182.863497 
L 176.84521 183.486065 
L 174.026083 183.824028 
L 171.206956 184.38656 
L 168.387829 185.009026 
L 165.568702 185.602847 
L 162.749575 186.18983 
L 159.930448 186.776814 
L 157.111321 187.22127 
L 154.292194 187.612286 
L 151.473067 188.003302 
L 148.65394 188.394318 
L 145.834813 188.781459 
L 143.015686 189.410126 
L 140.196559 190.088689 
L 137.377432 190.772279 
L 134.558305 191.455868 
L 131.739178 192.139458 
L 128.920051 192.823048 
L 126.100924 193.506637 
L 123.281797 194.086104 
L 120.46267 194.608636 
L 117.643543 195.109616 
L 114.824416 195.656429 
L 112.005289 196.326875 
L 109.186162 196.974093 
L 106.367035 197.46342 
L 103.547908 198.088596 
L 100.728781 198.611242 
L 97.909653 198.793876 
L 95.090526 199.285038 
L 92.271399 199.845514 
L 89.452272 200.402705 
L 86.633145 200.834617 
L 83.814018 201.264929 
L 80.994891 201.658663 
L 78.175764 202.052397 
L 75.356637 202.446131 
L 72.53751 202.839865 
L 69.718383 203.233129 
L 66.899256 203.623308 
L 64.080129 204.013487 
L 61.261002 204.395857 
L 58.441875 204.772664 
z
" style="fill:#e24a33;fill-opacity:0.15;"/>
   </g>
   <g id="PathCollection_2">
    <defs>
     <path d="M 0 3 
C 0.795609 3 1.55874 2.683901 2.12132 2.12132 
C 2.683901 1.55874 3 0.795609 3 0 
C 3 -0.795609 2.683901 -1.55874 2.12132 -2.12132 
C 1.55874 -2.683901 0.795609 -3 0 -3 
C -0.795609 -3 -1.55874 -2.683901 -2.12132 -2.12132 
C -2.683901 -1.55874 -3 -0.795609 -3 0 
C -3 0.795609 -2.683901 1.55874 -2.12132 2.12132 
C -1.55874 2.683901 -0.795609 3 0 3 
z
" id="mb47d914599" style="stroke:#348abd;stroke-opacity:0.8;"/>
    </defs>
    <g clip-path="url(#p9533ca6e42)">
     <use style="fill:#348abd;fill-opacity:0.8;stroke:#348abd;stroke-opacity:0.8;" x="58.441875" xlink:href="#mb47d914599" y="112.640261"/>
     <use style="fill:#348abd;fill-opacity:0.8;stroke:#348abd;stroke-opacity:0.8;" x="89.452272" xlink:href="#mb47d914599" y="186.100261"/>
     <use style="fill:#348abd;fill-opacity:0.8;stroke:#348abd;stroke-opacity:0.8;" x="120.46267" xlink:href="#mb47d914599" y="112.640261"/>
     <use style="fill:#348abd;fill-opacity:0.8;stroke:#348abd;stroke-opacity:0.8;" x="151.473067" xlink:href="#mb47d914599" y="189.598515"/>
     <use style="fill:#348abd;fill-opacity:0.8;stroke:#348abd;stroke-opacity:0.8;" x="182.483465" xlink:href="#mb47d914599" y="81.157642"/>
     <use style="fill:#348abd;fill-opacity:0.8;stroke:#348abd;stroke-opacity:0.8;" x="213.493862" xlink:href="#mb47d914599" y="49.674606"/>
     <use style="fill:#348abd;fill-opacity:0.8;stroke:#348abd;stroke-opacity:0.8;" x="244.504259" xlink:href="#mb47d914599" y="60.168952"/>
     <use style="fill:#348abd;fill-opacity:0.8;stroke:#348abd;stroke-opacity:0.8;" x="275.514657" xlink:href="#mb47d914599" y="88.153733"/>
     <use style="fill:#348abd;fill-opacity:0.8;stroke:#348abd;stroke-opacity:0.8;" x="306.525054" xlink:href="#mb47d914599" y="102.145916"/>
     <use style="fill:#348abd;fill-opacity:0.8;stroke:#348abd;stroke-opacity:0.8;" x="337.535451" xlink:href="#mb47d914599" y="74.161551"/>
    </g>
   </g>
   <g id="PolyCollection_2">
    <path clip-path="url(#p9533ca6e42)" d="M 58.441875 96.342777 
L 58.441875 198.655651 
L 61.261002 197.288597 
L 64.080129 195.917406 
L 66.899256 194.546215 
L 69.718383 193.175024 
L 72.53751 191.30807 
L 75.356637 189.724226 
L 78.175764 188.302839 
L 80.994891 186.891121 
L 83.814018 185.479403 
L 86.633145 184.067684 
L 89.452272 182.655966 
L 92.271399 181.244248 
L 95.090526 179.83253 
L 97.909653 178.440194 
L 100.728781 177.118322 
L 103.547908 175.562165 
L 106.367035 174.149045 
L 109.186162 172.390934 
L 112.005289 170.632747 
L 114.824416 169.39668 
L 117.643543 167.875947 
L 120.46267 165.683108 
L 123.281797 163.769953 
L 126.100924 162.248758 
L 128.920051 160.699839 
L 131.739178 159.442739 
L 134.558305 158.163073 
L 137.377432 156.907786 
L 140.196559 155.785259 
L 143.015686 154.397642 
L 145.834813 152.942695 
L 148.65394 151.230984 
L 151.473067 149.704618 
L 154.292194 148.422473 
L 157.111321 146.483607 
L 159.930448 145.377806 
L 162.749575 144.547924 
L 165.568702 143.751725 
L 168.387829 142.56083 
L 171.206956 141.364089 
L 174.026083 139.897732 
L 176.84521 138.737163 
L 179.664337 137.343419 
L 182.483465 136.305128 
L 185.302592 134.550142 
L 188.121719 133.454316 
L 190.940846 132.963623 
L 193.759973 131.746545 
L 196.5791 130.591472 
L 199.398227 129.701941 
L 202.217354 128.537085 
L 205.036481 127.079201 
L 207.855608 125.888306 
L 210.674735 124.904399 
L 213.493862 124.053282 
L 216.312989 123.0861 
L 219.132116 122.1832 
L 221.951243 121.039078 
L 224.77037 119.980405 
L 227.589497 118.715151 
L 230.408624 117.598341 
L 233.227751 116.816875 
L 236.046878 115.770225 
L 238.866005 114.845608 
L 241.685132 113.833986 
L 244.504259 113.011992 
L 247.323386 112.099156 
L 250.142513 111.184736 
L 252.96164 110.276174 
L 255.780767 109.354449 
L 258.599894 108.388905 
L 261.419021 107.277421 
L 264.238148 106.407959 
L 267.057276 105.31482 
L 269.876403 104.473399 
L 272.69553 103.811907 
L 275.514657 102.935531 
L 278.333784 102.025975 
L 281.152911 101.116419 
L 283.972038 100.362986 
L 286.791165 100.038296 
L 289.610292 99.445558 
L 292.429419 98.437409 
L 295.248546 98.068052 
L 298.067673 97.433343 
L 300.8868 96.5492 
L 303.705927 95.762995 
L 306.525054 95.075223 
L 309.344181 94.482946 
L 312.163308 93.922358 
L 314.982435 93.347684 
L 317.801562 92.761509 
L 320.620689 92.174882 
L 323.439816 91.736415 
L 326.258943 91.023892 
L 329.07807 90.442944 
L 331.897197 89.866011 
L 334.716324 89.847288 
L 337.535451 89.226013 
L 337.535451 21.036364 
L 337.535451 21.036364 
L 334.716324 22.392828 
L 331.897197 23.749292 
L 329.07807 25.105756 
L 326.258943 26.46222 
L 323.439816 27.818684 
L 320.620689 29.175148 
L 317.801562 30.531612 
L 314.982435 31.938313 
L 312.163308 33.58135 
L 309.344181 34.949699 
L 306.525054 36.46143 
L 303.705927 37.970053 
L 300.8868 39.467954 
L 298.067673 40.97247 
L 295.248546 42.478163 
L 292.429419 43.983856 
L 289.610292 45.341157 
L 286.791165 46.495907 
L 283.972038 47.709941 
L 281.152911 49.038629 
L 278.333784 50.234837 
L 275.514657 51.471019 
L 272.69553 52.865668 
L 269.876403 54.263771 
L 267.057276 55.661874 
L 264.238148 57.059978 
L 261.419021 58.316691 
L 258.599894 59.602185 
L 255.780767 60.834109 
L 252.96164 62.152455 
L 250.142513 63.786447 
L 247.323386 64.55535 
L 244.504259 65.768971 
L 241.685132 65.906285 
L 238.866005 66.942028 
L 236.046878 67.961507 
L 233.227751 68.487603 
L 230.408624 68.998712 
L 227.589497 69.524992 
L 224.77037 70.749677 
L 221.951243 72.143272 
L 219.132116 72.700675 
L 216.312989 73.603691 
L 213.493862 74.844079 
L 210.674735 75.506129 
L 207.855608 76.458592 
L 205.036481 77.638084 
L 202.217354 78.347091 
L 199.398227 79.298802 
L 196.5791 80.282962 
L 193.759973 81.089485 
L 190.940846 81.610907 
L 188.121719 82.392316 
L 185.302592 82.861883 
L 182.483465 83.260791 
L 179.664337 83.62272 
L 176.84521 83.86444 
L 174.026083 84.184677 
L 171.206956 84.564954 
L 168.387829 84.914219 
L 165.568702 85.392221 
L 162.749575 86.4073 
L 159.930448 86.651358 
L 157.111321 87.00913 
L 154.292194 87.459022 
L 151.473067 87.689528 
L 148.65394 87.852264 
L 145.834813 88.014999 
L 143.015686 88.287147 
L 140.196559 88.61539 
L 137.377432 88.824581 
L 134.558305 89.375298 
L 131.739178 89.807157 
L 128.920051 89.929456 
L 126.100924 90.185218 
L 123.281797 90.530639 
L 120.46267 90.876061 
L 117.643543 91.143027 
L 114.824416 91.236986 
L 112.005289 91.332953 
L 109.186162 91.429967 
L 106.367035 91.533475 
L 103.547908 91.94963 
L 100.728781 92.459598 
L 97.909653 92.971812 
L 95.090526 93.315338 
L 92.271399 93.897362 
L 89.452272 94.129674 
L 86.633145 94.328426 
L 83.814018 94.527178 
L 80.994891 94.725929 
L 78.175764 94.924681 
L 75.356637 95.123432 
L 72.53751 95.322184 
L 69.718383 95.521823 
L 66.899256 95.727062 
L 64.080129 95.9323 
L 61.261002 96.137539 
L 58.441875 96.342777 
z
" style="fill:#348abd;fill-opacity:0.15;"/>
   </g>
   <g id="PathCollection_3">
    <defs>
     <path d="M 0 3 
C 0.795609 3 1.55874 2.683901 2.12132 2.12132 
C 2.683901 1.55874 3 0.795609 3 0 
C 3 -0.795609 2.683901 -1.55874 2.12132 -2.12132 
C 1.55874 -2.683901 0.795609 -3 0 -3 
C -0.795609 -3 -1.55874 -2.683901 -2.12132 -2.12132 
C -2.683901 -1.55874 -3 -0.795609 -3 0 
C -3 0.795609 -2.683901 1.55874 -2.12132 2.12132 
C -1.55874 2.683901 -0.795609 3 0 3 
z
" id="med3aa82cbe" style="stroke:#988ed5;stroke-opacity:0.8;"/>
    </defs>
    <g clip-path="url(#p9533ca6e42)">
     <use style="fill:#988ed5;fill-opacity:0.8;stroke:#988ed5;stroke-opacity:0.8;" x="58.441875" xlink:href="#med3aa82cbe" y="91.651987"/>
     <use style="fill:#988ed5;fill-opacity:0.8;stroke:#988ed5;stroke-opacity:0.8;" x="89.452272" xlink:href="#med3aa82cbe" y="186.100261"/>
     <use style="fill:#988ed5;fill-opacity:0.8;stroke:#988ed5;stroke-opacity:0.8;" x="120.46267" xlink:href="#med3aa82cbe" y="147.621134"/>
     <use style="fill:#988ed5;fill-opacity:0.8;stroke:#988ed5;stroke-opacity:0.8;" x="151.473067" xlink:href="#med3aa82cbe" y="88.153733"/>
     <use style="fill:#988ed5;fill-opacity:0.8;stroke:#988ed5;stroke-opacity:0.8;" x="182.483465" xlink:href="#med3aa82cbe" y="158.115479"/>
     <use style="fill:#988ed5;fill-opacity:0.8;stroke:#988ed5;stroke-opacity:0.8;" x="213.493862" xlink:href="#med3aa82cbe" y="102.145916"/>
     <use style="fill:#988ed5;fill-opacity:0.8;stroke:#988ed5;stroke-opacity:0.8;" x="244.504259" xlink:href="#med3aa82cbe" y="151.119388"/>
     <use style="fill:#988ed5;fill-opacity:0.8;stroke:#988ed5;stroke-opacity:0.8;" x="275.514657" xlink:href="#med3aa82cbe" y="84.655479"/>
     <use style="fill:#988ed5;fill-opacity:0.8;stroke:#988ed5;stroke-opacity:0.8;" x="306.525054" xlink:href="#med3aa82cbe" y="98.648079"/>
     <use style="fill:#988ed5;fill-opacity:0.8;stroke:#988ed5;stroke-opacity:0.8;" x="337.535451" xlink:href="#med3aa82cbe" y="179.10417"/>
    </g>
   </g>
   <g id="PolyCollection_3">
    <path clip-path="url(#p9533ca6e42)" d="M 58.441875 83.118125 
L 58.441875 186.925962 
L 61.261002 185.771802 
L 64.080129 184.617642 
L 66.899256 183.463481 
L 69.718383 182.309015 
L 72.53751 181.153986 
L 75.356637 179.998956 
L 78.175764 178.96007 
L 80.994891 177.793401 
L 83.814018 176.631171 
L 86.633145 175.681999 
L 89.452272 174.554218 
L 92.271399 173.229845 
L 95.090526 172.099626 
L 97.909653 171.1458 
L 100.728781 170.144333 
L 103.547908 169.260023 
L 106.367035 168.41685 
L 109.186162 167.840083 
L 112.005289 166.850458 
L 114.824416 165.860832 
L 117.643543 164.861773 
L 120.46267 164.056044 
L 123.281797 163.325082 
L 126.100924 162.995427 
L 128.920051 162.096798 
L 131.739178 161.207044 
L 134.558305 160.409252 
L 137.377432 160.024141 
L 140.196559 159.548889 
L 143.015686 158.998604 
L 145.834813 158.167162 
L 148.65394 157.462971 
L 151.473067 156.617021 
L 154.292194 155.910087 
L 157.111321 155.799976 
L 159.930448 155.608402 
L 162.749575 154.768608 
L 165.568702 154.354657 
L 168.387829 153.45882 
L 171.206956 153.577724 
L 174.026083 153.269747 
L 176.84521 152.914732 
L 179.664337 152.809845 
L 182.483465 152.696689 
L 185.302592 151.882969 
L 188.121719 151.612718 
L 190.940846 151.719391 
L 193.759973 151.624737 
L 196.5791 151.595127 
L 199.398227 151.487521 
L 202.217354 151.36551 
L 205.036481 151.462319 
L 207.855608 151.423081 
L 210.674735 151.672395 
L 213.493862 151.768291 
L 216.312989 152.227813 
L 219.132116 152.444041 
L 221.951243 152.323566 
L 224.77037 152.757841 
L 227.589497 152.999928 
L 230.408624 153.085864 
L 233.227751 153.146462 
L 236.046878 153.583065 
L 238.866005 154.305115 
L 241.685132 154.817482 
L 244.504259 154.876541 
L 247.323386 155.117055 
L 250.142513 155.40531 
L 252.96164 155.920257 
L 255.780767 156.435204 
L 258.599894 156.950151 
L 261.419021 157.465098 
L 264.238148 157.912809 
L 267.057276 158.493585 
L 269.876403 159.019875 
L 272.69553 159.535015 
L 275.514657 159.649796 
L 278.333784 159.908828 
L 281.152911 160.130144 
L 283.972038 160.395652 
L 286.791165 161.293423 
L 289.610292 161.825047 
L 292.429419 162.270763 
L 295.248546 162.816304 
L 298.067673 163.479973 
L 300.8868 163.566694 
L 303.705927 164.277627 
L 306.525054 165.042816 
L 309.344181 165.903022 
L 312.163308 166.759339 
L 314.982435 167.293467 
L 317.801562 167.908597 
L 320.620689 168.334114 
L 323.439816 168.920045 
L 326.258943 169.656173 
L 329.07807 170.27521 
L 331.897197 170.846483 
L 334.716324 171.591099 
L 337.535451 172.343701 
L 337.535451 70.262598 
L 337.535451 70.262598 
L 334.716324 71.215398 
L 331.897197 72.177023 
L 329.07807 73.142826 
L 326.258943 74.102027 
L 323.439816 75.061229 
L 320.620689 76.02043 
L 317.801562 76.979632 
L 314.982435 77.938833 
L 312.163308 78.898035 
L 309.344181 79.859603 
L 306.525054 80.831005 
L 303.705927 81.607636 
L 300.8868 82.575702 
L 298.067673 83.2425 
L 295.248546 84.308693 
L 292.429419 85.614694 
L 289.610292 86.049801 
L 286.791165 86.728668 
L 283.972038 87.697926 
L 281.152911 88.665234 
L 278.333784 89.413153 
L 275.514657 90.255264 
L 272.69553 90.941692 
L 269.876403 91.838741 
L 267.057276 92.724293 
L 264.238148 93.620294 
L 261.419021 94.119811 
L 258.599894 94.698602 
L 255.780767 95.397885 
L 252.96164 95.929401 
L 250.142513 96.021422 
L 247.323386 96.382036 
L 244.504259 97.14094 
L 241.685132 97.999333 
L 238.866005 98.830341 
L 236.046878 99.314915 
L 233.227751 99.584285 
L 230.408624 99.90469 
L 227.589497 100.138766 
L 224.77037 100.568722 
L 221.951243 100.96035 
L 219.132116 101.186458 
L 216.312989 101.407431 
L 213.493862 101.730611 
L 210.674735 101.841802 
L 207.855608 102.231736 
L 205.036481 102.440974 
L 202.217354 102.550655 
L 199.398227 103.018422 
L 196.5791 103.019997 
L 193.759973 103.147606 
L 190.940846 103.363945 
L 188.121719 103.243024 
L 185.302592 103.222222 
L 182.483465 103.340576 
L 179.664337 103.154265 
L 176.84521 102.899671 
L 174.026083 102.372517 
L 171.206956 102.070353 
L 168.387829 101.552803 
L 165.568702 101.558224 
L 162.749575 101.494236 
L 159.930448 100.909945 
L 157.111321 100.555843 
L 154.292194 100.096559 
L 151.473067 99.582427 
L 148.65394 99.07338 
L 145.834813 98.769266 
L 143.015686 98.128244 
L 140.196559 97.716891 
L 137.377432 97.029827 
L 134.558305 96.866611 
L 131.739178 96.464822 
L 128.920051 96.253134 
L 126.100924 95.760039 
L 123.281797 95.271744 
L 120.46267 94.768944 
L 117.643543 94.262337 
L 114.824416 93.759403 
L 112.005289 93.265217 
L 109.186162 92.771032 
L 106.367035 92.276846 
L 103.547908 91.596956 
L 100.728781 91.288475 
L 97.909653 90.889042 
L 95.090526 90.485954 
L 92.271399 89.884558 
L 89.452272 89.297508 
L 86.633145 88.796886 
L 83.814018 88.296264 
L 80.994891 87.795642 
L 78.175764 87.28836 
L 75.356637 86.664348 
L 72.53751 86.040336 
L 69.718383 85.422319 
L 66.899256 84.954219 
L 64.080129 84.610893 
L 61.261002 83.950163 
L 58.441875 83.118125 
z
" style="fill:#988ed5;fill-opacity:0.15;"/>
   </g>
   <g id="PathCollection_4">
    <defs>
     <path d="M 0 3 
C 0.795609 3 1.55874 2.683901 2.12132 2.12132 
C 2.683901 1.55874 3 0.795609 3 0 
C 3 -0.795609 2.683901 -1.55874 2.12132 -2.12132 
C 1.55874 -2.683901 0.795609 -3 0 -3 
C -0.795609 -3 -1.55874 -2.683901 -2.12132 -2.12132 
C -2.683901 -1.55874 -3 -0.795609 -3 0 
C -3 0.795609 -2.683901 1.55874 -2.12132 2.12132 
C -1.55874 2.683901 -0.795609 3 0 3 
z
" id="m0d6c0ed55a" style="stroke:#777777;stroke-opacity:0.8;"/>
    </defs>
    <g clip-path="url(#p9533ca6e42)">
     <use style="fill:#777777;fill-opacity:0.8;stroke:#777777;stroke-opacity:0.8;" x="58.441875" xlink:href="#m0d6c0ed55a" y="273.552443"/>
     <use style="fill:#777777;fill-opacity:0.8;stroke:#777777;stroke-opacity:0.8;" x="89.452272" xlink:href="#m0d6c0ed55a" y="214.085043"/>
     <use style="fill:#777777;fill-opacity:0.8;stroke:#777777;stroke-opacity:0.8;" x="120.46267" xlink:href="#m0d6c0ed55a" y="266.556352"/>
     <use style="fill:#777777;fill-opacity:0.8;stroke:#777777;stroke-opacity:0.8;" x="151.473067" xlink:href="#m0d6c0ed55a" y="287.545043"/>
     <use style="fill:#777777;fill-opacity:0.8;stroke:#777777;stroke-opacity:0.8;" x="182.483465" xlink:href="#m0d6c0ed55a" y="235.073733"/>
     <use style="fill:#777777;fill-opacity:0.8;stroke:#777777;stroke-opacity:0.8;" x="213.493862" xlink:href="#m0d6c0ed55a" y="224.579388"/>
     <use style="fill:#777777;fill-opacity:0.8;stroke:#777777;stroke-opacity:0.8;" x="244.504259" xlink:href="#m0d6c0ed55a" y="235.073733"/>
     <use style="fill:#777777;fill-opacity:0.8;stroke:#777777;stroke-opacity:0.8;" x="275.514657" xlink:href="#m0d6c0ed55a" y="231.575479"/>
     <use style="fill:#777777;fill-opacity:0.8;stroke:#777777;stroke-opacity:0.8;" x="306.525054" xlink:href="#m0d6c0ed55a" y="214.085043"/>
     <use style="fill:#777777;fill-opacity:0.8;stroke:#777777;stroke-opacity:0.8;" x="337.535451" xlink:href="#m0d6c0ed55a" y="214.085043"/>
    </g>
   </g>
   <g id="PolyCollection_4">
    <path clip-path="url(#p9533ca6e42)" d="M 58.441875 229.952958 
L 58.441875 297.763636 
L 61.261002 296.831731 
L 64.080129 295.899826 
L 66.899256 294.966305 
L 69.718383 294.036395 
L 72.53751 293.106498 
L 75.356637 292.1766 
L 78.175764 291.246703 
L 80.994891 290.316806 
L 83.814018 289.386909 
L 86.633145 288.457012 
L 89.452272 287.52591 
L 92.271399 286.593985 
L 95.090526 285.687601 
L 97.909653 284.798597 
L 100.728781 283.909592 
L 103.547908 283.062765 
L 106.367035 282.278554 
L 109.186162 281.398717 
L 112.005289 280.458465 
L 114.824416 279.517253 
L 117.643543 278.576531 
L 120.46267 277.641046 
L 123.281797 276.779599 
L 126.100924 275.913926 
L 128.920051 275.000509 
L 131.739178 274.078568 
L 134.558305 273.224939 
L 137.377432 272.361813 
L 140.196559 271.474786 
L 143.015686 270.58776 
L 145.834813 269.700733 
L 148.65394 268.813707 
L 151.473067 267.92668 
L 154.292194 267.039653 
L 157.111321 266.152627 
L 159.930448 265.2656 
L 162.749575 264.378574 
L 165.568702 263.593926 
L 168.387829 262.891957 
L 171.206956 262.035126 
L 174.026083 261.334022 
L 176.84521 260.511957 
L 179.664337 259.616472 
L 182.483465 258.720986 
L 185.302592 257.8255 
L 188.121719 256.930014 
L 190.940846 256.18445 
L 193.759973 255.348071 
L 196.5791 254.288621 
L 199.398227 253.417222 
L 202.217354 252.555279 
L 205.036481 251.692368 
L 207.855608 250.82447 
L 210.674735 250.049542 
L 213.493862 249.112222 
L 216.312989 248.223763 
L 219.132116 247.35101 
L 221.951243 246.421912 
L 224.77037 245.646437 
L 227.589497 244.810064 
L 230.408624 243.944607 
L 233.227751 243.013799 
L 236.046878 242.437431 
L 238.866005 241.608994 
L 241.685132 240.909157 
L 244.504259 240.49707 
L 247.323386 239.748369 
L 250.142513 239.210202 
L 252.96164 238.799588 
L 255.780767 238.10929 
L 258.599894 237.56464 
L 261.419021 237.180173 
L 264.238148 236.916598 
L 267.057276 236.812196 
L 269.876403 236.273161 
L 272.69553 235.971077 
L 275.514657 235.657439 
L 278.333784 235.280597 
L 281.152911 234.929874 
L 283.972038 234.747618 
L 286.791165 234.318864 
L 289.610292 234.120794 
L 292.429419 233.921536 
L 295.248546 233.668334 
L 298.067673 233.484634 
L 300.8868 233.331845 
L 303.705927 233.217464 
L 306.525054 233.101186 
L 309.344181 232.98775 
L 312.163308 232.873629 
L 314.982435 232.791963 
L 317.801562 232.697876 
L 320.620689 232.593223 
L 323.439816 232.416793 
L 326.258943 232.302412 
L 329.07807 232.053939 
L 331.897197 232.071997 
L 334.716324 231.959267 
L 337.535451 231.844886 
L 337.535451 204.020071 
L 337.535451 204.020071 
L 334.716324 204.62515 
L 331.897197 205.312805 
L 329.07807 206.13981 
L 326.258943 206.782837 
L 323.439816 207.576369 
L 320.620689 208.279567 
L 317.801562 208.958406 
L 314.982435 209.671416 
L 312.163308 210.403531 
L 309.344181 211.126108 
L 306.525054 211.984098 
L 303.705927 212.815499 
L 300.8868 213.464161 
L 298.067673 214.272834 
L 295.248546 215.017765 
L 292.429419 215.521848 
L 289.610292 216.095211 
L 286.791165 216.733764 
L 283.972038 217.264466 
L 281.152911 217.979871 
L 278.333784 218.625861 
L 275.514657 219.311501 
L 272.69553 219.980809 
L 269.876403 220.421642 
L 267.057276 220.721912 
L 264.238148 221.24377 
L 261.419021 221.599329 
L 258.599894 222.058245 
L 255.780767 222.397661 
L 252.96164 222.611538 
L 250.142513 223.037604 
L 247.323386 223.380314 
L 244.504259 223.651193 
L 241.685132 223.98575 
L 238.866005 224.20876 
L 236.046878 224.357686 
L 233.227751 224.507092 
L 230.408624 224.827725 
L 227.589497 224.999446 
L 224.77037 225.310286 
L 221.951243 225.406262 
L 219.132116 225.604592 
L 216.312989 225.892599 
L 213.493862 226.193528 
L 210.674735 226.468613 
L 207.855608 226.679939 
L 205.036481 226.699882 
L 202.217354 226.924361 
L 199.398227 227.068164 
L 196.5791 227.235273 
L 193.759973 227.338557 
L 190.940846 227.40837 
L 188.121719 227.446647 
L 185.302592 227.500196 
L 182.483465 227.555936 
L 179.664337 227.611675 
L 176.84521 227.705483 
L 174.026083 227.810198 
L 171.206956 227.910407 
L 168.387829 227.95217 
L 165.568702 228.08469 
L 162.749575 228.231102 
L 159.930448 228.335686 
L 157.111321 228.419287 
L 154.292194 228.422661 
L 151.473067 228.427657 
L 148.65394 228.445583 
L 145.834813 228.446342 
L 143.015686 228.447101 
L 140.196559 228.447859 
L 137.377432 228.448655 
L 134.558305 228.482341 
L 131.739178 228.537088 
L 128.920051 228.725039 
L 126.100924 228.933308 
L 123.281797 229.141578 
L 120.46267 229.349847 
L 117.643543 229.558345 
L 114.824416 229.651983 
L 112.005289 229.623183 
L 109.186162 229.594384 
L 106.367035 229.565584 
L 103.547908 229.523462 
L 100.728781 229.445364 
L 97.909653 229.367266 
L 95.090526 229.367373 
L 92.271399 229.418128 
L 89.452272 229.38897 
L 86.633145 229.407686 
L 83.814018 229.462635 
L 80.994891 229.571066 
L 78.175764 229.704134 
L 75.356637 229.837203 
L 72.53751 229.913869 
L 69.718383 229.982311 
L 66.899256 230.050753 
L 64.080129 230.119195 
L 61.261002 230.084724 
L 58.441875 229.952958 
z
" style="fill:#777777;fill-opacity:0.15;"/>
   </g>
   <g id="line2d_39">
    <path clip-path="url(#p9533ca6e42)" d="M 58.441875 244.232177 
L 61.261002 243.262733 
L 64.080129 242.293289 
L 66.899256 241.323845 
L 69.718383 240.354401 
L 72.53751 239.384957 
L 75.356637 238.415513 
L 78.175764 237.446069 
L 80.994891 236.476625 
L 83.814018 235.50718 
L 86.633145 234.537736 
L 89.452272 233.568292 
L 92.271399 232.598848 
L 95.090526 231.629404 
L 97.909653 230.65996 
L 100.728781 229.690516 
L 103.547908 228.721072 
L 106.367035 227.751628 
L 109.186162 226.782184 
L 112.005289 225.81274 
L 114.824416 224.843296 
L 117.643543 223.873852 
L 120.46267 222.904408 
L 123.281797 221.934964 
L 126.100924 220.96552 
L 128.920051 219.996076 
L 131.739178 219.026632 
L 134.558305 218.057188 
L 137.377432 217.087744 
L 140.196559 216.1183 
L 143.015686 215.148856 
L 145.834813 214.179412 
L 148.65394 213.209968 
L 151.473067 212.240524 
L 154.292194 211.27108 
L 157.111321 210.301636 
L 159.930448 209.332192 
L 162.749575 208.362748 
L 165.568702 207.393304 
L 168.387829 206.42386 
L 171.206956 205.454416 
L 174.026083 204.484972 
L 176.84521 203.515528 
L 179.664337 202.546084 
L 182.483465 201.57664 
L 185.302592 200.607195 
L 188.121719 199.637751 
L 190.940846 198.668307 
L 193.759973 197.698863 
L 196.5791 196.729419 
L 199.398227 195.759975 
L 202.217354 194.790531 
L 205.036481 193.821087 
L 207.855608 192.851643 
L 210.674735 191.882199 
L 213.493862 190.912755 
L 216.312989 189.943311 
L 219.132116 188.973867 
L 221.951243 188.004423 
L 224.77037 187.034979 
L 227.589497 186.065535 
L 230.408624 185.096091 
L 233.227751 184.126647 
L 236.046878 183.157203 
L 238.866005 182.187759 
L 241.685132 181.218315 
L 244.504259 180.248871 
L 247.323386 179.279427 
L 250.142513 178.309983 
L 252.96164 177.340539 
L 255.780767 176.371095 
L 258.599894 175.401651 
L 261.419021 174.432207 
L 264.238148 173.462763 
L 267.057276 172.493319 
L 269.876403 171.523875 
L 272.69553 170.554431 
L 275.514657 169.584987 
L 278.333784 168.615543 
L 281.152911 167.646099 
L 283.972038 166.676655 
L 286.791165 165.70721 
L 289.610292 164.737766 
L 292.429419 163.768322 
L 295.248546 162.798878 
L 298.067673 161.829434 
L 300.8868 160.85999 
L 303.705927 159.890546 
L 306.525054 158.921102 
L 309.344181 157.951658 
L 312.163308 156.982214 
L 314.982435 156.01277 
L 317.801562 155.043326 
L 320.620689 154.073882 
L 323.439816 153.104438 
L 326.258943 152.134994 
L 329.07807 151.16555 
L 331.897197 150.196106 
L 334.716324 149.226662 
L 337.535451 148.257218 
" style="fill:none;stroke:#e24a33;stroke-linecap:square;stroke-width:2.25;"/>
   </g>
   <g id="line2d_40">
    <path clip-path="url(#p9533ca6e42)" d="M 58.441875 145.903984 
L 61.261002 145.090654 
L 64.080129 144.277324 
L 66.899256 143.463995 
L 69.718383 142.650665 
L 72.53751 141.837336 
L 75.356637 141.024006 
L 78.175764 140.210677 
L 80.994891 139.397347 
L 83.814018 138.584017 
L 86.633145 137.770688 
L 89.452272 136.957358 
L 92.271399 136.144029 
L 95.090526 135.330699 
L 97.909653 134.51737 
L 100.728781 133.70404 
L 103.547908 132.89071 
L 106.367035 132.077381 
L 109.186162 131.264051 
L 112.005289 130.450722 
L 114.824416 129.637392 
L 117.643543 128.824063 
L 120.46267 128.010733 
L 123.281797 127.197403 
L 126.100924 126.384074 
L 128.920051 125.570744 
L 131.739178 124.757415 
L 134.558305 123.944085 
L 137.377432 123.130756 
L 140.196559 122.317426 
L 143.015686 121.504096 
L 145.834813 120.690767 
L 148.65394 119.877437 
L 151.473067 119.064108 
L 154.292194 118.250778 
L 157.111321 117.437449 
L 159.930448 116.624119 
L 162.749575 115.810789 
L 165.568702 114.99746 
L 168.387829 114.18413 
L 171.206956 113.370801 
L 174.026083 112.557471 
L 176.84521 111.744142 
L 179.664337 110.930812 
L 182.483465 110.117482 
L 185.302592 109.304153 
L 188.121719 108.490823 
L 190.940846 107.677494 
L 193.759973 106.864164 
L 196.5791 106.050835 
L 199.398227 105.237505 
L 202.217354 104.424175 
L 205.036481 103.610846 
L 207.855608 102.797516 
L 210.674735 101.984187 
L 213.493862 101.170857 
L 216.312989 100.357528 
L 219.132116 99.544198 
L 221.951243 98.730868 
L 224.77037 97.917539 
L 227.589497 97.104209 
L 230.408624 96.29088 
L 233.227751 95.47755 
L 236.046878 94.664221 
L 238.866005 93.850891 
L 241.685132 93.037561 
L 244.504259 92.224232 
L 247.323386 91.410902 
L 250.142513 90.597573 
L 252.96164 89.784243 
L 255.780767 88.970914 
L 258.599894 88.157584 
L 261.419021 87.344254 
L 264.238148 86.530925 
L 267.057276 85.717595 
L 269.876403 84.904266 
L 272.69553 84.090936 
L 275.514657 83.277607 
L 278.333784 82.464277 
L 281.152911 81.650947 
L 283.972038 80.837618 
L 286.791165 80.024288 
L 289.610292 79.210959 
L 292.429419 78.397629 
L 295.248546 77.5843 
L 298.067673 76.77097 
L 300.8868 75.95764 
L 303.705927 75.144311 
L 306.525054 74.330981 
L 309.344181 73.517652 
L 312.163308 72.704322 
L 314.982435 71.890993 
L 317.801562 71.077663 
L 320.620689 70.264333 
L 323.439816 69.451004 
L 326.258943 68.637674 
L 329.07807 67.824345 
L 331.897197 67.011015 
L 334.716324 66.197686 
L 337.535451 65.384356 
" style="fill:none;stroke:#348abd;stroke-linecap:square;stroke-width:2.25;"/>
   </g>
   <g id="line2d_41">
    <path clip-path="url(#p9533ca6e42)" d="M 58.441875 128.922376 
L 61.261002 128.918522 
L 64.080129 128.914667 
L 66.899256 128.910812 
L 69.718383 128.906957 
L 72.53751 128.903102 
L 75.356637 128.899248 
L 78.175764 128.895393 
L 80.994891 128.891538 
L 83.814018 128.887683 
L 86.633145 128.883828 
L 89.452272 128.879973 
L 92.271399 128.876119 
L 95.090526 128.872264 
L 97.909653 128.868409 
L 100.728781 128.864554 
L 103.547908 128.860699 
L 106.367035 128.856844 
L 109.186162 128.85299 
L 112.005289 128.849135 
L 114.824416 128.84528 
L 117.643543 128.841425 
L 120.46267 128.83757 
L 123.281797 128.833715 
L 126.100924 128.829861 
L 128.920051 128.826006 
L 131.739178 128.822151 
L 134.558305 128.818296 
L 137.377432 128.814441 
L 140.196559 128.810587 
L 143.015686 128.806732 
L 145.834813 128.802877 
L 148.65394 128.799022 
L 151.473067 128.795167 
L 154.292194 128.791312 
L 157.111321 128.787458 
L 159.930448 128.783603 
L 162.749575 128.779748 
L 165.568702 128.775893 
L 168.387829 128.772038 
L 171.206956 128.768183 
L 174.026083 128.764329 
L 176.84521 128.760474 
L 179.664337 128.756619 
L 182.483465 128.752764 
L 185.302592 128.748909 
L 188.121719 128.745054 
L 190.940846 128.7412 
L 193.759973 128.737345 
L 196.5791 128.73349 
L 199.398227 128.729635 
L 202.217354 128.72578 
L 205.036481 128.721926 
L 207.855608 128.718071 
L 210.674735 128.714216 
L 213.493862 128.710361 
L 216.312989 128.706506 
L 219.132116 128.702651 
L 221.951243 128.698797 
L 224.77037 128.694942 
L 227.589497 128.691087 
L 230.408624 128.687232 
L 233.227751 128.683377 
L 236.046878 128.679522 
L 238.866005 128.675668 
L 241.685132 128.671813 
L 244.504259 128.667958 
L 247.323386 128.664103 
L 250.142513 128.660248 
L 252.96164 128.656393 
L 255.780767 128.652539 
L 258.599894 128.648684 
L 261.419021 128.644829 
L 264.238148 128.640974 
L 267.057276 128.637119 
L 269.876403 128.633265 
L 272.69553 128.62941 
L 275.514657 128.625555 
L 278.333784 128.6217 
L 281.152911 128.617845 
L 283.972038 128.61399 
L 286.791165 128.610136 
L 289.610292 128.606281 
L 292.429419 128.602426 
L 295.248546 128.598571 
L 298.067673 128.594716 
L 300.8868 128.590861 
L 303.705927 128.587007 
L 306.525054 128.583152 
L 309.344181 128.579297 
L 312.163308 128.575442 
L 314.982435 128.571587 
L 317.801562 128.567733 
L 320.620689 128.563878 
L 323.439816 128.560023 
L 326.258943 128.556168 
L 329.07807 128.552313 
L 331.897197 128.548458 
L 334.716324 128.544604 
L 337.535451 128.540749 
" style="fill:none;stroke:#988ed5;stroke-linecap:square;stroke-width:2.25;"/>
   </g>
   <g id="line2d_42">
    <path clip-path="url(#p9533ca6e42)" d="M 58.441875 263.567109 
L 61.261002 263.083352 
L 64.080129 262.599595 
L 66.899256 262.115838 
L 69.718383 261.632081 
L 72.53751 261.148323 
L 75.356637 260.664566 
L 78.175764 260.180809 
L 80.994891 259.697052 
L 83.814018 259.213295 
L 86.633145 258.729538 
L 89.452272 258.245781 
L 92.271399 257.762023 
L 95.090526 257.278266 
L 97.909653 256.794509 
L 100.728781 256.310752 
L 103.547908 255.826995 
L 106.367035 255.343238 
L 109.186162 254.85948 
L 112.005289 254.375723 
L 114.824416 253.891966 
L 117.643543 253.408209 
L 120.46267 252.924452 
L 123.281797 252.440695 
L 126.100924 251.956937 
L 128.920051 251.47318 
L 131.739178 250.989423 
L 134.558305 250.505666 
L 137.377432 250.021909 
L 140.196559 249.538152 
L 143.015686 249.054394 
L 145.834813 248.570637 
L 148.65394 248.08688 
L 151.473067 247.603123 
L 154.292194 247.119366 
L 157.111321 246.635609 
L 159.930448 246.151852 
L 162.749575 245.668094 
L 165.568702 245.184337 
L 168.387829 244.70058 
L 171.206956 244.216823 
L 174.026083 243.733066 
L 176.84521 243.249309 
L 179.664337 242.765551 
L 182.483465 242.281794 
L 185.302592 241.798037 
L 188.121719 241.31428 
L 190.940846 240.830523 
L 193.759973 240.346766 
L 196.5791 239.863008 
L 199.398227 239.379251 
L 202.217354 238.895494 
L 205.036481 238.411737 
L 207.855608 237.92798 
L 210.674735 237.444223 
L 213.493862 236.960466 
L 216.312989 236.476708 
L 219.132116 235.992951 
L 221.951243 235.509194 
L 224.77037 235.025437 
L 227.589497 234.54168 
L 230.408624 234.057923 
L 233.227751 233.574165 
L 236.046878 233.090408 
L 238.866005 232.606651 
L 241.685132 232.122894 
L 244.504259 231.639137 
L 247.323386 231.15538 
L 250.142513 230.671622 
L 252.96164 230.187865 
L 255.780767 229.704108 
L 258.599894 229.220351 
L 261.419021 228.736594 
L 264.238148 228.252837 
L 267.057276 227.76908 
L 269.876403 227.285322 
L 272.69553 226.801565 
L 275.514657 226.317808 
L 278.333784 225.834051 
L 281.152911 225.350294 
L 283.972038 224.866537 
L 286.791165 224.382779 
L 289.610292 223.899022 
L 292.429419 223.415265 
L 295.248546 222.931508 
L 298.067673 222.447751 
L 300.8868 221.963994 
L 303.705927 221.480236 
L 306.525054 220.996479 
L 309.344181 220.512722 
L 312.163308 220.028965 
L 314.982435 219.545208 
L 317.801562 219.061451 
L 320.620689 218.577694 
L 323.439816 218.093936 
L 326.258943 217.610179 
L 329.07807 217.126422 
L 331.897197 216.642665 
L 334.716324 216.158908 
L 337.535451 215.675151 
" style="fill:none;stroke:#777777;stroke-linecap:square;stroke-width:2.25;"/>
   </g>
   <g id="patch_3">
    <path d="M 58.441875 311.6 
L 58.441875 7.2 
" style="fill:none;stroke:#ffffff;stroke-linecap:square;stroke-linejoin:miter;"/>
   </g>
   <g id="patch_4">
    <path d="M 58.441875 311.6 
L 337.535451 311.6 
" style="fill:none;stroke:#ffffff;stroke-linecap:square;stroke-linejoin:miter;"/>
   </g>
  </g>
  <g id="legend_1">
   <g id="text_22">
    <!-- name -->
    <g transform="translate(361.719045 148.949062)scale(0.1 -0.1)">
     <defs>
      <path d="M 54.890625 33.015625 
L 54.890625 0 
L 45.90625 0 
L 45.90625 32.71875 
Q 45.90625 40.484375 42.875 44.328125 
Q 39.84375 48.1875 33.796875 48.1875 
Q 26.515625 48.1875 22.3125 43.546875 
Q 18.109375 38.921875 18.109375 30.90625 
L 18.109375 0 
L 9.078125 0 
L 9.078125 54.6875 
L 18.109375 54.6875 
L 18.109375 46.1875 
Q 21.34375 51.125 25.703125 53.5625 
Q 30.078125 56 35.796875 56 
Q 45.21875 56 50.046875 50.171875 
Q 54.890625 44.34375 54.890625 33.015625 
z
" id="DejaVuSans-110"/>
      <path d="M 52 44.1875 
Q 55.375 50.25 60.0625 53.125 
Q 64.75 56 71.09375 56 
Q 79.640625 56 84.28125 50.015625 
Q 88.921875 44.046875 88.921875 33.015625 
L 88.921875 0 
L 79.890625 0 
L 79.890625 32.71875 
Q 79.890625 40.578125 77.09375 44.375 
Q 74.3125 48.1875 68.609375 48.1875 
Q 61.625 48.1875 57.5625 43.546875 
Q 53.515625 38.921875 53.515625 30.90625 
L 53.515625 0 
L 44.484375 0 
L 44.484375 32.71875 
Q 44.484375 40.625 41.703125 44.40625 
Q 38.921875 48.1875 33.109375 48.1875 
Q 26.21875 48.1875 22.15625 43.53125 
Q 18.109375 38.875 18.109375 30.90625 
L 18.109375 0 
L 9.078125 0 
L 9.078125 54.6875 
L 18.109375 54.6875 
L 18.109375 46.1875 
Q 21.1875 51.21875 25.484375 53.609375 
Q 29.78125 56 35.6875 56 
Q 41.65625 56 45.828125 52.96875 
Q 50 49.953125 52 44.1875 
z
" id="DejaVuSans-109"/>
     </defs>
     <use xlink:href="#DejaVuSans-110"/>
     <use x="63.378906" xlink:href="#DejaVuSans-97"/>
     <use x="124.658203" xlink:href="#DejaVuSans-109"/>
     <use x="222.070312" xlink:href="#DejaVuSans-101"/>
    </g>
   </g>
   <g id="PathCollection_5">
    <g>
     <use style="fill:#e24a33;fill-opacity:0.8;stroke:#e24a33;stroke-opacity:0.8;" x="352.974514" xlink:href="#m9146335dc9" y="161.002187"/>
    </g>
   </g>
   <g id="text_23">
    <!-- CNN 1 -->
    <g transform="translate(370.974514 163.627187)scale(0.1 -0.1)">
     <defs>
      <path d="M 64.40625 67.28125 
L 64.40625 56.890625 
Q 59.421875 61.53125 53.78125 63.8125 
Q 48.140625 66.109375 41.796875 66.109375 
Q 29.296875 66.109375 22.65625 58.46875 
Q 16.015625 50.828125 16.015625 36.375 
Q 16.015625 21.96875 22.65625 14.328125 
Q 29.296875 6.6875 41.796875 6.6875 
Q 48.140625 6.6875 53.78125 8.984375 
Q 59.421875 11.28125 64.40625 15.921875 
L 64.40625 5.609375 
Q 59.234375 2.09375 53.4375 0.328125 
Q 47.65625 -1.421875 41.21875 -1.421875 
Q 24.65625 -1.421875 15.125 8.703125 
Q 5.609375 18.84375 5.609375 36.375 
Q 5.609375 53.953125 15.125 64.078125 
Q 24.65625 74.21875 41.21875 74.21875 
Q 47.75 74.21875 53.53125 72.484375 
Q 59.328125 70.75 64.40625 67.28125 
z
" id="DejaVuSans-67"/>
      <path d="M 9.8125 72.90625 
L 23.09375 72.90625 
L 55.421875 11.921875 
L 55.421875 72.90625 
L 64.984375 72.90625 
L 64.984375 0 
L 51.703125 0 
L 19.390625 60.984375 
L 19.390625 0 
L 9.8125 0 
z
" id="DejaVuSans-78"/>
      <path id="DejaVuSans-32"/>
     </defs>
     <use xlink:href="#DejaVuSans-67"/>
     <use x="69.824219" xlink:href="#DejaVuSans-78"/>
     <use x="144.628906" xlink:href="#DejaVuSans-78"/>
     <use x="219.433594" xlink:href="#DejaVuSans-32"/>
     <use x="251.220703" xlink:href="#DejaVuSans-49"/>
    </g>
   </g>
   <g id="PathCollection_6">
    <g>
     <use style="fill:#348abd;fill-opacity:0.8;stroke:#348abd;stroke-opacity:0.8;" x="352.974514" xlink:href="#mb47d914599" y="175.680312"/>
    </g>
   </g>
   <g id="text_24">
    <!-- CNN 2 -->
    <g transform="translate(370.974514 178.305312)scale(0.1 -0.1)">
     <use xlink:href="#DejaVuSans-67"/>
     <use x="69.824219" xlink:href="#DejaVuSans-78"/>
     <use x="144.628906" xlink:href="#DejaVuSans-78"/>
     <use x="219.433594" xlink:href="#DejaVuSans-32"/>
     <use x="251.220703" xlink:href="#DejaVuSans-50"/>
    </g>
   </g>
   <g id="PathCollection_7">
    <g>
     <use style="fill:#988ed5;fill-opacity:0.8;stroke:#988ed5;stroke-opacity:0.8;" x="352.974514" xlink:href="#med3aa82cbe" y="190.358437"/>
    </g>
   </g>
   <g id="text_25">
    <!-- CNN 5 -->
    <g transform="translate(370.974514 192.983437)scale(0.1 -0.1)">
     <use xlink:href="#DejaVuSans-67"/>
     <use x="69.824219" xlink:href="#DejaVuSans-78"/>
     <use x="144.628906" xlink:href="#DejaVuSans-78"/>
     <use x="219.433594" xlink:href="#DejaVuSans-32"/>
     <use x="251.220703" xlink:href="#DejaVuSans-53"/>
    </g>
   </g>
   <g id="PathCollection_8">
    <g>
     <use style="fill:#777777;fill-opacity:0.8;stroke:#777777;stroke-opacity:0.8;" x="352.974514" xlink:href="#m0d6c0ed55a" y="205.036562"/>
    </g>
   </g>
   <g id="text_26">
    <!-- CNN 10 -->
    <g transform="translate(370.974514 207.661562)scale(0.1 -0.1)">
     <use xlink:href="#DejaVuSans-67"/>
     <use x="69.824219" xlink:href="#DejaVuSans-78"/>
     <use x="144.628906" xlink:href="#DejaVuSans-78"/>
     <use x="219.433594" xlink:href="#DejaVuSans-32"/>
     <use x="251.220703" xlink:href="#DejaVuSans-49"/>
     <use x="314.84375" xlink:href="#DejaVuSans-48"/>
    </g>
   </g>
  </g>
 </g>
 <defs>
  <clipPath id="p9533ca6e42">
   <rect height="304.4" width="279.093576" x="58.441875" y="7.2"/>
  </clipPath>
 </defs>
</svg>
