<?xml version="1.0" encoding="utf-8" standalone="no"?>
<!DOCTYPE svg PUBLIC "-//W3C//DTD SVG 1.1//EN"
  "http://www.w3.org/Graphics/SVG/1.1/DTD/svg11.dtd">
<!-- Created with matplotlib (https://matplotlib.org/) -->
<svg height="351.091875pt" version="1.1" viewBox="0 0 425.543003 351.091875" width="425.543003pt" xmlns="http://www.w3.org/2000/svg" xmlns:xlink="http://www.w3.org/1999/xlink">
 <metadata>
  <rdf:RDF xmlns:cc="http://creativecommons.org/ns#" xmlns:dc="http://purl.org/dc/elements/1.1/" xmlns:rdf="http://www.w3.org/1999/02/22-rdf-syntax-ns#">
   <cc:Work>
    <dc:type rdf:resource="http://purl.org/dc/dcmitype/StillImage"/>
    <dc:date>2020-09-05T22:08:30.906740</dc:date>
    <dc:format>image/svg+xml</dc:format>
    <dc:creator>
     <cc:Agent>
      <dc:title>Matplotlib v3.3.1, https://matplotlib.org/</dc:title>
     </cc:Agent>
    </dc:creator>
   </cc:Work>
  </rdf:RDF>
 </metadata>
 <defs>
  <style type="text/css">*{stroke-linecap:butt;stroke-linejoin:round;}</style>
 </defs>
 <g id="figure_1">
  <g id="patch_1">
   <path d="M 0 351.091875 
L 425.543003 351.091875 
L 425.543003 0 
L 0 0 
z
" style="fill:#ffffff;"/>
  </g>
  <g id="axes_1">
   <g id="patch_2">
    <path d="M 58.441875 311.6 
L 335.786753 311.6 
L 335.786753 7.2 
L 58.441875 7.2 
z
" style="fill:#e5e5e5;"/>
   </g>
   <g id="matplotlib.axis_1">
    <g id="xtick_1">
     <g id="line2d_1">
      <path clip-path="url(#p13fad5b9dc)" d="M 58.441875 311.6 
L 58.441875 7.2 
" style="fill:none;stroke:#ffffff;stroke-linecap:square;stroke-width:0.8;"/>
     </g>
     <g id="line2d_2">
      <defs>
       <path d="M 0 0 
L 0 3.5 
" id="m6b2bde2ad8" style="stroke:#555555;stroke-width:0.8;"/>
      </defs>
      <g>
       <use style="fill:#555555;stroke:#555555;stroke-width:0.8;" x="58.441875" xlink:href="#m6b2bde2ad8" y="311.6"/>
      </g>
     </g>
     <g id="text_1">
      <!-- 1 -->
      <g style="fill:#555555;" transform="translate(55.260625 326.198437)scale(0.1 -0.1)">
       <defs>
        <path d="M 12.40625 8.296875 
L 28.515625 8.296875 
L 28.515625 63.921875 
L 10.984375 60.40625 
L 10.984375 69.390625 
L 28.421875 72.90625 
L 38.28125 72.90625 
L 38.28125 8.296875 
L 54.390625 8.296875 
L 54.390625 0 
L 12.40625 0 
z
" id="DejaVuSans-49"/>
       </defs>
       <use xlink:href="#DejaVuSans-49"/>
      </g>
     </g>
    </g>
    <g id="xtick_2">
     <g id="line2d_3">
      <path clip-path="url(#p13fad5b9dc)" d="M 89.257973 311.6 
L 89.257973 7.2 
" style="fill:none;stroke:#ffffff;stroke-linecap:square;stroke-width:0.8;"/>
     </g>
     <g id="line2d_4">
      <g>
       <use style="fill:#555555;stroke:#555555;stroke-width:0.8;" x="89.257973" xlink:href="#m6b2bde2ad8" y="311.6"/>
      </g>
     </g>
     <g id="text_2">
      <!-- 2 -->
      <g style="fill:#555555;" transform="translate(86.076723 326.198437)scale(0.1 -0.1)">
       <defs>
        <path d="M 19.1875 8.296875 
L 53.609375 8.296875 
L 53.609375 0 
L 7.328125 0 
L 7.328125 8.296875 
Q 12.9375 14.109375 22.625 23.890625 
Q 32.328125 33.6875 34.8125 36.53125 
Q 39.546875 41.84375 41.421875 45.53125 
Q 43.3125 49.21875 43.3125 52.78125 
Q 43.3125 58.59375 39.234375 62.25 
Q 35.15625 65.921875 28.609375 65.921875 
Q 23.96875 65.921875 18.8125 64.3125 
Q 13.671875 62.703125 7.8125 59.421875 
L 7.8125 69.390625 
Q 13.765625 71.78125 18.9375 73 
Q 24.125 74.21875 28.421875 74.21875 
Q 39.75 74.21875 46.484375 68.546875 
Q 53.21875 62.890625 53.21875 53.421875 
Q 53.21875 48.921875 51.53125 44.890625 
Q 49.859375 40.875 45.40625 35.40625 
Q 44.1875 33.984375 37.640625 27.21875 
Q 31.109375 20.453125 19.1875 8.296875 
z
" id="DejaVuSans-50"/>
       </defs>
       <use xlink:href="#DejaVuSans-50"/>
      </g>
     </g>
    </g>
    <g id="xtick_3">
     <g id="line2d_5">
      <path clip-path="url(#p13fad5b9dc)" d="M 120.07407 311.6 
L 120.07407 7.2 
" style="fill:none;stroke:#ffffff;stroke-linecap:square;stroke-width:0.8;"/>
     </g>
     <g id="line2d_6">
      <g>
       <use style="fill:#555555;stroke:#555555;stroke-width:0.8;" x="120.07407" xlink:href="#m6b2bde2ad8" y="311.6"/>
      </g>
     </g>
     <g id="text_3">
      <!-- 3 -->
      <g style="fill:#555555;" transform="translate(116.89282 326.198437)scale(0.1 -0.1)">
       <defs>
        <path d="M 40.578125 39.3125 
Q 47.65625 37.796875 51.625 33 
Q 55.609375 28.21875 55.609375 21.1875 
Q 55.609375 10.40625 48.1875 4.484375 
Q 40.765625 -1.421875 27.09375 -1.421875 
Q 22.515625 -1.421875 17.65625 -0.515625 
Q 12.796875 0.390625 7.625 2.203125 
L 7.625 11.71875 
Q 11.71875 9.328125 16.59375 8.109375 
Q 21.484375 6.890625 26.8125 6.890625 
Q 36.078125 6.890625 40.9375 10.546875 
Q 45.796875 14.203125 45.796875 21.1875 
Q 45.796875 27.640625 41.28125 31.265625 
Q 36.765625 34.90625 28.71875 34.90625 
L 20.21875 34.90625 
L 20.21875 43.015625 
L 29.109375 43.015625 
Q 36.375 43.015625 40.234375 45.921875 
Q 44.09375 48.828125 44.09375 54.296875 
Q 44.09375 59.90625 40.109375 62.90625 
Q 36.140625 65.921875 28.71875 65.921875 
Q 24.65625 65.921875 20.015625 65.03125 
Q 15.375 64.15625 9.8125 62.3125 
L 9.8125 71.09375 
Q 15.4375 72.65625 20.34375 73.4375 
Q 25.25 74.21875 29.59375 74.21875 
Q 40.828125 74.21875 47.359375 69.109375 
Q 53.90625 64.015625 53.90625 55.328125 
Q 53.90625 49.265625 50.4375 45.09375 
Q 46.96875 40.921875 40.578125 39.3125 
z
" id="DejaVuSans-51"/>
       </defs>
       <use xlink:href="#DejaVuSans-51"/>
      </g>
     </g>
    </g>
    <g id="xtick_4">
     <g id="line2d_7">
      <path clip-path="url(#p13fad5b9dc)" d="M 150.890168 311.6 
L 150.890168 7.2 
" style="fill:none;stroke:#ffffff;stroke-linecap:square;stroke-width:0.8;"/>
     </g>
     <g id="line2d_8">
      <g>
       <use style="fill:#555555;stroke:#555555;stroke-width:0.8;" x="150.890168" xlink:href="#m6b2bde2ad8" y="311.6"/>
      </g>
     </g>
     <g id="text_4">
      <!-- 4 -->
      <g style="fill:#555555;" transform="translate(147.708918 326.198437)scale(0.1 -0.1)">
       <defs>
        <path d="M 37.796875 64.3125 
L 12.890625 25.390625 
L 37.796875 25.390625 
z
M 35.203125 72.90625 
L 47.609375 72.90625 
L 47.609375 25.390625 
L 58.015625 25.390625 
L 58.015625 17.1875 
L 47.609375 17.1875 
L 47.609375 0 
L 37.796875 0 
L 37.796875 17.1875 
L 4.890625 17.1875 
L 4.890625 26.703125 
z
" id="DejaVuSans-52"/>
       </defs>
       <use xlink:href="#DejaVuSans-52"/>
      </g>
     </g>
    </g>
    <g id="xtick_5">
     <g id="line2d_9">
      <path clip-path="url(#p13fad5b9dc)" d="M 181.706265 311.6 
L 181.706265 7.2 
" style="fill:none;stroke:#ffffff;stroke-linecap:square;stroke-width:0.8;"/>
     </g>
     <g id="line2d_10">
      <g>
       <use style="fill:#555555;stroke:#555555;stroke-width:0.8;" x="181.706265" xlink:href="#m6b2bde2ad8" y="311.6"/>
      </g>
     </g>
     <g id="text_5">
      <!-- 5 -->
      <g style="fill:#555555;" transform="translate(178.525015 326.198437)scale(0.1 -0.1)">
       <defs>
        <path d="M 10.796875 72.90625 
L 49.515625 72.90625 
L 49.515625 64.59375 
L 19.828125 64.59375 
L 19.828125 46.734375 
Q 21.96875 47.46875 24.109375 47.828125 
Q 26.265625 48.1875 28.421875 48.1875 
Q 40.625 48.1875 47.75 41.5 
Q 54.890625 34.8125 54.890625 23.390625 
Q 54.890625 11.625 47.5625 5.09375 
Q 40.234375 -1.421875 26.90625 -1.421875 
Q 22.3125 -1.421875 17.546875 -0.640625 
Q 12.796875 0.140625 7.71875 1.703125 
L 7.71875 11.625 
Q 12.109375 9.234375 16.796875 8.0625 
Q 21.484375 6.890625 26.703125 6.890625 
Q 35.15625 6.890625 40.078125 11.328125 
Q 45.015625 15.765625 45.015625 23.390625 
Q 45.015625 31 40.078125 35.4375 
Q 35.15625 39.890625 26.703125 39.890625 
Q 22.75 39.890625 18.8125 39.015625 
Q 14.890625 38.140625 10.796875 36.28125 
z
" id="DejaVuSans-53"/>
       </defs>
       <use xlink:href="#DejaVuSans-53"/>
      </g>
     </g>
    </g>
    <g id="xtick_6">
     <g id="line2d_11">
      <path clip-path="url(#p13fad5b9dc)" d="M 212.522363 311.6 
L 212.522363 7.2 
" style="fill:none;stroke:#ffffff;stroke-linecap:square;stroke-width:0.8;"/>
     </g>
     <g id="line2d_12">
      <g>
       <use style="fill:#555555;stroke:#555555;stroke-width:0.8;" x="212.522363" xlink:href="#m6b2bde2ad8" y="311.6"/>
      </g>
     </g>
     <g id="text_6">
      <!-- 6 -->
      <g style="fill:#555555;" transform="translate(209.341113 326.198437)scale(0.1 -0.1)">
       <defs>
        <path d="M 33.015625 40.375 
Q 26.375 40.375 22.484375 35.828125 
Q 18.609375 31.296875 18.609375 23.390625 
Q 18.609375 15.53125 22.484375 10.953125 
Q 26.375 6.390625 33.015625 6.390625 
Q 39.65625 6.390625 43.53125 10.953125 
Q 47.40625 15.53125 47.40625 23.390625 
Q 47.40625 31.296875 43.53125 35.828125 
Q 39.65625 40.375 33.015625 40.375 
z
M 52.59375 71.296875 
L 52.59375 62.3125 
Q 48.875 64.0625 45.09375 64.984375 
Q 41.3125 65.921875 37.59375 65.921875 
Q 27.828125 65.921875 22.671875 59.328125 
Q 17.53125 52.734375 16.796875 39.40625 
Q 19.671875 43.65625 24.015625 45.921875 
Q 28.375 48.1875 33.59375 48.1875 
Q 44.578125 48.1875 50.953125 41.515625 
Q 57.328125 34.859375 57.328125 23.390625 
Q 57.328125 12.15625 50.6875 5.359375 
Q 44.046875 -1.421875 33.015625 -1.421875 
Q 20.359375 -1.421875 13.671875 8.265625 
Q 6.984375 17.96875 6.984375 36.375 
Q 6.984375 53.65625 15.1875 63.9375 
Q 23.390625 74.21875 37.203125 74.21875 
Q 40.921875 74.21875 44.703125 73.484375 
Q 48.484375 72.75 52.59375 71.296875 
z
" id="DejaVuSans-54"/>
       </defs>
       <use xlink:href="#DejaVuSans-54"/>
      </g>
     </g>
    </g>
    <g id="xtick_7">
     <g id="line2d_13">
      <path clip-path="url(#p13fad5b9dc)" d="M 243.338461 311.6 
L 243.338461 7.2 
" style="fill:none;stroke:#ffffff;stroke-linecap:square;stroke-width:0.8;"/>
     </g>
     <g id="line2d_14">
      <g>
       <use style="fill:#555555;stroke:#555555;stroke-width:0.8;" x="243.338461" xlink:href="#m6b2bde2ad8" y="311.6"/>
      </g>
     </g>
     <g id="text_7">
      <!-- 7 -->
      <g style="fill:#555555;" transform="translate(240.157211 326.198437)scale(0.1 -0.1)">
       <defs>
        <path d="M 8.203125 72.90625 
L 55.078125 72.90625 
L 55.078125 68.703125 
L 28.609375 0 
L 18.3125 0 
L 43.21875 64.59375 
L 8.203125 64.59375 
z
" id="DejaVuSans-55"/>
       </defs>
       <use xlink:href="#DejaVuSans-55"/>
      </g>
     </g>
    </g>
    <g id="xtick_8">
     <g id="line2d_15">
      <path clip-path="url(#p13fad5b9dc)" d="M 274.154558 311.6 
L 274.154558 7.2 
" style="fill:none;stroke:#ffffff;stroke-linecap:square;stroke-width:0.8;"/>
     </g>
     <g id="line2d_16">
      <g>
       <use style="fill:#555555;stroke:#555555;stroke-width:0.8;" x="274.154558" xlink:href="#m6b2bde2ad8" y="311.6"/>
      </g>
     </g>
     <g id="text_8">
      <!-- 8 -->
      <g style="fill:#555555;" transform="translate(270.973308 326.198437)scale(0.1 -0.1)">
       <defs>
        <path d="M 31.78125 34.625 
Q 24.75 34.625 20.71875 30.859375 
Q 16.703125 27.09375 16.703125 20.515625 
Q 16.703125 13.921875 20.71875 10.15625 
Q 24.75 6.390625 31.78125 6.390625 
Q 38.8125 6.390625 42.859375 10.171875 
Q 46.921875 13.96875 46.921875 20.515625 
Q 46.921875 27.09375 42.890625 30.859375 
Q 38.875 34.625 31.78125 34.625 
z
M 21.921875 38.8125 
Q 15.578125 40.375 12.03125 44.71875 
Q 8.5 49.078125 8.5 55.328125 
Q 8.5 64.0625 14.71875 69.140625 
Q 20.953125 74.21875 31.78125 74.21875 
Q 42.671875 74.21875 48.875 69.140625 
Q 55.078125 64.0625 55.078125 55.328125 
Q 55.078125 49.078125 51.53125 44.71875 
Q 48 40.375 41.703125 38.8125 
Q 48.828125 37.15625 52.796875 32.3125 
Q 56.78125 27.484375 56.78125 20.515625 
Q 56.78125 9.90625 50.3125 4.234375 
Q 43.84375 -1.421875 31.78125 -1.421875 
Q 19.734375 -1.421875 13.25 4.234375 
Q 6.78125 9.90625 6.78125 20.515625 
Q 6.78125 27.484375 10.78125 32.3125 
Q 14.796875 37.15625 21.921875 38.8125 
z
M 18.3125 54.390625 
Q 18.3125 48.734375 21.84375 45.5625 
Q 25.390625 42.390625 31.78125 42.390625 
Q 38.140625 42.390625 41.71875 45.5625 
Q 45.3125 48.734375 45.3125 54.390625 
Q 45.3125 60.0625 41.71875 63.234375 
Q 38.140625 66.40625 31.78125 66.40625 
Q 25.390625 66.40625 21.84375 63.234375 
Q 18.3125 60.0625 18.3125 54.390625 
z
" id="DejaVuSans-56"/>
       </defs>
       <use xlink:href="#DejaVuSans-56"/>
      </g>
     </g>
    </g>
    <g id="xtick_9">
     <g id="line2d_17">
      <path clip-path="url(#p13fad5b9dc)" d="M 304.970656 311.6 
L 304.970656 7.2 
" style="fill:none;stroke:#ffffff;stroke-linecap:square;stroke-width:0.8;"/>
     </g>
     <g id="line2d_18">
      <g>
       <use style="fill:#555555;stroke:#555555;stroke-width:0.8;" x="304.970656" xlink:href="#m6b2bde2ad8" y="311.6"/>
      </g>
     </g>
     <g id="text_9">
      <!-- 9 -->
      <g style="fill:#555555;" transform="translate(301.789406 326.198437)scale(0.1 -0.1)">
       <defs>
        <path d="M 10.984375 1.515625 
L 10.984375 10.5 
Q 14.703125 8.734375 18.5 7.8125 
Q 22.3125 6.890625 25.984375 6.890625 
Q 35.75 6.890625 40.890625 13.453125 
Q 46.046875 20.015625 46.78125 33.40625 
Q 43.953125 29.203125 39.59375 26.953125 
Q 35.25 24.703125 29.984375 24.703125 
Q 19.046875 24.703125 12.671875 31.3125 
Q 6.296875 37.9375 6.296875 49.421875 
Q 6.296875 60.640625 12.9375 67.421875 
Q 19.578125 74.21875 30.609375 74.21875 
Q 43.265625 74.21875 49.921875 64.515625 
Q 56.59375 54.828125 56.59375 36.375 
Q 56.59375 19.140625 48.40625 8.859375 
Q 40.234375 -1.421875 26.421875 -1.421875 
Q 22.703125 -1.421875 18.890625 -0.6875 
Q 15.09375 0.046875 10.984375 1.515625 
z
M 30.609375 32.421875 
Q 37.25 32.421875 41.125 36.953125 
Q 45.015625 41.5 45.015625 49.421875 
Q 45.015625 57.28125 41.125 61.84375 
Q 37.25 66.40625 30.609375 66.40625 
Q 23.96875 66.40625 20.09375 61.84375 
Q 16.21875 57.28125 16.21875 49.421875 
Q 16.21875 41.5 20.09375 36.953125 
Q 23.96875 32.421875 30.609375 32.421875 
z
" id="DejaVuSans-57"/>
       </defs>
       <use xlink:href="#DejaVuSans-57"/>
      </g>
     </g>
    </g>
    <g id="xtick_10">
     <g id="line2d_19">
      <path clip-path="url(#p13fad5b9dc)" d="M 335.786753 311.6 
L 335.786753 7.2 
" style="fill:none;stroke:#ffffff;stroke-linecap:square;stroke-width:0.8;"/>
     </g>
     <g id="line2d_20">
      <g>
       <use style="fill:#555555;stroke:#555555;stroke-width:0.8;" x="335.786753" xlink:href="#m6b2bde2ad8" y="311.6"/>
      </g>
     </g>
     <g id="text_10">
      <!-- 10 -->
      <g style="fill:#555555;" transform="translate(329.424253 326.198437)scale(0.1 -0.1)">
       <defs>
        <path d="M 31.78125 66.40625 
Q 24.171875 66.40625 20.328125 58.90625 
Q 16.5 51.421875 16.5 36.375 
Q 16.5 21.390625 20.328125 13.890625 
Q 24.171875 6.390625 31.78125 6.390625 
Q 39.453125 6.390625 43.28125 13.890625 
Q 47.125 21.390625 47.125 36.375 
Q 47.125 51.421875 43.28125 58.90625 
Q 39.453125 66.40625 31.78125 66.40625 
z
M 31.78125 74.21875 
Q 44.046875 74.21875 50.515625 64.515625 
Q 56.984375 54.828125 56.984375 36.375 
Q 56.984375 17.96875 50.515625 8.265625 
Q 44.046875 -1.421875 31.78125 -1.421875 
Q 19.53125 -1.421875 13.0625 8.265625 
Q 6.59375 17.96875 6.59375 36.375 
Q 6.59375 54.828125 13.0625 64.515625 
Q 19.53125 74.21875 31.78125 74.21875 
z
" id="DejaVuSans-48"/>
       </defs>
       <use xlink:href="#DejaVuSans-49"/>
       <use x="63.623047" xlink:href="#DejaVuSans-48"/>
      </g>
     </g>
    </g>
    <g id="text_11">
     <!-- epochs -->
     <g style="fill:#555555;" transform="translate(175.714939 341.39625)scale(0.12 -0.12)">
      <defs>
       <path d="M 56.203125 29.59375 
L 56.203125 25.203125 
L 14.890625 25.203125 
Q 15.484375 15.921875 20.484375 11.0625 
Q 25.484375 6.203125 34.421875 6.203125 
Q 39.59375 6.203125 44.453125 7.46875 
Q 49.3125 8.734375 54.109375 11.28125 
L 54.109375 2.78125 
Q 49.265625 0.734375 44.1875 -0.34375 
Q 39.109375 -1.421875 33.890625 -1.421875 
Q 20.796875 -1.421875 13.15625 6.1875 
Q 5.515625 13.8125 5.515625 26.8125 
Q 5.515625 40.234375 12.765625 48.109375 
Q 20.015625 56 32.328125 56 
Q 43.359375 56 49.78125 48.890625 
Q 56.203125 41.796875 56.203125 29.59375 
z
M 47.21875 32.234375 
Q 47.125 39.59375 43.09375 43.984375 
Q 39.0625 48.390625 32.421875 48.390625 
Q 24.90625 48.390625 20.390625 44.140625 
Q 15.875 39.890625 15.1875 32.171875 
z
" id="DejaVuSans-101"/>
       <path d="M 18.109375 8.203125 
L 18.109375 -20.796875 
L 9.078125 -20.796875 
L 9.078125 54.6875 
L 18.109375 54.6875 
L 18.109375 46.390625 
Q 20.953125 51.265625 25.265625 53.625 
Q 29.59375 56 35.59375 56 
Q 45.5625 56 51.78125 48.09375 
Q 58.015625 40.1875 58.015625 27.296875 
Q 58.015625 14.40625 51.78125 6.484375 
Q 45.5625 -1.421875 35.59375 -1.421875 
Q 29.59375 -1.421875 25.265625 0.953125 
Q 20.953125 3.328125 18.109375 8.203125 
z
M 48.6875 27.296875 
Q 48.6875 37.203125 44.609375 42.84375 
Q 40.53125 48.484375 33.40625 48.484375 
Q 26.265625 48.484375 22.1875 42.84375 
Q 18.109375 37.203125 18.109375 27.296875 
Q 18.109375 17.390625 22.1875 11.75 
Q 26.265625 6.109375 33.40625 6.109375 
Q 40.53125 6.109375 44.609375 11.75 
Q 48.6875 17.390625 48.6875 27.296875 
z
" id="DejaVuSans-112"/>
       <path d="M 30.609375 48.390625 
Q 23.390625 48.390625 19.1875 42.75 
Q 14.984375 37.109375 14.984375 27.296875 
Q 14.984375 17.484375 19.15625 11.84375 
Q 23.34375 6.203125 30.609375 6.203125 
Q 37.796875 6.203125 41.984375 11.859375 
Q 46.1875 17.53125 46.1875 27.296875 
Q 46.1875 37.015625 41.984375 42.703125 
Q 37.796875 48.390625 30.609375 48.390625 
z
M 30.609375 56 
Q 42.328125 56 49.015625 48.375 
Q 55.71875 40.765625 55.71875 27.296875 
Q 55.71875 13.875 49.015625 6.21875 
Q 42.328125 -1.421875 30.609375 -1.421875 
Q 18.84375 -1.421875 12.171875 6.21875 
Q 5.515625 13.875 5.515625 27.296875 
Q 5.515625 40.765625 12.171875 48.375 
Q 18.84375 56 30.609375 56 
z
" id="DejaVuSans-111"/>
       <path d="M 48.78125 52.59375 
L 48.78125 44.1875 
Q 44.96875 46.296875 41.140625 47.34375 
Q 37.3125 48.390625 33.40625 48.390625 
Q 24.65625 48.390625 19.8125 42.84375 
Q 14.984375 37.3125 14.984375 27.296875 
Q 14.984375 17.28125 19.8125 11.734375 
Q 24.65625 6.203125 33.40625 6.203125 
Q 37.3125 6.203125 41.140625 7.25 
Q 44.96875 8.296875 48.78125 10.40625 
L 48.78125 2.09375 
Q 45.015625 0.34375 40.984375 -0.53125 
Q 36.96875 -1.421875 32.421875 -1.421875 
Q 20.0625 -1.421875 12.78125 6.34375 
Q 5.515625 14.109375 5.515625 27.296875 
Q 5.515625 40.671875 12.859375 48.328125 
Q 20.21875 56 33.015625 56 
Q 37.15625 56 41.109375 55.140625 
Q 45.0625 54.296875 48.78125 52.59375 
z
" id="DejaVuSans-99"/>
       <path d="M 54.890625 33.015625 
L 54.890625 0 
L 45.90625 0 
L 45.90625 32.71875 
Q 45.90625 40.484375 42.875 44.328125 
Q 39.84375 48.1875 33.796875 48.1875 
Q 26.515625 48.1875 22.3125 43.546875 
Q 18.109375 38.921875 18.109375 30.90625 
L 18.109375 0 
L 9.078125 0 
L 9.078125 75.984375 
L 18.109375 75.984375 
L 18.109375 46.1875 
Q 21.34375 51.125 25.703125 53.5625 
Q 30.078125 56 35.796875 56 
Q 45.21875 56 50.046875 50.171875 
Q 54.890625 44.34375 54.890625 33.015625 
z
" id="DejaVuSans-104"/>
       <path d="M 44.28125 53.078125 
L 44.28125 44.578125 
Q 40.484375 46.53125 36.375 47.5 
Q 32.28125 48.484375 27.875 48.484375 
Q 21.1875 48.484375 17.84375 46.4375 
Q 14.5 44.390625 14.5 40.28125 
Q 14.5 37.15625 16.890625 35.375 
Q 19.28125 33.59375 26.515625 31.984375 
L 29.59375 31.296875 
Q 39.15625 29.25 43.1875 25.515625 
Q 47.21875 21.78125 47.21875 15.09375 
Q 47.21875 7.46875 41.1875 3.015625 
Q 35.15625 -1.421875 24.609375 -1.421875 
Q 20.21875 -1.421875 15.453125 -0.5625 
Q 10.6875 0.296875 5.421875 2 
L 5.421875 11.28125 
Q 10.40625 8.6875 15.234375 7.390625 
Q 20.0625 6.109375 24.8125 6.109375 
Q 31.15625 6.109375 34.5625 8.28125 
Q 37.984375 10.453125 37.984375 14.40625 
Q 37.984375 18.0625 35.515625 20.015625 
Q 33.0625 21.96875 24.703125 23.78125 
L 21.578125 24.515625 
Q 13.234375 26.265625 9.515625 29.90625 
Q 5.8125 33.546875 5.8125 39.890625 
Q 5.8125 47.609375 11.28125 51.796875 
Q 16.75 56 26.8125 56 
Q 31.78125 56 36.171875 55.265625 
Q 40.578125 54.546875 44.28125 53.078125 
z
" id="DejaVuSans-115"/>
      </defs>
      <use xlink:href="#DejaVuSans-101"/>
      <use x="61.523438" xlink:href="#DejaVuSans-112"/>
      <use x="125" xlink:href="#DejaVuSans-111"/>
      <use x="186.181641" xlink:href="#DejaVuSans-99"/>
      <use x="241.162109" xlink:href="#DejaVuSans-104"/>
      <use x="304.541016" xlink:href="#DejaVuSans-115"/>
     </g>
    </g>
   </g>
   <g id="matplotlib.axis_2">
    <g id="ytick_1">
     <g id="line2d_21">
      <path clip-path="url(#p13fad5b9dc)" d="M 58.441875 274.703061 
L 335.786753 274.703061 
" style="fill:none;stroke:#ffffff;stroke-linecap:square;stroke-width:0.8;"/>
     </g>
     <g id="line2d_22">
      <defs>
       <path d="M 0 0 
L -3.5 0 
" id="mc8346581a1" style="stroke:#555555;stroke-width:0.8;"/>
      </defs>
      <g>
       <use style="fill:#555555;stroke:#555555;stroke-width:0.8;" x="58.441875" xlink:href="#mc8346581a1" y="274.703061"/>
      </g>
     </g>
     <g id="text_12">
      <!-- 0.850 -->
      <g style="fill:#555555;" transform="translate(22.81375 278.50228)scale(0.1 -0.1)">
       <defs>
        <path d="M 10.6875 12.40625 
L 21 12.40625 
L 21 0 
L 10.6875 0 
z
" id="DejaVuSans-46"/>
       </defs>
       <use xlink:href="#DejaVuSans-48"/>
       <use x="63.623047" xlink:href="#DejaVuSans-46"/>
       <use x="95.410156" xlink:href="#DejaVuSans-56"/>
       <use x="159.033203" xlink:href="#DejaVuSans-53"/>
       <use x="222.65625" xlink:href="#DejaVuSans-48"/>
      </g>
     </g>
    </g>
    <g id="ytick_2">
     <g id="line2d_23">
      <path clip-path="url(#p13fad5b9dc)" d="M 58.441875 236.268732 
L 335.786753 236.268732 
" style="fill:none;stroke:#ffffff;stroke-linecap:square;stroke-width:0.8;"/>
     </g>
     <g id="line2d_24">
      <g>
       <use style="fill:#555555;stroke:#555555;stroke-width:0.8;" x="58.441875" xlink:href="#mc8346581a1" y="236.268732"/>
      </g>
     </g>
     <g id="text_13">
      <!-- 0.855 -->
      <g style="fill:#555555;" transform="translate(22.81375 240.06795)scale(0.1 -0.1)">
       <use xlink:href="#DejaVuSans-48"/>
       <use x="63.623047" xlink:href="#DejaVuSans-46"/>
       <use x="95.410156" xlink:href="#DejaVuSans-56"/>
       <use x="159.033203" xlink:href="#DejaVuSans-53"/>
       <use x="222.65625" xlink:href="#DejaVuSans-53"/>
      </g>
     </g>
    </g>
    <g id="ytick_3">
     <g id="line2d_25">
      <path clip-path="url(#p13fad5b9dc)" d="M 58.441875 197.834402 
L 335.786753 197.834402 
" style="fill:none;stroke:#ffffff;stroke-linecap:square;stroke-width:0.8;"/>
     </g>
     <g id="line2d_26">
      <g>
       <use style="fill:#555555;stroke:#555555;stroke-width:0.8;" x="58.441875" xlink:href="#mc8346581a1" y="197.834402"/>
      </g>
     </g>
     <g id="text_14">
      <!-- 0.860 -->
      <g style="fill:#555555;" transform="translate(22.81375 201.633621)scale(0.1 -0.1)">
       <use xlink:href="#DejaVuSans-48"/>
       <use x="63.623047" xlink:href="#DejaVuSans-46"/>
       <use x="95.410156" xlink:href="#DejaVuSans-56"/>
       <use x="159.033203" xlink:href="#DejaVuSans-54"/>
       <use x="222.65625" xlink:href="#DejaVuSans-48"/>
      </g>
     </g>
    </g>
    <g id="ytick_4">
     <g id="line2d_27">
      <path clip-path="url(#p13fad5b9dc)" d="M 58.441875 159.400073 
L 335.786753 159.400073 
" style="fill:none;stroke:#ffffff;stroke-linecap:square;stroke-width:0.8;"/>
     </g>
     <g id="line2d_28">
      <g>
       <use style="fill:#555555;stroke:#555555;stroke-width:0.8;" x="58.441875" xlink:href="#mc8346581a1" y="159.400073"/>
      </g>
     </g>
     <g id="text_15">
      <!-- 0.865 -->
      <g style="fill:#555555;" transform="translate(22.81375 163.199292)scale(0.1 -0.1)">
       <use xlink:href="#DejaVuSans-48"/>
       <use x="63.623047" xlink:href="#DejaVuSans-46"/>
       <use x="95.410156" xlink:href="#DejaVuSans-56"/>
       <use x="159.033203" xlink:href="#DejaVuSans-54"/>
       <use x="222.65625" xlink:href="#DejaVuSans-53"/>
      </g>
     </g>
    </g>
    <g id="ytick_5">
     <g id="line2d_29">
      <path clip-path="url(#p13fad5b9dc)" d="M 58.441875 120.965744 
L 335.786753 120.965744 
" style="fill:none;stroke:#ffffff;stroke-linecap:square;stroke-width:0.8;"/>
     </g>
     <g id="line2d_30">
      <g>
       <use style="fill:#555555;stroke:#555555;stroke-width:0.8;" x="58.441875" xlink:href="#mc8346581a1" y="120.965744"/>
      </g>
     </g>
     <g id="text_16">
      <!-- 0.870 -->
      <g style="fill:#555555;" transform="translate(22.81375 124.764963)scale(0.1 -0.1)">
       <use xlink:href="#DejaVuSans-48"/>
       <use x="63.623047" xlink:href="#DejaVuSans-46"/>
       <use x="95.410156" xlink:href="#DejaVuSans-56"/>
       <use x="159.033203" xlink:href="#DejaVuSans-55"/>
       <use x="222.65625" xlink:href="#DejaVuSans-48"/>
      </g>
     </g>
    </g>
    <g id="ytick_6">
     <g id="line2d_31">
      <path clip-path="url(#p13fad5b9dc)" d="M 58.441875 82.531415 
L 335.786753 82.531415 
" style="fill:none;stroke:#ffffff;stroke-linecap:square;stroke-width:0.8;"/>
     </g>
     <g id="line2d_32">
      <g>
       <use style="fill:#555555;stroke:#555555;stroke-width:0.8;" x="58.441875" xlink:href="#mc8346581a1" y="82.531415"/>
      </g>
     </g>
     <g id="text_17">
      <!-- 0.875 -->
      <g style="fill:#555555;" transform="translate(22.81375 86.330634)scale(0.1 -0.1)">
       <use xlink:href="#DejaVuSans-48"/>
       <use x="63.623047" xlink:href="#DejaVuSans-46"/>
       <use x="95.410156" xlink:href="#DejaVuSans-56"/>
       <use x="159.033203" xlink:href="#DejaVuSans-55"/>
       <use x="222.65625" xlink:href="#DejaVuSans-53"/>
      </g>
     </g>
    </g>
    <g id="ytick_7">
     <g id="line2d_33">
      <path clip-path="url(#p13fad5b9dc)" d="M 58.441875 44.097086 
L 335.786753 44.097086 
" style="fill:none;stroke:#ffffff;stroke-linecap:square;stroke-width:0.8;"/>
     </g>
     <g id="line2d_34">
      <g>
       <use style="fill:#555555;stroke:#555555;stroke-width:0.8;" x="58.441875" xlink:href="#mc8346581a1" y="44.097086"/>
      </g>
     </g>
     <g id="text_18">
      <!-- 0.880 -->
      <g style="fill:#555555;" transform="translate(22.81375 47.896305)scale(0.1 -0.1)">
       <use xlink:href="#DejaVuSans-48"/>
       <use x="63.623047" xlink:href="#DejaVuSans-46"/>
       <use x="95.410156" xlink:href="#DejaVuSans-56"/>
       <use x="159.033203" xlink:href="#DejaVuSans-56"/>
       <use x="222.65625" xlink:href="#DejaVuSans-48"/>
      </g>
     </g>
    </g>
    <g id="text_19">
     <!-- accuracy -->
     <g style="fill:#555555;" transform="translate(16.318125 186.47125)rotate(-90)scale(0.12 -0.12)">
      <defs>
       <path d="M 34.28125 27.484375 
Q 23.390625 27.484375 19.1875 25 
Q 14.984375 22.515625 14.984375 16.5 
Q 14.984375 11.71875 18.140625 8.90625 
Q 21.296875 6.109375 26.703125 6.109375 
Q 34.1875 6.109375 38.703125 11.40625 
Q 43.21875 16.703125 43.21875 25.484375 
L 43.21875 27.484375 
z
M 52.203125 31.203125 
L 52.203125 0 
L 43.21875 0 
L 43.21875 8.296875 
Q 40.140625 3.328125 35.546875 0.953125 
Q 30.953125 -1.421875 24.3125 -1.421875 
Q 15.921875 -1.421875 10.953125 3.296875 
Q 6 8.015625 6 15.921875 
Q 6 25.140625 12.171875 29.828125 
Q 18.359375 34.515625 30.609375 34.515625 
L 43.21875 34.515625 
L 43.21875 35.40625 
Q 43.21875 41.609375 39.140625 45 
Q 35.0625 48.390625 27.6875 48.390625 
Q 23 48.390625 18.546875 47.265625 
Q 14.109375 46.140625 10.015625 43.890625 
L 10.015625 52.203125 
Q 14.9375 54.109375 19.578125 55.046875 
Q 24.21875 56 28.609375 56 
Q 40.484375 56 46.34375 49.84375 
Q 52.203125 43.703125 52.203125 31.203125 
z
" id="DejaVuSans-97"/>
       <path d="M 8.5 21.578125 
L 8.5 54.6875 
L 17.484375 54.6875 
L 17.484375 21.921875 
Q 17.484375 14.15625 20.5 10.265625 
Q 23.53125 6.390625 29.59375 6.390625 
Q 36.859375 6.390625 41.078125 11.03125 
Q 45.3125 15.671875 45.3125 23.6875 
L 45.3125 54.6875 
L 54.296875 54.6875 
L 54.296875 0 
L 45.3125 0 
L 45.3125 8.40625 
Q 42.046875 3.421875 37.71875 1 
Q 33.40625 -1.421875 27.6875 -1.421875 
Q 18.265625 -1.421875 13.375 4.4375 
Q 8.5 10.296875 8.5 21.578125 
z
M 31.109375 56 
z
" id="DejaVuSans-117"/>
       <path d="M 41.109375 46.296875 
Q 39.59375 47.171875 37.8125 47.578125 
Q 36.03125 48 33.890625 48 
Q 26.265625 48 22.1875 43.046875 
Q 18.109375 38.09375 18.109375 28.8125 
L 18.109375 0 
L 9.078125 0 
L 9.078125 54.6875 
L 18.109375 54.6875 
L 18.109375 46.1875 
Q 20.953125 51.171875 25.484375 53.578125 
Q 30.03125 56 36.53125 56 
Q 37.453125 56 38.578125 55.875 
Q 39.703125 55.765625 41.0625 55.515625 
z
" id="DejaVuSans-114"/>
       <path d="M 32.171875 -5.078125 
Q 28.375 -14.84375 24.75 -17.8125 
Q 21.140625 -20.796875 15.09375 -20.796875 
L 7.90625 -20.796875 
L 7.90625 -13.28125 
L 13.1875 -13.28125 
Q 16.890625 -13.28125 18.9375 -11.515625 
Q 21 -9.765625 23.484375 -3.21875 
L 25.09375 0.875 
L 2.984375 54.6875 
L 12.5 54.6875 
L 29.59375 11.921875 
L 46.6875 54.6875 
L 56.203125 54.6875 
z
" id="DejaVuSans-121"/>
      </defs>
      <use xlink:href="#DejaVuSans-97"/>
      <use x="61.279297" xlink:href="#DejaVuSans-99"/>
      <use x="116.259766" xlink:href="#DejaVuSans-99"/>
      <use x="171.240234" xlink:href="#DejaVuSans-117"/>
      <use x="234.619141" xlink:href="#DejaVuSans-114"/>
      <use x="275.732422" xlink:href="#DejaVuSans-97"/>
      <use x="337.011719" xlink:href="#DejaVuSans-99"/>
      <use x="391.992188" xlink:href="#DejaVuSans-121"/>
     </g>
    </g>
   </g>
   <g id="PathCollection_1">
    <defs>
     <path d="M 0 3 
C 0.795609 3 1.55874 2.683901 2.12132 2.12132 
C 2.683901 1.55874 3 0.795609 3 0 
C 3 -0.795609 2.683901 -1.55874 2.12132 -2.12132 
C 1.55874 -2.683901 0.795609 -3 0 -3 
C -0.795609 -3 -1.55874 -2.683901 -2.12132 -2.12132 
C -2.683901 -1.55874 -3 -0.795609 -3 0 
C -3 0.795609 -2.683901 1.55874 -2.12132 2.12132 
C -1.55874 2.683901 -0.795609 3 0 3 
z
" id="mdaa07e3a2f" style="stroke:#e24a33;stroke-opacity:0.8;"/>
    </defs>
    <g clip-path="url(#p13fad5b9dc)">
     <use style="fill:#e24a33;fill-opacity:0.8;stroke:#e24a33;stroke-opacity:0.8;" x="58.441875" xlink:href="#mdaa07e3a2f" y="209.364672"/>
     <use style="fill:#e24a33;fill-opacity:0.8;stroke:#e24a33;stroke-opacity:0.8;" x="89.257973" xlink:href="#mdaa07e3a2f" y="82.531415"/>
     <use style="fill:#e24a33;fill-opacity:0.8;stroke:#e24a33;stroke-opacity:0.8;" x="120.07407" xlink:href="#mdaa07e3a2f" y="120.965707"/>
     <use style="fill:#e24a33;fill-opacity:0.8;stroke:#e24a33;stroke-opacity:0.8;" x="150.890168" xlink:href="#mdaa07e3a2f" y="147.869621"/>
     <use style="fill:#e24a33;fill-opacity:0.8;stroke:#e24a33;stroke-opacity:0.8;" x="181.706265" xlink:href="#mdaa07e3a2f" y="140.182854"/>
     <use style="fill:#e24a33;fill-opacity:0.8;stroke:#e24a33;stroke-opacity:0.8;" x="212.522363" xlink:href="#mdaa07e3a2f" y="140.182854"/>
     <use style="fill:#e24a33;fill-opacity:0.8;stroke:#e24a33;stroke-opacity:0.8;" x="243.338461" xlink:href="#mdaa07e3a2f" y="159.4"/>
     <use style="fill:#e24a33;fill-opacity:0.8;stroke:#e24a33;stroke-opacity:0.8;" x="274.154558" xlink:href="#mdaa07e3a2f" y="109.435328"/>
     <use style="fill:#e24a33;fill-opacity:0.8;stroke:#e24a33;stroke-opacity:0.8;" x="304.970656" xlink:href="#mdaa07e3a2f" y="120.965707"/>
     <use style="fill:#e24a33;fill-opacity:0.8;stroke:#e24a33;stroke-opacity:0.8;" x="335.786753" xlink:href="#mdaa07e3a2f" y="128.652474"/>
    </g>
   </g>
   <g id="PolyCollection_1">
    <path clip-path="url(#p13fad5b9dc)" d="M 58.441875 93.418365 
L 58.441875 198.362325 
L 61.243338 197.456476 
L 64.044802 196.550626 
L 66.846265 195.644776 
L 69.647729 194.738927 
L 72.449192 193.833077 
L 75.250656 192.927227 
L 78.052119 192.014514 
L 80.853582 191.086712 
L 83.655046 190.15891 
L 86.456509 189.231108 
L 89.257973 188.300926 
L 92.059436 187.189469 
L 94.860899 186.072544 
L 97.662363 184.951691 
L 100.463826 183.930932 
L 103.26529 183.10287 
L 106.066753 182.281293 
L 108.868217 181.444068 
L 111.66968 180.633485 
L 114.471143 179.811021 
L 117.272607 178.987347 
L 120.07407 178.090504 
L 122.875534 177.161999 
L 125.676997 176.075863 
L 128.47846 175.267789 
L 131.279924 174.378167 
L 134.081387 173.43575 
L 136.882851 172.36019 
L 139.684314 171.288381 
L 142.485778 170.217471 
L 145.287241 169.288608 
L 148.088704 168.466958 
L 150.890168 167.645307 
L 153.691631 166.823656 
L 156.493095 166.002005 
L 159.294558 165.0936 
L 162.096021 164.166256 
L 164.897485 163.242314 
L 167.698948 162.316671 
L 170.500412 161.439414 
L 173.301875 160.644573 
L 176.103339 159.84785 
L 178.904802 158.977585 
L 181.706265 158.247328 
L 184.507729 157.473443 
L 187.309192 156.6414 
L 190.110656 155.654969 
L 192.912119 154.932155 
L 195.713583 154.132011 
L 198.515046 153.267752 
L 201.316509 152.402306 
L 204.117973 152.047478 
L 206.919436 151.329854 
L 209.7209 150.556075 
L 212.522363 150.072734 
L 215.323826 149.854606 
L 218.12529 149.353113 
L 220.926753 148.531919 
L 223.728217 147.818941 
L 226.52968 147.065386 
L 229.331144 146.536586 
L 232.132607 146.368205 
L 234.93407 146.187971 
L 237.735534 145.757878 
L 240.536997 145.870342 
L 243.338461 145.617688 
L 246.139924 145.171828 
L 248.941387 145.015586 
L 251.742851 145.265032 
L 254.544314 145.614575 
L 257.345778 146.132218 
L 260.147241 146.71011 
L 262.948705 147.138372 
L 265.750168 147.671542 
L 268.551631 148.19675 
L 271.353095 148.715595 
L 274.154558 149.234439 
L 276.956022 149.753284 
L 279.757485 150.272128 
L 282.558949 150.849281 
L 285.360412 151.410017 
L 288.161875 151.94798 
L 290.963339 152.474577 
L 293.764802 152.866352 
L 296.566266 153.385196 
L 299.367729 153.904041 
L 302.169192 154.422885 
L 304.970656 154.94173 
L 307.772119 155.460575 
L 310.573583 155.979419 
L 313.375046 156.498264 
L 316.17651 157.017109 
L 318.977973 157.697265 
L 321.779436 158.344184 
L 324.5809 158.882469 
L 327.382363 159.420754 
L 330.183827 159.95904 
L 332.98529 160.543786 
L 335.786753 161.159064 
L 335.786753 96.152087 
L 335.786753 96.152087 
L 332.98529 97.112672 
L 330.183827 98.106597 
L 327.382363 99.181249 
L 324.5809 100.253507 
L 321.779436 101.157146 
L 318.977973 102.046637 
L 316.17651 102.872355 
L 313.375046 103.818903 
L 310.573583 104.581666 
L 307.772119 105.094524 
L 304.970656 105.771517 
L 302.169192 106.544478 
L 299.367729 107.214744 
L 296.566266 107.944167 
L 293.764802 108.734879 
L 290.963339 109.390007 
L 288.161875 110.220514 
L 285.360412 110.920336 
L 282.558949 111.746776 
L 279.757485 112.373705 
L 276.956022 113.051536 
L 274.154558 113.850477 
L 271.353095 114.769418 
L 268.551631 115.490352 
L 265.750168 116.126518 
L 262.948705 116.728402 
L 260.147241 117.193136 
L 257.345778 117.605706 
L 254.544314 117.981736 
L 251.742851 118.279575 
L 248.941387 118.519848 
L 246.139924 118.559433 
L 243.338461 118.716608 
L 240.536997 118.836992 
L 237.735534 118.97343 
L 234.93407 118.906239 
L 232.132607 118.960729 
L 229.331144 118.86771 
L 226.52968 118.8501 
L 223.728217 118.969839 
L 220.926753 118.714744 
L 218.12529 118.761907 
L 215.323826 118.445659 
L 212.522363 118.267323 
L 209.7209 117.926099 
L 206.919436 117.575049 
L 204.117973 117.224 
L 201.316509 117.01035 
L 198.515046 116.89411 
L 195.713583 116.688744 
L 192.912119 116.312124 
L 190.110656 116.011734 
L 187.309192 115.652015 
L 184.507729 115.326607 
L 181.706265 114.971714 
L 178.904802 114.652429 
L 176.103339 114.315732 
L 173.301875 114.032725 
L 170.500412 113.658386 
L 167.698948 113.298189 
L 164.897485 112.957468 
L 162.096021 112.46696 
L 159.294558 112.060141 
L 156.493095 111.670865 
L 153.691631 111.267098 
L 150.890168 110.857242 
L 148.088704 110.317127 
L 145.287241 109.832901 
L 142.485778 109.479959 
L 139.684314 108.994791 
L 136.882851 108.566859 
L 134.081387 108.170347 
L 131.279924 107.776829 
L 128.47846 107.337754 
L 125.676997 106.756238 
L 122.875534 106.276486 
L 120.07407 105.918251 
L 117.272607 105.388511 
L 114.471143 104.906812 
L 111.66968 104.570665 
L 108.868217 104.165312 
L 106.066753 103.762073 
L 103.26529 103.033831 
L 100.463826 102.682706 
L 97.662363 101.832939 
L 94.860899 101.475976 
L 92.059436 101.124537 
L 89.257973 100.474649 
L 86.456509 99.774709 
L 83.655046 98.578158 
L 80.853582 97.953126 
L 78.052119 97.607695 
L 75.250656 97.069396 
L 72.449192 96.534243 
L 69.647729 95.883336 
L 66.846265 95.408498 
L 64.044802 94.951537 
L 61.243338 94.184951 
L 58.441875 93.418365 
z
" style="fill:#e24a33;fill-opacity:0.15;"/>
   </g>
   <g id="PathCollection_2">
    <defs>
     <path d="M 0 3 
C 0.795609 3 1.55874 2.683901 2.12132 2.12132 
C 2.683901 1.55874 3 0.795609 3 0 
C 3 -0.795609 2.683901 -1.55874 2.12132 -2.12132 
C 1.55874 -2.683901 0.795609 -3 0 -3 
C -0.795609 -3 -1.55874 -2.683901 -2.12132 -2.12132 
C -2.683901 -1.55874 -3 -0.795609 -3 0 
C -3 0.795609 -2.683901 1.55874 -2.12132 2.12132 
C -1.55874 2.683901 -0.795609 3 0 3 
z
" id="m16ae246292" style="stroke:#348abd;stroke-opacity:0.8;"/>
    </defs>
    <g clip-path="url(#p13fad5b9dc)">
     <use style="fill:#348abd;fill-opacity:0.8;stroke:#348abd;stroke-opacity:0.8;" x="58.441875" xlink:href="#m16ae246292" y="128.652474"/>
     <use style="fill:#348abd;fill-opacity:0.8;stroke:#348abd;stroke-opacity:0.8;" x="89.257973" xlink:href="#m16ae246292" y="136.339699"/>
     <use style="fill:#348abd;fill-opacity:0.8;stroke:#348abd;stroke-opacity:0.8;" x="120.07407" xlink:href="#m16ae246292" y="120.965707"/>
     <use style="fill:#348abd;fill-opacity:0.8;stroke:#348abd;stroke-opacity:0.8;" x="150.890168" xlink:href="#m16ae246292" y="197.834293"/>
     <use style="fill:#348abd;fill-opacity:0.8;stroke:#348abd;stroke-opacity:0.8;" x="181.706265" xlink:href="#m16ae246292" y="120.965707"/>
     <use style="fill:#348abd;fill-opacity:0.8;stroke:#348abd;stroke-opacity:0.8;" x="212.522363" xlink:href="#m16ae246292" y="109.435328"/>
     <use style="fill:#348abd;fill-opacity:0.8;stroke:#348abd;stroke-opacity:0.8;" x="243.338461" xlink:href="#m16ae246292" y="105.592174"/>
     <use style="fill:#348abd;fill-opacity:0.8;stroke:#348abd;stroke-opacity:0.8;" x="274.154558" xlink:href="#m16ae246292" y="90.218182"/>
     <use style="fill:#348abd;fill-opacity:0.8;stroke:#348abd;stroke-opacity:0.8;" x="304.970656" xlink:href="#m16ae246292" y="63.314269"/>
     <use style="fill:#348abd;fill-opacity:0.8;stroke:#348abd;stroke-opacity:0.8;" x="335.786753" xlink:href="#m16ae246292" y="94.061794"/>
    </g>
   </g>
   <g id="PolyCollection_2">
    <path clip-path="url(#p13fad5b9dc)" d="M 58.441875 130.661116 
L 58.441875 211.332845 
L 61.243338 209.856249 
L 64.044802 208.242551 
L 66.846265 206.628853 
L 69.647729 205.015156 
L 72.449192 203.401458 
L 75.250656 201.782924 
L 78.052119 200.160857 
L 80.853582 198.538791 
L 83.655046 196.916724 
L 86.456509 195.294658 
L 89.257973 193.721529 
L 92.059436 192.057843 
L 94.860899 190.442145 
L 97.662363 188.826447 
L 100.463826 187.210749 
L 103.26529 185.730061 
L 106.066753 184.296345 
L 108.868217 182.862629 
L 111.66968 181.428913 
L 114.471143 179.995197 
L 117.272607 178.56148 
L 120.07407 177.127764 
L 122.875534 175.700036 
L 125.676997 174.274524 
L 128.47846 172.847717 
L 131.279924 171.408433 
L 134.081387 169.96915 
L 136.882851 168.248588 
L 139.684314 166.567658 
L 142.485778 165.058278 
L 145.287241 163.548897 
L 148.088704 162.039517 
L 150.890168 160.530137 
L 153.691631 159.020756 
L 156.493095 157.511376 
L 159.294558 156.001995 
L 162.096021 154.492615 
L 164.897485 152.983234 
L 167.698948 151.766448 
L 170.500412 151.097404 
L 173.301875 149.729188 
L 176.103339 148.497023 
L 178.904802 147.136176 
L 181.706265 145.799939 
L 184.507729 144.591396 
L 187.309192 143.396173 
L 190.110656 142.285817 
L 192.912119 141.076984 
L 195.713583 139.861775 
L 198.515046 138.776451 
L 201.316509 137.516912 
L 204.117973 136.641733 
L 206.919436 135.468763 
L 209.7209 134.038829 
L 212.522363 132.656419 
L 215.323826 131.515958 
L 218.12529 130.365748 
L 220.926753 129.601465 
L 223.728217 128.149109 
L 226.52968 127.469242 
L 229.331144 126.342042 
L 232.132607 125.154527 
L 234.93407 124.324057 
L 237.735534 123.756646 
L 240.536997 122.658075 
L 243.338461 122.232573 
L 246.139924 121.818777 
L 248.941387 121.18363 
L 251.742851 120.027984 
L 254.544314 119.572909 
L 257.345778 118.859953 
L 260.147241 117.688775 
L 262.948705 116.910175 
L 265.750168 116.447496 
L 268.551631 115.804951 
L 271.353095 115.000831 
L 274.154558 114.466749 
L 276.956022 113.861298 
L 279.757485 113.358513 
L 282.558949 112.855728 
L 285.360412 112.352943 
L 288.161875 111.850158 
L 290.963339 111.347373 
L 293.764802 110.844588 
L 296.566266 110.356817 
L 299.367729 109.880447 
L 302.169192 109.404077 
L 304.970656 108.927707 
L 307.772119 108.447197 
L 310.573583 107.861104 
L 313.375046 107.325546 
L 316.17651 106.892316 
L 318.977973 106.459086 
L 321.779436 105.951231 
L 324.5809 105.308504 
L 327.382363 104.941668 
L 330.183827 104.597964 
L 332.98529 104.161348 
L 335.786753 103.687188 
L 335.786753 58.135061 
L 335.786753 58.135061 
L 332.98529 59.561528 
L 330.183827 60.69533 
L 327.382363 61.673093 
L 324.5809 63.061013 
L 321.779436 64.382926 
L 318.977973 65.95414 
L 316.17651 67.228061 
L 313.375046 68.497973 
L 310.573583 69.675967 
L 307.772119 70.606232 
L 304.970656 71.750098 
L 302.169192 72.63524 
L 299.367729 73.515001 
L 296.566266 74.666702 
L 293.764802 75.876827 
L 290.963339 76.932921 
L 288.161875 77.9377 
L 285.360412 78.905618 
L 282.558949 79.741537 
L 279.757485 80.864093 
L 276.956022 81.977216 
L 274.154558 83.010578 
L 271.353095 83.695546 
L 268.551631 84.870082 
L 265.750168 85.914004 
L 262.948705 86.712387 
L 260.147241 87.470425 
L 257.345778 88.208476 
L 254.544314 89.001248 
L 251.742851 89.728323 
L 248.941387 90.455399 
L 246.139924 91.182475 
L 243.338461 91.916359 
L 240.536997 92.655474 
L 237.735534 93.39459 
L 234.93407 94.133706 
L 232.132607 94.872925 
L 229.331144 95.656756 
L 226.52968 96.354643 
L 223.728217 97.101277 
L 220.926753 97.831576 
L 218.12529 98.602402 
L 215.323826 99.197454 
L 212.522363 99.900969 
L 209.7209 100.649888 
L 206.919436 101.356478 
L 204.117973 102.016602 
L 201.316509 102.678553 
L 198.515046 103.387897 
L 195.713583 104.030003 
L 192.912119 104.707049 
L 190.110656 105.36432 
L 187.309192 105.922941 
L 184.507729 106.483666 
L 181.706265 107.069534 
L 178.904802 107.694288 
L 176.103339 108.31652 
L 173.301875 108.9731 
L 170.500412 109.634092 
L 167.698948 110.295084 
L 164.897485 110.985647 
L 162.096021 111.689515 
L 159.294558 112.224681 
L 156.493095 112.788715 
L 153.691631 113.313873 
L 150.890168 113.893366 
L 148.088704 114.482303 
L 145.287241 115.034287 
L 142.485778 115.537311 
L 139.684314 116.118866 
L 136.882851 116.660605 
L 134.081387 117.143721 
L 131.279924 117.630918 
L 128.47846 118.364032 
L 125.676997 119.003417 
L 122.875534 119.537688 
L 120.07407 120.025884 
L 117.272607 120.64013 
L 114.471143 121.248937 
L 111.66968 121.712744 
L 108.868217 122.165166 
L 106.066753 122.636706 
L 103.26529 123.175993 
L 100.463826 123.650185 
L 97.662363 124.165199 
L 94.860899 124.633793 
L 92.059436 125.040899 
L 89.257973 125.467947 
L 86.456509 126.003103 
L 83.655046 126.482656 
L 80.853582 126.972409 
L 78.052119 127.434918 
L 75.250656 127.894757 
L 72.449192 128.356316 
L 69.647729 128.817099 
L 66.846265 129.277707 
L 64.044802 129.738843 
L 61.243338 130.19998 
L 58.441875 130.661116 
z
" style="fill:#348abd;fill-opacity:0.15;"/>
   </g>
   <g id="PathCollection_3">
    <defs>
     <path d="M 0 3 
C 0.795609 3 1.55874 2.683901 2.12132 2.12132 
C 2.683901 1.55874 3 0.795609 3 0 
C 3 -0.795609 2.683901 -1.55874 2.12132 -2.12132 
C 1.55874 -2.683901 0.795609 -3 0 -3 
C -0.795609 -3 -1.55874 -2.683901 -2.12132 -2.12132 
C -2.683901 -1.55874 -3 -0.795609 -3 0 
C -3 0.795609 -2.683901 1.55874 -2.12132 2.12132 
C -1.55874 2.683901 -0.795609 3 0 3 
z
" id="m840347c883" style="stroke:#988ed5;stroke-opacity:0.8;"/>
    </defs>
    <g clip-path="url(#p13fad5b9dc)">
     <use style="fill:#988ed5;fill-opacity:0.8;stroke:#988ed5;stroke-opacity:0.8;" x="58.441875" xlink:href="#m840347c883" y="128.652474"/>
     <use style="fill:#988ed5;fill-opacity:0.8;stroke:#988ed5;stroke-opacity:0.8;" x="89.257973" xlink:href="#m840347c883" y="217.051439"/>
     <use style="fill:#988ed5;fill-opacity:0.8;stroke:#988ed5;stroke-opacity:0.8;" x="120.07407" xlink:href="#m840347c883" y="124.80932"/>
     <use style="fill:#988ed5;fill-opacity:0.8;stroke:#988ed5;stroke-opacity:0.8;" x="150.890168" xlink:href="#m840347c883" y="97.904949"/>
     <use style="fill:#988ed5;fill-opacity:0.8;stroke:#988ed5;stroke-opacity:0.8;" x="181.706265" xlink:href="#m840347c883" y="151.713233"/>
     <use style="fill:#988ed5;fill-opacity:0.8;stroke:#988ed5;stroke-opacity:0.8;" x="212.522363" xlink:href="#m840347c883" y="159.4"/>
     <use style="fill:#988ed5;fill-opacity:0.8;stroke:#988ed5;stroke-opacity:0.8;" x="243.338461" xlink:href="#m840347c883" y="101.748561"/>
     <use style="fill:#988ed5;fill-opacity:0.8;stroke:#988ed5;stroke-opacity:0.8;" x="274.154558" xlink:href="#m840347c883" y="186.303913"/>
     <use style="fill:#988ed5;fill-opacity:0.8;stroke:#988ed5;stroke-opacity:0.8;" x="304.970656" xlink:href="#m840347c883" y="155.556846"/>
     <use style="fill:#988ed5;fill-opacity:0.8;stroke:#988ed5;stroke-opacity:0.8;" x="335.786753" xlink:href="#m840347c883" y="21.036364"/>
    </g>
   </g>
   <g id="PolyCollection_3">
    <path clip-path="url(#p13fad5b9dc)" d="M 58.441875 99.076309 
L 58.441875 231.053635 
L 61.243338 229.403306 
L 64.044802 227.856583 
L 66.846265 226.291637 
L 69.647729 224.736353 
L 72.449192 222.930842 
L 75.250656 221.535126 
L 78.052119 220.164578 
L 80.853582 218.512765 
L 83.655046 216.609106 
L 86.456509 214.705447 
L 89.257973 212.801788 
L 92.059436 211.067909 
L 94.860899 209.493632 
L 97.662363 207.919355 
L 100.463826 206.345077 
L 103.26529 204.7708 
L 106.066753 203.282958 
L 108.868217 202.050735 
L 111.66968 200.818512 
L 114.471143 199.586289 
L 117.272607 198.350068 
L 120.07407 197.114975 
L 122.875534 195.58617 
L 125.676997 194.055546 
L 128.47846 192.517563 
L 131.279924 190.979581 
L 134.081387 189.441598 
L 136.882851 187.903616 
L 139.684314 186.365633 
L 142.485778 184.912501 
L 145.287241 183.460017 
L 148.088704 182.029492 
L 150.890168 180.287044 
L 153.691631 179.045447 
L 156.493095 177.925506 
L 159.294558 176.902204 
L 162.096021 176.025654 
L 164.897485 174.466462 
L 167.698948 173.503454 
L 170.500412 172.369238 
L 173.301875 171.635327 
L 176.103339 171.130229 
L 178.904802 169.691799 
L 181.706265 168.255687 
L 184.507729 167.302539 
L 187.309192 166.746498 
L 190.110656 166.213639 
L 192.912119 165.214524 
L 195.713583 164.528342 
L 198.515046 164.490545 
L 201.316509 164.239393 
L 204.117973 163.818411 
L 206.919436 164.066945 
L 209.7209 164.308769 
L 212.522363 164.326706 
L 215.323826 163.993957 
L 218.12529 164.088994 
L 220.926753 163.957023 
L 223.728217 163.914438 
L 226.52968 164.173693 
L 229.331144 164.37951 
L 232.132607 164.798529 
L 234.93407 165.242555 
L 237.735534 165.690704 
L 240.536997 166.070692 
L 243.338461 166.916733 
L 246.139924 167.549792 
L 248.941387 167.913572 
L 251.742851 167.988687 
L 254.544314 168.198441 
L 257.345778 168.40467 
L 260.147241 168.610236 
L 262.948705 169.099561 
L 265.750168 169.498317 
L 268.551631 169.878618 
L 271.353095 170.20051 
L 274.154558 170.654707 
L 276.956022 171.155296 
L 279.757485 171.857536 
L 282.558949 172.714573 
L 285.360412 173.504899 
L 288.161875 174.295226 
L 290.963339 175.078913 
L 293.764802 175.858112 
L 296.566266 176.637311 
L 299.367729 177.41651 
L 302.169192 178.195709 
L 304.970656 178.974908 
L 307.772119 179.754107 
L 310.573583 180.533306 
L 313.375046 181.312506 
L 316.17651 182.091705 
L 318.977973 182.78283 
L 321.779436 183.465298 
L 324.5809 183.912648 
L 327.382363 184.795524 
L 330.183827 185.252982 
L 332.98529 185.838189 
L 335.786753 186.419352 
L 335.786753 41.05026 
L 335.786753 41.05026 
L 332.98529 43.611797 
L 330.183827 45.502281 
L 327.382363 47.017819 
L 324.5809 48.517085 
L 321.779436 50.123068 
L 318.977973 51.993185 
L 316.17651 53.51648 
L 313.375046 54.791783 
L 310.573583 56.56307 
L 307.772119 58.061041 
L 304.970656 59.345884 
L 302.169192 60.495493 
L 299.367729 61.754787 
L 296.566266 63.513686 
L 293.764802 65.06364 
L 290.963339 66.354699 
L 288.161875 67.229455 
L 285.360412 68.568745 
L 282.558949 69.501694 
L 279.757485 71.432983 
L 276.956022 72.751671 
L 274.154558 74.11811 
L 271.353095 75.170112 
L 268.551631 76.450252 
L 265.750168 77.266545 
L 262.948705 78.312221 
L 260.147241 79.360749 
L 257.345778 80.44392 
L 254.544314 81.452446 
L 251.742851 82.642873 
L 248.941387 83.747131 
L 246.139924 85.290641 
L 243.338461 86.433513 
L 240.536997 87.585252 
L 237.735534 88.593093 
L 234.93407 89.596245 
L 232.132607 90.772681 
L 229.331144 91.969804 
L 226.52968 92.799915 
L 223.728217 94.013694 
L 220.926753 94.95085 
L 218.12529 96.287044 
L 215.323826 97.657745 
L 212.522363 98.611492 
L 209.7209 99.565239 
L 206.919436 100.49878 
L 204.117973 101.472733 
L 201.316509 102.460272 
L 198.515046 103.557334 
L 195.713583 104.567558 
L 192.912119 105.259578 
L 190.110656 106.220268 
L 187.309192 107.170449 
L 184.507729 108.126252 
L 181.706265 109.372923 
L 178.904802 110.535308 
L 176.103339 111.079895 
L 173.301875 111.930566 
L 170.500412 112.866416 
L 167.698948 113.648344 
L 164.897485 114.209829 
L 162.096021 114.71412 
L 159.294558 115.248989 
L 156.493095 115.326331 
L 153.691631 115.56951 
L 150.890168 116.073607 
L 148.088704 116.327758 
L 145.287241 116.008028 
L 142.485778 115.879604 
L 139.684314 116.100957 
L 136.882851 116.456548 
L 134.081387 116.550478 
L 131.279924 115.935834 
L 128.47846 115.946485 
L 125.676997 115.533537 
L 122.875534 115.122529 
L 120.07407 114.53415 
L 117.272607 113.952973 
L 114.471143 112.966004 
L 111.66968 111.951627 
L 108.868217 111.115194 
L 106.066753 110.696209 
L 103.26529 109.866003 
L 100.463826 109.092295 
L 97.662363 108.464349 
L 94.860899 107.836403 
L 92.059436 107.209914 
L 89.257973 106.587351 
L 86.456509 105.964788 
L 83.655046 105.342225 
L 80.853582 104.719661 
L 78.052119 104.097098 
L 75.250656 103.245475 
L 72.449192 102.242524 
L 69.647729 101.616514 
L 66.846265 100.99563 
L 64.044802 100.346597 
L 61.243338 99.594097 
L 58.441875 99.076309 
z
" style="fill:#988ed5;fill-opacity:0.15;"/>
   </g>
   <g id="PathCollection_4">
    <defs>
     <path d="M 0 3 
C 0.795609 3 1.55874 2.683901 2.12132 2.12132 
C 2.683901 1.55874 3 0.795609 3 0 
C 3 -0.795609 2.683901 -1.55874 2.12132 -2.12132 
C 1.55874 -2.683901 0.795609 -3 0 -3 
C -0.795609 -3 -1.55874 -2.683901 -2.12132 -2.12132 
C -2.683901 -1.55874 -3 -0.795609 -3 0 
C -3 0.795609 -2.683901 1.55874 -2.12132 2.12132 
C -1.55874 2.683901 -0.795609 3 0 3 
z
" id="m39d771b55a" style="stroke:#777777;stroke-opacity:0.8;"/>
    </defs>
    <g clip-path="url(#p13fad5b9dc)">
     <use style="fill:#777777;fill-opacity:0.8;stroke:#777777;stroke-opacity:0.8;" x="58.441875" xlink:href="#m39d771b55a" y="220.895051"/>
     <use style="fill:#777777;fill-opacity:0.8;stroke:#777777;stroke-opacity:0.8;" x="89.257973" xlink:href="#m39d771b55a" y="174.773992"/>
     <use style="fill:#777777;fill-opacity:0.8;stroke:#777777;stroke-opacity:0.8;" x="120.07407" xlink:href="#m39d771b55a" y="201.677905"/>
     <use style="fill:#777777;fill-opacity:0.8;stroke:#777777;stroke-opacity:0.8;" x="150.890168" xlink:href="#m39d771b55a" y="297.763636"/>
     <use style="fill:#777777;fill-opacity:0.8;stroke:#777777;stroke-opacity:0.8;" x="181.706265" xlink:href="#m39d771b55a" y="190.147526"/>
     <use style="fill:#777777;fill-opacity:0.8;stroke:#777777;stroke-opacity:0.8;" x="212.522363" xlink:href="#m39d771b55a" y="267.016111"/>
     <use style="fill:#777777;fill-opacity:0.8;stroke:#777777;stroke-opacity:0.8;" x="243.338461" xlink:href="#m39d771b55a" y="220.895051"/>
     <use style="fill:#777777;fill-opacity:0.8;stroke:#777777;stroke-opacity:0.8;" x="274.154558" xlink:href="#m39d771b55a" y="155.556846"/>
     <use style="fill:#777777;fill-opacity:0.8;stroke:#777777;stroke-opacity:0.8;" x="304.970656" xlink:href="#m39d771b55a" y="163.243613"/>
     <use style="fill:#777777;fill-opacity:0.8;stroke:#777777;stroke-opacity:0.8;" x="335.786753" xlink:href="#m39d771b55a" y="236.268585"/>
    </g>
   </g>
   <g id="PolyCollection_4">
    <path clip-path="url(#p13fad5b9dc)" d="M 58.441875 179.779909 
L 58.441875 292.484777 
L 61.243338 291.474729 
L 64.044802 290.266821 
L 66.846265 289.047243 
L 69.647729 287.823282 
L 72.449192 286.598548 
L 75.250656 285.373814 
L 78.052119 284.149081 
L 80.853582 282.924347 
L 83.655046 281.699613 
L 86.456509 280.577336 
L 89.257973 279.42068 
L 92.059436 278.025411 
L 94.860899 276.800678 
L 97.662363 275.575944 
L 100.463826 274.35121 
L 103.26529 273.126476 
L 106.066753 271.901742 
L 108.868217 270.744804 
L 111.66968 269.855824 
L 114.471143 268.976213 
L 117.272607 267.711483 
L 120.07407 266.508934 
L 122.875534 265.385818 
L 125.676997 264.467041 
L 128.47846 263.548264 
L 131.279924 262.629487 
L 134.081387 261.710709 
L 136.882851 260.791932 
L 139.684314 259.873155 
L 142.485778 259.236583 
L 145.287241 259.291793 
L 148.088704 258.299347 
L 150.890168 256.867615 
L 153.691631 255.817815 
L 156.493095 255.319536 
L 159.294558 254.886148 
L 162.096021 254.164692 
L 164.897485 252.864179 
L 167.698948 251.546849 
L 170.500412 250.24042 
L 173.301875 250.480649 
L 176.103339 250.305109 
L 178.904802 249.302549 
L 181.706265 248.299989 
L 184.507729 247.297429 
L 187.309192 247.256471 
L 190.110656 246.327934 
L 192.912119 246.744777 
L 195.713583 245.172763 
L 198.515046 244.95584 
L 201.316509 244.656282 
L 204.117973 244.481954 
L 206.919436 244.306475 
L 209.7209 244.147061 
L 212.522363 244.038601 
L 215.323826 243.849384 
L 218.12529 243.632431 
L 220.926753 243.816369 
L 223.728217 244.070762 
L 226.52968 244.283796 
L 229.331144 244.104982 
L 232.132607 244.475377 
L 234.93407 244.540358 
L 237.735534 243.549004 
L 240.536997 244.069575 
L 243.338461 244.590145 
L 246.139924 244.938637 
L 248.941387 245.02477 
L 251.742851 245.110903 
L 254.544314 245.632484 
L 257.345778 246.456906 
L 260.147241 247.278184 
L 262.948705 247.606318 
L 265.750168 247.870286 
L 268.551631 248.129365 
L 271.353095 248.38458 
L 274.154558 248.639795 
L 276.956022 248.89501 
L 279.757485 249.150225 
L 282.558949 249.40544 
L 285.360412 249.660655 
L 288.161875 249.91587 
L 290.963339 250.171085 
L 293.764802 250.4263 
L 296.566266 250.681515 
L 299.367729 250.942654 
L 302.169192 251.598874 
L 304.970656 252.277007 
L 307.772119 252.955141 
L 310.573583 253.633274 
L 313.375046 254.311407 
L 316.17651 254.98954 
L 318.977973 255.667673 
L 321.779436 256.341582 
L 324.5809 256.202567 
L 327.382363 256.15606 
L 330.183827 256.721392 
L 332.98529 257.513192 
L 335.786753 258.412119 
L 335.786753 155.822363 
L 335.786753 155.822363 
L 332.98529 156.800396 
L 330.183827 157.916903 
L 327.382363 158.965582 
L 324.5809 159.931299 
L 321.779436 160.495197 
L 318.977973 161.43597 
L 316.17651 162.228882 
L 313.375046 163.123961 
L 310.573583 163.881397 
L 307.772119 164.64007 
L 304.970656 165.307524 
L 302.169192 165.806332 
L 299.367729 166.32467 
L 296.566266 167.201097 
L 293.764802 167.811467 
L 290.963339 168.63807 
L 288.161875 169.363835 
L 285.360412 170.276007 
L 282.558949 171.369121 
L 279.757485 172.375997 
L 276.956022 173.372857 
L 274.154558 174.28225 
L 271.353095 175.383569 
L 268.551631 176.381131 
L 265.750168 177.135757 
L 262.948705 177.81292 
L 260.147241 178.286439 
L 257.345778 178.758987 
L 254.544314 179.842901 
L 251.742851 180.070698 
L 248.941387 180.650971 
L 246.139924 181.062724 
L 243.338461 181.477553 
L 240.536997 182.290504 
L 237.735534 183.012157 
L 234.93407 183.515592 
L 232.132607 184.022944 
L 229.331144 184.543421 
L 226.52968 185.328408 
L 223.728217 185.697132 
L 220.926753 186.065856 
L 218.12529 186.43019 
L 215.323826 186.680554 
L 212.522363 186.784004 
L 209.7209 186.981693 
L 206.919436 187.164507 
L 204.117973 187.183381 
L 201.316509 187.587194 
L 198.515046 187.79121 
L 195.713583 187.608104 
L 192.912119 187.540196 
L 190.110656 187.42395 
L 187.309192 187.381322 
L 184.507729 187.591389 
L 181.706265 187.456646 
L 178.904802 187.573761 
L 176.103339 187.80704 
L 173.301875 188.279567 
L 170.500412 188.318589 
L 167.698948 187.70563 
L 164.897485 187.22142 
L 162.096021 187.900285 
L 159.294558 187.635948 
L 156.493095 187.379111 
L 153.691631 187.617034 
L 150.890168 187.982908 
L 148.088704 187.958048 
L 145.287241 187.765429 
L 142.485778 187.534567 
L 139.684314 187.321945 
L 136.882851 187.144101 
L 134.081387 186.999886 
L 131.279924 187.107974 
L 128.47846 187.068348 
L 125.676997 186.890666 
L 122.875534 186.574207 
L 120.07407 186.403707 
L 117.272607 186.241929 
L 114.471143 185.752863 
L 111.66968 185.293989 
L 108.868217 184.972004 
L 106.066753 184.65451 
L 103.26529 184.97997 
L 100.463826 184.734768 
L 97.662363 183.966336 
L 94.860899 183.745146 
L 92.059436 183.5245 
L 89.257973 183.335203 
L 86.456509 183.072249 
L 83.655046 182.851086 
L 80.853582 182.629923 
L 78.052119 182.384211 
L 75.250656 182.155264 
L 72.449192 181.947011 
L 69.647729 181.512812 
L 66.846265 181.080462 
L 64.044802 180.733347 
L 61.243338 180.457951 
L 58.441875 179.779909 
z
" style="fill:#777777;fill-opacity:0.15;"/>
   </g>
   <g id="line2d_35">
    <path clip-path="url(#p13fad5b9dc)" d="M 58.441875 149.057713 
L 61.243338 148.793013 
L 64.044802 148.528313 
L 66.846265 148.263613 
L 69.647729 147.998913 
L 72.449192 147.734213 
L 75.250656 147.469513 
L 78.052119 147.204813 
L 80.853582 146.940113 
L 83.655046 146.675413 
L 86.456509 146.410713 
L 89.257973 146.146013 
L 92.059436 145.881313 
L 94.860899 145.616613 
L 97.662363 145.351913 
L 100.463826 145.087213 
L 103.26529 144.822513 
L 106.066753 144.557813 
L 108.868217 144.293113 
L 111.66968 144.028413 
L 114.471143 143.763713 
L 117.272607 143.499013 
L 120.07407 143.234313 
L 122.875534 142.969613 
L 125.676997 142.704913 
L 128.47846 142.440213 
L 131.279924 142.175513 
L 134.081387 141.910813 
L 136.882851 141.646113 
L 139.684314 141.381413 
L 142.485778 141.116713 
L 145.287241 140.852013 
L 148.088704 140.587313 
L 150.890168 140.322613 
L 153.691631 140.057913 
L 156.493095 139.793213 
L 159.294558 139.528513 
L 162.096021 139.263813 
L 164.897485 138.999113 
L 167.698948 138.734413 
L 170.500412 138.469713 
L 173.301875 138.205013 
L 176.103339 137.940313 
L 178.904802 137.675613 
L 181.706265 137.410913 
L 184.507729 137.146213 
L 187.309192 136.881513 
L 190.110656 136.616813 
L 192.912119 136.352113 
L 195.713583 136.087413 
L 198.515046 135.822713 
L 201.316509 135.558013 
L 204.117973 135.293313 
L 206.919436 135.028613 
L 209.7209 134.763913 
L 212.522363 134.499213 
L 215.323826 134.234513 
L 218.12529 133.969813 
L 220.926753 133.705113 
L 223.728217 133.440413 
L 226.52968 133.175713 
L 229.331144 132.911013 
L 232.132607 132.646313 
L 234.93407 132.381613 
L 237.735534 132.116913 
L 240.536997 131.852213 
L 243.338461 131.587513 
L 246.139924 131.322813 
L 248.941387 131.058113 
L 251.742851 130.793413 
L 254.544314 130.528713 
L 257.345778 130.264013 
L 260.147241 129.999313 
L 262.948705 129.734613 
L 265.750168 129.469913 
L 268.551631 129.205213 
L 271.353095 128.940513 
L 274.154558 128.675813 
L 276.956022 128.411113 
L 279.757485 128.146413 
L 282.558949 127.881713 
L 285.360412 127.617013 
L 288.161875 127.352313 
L 290.963339 127.087613 
L 293.764802 126.822913 
L 296.566266 126.558213 
L 299.367729 126.293513 
L 302.169192 126.028813 
L 304.970656 125.764113 
L 307.772119 125.499413 
L 310.573583 125.234713 
L 313.375046 124.970013 
L 316.17651 124.705313 
L 318.977973 124.440613 
L 321.779436 124.175913 
L 324.5809 123.911214 
L 327.382363 123.646514 
L 330.183827 123.381814 
L 332.98529 123.117114 
L 335.786753 122.852414 
" style="fill:none;stroke:#e24a33;stroke-linecap:square;stroke-width:2.25;"/>
   </g>
   <g id="line2d_36">
    <path clip-path="url(#p13fad5b9dc)" d="M 58.441875 151.224013 
L 61.243338 150.527325 
L 64.044802 149.830637 
L 66.846265 149.133949 
L 69.647729 148.437261 
L 72.449192 147.740573 
L 75.250656 147.043885 
L 78.052119 146.347198 
L 80.853582 145.65051 
L 83.655046 144.953822 
L 86.456509 144.257134 
L 89.257973 143.560446 
L 92.059436 142.863758 
L 94.860899 142.16707 
L 97.662363 141.470382 
L 100.463826 140.773695 
L 103.26529 140.077007 
L 106.066753 139.380319 
L 108.868217 138.683631 
L 111.66968 137.986943 
L 114.471143 137.290255 
L 117.272607 136.593567 
L 120.07407 135.896879 
L 122.875534 135.200192 
L 125.676997 134.503504 
L 128.47846 133.806816 
L 131.279924 133.110128 
L 134.081387 132.41344 
L 136.882851 131.716752 
L 139.684314 131.020064 
L 142.485778 130.323376 
L 145.287241 129.626689 
L 148.088704 128.930001 
L 150.890168 128.233313 
L 153.691631 127.536625 
L 156.493095 126.839937 
L 159.294558 126.143249 
L 162.096021 125.446561 
L 164.897485 124.749873 
L 167.698948 124.053186 
L 170.500412 123.356498 
L 173.301875 122.65981 
L 176.103339 121.963122 
L 178.904802 121.266434 
L 181.706265 120.569746 
L 184.507729 119.873058 
L 187.309192 119.17637 
L 190.110656 118.479682 
L 192.912119 117.782995 
L 195.713583 117.086307 
L 198.515046 116.389619 
L 201.316509 115.692931 
L 204.117973 114.996243 
L 206.919436 114.299555 
L 209.7209 113.602867 
L 212.522363 112.906179 
L 215.323826 112.209492 
L 218.12529 111.512804 
L 220.926753 110.816116 
L 223.728217 110.119428 
L 226.52968 109.42274 
L 229.331144 108.726052 
L 232.132607 108.029364 
L 234.93407 107.332676 
L 237.735534 106.635989 
L 240.536997 105.939301 
L 243.338461 105.242613 
L 246.139924 104.545925 
L 248.941387 103.849237 
L 251.742851 103.152549 
L 254.544314 102.455861 
L 257.345778 101.759173 
L 260.147241 101.062486 
L 262.948705 100.365798 
L 265.750168 99.66911 
L 268.551631 98.972422 
L 271.353095 98.275734 
L 274.154558 97.579046 
L 276.956022 96.882358 
L 279.757485 96.18567 
L 282.558949 95.488982 
L 285.360412 94.792295 
L 288.161875 94.095607 
L 290.963339 93.398919 
L 293.764802 92.702231 
L 296.566266 92.005543 
L 299.367729 91.308855 
L 302.169192 90.612167 
L 304.970656 89.915479 
L 307.772119 89.218792 
L 310.573583 88.522104 
L 313.375046 87.825416 
L 316.17651 87.128728 
L 318.977973 86.43204 
L 321.779436 85.735352 
L 324.5809 85.038664 
L 327.382363 84.341976 
L 330.183827 83.645289 
L 332.98529 82.948601 
L 335.786753 82.251913 
" style="fill:none;stroke:#348abd;stroke-linecap:square;stroke-width:2.25;"/>
   </g>
   <g id="line2d_37">
    <path clip-path="url(#p13fad5b9dc)" d="M 58.441875 163.662707 
L 61.243338 163.071899 
L 64.044802 162.481091 
L 66.846265 161.890283 
L 69.647729 161.299475 
L 72.449192 160.708667 
L 75.250656 160.117859 
L 78.052119 159.527051 
L 80.853582 158.936243 
L 83.655046 158.345435 
L 86.456509 157.754627 
L 89.257973 157.163819 
L 92.059436 156.573011 
L 94.860899 155.982203 
L 97.662363 155.391395 
L 100.463826 154.800587 
L 103.26529 154.209779 
L 106.066753 153.618971 
L 108.868217 153.028163 
L 111.66968 152.437355 
L 114.471143 151.846547 
L 117.272607 151.255739 
L 120.07407 150.664931 
L 122.875534 150.074123 
L 125.676997 149.483315 
L 128.47846 148.892507 
L 131.279924 148.301699 
L 134.081387 147.710891 
L 136.882851 147.120083 
L 139.684314 146.529275 
L 142.485778 145.938466 
L 145.287241 145.347658 
L 148.088704 144.75685 
L 150.890168 144.166042 
L 153.691631 143.575234 
L 156.493095 142.984426 
L 159.294558 142.393618 
L 162.096021 141.80281 
L 164.897485 141.212002 
L 167.698948 140.621194 
L 170.500412 140.030386 
L 173.301875 139.439578 
L 176.103339 138.84877 
L 178.904802 138.257962 
L 181.706265 137.667154 
L 184.507729 137.076346 
L 187.309192 136.485538 
L 190.110656 135.89473 
L 192.912119 135.303922 
L 195.713583 134.713114 
L 198.515046 134.122306 
L 201.316509 133.531498 
L 204.117973 132.94069 
L 206.919436 132.349882 
L 209.7209 131.759074 
L 212.522363 131.168266 
L 215.323826 130.577458 
L 218.12529 129.98665 
L 220.926753 129.395842 
L 223.728217 128.805034 
L 226.52968 128.214226 
L 229.331144 127.623417 
L 232.132607 127.032609 
L 234.93407 126.441801 
L 237.735534 125.850993 
L 240.536997 125.260185 
L 243.338461 124.669377 
L 246.139924 124.078569 
L 248.941387 123.487761 
L 251.742851 122.896953 
L 254.544314 122.306145 
L 257.345778 121.715337 
L 260.147241 121.124529 
L 262.948705 120.533721 
L 265.750168 119.942913 
L 268.551631 119.352105 
L 271.353095 118.761297 
L 274.154558 118.170489 
L 276.956022 117.579681 
L 279.757485 116.988873 
L 282.558949 116.398065 
L 285.360412 115.807257 
L 288.161875 115.216449 
L 290.963339 114.625641 
L 293.764802 114.034833 
L 296.566266 113.444025 
L 299.367729 112.853217 
L 302.169192 112.262409 
L 304.970656 111.671601 
L 307.772119 111.080793 
L 310.573583 110.489985 
L 313.375046 109.899177 
L 316.17651 109.308368 
L 318.977973 108.71756 
L 321.779436 108.126752 
L 324.5809 107.535944 
L 327.382363 106.945136 
L 330.183827 106.354328 
L 332.98529 105.76352 
L 335.786753 105.172712 
" style="fill:none;stroke:#988ed5;stroke-linecap:square;stroke-width:2.25;"/>
   </g>
   <g id="line2d_38">
    <path clip-path="url(#p13fad5b9dc)" d="M 58.441875 221.733649 
L 61.243338 221.553653 
L 64.044802 221.373657 
L 66.846265 221.19366 
L 69.647729 221.013664 
L 72.449192 220.833668 
L 75.250656 220.653671 
L 78.052119 220.473675 
L 80.853582 220.293679 
L 83.655046 220.113682 
L 86.456509 219.933686 
L 89.257973 219.75369 
L 92.059436 219.573694 
L 94.860899 219.393697 
L 97.662363 219.213701 
L 100.463826 219.033705 
L 103.26529 218.853708 
L 106.066753 218.673712 
L 108.868217 218.493716 
L 111.66968 218.313719 
L 114.471143 218.133723 
L 117.272607 217.953727 
L 120.07407 217.77373 
L 122.875534 217.593734 
L 125.676997 217.413738 
L 128.47846 217.233741 
L 131.279924 217.053745 
L 134.081387 216.873749 
L 136.882851 216.693752 
L 139.684314 216.513756 
L 142.485778 216.33376 
L 145.287241 216.153763 
L 148.088704 215.973767 
L 150.890168 215.793771 
L 153.691631 215.613774 
L 156.493095 215.433778 
L 159.294558 215.253782 
L 162.096021 215.073786 
L 164.897485 214.893789 
L 167.698948 214.713793 
L 170.500412 214.533797 
L 173.301875 214.3538 
L 176.103339 214.173804 
L 178.904802 213.993808 
L 181.706265 213.813811 
L 184.507729 213.633815 
L 187.309192 213.453819 
L 190.110656 213.273822 
L 192.912119 213.093826 
L 195.713583 212.91383 
L 198.515046 212.733833 
L 201.316509 212.553837 
L 204.117973 212.373841 
L 206.919436 212.193844 
L 209.7209 212.013848 
L 212.522363 211.833852 
L 215.323826 211.653855 
L 218.12529 211.473859 
L 220.926753 211.293863 
L 223.728217 211.113867 
L 226.52968 210.93387 
L 229.331144 210.753874 
L 232.132607 210.573878 
L 234.93407 210.393881 
L 237.735534 210.213885 
L 240.536997 210.033889 
L 243.338461 209.853892 
L 246.139924 209.673896 
L 248.941387 209.4939 
L 251.742851 209.313903 
L 254.544314 209.133907 
L 257.345778 208.953911 
L 260.147241 208.773914 
L 262.948705 208.593918 
L 265.750168 208.413922 
L 268.551631 208.233925 
L 271.353095 208.053929 
L 274.154558 207.873933 
L 276.956022 207.693936 
L 279.757485 207.51394 
L 282.558949 207.333944 
L 285.360412 207.153948 
L 288.161875 206.973951 
L 290.963339 206.793955 
L 293.764802 206.613959 
L 296.566266 206.433962 
L 299.367729 206.253966 
L 302.169192 206.07397 
L 304.970656 205.893973 
L 307.772119 205.713977 
L 310.573583 205.533981 
L 313.375046 205.353984 
L 316.17651 205.173988 
L 318.977973 204.993992 
L 321.779436 204.813995 
L 324.5809 204.633999 
L 327.382363 204.454003 
L 330.183827 204.274006 
L 332.98529 204.09401 
L 335.786753 203.914014 
" style="fill:none;stroke:#777777;stroke-linecap:square;stroke-width:2.25;"/>
   </g>
   <g id="patch_3">
    <path d="M 58.441875 311.6 
L 58.441875 7.2 
" style="fill:none;stroke:#ffffff;stroke-linecap:square;stroke-linejoin:miter;"/>
   </g>
   <g id="patch_4">
    <path d="M 58.441875 311.6 
L 335.786753 311.6 
" style="fill:none;stroke:#ffffff;stroke-linecap:square;stroke-linejoin:miter;"/>
   </g>
  </g>
  <g id="legend_1">
   <g id="text_20">
    <!-- name -->
    <g transform="translate(364.675816 148.949062)scale(0.1 -0.1)">
     <defs>
      <path d="M 54.890625 33.015625 
L 54.890625 0 
L 45.90625 0 
L 45.90625 32.71875 
Q 45.90625 40.484375 42.875 44.328125 
Q 39.84375 48.1875 33.796875 48.1875 
Q 26.515625 48.1875 22.3125 43.546875 
Q 18.109375 38.921875 18.109375 30.90625 
L 18.109375 0 
L 9.078125 0 
L 9.078125 54.6875 
L 18.109375 54.6875 
L 18.109375 46.1875 
Q 21.34375 51.125 25.703125 53.5625 
Q 30.078125 56 35.796875 56 
Q 45.21875 56 50.046875 50.171875 
Q 54.890625 44.34375 54.890625 33.015625 
z
" id="DejaVuSans-110"/>
      <path d="M 52 44.1875 
Q 55.375 50.25 60.0625 53.125 
Q 64.75 56 71.09375 56 
Q 79.640625 56 84.28125 50.015625 
Q 88.921875 44.046875 88.921875 33.015625 
L 88.921875 0 
L 79.890625 0 
L 79.890625 32.71875 
Q 79.890625 40.578125 77.09375 44.375 
Q 74.3125 48.1875 68.609375 48.1875 
Q 61.625 48.1875 57.5625 43.546875 
Q 53.515625 38.921875 53.515625 30.90625 
L 53.515625 0 
L 44.484375 0 
L 44.484375 32.71875 
Q 44.484375 40.625 41.703125 44.40625 
Q 38.921875 48.1875 33.109375 48.1875 
Q 26.21875 48.1875 22.15625 43.53125 
Q 18.109375 38.875 18.109375 30.90625 
L 18.109375 0 
L 9.078125 0 
L 9.078125 54.6875 
L 18.109375 54.6875 
L 18.109375 46.1875 
Q 21.1875 51.21875 25.484375 53.609375 
Q 29.78125 56 35.6875 56 
Q 41.65625 56 45.828125 52.96875 
Q 50 49.953125 52 44.1875 
z
" id="DejaVuSans-109"/>
     </defs>
     <use xlink:href="#DejaVuSans-110"/>
     <use x="63.378906" xlink:href="#DejaVuSans-97"/>
     <use x="124.658203" xlink:href="#DejaVuSans-109"/>
     <use x="222.070312" xlink:href="#DejaVuSans-101"/>
    </g>
   </g>
   <g id="PathCollection_5">
    <g>
     <use style="fill:#e24a33;fill-opacity:0.8;stroke:#e24a33;stroke-opacity:0.8;" x="351.168003" xlink:href="#mdaa07e3a2f" y="161.002187"/>
    </g>
   </g>
   <g id="text_21">
    <!-- CNN 1 S -->
    <g transform="translate(369.168003 163.627187)scale(0.1 -0.1)">
     <defs>
      <path d="M 64.40625 67.28125 
L 64.40625 56.890625 
Q 59.421875 61.53125 53.78125 63.8125 
Q 48.140625 66.109375 41.796875 66.109375 
Q 29.296875 66.109375 22.65625 58.46875 
Q 16.015625 50.828125 16.015625 36.375 
Q 16.015625 21.96875 22.65625 14.328125 
Q 29.296875 6.6875 41.796875 6.6875 
Q 48.140625 6.6875 53.78125 8.984375 
Q 59.421875 11.28125 64.40625 15.921875 
L 64.40625 5.609375 
Q 59.234375 2.09375 53.4375 0.328125 
Q 47.65625 -1.421875 41.21875 -1.421875 
Q 24.65625 -1.421875 15.125 8.703125 
Q 5.609375 18.84375 5.609375 36.375 
Q 5.609375 53.953125 15.125 64.078125 
Q 24.65625 74.21875 41.21875 74.21875 
Q 47.75 74.21875 53.53125 72.484375 
Q 59.328125 70.75 64.40625 67.28125 
z
" id="DejaVuSans-67"/>
      <path d="M 9.8125 72.90625 
L 23.09375 72.90625 
L 55.421875 11.921875 
L 55.421875 72.90625 
L 64.984375 72.90625 
L 64.984375 0 
L 51.703125 0 
L 19.390625 60.984375 
L 19.390625 0 
L 9.8125 0 
z
" id="DejaVuSans-78"/>
      <path id="DejaVuSans-32"/>
      <path d="M 53.515625 70.515625 
L 53.515625 60.890625 
Q 47.90625 63.578125 42.921875 64.890625 
Q 37.9375 66.21875 33.296875 66.21875 
Q 25.25 66.21875 20.875 63.09375 
Q 16.5 59.96875 16.5 54.203125 
Q 16.5 49.359375 19.40625 46.890625 
Q 22.3125 44.4375 30.421875 42.921875 
L 36.375 41.703125 
Q 47.40625 39.59375 52.65625 34.296875 
Q 57.90625 29 57.90625 20.125 
Q 57.90625 9.515625 50.796875 4.046875 
Q 43.703125 -1.421875 29.984375 -1.421875 
Q 24.8125 -1.421875 18.96875 -0.25 
Q 13.140625 0.921875 6.890625 3.21875 
L 6.890625 13.375 
Q 12.890625 10.015625 18.65625 8.296875 
Q 24.421875 6.59375 29.984375 6.59375 
Q 38.421875 6.59375 43.015625 9.90625 
Q 47.609375 13.234375 47.609375 19.390625 
Q 47.609375 24.75 44.3125 27.78125 
Q 41.015625 30.8125 33.5 32.328125 
L 27.484375 33.5 
Q 16.453125 35.6875 11.515625 40.375 
Q 6.59375 45.0625 6.59375 53.421875 
Q 6.59375 63.09375 13.40625 68.65625 
Q 20.21875 74.21875 32.171875 74.21875 
Q 37.3125 74.21875 42.625 73.28125 
Q 47.953125 72.359375 53.515625 70.515625 
z
" id="DejaVuSans-83"/>
     </defs>
     <use xlink:href="#DejaVuSans-67"/>
     <use x="69.824219" xlink:href="#DejaVuSans-78"/>
     <use x="144.628906" xlink:href="#DejaVuSans-78"/>
     <use x="219.433594" xlink:href="#DejaVuSans-32"/>
     <use x="251.220703" xlink:href="#DejaVuSans-49"/>
     <use x="314.84375" xlink:href="#DejaVuSans-32"/>
     <use x="346.630859" xlink:href="#DejaVuSans-83"/>
    </g>
   </g>
   <g id="PathCollection_6">
    <g>
     <use style="fill:#348abd;fill-opacity:0.8;stroke:#348abd;stroke-opacity:0.8;" x="351.168003" xlink:href="#m16ae246292" y="175.680312"/>
    </g>
   </g>
   <g id="text_22">
    <!-- CNN 2 S -->
    <g transform="translate(369.168003 178.305312)scale(0.1 -0.1)">
     <use xlink:href="#DejaVuSans-67"/>
     <use x="69.824219" xlink:href="#DejaVuSans-78"/>
     <use x="144.628906" xlink:href="#DejaVuSans-78"/>
     <use x="219.433594" xlink:href="#DejaVuSans-32"/>
     <use x="251.220703" xlink:href="#DejaVuSans-50"/>
     <use x="314.84375" xlink:href="#DejaVuSans-32"/>
     <use x="346.630859" xlink:href="#DejaVuSans-83"/>
    </g>
   </g>
   <g id="PathCollection_7">
    <g>
     <use style="fill:#988ed5;fill-opacity:0.8;stroke:#988ed5;stroke-opacity:0.8;" x="351.168003" xlink:href="#m840347c883" y="190.358437"/>
    </g>
   </g>
   <g id="text_23">
    <!-- CNN 5 S -->
    <g transform="translate(369.168003 192.983437)scale(0.1 -0.1)">
     <use xlink:href="#DejaVuSans-67"/>
     <use x="69.824219" xlink:href="#DejaVuSans-78"/>
     <use x="144.628906" xlink:href="#DejaVuSans-78"/>
     <use x="219.433594" xlink:href="#DejaVuSans-32"/>
     <use x="251.220703" xlink:href="#DejaVuSans-53"/>
     <use x="314.84375" xlink:href="#DejaVuSans-32"/>
     <use x="346.630859" xlink:href="#DejaVuSans-83"/>
    </g>
   </g>
   <g id="PathCollection_8">
    <g>
     <use style="fill:#777777;fill-opacity:0.8;stroke:#777777;stroke-opacity:0.8;" x="351.168003" xlink:href="#m39d771b55a" y="205.036562"/>
    </g>
   </g>
   <g id="text_24">
    <!-- CNN 10 S -->
    <g transform="translate(369.168003 207.661562)scale(0.1 -0.1)">
     <use xlink:href="#DejaVuSans-67"/>
     <use x="69.824219" xlink:href="#DejaVuSans-78"/>
     <use x="144.628906" xlink:href="#DejaVuSans-78"/>
     <use x="219.433594" xlink:href="#DejaVuSans-32"/>
     <use x="251.220703" xlink:href="#DejaVuSans-49"/>
     <use x="314.84375" xlink:href="#DejaVuSans-48"/>
     <use x="378.466797" xlink:href="#DejaVuSans-32"/>
     <use x="410.253906" xlink:href="#DejaVuSans-83"/>
    </g>
   </g>
  </g>
 </g>
 <defs>
  <clipPath id="p13fad5b9dc">
   <rect height="304.4" width="277.344878" x="58.441875" y="7.2"/>
  </clipPath>
 </defs>
</svg>
